999
DXF from OpenSCAD
  0
SECTION
  2
HEADER
  9
$ACADVER
  1
AC1006
  9
$INSBASE
 10
0.0
 20
0.0
 30
0.0
  9
$EXTMIN
 10
-70
 20
-39
  9
$EXTMAX
 10
70
 20
39
  9
$LINMIN
 10
-70
 20
-39
  9
$LINMAX
 10
70
 20
39
  0
ENDSEC
  0
SECTION
  2
TABLES
  0
TABLE
  2
LTYPE
 70
1
  0
LTYPE
  2
CONTINUOUS
 70
64
  3
Solid line
 72
65
 73
0
 40
0.000000
  0
ENDTAB
  0
TABLE
  2
LAYER
 70
6
  0
LAYER
  2
0
 70
64
 62
7
  6
CONTINUOUS
  0
ENDTAB
  0
TABLE
  2
STYLE
 70
0
  0
ENDTAB
  0
ENDSEC
  0
SECTION
  2
BLOCKS
  0
ENDSEC
  0
SECTION
  2
ENTITIES
  0
LWPOLYLINE
100
AcDbEntity
  8
0
100
AcDbPolyline
 90
64
 70
1
 10
67.3136
 20
-38.9836
 10
67.6237
 20
-38.9344
 10
67.9271
 20
-38.8532
 10
68.2202
 20
-38.7406
 10
68.5
 20
-38.5981
 10
68.7634
 20
-38.4271
 10
69.0074
 20
-38.2294
 10
69.2294
 20
-38.0074
 10
69.4271
 20
-37.7634
 10
69.5981
 20
-37.5
 10
69.7406
 20
-37.2202
 10
69.8532
 20
-36.9271
 10
69.9344
 20
-36.6237
 10
69.9836
 20
-36.3136
 10
70
 20
-36
 10
70
 20
36
 10
69.9836
 20
36.3136
 10
69.9344
 20
36.6237
 10
69.8532
 20
36.9271
 10
69.7406
 20
37.2202
 10
69.5981
 20
37.5
 10
69.4271
 20
37.7634
 10
69.2294
 20
38.0074
 10
69.0074
 20
38.2294
 10
68.7634
 20
38.4271
 10
68.5
 20
38.5981
 10
68.2202
 20
38.7406
 10
67.9271
 20
38.8532
 10
67.6237
 20
38.9344
 10
67.3136
 20
38.9836
 10
67
 20
39
 10
-67
 20
39
 10
-67.3136
 20
38.9836
 10
-67.6237
 20
38.9344
 10
-67.9271
 20
38.8532
 10
-68.2202
 20
38.7406
 10
-68.5
 20
38.5981
 10
-68.7634
 20
38.4271
 10
-69.0074
 20
38.2294
 10
-69.2294
 20
38.0074
 10
-69.4271
 20
37.7634
 10
-69.5981
 20
37.5
 10
-69.7406
 20
37.2202
 10
-69.8532
 20
36.9271
 10
-69.9344
 20
36.6237
 10
-69.9836
 20
36.3136
 10
-70
 20
36
 10
-70
 20
-36
 10
-69.9836
 20
-36.3136
 10
-69.9344
 20
-36.6237
 10
-69.8532
 20
-36.9271
 10
-69.7406
 20
-37.2202
 10
-69.5981
 20
-37.5
 10
-69.4271
 20
-37.7634
 10
-69.2294
 20
-38.0074
 10
-69.0074
 20
-38.2294
 10
-68.7634
 20
-38.4271
 10
-68.5
 20
-38.5981
 10
-68.2202
 20
-38.7406
 10
-67.9271
 20
-38.8532
 10
-67.6237
 20
-38.9344
 10
-67.3136
 20
-38.9836
 10
-67
 20
-39
 10
67
 20
-39
  0
LWPOLYLINE
100
AcDbEntity
  8
0
100
AcDbPolyline
 90
60
 70
1
 10
49.5714
 20
25.9225
 10
49.1476
 20
25.9896
 10
48.733
 20
26.1007
 10
48.3324
 20
26.2545
 10
47.95
 20
26.4493
 10
47.5901
 20
26.683
 10
47.2566
 20
26.9531
 10
46.9531
 20
27.2566
 10
46.683
 20
27.5901
 10
46.4493
 20
27.95
 10
46.2545
 20
28.3324
 10
46.1007
 20
28.733
 10
45.9896
 20
29.1476
 10
45.9225
 20
29.5714
 10
45.9
 20
30
 10
45.9225
 20
30.4286
 10
45.9896
 20
30.8524
 10
46.1007
 20
31.267
 10
46.2545
 20
31.6676
 10
46.4493
 20
32.05
 10
46.683
 20
32.4099
 10
46.9531
 20
32.7434
 10
47.2566
 20
33.0469
 10
47.5901
 20
33.317
 10
47.95
 20
33.5507
 10
48.3324
 20
33.7455
 10
48.733
 20
33.8993
 10
49.1476
 20
34.0104
 10
49.5714
 20
34.0775
 10
50
 20
34.1
 10
50.4286
 20
34.0775
 10
50.8524
 20
34.0104
 10
51.267
 20
33.8993
 10
51.6676
 20
33.7455
 10
52.05
 20
33.5507
 10
52.4099
 20
33.317
 10
52.7434
 20
33.0469
 10
53.0469
 20
32.7434
 10
53.317
 20
32.4099
 10
53.5507
 20
32.05
 10
53.7455
 20
31.6676
 10
53.8993
 20
31.267
 10
54.0104
 20
30.8524
 10
54.0775
 20
30.4286
 10
54.1
 20
30
 10
54.0775
 20
29.5714
 10
54.0104
 20
29.1476
 10
53.8993
 20
28.733
 10
53.7455
 20
28.3324
 10
53.5507
 20
27.95
 10
53.317
 20
27.5901
 10
53.0469
 20
27.2566
 10
52.7434
 20
26.9531
 10
52.4099
 20
26.683
 10
52.05
 20
26.4493
 10
51.6676
 20
26.2545
 10
51.267
 20
26.1007
 10
50.8524
 20
25.9896
 10
50.4286
 20
25.9225
 10
50
 20
25.9
  0
LWPOLYLINE
100
AcDbEntity
  8
0
100
AcDbPolyline
 90
60
 70
1
 10
-10.2718
 20
20.4142
 10
-10.5406
 20
20.4568
 10
-10.8034
 20
20.5273
 10
-11.0575
 20
20.6248
 10
-11.3
 20
20.7483
 10
-11.5282
 20
20.8966
 10
-11.7397
 20
21.0678
 10
-11.9322
 20
21.2603
 10
-12.1034
 20
21.4718
 10
-12.2517
 20
21.7
 10
-12.3752
 20
21.9425
 10
-12.4727
 20
22.1966
 10
-12.5432
 20
22.4594
 10
-12.5858
 20
22.7282
 10
-12.6
 20
23
 10
-12.5858
 20
23.2718
 10
-12.5432
 20
23.5406
 10
-12.4727
 20
23.8034
 10
-12.3752
 20
24.0575
 10
-12.2517
 20
24.3
 10
-12.1034
 20
24.5282
 10
-11.9322
 20
24.7397
 10
-11.7397
 20
24.9322
 10
-11.5282
 20
25.1034
 10
-11.3
 20
25.2517
 10
-11.0575
 20
25.3752
 10
-10.8034
 20
25.4727
 10
-10.5406
 20
25.5432
 10
-10.2718
 20
25.5858
 10
-10
 20
25.6
 10
-9.72823
 20
25.5858
 10
-9.45943
 20
25.5432
 10
-9.19656
 20
25.4727
 10
-8.94248
 20
25.3752
 10
-8.7
 20
25.2517
 10
-8.47176
 20
25.1034
 10
-8.26026
 20
24.9322
 10
-8.06782
 20
24.7397
 10
-7.89656
 20
24.5282
 10
-7.74833
 20
24.3
 10
-7.62478
 20
24.0575
 10
-7.52725
 20
23.8034
 10
-7.45682
 20
23.5406
 10
-7.41424
 20
23.2718
 10
-7.4
 20
23
 10
-7.41424
 20
22.7282
 10
-7.45682
 20
22.4594
 10
-7.52725
 20
22.1966
 10
-7.62478
 20
21.9425
 10
-7.74833
 20
21.7
 10
-7.89656
 20
21.4718
 10
-8.06782
 20
21.2603
 10
-8.26026
 20
21.0678
 10
-8.47176
 20
20.8966
 10
-8.7
 20
20.7483
 10
-8.94248
 20
20.6248
 10
-9.19656
 20
20.5273
 10
-9.45943
 20
20.4568
 10
-9.72823
 20
20.4142
 10
-10
 20
20.4
  0
LWPOLYLINE
100
AcDbEntity
  8
0
100
AcDbPolyline
 90
60
 70
1
 10
-28.2718
 20
20.4142
 10
-28.5406
 20
20.4568
 10
-28.8034
 20
20.5273
 10
-29.0575
 20
20.6248
 10
-29.3
 20
20.7483
 10
-29.5282
 20
20.8966
 10
-29.7397
 20
21.0678
 10
-29.9322
 20
21.2603
 10
-30.1034
 20
21.4718
 10
-30.2517
 20
21.7
 10
-30.3752
 20
21.9425
 10
-30.4727
 20
22.1966
 10
-30.5432
 20
22.4594
 10
-30.5858
 20
22.7282
 10
-30.6
 20
23
 10
-30.5858
 20
23.2718
 10
-30.5432
 20
23.5406
 10
-30.4727
 20
23.8034
 10
-30.3752
 20
24.0575
 10
-30.2517
 20
24.3
 10
-30.1034
 20
24.5282
 10
-29.9322
 20
24.7397
 10
-29.7397
 20
24.9322
 10
-29.5282
 20
25.1034
 10
-29.3
 20
25.2517
 10
-29.0575
 20
25.3752
 10
-28.8034
 20
25.4727
 10
-28.5406
 20
25.5432
 10
-28.2718
 20
25.5858
 10
-28
 20
25.6
 10
-27.7282
 20
25.5858
 10
-27.4594
 20
25.5432
 10
-27.1966
 20
25.4727
 10
-26.9425
 20
25.3752
 10
-26.7
 20
25.2517
 10
-26.4718
 20
25.1034
 10
-26.2603
 20
24.9322
 10
-26.0678
 20
24.7397
 10
-25.8966
 20
24.5282
 10
-25.7483
 20
24.3
 10
-25.6248
 20
24.0575
 10
-25.5273
 20
23.8034
 10
-25.4568
 20
23.5406
 10
-25.4142
 20
23.2718
 10
-25.4
 20
23
 10
-25.4142
 20
22.7282
 10
-25.4568
 20
22.4594
 10
-25.5273
 20
22.1966
 10
-25.6248
 20
21.9425
 10
-25.7483
 20
21.7
 10
-25.8966
 20
21.4718
 10
-26.0678
 20
21.2603
 10
-26.2603
 20
21.0678
 10
-26.4718
 20
20.8966
 10
-26.7
 20
20.7483
 10
-26.9425
 20
20.6248
 10
-27.1966
 20
20.5273
 10
-27.4594
 20
20.4568
 10
-27.7282
 20
20.4142
 10
-28
 20
20.4
  0
LWPOLYLINE
100
AcDbEntity
  8
0
100
AcDbPolyline
 90
60
 70
1
 10
-29.3066
 20
-12.4315
 10
-30.5989
 20
-12.2268
 10
-31.8627
 20
-11.8882
 10
-33.0842
 20
-11.4193
 10
-34.25
 20
-10.8253
 10
-35.3473
 20
-10.1127
 10
-36.3641
 20
-9.28931
 10
-37.2893
 20
-8.36413
 10
-38.1127
 20
-7.34732
 10
-38.8253
 20
-6.25
 10
-39.4193
 20
-5.08421
 10
-39.8882
 20
-3.86271
 10
-40.2268
 20
-2.5989
 10
-40.4315
 20
-1.30661
 10
-40.5
 20
0
 10
-40.4315
 20
1.30661
 10
-40.2268
 20
2.5989
 10
-39.8882
 20
3.86271
 10
-39.4193
 20
5.08421
 10
-38.8253
 20
6.25
 10
-38.1127
 20
7.34732
 10
-37.2893
 20
8.36413
 10
-36.3641
 20
9.28931
 10
-35.3473
 20
10.1127
 10
-34.25
 20
10.8253
 10
-33.0842
 20
11.4193
 10
-31.8627
 20
11.8882
 10
-30.5989
 20
12.2268
 10
-29.3066
 20
12.4315
 10
-28
 20
12.5
 10
-26.6934
 20
12.4315
 10
-25.4011
 20
12.2268
 10
-24.1373
 20
11.8882
 10
-22.9158
 20
11.4193
 10
-21.75
 20
10.8253
 10
-20.6527
 20
10.1127
 10
-19.6359
 20
9.28931
 10
-18.7107
 20
8.36413
 10
-17.8873
 20
7.34732
 10
-17.1747
 20
6.25
 10
-16.5807
 20
5.08421
 10
-16.1118
 20
3.86271
 10
-15.7732
 20
2.5989
 10
-15.5685
 20
1.30661
 10
-15.5
 20
0
 10
-15.5685
 20
-1.30661
 10
-15.7732
 20
-2.5989
 10
-16.1118
 20
-3.86271
 10
-16.5807
 20
-5.08421
 10
-17.1747
 20
-6.25
 10
-17.8873
 20
-7.34732
 10
-18.7107
 20
-8.36413
 10
-19.6359
 20
-9.28931
 10
-20.6527
 20
-10.1127
 10
-21.75
 20
-10.8253
 10
-22.9158
 20
-11.4193
 10
-24.1373
 20
-11.8882
 10
-25.4011
 20
-12.2268
 10
-26.6934
 20
-12.4315
 10
-28
 20
-12.5
  0
LWPOLYLINE
100
AcDbEntity
  8
0
100
AcDbPolyline
 90
60
 70
1
 10
49.5714
 20
-4.07754
 10
49.1476
 20
-4.01041
 10
48.733
 20
-3.89933
 10
48.3324
 20
-3.74554
 10
47.95
 20
-3.5507
 10
47.5901
 20
-3.31697
 10
47.2566
 20
-3.04689
 10
46.9531
 20
-2.74344
 10
46.683
 20
-2.40992
 10
46.4493
 20
-2.05
 10
46.2545
 20
-1.66762
 10
46.1007
 20
-1.26697
 10
45.9896
 20
-0.852438
 10
45.9225
 20
-0.428567
 10
45.9
 20
0
 10
45.9225
 20
0.428567
 10
45.9896
 20
0.852438
 10
46.1007
 20
1.26697
 10
46.2545
 20
1.66762
 10
46.4493
 20
2.05
 10
46.683
 20
2.40992
 10
46.9531
 20
2.74344
 10
47.2566
 20
3.04689
 10
47.5901
 20
3.31697
 10
47.95
 20
3.5507
 10
48.3324
 20
3.74554
 10
48.733
 20
3.89933
 10
49.1476
 20
4.01041
 10
49.5714
 20
4.07754
 10
50
 20
4.1
 10
50.4286
 20
4.07754
 10
50.8524
 20
4.01041
 10
51.267
 20
3.89933
 10
51.6676
 20
3.74554
 10
52.05
 20
3.5507
 10
52.4099
 20
3.31697
 10
52.7434
 20
3.04689
 10
53.0469
 20
2.74344
 10
53.317
 20
2.40992
 10
53.5507
 20
2.05
 10
53.7455
 20
1.66762
 10
53.8993
 20
1.26697
 10
54.0104
 20
0.852438
 10
54.0775
 20
0.428567
 10
54.1
 20
0
 10
54.0775
 20
-0.428567
 10
54.0104
 20
-0.852438
 10
53.8993
 20
-1.26697
 10
53.7455
 20
-1.66762
 10
53.5507
 20
-2.05
 10
53.317
 20
-2.40992
 10
53.0469
 20
-2.74344
 10
52.7434
 20
-3.04689
 10
52.4099
 20
-3.31697
 10
52.05
 20
-3.5507
 10
51.6676
 20
-3.74554
 10
51.267
 20
-3.89933
 10
50.8524
 20
-4.01041
 10
50.4286
 20
-4.07754
 10
50
 20
-4.1
  0
LWPOLYLINE
100
AcDbEntity
  8
0
100
AcDbPolyline
 90
60
 70
1
 10
-10.2718
 20
-25.5858
 10
-10.5406
 20
-25.5432
 10
-10.8034
 20
-25.4727
 10
-11.0575
 20
-25.3752
 10
-11.3
 20
-25.2517
 10
-11.5282
 20
-25.1034
 10
-11.7397
 20
-24.9322
 10
-11.9322
 20
-24.7397
 10
-12.1034
 20
-24.5282
 10
-12.2517
 20
-24.3
 10
-12.3752
 20
-24.0575
 10
-12.4727
 20
-23.8034
 10
-12.5432
 20
-23.5406
 10
-12.5858
 20
-23.2718
 10
-12.6
 20
-23
 10
-12.5858
 20
-22.7282
 10
-12.5432
 20
-22.4594
 10
-12.4727
 20
-22.1966
 10
-12.3752
 20
-21.9425
 10
-12.2517
 20
-21.7
 10
-12.1034
 20
-21.4718
 10
-11.9322
 20
-21.2603
 10
-11.7397
 20
-21.0678
 10
-11.5282
 20
-20.8966
 10
-11.3
 20
-20.7483
 10
-11.0575
 20
-20.6248
 10
-10.8034
 20
-20.5273
 10
-10.5406
 20
-20.4568
 10
-10.2718
 20
-20.4142
 10
-10
 20
-20.4
 10
-9.72823
 20
-20.4142
 10
-9.45943
 20
-20.4568
 10
-9.19656
 20
-20.5273
 10
-8.94248
 20
-20.6248
 10
-8.7
 20
-20.7483
 10
-8.47176
 20
-20.8966
 10
-8.26026
 20
-21.0678
 10
-8.06782
 20
-21.2603
 10
-7.89656
 20
-21.4718
 10
-7.74833
 20
-21.7
 10
-7.62478
 20
-21.9425
 10
-7.52725
 20
-22.1966
 10
-7.45682
 20
-22.4594
 10
-7.41424
 20
-22.7282
 10
-7.4
 20
-23
 10
-7.41424
 20
-23.2718
 10
-7.45682
 20
-23.5406
 10
-7.52725
 20
-23.8034
 10
-7.62478
 20
-24.0575
 10
-7.74833
 20
-24.3
 10
-7.89656
 20
-24.5282
 10
-8.06782
 20
-24.7397
 10
-8.26026
 20
-24.9322
 10
-8.47176
 20
-25.1034
 10
-8.7
 20
-25.2517
 10
-8.94248
 20
-25.3752
 10
-9.19656
 20
-25.4727
 10
-9.45943
 20
-25.5432
 10
-9.72823
 20
-25.5858
 10
-10
 20
-25.6
  0
LWPOLYLINE
100
AcDbEntity
  8
0
100
AcDbPolyline
 90
60
 70
1
 10
-28.2718
 20
-25.5858
 10
-28.5406
 20
-25.5432
 10
-28.8034
 20
-25.4727
 10
-29.0575
 20
-25.3752
 10
-29.3
 20
-25.2517
 10
-29.5282
 20
-25.1034
 10
-29.7397
 20
-24.9322
 10
-29.9322
 20
-24.7397
 10
-30.1034
 20
-24.5282
 10
-30.2517
 20
-24.3
 10
-30.3752
 20
-24.0575
 10
-30.4727
 20
-23.8034
 10
-30.5432
 20
-23.5406
 10
-30.5858
 20
-23.2718
 10
-30.6
 20
-23
 10
-30.5858
 20
-22.7282
 10
-30.5432
 20
-22.4594
 10
-30.4727
 20
-22.1966
 10
-30.3752
 20
-21.9425
 10
-30.2517
 20
-21.7
 10
-30.1034
 20
-21.4718
 10
-29.9322
 20
-21.2603
 10
-29.7397
 20
-21.0678
 10
-29.5282
 20
-20.8966
 10
-29.3
 20
-20.7483
 10
-29.0575
 20
-20.6248
 10
-28.8034
 20
-20.5273
 10
-28.5406
 20
-20.4568
 10
-28.2718
 20
-20.4142
 10
-28
 20
-20.4
 10
-27.7282
 20
-20.4142
 10
-27.4594
 20
-20.4568
 10
-27.1966
 20
-20.5273
 10
-26.9425
 20
-20.6248
 10
-26.7
 20
-20.7483
 10
-26.4718
 20
-20.8966
 10
-26.2603
 20
-21.0678
 10
-26.0678
 20
-21.2603
 10
-25.8966
 20
-21.4718
 10
-25.7483
 20
-21.7
 10
-25.6248
 20
-21.9425
 10
-25.5273
 20
-22.1966
 10
-25.4568
 20
-22.4594
 10
-25.4142
 20
-22.7282
 10
-25.4
 20
-23
 10
-25.4142
 20
-23.2718
 10
-25.4568
 20
-23.5406
 10
-25.5273
 20
-23.8034
 10
-25.6248
 20
-24.0575
 10
-25.7483
 20
-24.3
 10
-25.8966
 20
-24.5282
 10
-26.0678
 20
-24.7397
 10
-26.2603
 20
-24.9322
 10
-26.4718
 20
-25.1034
 10
-26.7
 20
-25.2517
 10
-26.9425
 20
-25.3752
 10
-27.1966
 20
-25.4727
 10
-27.4594
 20
-25.5432
 10
-27.7282
 20
-25.5858
 10
-28
 20
-25.6
  0
LWPOLYLINE
100
AcDbEntity
  8
0
100
AcDbPolyline
 90
60
 70
1
 10
49.5714
 20
-34.0775
 10
49.1476
 20
-34.0104
 10
48.733
 20
-33.8993
 10
48.3324
 20
-33.7455
 10
47.95
 20
-33.5507
 10
47.5901
 20
-33.317
 10
47.2566
 20
-33.0469
 10
46.9531
 20
-32.7434
 10
46.683
 20
-32.4099
 10
46.4493
 20
-32.05
 10
46.2545
 20
-31.6676
 10
46.1007
 20
-31.267
 10
45.9896
 20
-30.8524
 10
45.9225
 20
-30.4286
 10
45.9
 20
-30
 10
45.9225
 20
-29.5714
 10
45.9896
 20
-29.1476
 10
46.1007
 20
-28.733
 10
46.2545
 20
-28.3324
 10
46.4493
 20
-27.95
 10
46.683
 20
-27.5901
 10
46.9531
 20
-27.2566
 10
47.2566
 20
-26.9531
 10
47.5901
 20
-26.683
 10
47.95
 20
-26.4493
 10
48.3324
 20
-26.2545
 10
48.733
 20
-26.1007
 10
49.1476
 20
-25.9896
 10
49.5714
 20
-25.9225
 10
50
 20
-25.9
 10
50.4286
 20
-25.9225
 10
50.8524
 20
-25.9896
 10
51.267
 20
-26.1007
 10
51.6676
 20
-26.2545
 10
52.05
 20
-26.4493
 10
52.4099
 20
-26.683
 10
52.7434
 20
-26.9531
 10
53.0469
 20
-27.2566
 10
53.317
 20
-27.5901
 10
53.5507
 20
-27.95
 10
53.7455
 20
-28.3324
 10
53.8993
 20
-28.733
 10
54.0104
 20
-29.1476
 10
54.0775
 20
-29.5714
 10
54.1
 20
-30
 10
54.0775
 20
-30.4286
 10
54.0104
 20
-30.8524
 10
53.8993
 20
-31.267
 10
53.7455
 20
-31.6676
 10
53.5507
 20
-32.05
 10
53.317
 20
-32.4099
 10
53.0469
 20
-32.7434
 10
52.7434
 20
-33.0469
 10
52.4099
 20
-33.317
 10
52.05
 20
-33.5507
 10
51.6676
 20
-33.7455
 10
51.267
 20
-33.8993
 10
50.8524
 20
-34.0104
 10
50.4286
 20
-34.0775
 10
50
 20
-34.1
  0
ENDSEC
  0
EOF
