  0
SECTION
  2
BLOCKS
  0
ENDSEC
  0
SECTION
  2
ENTITIES
  0
LINE
  8
0
 10
50.618
 20
-91.9021
 11
51.0716
 21
-91.6886
  0
LINE
  8
0
 10
51.0716
 20
-91.6886
 11
51.4579
 21
-91.3691
  0
LINE
  8
0
 10
51.4579
 20
-91.3691
 11
51.7526
 21
-90.9635
  0
LINE
  8
0
 10
51.7526
 20
-90.9635
 11
51.9372
 21
-90.4974
  0
LINE
  8
0
 10
51.9372
 20
-90.4974
 11
52
 21
-90
  0
LINE
  8
0
 10
52
 20
-90
 11
52
 21
-22.996
  0
LINE
  8
0
 10
52
 20
-22.996
 11
100.126
 21
-22.996
  0
LINE
  8
0
 10
100.126
 20
-22.996
 11
100.618
 21
-22.9021
  0
LINE
  8
0
 10
100.618
 20
-22.9021
 11
101.072
 21
-22.6886
  0
LINE
  8
0
 10
101.072
 20
-22.6886
 11
101.458
 21
-22.3691
  0
LINE
  8
0
 10
101.458
 20
-22.3691
 11
101.753
 21
-21.9635
  0
LINE
  8
0
 10
101.753
 20
-21.9635
 11
101.937
 21
-21.4974
  0
LINE
  8
0
 10
101.937
 20
-21.4974
 11
102
 21
-21
  0
LINE
  8
0
 10
102
 20
-21
 11
102
 21
23
  0
LINE
  8
0
 10
102
 20
23
 11
101.937
 21
23.4974
  0
LINE
  8
0
 10
101.937
 20
23.4974
 11
101.753
 21
23.9635
  0
LINE
  8
0
 10
101.753
 20
23.9635
 11
101.458
 21
24.3691
  0
LINE
  8
0
 10
101.458
 20
24.3691
 11
101.072
 21
24.6886
  0
LINE
  8
0
 10
101.072
 20
24.6886
 11
100.618
 21
24.9021
  0
LINE
  8
0
 10
100.618
 20
24.9021
 11
100.126
 21
24.996
  0
LINE
  8
0
 10
100.126
 20
24.996
 11
52
 21
24.996
  0
LINE
  8
0
 10
52
 20
24.996
 11
52
 21
150
  0
LINE
  8
0
 10
52
 20
150
 11
51.9372
 21
150.497
  0
LINE
  8
0
 10
51.9372
 20
150.497
 11
51.7526
 21
150.964
  0
LINE
  8
0
 10
51.7526
 20
150.964
 11
51.4579
 21
151.369
  0
LINE
  8
0
 10
51.4579
 20
151.369
 11
51.0716
 21
151.689
  0
LINE
  8
0
 10
51.0716
 20
151.689
 11
50.618
 21
151.902
  0
LINE
  8
0
 10
50.618
 20
151.902
 11
50.1256
 21
151.996
  0
LINE
  8
0
 10
50.1256
 20
151.996
 11
-49.8744
 21
151.996
  0
LINE
  8
0
 10
-49.8744
 20
151.996
 11
-50.3748
 21
151.965
  0
LINE
  8
0
 10
-50.3748
 20
151.965
 11
-50.8515
 21
151.81
  0
LINE
  8
0
 10
-50.8515
 20
151.81
 11
-51.2748
 21
151.541
  0
LINE
  8
0
 10
-51.2748
 20
151.541
 11
-51.618
 21
151.176
  0
LINE
  8
0
 10
-51.618
 20
151.176
 11
-51.8595
 21
150.736
  0
LINE
  8
0
 10
-51.8595
 20
150.736
 11
-51.9842
 21
150.251
  0
LINE
  8
0
 10
-51.9842
 20
150.251
 11
-51.9842
 21
24.996
  0
LINE
  8
0
 10
-51.9842
 20
24.996
 11
-99.8744
 21
24.996
  0
LINE
  8
0
 10
-99.8744
 20
24.996
 11
-100.375
 21
24.9646
  0
LINE
  8
0
 10
-100.375
 20
24.9646
 11
-100.852
 21
24.8096
  0
LINE
  8
0
 10
-100.852
 20
24.8096
 11
-101.275
 21
24.541
  0
LINE
  8
0
 10
-101.275
 20
24.541
 11
-101.618
 21
24.1756
  0
LINE
  8
0
 10
-101.618
 20
24.1756
 11
-101.86
 21
23.7362
  0
LINE
  8
0
 10
-101.86
 20
23.7362
 11
-101.984
 21
23.2507
  0
LINE
  8
0
 10
-101.984
 20
23.2507
 11
-101.984
 21
-21.2507
  0
LINE
  8
0
 10
-101.984
 20
-21.2507
 11
-101.86
 21
-21.7362
  0
LINE
  8
0
 10
-101.86
 20
-21.7362
 11
-101.618
 21
-22.1756
  0
LINE
  8
0
 10
-101.618
 20
-22.1756
 11
-101.275
 21
-22.541
  0
LINE
  8
0
 10
-101.275
 20
-22.541
 11
-100.852
 21
-22.8096
  0
LINE
  8
0
 10
-100.852
 20
-22.8096
 11
-100.375
 21
-22.9646
  0
LINE
  8
0
 10
-100.375
 20
-22.9646
 11
-99.8744
 21
-22.996
  0
LINE
  8
0
 10
-99.8744
 20
-22.996
 11
-51.9842
 21
-22.996
  0
LINE
  8
0
 10
-51.9842
 20
-22.996
 11
-51.9842
 21
-90.2507
  0
LINE
  8
0
 10
-51.9842
 20
-90.2507
 11
-51.8595
 21
-90.7362
  0
LINE
  8
0
 10
-51.8595
 20
-90.7362
 11
-51.618
 21
-91.1756
  0
LINE
  8
0
 10
-51.618
 20
-91.1756
 11
-51.2748
 21
-91.541
  0
LINE
  8
0
 10
-51.2748
 20
-91.541
 11
-50.8515
 21
-91.8096
  0
LINE
  8
0
 10
-50.8515
 20
-91.8096
 11
-50.3748
 21
-91.9646
  0
LINE
  8
0
 10
-50.3748
 20
-91.9646
 11
-49.8744
 21
-91.996
  0
LINE
  8
0
 10
-49.8744
 20
-91.996
 11
50.1256
 21
-91.996
  0
LINE
  8
0
 10
50.1256
 20
-91.996
 11
50.618
 21
-91.9021
  0
LINE
  8
0
 10
31.2247
 20
133.721
 11
30.4738
 21
133.965
  0
LINE
  8
0
 10
30.4738
 20
133.965
 11
29.8071
 21
134.388
  0
LINE
  8
0
 10
29.8071
 20
134.388
 11
29.2666
 21
134.963
  0
LINE
  8
0
 10
29.2666
 20
134.963
 11
28.8862
 21
135.655
  0
LINE
  8
0
 10
28.8862
 20
135.655
 11
28.6898
 21
136.42
  0
LINE
  8
0
 10
28.6898
 20
136.42
 11
28.6898
 21
137.21
  0
LINE
  8
0
 10
28.6898
 20
137.21
 11
28.8862
 21
137.975
  0
LINE
  8
0
 10
28.8862
 20
137.975
 11
29.2666
 21
138.667
  0
LINE
  8
0
 10
29.2666
 20
138.667
 11
29.8071
 21
139.242
  0
LINE
  8
0
 10
29.8071
 20
139.242
 11
30.4738
 21
139.665
  0
LINE
  8
0
 10
30.4738
 20
139.665
 11
31.2247
 21
139.909
  0
LINE
  8
0
 10
31.2247
 20
139.909
 11
32.0128
 21
139.959
  0
LINE
  8
0
 10
32.0128
 20
139.959
 11
32.7884
 21
139.811
  0
LINE
  8
0
 10
32.7884
 20
139.811
 11
33.5029
 21
139.475
  0
LINE
  8
0
 10
33.5029
 20
139.475
 11
34.1112
 21
138.971
  0
LINE
  8
0
 10
34.1112
 20
138.971
 11
34.5754
 21
138.333
  0
LINE
  8
0
 10
34.5754
 20
138.333
 11
34.866
 21
137.598
  0
LINE
  8
0
 10
34.866
 20
137.598
 11
34.965
 21
136.815
  0
LINE
  8
0
 10
34.965
 20
136.815
 11
34.866
 21
136.032
  0
LINE
  8
0
 10
34.866
 20
136.032
 11
34.5754
 21
135.297
  0
LINE
  8
0
 10
34.5754
 20
135.297
 11
34.1112
 21
134.659
  0
LINE
  8
0
 10
34.1112
 20
134.659
 11
33.5029
 21
134.155
  0
LINE
  8
0
 10
33.5029
 20
134.155
 11
32.7884
 21
133.819
  0
LINE
  8
0
 10
32.7884
 20
133.819
 11
32.0128
 21
133.671
  0
LINE
  8
0
 10
32.0128
 20
133.671
 11
31.2247
 21
133.721
  0
LINE
  8
0
 10
-32.4052
 20
133.721
 11
-33.1562
 21
133.965
  0
LINE
  8
0
 10
-33.1562
 20
133.965
 11
-33.8229
 21
134.388
  0
LINE
  8
0
 10
-33.8229
 20
134.388
 11
-34.3634
 21
134.963
  0
LINE
  8
0
 10
-34.3634
 20
134.963
 11
-34.7438
 21
135.655
  0
LINE
  8
0
 10
-34.7438
 20
135.655
 11
-34.9402
 21
136.42
  0
LINE
  8
0
 10
-34.9402
 20
136.42
 11
-34.9402
 21
137.21
  0
LINE
  8
0
 10
-34.9402
 20
137.21
 11
-34.7438
 21
137.975
  0
LINE
  8
0
 10
-34.7438
 20
137.975
 11
-34.3634
 21
138.667
  0
LINE
  8
0
 10
-34.3634
 20
138.667
 11
-33.8229
 21
139.242
  0
LINE
  8
0
 10
-33.8229
 20
139.242
 11
-33.1562
 21
139.665
  0
LINE
  8
0
 10
-33.1562
 20
139.665
 11
-32.4052
 21
139.909
  0
LINE
  8
0
 10
-32.4052
 20
139.909
 11
-31.6172
 21
139.959
  0
LINE
  8
0
 10
-31.6172
 20
139.959
 11
-30.8416
 21
139.811
  0
LINE
  8
0
 10
-30.8416
 20
139.811
 11
-30.1271
 21
139.475
  0
LINE
  8
0
 10
-30.1271
 20
139.475
 11
-29.5187
 21
138.971
  0
LINE
  8
0
 10
-29.5187
 20
138.971
 11
-29.0546
 21
138.333
  0
LINE
  8
0
 10
-29.0546
 20
138.333
 11
-28.764
 21
137.598
  0
LINE
  8
0
 10
-28.764
 20
137.598
 11
-28.665
 21
136.815
  0
LINE
  8
0
 10
-28.665
 20
136.815
 11
-28.764
 21
136.032
  0
LINE
  8
0
 10
-28.764
 20
136.032
 11
-29.0546
 21
135.297
  0
LINE
  8
0
 10
-29.0546
 20
135.297
 11
-29.5187
 21
134.659
  0
LINE
  8
0
 10
-29.5187
 20
134.659
 11
-30.1271
 21
134.155
  0
LINE
  8
0
 10
-30.1271
 20
134.155
 11
-30.8416
 21
133.819
  0
LINE
  8
0
 10
-30.8416
 20
133.819
 11
-31.6172
 21
133.671
  0
LINE
  8
0
 10
-31.6172
 20
133.671
 11
-32.4052
 21
133.721
  0
LINE
  8
0
 10
-6.55833
 20
70.6199
 11
-14.9023
 21
73.3311
  0
LINE
  8
0
 10
-14.9023
 20
73.3311
 11
-22.3098
 21
78.032
  0
LINE
  8
0
 10
-22.3098
 20
78.032
 11
-28.3156
 21
84.4275
  0
LINE
  8
0
 10
-28.3156
 20
84.4275
 11
-32.5422
 21
92.1156
  0
LINE
  8
0
 10
-32.5422
 20
92.1156
 11
-34.724
 21
100.613
  0
LINE
  8
0
 10
-34.724
 20
100.613
 11
-34.724
 21
109.387
  0
LINE
  8
0
 10
-34.724
 20
109.387
 11
-32.5422
 21
117.884
  0
LINE
  8
0
 10
-32.5422
 20
117.884
 11
-28.3156
 21
125.572
  0
LINE
  8
0
 10
-28.3156
 20
125.572
 11
-22.3098
 21
131.968
  0
LINE
  8
0
 10
-22.3098
 20
131.968
 11
-14.9023
 21
136.669
  0
LINE
  8
0
 10
-14.9023
 20
136.669
 11
-6.55833
 21
139.38
  0
LINE
  8
0
 10
-6.55833
 20
139.38
 11
2.19766
 21
139.931
  0
LINE
  8
0
 10
2.19766
 20
139.931
 11
10.8156
 21
138.287
  0
LINE
  8
0
 10
10.8156
 20
138.287
 11
18.7539
 21
134.551
  0
LINE
  8
0
 10
18.7539
 20
134.551
 11
25.5139
 21
128.959
  0
LINE
  8
0
 10
25.5139
 20
128.959
 11
30.6707
 21
121.861
  0
LINE
  8
0
 10
30.6707
 20
121.861
 11
33.9004
 21
113.704
  0
LINE
  8
0
 10
33.9004
 20
113.704
 11
35
 21
105
  0
LINE
  8
0
 10
35
 20
105
 11
33.9004
 21
96.2959
  0
LINE
  8
0
 10
33.9004
 20
96.2959
 11
30.6707
 21
88.1386
  0
LINE
  8
0
 10
30.6707
 20
88.1386
 11
25.5139
 21
81.0409
  0
LINE
  8
0
 10
25.5139
 20
81.0409
 11
18.7539
 21
75.4485
  0
LINE
  8
0
 10
18.7539
 20
75.4485
 11
10.8156
 21
71.713
  0
LINE
  8
0
 10
10.8156
 20
71.713
 11
2.19766
 21
70.0691
  0
LINE
  8
0
 10
2.19766
 20
70.0691
 11
-6.55833
 21
70.6199
  0
LINE
  8
0
 10
31.2247
 20
70.0908
 11
30.4738
 21
70.3348
  0
LINE
  8
0
 10
30.4738
 20
70.3348
 11
29.8071
 21
70.7579
  0
LINE
  8
0
 10
29.8071
 20
70.7579
 11
29.2666
 21
71.3335
  0
LINE
  8
0
 10
29.2666
 20
71.3335
 11
28.8862
 21
72.0254
  0
LINE
  8
0
 10
28.8862
 20
72.0254
 11
28.6898
 21
72.7902
  0
LINE
  8
0
 10
28.6898
 20
72.7902
 11
28.6898
 21
73.5798
  0
LINE
  8
0
 10
28.6898
 20
73.5798
 11
28.8862
 21
74.3446
  0
LINE
  8
0
 10
28.8862
 20
74.3446
 11
29.2666
 21
75.0365
  0
LINE
  8
0
 10
29.2666
 20
75.0365
 11
29.8071
 21
75.6121
  0
LINE
  8
0
 10
29.8071
 20
75.6121
 11
30.4738
 21
76.0352
  0
LINE
  8
0
 10
30.4738
 20
76.0352
 11
31.2247
 21
76.2792
  0
LINE
  8
0
 10
31.2247
 20
76.2792
 11
32.0128
 21
76.3288
  0
LINE
  8
0
 10
32.0128
 20
76.3288
 11
32.7884
 21
76.1808
  0
LINE
  8
0
 10
32.7884
 20
76.1808
 11
33.5029
 21
75.8446
  0
LINE
  8
0
 10
33.5029
 20
75.8446
 11
34.1112
 21
75.3413
  0
LINE
  8
0
 10
34.1112
 20
75.3413
 11
34.5754
 21
74.7025
  0
LINE
  8
0
 10
34.5754
 20
74.7025
 11
34.866
 21
73.9684
  0
LINE
  8
0
 10
34.866
 20
73.9684
 11
34.965
 21
73.185
  0
LINE
  8
0
 10
34.965
 20
73.185
 11
34.866
 21
72.4016
  0
LINE
  8
0
 10
34.866
 20
72.4016
 11
34.5754
 21
71.6675
  0
LINE
  8
0
 10
34.5754
 20
71.6675
 11
34.1112
 21
71.0287
  0
LINE
  8
0
 10
34.1112
 20
71.0287
 11
33.5029
 21
70.5254
  0
LINE
  8
0
 10
33.5029
 20
70.5254
 11
32.7884
 21
70.1892
  0
LINE
  8
0
 10
32.7884
 20
70.1892
 11
32.0128
 21
70.0412
  0
LINE
  8
0
 10
32.0128
 20
70.0412
 11
31.2247
 21
70.0908
  0
LINE
  8
0
 10
-32.4052
 20
70.0908
 11
-33.1562
 21
70.3348
  0
LINE
  8
0
 10
-33.1562
 20
70.3348
 11
-33.8229
 21
70.7579
  0
LINE
  8
0
 10
-33.8229
 20
70.7579
 11
-34.3634
 21
71.3335
  0
LINE
  8
0
 10
-34.3634
 20
71.3335
 11
-34.7438
 21
72.0254
  0
LINE
  8
0
 10
-34.7438
 20
72.0254
 11
-34.9402
 21
72.7902
  0
LINE
  8
0
 10
-34.9402
 20
72.7902
 11
-34.9402
 21
73.5798
  0
LINE
  8
0
 10
-34.9402
 20
73.5798
 11
-34.7438
 21
74.3446
  0
LINE
  8
0
 10
-34.7438
 20
74.3446
 11
-34.3634
 21
75.0365
  0
LINE
  8
0
 10
-34.3634
 20
75.0365
 11
-33.8229
 21
75.6121
  0
LINE
  8
0
 10
-33.8229
 20
75.6121
 11
-33.1562
 21
76.0352
  0
LINE
  8
0
 10
-33.1562
 20
76.0352
 11
-32.4052
 21
76.2792
  0
LINE
  8
0
 10
-32.4052
 20
76.2792
 11
-31.6172
 21
76.3288
  0
LINE
  8
0
 10
-31.6172
 20
76.3288
 11
-30.8416
 21
76.1808
  0
LINE
  8
0
 10
-30.8416
 20
76.1808
 11
-30.1271
 21
75.8446
  0
LINE
  8
0
 10
-30.1271
 20
75.8446
 11
-29.5187
 21
75.3413
  0
LINE
  8
0
 10
-29.5187
 20
75.3413
 11
-29.0546
 21
74.7025
  0
LINE
  8
0
 10
-29.0546
 20
74.7025
 11
-28.764
 21
73.9684
  0
LINE
  8
0
 10
-28.764
 20
73.9684
 11
-28.665
 21
73.185
  0
LINE
  8
0
 10
-28.665
 20
73.185
 11
-28.764
 21
72.4016
  0
LINE
  8
0
 10
-28.764
 20
72.4016
 11
-29.0546
 21
71.6675
  0
LINE
  8
0
 10
-29.0546
 20
71.6675
 11
-29.5187
 21
71.0287
  0
LINE
  8
0
 10
-29.5187
 20
71.0287
 11
-30.1271
 21
70.5254
  0
LINE
  8
0
 10
-30.1271
 20
70.5254
 11
-30.8416
 21
70.1892
  0
LINE
  8
0
 10
-30.8416
 20
70.1892
 11
-31.6172
 21
70.0412
  0
LINE
  8
0
 10
-31.6172
 20
70.0412
 11
-32.4052
 21
70.0908
  0
LINE
  8
0
 10
19.2317
 20
45.9726
 11
18.2543
 21
46.2902
  0
LINE
  8
0
 10
18.2543
 20
46.2902
 11
17.3866
 21
46.8409
  0
LINE
  8
0
 10
17.3866
 20
46.8409
 11
16.683
 21
47.5901
  0
LINE
  8
0
 10
16.683
 20
47.5901
 11
16.1879
 21
48.4907
  0
LINE
  8
0
 10
16.1879
 20
48.4907
 11
15.9323
 21
49.4861
  0
LINE
  8
0
 10
15.9323
 20
49.4861
 11
15.9323
 21
50.5139
  0
LINE
  8
0
 10
15.9323
 20
50.5139
 11
16.1879
 21
51.5093
  0
LINE
  8
0
 10
16.1879
 20
51.5093
 11
16.683
 21
52.4099
  0
LINE
  8
0
 10
16.683
 20
52.4099
 11
17.3866
 21
53.1591
  0
LINE
  8
0
 10
17.3866
 20
53.1591
 11
18.2543
 21
53.7098
  0
LINE
  8
0
 10
18.2543
 20
53.7098
 11
19.2317
 21
54.0274
  0
LINE
  8
0
 10
19.2317
 20
54.0274
 11
20.2574
 21
54.0919
  0
LINE
  8
0
 10
20.2574
 20
54.0919
 11
21.267
 21
53.8993
  0
LINE
  8
0
 10
21.267
 20
53.8993
 11
22.1969
 21
53.4617
  0
LINE
  8
0
 10
22.1969
 20
53.4617
 11
22.9888
 21
52.8066
  0
LINE
  8
0
 10
22.9888
 20
52.8066
 11
23.5928
 21
51.9752
  0
LINE
  8
0
 10
23.5928
 20
51.9752
 11
23.9712
 21
51.0196
  0
LINE
  8
0
 10
23.9712
 20
51.0196
 11
24.1
 21
50
  0
LINE
  8
0
 10
24.1
 20
50
 11
23.9712
 21
48.9804
  0
LINE
  8
0
 10
23.9712
 20
48.9804
 11
23.5928
 21
48.0248
  0
LINE
  8
0
 10
23.5928
 20
48.0248
 11
22.9888
 21
47.1933
  0
LINE
  8
0
 10
22.9888
 20
47.1933
 11
22.1969
 21
46.5383
  0
LINE
  8
0
 10
22.1969
 20
46.5383
 11
21.267
 21
46.1007
  0
LINE
  8
0
 10
21.267
 20
46.1007
 11
20.2574
 21
45.9081
  0
LINE
  8
0
 10
20.2574
 20
45.9081
 11
19.2317
 21
45.9726
  0
LINE
  8
0
 10
-20.7682
 20
45.9726
 11
-21.7457
 21
46.2902
  0
LINE
  8
0
 10
-21.7457
 20
46.2902
 11
-22.6134
 21
46.8409
  0
LINE
  8
0
 10
-22.6134
 20
46.8409
 11
-23.317
 21
47.5901
  0
LINE
  8
0
 10
-23.317
 20
47.5901
 11
-23.8121
 21
48.4907
  0
LINE
  8
0
 10
-23.8121
 20
48.4907
 11
-24.0677
 21
49.4861
  0
LINE
  8
0
 10
-24.0677
 20
49.4861
 11
-24.0677
 21
50.5139
  0
LINE
  8
0
 10
-24.0677
 20
50.5139
 11
-23.8121
 21
51.5093
  0
LINE
  8
0
 10
-23.8121
 20
51.5093
 11
-23.317
 21
52.4099
  0
LINE
  8
0
 10
-23.317
 20
52.4099
 11
-22.6134
 21
53.1591
  0
LINE
  8
0
 10
-22.6134
 20
53.1591
 11
-21.7457
 21
53.7098
  0
LINE
  8
0
 10
-21.7457
 20
53.7098
 11
-20.7682
 21
54.0274
  0
LINE
  8
0
 10
-20.7682
 20
54.0274
 11
-19.7426
 21
54.0919
  0
LINE
  8
0
 10
-19.7426
 20
54.0919
 11
-18.733
 21
53.8993
  0
LINE
  8
0
 10
-18.733
 20
53.8993
 11
-17.8031
 21
53.4617
  0
LINE
  8
0
 10
-17.8031
 20
53.4617
 11
-17.0112
 21
52.8066
  0
LINE
  8
0
 10
-17.0112
 20
52.8066
 11
-16.4071
 21
51.9752
  0
LINE
  8
0
 10
-16.4071
 20
51.9752
 11
-16.0288
 21
51.0196
  0
LINE
  8
0
 10
-16.0288
 20
51.0196
 11
-15.9
 21
50
  0
LINE
  8
0
 10
-15.9
 20
50
 11
-16.0288
 21
48.9804
  0
LINE
  8
0
 10
-16.0288
 20
48.9804
 11
-16.4071
 21
48.0248
  0
LINE
  8
0
 10
-16.4071
 20
48.0248
 11
-17.0112
 21
47.1933
  0
LINE
  8
0
 10
-17.0112
 20
47.1933
 11
-17.8031
 21
46.5383
  0
LINE
  8
0
 10
-17.8031
 20
46.5383
 11
-18.733
 21
46.1007
  0
LINE
  8
0
 10
-18.733
 20
46.1007
 11
-19.7426
 21
45.9081
  0
LINE
  8
0
 10
-19.7426
 20
45.9081
 11
-20.7682
 21
45.9726
  0
LINE
  8
0
 10
-92.9872
 20
13.446
 11
-93.607
 21
13.6474
  0
LINE
  8
0
 10
-93.607
 20
13.6474
 11
-94.1573
 21
13.9967
  0
LINE
  8
0
 10
-94.1573
 20
13.9967
 11
-94.6034
 21
14.4718
  0
LINE
  8
0
 10
-94.6034
 20
14.4718
 11
-94.9174
 21
15.0429
  0
LINE
  8
0
 10
-94.9174
 20
15.0429
 11
-95.0795
 21
15.6741
  0
LINE
  8
0
 10
-95.0795
 20
15.6741
 11
-95.0795
 21
16.3259
  0
LINE
  8
0
 10
-95.0795
 20
16.3259
 11
-94.9174
 21
16.9571
  0
LINE
  8
0
 10
-94.9174
 20
16.9571
 11
-94.6034
 21
17.5282
  0
LINE
  8
0
 10
-94.6034
 20
17.5282
 11
-94.1573
 21
18.0033
  0
LINE
  8
0
 10
-94.1573
 20
18.0033
 11
-93.607
 21
18.3525
  0
LINE
  8
0
 10
-93.607
 20
18.3525
 11
-92.9872
 21
18.5539
  0
LINE
  8
0
 10
-92.9872
 20
18.5539
 11
-92.3367
 21
18.5949
  0
LINE
  8
0
 10
-92.3367
 20
18.5949
 11
-91.6965
 21
18.4727
  0
LINE
  8
0
 10
-91.6965
 20
18.4727
 11
-91.1068
 21
18.1953
  0
LINE
  8
0
 10
-91.1068
 20
18.1953
 11
-90.6047
 21
17.7798
  0
LINE
  8
0
 10
-90.6047
 20
17.7798
 11
-90.2216
 21
17.2525
  0
LINE
  8
0
 10
-90.2216
 20
17.2525
 11
-89.9817
 21
16.6466
  0
LINE
  8
0
 10
-89.9817
 20
16.6466
 11
-89.9
 21
16
  0
LINE
  8
0
 10
-89.9
 20
16
 11
-89.9817
 21
15.3534
  0
LINE
  8
0
 10
-89.9817
 20
15.3534
 11
-90.2216
 21
14.7474
  0
LINE
  8
0
 10
-90.2216
 20
14.7474
 11
-90.6047
 21
14.2202
  0
LINE
  8
0
 10
-90.6047
 20
14.2202
 11
-91.1068
 21
13.8047
  0
LINE
  8
0
 10
-91.1068
 20
13.8047
 11
-91.6965
 21
13.5273
  0
LINE
  8
0
 10
-91.6965
 20
13.5273
 11
-92.3367
 21
13.4051
  0
LINE
  8
0
 10
-92.3367
 20
13.4051
 11
-92.9872
 21
13.446
  0
LINE
  8
0
 10
-57.9872
 20
13.446
 11
-58.607
 21
13.6474
  0
LINE
  8
0
 10
-58.607
 20
13.6474
 11
-59.1573
 21
13.9967
  0
LINE
  8
0
 10
-59.1573
 20
13.9967
 11
-59.6035
 21
14.4718
  0
LINE
  8
0
 10
-59.6035
 20
14.4718
 11
-59.9174
 21
15.0429
  0
LINE
  8
0
 10
-59.9174
 20
15.0429
 11
-60.0795
 21
15.6741
  0
LINE
  8
0
 10
-60.0795
 20
15.6741
 11
-60.0795
 21
16.3259
  0
LINE
  8
0
 10
-60.0795
 20
16.3259
 11
-59.9174
 21
16.9571
  0
LINE
  8
0
 10
-59.9174
 20
16.9571
 11
-59.6035
 21
17.5282
  0
LINE
  8
0
 10
-59.6035
 20
17.5282
 11
-59.1573
 21
18.0033
  0
LINE
  8
0
 10
-59.1573
 20
18.0033
 11
-58.607
 21
18.3525
  0
LINE
  8
0
 10
-58.607
 20
18.3525
 11
-57.9872
 21
18.5539
  0
LINE
  8
0
 10
-57.9872
 20
18.5539
 11
-57.3367
 21
18.5949
  0
LINE
  8
0
 10
-57.3367
 20
18.5949
 11
-56.6966
 21
18.4727
  0
LINE
  8
0
 10
-56.6966
 20
18.4727
 11
-56.1069
 21
18.1953
  0
LINE
  8
0
 10
-56.1069
 20
18.1953
 11
-55.6047
 21
17.7798
  0
LINE
  8
0
 10
-55.6047
 20
17.7798
 11
-55.2216
 21
17.2525
  0
LINE
  8
0
 10
-55.2216
 20
17.2525
 11
-54.9817
 21
16.6466
  0
LINE
  8
0
 10
-54.9817
 20
16.6466
 11
-54.9
 21
16
  0
LINE
  8
0
 10
-54.9
 20
16
 11
-54.9817
 21
15.3534
  0
LINE
  8
0
 10
-54.9817
 20
15.3534
 11
-55.2216
 21
14.7474
  0
LINE
  8
0
 10
-55.2216
 20
14.7474
 11
-55.6047
 21
14.2202
  0
LINE
  8
0
 10
-55.6047
 20
14.2202
 11
-56.1069
 21
13.8047
  0
LINE
  8
0
 10
-56.1069
 20
13.8047
 11
-56.6966
 21
13.5273
  0
LINE
  8
0
 10
-56.6966
 20
13.5273
 11
-57.3367
 21
13.4051
  0
LINE
  8
0
 10
-57.3367
 20
13.4051
 11
-57.9872
 21
13.446
  0
LINE
  8
0
 10
92.0128
 20
13.446
 11
91.393
 21
13.6474
  0
LINE
  8
0
 10
91.393
 20
13.6474
 11
90.8427
 21
13.9967
  0
LINE
  8
0
 10
90.8427
 20
13.9967
 11
90.3965
 21
14.4718
  0
LINE
  8
0
 10
90.3965
 20
14.4718
 11
90.0826
 21
15.0429
  0
LINE
  8
0
 10
90.0826
 20
15.0429
 11
89.9205
 21
15.6741
  0
LINE
  8
0
 10
89.9205
 20
15.6741
 11
89.9205
 21
16.3259
  0
LINE
  8
0
 10
89.9205
 20
16.3259
 11
90.0826
 21
16.9571
  0
LINE
  8
0
 10
90.0826
 20
16.9571
 11
90.3965
 21
17.5282
  0
LINE
  8
0
 10
90.3965
 20
17.5282
 11
90.8427
 21
18.0033
  0
LINE
  8
0
 10
90.8427
 20
18.0033
 11
91.393
 21
18.3525
  0
LINE
  8
0
 10
91.393
 20
18.3525
 11
92.0128
 21
18.5539
  0
LINE
  8
0
 10
92.0128
 20
18.5539
 11
92.6633
 21
18.5949
  0
LINE
  8
0
 10
92.6633
 20
18.5949
 11
93.3034
 21
18.4727
  0
LINE
  8
0
 10
93.3034
 20
18.4727
 11
93.8931
 21
18.1953
  0
LINE
  8
0
 10
93.8931
 20
18.1953
 11
94.3953
 21
17.7798
  0
LINE
  8
0
 10
94.3953
 20
17.7798
 11
94.7784
 21
17.2525
  0
LINE
  8
0
 10
94.7784
 20
17.2525
 11
95.0183
 21
16.6466
  0
LINE
  8
0
 10
95.0183
 20
16.6466
 11
95.1
 21
16
  0
LINE
  8
0
 10
95.1
 20
16
 11
95.0183
 21
15.3534
  0
LINE
  8
0
 10
95.0183
 20
15.3534
 11
94.7784
 21
14.7474
  0
LINE
  8
0
 10
94.7784
 20
14.7474
 11
94.3953
 21
14.2202
  0
LINE
  8
0
 10
94.3953
 20
14.2202
 11
93.8931
 21
13.8047
  0
LINE
  8
0
 10
93.8931
 20
13.8047
 11
93.3034
 21
13.5273
  0
LINE
  8
0
 10
93.3034
 20
13.5273
 11
92.6633
 21
13.4051
  0
LINE
  8
0
 10
92.6633
 20
13.4051
 11
92.0128
 21
13.446
  0
LINE
  8
0
 10
57.0128
 20
13.446
 11
56.393
 21
13.6474
  0
LINE
  8
0
 10
56.393
 20
13.6474
 11
55.8427
 21
13.9967
  0
LINE
  8
0
 10
55.8427
 20
13.9967
 11
55.3966
 21
14.4718
  0
LINE
  8
0
 10
55.3966
 20
14.4718
 11
55.0826
 21
15.0429
  0
LINE
  8
0
 10
55.0826
 20
15.0429
 11
54.9205
 21
15.6741
  0
LINE
  8
0
 10
54.9205
 20
15.6741
 11
54.9205
 21
16.3259
  0
LINE
  8
0
 10
54.9205
 20
16.3259
 11
55.0826
 21
16.9571
  0
LINE
  8
0
 10
55.0826
 20
16.9571
 11
55.3966
 21
17.5282
  0
LINE
  8
0
 10
55.3966
 20
17.5282
 11
55.8427
 21
18.0033
  0
LINE
  8
0
 10
55.8427
 20
18.0033
 11
56.393
 21
18.3525
  0
LINE
  8
0
 10
56.393
 20
18.3525
 11
57.0128
 21
18.5539
  0
LINE
  8
0
 10
57.0128
 20
18.5539
 11
57.6633
 21
18.5949
  0
LINE
  8
0
 10
57.6633
 20
18.5949
 11
58.3035
 21
18.4727
  0
LINE
  8
0
 10
58.3035
 20
18.4727
 11
58.8932
 21
18.1953
  0
LINE
  8
0
 10
58.8932
 20
18.1953
 11
59.3953
 21
17.7798
  0
LINE
  8
0
 10
59.3953
 20
17.7798
 11
59.7784
 21
17.2525
  0
LINE
  8
0
 10
59.7784
 20
17.2525
 11
60.0183
 21
16.6466
  0
LINE
  8
0
 10
60.0183
 20
16.6466
 11
60.1
 21
16
  0
LINE
  8
0
 10
60.1
 20
16
 11
60.0183
 21
15.3534
  0
LINE
  8
0
 10
60.0183
 20
15.3534
 11
59.7784
 21
14.7474
  0
LINE
  8
0
 10
59.7784
 20
14.7474
 11
59.3953
 21
14.2202
  0
LINE
  8
0
 10
59.3953
 20
14.2202
 11
58.8932
 21
13.8047
  0
LINE
  8
0
 10
58.8932
 20
13.8047
 11
58.3035
 21
13.5273
  0
LINE
  8
0
 10
58.3035
 20
13.5273
 11
57.6633
 21
13.4051
  0
LINE
  8
0
 10
57.6633
 20
13.4051
 11
57.0128
 21
13.446
  0
LINE
  8
0
 10
92.0128
 20
-18.5539
 11
91.393
 21
-18.3525
  0
LINE
  8
0
 10
91.393
 20
-18.3525
 11
90.8427
 21
-18.0033
  0
LINE
  8
0
 10
90.8427
 20
-18.0033
 11
90.3965
 21
-17.5282
  0
LINE
  8
0
 10
90.3965
 20
-17.5282
 11
90.0826
 21
-16.9571
  0
LINE
  8
0
 10
90.0826
 20
-16.9571
 11
89.9205
 21
-16.3259
  0
LINE
  8
0
 10
89.9205
 20
-16.3259
 11
89.9205
 21
-15.6741
  0
LINE
  8
0
 10
89.9205
 20
-15.6741
 11
90.0826
 21
-15.0429
  0
LINE
  8
0
 10
90.0826
 20
-15.0429
 11
90.3965
 21
-14.4718
  0
LINE
  8
0
 10
90.3965
 20
-14.4718
 11
90.8427
 21
-13.9967
  0
LINE
  8
0
 10
90.8427
 20
-13.9967
 11
91.393
 21
-13.6474
  0
LINE
  8
0
 10
91.393
 20
-13.6474
 11
92.0128
 21
-13.446
  0
LINE
  8
0
 10
92.0128
 20
-13.446
 11
92.6633
 21
-13.4051
  0
LINE
  8
0
 10
92.6633
 20
-13.4051
 11
93.3034
 21
-13.5273
  0
LINE
  8
0
 10
93.3034
 20
-13.5273
 11
93.8931
 21
-13.8047
  0
LINE
  8
0
 10
93.8931
 20
-13.8047
 11
94.3953
 21
-14.2202
  0
LINE
  8
0
 10
94.3953
 20
-14.2202
 11
94.7784
 21
-14.7474
  0
LINE
  8
0
 10
94.7784
 20
-14.7474
 11
95.0183
 21
-15.3534
  0
LINE
  8
0
 10
95.0183
 20
-15.3534
 11
95.1
 21
-16
  0
LINE
  8
0
 10
95.1
 20
-16
 11
95.0183
 21
-16.6466
  0
LINE
  8
0
 10
95.0183
 20
-16.6466
 11
94.7784
 21
-17.2525
  0
LINE
  8
0
 10
94.7784
 20
-17.2525
 11
94.3953
 21
-17.7798
  0
LINE
  8
0
 10
94.3953
 20
-17.7798
 11
93.8931
 21
-18.1953
  0
LINE
  8
0
 10
93.8931
 20
-18.1953
 11
93.3034
 21
-18.4727
  0
LINE
  8
0
 10
93.3034
 20
-18.4727
 11
92.6633
 21
-18.5949
  0
LINE
  8
0
 10
92.6633
 20
-18.5949
 11
92.0128
 21
-18.5539
  0
LINE
  8
0
 10
57.0128
 20
-18.5539
 11
56.393
 21
-18.3525
  0
LINE
  8
0
 10
56.393
 20
-18.3525
 11
55.8427
 21
-18.0033
  0
LINE
  8
0
 10
55.8427
 20
-18.0033
 11
55.3966
 21
-17.5282
  0
LINE
  8
0
 10
55.3966
 20
-17.5282
 11
55.0826
 21
-16.9571
  0
LINE
  8
0
 10
55.0826
 20
-16.9571
 11
54.9205
 21
-16.3259
  0
LINE
  8
0
 10
54.9205
 20
-16.3259
 11
54.9205
 21
-15.6741
  0
LINE
  8
0
 10
54.9205
 20
-15.6741
 11
55.0826
 21
-15.0429
  0
LINE
  8
0
 10
55.0826
 20
-15.0429
 11
55.3966
 21
-14.4718
  0
LINE
  8
0
 10
55.3966
 20
-14.4718
 11
55.8427
 21
-13.9967
  0
LINE
  8
0
 10
55.8427
 20
-13.9967
 11
56.393
 21
-13.6474
  0
LINE
  8
0
 10
56.393
 20
-13.6474
 11
57.0128
 21
-13.446
  0
LINE
  8
0
 10
57.0128
 20
-13.446
 11
57.6633
 21
-13.4051
  0
LINE
  8
0
 10
57.6633
 20
-13.4051
 11
58.3035
 21
-13.5273
  0
LINE
  8
0
 10
58.3035
 20
-13.5273
 11
58.8932
 21
-13.8047
  0
LINE
  8
0
 10
58.8932
 20
-13.8047
 11
59.3953
 21
-14.2202
  0
LINE
  8
0
 10
59.3953
 20
-14.2202
 11
59.7784
 21
-14.7474
  0
LINE
  8
0
 10
59.7784
 20
-14.7474
 11
60.0183
 21
-15.3534
  0
LINE
  8
0
 10
60.0183
 20
-15.3534
 11
60.1
 21
-16
  0
LINE
  8
0
 10
60.1
 20
-16
 11
60.0183
 21
-16.6466
  0
LINE
  8
0
 10
60.0183
 20
-16.6466
 11
59.7784
 21
-17.2525
  0
LINE
  8
0
 10
59.7784
 20
-17.2525
 11
59.3953
 21
-17.7798
  0
LINE
  8
0
 10
59.3953
 20
-17.7798
 11
58.8932
 21
-18.1953
  0
LINE
  8
0
 10
58.8932
 20
-18.1953
 11
58.3035
 21
-18.4727
  0
LINE
  8
0
 10
58.3035
 20
-18.4727
 11
57.6633
 21
-18.5949
  0
LINE
  8
0
 10
57.6633
 20
-18.5949
 11
57.0128
 21
-18.5539
  0
LINE
  8
0
 10
-92.9872
 20
-18.5539
 11
-93.607
 21
-18.3525
  0
LINE
  8
0
 10
-93.607
 20
-18.3525
 11
-94.1573
 21
-18.0033
  0
LINE
  8
0
 10
-94.1573
 20
-18.0033
 11
-94.6034
 21
-17.5282
  0
LINE
  8
0
 10
-94.6034
 20
-17.5282
 11
-94.9174
 21
-16.9571
  0
LINE
  8
0
 10
-94.9174
 20
-16.9571
 11
-95.0795
 21
-16.3259
  0
LINE
  8
0
 10
-95.0795
 20
-16.3259
 11
-95.0795
 21
-15.6741
  0
LINE
  8
0
 10
-95.0795
 20
-15.6741
 11
-94.9174
 21
-15.0429
  0
LINE
  8
0
 10
-94.9174
 20
-15.0429
 11
-94.6034
 21
-14.4718
  0
LINE
  8
0
 10
-94.6034
 20
-14.4718
 11
-94.1573
 21
-13.9967
  0
LINE
  8
0
 10
-94.1573
 20
-13.9967
 11
-93.607
 21
-13.6474
  0
LINE
  8
0
 10
-93.607
 20
-13.6474
 11
-92.9872
 21
-13.446
  0
LINE
  8
0
 10
-92.9872
 20
-13.446
 11
-92.3367
 21
-13.4051
  0
LINE
  8
0
 10
-92.3367
 20
-13.4051
 11
-91.6965
 21
-13.5273
  0
LINE
  8
0
 10
-91.6965
 20
-13.5273
 11
-91.1068
 21
-13.8047
  0
LINE
  8
0
 10
-91.1068
 20
-13.8047
 11
-90.6047
 21
-14.2202
  0
LINE
  8
0
 10
-90.6047
 20
-14.2202
 11
-90.2216
 21
-14.7474
  0
LINE
  8
0
 10
-90.2216
 20
-14.7474
 11
-89.9817
 21
-15.3534
  0
LINE
  8
0
 10
-89.9817
 20
-15.3534
 11
-89.9
 21
-16
  0
LINE
  8
0
 10
-89.9
 20
-16
 11
-89.9817
 21
-16.6466
  0
LINE
  8
0
 10
-89.9817
 20
-16.6466
 11
-90.2216
 21
-17.2525
  0
LINE
  8
0
 10
-90.2216
 20
-17.2525
 11
-90.6047
 21
-17.7798
  0
LINE
  8
0
 10
-90.6047
 20
-17.7798
 11
-91.1068
 21
-18.1953
  0
LINE
  8
0
 10
-91.1068
 20
-18.1953
 11
-91.6965
 21
-18.4727
  0
LINE
  8
0
 10
-91.6965
 20
-18.4727
 11
-92.3367
 21
-18.5949
  0
LINE
  8
0
 10
-92.3367
 20
-18.5949
 11
-92.9872
 21
-18.5539
  0
LINE
  8
0
 10
-57.9872
 20
-18.5539
 11
-58.607
 21
-18.3525
  0
LINE
  8
0
 10
-58.607
 20
-18.3525
 11
-59.1573
 21
-18.0033
  0
LINE
  8
0
 10
-59.1573
 20
-18.0033
 11
-59.6035
 21
-17.5282
  0
LINE
  8
0
 10
-59.6035
 20
-17.5282
 11
-59.9174
 21
-16.9571
  0
LINE
  8
0
 10
-59.9174
 20
-16.9571
 11
-60.0795
 21
-16.3259
  0
LINE
  8
0
 10
-60.0795
 20
-16.3259
 11
-60.0795
 21
-15.6741
  0
LINE
  8
0
 10
-60.0795
 20
-15.6741
 11
-59.9174
 21
-15.0429
  0
LINE
  8
0
 10
-59.9174
 20
-15.0429
 11
-59.6035
 21
-14.4718
  0
LINE
  8
0
 10
-59.6035
 20
-14.4718
 11
-59.1573
 21
-13.9967
  0
LINE
  8
0
 10
-59.1573
 20
-13.9967
 11
-58.607
 21
-13.6474
  0
LINE
  8
0
 10
-58.607
 20
-13.6474
 11
-57.9872
 21
-13.446
  0
LINE
  8
0
 10
-57.9872
 20
-13.446
 11
-57.3367
 21
-13.4051
  0
LINE
  8
0
 10
-57.3367
 20
-13.4051
 11
-56.6966
 21
-13.5273
  0
LINE
  8
0
 10
-56.6966
 20
-13.5273
 11
-56.1069
 21
-13.8047
  0
LINE
  8
0
 10
-56.1069
 20
-13.8047
 11
-55.6047
 21
-14.2202
  0
LINE
  8
0
 10
-55.6047
 20
-14.2202
 11
-55.2216
 21
-14.7474
  0
LINE
  8
0
 10
-55.2216
 20
-14.7474
 11
-54.9817
 21
-15.3534
  0
LINE
  8
0
 10
-54.9817
 20
-15.3534
 11
-54.9
 21
-16
  0
LINE
  8
0
 10
-54.9
 20
-16
 11
-54.9817
 21
-16.6466
  0
LINE
  8
0
 10
-54.9817
 20
-16.6466
 11
-55.2216
 21
-17.2525
  0
LINE
  8
0
 10
-55.2216
 20
-17.2525
 11
-55.6047
 21
-17.7798
  0
LINE
  8
0
 10
-55.6047
 20
-17.7798
 11
-56.1069
 21
-18.1953
  0
LINE
  8
0
 10
-56.1069
 20
-18.1953
 11
-56.6966
 21
-18.4727
  0
LINE
  8
0
 10
-56.6966
 20
-18.4727
 11
-57.3367
 21
-18.5949
  0
LINE
  8
0
 10
-57.3367
 20
-18.5949
 11
-57.9872
 21
-18.5539
  0
LINE
  8
0
 10
-12.4872
 20
-42.5539
 11
-13.107
 21
-42.3525
  0
LINE
  8
0
 10
-13.107
 20
-42.3525
 11
-13.6573
 21
-42.0033
  0
LINE
  8
0
 10
-13.6573
 20
-42.0033
 11
-14.1034
 21
-41.5282
  0
LINE
  8
0
 10
-14.1034
 20
-41.5282
 11
-14.4174
 21
-40.9571
  0
LINE
  8
0
 10
-14.4174
 20
-40.9571
 11
-14.5795
 21
-40.3259
  0
LINE
  8
0
 10
-14.5795
 20
-40.3259
 11
-14.5795
 21
-39.6741
  0
LINE
  8
0
 10
-14.5795
 20
-39.6741
 11
-14.4174
 21
-39.0429
  0
LINE
  8
0
 10
-14.4174
 20
-39.0429
 11
-14.1034
 21
-38.4718
  0
LINE
  8
0
 10
-14.1034
 20
-38.4718
 11
-13.6573
 21
-37.9967
  0
LINE
  8
0
 10
-13.6573
 20
-37.9967
 11
-13.107
 21
-37.6474
  0
LINE
  8
0
 10
-13.107
 20
-37.6474
 11
-12.4872
 21
-37.446
  0
LINE
  8
0
 10
-12.4872
 20
-37.446
 11
-11.8367
 21
-37.4051
  0
LINE
  8
0
 10
-11.8367
 20
-37.4051
 11
-11.1965
 21
-37.5273
  0
LINE
  8
0
 10
-11.1965
 20
-37.5273
 11
-10.6068
 21
-37.8047
  0
LINE
  8
0
 10
-10.6068
 20
-37.8047
 11
-10.1047
 21
-38.2202
  0
LINE
  8
0
 10
-10.1047
 20
-38.2202
 11
-9.72159
 21
-38.7474
  0
LINE
  8
0
 10
-9.72159
 20
-38.7474
 11
-9.48167
 21
-39.3534
  0
LINE
  8
0
 10
-9.48167
 20
-39.3534
 11
-9.39999
 21
-40
  0
LINE
  8
0
 10
-9.39999
 20
-40
 11
-9.48167
 21
-40.6466
  0
LINE
  8
0
 10
-9.48167
 20
-40.6466
 11
-9.72159
 21
-41.2525
  0
LINE
  8
0
 10
-9.72159
 20
-41.2525
 11
-10.1047
 21
-41.7798
  0
LINE
  8
0
 10
-10.1047
 20
-41.7798
 11
-10.6068
 21
-42.1953
  0
LINE
  8
0
 10
-10.6068
 20
-42.1953
 11
-11.1965
 21
-42.4727
  0
LINE
  8
0
 10
-11.1965
 20
-42.4727
 11
-11.8367
 21
-42.5949
  0
LINE
  8
0
 10
-11.8367
 20
-42.5949
 11
-12.4872
 21
-42.5539
  0
LINE
  8
0
 10
11.5128
 20
-42.5539
 11
10.893
 21
-42.3525
  0
LINE
  8
0
 10
10.893
 20
-42.3525
 11
10.3427
 21
-42.0033
  0
LINE
  8
0
 10
10.3427
 20
-42.0033
 11
9.89655
 21
-41.5282
  0
LINE
  8
0
 10
9.89655
 20
-41.5282
 11
9.58258
 21
-40.9571
  0
LINE
  8
0
 10
9.58258
 20
-40.9571
 11
9.4205
 21
-40.3259
  0
LINE
  8
0
 10
9.4205
 20
-40.3259
 11
9.4205
 21
-39.6741
  0
LINE
  8
0
 10
9.4205
 20
-39.6741
 11
9.58258
 21
-39.0429
  0
LINE
  8
0
 10
9.58258
 20
-39.0429
 11
9.89655
 21
-38.4718
  0
LINE
  8
0
 10
9.89655
 20
-38.4718
 11
10.3427
 21
-37.9967
  0
LINE
  8
0
 10
10.3427
 20
-37.9967
 11
10.893
 21
-37.6474
  0
LINE
  8
0
 10
10.893
 20
-37.6474
 11
11.5128
 21
-37.446
  0
LINE
  8
0
 10
11.5128
 20
-37.446
 11
12.1633
 21
-37.4051
  0
LINE
  8
0
 10
12.1633
 20
-37.4051
 11
12.8034
 21
-37.5273
  0
LINE
  8
0
 10
12.8034
 20
-37.5273
 11
13.3931
 21
-37.8047
  0
LINE
  8
0
 10
13.3931
 20
-37.8047
 11
13.8953
 21
-38.2202
  0
LINE
  8
0
 10
13.8953
 20
-38.2202
 11
14.2784
 21
-38.7474
  0
LINE
  8
0
 10
14.2784
 20
-38.7474
 11
14.5183
 21
-39.3534
  0
LINE
  8
0
 10
14.5183
 20
-39.3534
 11
14.6
 21
-40
  0
LINE
  8
0
 10
14.6
 20
-40
 11
14.5183
 21
-40.6466
  0
LINE
  8
0
 10
14.5183
 20
-40.6466
 11
14.2784
 21
-41.2525
  0
LINE
  8
0
 10
14.2784
 20
-41.2525
 11
13.8953
 21
-41.7798
  0
LINE
  8
0
 10
13.8953
 20
-41.7798
 11
13.3931
 21
-42.1953
  0
LINE
  8
0
 10
13.3931
 20
-42.1953
 11
12.8034
 21
-42.4727
  0
LINE
  8
0
 10
12.8034
 20
-42.4727
 11
12.1633
 21
-42.5949
  0
LINE
  8
0
 10
12.1633
 20
-42.5949
 11
11.5128
 21
-42.5539
  0
LINE
  8
0
 10
-12.4872
 20
-82.5539
 11
-13.107
 21
-82.3525
  0
LINE
  8
0
 10
-13.107
 20
-82.3525
 11
-13.6573
 21
-82.0033
  0
LINE
  8
0
 10
-13.6573
 20
-82.0033
 11
-14.1034
 21
-81.5282
  0
LINE
  8
0
 10
-14.1034
 20
-81.5282
 11
-14.4174
 21
-80.9571
  0
LINE
  8
0
 10
-14.4174
 20
-80.9571
 11
-14.5795
 21
-80.3259
  0
LINE
  8
0
 10
-14.5795
 20
-80.3259
 11
-14.5795
 21
-79.6741
  0
LINE
  8
0
 10
-14.5795
 20
-79.6741
 11
-14.4174
 21
-79.0429
  0
LINE
  8
0
 10
-14.4174
 20
-79.0429
 11
-14.1034
 21
-78.4718
  0
LINE
  8
0
 10
-14.1034
 20
-78.4718
 11
-13.6573
 21
-77.9967
  0
LINE
  8
0
 10
-13.6573
 20
-77.9967
 11
-13.107
 21
-77.6474
  0
LINE
  8
0
 10
-13.107
 20
-77.6474
 11
-12.4872
 21
-77.446
  0
LINE
  8
0
 10
-12.4872
 20
-77.446
 11
-11.8367
 21
-77.4051
  0
LINE
  8
0
 10
-11.8367
 20
-77.4051
 11
-11.1965
 21
-77.5273
  0
LINE
  8
0
 10
-11.1965
 20
-77.5273
 11
-10.6068
 21
-77.8047
  0
LINE
  8
0
 10
-10.6068
 20
-77.8047
 11
-10.1047
 21
-78.2202
  0
LINE
  8
0
 10
-10.1047
 20
-78.2202
 11
-9.72159
 21
-78.7474
  0
LINE
  8
0
 10
-9.72159
 20
-78.7474
 11
-9.48167
 21
-79.3534
  0
LINE
  8
0
 10
-9.48167
 20
-79.3534
 11
-9.39999
 21
-80
  0
LINE
  8
0
 10
-9.39999
 20
-80
 11
-9.48167
 21
-80.6466
  0
LINE
  8
0
 10
-9.48167
 20
-80.6466
 11
-9.72159
 21
-81.2525
  0
LINE
  8
0
 10
-9.72159
 20
-81.2525
 11
-10.1047
 21
-81.7798
  0
LINE
  8
0
 10
-10.1047
 20
-81.7798
 11
-10.6068
 21
-82.1953
  0
LINE
  8
0
 10
-10.6068
 20
-82.1953
 11
-11.1965
 21
-82.4727
  0
LINE
  8
0
 10
-11.1965
 20
-82.4727
 11
-11.8367
 21
-82.5949
  0
LINE
  8
0
 10
-11.8367
 20
-82.5949
 11
-12.4872
 21
-82.5539
  0
LINE
  8
0
 10
11.5128
 20
-82.5539
 11
10.893
 21
-82.3525
  0
LINE
  8
0
 10
10.893
 20
-82.3525
 11
10.3427
 21
-82.0033
  0
LINE
  8
0
 10
10.3427
 20
-82.0033
 11
9.89655
 21
-81.5282
  0
LINE
  8
0
 10
9.89655
 20
-81.5282
 11
9.58258
 21
-80.9571
  0
LINE
  8
0
 10
9.58258
 20
-80.9571
 11
9.4205
 21
-80.3259
  0
LINE
  8
0
 10
9.4205
 20
-80.3259
 11
9.4205
 21
-79.6741
  0
LINE
  8
0
 10
9.4205
 20
-79.6741
 11
9.58258
 21
-79.0429
  0
LINE
  8
0
 10
9.58258
 20
-79.0429
 11
9.89655
 21
-78.4718
  0
LINE
  8
0
 10
9.89655
 20
-78.4718
 11
10.3427
 21
-77.9967
  0
LINE
  8
0
 10
10.3427
 20
-77.9967
 11
10.893
 21
-77.6474
  0
LINE
  8
0
 10
10.893
 20
-77.6474
 11
11.5128
 21
-77.446
  0
LINE
  8
0
 10
11.5128
 20
-77.446
 11
12.1633
 21
-77.4051
  0
LINE
  8
0
 10
12.1633
 20
-77.4051
 11
12.8034
 21
-77.5273
  0
LINE
  8
0
 10
12.8034
 20
-77.5273
 11
13.3931
 21
-77.8047
  0
LINE
  8
0
 10
13.3931
 20
-77.8047
 11
13.8953
 21
-78.2202
  0
LINE
  8
0
 10
13.8953
 20
-78.2202
 11
14.2784
 21
-78.7474
  0
LINE
  8
0
 10
14.2784
 20
-78.7474
 11
14.5183
 21
-79.3534
  0
LINE
  8
0
 10
14.5183
 20
-79.3534
 11
14.6
 21
-80
  0
LINE
  8
0
 10
14.6
 20
-80
 11
14.5183
 21
-80.6466
  0
LINE
  8
0
 10
14.5183
 20
-80.6466
 11
14.2784
 21
-81.2525
  0
LINE
  8
0
 10
14.2784
 20
-81.2525
 11
13.8953
 21
-81.7798
  0
LINE
  8
0
 10
13.8953
 20
-81.7798
 11
13.3931
 21
-82.1953
  0
LINE
  8
0
 10
13.3931
 20
-82.1953
 11
12.8034
 21
-82.4727
  0
LINE
  8
0
 10
12.8034
 20
-82.4727
 11
12.1633
 21
-82.5949
  0
LINE
  8
0
 10
12.1633
 20
-82.5949
 11
11.5128
 21
-82.5539
  0
ENDSEC
  0
SECTION
  2
OBJECTS
  0
DICTIONARY
  0
ENDSEC
  0
EOF
