  0
SECTION
  2
BLOCKS
  0
ENDSEC
  0
SECTION
  2
ENTITIES
  0
LINE
  8
0
 10
-50
 20
-90
 11
50
 21
-90
  0
LINE
  8
0
 10
50
 20
-90
 11
50
 21
-21
  0
LINE
  8
0
 10
50
 20
-21
 11
100
 21
-21
  0
LINE
  8
0
 10
100
 20
-21
 11
100
 21
23
  0
LINE
  8
0
 10
100
 20
23
 11
50
 21
23
  0
LINE
  8
0
 10
50
 20
23
 11
50
 21
90
  0
LINE
  8
0
 10
50
 20
90
 11
-50
 21
90
  0
LINE
  8
0
 10
-50
 20
90
 11
-50
 21
23
  0
LINE
  8
0
 10
-50
 20
23
 11
-100
 21
23
  0
LINE
  8
0
 10
-100
 20
23
 11
-100
 21
-21
  0
LINE
  8
0
 10
-100
 20
-21
 11
-50
 21
-21
  0
LINE
  8
0
 10
-50
 20
-21
 11
-50
 21
-90
  0
LINE
  8
0
 10
19.4191
 20
46.9549
 11
18.6801
 21
47.195
  0
LINE
  8
0
 10
18.6801
 20
47.195
 11
18.024
 21
47.6114
  0
LINE
  8
0
 10
18.024
 20
47.6114
 11
17.492
 21
48.1779
  0
LINE
  8
0
 10
17.492
 20
48.1779
 11
17.1177
 21
48.8588
  0
LINE
  8
0
 10
17.1177
 20
48.8588
 11
16.9244
 21
49.6115
  0
LINE
  8
0
 10
16.9244
 20
49.6115
 11
16.9244
 21
50.3885
  0
LINE
  8
0
 10
16.9244
 20
50.3885
 11
17.1177
 21
51.1412
  0
LINE
  8
0
 10
17.1177
 20
51.1412
 11
17.492
 21
51.8221
  0
LINE
  8
0
 10
17.492
 20
51.8221
 11
18.024
 21
52.3886
  0
LINE
  8
0
 10
18.024
 20
52.3886
 11
18.6801
 21
52.805
  0
LINE
  8
0
 10
18.6801
 20
52.805
 11
19.4191
 21
53.0451
  0
LINE
  8
0
 10
19.4191
 20
53.0451
 11
20.1946
 21
53.0939
  0
LINE
  8
0
 10
20.1946
 20
53.0939
 11
20.9579
 21
52.9483
  0
LINE
  8
0
 10
20.9579
 20
52.9483
 11
21.6611
 21
52.6174
  0
LINE
  8
0
 10
21.6611
 20
52.6174
 11
22.2598
 21
52.1221
  0
LINE
  8
0
 10
22.2598
 20
52.1221
 11
22.7165
 21
51.4934
  0
LINE
  8
0
 10
22.7165
 20
51.4934
 11
23.0026
 21
50.7709
  0
LINE
  8
0
 10
23.0026
 20
50.7709
 11
23.1
 21
50
  0
LINE
  8
0
 10
23.1
 20
50
 11
23.0026
 21
49.229
  0
LINE
  8
0
 10
23.0026
 20
49.229
 11
22.7165
 21
48.5066
  0
LINE
  8
0
 10
22.7165
 20
48.5066
 11
22.2598
 21
47.8779
  0
LINE
  8
0
 10
22.2598
 20
47.8779
 11
21.6611
 21
47.3826
  0
LINE
  8
0
 10
21.6611
 20
47.3826
 11
20.9579
 21
47.0517
  0
LINE
  8
0
 10
20.9579
 20
47.0517
 11
20.1946
 21
46.9061
  0
LINE
  8
0
 10
20.1946
 20
46.9061
 11
19.4191
 21
46.9549
  0
LINE
  8
0
 10
-20.5809
 20
46.9549
 11
-21.3199
 21
47.195
  0
LINE
  8
0
 10
-21.3199
 20
47.195
 11
-21.976
 21
47.6114
  0
LINE
  8
0
 10
-21.976
 20
47.6114
 11
-22.5079
 21
48.1779
  0
LINE
  8
0
 10
-22.5079
 20
48.1779
 11
-22.8823
 21
48.8588
  0
LINE
  8
0
 10
-22.8823
 20
48.8588
 11
-23.0755
 21
49.6115
  0
LINE
  8
0
 10
-23.0755
 20
49.6115
 11
-23.0755
 21
50.3885
  0
LINE
  8
0
 10
-23.0755
 20
50.3885
 11
-22.8823
 21
51.1412
  0
LINE
  8
0
 10
-22.8823
 20
51.1412
 11
-22.5079
 21
51.8221
  0
LINE
  8
0
 10
-22.5079
 20
51.8221
 11
-21.976
 21
52.3886
  0
LINE
  8
0
 10
-21.976
 20
52.3886
 11
-21.3199
 21
52.805
  0
LINE
  8
0
 10
-21.3199
 20
52.805
 11
-20.5809
 21
53.0451
  0
LINE
  8
0
 10
-20.5809
 20
53.0451
 11
-19.8053
 21
53.0939
  0
LINE
  8
0
 10
-19.8053
 20
53.0939
 11
-19.042
 21
52.9483
  0
LINE
  8
0
 10
-19.042
 20
52.9483
 11
-18.3389
 21
52.6174
  0
LINE
  8
0
 10
-18.3389
 20
52.6174
 11
-17.7402
 21
52.1221
  0
LINE
  8
0
 10
-17.7402
 20
52.1221
 11
-17.2834
 21
51.4934
  0
LINE
  8
0
 10
-17.2834
 20
51.4934
 11
-16.9974
 21
50.7709
  0
LINE
  8
0
 10
-16.9974
 20
50.7709
 11
-16.9
 21
50
  0
LINE
  8
0
 10
-16.9
 20
50
 11
-16.9974
 21
49.229
  0
LINE
  8
0
 10
-16.9974
 20
49.229
 11
-17.2834
 21
48.5066
  0
LINE
  8
0
 10
-17.2834
 20
48.5066
 11
-17.7402
 21
47.8779
  0
LINE
  8
0
 10
-17.7402
 20
47.8779
 11
-18.3389
 21
47.3826
  0
LINE
  8
0
 10
-18.3389
 20
47.3826
 11
-19.042
 21
47.0517
  0
LINE
  8
0
 10
-19.042
 20
47.0517
 11
-19.8053
 21
46.9061
  0
LINE
  8
0
 10
-19.8053
 20
46.9061
 11
-20.5809
 21
46.9549
  0
LINE
  8
0
 10
-92.9872
 20
13.446
 11
-93.607
 21
13.6474
  0
LINE
  8
0
 10
-93.607
 20
13.6474
 11
-94.1573
 21
13.9967
  0
LINE
  8
0
 10
-94.1573
 20
13.9967
 11
-94.6034
 21
14.4718
  0
LINE
  8
0
 10
-94.6034
 20
14.4718
 11
-94.9174
 21
15.0429
  0
LINE
  8
0
 10
-94.9174
 20
15.0429
 11
-95.0795
 21
15.6741
  0
LINE
  8
0
 10
-95.0795
 20
15.6741
 11
-95.0795
 21
16.3259
  0
LINE
  8
0
 10
-95.0795
 20
16.3259
 11
-94.9174
 21
16.9571
  0
LINE
  8
0
 10
-94.9174
 20
16.9571
 11
-94.6034
 21
17.5282
  0
LINE
  8
0
 10
-94.6034
 20
17.5282
 11
-94.1573
 21
18.0033
  0
LINE
  8
0
 10
-94.1573
 20
18.0033
 11
-93.607
 21
18.3525
  0
LINE
  8
0
 10
-93.607
 20
18.3525
 11
-92.9872
 21
18.5539
  0
LINE
  8
0
 10
-92.9872
 20
18.5539
 11
-92.3367
 21
18.5949
  0
LINE
  8
0
 10
-92.3367
 20
18.5949
 11
-91.6965
 21
18.4727
  0
LINE
  8
0
 10
-91.6965
 20
18.4727
 11
-91.1068
 21
18.1953
  0
LINE
  8
0
 10
-91.1068
 20
18.1953
 11
-90.6047
 21
17.7798
  0
LINE
  8
0
 10
-90.6047
 20
17.7798
 11
-90.2216
 21
17.2525
  0
LINE
  8
0
 10
-90.2216
 20
17.2525
 11
-89.9817
 21
16.6466
  0
LINE
  8
0
 10
-89.9817
 20
16.6466
 11
-89.9
 21
16
  0
LINE
  8
0
 10
-89.9
 20
16
 11
-89.9817
 21
15.3534
  0
LINE
  8
0
 10
-89.9817
 20
15.3534
 11
-90.2216
 21
14.7474
  0
LINE
  8
0
 10
-90.2216
 20
14.7474
 11
-90.6047
 21
14.2202
  0
LINE
  8
0
 10
-90.6047
 20
14.2202
 11
-91.1068
 21
13.8047
  0
LINE
  8
0
 10
-91.1068
 20
13.8047
 11
-91.6965
 21
13.5273
  0
LINE
  8
0
 10
-91.6965
 20
13.5273
 11
-92.3367
 21
13.4051
  0
LINE
  8
0
 10
-92.3367
 20
13.4051
 11
-92.9872
 21
13.446
  0
LINE
  8
0
 10
-57.9872
 20
13.446
 11
-58.607
 21
13.6474
  0
LINE
  8
0
 10
-58.607
 20
13.6474
 11
-59.1573
 21
13.9967
  0
LINE
  8
0
 10
-59.1573
 20
13.9967
 11
-59.6035
 21
14.4718
  0
LINE
  8
0
 10
-59.6035
 20
14.4718
 11
-59.9174
 21
15.0429
  0
LINE
  8
0
 10
-59.9174
 20
15.0429
 11
-60.0795
 21
15.6741
  0
LINE
  8
0
 10
-60.0795
 20
15.6741
 11
-60.0795
 21
16.3259
  0
LINE
  8
0
 10
-60.0795
 20
16.3259
 11
-59.9174
 21
16.9571
  0
LINE
  8
0
 10
-59.9174
 20
16.9571
 11
-59.6035
 21
17.5282
  0
LINE
  8
0
 10
-59.6035
 20
17.5282
 11
-59.1573
 21
18.0033
  0
LINE
  8
0
 10
-59.1573
 20
18.0033
 11
-58.607
 21
18.3525
  0
LINE
  8
0
 10
-58.607
 20
18.3525
 11
-57.9872
 21
18.5539
  0
LINE
  8
0
 10
-57.9872
 20
18.5539
 11
-57.3367
 21
18.5949
  0
LINE
  8
0
 10
-57.3367
 20
18.5949
 11
-56.6966
 21
18.4727
  0
LINE
  8
0
 10
-56.6966
 20
18.4727
 11
-56.1069
 21
18.1953
  0
LINE
  8
0
 10
-56.1069
 20
18.1953
 11
-55.6047
 21
17.7798
  0
LINE
  8
0
 10
-55.6047
 20
17.7798
 11
-55.2216
 21
17.2525
  0
LINE
  8
0
 10
-55.2216
 20
17.2525
 11
-54.9817
 21
16.6466
  0
LINE
  8
0
 10
-54.9817
 20
16.6466
 11
-54.9
 21
16
  0
LINE
  8
0
 10
-54.9
 20
16
 11
-54.9817
 21
15.3534
  0
LINE
  8
0
 10
-54.9817
 20
15.3534
 11
-55.2216
 21
14.7474
  0
LINE
  8
0
 10
-55.2216
 20
14.7474
 11
-55.6047
 21
14.2202
  0
LINE
  8
0
 10
-55.6047
 20
14.2202
 11
-56.1069
 21
13.8047
  0
LINE
  8
0
 10
-56.1069
 20
13.8047
 11
-56.6966
 21
13.5273
  0
LINE
  8
0
 10
-56.6966
 20
13.5273
 11
-57.3367
 21
13.4051
  0
LINE
  8
0
 10
-57.3367
 20
13.4051
 11
-57.9872
 21
13.446
  0
LINE
  8
0
 10
92.0128
 20
13.446
 11
91.393
 21
13.6474
  0
LINE
  8
0
 10
91.393
 20
13.6474
 11
90.8427
 21
13.9967
  0
LINE
  8
0
 10
90.8427
 20
13.9967
 11
90.3965
 21
14.4718
  0
LINE
  8
0
 10
90.3965
 20
14.4718
 11
90.0826
 21
15.0429
  0
LINE
  8
0
 10
90.0826
 20
15.0429
 11
89.9205
 21
15.6741
  0
LINE
  8
0
 10
89.9205
 20
15.6741
 11
89.9205
 21
16.3259
  0
LINE
  8
0
 10
89.9205
 20
16.3259
 11
90.0826
 21
16.9571
  0
LINE
  8
0
 10
90.0826
 20
16.9571
 11
90.3965
 21
17.5282
  0
LINE
  8
0
 10
90.3965
 20
17.5282
 11
90.8427
 21
18.0033
  0
LINE
  8
0
 10
90.8427
 20
18.0033
 11
91.393
 21
18.3525
  0
LINE
  8
0
 10
91.393
 20
18.3525
 11
92.0128
 21
18.5539
  0
LINE
  8
0
 10
92.0128
 20
18.5539
 11
92.6633
 21
18.5949
  0
LINE
  8
0
 10
92.6633
 20
18.5949
 11
93.3034
 21
18.4727
  0
LINE
  8
0
 10
93.3034
 20
18.4727
 11
93.8931
 21
18.1953
  0
LINE
  8
0
 10
93.8931
 20
18.1953
 11
94.3953
 21
17.7798
  0
LINE
  8
0
 10
94.3953
 20
17.7798
 11
94.7784
 21
17.2525
  0
LINE
  8
0
 10
94.7784
 20
17.2525
 11
95.0183
 21
16.6466
  0
LINE
  8
0
 10
95.0183
 20
16.6466
 11
95.1
 21
16
  0
LINE
  8
0
 10
95.1
 20
16
 11
95.0183
 21
15.3534
  0
LINE
  8
0
 10
95.0183
 20
15.3534
 11
94.7784
 21
14.7474
  0
LINE
  8
0
 10
94.7784
 20
14.7474
 11
94.3953
 21
14.2202
  0
LINE
  8
0
 10
94.3953
 20
14.2202
 11
93.8931
 21
13.8047
  0
LINE
  8
0
 10
93.8931
 20
13.8047
 11
93.3034
 21
13.5273
  0
LINE
  8
0
 10
93.3034
 20
13.5273
 11
92.6633
 21
13.4051
  0
LINE
  8
0
 10
92.6633
 20
13.4051
 11
92.0128
 21
13.446
  0
LINE
  8
0
 10
57.0128
 20
13.446
 11
56.393
 21
13.6474
  0
LINE
  8
0
 10
56.393
 20
13.6474
 11
55.8427
 21
13.9967
  0
LINE
  8
0
 10
55.8427
 20
13.9967
 11
55.3966
 21
14.4718
  0
LINE
  8
0
 10
55.3966
 20
14.4718
 11
55.0826
 21
15.0429
  0
LINE
  8
0
 10
55.0826
 20
15.0429
 11
54.9205
 21
15.6741
  0
LINE
  8
0
 10
54.9205
 20
15.6741
 11
54.9205
 21
16.3259
  0
LINE
  8
0
 10
54.9205
 20
16.3259
 11
55.0826
 21
16.9571
  0
LINE
  8
0
 10
55.0826
 20
16.9571
 11
55.3966
 21
17.5282
  0
LINE
  8
0
 10
55.3966
 20
17.5282
 11
55.8427
 21
18.0033
  0
LINE
  8
0
 10
55.8427
 20
18.0033
 11
56.393
 21
18.3525
  0
LINE
  8
0
 10
56.393
 20
18.3525
 11
57.0128
 21
18.5539
  0
LINE
  8
0
 10
57.0128
 20
18.5539
 11
57.6633
 21
18.5949
  0
LINE
  8
0
 10
57.6633
 20
18.5949
 11
58.3035
 21
18.4727
  0
LINE
  8
0
 10
58.3035
 20
18.4727
 11
58.8932
 21
18.1953
  0
LINE
  8
0
 10
58.8932
 20
18.1953
 11
59.3953
 21
17.7798
  0
LINE
  8
0
 10
59.3953
 20
17.7798
 11
59.7784
 21
17.2525
  0
LINE
  8
0
 10
59.7784
 20
17.2525
 11
60.0183
 21
16.6466
  0
LINE
  8
0
 10
60.0183
 20
16.6466
 11
60.1
 21
16
  0
LINE
  8
0
 10
60.1
 20
16
 11
60.0183
 21
15.3534
  0
LINE
  8
0
 10
60.0183
 20
15.3534
 11
59.7784
 21
14.7474
  0
LINE
  8
0
 10
59.7784
 20
14.7474
 11
59.3953
 21
14.2202
  0
LINE
  8
0
 10
59.3953
 20
14.2202
 11
58.8932
 21
13.8047
  0
LINE
  8
0
 10
58.8932
 20
13.8047
 11
58.3035
 21
13.5273
  0
LINE
  8
0
 10
58.3035
 20
13.5273
 11
57.6633
 21
13.4051
  0
LINE
  8
0
 10
57.6633
 20
13.4051
 11
57.0128
 21
13.446
  0
LINE
  8
0
 10
57.0128
 20
-18.5539
 11
56.393
 21
-18.3525
  0
LINE
  8
0
 10
56.393
 20
-18.3525
 11
55.8427
 21
-18.0033
  0
LINE
  8
0
 10
55.8427
 20
-18.0033
 11
55.3966
 21
-17.5282
  0
LINE
  8
0
 10
55.3966
 20
-17.5282
 11
55.0826
 21
-16.9571
  0
LINE
  8
0
 10
55.0826
 20
-16.9571
 11
54.9205
 21
-16.3259
  0
LINE
  8
0
 10
54.9205
 20
-16.3259
 11
54.9205
 21
-15.6741
  0
LINE
  8
0
 10
54.9205
 20
-15.6741
 11
55.0826
 21
-15.0429
  0
LINE
  8
0
 10
55.0826
 20
-15.0429
 11
55.3966
 21
-14.4718
  0
LINE
  8
0
 10
55.3966
 20
-14.4718
 11
55.8427
 21
-13.9967
  0
LINE
  8
0
 10
55.8427
 20
-13.9967
 11
56.393
 21
-13.6474
  0
LINE
  8
0
 10
56.393
 20
-13.6474
 11
57.0128
 21
-13.446
  0
LINE
  8
0
 10
57.0128
 20
-13.446
 11
57.6633
 21
-13.4051
  0
LINE
  8
0
 10
57.6633
 20
-13.4051
 11
58.3035
 21
-13.5273
  0
LINE
  8
0
 10
58.3035
 20
-13.5273
 11
58.8932
 21
-13.8047
  0
LINE
  8
0
 10
58.8932
 20
-13.8047
 11
59.3953
 21
-14.2202
  0
LINE
  8
0
 10
59.3953
 20
-14.2202
 11
59.7784
 21
-14.7474
  0
LINE
  8
0
 10
59.7784
 20
-14.7474
 11
60.0183
 21
-15.3534
  0
LINE
  8
0
 10
60.0183
 20
-15.3534
 11
60.1
 21
-16
  0
LINE
  8
0
 10
60.1
 20
-16
 11
60.0183
 21
-16.6466
  0
LINE
  8
0
 10
60.0183
 20
-16.6466
 11
59.7784
 21
-17.2525
  0
LINE
  8
0
 10
59.7784
 20
-17.2525
 11
59.3953
 21
-17.7798
  0
LINE
  8
0
 10
59.3953
 20
-17.7798
 11
58.8932
 21
-18.1953
  0
LINE
  8
0
 10
58.8932
 20
-18.1953
 11
58.3035
 21
-18.4727
  0
LINE
  8
0
 10
58.3035
 20
-18.4727
 11
57.6633
 21
-18.5949
  0
LINE
  8
0
 10
57.6633
 20
-18.5949
 11
57.0128
 21
-18.5539
  0
LINE
  8
0
 10
92.0128
 20
-18.5539
 11
91.393
 21
-18.3525
  0
LINE
  8
0
 10
91.393
 20
-18.3525
 11
90.8427
 21
-18.0033
  0
LINE
  8
0
 10
90.8427
 20
-18.0033
 11
90.3965
 21
-17.5282
  0
LINE
  8
0
 10
90.3965
 20
-17.5282
 11
90.0826
 21
-16.9571
  0
LINE
  8
0
 10
90.0826
 20
-16.9571
 11
89.9205
 21
-16.3259
  0
LINE
  8
0
 10
89.9205
 20
-16.3259
 11
89.9205
 21
-15.6741
  0
LINE
  8
0
 10
89.9205
 20
-15.6741
 11
90.0826
 21
-15.0429
  0
LINE
  8
0
 10
90.0826
 20
-15.0429
 11
90.3965
 21
-14.4718
  0
LINE
  8
0
 10
90.3965
 20
-14.4718
 11
90.8427
 21
-13.9967
  0
LINE
  8
0
 10
90.8427
 20
-13.9967
 11
91.393
 21
-13.6474
  0
LINE
  8
0
 10
91.393
 20
-13.6474
 11
92.0128
 21
-13.446
  0
LINE
  8
0
 10
92.0128
 20
-13.446
 11
92.6633
 21
-13.4051
  0
LINE
  8
0
 10
92.6633
 20
-13.4051
 11
93.3034
 21
-13.5273
  0
LINE
  8
0
 10
93.3034
 20
-13.5273
 11
93.8931
 21
-13.8047
  0
LINE
  8
0
 10
93.8931
 20
-13.8047
 11
94.3953
 21
-14.2202
  0
LINE
  8
0
 10
94.3953
 20
-14.2202
 11
94.7784
 21
-14.7474
  0
LINE
  8
0
 10
94.7784
 20
-14.7474
 11
95.0183
 21
-15.3534
  0
LINE
  8
0
 10
95.0183
 20
-15.3534
 11
95.1
 21
-16
  0
LINE
  8
0
 10
95.1
 20
-16
 11
95.0183
 21
-16.6466
  0
LINE
  8
0
 10
95.0183
 20
-16.6466
 11
94.7784
 21
-17.2525
  0
LINE
  8
0
 10
94.7784
 20
-17.2525
 11
94.3953
 21
-17.7798
  0
LINE
  8
0
 10
94.3953
 20
-17.7798
 11
93.8931
 21
-18.1953
  0
LINE
  8
0
 10
93.8931
 20
-18.1953
 11
93.3034
 21
-18.4727
  0
LINE
  8
0
 10
93.3034
 20
-18.4727
 11
92.6633
 21
-18.5949
  0
LINE
  8
0
 10
92.6633
 20
-18.5949
 11
92.0128
 21
-18.5539
  0
LINE
  8
0
 10
-92.9872
 20
-18.5539
 11
-93.607
 21
-18.3525
  0
LINE
  8
0
 10
-93.607
 20
-18.3525
 11
-94.1573
 21
-18.0033
  0
LINE
  8
0
 10
-94.1573
 20
-18.0033
 11
-94.6034
 21
-17.5282
  0
LINE
  8
0
 10
-94.6034
 20
-17.5282
 11
-94.9174
 21
-16.9571
  0
LINE
  8
0
 10
-94.9174
 20
-16.9571
 11
-95.0795
 21
-16.3259
  0
LINE
  8
0
 10
-95.0795
 20
-16.3259
 11
-95.0795
 21
-15.6741
  0
LINE
  8
0
 10
-95.0795
 20
-15.6741
 11
-94.9174
 21
-15.0429
  0
LINE
  8
0
 10
-94.9174
 20
-15.0429
 11
-94.6034
 21
-14.4718
  0
LINE
  8
0
 10
-94.6034
 20
-14.4718
 11
-94.1573
 21
-13.9967
  0
LINE
  8
0
 10
-94.1573
 20
-13.9967
 11
-93.607
 21
-13.6474
  0
LINE
  8
0
 10
-93.607
 20
-13.6474
 11
-92.9872
 21
-13.446
  0
LINE
  8
0
 10
-92.9872
 20
-13.446
 11
-92.3367
 21
-13.4051
  0
LINE
  8
0
 10
-92.3367
 20
-13.4051
 11
-91.6965
 21
-13.5273
  0
LINE
  8
0
 10
-91.6965
 20
-13.5273
 11
-91.1068
 21
-13.8047
  0
LINE
  8
0
 10
-91.1068
 20
-13.8047
 11
-90.6047
 21
-14.2202
  0
LINE
  8
0
 10
-90.6047
 20
-14.2202
 11
-90.2216
 21
-14.7474
  0
LINE
  8
0
 10
-90.2216
 20
-14.7474
 11
-89.9817
 21
-15.3534
  0
LINE
  8
0
 10
-89.9817
 20
-15.3534
 11
-89.9
 21
-16
  0
LINE
  8
0
 10
-89.9
 20
-16
 11
-89.9817
 21
-16.6466
  0
LINE
  8
0
 10
-89.9817
 20
-16.6466
 11
-90.2216
 21
-17.2525
  0
LINE
  8
0
 10
-90.2216
 20
-17.2525
 11
-90.6047
 21
-17.7798
  0
LINE
  8
0
 10
-90.6047
 20
-17.7798
 11
-91.1068
 21
-18.1953
  0
LINE
  8
0
 10
-91.1068
 20
-18.1953
 11
-91.6965
 21
-18.4727
  0
LINE
  8
0
 10
-91.6965
 20
-18.4727
 11
-92.3367
 21
-18.5949
  0
LINE
  8
0
 10
-92.3367
 20
-18.5949
 11
-92.9872
 21
-18.5539
  0
LINE
  8
0
 10
-57.9872
 20
-18.5539
 11
-58.607
 21
-18.3525
  0
LINE
  8
0
 10
-58.607
 20
-18.3525
 11
-59.1573
 21
-18.0033
  0
LINE
  8
0
 10
-59.1573
 20
-18.0033
 11
-59.6035
 21
-17.5282
  0
LINE
  8
0
 10
-59.6035
 20
-17.5282
 11
-59.9174
 21
-16.9571
  0
LINE
  8
0
 10
-59.9174
 20
-16.9571
 11
-60.0795
 21
-16.3259
  0
LINE
  8
0
 10
-60.0795
 20
-16.3259
 11
-60.0795
 21
-15.6741
  0
LINE
  8
0
 10
-60.0795
 20
-15.6741
 11
-59.9174
 21
-15.0429
  0
LINE
  8
0
 10
-59.9174
 20
-15.0429
 11
-59.6035
 21
-14.4718
  0
LINE
  8
0
 10
-59.6035
 20
-14.4718
 11
-59.1573
 21
-13.9967
  0
LINE
  8
0
 10
-59.1573
 20
-13.9967
 11
-58.607
 21
-13.6474
  0
LINE
  8
0
 10
-58.607
 20
-13.6474
 11
-57.9872
 21
-13.446
  0
LINE
  8
0
 10
-57.9872
 20
-13.446
 11
-57.3367
 21
-13.4051
  0
LINE
  8
0
 10
-57.3367
 20
-13.4051
 11
-56.6966
 21
-13.5273
  0
LINE
  8
0
 10
-56.6966
 20
-13.5273
 11
-56.1069
 21
-13.8047
  0
LINE
  8
0
 10
-56.1069
 20
-13.8047
 11
-55.6047
 21
-14.2202
  0
LINE
  8
0
 10
-55.6047
 20
-14.2202
 11
-55.2216
 21
-14.7474
  0
LINE
  8
0
 10
-55.2216
 20
-14.7474
 11
-54.9817
 21
-15.3534
  0
LINE
  8
0
 10
-54.9817
 20
-15.3534
 11
-54.9
 21
-16
  0
LINE
  8
0
 10
-54.9
 20
-16
 11
-54.9817
 21
-16.6466
  0
LINE
  8
0
 10
-54.9817
 20
-16.6466
 11
-55.2216
 21
-17.2525
  0
LINE
  8
0
 10
-55.2216
 20
-17.2525
 11
-55.6047
 21
-17.7798
  0
LINE
  8
0
 10
-55.6047
 20
-17.7798
 11
-56.1069
 21
-18.1953
  0
LINE
  8
0
 10
-56.1069
 20
-18.1953
 11
-56.6966
 21
-18.4727
  0
LINE
  8
0
 10
-56.6966
 20
-18.4727
 11
-57.3367
 21
-18.5949
  0
LINE
  8
0
 10
-57.3367
 20
-18.5949
 11
-57.9872
 21
-18.5539
  0
LINE
  8
0
 10
-12.4872
 20
-42.5539
 11
-13.107
 21
-42.3525
  0
LINE
  8
0
 10
-13.107
 20
-42.3525
 11
-13.6573
 21
-42.0033
  0
LINE
  8
0
 10
-13.6573
 20
-42.0033
 11
-14.1034
 21
-41.5282
  0
LINE
  8
0
 10
-14.1034
 20
-41.5282
 11
-14.4174
 21
-40.9571
  0
LINE
  8
0
 10
-14.4174
 20
-40.9571
 11
-14.5795
 21
-40.3259
  0
LINE
  8
0
 10
-14.5795
 20
-40.3259
 11
-14.5795
 21
-39.6741
  0
LINE
  8
0
 10
-14.5795
 20
-39.6741
 11
-14.4174
 21
-39.0429
  0
LINE
  8
0
 10
-14.4174
 20
-39.0429
 11
-14.1034
 21
-38.4718
  0
LINE
  8
0
 10
-14.1034
 20
-38.4718
 11
-13.6573
 21
-37.9967
  0
LINE
  8
0
 10
-13.6573
 20
-37.9967
 11
-13.107
 21
-37.6474
  0
LINE
  8
0
 10
-13.107
 20
-37.6474
 11
-12.4872
 21
-37.446
  0
LINE
  8
0
 10
-12.4872
 20
-37.446
 11
-11.8367
 21
-37.4051
  0
LINE
  8
0
 10
-11.8367
 20
-37.4051
 11
-11.1965
 21
-37.5273
  0
LINE
  8
0
 10
-11.1965
 20
-37.5273
 11
-10.6068
 21
-37.8047
  0
LINE
  8
0
 10
-10.6068
 20
-37.8047
 11
-10.1047
 21
-38.2202
  0
LINE
  8
0
 10
-10.1047
 20
-38.2202
 11
-9.72159
 21
-38.7474
  0
LINE
  8
0
 10
-9.72159
 20
-38.7474
 11
-9.48167
 21
-39.3534
  0
LINE
  8
0
 10
-9.48167
 20
-39.3534
 11
-9.39999
 21
-40
  0
LINE
  8
0
 10
-9.39999
 20
-40
 11
-9.48167
 21
-40.6466
  0
LINE
  8
0
 10
-9.48167
 20
-40.6466
 11
-9.72159
 21
-41.2525
  0
LINE
  8
0
 10
-9.72159
 20
-41.2525
 11
-10.1047
 21
-41.7798
  0
LINE
  8
0
 10
-10.1047
 20
-41.7798
 11
-10.6068
 21
-42.1953
  0
LINE
  8
0
 10
-10.6068
 20
-42.1953
 11
-11.1965
 21
-42.4727
  0
LINE
  8
0
 10
-11.1965
 20
-42.4727
 11
-11.8367
 21
-42.5949
  0
LINE
  8
0
 10
-11.8367
 20
-42.5949
 11
-12.4872
 21
-42.5539
  0
LINE
  8
0
 10
11.5128
 20
-42.5539
 11
10.893
 21
-42.3525
  0
LINE
  8
0
 10
10.893
 20
-42.3525
 11
10.3427
 21
-42.0033
  0
LINE
  8
0
 10
10.3427
 20
-42.0033
 11
9.89655
 21
-41.5282
  0
LINE
  8
0
 10
9.89655
 20
-41.5282
 11
9.58258
 21
-40.9571
  0
LINE
  8
0
 10
9.58258
 20
-40.9571
 11
9.4205
 21
-40.3259
  0
LINE
  8
0
 10
9.4205
 20
-40.3259
 11
9.4205
 21
-39.6741
  0
LINE
  8
0
 10
9.4205
 20
-39.6741
 11
9.58258
 21
-39.0429
  0
LINE
  8
0
 10
9.58258
 20
-39.0429
 11
9.89655
 21
-38.4718
  0
LINE
  8
0
 10
9.89655
 20
-38.4718
 11
10.3427
 21
-37.9967
  0
LINE
  8
0
 10
10.3427
 20
-37.9967
 11
10.893
 21
-37.6474
  0
LINE
  8
0
 10
10.893
 20
-37.6474
 11
11.5128
 21
-37.446
  0
LINE
  8
0
 10
11.5128
 20
-37.446
 11
12.1633
 21
-37.4051
  0
LINE
  8
0
 10
12.1633
 20
-37.4051
 11
12.8034
 21
-37.5273
  0
LINE
  8
0
 10
12.8034
 20
-37.5273
 11
13.3931
 21
-37.8047
  0
LINE
  8
0
 10
13.3931
 20
-37.8047
 11
13.8953
 21
-38.2202
  0
LINE
  8
0
 10
13.8953
 20
-38.2202
 11
14.2784
 21
-38.7474
  0
LINE
  8
0
 10
14.2784
 20
-38.7474
 11
14.5183
 21
-39.3534
  0
LINE
  8
0
 10
14.5183
 20
-39.3534
 11
14.6
 21
-40
  0
LINE
  8
0
 10
14.6
 20
-40
 11
14.5183
 21
-40.6466
  0
LINE
  8
0
 10
14.5183
 20
-40.6466
 11
14.2784
 21
-41.2525
  0
LINE
  8
0
 10
14.2784
 20
-41.2525
 11
13.8953
 21
-41.7798
  0
LINE
  8
0
 10
13.8953
 20
-41.7798
 11
13.3931
 21
-42.1953
  0
LINE
  8
0
 10
13.3931
 20
-42.1953
 11
12.8034
 21
-42.4727
  0
LINE
  8
0
 10
12.8034
 20
-42.4727
 11
12.1633
 21
-42.5949
  0
LINE
  8
0
 10
12.1633
 20
-42.5949
 11
11.5128
 21
-42.5539
  0
LINE
  8
0
 10
-12.4872
 20
-82.5539
 11
-13.107
 21
-82.3525
  0
LINE
  8
0
 10
-13.107
 20
-82.3525
 11
-13.6573
 21
-82.0033
  0
LINE
  8
0
 10
-13.6573
 20
-82.0033
 11
-14.1034
 21
-81.5282
  0
LINE
  8
0
 10
-14.1034
 20
-81.5282
 11
-14.4174
 21
-80.9571
  0
LINE
  8
0
 10
-14.4174
 20
-80.9571
 11
-14.5795
 21
-80.3259
  0
LINE
  8
0
 10
-14.5795
 20
-80.3259
 11
-14.5795
 21
-79.6741
  0
LINE
  8
0
 10
-14.5795
 20
-79.6741
 11
-14.4174
 21
-79.0429
  0
LINE
  8
0
 10
-14.4174
 20
-79.0429
 11
-14.1034
 21
-78.4718
  0
LINE
  8
0
 10
-14.1034
 20
-78.4718
 11
-13.6573
 21
-77.9967
  0
LINE
  8
0
 10
-13.6573
 20
-77.9967
 11
-13.107
 21
-77.6474
  0
LINE
  8
0
 10
-13.107
 20
-77.6474
 11
-12.4872
 21
-77.446
  0
LINE
  8
0
 10
-12.4872
 20
-77.446
 11
-11.8367
 21
-77.4051
  0
LINE
  8
0
 10
-11.8367
 20
-77.4051
 11
-11.1965
 21
-77.5273
  0
LINE
  8
0
 10
-11.1965
 20
-77.5273
 11
-10.6068
 21
-77.8047
  0
LINE
  8
0
 10
-10.6068
 20
-77.8047
 11
-10.1047
 21
-78.2202
  0
LINE
  8
0
 10
-10.1047
 20
-78.2202
 11
-9.72159
 21
-78.7474
  0
LINE
  8
0
 10
-9.72159
 20
-78.7474
 11
-9.48167
 21
-79.3534
  0
LINE
  8
0
 10
-9.48167
 20
-79.3534
 11
-9.39999
 21
-80
  0
LINE
  8
0
 10
-9.39999
 20
-80
 11
-9.48167
 21
-80.6466
  0
LINE
  8
0
 10
-9.48167
 20
-80.6466
 11
-9.72159
 21
-81.2525
  0
LINE
  8
0
 10
-9.72159
 20
-81.2525
 11
-10.1047
 21
-81.7798
  0
LINE
  8
0
 10
-10.1047
 20
-81.7798
 11
-10.6068
 21
-82.1953
  0
LINE
  8
0
 10
-10.6068
 20
-82.1953
 11
-11.1965
 21
-82.4727
  0
LINE
  8
0
 10
-11.1965
 20
-82.4727
 11
-11.8367
 21
-82.5949
  0
LINE
  8
0
 10
-11.8367
 20
-82.5949
 11
-12.4872
 21
-82.5539
  0
LINE
  8
0
 10
11.5128
 20
-82.5539
 11
10.893
 21
-82.3525
  0
LINE
  8
0
 10
10.893
 20
-82.3525
 11
10.3427
 21
-82.0033
  0
LINE
  8
0
 10
10.3427
 20
-82.0033
 11
9.89655
 21
-81.5282
  0
LINE
  8
0
 10
9.89655
 20
-81.5282
 11
9.58258
 21
-80.9571
  0
LINE
  8
0
 10
9.58258
 20
-80.9571
 11
9.4205
 21
-80.3259
  0
LINE
  8
0
 10
9.4205
 20
-80.3259
 11
9.4205
 21
-79.6741
  0
LINE
  8
0
 10
9.4205
 20
-79.6741
 11
9.58258
 21
-79.0429
  0
LINE
  8
0
 10
9.58258
 20
-79.0429
 11
9.89655
 21
-78.4718
  0
LINE
  8
0
 10
9.89655
 20
-78.4718
 11
10.3427
 21
-77.9967
  0
LINE
  8
0
 10
10.3427
 20
-77.9967
 11
10.893
 21
-77.6474
  0
LINE
  8
0
 10
10.893
 20
-77.6474
 11
11.5128
 21
-77.446
  0
LINE
  8
0
 10
11.5128
 20
-77.446
 11
12.1633
 21
-77.4051
  0
LINE
  8
0
 10
12.1633
 20
-77.4051
 11
12.8034
 21
-77.5273
  0
LINE
  8
0
 10
12.8034
 20
-77.5273
 11
13.3931
 21
-77.8047
  0
LINE
  8
0
 10
13.3931
 20
-77.8047
 11
13.8953
 21
-78.2202
  0
LINE
  8
0
 10
13.8953
 20
-78.2202
 11
14.2784
 21
-78.7474
  0
LINE
  8
0
 10
14.2784
 20
-78.7474
 11
14.5183
 21
-79.3534
  0
LINE
  8
0
 10
14.5183
 20
-79.3534
 11
14.6
 21
-80
  0
LINE
  8
0
 10
14.6
 20
-80
 11
14.5183
 21
-80.6466
  0
LINE
  8
0
 10
14.5183
 20
-80.6466
 11
14.2784
 21
-81.2525
  0
LINE
  8
0
 10
14.2784
 20
-81.2525
 11
13.8953
 21
-81.7798
  0
LINE
  8
0
 10
13.8953
 20
-81.7798
 11
13.3931
 21
-82.1953
  0
LINE
  8
0
 10
13.3931
 20
-82.1953
 11
12.8034
 21
-82.4727
  0
LINE
  8
0
 10
12.8034
 20
-82.4727
 11
12.1633
 21
-82.5949
  0
LINE
  8
0
 10
12.1633
 20
-82.5949
 11
11.5128
 21
-82.5539
  0
ENDSEC
  0
SECTION
  2
OBJECTS
  0
DICTIONARY
  0
ENDSEC
  0
EOF
