999
DXF from OpenSCAD
  0
SECTION
  2
HEADER
  9
$ACADVER
  1
AC1006
  9
$INSBASE
 10
0.0
 20
0.0
 30
0.0
  9
$EXTMIN
 10
-101.996
 20
-91.9991
  9
$EXTMAX
 10
102
 20
151.999
  9
$LINMIN
 10
-101.996
 20
-91.9991
  9
$LINMAX
 10
102
 20
151.999
  0
ENDSEC
  0
SECTION
  2
TABLES
  0
TABLE
  2
LTYPE
 70
1
  0
LTYPE
  2
CONTINUOUS
 70
64
  3
Solid line
 72
65
 73
0
 40
0.000000
  0
ENDTAB
  0
TABLE
  2
LAYER
 70
6
  0
LAYER
  2
0
 70
64
 62
7
  6
CONTINUOUS
  0
ENDTAB
  0
TABLE
  2
STYLE
 70
0
  0
ENDTAB
  0
ENDSEC
  0
SECTION
  2
BLOCKS
  0
ENDSEC
  0
SECTION
  2
ENTITIES
  0
LWPOLYLINE
100
AcDbEntity
  8
0
100
AcDbPolyline
 90
112
 70
1
 10
50.1845
 20
-91.9915
 10
50.4279
 20
-91.9537
 10
50.6647
 20
-91.8863
 10
50.8915
 20
-91.7903
 10
51.1047
 20
-91.6672
 10
51.3012
 20
-91.5188
 10
51.478
 20
-91.3474
 10
51.6324
 20
-91.1555
 10
51.762
 20
-90.9462
 10
51.8649
 20
-90.7225
 10
51.9396
 20
-90.4878
 10
51.9848
 20
-90.2458
 10
52
 20
-90
 10
52
 20
-22.9991
 10
99.9384
 20
-22.9991
 10
100.185
 20
-22.9915
 10
100.428
 20
-22.9537
 10
100.665
 20
-22.8863
 10
100.891
 20
-22.7903
 10
101.105
 20
-22.6672
 10
101.301
 20
-22.5188
 10
101.478
 20
-22.3474
 10
101.632
 20
-22.1555
 10
101.762
 20
-21.9462
 10
101.865
 20
-21.7225
 10
101.94
 20
-21.4878
 10
101.985
 20
-21.2458
 10
102
 20
-21
 10
102
 20
23
 10
101.985
 20
23.2458
 10
101.94
 20
23.4878
 10
101.865
 20
23.7225
 10
101.762
 20
23.9462
 10
101.632
 20
24.1555
 10
101.478
 20
24.3474
 10
101.301
 20
24.5188
 10
101.105
 20
24.6672
 10
100.891
 20
24.7903
 10
100.665
 20
24.8863
 10
100.428
 20
24.9537
 10
100.185
 20
24.9915
 10
99.9384
 20
24.9991
 10
52
 20
24.9991
 10
52
 20
150
 10
51.9848
 20
150.246
 10
51.9396
 20
150.488
 10
51.8649
 20
150.722
 10
51.762
 20
150.946
 10
51.6324
 20
151.156
 10
51.478
 20
151.347
 10
51.3012
 20
151.519
 10
51.1047
 20
151.667
 10
50.8915
 20
151.79
 10
50.6647
 20
151.886
 10
50.4279
 20
151.954
 10
50.1845
 20
151.991
 10
49.9384
 20
151.999
 10
-50.0616
 20
151.999
 10
-50.3068
 20
151.976
 10
-50.5473
 20
151.924
 10
-50.7796
 20
151.842
 10
-51
 20
151.732
 10
-51.2053
 20
151.596
 10
-51.3923
 20
151.436
 10
-51.5582
 20
151.254
 10
-51.7004
 20
151.053
 10
-51.8169
 20
150.836
 10
-51.9059
 20
150.606
 10
-51.9659
 20
150.367
 10
-51.9962
 20
150.123
 10
-51.9962
 20
24.9991
 10
-100.062
 20
24.9991
 10
-100.307
 20
24.9763
 10
-100.547
 20
24.9237
 10
-100.78
 20
24.8418
 10
-101
 20
24.7321
 10
-101.205
 20
24.596
 10
-101.392
 20
24.4358
 10
-101.558
 20
24.2538
 10
-101.7
 20
24.0529
 10
-101.817
 20
23.8359
 10
-101.906
 20
23.6063
 10
-101.966
 20
23.3675
 10
-101.996
 20
23.1231
 10
-101.996
 20
-21.1231
 10
-101.966
 20
-21.3675
 10
-101.906
 20
-21.6063
 10
-101.817
 20
-21.8359
 10
-101.7
 20
-22.0529
 10
-101.558
 20
-22.2538
 10
-101.392
 20
-22.4358
 10
-101.205
 20
-22.596
 10
-101
 20
-22.7321
 10
-100.78
 20
-22.8418
 10
-100.547
 20
-22.9237
 10
-100.307
 20
-22.9763
 10
-100.062
 20
-22.9991
 10
-51.9962
 20
-22.9991
 10
-51.9962
 20
-90.1231
 10
-51.9659
 20
-90.3675
 10
-51.9059
 20
-90.6063
 10
-51.8169
 20
-90.8359
 10
-51.7004
 20
-91.0529
 10
-51.5582
 20
-91.2538
 10
-51.3923
 20
-91.4358
 10
-51.2053
 20
-91.596
 10
-51
 20
-91.7321
 10
-50.7796
 20
-91.8418
 10
-50.5473
 20
-91.9237
 10
-50.3068
 20
-91.9763
 10
-50.0616
 20
-91.9991
 10
49.9384
 20
-91.9991
  0
LWPOLYLINE
100
AcDbEntity
  8
0
100
AcDbPolyline
 90
60
 70
1
 10
-3.6585
 20
65.1917
 10
-7.27691
 20
65.7648
 10
-10.8156
 20
66.713
 10
-14.2358
 20
68.0259
 10
-17.5
 20
69.6891
 10
-20.5725
 20
71.6844
 10
-23.4196
 20
73.9899
 10
-26.0101
 20
76.5804
 10
-28.3156
 20
79.4275
 10
-30.3109
 20
82.5
 10
-31.9741
 20
85.7642
 10
-33.287
 20
89.1844
 10
-34.2352
 20
92.7231
 10
-34.8083
 20
96.3415
 10
-35
 20
100
 10
-34.8083
 20
103.658
 10
-34.2352
 20
107.277
 10
-33.287
 20
110.816
 10
-31.9741
 20
114.236
 10
-30.3109
 20
117.5
 10
-28.3156
 20
120.572
 10
-26.0101
 20
123.42
 10
-23.4196
 20
126.01
 10
-20.5725
 20
128.316
 10
-17.5
 20
130.311
 10
-14.2358
 20
131.974
 10
-10.8156
 20
133.287
 10
-7.27691
 20
134.235
 10
-3.6585
 20
134.808
 10
0
 20
135
 10
3.6585
 20
134.808
 10
7.27691
 20
134.235
 10
10.8156
 20
133.287
 10
14.2358
 20
131.974
 10
17.5
 20
130.311
 10
20.5725
 20
128.316
 10
23.4196
 20
126.01
 10
26.0101
 20
123.42
 10
28.3156
 20
120.572
 10
30.3109
 20
117.5
 10
31.9741
 20
114.236
 10
33.287
 20
110.816
 10
34.2352
 20
107.277
 10
34.8083
 20
103.658
 10
35
 20
100
 10
34.8083
 20
96.3415
 10
34.2352
 20
92.7231
 10
33.287
 20
89.1844
 10
31.9741
 20
85.7642
 10
30.3109
 20
82.5
 10
28.3156
 20
79.4275
 10
26.0101
 20
76.5804
 10
23.4196
 20
73.9899
 10
20.5725
 20
71.6844
 10
17.5
 20
69.6891
 10
14.2358
 20
68.0259
 10
10.8156
 20
66.713
 10
7.27691
 20
65.7648
 10
3.6585
 20
65.1917
 10
0
 20
65
  0
LWPOLYLINE
100
AcDbEntity
  8
0
100
AcDbPolyline
 90
60
 70
1
 10
31.5014
 20
128.831
 10
31.1913
 20
128.881
 10
30.8879
 20
128.962
 10
30.5948
 20
129.074
 10
30.315
 20
129.217
 10
30.0516
 20
129.388
 10
29.8076
 20
129.586
 10
29.5856
 20
129.808
 10
29.3879
 20
130.052
 10
29.2169
 20
130.315
 10
29.0744
 20
130.595
 10
28.9618
 20
130.888
 10
28.8806
 20
131.191
 10
28.8314
 20
131.501
 10
28.815
 20
131.815
 10
28.8314
 20
132.129
 10
28.8806
 20
132.439
 10
28.9618
 20
132.742
 10
29.0744
 20
133.035
 10
29.2169
 20
133.315
 10
29.3879
 20
133.578
 10
29.5856
 20
133.822
 10
29.8076
 20
134.044
 10
30.0516
 20
134.242
 10
30.315
 20
134.413
 10
30.5948
 20
134.556
 10
30.8879
 20
134.668
 10
31.1913
 20
134.749
 10
31.5014
 20
134.799
 10
31.815
 20
134.815
 10
32.1286
 20
134.799
 10
32.4387
 20
134.749
 10
32.7421
 20
134.668
 10
33.0352
 20
134.556
 10
33.315
 20
134.413
 10
33.5784
 20
134.242
 10
33.8224
 20
134.044
 10
34.0444
 20
133.822
 10
34.2421
 20
133.578
 10
34.4131
 20
133.315
 10
34.5556
 20
133.035
 10
34.6682
 20
132.742
 10
34.7494
 20
132.439
 10
34.7986
 20
132.129
 10
34.815
 20
131.815
 10
34.7986
 20
131.501
 10
34.7494
 20
131.191
 10
34.6682
 20
130.888
 10
34.5556
 20
130.595
 10
34.4131
 20
130.315
 10
34.2421
 20
130.052
 10
34.0444
 20
129.808
 10
33.8224
 20
129.586
 10
33.5784
 20
129.388
 10
33.315
 20
129.217
 10
33.0352
 20
129.074
 10
32.7421
 20
128.962
 10
32.4387
 20
128.881
 10
32.1286
 20
128.831
 10
31.815
 20
128.815
  0
LWPOLYLINE
100
AcDbEntity
  8
0
100
AcDbPolyline
 90
60
 70
1
 10
-32.1286
 20
128.831
 10
-32.4387
 20
128.881
 10
-32.7421
 20
128.962
 10
-33.0352
 20
129.074
 10
-33.315
 20
129.217
 10
-33.5784
 20
129.388
 10
-33.8224
 20
129.586
 10
-34.0444
 20
129.808
 10
-34.2421
 20
130.052
 10
-34.4131
 20
130.315
 10
-34.5556
 20
130.595
 10
-34.6682
 20
130.888
 10
-34.7494
 20
131.191
 10
-34.7986
 20
131.501
 10
-34.815
 20
131.815
 10
-34.7986
 20
132.129
 10
-34.7494
 20
132.439
 10
-34.6682
 20
132.742
 10
-34.5556
 20
133.035
 10
-34.4131
 20
133.315
 10
-34.2421
 20
133.578
 10
-34.0444
 20
133.822
 10
-33.8224
 20
134.044
 10
-33.5784
 20
134.242
 10
-33.315
 20
134.413
 10
-33.0352
 20
134.556
 10
-32.7421
 20
134.668
 10
-32.4387
 20
134.749
 10
-32.1286
 20
134.799
 10
-31.815
 20
134.815
 10
-31.5014
 20
134.799
 10
-31.1913
 20
134.749
 10
-30.8879
 20
134.668
 10
-30.5948
 20
134.556
 10
-30.315
 20
134.413
 10
-30.0516
 20
134.242
 10
-29.8076
 20
134.044
 10
-29.5856
 20
133.822
 10
-29.3879
 20
133.578
 10
-29.2169
 20
133.315
 10
-29.0744
 20
133.035
 10
-28.9618
 20
132.742
 10
-28.8806
 20
132.439
 10
-28.8314
 20
132.129
 10
-28.815
 20
131.815
 10
-28.8314
 20
131.501
 10
-28.8806
 20
131.191
 10
-28.9618
 20
130.888
 10
-29.0744
 20
130.595
 10
-29.2169
 20
130.315
 10
-29.3879
 20
130.052
 10
-29.5856
 20
129.808
 10
-29.8076
 20
129.586
 10
-30.0516
 20
129.388
 10
-30.315
 20
129.217
 10
-30.5948
 20
129.074
 10
-30.8879
 20
128.962
 10
-31.1913
 20
128.881
 10
-31.5014
 20
128.831
 10
-31.815
 20
128.815
  0
LWPOLYLINE
100
AcDbEntity
  8
0
100
AcDbPolyline
 90
60
 70
1
 10
-32.1286
 20
65.2014
 10
-32.4387
 20
65.2506
 10
-32.7421
 20
65.3318
 10
-33.0352
 20
65.4444
 10
-33.315
 20
65.5869
 10
-33.5784
 20
65.7579
 10
-33.8224
 20
65.9556
 10
-34.0444
 20
66.1776
 10
-34.2421
 20
66.4216
 10
-34.4131
 20
66.685
 10
-34.5556
 20
66.9648
 10
-34.6682
 20
67.2579
 10
-34.7494
 20
67.5613
 10
-34.7986
 20
67.8714
 10
-34.815
 20
68.185
 10
-34.7986
 20
68.4986
 10
-34.7494
 20
68.8087
 10
-34.6682
 20
69.1121
 10
-34.5556
 20
69.4052
 10
-34.4131
 20
69.685
 10
-34.2421
 20
69.9484
 10
-34.0444
 20
70.1924
 10
-33.8224
 20
70.4144
 10
-33.5784
 20
70.6121
 10
-33.315
 20
70.7831
 10
-33.0352
 20
70.9256
 10
-32.7421
 20
71.0382
 10
-32.4387
 20
71.1194
 10
-32.1286
 20
71.1686
 10
-31.815
 20
71.185
 10
-31.5014
 20
71.1686
 10
-31.1913
 20
71.1194
 10
-30.8879
 20
71.0382
 10
-30.5948
 20
70.9256
 10
-30.315
 20
70.7831
 10
-30.0516
 20
70.6121
 10
-29.8076
 20
70.4144
 10
-29.5856
 20
70.1924
 10
-29.3879
 20
69.9484
 10
-29.2169
 20
69.685
 10
-29.0744
 20
69.4052
 10
-28.9618
 20
69.1121
 10
-28.8806
 20
68.8087
 10
-28.8314
 20
68.4986
 10
-28.815
 20
68.185
 10
-28.8314
 20
67.8714
 10
-28.8806
 20
67.5613
 10
-28.9618
 20
67.2579
 10
-29.0744
 20
66.9648
 10
-29.2169
 20
66.685
 10
-29.3879
 20
66.4216
 10
-29.5856
 20
66.1776
 10
-29.8076
 20
65.9556
 10
-30.0516
 20
65.7579
 10
-30.315
 20
65.5869
 10
-30.5948
 20
65.4444
 10
-30.8879
 20
65.3318
 10
-31.1913
 20
65.2506
 10
-31.5014
 20
65.2014
 10
-31.815
 20
65.185
  0
LWPOLYLINE
100
AcDbEntity
  8
0
100
AcDbPolyline
 90
60
 70
1
 10
31.5014
 20
65.2014
 10
31.1913
 20
65.2506
 10
30.8879
 20
65.3318
 10
30.5948
 20
65.4444
 10
30.315
 20
65.5869
 10
30.0516
 20
65.7579
 10
29.8076
 20
65.9556
 10
29.5856
 20
66.1776
 10
29.3879
 20
66.4216
 10
29.2169
 20
66.685
 10
29.0744
 20
66.9648
 10
28.9618
 20
67.2579
 10
28.8806
 20
67.5613
 10
28.8314
 20
67.8714
 10
28.815
 20
68.185
 10
28.8314
 20
68.4986
 10
28.8806
 20
68.8087
 10
28.9618
 20
69.1121
 10
29.0744
 20
69.4052
 10
29.2169
 20
69.685
 10
29.3879
 20
69.9484
 10
29.5856
 20
70.1924
 10
29.8076
 20
70.4144
 10
30.0516
 20
70.6121
 10
30.315
 20
70.7831
 10
30.5948
 20
70.9256
 10
30.8879
 20
71.0382
 10
31.1913
 20
71.1194
 10
31.5014
 20
71.1686
 10
31.815
 20
71.185
 10
32.1286
 20
71.1686
 10
32.4387
 20
71.1194
 10
32.7421
 20
71.0382
 10
33.0352
 20
70.9256
 10
33.315
 20
70.7831
 10
33.5784
 20
70.6121
 10
33.8224
 20
70.4144
 10
34.0444
 20
70.1924
 10
34.2421
 20
69.9484
 10
34.4131
 20
69.685
 10
34.5556
 20
69.4052
 10
34.6682
 20
69.1121
 10
34.7494
 20
68.8087
 10
34.7986
 20
68.4986
 10
34.815
 20
68.185
 10
34.7986
 20
67.8714
 10
34.7494
 20
67.5613
 10
34.6682
 20
67.2579
 10
34.5556
 20
66.9648
 10
34.4131
 20
66.685
 10
34.2421
 20
66.4216
 10
34.0444
 20
66.1776
 10
33.8224
 20
65.9556
 10
33.5784
 20
65.7579
 10
33.315
 20
65.5869
 10
33.0352
 20
65.4444
 10
32.7421
 20
65.3318
 10
32.4387
 20
65.2506
 10
32.1286
 20
65.2014
 10
31.815
 20
65.185
  0
LWPOLYLINE
100
AcDbEntity
  8
0
100
AcDbPolyline
 90
60
 70
1
 10
19.5714
 20
45.9225
 10
19.1476
 20
45.9896
 10
18.733
 20
46.1007
 10
18.3324
 20
46.2545
 10
17.95
 20
46.4493
 10
17.5901
 20
46.683
 10
17.2566
 20
46.9531
 10
16.9531
 20
47.2566
 10
16.683
 20
47.5901
 10
16.4493
 20
47.95
 10
16.2545
 20
48.3324
 10
16.1007
 20
48.733
 10
15.9896
 20
49.1476
 10
15.9225
 20
49.5714
 10
15.9
 20
50
 10
15.9225
 20
50.4286
 10
15.9896
 20
50.8524
 10
16.1007
 20
51.267
 10
16.2545
 20
51.6676
 10
16.4493
 20
52.05
 10
16.683
 20
52.4099
 10
16.9531
 20
52.7434
 10
17.2566
 20
53.0469
 10
17.5901
 20
53.317
 10
17.95
 20
53.5507
 10
18.3324
 20
53.7455
 10
18.733
 20
53.8993
 10
19.1476
 20
54.0104
 10
19.5714
 20
54.0775
 10
20
 20
54.1
 10
20.4286
 20
54.0775
 10
20.8524
 20
54.0104
 10
21.267
 20
53.8993
 10
21.6676
 20
53.7455
 10
22.05
 20
53.5507
 10
22.4099
 20
53.317
 10
22.7434
 20
53.0469
 10
23.0469
 20
52.7434
 10
23.317
 20
52.4099
 10
23.5507
 20
52.05
 10
23.7455
 20
51.6676
 10
23.8993
 20
51.267
 10
24.0104
 20
50.8524
 10
24.0775
 20
50.4286
 10
24.1
 20
50
 10
24.0775
 20
49.5714
 10
24.0104
 20
49.1476
 10
23.8993
 20
48.733
 10
23.7455
 20
48.3324
 10
23.5507
 20
47.95
 10
23.317
 20
47.5901
 10
23.0469
 20
47.2566
 10
22.7434
 20
46.9531
 10
22.4099
 20
46.683
 10
22.05
 20
46.4493
 10
21.6676
 20
46.2545
 10
21.267
 20
46.1007
 10
20.8524
 20
45.9896
 10
20.4286
 20
45.9225
 10
20
 20
45.9
  0
LWPOLYLINE
100
AcDbEntity
  8
0
100
AcDbPolyline
 90
60
 70
1
 10
-20.4286
 20
45.9225
 10
-20.8524
 20
45.9896
 10
-21.267
 20
46.1007
 10
-21.6676
 20
46.2545
 10
-22.05
 20
46.4493
 10
-22.4099
 20
46.683
 10
-22.7434
 20
46.9531
 10
-23.0469
 20
47.2566
 10
-23.317
 20
47.5901
 10
-23.5507
 20
47.95
 10
-23.7455
 20
48.3324
 10
-23.8993
 20
48.733
 10
-24.0104
 20
49.1476
 10
-24.0775
 20
49.5714
 10
-24.1
 20
50
 10
-24.0775
 20
50.4286
 10
-24.0104
 20
50.8524
 10
-23.8993
 20
51.267
 10
-23.7455
 20
51.6676
 10
-23.5507
 20
52.05
 10
-23.317
 20
52.4099
 10
-23.0469
 20
52.7434
 10
-22.7434
 20
53.0469
 10
-22.4099
 20
53.317
 10
-22.05
 20
53.5507
 10
-21.6676
 20
53.7455
 10
-21.267
 20
53.8993
 10
-20.8524
 20
54.0104
 10
-20.4286
 20
54.0775
 10
-20
 20
54.1
 10
-19.5714
 20
54.0775
 10
-19.1476
 20
54.0104
 10
-18.733
 20
53.8993
 10
-18.3324
 20
53.7455
 10
-17.95
 20
53.5507
 10
-17.5901
 20
53.317
 10
-17.2566
 20
53.0469
 10
-16.9531
 20
52.7434
 10
-16.683
 20
52.4099
 10
-16.4493
 20
52.05
 10
-16.2545
 20
51.6676
 10
-16.1007
 20
51.267
 10
-15.9896
 20
50.8524
 10
-15.9225
 20
50.4286
 10
-15.9
 20
50
 10
-15.9225
 20
49.5714
 10
-15.9896
 20
49.1476
 10
-16.1007
 20
48.733
 10
-16.2545
 20
48.3324
 10
-16.4493
 20
47.95
 10
-16.683
 20
47.5901
 10
-16.9531
 20
47.2566
 10
-17.2566
 20
46.9531
 10
-17.5901
 20
46.683
 10
-17.95
 20
46.4493
 10
-18.3324
 20
46.2545
 10
-18.733
 20
46.1007
 10
-19.1476
 20
45.9896
 10
-19.5714
 20
45.9225
 10
-20
 20
45.9
  0
LWPOLYLINE
100
AcDbEntity
  8
0
100
AcDbPolyline
 90
60
 70
1
 10
-92.7718
 20
13.4142
 10
-93.0406
 20
13.4568
 10
-93.3034
 20
13.5273
 10
-93.5575
 20
13.6248
 10
-93.8
 20
13.7483
 10
-94.0282
 20
13.8966
 10
-94.2397
 20
14.0678
 10
-94.4322
 20
14.2603
 10
-94.6034
 20
14.4718
 10
-94.7517
 20
14.7
 10
-94.8752
 20
14.9425
 10
-94.9727
 20
15.1966
 10
-95.0432
 20
15.4594
 10
-95.0858
 20
15.7282
 10
-95.1
 20
16
 10
-95.0858
 20
16.2718
 10
-95.0432
 20
16.5406
 10
-94.9727
 20
16.8034
 10
-94.8752
 20
17.0575
 10
-94.7517
 20
17.3
 10
-94.6034
 20
17.5282
 10
-94.4322
 20
17.7397
 10
-94.2397
 20
17.9322
 10
-94.0282
 20
18.1034
 10
-93.8
 20
18.2517
 10
-93.5575
 20
18.3752
 10
-93.3034
 20
18.4727
 10
-93.0406
 20
18.5432
 10
-92.7718
 20
18.5858
 10
-92.5
 20
18.6
 10
-92.2282
 20
18.5858
 10
-91.9594
 20
18.5432
 10
-91.6966
 20
18.4727
 10
-91.4425
 20
18.3752
 10
-91.2
 20
18.2517
 10
-90.9718
 20
18.1034
 10
-90.7603
 20
17.9322
 10
-90.5678
 20
17.7397
 10
-90.3966
 20
17.5282
 10
-90.2483
 20
17.3
 10
-90.1248
 20
17.0575
 10
-90.0273
 20
16.8034
 10
-89.9568
 20
16.5406
 10
-89.9142
 20
16.2718
 10
-89.9
 20
16
 10
-89.9142
 20
15.7282
 10
-89.9568
 20
15.4594
 10
-90.0273
 20
15.1966
 10
-90.1248
 20
14.9425
 10
-90.2483
 20
14.7
 10
-90.3966
 20
14.4718
 10
-90.5678
 20
14.2603
 10
-90.7603
 20
14.0678
 10
-90.9718
 20
13.8966
 10
-91.2
 20
13.7483
 10
-91.4425
 20
13.6248
 10
-91.6966
 20
13.5273
 10
-91.9594
 20
13.4568
 10
-92.2282
 20
13.4142
 10
-92.5
 20
13.4
  0
LWPOLYLINE
100
AcDbEntity
  8
0
100
AcDbPolyline
 90
60
 70
1
 10
-57.7718
 20
13.4142
 10
-58.0406
 20
13.4568
 10
-58.3034
 20
13.5273
 10
-58.5575
 20
13.6248
 10
-58.8
 20
13.7483
 10
-59.0282
 20
13.8966
 10
-59.2397
 20
14.0678
 10
-59.4322
 20
14.2603
 10
-59.6034
 20
14.4718
 10
-59.7517
 20
14.7
 10
-59.8752
 20
14.9425
 10
-59.9727
 20
15.1966
 10
-60.0432
 20
15.4594
 10
-60.0858
 20
15.7282
 10
-60.1
 20
16
 10
-60.0858
 20
16.2718
 10
-60.0432
 20
16.5406
 10
-59.9727
 20
16.8034
 10
-59.8752
 20
17.0575
 10
-59.7517
 20
17.3
 10
-59.6034
 20
17.5282
 10
-59.4322
 20
17.7397
 10
-59.2397
 20
17.9322
 10
-59.0282
 20
18.1034
 10
-58.8
 20
18.2517
 10
-58.5575
 20
18.3752
 10
-58.3034
 20
18.4727
 10
-58.0406
 20
18.5432
 10
-57.7718
 20
18.5858
 10
-57.5
 20
18.6
 10
-57.2282
 20
18.5858
 10
-56.9594
 20
18.5432
 10
-56.6966
 20
18.4727
 10
-56.4425
 20
18.3752
 10
-56.2
 20
18.2517
 10
-55.9718
 20
18.1034
 10
-55.7603
 20
17.9322
 10
-55.5678
 20
17.7397
 10
-55.3966
 20
17.5282
 10
-55.2483
 20
17.3
 10
-55.1248
 20
17.0575
 10
-55.0273
 20
16.8034
 10
-54.9568
 20
16.5406
 10
-54.9142
 20
16.2718
 10
-54.9
 20
16
 10
-54.9142
 20
15.7282
 10
-54.9568
 20
15.4594
 10
-55.0273
 20
15.1966
 10
-55.1248
 20
14.9425
 10
-55.2483
 20
14.7
 10
-55.3966
 20
14.4718
 10
-55.5678
 20
14.2603
 10
-55.7603
 20
14.0678
 10
-55.9718
 20
13.8966
 10
-56.2
 20
13.7483
 10
-56.4425
 20
13.6248
 10
-56.6966
 20
13.5273
 10
-56.9594
 20
13.4568
 10
-57.2282
 20
13.4142
 10
-57.5
 20
13.4
  0
LWPOLYLINE
100
AcDbEntity
  8
0
100
AcDbPolyline
 90
60
 70
1
 10
92.2282
 20
13.4142
 10
91.9594
 20
13.4568
 10
91.6966
 20
13.5273
 10
91.4425
 20
13.6248
 10
91.2
 20
13.7483
 10
90.9718
 20
13.8966
 10
90.7603
 20
14.0678
 10
90.5678
 20
14.2603
 10
90.3966
 20
14.4718
 10
90.2483
 20
14.7
 10
90.1248
 20
14.9425
 10
90.0273
 20
15.1966
 10
89.9568
 20
15.4594
 10
89.9142
 20
15.7282
 10
89.9
 20
16
 10
89.9142
 20
16.2718
 10
89.9568
 20
16.5406
 10
90.0273
 20
16.8034
 10
90.1248
 20
17.0575
 10
90.2483
 20
17.3
 10
90.3966
 20
17.5282
 10
90.5678
 20
17.7397
 10
90.7603
 20
17.9322
 10
90.9718
 20
18.1034
 10
91.2
 20
18.2517
 10
91.4425
 20
18.3752
 10
91.6966
 20
18.4727
 10
91.9594
 20
18.5432
 10
92.2282
 20
18.5858
 10
92.5
 20
18.6
 10
92.7718
 20
18.5858
 10
93.0406
 20
18.5432
 10
93.3034
 20
18.4727
 10
93.5575
 20
18.3752
 10
93.8
 20
18.2517
 10
94.0282
 20
18.1034
 10
94.2397
 20
17.9322
 10
94.4322
 20
17.7397
 10
94.6034
 20
17.5282
 10
94.7517
 20
17.3
 10
94.8752
 20
17.0575
 10
94.9727
 20
16.8034
 10
95.0432
 20
16.5406
 10
95.0858
 20
16.2718
 10
95.1
 20
16
 10
95.0858
 20
15.7282
 10
95.0432
 20
15.4594
 10
94.9727
 20
15.1966
 10
94.8752
 20
14.9425
 10
94.7517
 20
14.7
 10
94.6034
 20
14.4718
 10
94.4322
 20
14.2603
 10
94.2397
 20
14.0678
 10
94.0282
 20
13.8966
 10
93.8
 20
13.7483
 10
93.5575
 20
13.6248
 10
93.3034
 20
13.5273
 10
93.0406
 20
13.4568
 10
92.7718
 20
13.4142
 10
92.5
 20
13.4
  0
LWPOLYLINE
100
AcDbEntity
  8
0
100
AcDbPolyline
 90
60
 70
1
 10
57.2282
 20
13.4142
 10
56.9594
 20
13.4568
 10
56.6966
 20
13.5273
 10
56.4425
 20
13.6248
 10
56.2
 20
13.7483
 10
55.9718
 20
13.8966
 10
55.7603
 20
14.0678
 10
55.5678
 20
14.2603
 10
55.3966
 20
14.4718
 10
55.2483
 20
14.7
 10
55.1248
 20
14.9425
 10
55.0273
 20
15.1966
 10
54.9568
 20
15.4594
 10
54.9142
 20
15.7282
 10
54.9
 20
16
 10
54.9142
 20
16.2718
 10
54.9568
 20
16.5406
 10
55.0273
 20
16.8034
 10
55.1248
 20
17.0575
 10
55.2483
 20
17.3
 10
55.3966
 20
17.5282
 10
55.5678
 20
17.7397
 10
55.7603
 20
17.9322
 10
55.9718
 20
18.1034
 10
56.2
 20
18.2517
 10
56.4425
 20
18.3752
 10
56.6966
 20
18.4727
 10
56.9594
 20
18.5432
 10
57.2282
 20
18.5858
 10
57.5
 20
18.6
 10
57.7718
 20
18.5858
 10
58.0406
 20
18.5432
 10
58.3034
 20
18.4727
 10
58.5575
 20
18.3752
 10
58.8
 20
18.2517
 10
59.0282
 20
18.1034
 10
59.2397
 20
17.9322
 10
59.4322
 20
17.7397
 10
59.6034
 20
17.5282
 10
59.7517
 20
17.3
 10
59.8752
 20
17.0575
 10
59.9727
 20
16.8034
 10
60.0432
 20
16.5406
 10
60.0858
 20
16.2718
 10
60.1
 20
16
 10
60.0858
 20
15.7282
 10
60.0432
 20
15.4594
 10
59.9727
 20
15.1966
 10
59.8752
 20
14.9425
 10
59.7517
 20
14.7
 10
59.6034
 20
14.4718
 10
59.4322
 20
14.2603
 10
59.2397
 20
14.0678
 10
59.0282
 20
13.8966
 10
58.8
 20
13.7483
 10
58.5575
 20
13.6248
 10
58.3034
 20
13.5273
 10
58.0406
 20
13.4568
 10
57.7718
 20
13.4142
 10
57.5
 20
13.4
  0
LWPOLYLINE
100
AcDbEntity
  8
0
100
AcDbPolyline
 90
60
 70
1
 10
92.2282
 20
-18.5858
 10
91.9594
 20
-18.5432
 10
91.6966
 20
-18.4727
 10
91.4425
 20
-18.3752
 10
91.2
 20
-18.2517
 10
90.9718
 20
-18.1034
 10
90.7603
 20
-17.9322
 10
90.5678
 20
-17.7397
 10
90.3966
 20
-17.5282
 10
90.2483
 20
-17.3
 10
90.1248
 20
-17.0575
 10
90.0273
 20
-16.8034
 10
89.9568
 20
-16.5406
 10
89.9142
 20
-16.2718
 10
89.9
 20
-16
 10
89.9142
 20
-15.7282
 10
89.9568
 20
-15.4594
 10
90.0273
 20
-15.1966
 10
90.1248
 20
-14.9425
 10
90.2483
 20
-14.7
 10
90.3966
 20
-14.4718
 10
90.5678
 20
-14.2603
 10
90.7603
 20
-14.0678
 10
90.9718
 20
-13.8966
 10
91.2
 20
-13.7483
 10
91.4425
 20
-13.6248
 10
91.6966
 20
-13.5273
 10
91.9594
 20
-13.4568
 10
92.2282
 20
-13.4142
 10
92.5
 20
-13.4
 10
92.7718
 20
-13.4142
 10
93.0406
 20
-13.4568
 10
93.3034
 20
-13.5273
 10
93.5575
 20
-13.6248
 10
93.8
 20
-13.7483
 10
94.0282
 20
-13.8966
 10
94.2397
 20
-14.0678
 10
94.4322
 20
-14.2603
 10
94.6034
 20
-14.4718
 10
94.7517
 20
-14.7
 10
94.8752
 20
-14.9425
 10
94.9727
 20
-15.1966
 10
95.0432
 20
-15.4594
 10
95.0858
 20
-15.7282
 10
95.1
 20
-16
 10
95.0858
 20
-16.2718
 10
95.0432
 20
-16.5406
 10
94.9727
 20
-16.8034
 10
94.8752
 20
-17.0575
 10
94.7517
 20
-17.3
 10
94.6034
 20
-17.5282
 10
94.4322
 20
-17.7397
 10
94.2397
 20
-17.9322
 10
94.0282
 20
-18.1034
 10
93.8
 20
-18.2517
 10
93.5575
 20
-18.3752
 10
93.3034
 20
-18.4727
 10
93.0406
 20
-18.5432
 10
92.7718
 20
-18.5858
 10
92.5
 20
-18.6
  0
LWPOLYLINE
100
AcDbEntity
  8
0
100
AcDbPolyline
 90
60
 70
1
 10
57.2282
 20
-18.5858
 10
56.9594
 20
-18.5432
 10
56.6966
 20
-18.4727
 10
56.4425
 20
-18.3752
 10
56.2
 20
-18.2517
 10
55.9718
 20
-18.1034
 10
55.7603
 20
-17.9322
 10
55.5678
 20
-17.7397
 10
55.3966
 20
-17.5282
 10
55.2483
 20
-17.3
 10
55.1248
 20
-17.0575
 10
55.0273
 20
-16.8034
 10
54.9568
 20
-16.5406
 10
54.9142
 20
-16.2718
 10
54.9
 20
-16
 10
54.9142
 20
-15.7282
 10
54.9568
 20
-15.4594
 10
55.0273
 20
-15.1966
 10
55.1248
 20
-14.9425
 10
55.2483
 20
-14.7
 10
55.3966
 20
-14.4718
 10
55.5678
 20
-14.2603
 10
55.7603
 20
-14.0678
 10
55.9718
 20
-13.8966
 10
56.2
 20
-13.7483
 10
56.4425
 20
-13.6248
 10
56.6966
 20
-13.5273
 10
56.9594
 20
-13.4568
 10
57.2282
 20
-13.4142
 10
57.5
 20
-13.4
 10
57.7718
 20
-13.4142
 10
58.0406
 20
-13.4568
 10
58.3034
 20
-13.5273
 10
58.5575
 20
-13.6248
 10
58.8
 20
-13.7483
 10
59.0282
 20
-13.8966
 10
59.2397
 20
-14.0678
 10
59.4322
 20
-14.2603
 10
59.6034
 20
-14.4718
 10
59.7517
 20
-14.7
 10
59.8752
 20
-14.9425
 10
59.9727
 20
-15.1966
 10
60.0432
 20
-15.4594
 10
60.0858
 20
-15.7282
 10
60.1
 20
-16
 10
60.0858
 20
-16.2718
 10
60.0432
 20
-16.5406
 10
59.9727
 20
-16.8034
 10
59.8752
 20
-17.0575
 10
59.7517
 20
-17.3
 10
59.6034
 20
-17.5282
 10
59.4322
 20
-17.7397
 10
59.2397
 20
-17.9322
 10
59.0282
 20
-18.1034
 10
58.8
 20
-18.2517
 10
58.5575
 20
-18.3752
 10
58.3034
 20
-18.4727
 10
58.0406
 20
-18.5432
 10
57.7718
 20
-18.5858
 10
57.5
 20
-18.6
  0
LWPOLYLINE
100
AcDbEntity
  8
0
100
AcDbPolyline
 90
60
 70
1
 10
-92.7718
 20
-18.5858
 10
-93.0406
 20
-18.5432
 10
-93.3034
 20
-18.4727
 10
-93.5575
 20
-18.3752
 10
-93.8
 20
-18.2517
 10
-94.0282
 20
-18.1034
 10
-94.2397
 20
-17.9322
 10
-94.4322
 20
-17.7397
 10
-94.6034
 20
-17.5282
 10
-94.7517
 20
-17.3
 10
-94.8752
 20
-17.0575
 10
-94.9727
 20
-16.8034
 10
-95.0432
 20
-16.5406
 10
-95.0858
 20
-16.2718
 10
-95.1
 20
-16
 10
-95.0858
 20
-15.7282
 10
-95.0432
 20
-15.4594
 10
-94.9727
 20
-15.1966
 10
-94.8752
 20
-14.9425
 10
-94.7517
 20
-14.7
 10
-94.6034
 20
-14.4718
 10
-94.4322
 20
-14.2603
 10
-94.2397
 20
-14.0678
 10
-94.0282
 20
-13.8966
 10
-93.8
 20
-13.7483
 10
-93.5575
 20
-13.6248
 10
-93.3034
 20
-13.5273
 10
-93.0406
 20
-13.4568
 10
-92.7718
 20
-13.4142
 10
-92.5
 20
-13.4
 10
-92.2282
 20
-13.4142
 10
-91.9594
 20
-13.4568
 10
-91.6966
 20
-13.5273
 10
-91.4425
 20
-13.6248
 10
-91.2
 20
-13.7483
 10
-90.9718
 20
-13.8966
 10
-90.7603
 20
-14.0678
 10
-90.5678
 20
-14.2603
 10
-90.3966
 20
-14.4718
 10
-90.2483
 20
-14.7
 10
-90.1248
 20
-14.9425
 10
-90.0273
 20
-15.1966
 10
-89.9568
 20
-15.4594
 10
-89.9142
 20
-15.7282
 10
-89.9
 20
-16
 10
-89.9142
 20
-16.2718
 10
-89.9568
 20
-16.5406
 10
-90.0273
 20
-16.8034
 10
-90.1248
 20
-17.0575
 10
-90.2483
 20
-17.3
 10
-90.3966
 20
-17.5282
 10
-90.5678
 20
-17.7397
 10
-90.7603
 20
-17.9322
 10
-90.9718
 20
-18.1034
 10
-91.2
 20
-18.2517
 10
-91.4425
 20
-18.3752
 10
-91.6966
 20
-18.4727
 10
-91.9594
 20
-18.5432
 10
-92.2282
 20
-18.5858
 10
-92.5
 20
-18.6
  0
LWPOLYLINE
100
AcDbEntity
  8
0
100
AcDbPolyline
 90
60
 70
1
 10
-57.7718
 20
-18.5858
 10
-58.0406
 20
-18.5432
 10
-58.3034
 20
-18.4727
 10
-58.5575
 20
-18.3752
 10
-58.8
 20
-18.2517
 10
-59.0282
 20
-18.1034
 10
-59.2397
 20
-17.9322
 10
-59.4322
 20
-17.7397
 10
-59.6034
 20
-17.5282
 10
-59.7517
 20
-17.3
 10
-59.8752
 20
-17.0575
 10
-59.9727
 20
-16.8034
 10
-60.0432
 20
-16.5406
 10
-60.0858
 20
-16.2718
 10
-60.1
 20
-16
 10
-60.0858
 20
-15.7282
 10
-60.0432
 20
-15.4594
 10
-59.9727
 20
-15.1966
 10
-59.8752
 20
-14.9425
 10
-59.7517
 20
-14.7
 10
-59.6034
 20
-14.4718
 10
-59.4322
 20
-14.2603
 10
-59.2397
 20
-14.0678
 10
-59.0282
 20
-13.8966
 10
-58.8
 20
-13.7483
 10
-58.5575
 20
-13.6248
 10
-58.3034
 20
-13.5273
 10
-58.0406
 20
-13.4568
 10
-57.7718
 20
-13.4142
 10
-57.5
 20
-13.4
 10
-57.2282
 20
-13.4142
 10
-56.9594
 20
-13.4568
 10
-56.6966
 20
-13.5273
 10
-56.4425
 20
-13.6248
 10
-56.2
 20
-13.7483
 10
-55.9718
 20
-13.8966
 10
-55.7603
 20
-14.0678
 10
-55.5678
 20
-14.2603
 10
-55.3966
 20
-14.4718
 10
-55.2483
 20
-14.7
 10
-55.1248
 20
-14.9425
 10
-55.0273
 20
-15.1966
 10
-54.9568
 20
-15.4594
 10
-54.9142
 20
-15.7282
 10
-54.9
 20
-16
 10
-54.9142
 20
-16.2718
 10
-54.9568
 20
-16.5406
 10
-55.0273
 20
-16.8034
 10
-55.1248
 20
-17.0575
 10
-55.2483
 20
-17.3
 10
-55.3966
 20
-17.5282
 10
-55.5678
 20
-17.7397
 10
-55.7603
 20
-17.9322
 10
-55.9718
 20
-18.1034
 10
-56.2
 20
-18.2517
 10
-56.4425
 20
-18.3752
 10
-56.6966
 20
-18.4727
 10
-56.9594
 20
-18.5432
 10
-57.2282
 20
-18.5858
 10
-57.5
 20
-18.6
  0
LWPOLYLINE
100
AcDbEntity
  8
0
100
AcDbPolyline
 90
60
 70
1
 10
-12.2718
 20
-42.5858
 10
-12.5406
 20
-42.5432
 10
-12.8034
 20
-42.4727
 10
-13.0575
 20
-42.3752
 10
-13.3
 20
-42.2517
 10
-13.5282
 20
-42.1034
 10
-13.7397
 20
-41.9322
 10
-13.9322
 20
-41.7397
 10
-14.1034
 20
-41.5282
 10
-14.2517
 20
-41.3
 10
-14.3752
 20
-41.0575
 10
-14.4727
 20
-40.8034
 10
-14.5432
 20
-40.5406
 10
-14.5858
 20
-40.2718
 10
-14.6
 20
-40
 10
-14.5858
 20
-39.7282
 10
-14.5432
 20
-39.4594
 10
-14.4727
 20
-39.1966
 10
-14.3752
 20
-38.9425
 10
-14.2517
 20
-38.7
 10
-14.1034
 20
-38.4718
 10
-13.9322
 20
-38.2603
 10
-13.7397
 20
-38.0678
 10
-13.5282
 20
-37.8966
 10
-13.3
 20
-37.7483
 10
-13.0575
 20
-37.6248
 10
-12.8034
 20
-37.5273
 10
-12.5406
 20
-37.4568
 10
-12.2718
 20
-37.4142
 10
-12
 20
-37.4
 10
-11.7282
 20
-37.4142
 10
-11.4594
 20
-37.4568
 10
-11.1966
 20
-37.5273
 10
-10.9425
 20
-37.6248
 10
-10.7
 20
-37.7483
 10
-10.4718
 20
-37.8966
 10
-10.2603
 20
-38.0678
 10
-10.0678
 20
-38.2603
 10
-9.89656
 20
-38.4718
 10
-9.74833
 20
-38.7
 10
-9.62478
 20
-38.9425
 10
-9.52725
 20
-39.1966
 10
-9.45682
 20
-39.4594
 10
-9.41424
 20
-39.7282
 10
-9.4
 20
-40
 10
-9.41424
 20
-40.2718
 10
-9.45682
 20
-40.5406
 10
-9.52725
 20
-40.8034
 10
-9.62478
 20
-41.0575
 10
-9.74833
 20
-41.3
 10
-9.89656
 20
-41.5282
 10
-10.0678
 20
-41.7397
 10
-10.2603
 20
-41.9322
 10
-10.4718
 20
-42.1034
 10
-10.7
 20
-42.2517
 10
-10.9425
 20
-42.3752
 10
-11.1966
 20
-42.4727
 10
-11.4594
 20
-42.5432
 10
-11.7282
 20
-42.5858
 10
-12
 20
-42.6
  0
LWPOLYLINE
100
AcDbEntity
  8
0
100
AcDbPolyline
 90
60
 70
1
 10
11.7282
 20
-42.5858
 10
11.4594
 20
-42.5432
 10
11.1966
 20
-42.4727
 10
10.9425
 20
-42.3752
 10
10.7
 20
-42.2517
 10
10.4718
 20
-42.1034
 10
10.2603
 20
-41.9322
 10
10.0678
 20
-41.7397
 10
9.89656
 20
-41.5282
 10
9.74833
 20
-41.3
 10
9.62478
 20
-41.0575
 10
9.52725
 20
-40.8034
 10
9.45682
 20
-40.5406
 10
9.41424
 20
-40.2718
 10
9.4
 20
-40
 10
9.41424
 20
-39.7282
 10
9.45682
 20
-39.4594
 10
9.52725
 20
-39.1966
 10
9.62478
 20
-38.9425
 10
9.74833
 20
-38.7
 10
9.89656
 20
-38.4718
 10
10.0678
 20
-38.2603
 10
10.2603
 20
-38.0678
 10
10.4718
 20
-37.8966
 10
10.7
 20
-37.7483
 10
10.9425
 20
-37.6248
 10
11.1966
 20
-37.5273
 10
11.4594
 20
-37.4568
 10
11.7282
 20
-37.4142
 10
12
 20
-37.4
 10
12.2718
 20
-37.4142
 10
12.5406
 20
-37.4568
 10
12.8034
 20
-37.5273
 10
13.0575
 20
-37.6248
 10
13.3
 20
-37.7483
 10
13.5282
 20
-37.8966
 10
13.7397
 20
-38.0678
 10
13.9322
 20
-38.2603
 10
14.1034
 20
-38.4718
 10
14.2517
 20
-38.7
 10
14.3752
 20
-38.9425
 10
14.4727
 20
-39.1966
 10
14.5432
 20
-39.4594
 10
14.5858
 20
-39.7282
 10
14.6
 20
-40
 10
14.5858
 20
-40.2718
 10
14.5432
 20
-40.5406
 10
14.4727
 20
-40.8034
 10
14.3752
 20
-41.0575
 10
14.2517
 20
-41.3
 10
14.1034
 20
-41.5282
 10
13.9322
 20
-41.7397
 10
13.7397
 20
-41.9322
 10
13.5282
 20
-42.1034
 10
13.3
 20
-42.2517
 10
13.0575
 20
-42.3752
 10
12.8034
 20
-42.4727
 10
12.5406
 20
-42.5432
 10
12.2718
 20
-42.5858
 10
12
 20
-42.6
  0
LWPOLYLINE
100
AcDbEntity
  8
0
100
AcDbPolyline
 90
60
 70
1
 10
-12.2718
 20
-82.5858
 10
-12.5406
 20
-82.5432
 10
-12.8034
 20
-82.4727
 10
-13.0575
 20
-82.3752
 10
-13.3
 20
-82.2517
 10
-13.5282
 20
-82.1034
 10
-13.7397
 20
-81.9322
 10
-13.9322
 20
-81.7397
 10
-14.1034
 20
-81.5282
 10
-14.2517
 20
-81.3
 10
-14.3752
 20
-81.0575
 10
-14.4727
 20
-80.8034
 10
-14.5432
 20
-80.5406
 10
-14.5858
 20
-80.2718
 10
-14.6
 20
-80
 10
-14.5858
 20
-79.7282
 10
-14.5432
 20
-79.4594
 10
-14.4727
 20
-79.1966
 10
-14.3752
 20
-78.9425
 10
-14.2517
 20
-78.7
 10
-14.1034
 20
-78.4718
 10
-13.9322
 20
-78.2603
 10
-13.7397
 20
-78.0678
 10
-13.5282
 20
-77.8966
 10
-13.3
 20
-77.7483
 10
-13.0575
 20
-77.6248
 10
-12.8034
 20
-77.5273
 10
-12.5406
 20
-77.4568
 10
-12.2718
 20
-77.4142
 10
-12
 20
-77.4
 10
-11.7282
 20
-77.4142
 10
-11.4594
 20
-77.4568
 10
-11.1966
 20
-77.5273
 10
-10.9425
 20
-77.6248
 10
-10.7
 20
-77.7483
 10
-10.4718
 20
-77.8966
 10
-10.2603
 20
-78.0678
 10
-10.0678
 20
-78.2603
 10
-9.89656
 20
-78.4718
 10
-9.74833
 20
-78.7
 10
-9.62478
 20
-78.9425
 10
-9.52725
 20
-79.1966
 10
-9.45682
 20
-79.4594
 10
-9.41424
 20
-79.7282
 10
-9.4
 20
-80
 10
-9.41424
 20
-80.2718
 10
-9.45682
 20
-80.5406
 10
-9.52725
 20
-80.8034
 10
-9.62478
 20
-81.0575
 10
-9.74833
 20
-81.3
 10
-9.89656
 20
-81.5282
 10
-10.0678
 20
-81.7397
 10
-10.2603
 20
-81.9322
 10
-10.4718
 20
-82.1034
 10
-10.7
 20
-82.2517
 10
-10.9425
 20
-82.3752
 10
-11.1966
 20
-82.4727
 10
-11.4594
 20
-82.5432
 10
-11.7282
 20
-82.5858
 10
-12
 20
-82.6
  0
LWPOLYLINE
100
AcDbEntity
  8
0
100
AcDbPolyline
 90
60
 70
1
 10
11.7282
 20
-82.5858
 10
11.4594
 20
-82.5432
 10
11.1966
 20
-82.4727
 10
10.9425
 20
-82.3752
 10
10.7
 20
-82.2517
 10
10.4718
 20
-82.1034
 10
10.2603
 20
-81.9322
 10
10.0678
 20
-81.7397
 10
9.89656
 20
-81.5282
 10
9.74833
 20
-81.3
 10
9.62478
 20
-81.0575
 10
9.52725
 20
-80.8034
 10
9.45682
 20
-80.5406
 10
9.41424
 20
-80.2718
 10
9.4
 20
-80
 10
9.41424
 20
-79.7282
 10
9.45682
 20
-79.4594
 10
9.52725
 20
-79.1966
 10
9.62478
 20
-78.9425
 10
9.74833
 20
-78.7
 10
9.89656
 20
-78.4718
 10
10.0678
 20
-78.2603
 10
10.2603
 20
-78.0678
 10
10.4718
 20
-77.8966
 10
10.7
 20
-77.7483
 10
10.9425
 20
-77.6248
 10
11.1966
 20
-77.5273
 10
11.4594
 20
-77.4568
 10
11.7282
 20
-77.4142
 10
12
 20
-77.4
 10
12.2718
 20
-77.4142
 10
12.5406
 20
-77.4568
 10
12.8034
 20
-77.5273
 10
13.0575
 20
-77.6248
 10
13.3
 20
-77.7483
 10
13.5282
 20
-77.8966
 10
13.7397
 20
-78.0678
 10
13.9322
 20
-78.2603
 10
14.1034
 20
-78.4718
 10
14.2517
 20
-78.7
 10
14.3752
 20
-78.9425
 10
14.4727
 20
-79.1966
 10
14.5432
 20
-79.4594
 10
14.5858
 20
-79.7282
 10
14.6
 20
-80
 10
14.5858
 20
-80.2718
 10
14.5432
 20
-80.5406
 10
14.4727
 20
-80.8034
 10
14.3752
 20
-81.0575
 10
14.2517
 20
-81.3
 10
14.1034
 20
-81.5282
 10
13.9322
 20
-81.7397
 10
13.7397
 20
-81.9322
 10
13.5282
 20
-82.1034
 10
13.3
 20
-82.2517
 10
13.0575
 20
-82.3752
 10
12.8034
 20
-82.4727
 10
12.5406
 20
-82.5432
 10
12.2718
 20
-82.5858
 10
12
 20
-82.6
  0
ENDSEC
  0
EOF
