999
DXF from OpenSCAD
  0
SECTION
  2
HEADER
  9
$ACADVER
  1
AC1006
  9
$INSBASE
 10
0.0
 20
0.0
 30
0.0
  9
$EXTMIN
 10
-70
 20
-80
  9
$EXTMAX
 10
100
 20
80
  9
$LINMIN
 10
-70
 20
-80
  9
$LINMAX
 10
100
 20
80
  0
ENDSEC
  0
SECTION
  2
TABLES
  0
TABLE
  2
LTYPE
 70
1
  0
LTYPE
  2
CONTINUOUS
 70
64
  3
Solid line
 72
65
 73
0
 40
0.000000
  0
ENDTAB
  0
TABLE
  2
LAYER
 70
6
  0
LAYER
  2
0
 70
64
 62
7
  6
CONTINUOUS
  0
ENDTAB
  0
TABLE
  2
STYLE
 70
0
  0
ENDTAB
  0
ENDSEC
  0
SECTION
  2
BLOCKS
  0
ENDSEC
  0
SECTION
  2
ENTITIES
  0
LWPOLYLINE
100
AcDbEntity
  8
0
100
AcDbPolyline
 90
34
 70
1
 10
97.3136
 20
-79.9836
 10
97.6237
 20
-79.9344
 10
97.9271
 20
-79.8532
 10
98.2202
 20
-79.7406
 10
98.5
 20
-79.5981
 10
98.7634
 20
-79.4271
 10
99.0074
 20
-79.2294
 10
99.2294
 20
-79.0074
 10
99.4271
 20
-78.7634
 10
99.5981
 20
-78.5
 10
99.7406
 20
-78.2202
 10
99.8532
 20
-77.9271
 10
99.9344
 20
-77.6237
 10
99.9836
 20
-77.3136
 10
100
 20
-77
 10
100
 20
77
 10
99.9836
 20
77.3136
 10
99.9344
 20
77.6237
 10
99.8532
 20
77.9271
 10
99.7406
 20
78.2202
 10
99.5981
 20
78.5
 10
99.4271
 20
78.7634
 10
99.2294
 20
79.0074
 10
99.0074
 20
79.2294
 10
98.7634
 20
79.4271
 10
98.5
 20
79.5981
 10
98.2202
 20
79.7406
 10
97.9271
 20
79.8532
 10
97.6237
 20
79.9344
 10
97.3136
 20
79.9836
 10
97
 20
80
 10
-70
 20
80
 10
-70
 20
-80
 10
97
 20
-80
  0
LWPOLYLINE
100
AcDbEntity
  8
0
100
AcDbPolyline
 90
60
 70
1
 10
79.6707
 20
56.8673
 10
79.3451
 20
56.9188
 10
79.0266
 20
57.0042
 10
78.7188
 20
57.1223
 10
78.425
 20
57.272
 10
78.1485
 20
57.4516
 10
77.8922
 20
57.6591
 10
77.6591
 20
57.8922
 10
77.4516
 20
58.1485
 10
77.272
 20
58.425
 10
77.1223
 20
58.7188
 10
77.0042
 20
59.0266
 10
76.9188
 20
59.3451
 10
76.8673
 20
59.6707
 10
76.85
 20
60
 10
76.8673
 20
60.3293
 10
76.9188
 20
60.6549
 10
77.0042
 20
60.9734
 10
77.1223
 20
61.2812
 10
77.272
 20
61.575
 10
77.4516
 20
61.8515
 10
77.6591
 20
62.1078
 10
77.8922
 20
62.3409
 10
78.1485
 20
62.5484
 10
78.425
 20
62.728
 10
78.7188
 20
62.8777
 10
79.0266
 20
62.9958
 10
79.3451
 20
63.0812
 10
79.6707
 20
63.1327
 10
80
 20
63.15
 10
80.3293
 20
63.1327
 10
80.6549
 20
63.0812
 10
80.9734
 20
62.9958
 10
81.2812
 20
62.8777
 10
81.575
 20
62.728
 10
81.8515
 20
62.5484
 10
82.1078
 20
62.3409
 10
82.3409
 20
62.1078
 10
82.5484
 20
61.8515
 10
82.728
 20
61.575
 10
82.8777
 20
61.2812
 10
82.9958
 20
60.9734
 10
83.0812
 20
60.6549
 10
83.1327
 20
60.3293
 10
83.15
 20
60
 10
83.1327
 20
59.6707
 10
83.0812
 20
59.3451
 10
82.9958
 20
59.0266
 10
82.8777
 20
58.7188
 10
82.728
 20
58.425
 10
82.5484
 20
58.1485
 10
82.3409
 20
57.8922
 10
82.1078
 20
57.6591
 10
81.8515
 20
57.4516
 10
81.575
 20
57.272
 10
81.2812
 20
57.1223
 10
80.9734
 20
57.0042
 10
80.6549
 20
56.9188
 10
80.3293
 20
56.8673
 10
80
 20
56.85
  0
LWPOLYLINE
100
AcDbEntity
  8
0
100
AcDbPolyline
 90
60
 70
1
 10
31.4857
 20
28.6823
 10
31.1601
 20
28.7338
 10
30.8416
 20
28.8192
 10
30.5338
 20
28.9373
 10
30.24
 20
29.087
 10
29.9635
 20
29.2666
 10
29.7072
 20
29.4741
 10
29.4741
 20
29.7072
 10
29.2666
 20
29.9635
 10
29.087
 20
30.24
 10
28.9373
 20
30.5338
 10
28.8192
 20
30.8416
 10
28.7338
 20
31.1601
 10
28.6823
 20
31.4857
 10
28.665
 20
31.815
 10
28.6823
 20
32.1443
 10
28.7338
 20
32.4699
 10
28.8192
 20
32.7884
 10
28.9373
 20
33.0962
 10
29.087
 20
33.39
 10
29.2666
 20
33.6665
 10
29.4741
 20
33.9228
 10
29.7072
 20
34.1559
 10
29.9635
 20
34.3634
 10
30.24
 20
34.543
 10
30.5338
 20
34.6927
 10
30.8416
 20
34.8108
 10
31.1601
 20
34.8962
 10
31.4857
 20
34.9477
 10
31.815
 20
34.965
 10
32.1443
 20
34.9477
 10
32.4699
 20
34.8962
 10
32.7884
 20
34.8108
 10
33.0962
 20
34.6927
 10
33.39
 20
34.543
 10
33.6665
 20
34.3634
 10
33.9228
 20
34.1559
 10
34.1559
 20
33.9228
 10
34.3634
 20
33.6665
 10
34.543
 20
33.39
 10
34.6927
 20
33.0962
 10
34.8108
 20
32.7884
 10
34.8962
 20
32.4699
 10
34.9477
 20
32.1443
 10
34.965
 20
31.815
 10
34.9477
 20
31.4857
 10
34.8962
 20
31.1601
 10
34.8108
 20
30.8416
 10
34.6927
 20
30.5338
 10
34.543
 20
30.24
 10
34.3634
 20
29.9635
 10
34.1559
 20
29.7072
 10
33.9228
 20
29.4741
 10
33.6665
 20
29.2666
 10
33.39
 20
29.087
 10
33.0962
 20
28.9373
 10
32.7884
 20
28.8192
 10
32.4699
 20
28.7338
 10
32.1443
 20
28.6823
 10
31.815
 20
28.665
  0
LWPOLYLINE
100
AcDbEntity
  8
0
100
AcDbPolyline
 90
60
 70
1
 10
-32.1443
 20
28.6823
 10
-32.4699
 20
28.7338
 10
-32.7884
 20
28.8192
 10
-33.0962
 20
28.9373
 10
-33.39
 20
29.087
 10
-33.6665
 20
29.2666
 10
-33.9228
 20
29.4741
 10
-34.1559
 20
29.7072
 10
-34.3634
 20
29.9635
 10
-34.543
 20
30.24
 10
-34.6927
 20
30.5338
 10
-34.8108
 20
30.8416
 10
-34.8962
 20
31.1601
 10
-34.9477
 20
31.4857
 10
-34.965
 20
31.815
 10
-34.9477
 20
32.1443
 10
-34.8962
 20
32.4699
 10
-34.8108
 20
32.7884
 10
-34.6927
 20
33.0962
 10
-34.543
 20
33.39
 10
-34.3634
 20
33.6665
 10
-34.1559
 20
33.9228
 10
-33.9228
 20
34.1559
 10
-33.6665
 20
34.3634
 10
-33.39
 20
34.543
 10
-33.0962
 20
34.6927
 10
-32.7884
 20
34.8108
 10
-32.4699
 20
34.8962
 10
-32.1443
 20
34.9477
 10
-31.815
 20
34.965
 10
-31.4857
 20
34.9477
 10
-31.1601
 20
34.8962
 10
-30.8416
 20
34.8108
 10
-30.5338
 20
34.6927
 10
-30.24
 20
34.543
 10
-29.9635
 20
34.3634
 10
-29.7072
 20
34.1559
 10
-29.4741
 20
33.9228
 10
-29.2666
 20
33.6665
 10
-29.087
 20
33.39
 10
-28.9373
 20
33.0962
 10
-28.8192
 20
32.7884
 10
-28.7338
 20
32.4699
 10
-28.6823
 20
32.1443
 10
-28.665
 20
31.815
 10
-28.6823
 20
31.4857
 10
-28.7338
 20
31.1601
 10
-28.8192
 20
30.8416
 10
-28.9373
 20
30.5338
 10
-29.087
 20
30.24
 10
-29.2666
 20
29.9635
 10
-29.4741
 20
29.7072
 10
-29.7072
 20
29.4741
 10
-29.9635
 20
29.2666
 10
-30.24
 20
29.087
 10
-30.5338
 20
28.9373
 10
-30.8416
 20
28.8192
 10
-31.1601
 20
28.7338
 10
-31.4857
 20
28.6823
 10
-31.815
 20
28.665
  0
LWPOLYLINE
100
AcDbEntity
  8
0
100
AcDbPolyline
 90
60
 70
1
 10
79.5662
 20
25.8727
 10
79.1372
 20
25.9407
 10
78.7176
 20
26.0531
 10
78.312
 20
26.2088
 10
77.925
 20
26.406
 10
77.5607
 20
26.6426
 10
77.2231
 20
26.9159
 10
76.9159
 20
27.2231
 10
76.6426
 20
27.5607
 10
76.406
 20
27.925
 10
76.2088
 20
28.312
 10
76.0531
 20
28.7176
 10
75.9407
 20
29.1372
 10
75.8727
 20
29.5662
 10
75.85
 20
30
 10
75.8727
 20
30.4338
 10
75.9407
 20
30.8628
 10
76.0531
 20
31.2824
 10
76.2088
 20
31.688
 10
76.406
 20
32.075
 10
76.6426
 20
32.4393
 10
76.9159
 20
32.7769
 10
77.2231
 20
33.0841
 10
77.5607
 20
33.3574
 10
77.925
 20
33.594
 10
78.312
 20
33.7912
 10
78.7176
 20
33.9469
 10
79.1372
 20
34.0593
 10
79.5662
 20
34.1273
 10
80
 20
34.15
 10
80.4338
 20
34.1273
 10
80.8628
 20
34.0593
 10
81.2824
 20
33.9469
 10
81.688
 20
33.7912
 10
82.075
 20
33.594
 10
82.4393
 20
33.3574
 10
82.7769
 20
33.0841
 10
83.0841
 20
32.7769
 10
83.3574
 20
32.4393
 10
83.594
 20
32.075
 10
83.7912
 20
31.688
 10
83.9469
 20
31.2824
 10
84.0593
 20
30.8628
 10
84.1273
 20
30.4338
 10
84.15
 20
30
 10
84.1273
 20
29.5662
 10
84.0593
 20
29.1372
 10
83.9469
 20
28.7176
 10
83.7912
 20
28.312
 10
83.594
 20
27.925
 10
83.3574
 20
27.5607
 10
83.0841
 20
27.2231
 10
82.7769
 20
26.9159
 10
82.4393
 20
26.6426
 10
82.075
 20
26.406
 10
81.688
 20
26.2088
 10
81.2824
 20
26.0531
 10
80.8628
 20
25.9407
 10
80.4338
 20
25.8727
 10
80
 20
25.85
  0
LWPOLYLINE
100
AcDbEntity
  8
0
100
AcDbPolyline
 90
60
 70
1
 10
79.5662
 20
-4.12727
 10
79.1372
 20
-4.05931
 10
78.7176
 20
-3.94688
 10
78.312
 20
-3.79121
 10
77.925
 20
-3.59401
 10
77.5607
 20
-3.35742
 10
77.2231
 20
-3.08405
 10
76.9159
 20
-2.77689
 10
76.6426
 20
-2.43931
 10
76.406
 20
-2.075
 10
76.2088
 20
-1.68796
 10
76.0531
 20
-1.28242
 10
75.9407
 20
-0.862834
 10
75.8727
 20
-0.433793
 10
75.85
 20
0
 10
75.8727
 20
0.433793
 10
75.9407
 20
0.862834
 10
76.0531
 20
1.28242
 10
76.2088
 20
1.68796
 10
76.406
 20
2.075
 10
76.6426
 20
2.43931
 10
76.9159
 20
2.77689
 10
77.2231
 20
3.08405
 10
77.5607
 20
3.35742
 10
77.925
 20
3.59401
 10
78.312
 20
3.79121
 10
78.7176
 20
3.94688
 10
79.1372
 20
4.05931
 10
79.5662
 20
4.12727
 10
80
 20
4.15
 10
80.4338
 20
4.12727
 10
80.8628
 20
4.05931
 10
81.2824
 20
3.94688
 10
81.688
 20
3.79121
 10
82.075
 20
3.59401
 10
82.4393
 20
3.35742
 10
82.7769
 20
3.08405
 10
83.0841
 20
2.77689
 10
83.3574
 20
2.43931
 10
83.594
 20
2.075
 10
83.7912
 20
1.68796
 10
83.9469
 20
1.28242
 10
84.0593
 20
0.862834
 10
84.1273
 20
0.433793
 10
84.15
 20
0
 10
84.1273
 20
-0.433793
 10
84.0593
 20
-0.862834
 10
83.9469
 20
-1.28242
 10
83.7912
 20
-1.68796
 10
83.594
 20
-2.075
 10
83.3574
 20
-2.43931
 10
83.0841
 20
-2.77689
 10
82.7769
 20
-3.08405
 10
82.4393
 20
-3.35742
 10
82.075
 20
-3.59401
 10
81.688
 20
-3.79121
 10
81.2824
 20
-3.94688
 10
80.8628
 20
-4.05931
 10
80.4338
 20
-4.12727
 10
80
 20
-4.15
  0
LWPOLYLINE
100
AcDbEntity
  8
0
100
AcDbPolyline
 90
60
 70
1
 10
-0.313585
 20
-2.98357
 10
-0.623735
 20
-2.93444
 10
-0.927051
 20
-2.85317
 10
-1.22021
 20
-2.74064
 10
-1.5
 20
-2.59808
 10
-1.76336
 20
-2.42705
 10
-2.00739
 20
-2.22943
 10
-2.22943
 20
-2.00739
 10
-2.42705
 20
-1.76336
 10
-2.59808
 20
-1.5
 10
-2.74064
 20
-1.22021
 10
-2.85317
 20
-0.927051
 10
-2.93444
 20
-0.623735
 10
-2.98357
 20
-0.313585
 10
-3
 20
0
 10
-2.98357
 20
0.313585
 10
-2.93444
 20
0.623735
 10
-2.85317
 20
0.927051
 10
-2.74064
 20
1.22021
 10
-2.59808
 20
1.5
 10
-2.42705
 20
1.76336
 10
-2.22943
 20
2.00739
 10
-2.00739
 20
2.22943
 10
-1.76336
 20
2.42705
 10
-1.5
 20
2.59808
 10
-1.22021
 20
2.74064
 10
-0.927051
 20
2.85317
 10
-0.623735
 20
2.93444
 10
-0.313585
 20
2.98357
 10
0
 20
3
 10
0.313585
 20
2.98357
 10
0.623735
 20
2.93444
 10
0.927051
 20
2.85317
 10
1.22021
 20
2.74064
 10
1.5
 20
2.59808
 10
1.76336
 20
2.42705
 10
2.00739
 20
2.22943
 10
2.22943
 20
2.00739
 10
2.42705
 20
1.76336
 10
2.59808
 20
1.5
 10
2.74064
 20
1.22021
 10
2.85317
 20
0.927051
 10
2.93444
 20
0.623735
 10
2.98357
 20
0.313585
 10
3
 20
0
 10
2.98357
 20
-0.313585
 10
2.93444
 20
-0.623735
 10
2.85317
 20
-0.927051
 10
2.74064
 20
-1.22021
 10
2.59808
 20
-1.5
 10
2.42705
 20
-1.76336
 10
2.22943
 20
-2.00739
 10
2.00739
 20
-2.22943
 10
1.76336
 20
-2.42705
 10
1.5
 20
-2.59808
 10
1.22021
 20
-2.74064
 10
0.927051
 20
-2.85317
 10
0.623735
 20
-2.93444
 10
0.313585
 20
-2.98357
 10
0
 20
-3
  0
LWPOLYLINE
100
AcDbEntity
  8
0
100
AcDbPolyline
 90
60
 70
1
 10
79.5662
 20
-34.1273
 10
79.1372
 20
-34.0593
 10
78.7176
 20
-33.9469
 10
78.312
 20
-33.7912
 10
77.925
 20
-33.594
 10
77.5607
 20
-33.3574
 10
77.2231
 20
-33.0841
 10
76.9159
 20
-32.7769
 10
76.6426
 20
-32.4393
 10
76.406
 20
-32.075
 10
76.2088
 20
-31.688
 10
76.0531
 20
-31.2824
 10
75.9407
 20
-30.8628
 10
75.8727
 20
-30.4338
 10
75.85
 20
-30
 10
75.8727
 20
-29.5662
 10
75.9407
 20
-29.1372
 10
76.0531
 20
-28.7176
 10
76.2088
 20
-28.312
 10
76.406
 20
-27.925
 10
76.6426
 20
-27.5607
 10
76.9159
 20
-27.2231
 10
77.2231
 20
-26.9159
 10
77.5607
 20
-26.6426
 10
77.925
 20
-26.406
 10
78.312
 20
-26.2088
 10
78.7176
 20
-26.0531
 10
79.1372
 20
-25.9407
 10
79.5662
 20
-25.8727
 10
80
 20
-25.85
 10
80.4338
 20
-25.8727
 10
80.8628
 20
-25.9407
 10
81.2824
 20
-26.0531
 10
81.688
 20
-26.2088
 10
82.075
 20
-26.406
 10
82.4393
 20
-26.6426
 10
82.7769
 20
-26.9159
 10
83.0841
 20
-27.2231
 10
83.3574
 20
-27.5607
 10
83.594
 20
-27.925
 10
83.7912
 20
-28.312
 10
83.9469
 20
-28.7176
 10
84.0593
 20
-29.1372
 10
84.1273
 20
-29.5662
 10
84.15
 20
-30
 10
84.1273
 20
-30.4338
 10
84.0593
 20
-30.8628
 10
83.9469
 20
-31.2824
 10
83.7912
 20
-31.688
 10
83.594
 20
-32.075
 10
83.3574
 20
-32.4393
 10
83.0841
 20
-32.7769
 10
82.7769
 20
-33.0841
 10
82.4393
 20
-33.3574
 10
82.075
 20
-33.594
 10
81.688
 20
-33.7912
 10
81.2824
 20
-33.9469
 10
80.8628
 20
-34.0593
 10
80.4338
 20
-34.1273
 10
80
 20
-34.15
  0
LWPOLYLINE
100
AcDbEntity
  8
0
100
AcDbPolyline
 90
60
 70
1
 10
31.4857
 20
-34.9477
 10
31.1601
 20
-34.8962
 10
30.8416
 20
-34.8108
 10
30.5338
 20
-34.6927
 10
30.24
 20
-34.543
 10
29.9635
 20
-34.3634
 10
29.7072
 20
-34.1559
 10
29.4741
 20
-33.9228
 10
29.2666
 20
-33.6665
 10
29.087
 20
-33.39
 10
28.9373
 20
-33.0962
 10
28.8192
 20
-32.7884
 10
28.7338
 20
-32.4699
 10
28.6823
 20
-32.1443
 10
28.665
 20
-31.815
 10
28.6823
 20
-31.4857
 10
28.7338
 20
-31.1601
 10
28.8192
 20
-30.8416
 10
28.9373
 20
-30.5338
 10
29.087
 20
-30.24
 10
29.2666
 20
-29.9635
 10
29.4741
 20
-29.7072
 10
29.7072
 20
-29.4741
 10
29.9635
 20
-29.2666
 10
30.24
 20
-29.087
 10
30.5338
 20
-28.9373
 10
30.8416
 20
-28.8192
 10
31.1601
 20
-28.7338
 10
31.4857
 20
-28.6823
 10
31.815
 20
-28.665
 10
32.1443
 20
-28.6823
 10
32.4699
 20
-28.7338
 10
32.7884
 20
-28.8192
 10
33.0962
 20
-28.9373
 10
33.39
 20
-29.087
 10
33.6665
 20
-29.2666
 10
33.9228
 20
-29.4741
 10
34.1559
 20
-29.7072
 10
34.3634
 20
-29.9635
 10
34.543
 20
-30.24
 10
34.6927
 20
-30.5338
 10
34.8108
 20
-30.8416
 10
34.8962
 20
-31.1601
 10
34.9477
 20
-31.4857
 10
34.965
 20
-31.815
 10
34.9477
 20
-32.1443
 10
34.8962
 20
-32.4699
 10
34.8108
 20
-32.7884
 10
34.6927
 20
-33.0962
 10
34.543
 20
-33.39
 10
34.3634
 20
-33.6665
 10
34.1559
 20
-33.9228
 10
33.9228
 20
-34.1559
 10
33.6665
 20
-34.3634
 10
33.39
 20
-34.543
 10
33.0962
 20
-34.6927
 10
32.7884
 20
-34.8108
 10
32.4699
 20
-34.8962
 10
32.1443
 20
-34.9477
 10
31.815
 20
-34.965
  0
LWPOLYLINE
100
AcDbEntity
  8
0
100
AcDbPolyline
 90
60
 70
1
 10
-32.1443
 20
-34.9477
 10
-32.4699
 20
-34.8962
 10
-32.7884
 20
-34.8108
 10
-33.0962
 20
-34.6927
 10
-33.39
 20
-34.543
 10
-33.6665
 20
-34.3634
 10
-33.9228
 20
-34.1559
 10
-34.1559
 20
-33.9228
 10
-34.3634
 20
-33.6665
 10
-34.543
 20
-33.39
 10
-34.6927
 20
-33.0962
 10
-34.8108
 20
-32.7884
 10
-34.8962
 20
-32.4699
 10
-34.9477
 20
-32.1443
 10
-34.965
 20
-31.815
 10
-34.9477
 20
-31.4857
 10
-34.8962
 20
-31.1601
 10
-34.8108
 20
-30.8416
 10
-34.6927
 20
-30.5338
 10
-34.543
 20
-30.24
 10
-34.3634
 20
-29.9635
 10
-34.1559
 20
-29.7072
 10
-33.9228
 20
-29.4741
 10
-33.6665
 20
-29.2666
 10
-33.39
 20
-29.087
 10
-33.0962
 20
-28.9373
 10
-32.7884
 20
-28.8192
 10
-32.4699
 20
-28.7338
 10
-32.1443
 20
-28.6823
 10
-31.815
 20
-28.665
 10
-31.4857
 20
-28.6823
 10
-31.1601
 20
-28.7338
 10
-30.8416
 20
-28.8192
 10
-30.5338
 20
-28.9373
 10
-30.24
 20
-29.087
 10
-29.9635
 20
-29.2666
 10
-29.7072
 20
-29.4741
 10
-29.4741
 20
-29.7072
 10
-29.2666
 20
-29.9635
 10
-29.087
 20
-30.24
 10
-28.9373
 20
-30.5338
 10
-28.8192
 20
-30.8416
 10
-28.7338
 20
-31.1601
 10
-28.6823
 20
-31.4857
 10
-28.665
 20
-31.815
 10
-28.6823
 20
-32.1443
 10
-28.7338
 20
-32.4699
 10
-28.8192
 20
-32.7884
 10
-28.9373
 20
-33.0962
 10
-29.087
 20
-33.39
 10
-29.2666
 20
-33.6665
 10
-29.4741
 20
-33.9228
 10
-29.7072
 20
-34.1559
 10
-29.9635
 20
-34.3634
 10
-30.24
 20
-34.543
 10
-30.5338
 20
-34.6927
 10
-30.8416
 20
-34.8108
 10
-31.1601
 20
-34.8962
 10
-31.4857
 20
-34.9477
 10
-31.815
 20
-34.965
  0
LWPOLYLINE
100
AcDbEntity
  8
0
100
AcDbPolyline
 90
60
 70
1
 10
79.6707
 20
-63.1327
 10
79.3451
 20
-63.0812
 10
79.0266
 20
-62.9958
 10
78.7188
 20
-62.8777
 10
78.425
 20
-62.728
 10
78.1485
 20
-62.5484
 10
77.8922
 20
-62.3409
 10
77.6591
 20
-62.1078
 10
77.4516
 20
-61.8515
 10
77.272
 20
-61.575
 10
77.1223
 20
-61.2812
 10
77.0042
 20
-60.9734
 10
76.9188
 20
-60.6549
 10
76.8673
 20
-60.3293
 10
76.85
 20
-60
 10
76.8673
 20
-59.6707
 10
76.9188
 20
-59.3451
 10
77.0042
 20
-59.0266
 10
77.1223
 20
-58.7188
 10
77.272
 20
-58.425
 10
77.4516
 20
-58.1485
 10
77.6591
 20
-57.8922
 10
77.8922
 20
-57.6591
 10
78.1485
 20
-57.4516
 10
78.425
 20
-57.272
 10
78.7188
 20
-57.1223
 10
79.0266
 20
-57.0042
 10
79.3451
 20
-56.9188
 10
79.6707
 20
-56.8673
 10
80
 20
-56.85
 10
80.3293
 20
-56.8673
 10
80.6549
 20
-56.9188
 10
80.9734
 20
-57.0042
 10
81.2812
 20
-57.1223
 10
81.575
 20
-57.272
 10
81.8515
 20
-57.4516
 10
82.1078
 20
-57.6591
 10
82.3409
 20
-57.8922
 10
82.5484
 20
-58.1485
 10
82.728
 20
-58.425
 10
82.8777
 20
-58.7188
 10
82.9958
 20
-59.0266
 10
83.0812
 20
-59.3451
 10
83.1327
 20
-59.6707
 10
83.15
 20
-60
 10
83.1327
 20
-60.3293
 10
83.0812
 20
-60.6549
 10
82.9958
 20
-60.9734
 10
82.8777
 20
-61.2812
 10
82.728
 20
-61.575
 10
82.5484
 20
-61.8515
 10
82.3409
 20
-62.1078
 10
82.1078
 20
-62.3409
 10
81.8515
 20
-62.5484
 10
81.575
 20
-62.728
 10
81.2812
 20
-62.8777
 10
80.9734
 20
-62.9958
 10
80.6549
 20
-63.0812
 10
80.3293
 20
-63.1327
 10
80
 20
-63.15
  0
ENDSEC
  0
EOF
