  0
SECTION
  2
BLOCKS
  0
ENDSEC
  0
SECTION
  2
ENTITIES
  0
LINE
  8
0
 10
37.3136
 20
-119.984
 11
37.6237
 21
-119.934
  0
LINE
  8
0
 10
37.6237
 20
-119.934
 11
37.927
 21
-119.853
  0
LINE
  8
0
 10
37.927
 20
-119.853
 11
38.2202
 21
-119.741
  0
LINE
  8
0
 10
38.2202
 20
-119.741
 11
38.5
 21
-119.598
  0
LINE
  8
0
 10
38.5
 20
-119.598
 11
38.7634
 21
-119.427
  0
LINE
  8
0
 10
38.7634
 20
-119.427
 11
39.0074
 21
-119.229
  0
LINE
  8
0
 10
39.0074
 20
-119.229
 11
39.2294
 21
-119.007
  0
LINE
  8
0
 10
39.2294
 20
-119.007
 11
39.427
 21
-118.763
  0
LINE
  8
0
 10
39.427
 20
-118.763
 11
39.5981
 21
-118.5
  0
LINE
  8
0
 10
39.5981
 20
-118.5
 11
39.7406
 21
-118.22
  0
LINE
  8
0
 10
39.7406
 20
-118.22
 11
39.8532
 21
-117.927
  0
LINE
  8
0
 10
39.8532
 20
-117.927
 11
39.9344
 21
-117.624
  0
LINE
  8
0
 10
39.9344
 20
-117.624
 11
39.9836
 21
-117.314
  0
LINE
  8
0
 10
39.9836
 20
-117.314
 11
40
 21
-117
  0
LINE
  8
0
 10
40
 20
-117
 11
40
 21
117
  0
LINE
  8
0
 10
40
 20
117
 11
39.9836
 21
117.314
  0
LINE
  8
0
 10
39.9836
 20
117.314
 11
39.9344
 21
117.624
  0
LINE
  8
0
 10
39.9344
 20
117.624
 11
39.8532
 21
117.927
  0
LINE
  8
0
 10
39.8532
 20
117.927
 11
39.7406
 21
118.22
  0
LINE
  8
0
 10
39.7406
 20
118.22
 11
39.5981
 21
118.5
  0
LINE
  8
0
 10
39.5981
 20
118.5
 11
39.427
 21
118.763
  0
LINE
  8
0
 10
39.427
 20
118.763
 11
39.2294
 21
119.007
  0
LINE
  8
0
 10
39.2294
 20
119.007
 11
39.0074
 21
119.229
  0
LINE
  8
0
 10
39.0074
 20
119.229
 11
38.7634
 21
119.427
  0
LINE
  8
0
 10
38.7634
 20
119.427
 11
38.5
 21
119.598
  0
LINE
  8
0
 10
38.5
 20
119.598
 11
38.2202
 21
119.741
  0
LINE
  8
0
 10
38.2202
 20
119.741
 11
37.927
 21
119.853
  0
LINE
  8
0
 10
37.927
 20
119.853
 11
37.6237
 21
119.934
  0
LINE
  8
0
 10
37.6237
 20
119.934
 11
37.3136
 21
119.984
  0
LINE
  8
0
 10
37.3136
 20
119.984
 11
37
 21
120
  0
LINE
  8
0
 10
37
 20
120
 11
-37
 21
120
  0
LINE
  8
0
 10
-37
 20
120
 11
-37.3136
 21
119.984
  0
LINE
  8
0
 10
-37.3136
 20
119.984
 11
-37.6237
 21
119.934
  0
LINE
  8
0
 10
-37.6237
 20
119.934
 11
-37.927
 21
119.853
  0
LINE
  8
0
 10
-37.927
 20
119.853
 11
-38.2202
 21
119.741
  0
LINE
  8
0
 10
-38.2202
 20
119.741
 11
-38.5
 21
119.598
  0
LINE
  8
0
 10
-38.5
 20
119.598
 11
-38.7634
 21
119.427
  0
LINE
  8
0
 10
-38.7634
 20
119.427
 11
-39.0074
 21
119.229
  0
LINE
  8
0
 10
-39.0074
 20
119.229
 11
-39.2294
 21
119.007
  0
LINE
  8
0
 10
-39.2294
 20
119.007
 11
-39.427
 21
118.763
  0
LINE
  8
0
 10
-39.427
 20
118.763
 11
-39.5981
 21
118.5
  0
LINE
  8
0
 10
-39.5981
 20
118.5
 11
-39.7406
 21
118.22
  0
LINE
  8
0
 10
-39.7406
 20
118.22
 11
-39.8532
 21
117.927
  0
LINE
  8
0
 10
-39.8532
 20
117.927
 11
-39.9344
 21
117.624
  0
LINE
  8
0
 10
-39.9344
 20
117.624
 11
-39.9836
 21
117.314
  0
LINE
  8
0
 10
-39.9836
 20
117.314
 11
-40
 21
117
  0
LINE
  8
0
 10
-40
 20
117
 11
-40
 21
-117
  0
LINE
  8
0
 10
-40
 20
-117
 11
-39.9836
 21
-117.314
  0
LINE
  8
0
 10
-39.9836
 20
-117.314
 11
-39.9344
 21
-117.624
  0
LINE
  8
0
 10
-39.9344
 20
-117.624
 11
-39.8532
 21
-117.927
  0
LINE
  8
0
 10
-39.8532
 20
-117.927
 11
-39.7406
 21
-118.22
  0
LINE
  8
0
 10
-39.7406
 20
-118.22
 11
-39.5981
 21
-118.5
  0
LINE
  8
0
 10
-39.5981
 20
-118.5
 11
-39.427
 21
-118.763
  0
LINE
  8
0
 10
-39.427
 20
-118.763
 11
-39.2294
 21
-119.007
  0
LINE
  8
0
 10
-39.2294
 20
-119.007
 11
-39.0074
 21
-119.229
  0
LINE
  8
0
 10
-39.0074
 20
-119.229
 11
-38.7634
 21
-119.427
  0
LINE
  8
0
 10
-38.7634
 20
-119.427
 11
-38.5
 21
-119.598
  0
LINE
  8
0
 10
-38.5
 20
-119.598
 11
-38.2202
 21
-119.741
  0
LINE
  8
0
 10
-38.2202
 20
-119.741
 11
-37.927
 21
-119.853
  0
LINE
  8
0
 10
-37.927
 20
-119.853
 11
-37.6237
 21
-119.934
  0
LINE
  8
0
 10
-37.6237
 20
-119.934
 11
-37.3136
 21
-119.984
  0
LINE
  8
0
 10
-37.3136
 20
-119.984
 11
-37
 21
-120
  0
LINE
  8
0
 10
-37
 20
-120
 11
37
 21
-120
  0
LINE
  8
0
 10
37
 20
-120
 11
37.3136
 21
-119.984
  0
LINE
  8
0
 10
15.3165
 20
102.911
 11
15.076
 21
102.957
  0
LINE
  8
0
 10
15.076
 20
102.957
 11
14.8455
 21
103.04
  0
LINE
  8
0
 10
14.8455
 20
103.04
 11
14.6303
 21
103.157
  0
LINE
  8
0
 10
14.6303
 20
103.157
 11
14.4355
 21
103.306
  0
LINE
  8
0
 10
14.4355
 20
103.306
 11
14.2656
 21
103.482
  0
LINE
  8
0
 10
14.2656
 20
103.482
 11
14.1247
 21
103.682
  0
LINE
  8
0
 10
14.1247
 20
103.682
 11
14.016
 21
103.902
  0
LINE
  8
0
 10
14.016
 20
103.902
 11
13.9421
 21
104.135
  0
LINE
  8
0
 10
13.9421
 20
104.135
 11
13.9047
 21
104.378
  0
LINE
  8
0
 10
13.9047
 20
104.378
 11
13.9047
 21
104.622
  0
LINE
  8
0
 10
13.9047
 20
104.622
 11
13.9421
 21
104.865
  0
LINE
  8
0
 10
13.9421
 20
104.865
 11
14.016
 21
105.098
  0
LINE
  8
0
 10
14.016
 20
105.098
 11
14.1247
 21
105.318
  0
LINE
  8
0
 10
14.1247
 20
105.318
 11
14.2656
 21
105.518
  0
LINE
  8
0
 10
14.2656
 20
105.518
 11
14.4355
 21
105.694
  0
LINE
  8
0
 10
14.4355
 20
105.694
 11
14.6303
 21
105.843
  0
LINE
  8
0
 10
14.6303
 20
105.843
 11
14.8455
 21
105.96
  0
LINE
  8
0
 10
14.8455
 20
105.96
 11
15.076
 21
106.043
  0
LINE
  8
0
 10
15.076
 20
106.043
 11
15.3165
 21
106.089
  0
LINE
  8
0
 10
15.3165
 20
106.089
 11
15.5613
 21
106.099
  0
LINE
  8
0
 10
15.5613
 20
106.099
 11
15.8046
 21
106.071
  0
LINE
  8
0
 10
15.8046
 20
106.071
 11
16.0408
 21
106.006
  0
LINE
  8
0
 10
16.0408
 20
106.006
 11
16.2643
 21
105.906
  0
LINE
  8
0
 10
16.2643
 20
105.906
 11
16.47
 21
105.772
  0
LINE
  8
0
 10
16.47
 20
105.772
 11
16.6528
 21
105.609
  0
LINE
  8
0
 10
16.6528
 20
105.609
 11
16.8087
 21
105.421
  0
LINE
  8
0
 10
16.8087
 20
105.421
 11
16.9339
 21
105.21
  0
LINE
  8
0
 10
16.9339
 20
105.21
 11
17.0254
 21
104.983
  0
LINE
  8
0
 10
17.0254
 20
104.983
 11
17.0812
 21
104.744
  0
LINE
  8
0
 10
17.0812
 20
104.744
 11
17.1
 21
104.5
  0
LINE
  8
0
 10
17.1
 20
104.5
 11
17.0812
 21
104.256
  0
LINE
  8
0
 10
17.0812
 20
104.256
 11
17.0254
 21
104.017
  0
LINE
  8
0
 10
17.0254
 20
104.017
 11
16.9339
 21
103.79
  0
LINE
  8
0
 10
16.9339
 20
103.79
 11
16.8087
 21
103.579
  0
LINE
  8
0
 10
16.8087
 20
103.579
 11
16.6528
 21
103.391
  0
LINE
  8
0
 10
16.6528
 20
103.391
 11
16.47
 21
103.228
  0
LINE
  8
0
 10
16.47
 20
103.228
 11
16.2643
 21
103.094
  0
LINE
  8
0
 10
16.2643
 20
103.094
 11
16.0408
 21
102.994
  0
LINE
  8
0
 10
16.0408
 20
102.994
 11
15.8046
 21
102.929
  0
LINE
  8
0
 10
15.8046
 20
102.929
 11
15.5613
 21
102.901
  0
LINE
  8
0
 10
15.5613
 20
102.901
 11
15.3165
 21
102.911
  0
LINE
  8
0
 10
-15.6835
 20
102.911
 11
-15.924
 21
102.957
  0
LINE
  8
0
 10
-15.924
 20
102.957
 11
-16.1545
 21
103.04
  0
LINE
  8
0
 10
-16.1545
 20
103.04
 11
-16.3697
 21
103.157
  0
LINE
  8
0
 10
-16.3697
 20
103.157
 11
-16.5645
 21
103.306
  0
LINE
  8
0
 10
-16.5645
 20
103.306
 11
-16.7344
 21
103.482
  0
LINE
  8
0
 10
-16.7344
 20
103.482
 11
-16.8753
 21
103.682
  0
LINE
  8
0
 10
-16.8753
 20
103.682
 11
-16.984
 21
103.902
  0
LINE
  8
0
 10
-16.984
 20
103.902
 11
-17.0579
 21
104.135
  0
LINE
  8
0
 10
-17.0579
 20
104.135
 11
-17.0953
 21
104.378
  0
LINE
  8
0
 10
-17.0953
 20
104.378
 11
-17.0953
 21
104.622
  0
LINE
  8
0
 10
-17.0953
 20
104.622
 11
-17.0579
 21
104.865
  0
LINE
  8
0
 10
-17.0579
 20
104.865
 11
-16.984
 21
105.098
  0
LINE
  8
0
 10
-16.984
 20
105.098
 11
-16.8753
 21
105.318
  0
LINE
  8
0
 10
-16.8753
 20
105.318
 11
-16.7344
 21
105.518
  0
LINE
  8
0
 10
-16.7344
 20
105.518
 11
-16.5645
 21
105.694
  0
LINE
  8
0
 10
-16.5645
 20
105.694
 11
-16.3697
 21
105.843
  0
LINE
  8
0
 10
-16.3697
 20
105.843
 11
-16.1545
 21
105.96
  0
LINE
  8
0
 10
-16.1545
 20
105.96
 11
-15.924
 21
106.043
  0
LINE
  8
0
 10
-15.924
 20
106.043
 11
-15.6835
 21
106.089
  0
LINE
  8
0
 10
-15.6835
 20
106.089
 11
-15.4387
 21
106.099
  0
LINE
  8
0
 10
-15.4387
 20
106.099
 11
-15.1954
 21
106.071
  0
LINE
  8
0
 10
-15.1954
 20
106.071
 11
-14.9592
 21
106.006
  0
LINE
  8
0
 10
-14.9592
 20
106.006
 11
-14.7356
 21
105.906
  0
LINE
  8
0
 10
-14.7356
 20
105.906
 11
-14.53
 21
105.772
  0
LINE
  8
0
 10
-14.53
 20
105.772
 11
-14.3472
 21
105.609
  0
LINE
  8
0
 10
-14.3472
 20
105.609
 11
-14.1913
 21
105.421
  0
LINE
  8
0
 10
-14.1913
 20
105.421
 11
-14.0661
 21
105.21
  0
LINE
  8
0
 10
-14.0661
 20
105.21
 11
-13.9746
 21
104.983
  0
LINE
  8
0
 10
-13.9746
 20
104.983
 11
-13.9187
 21
104.744
  0
LINE
  8
0
 10
-13.9187
 20
104.744
 11
-13.9
 21
104.5
  0
LINE
  8
0
 10
-13.9
 20
104.5
 11
-13.9187
 21
104.256
  0
LINE
  8
0
 10
-13.9187
 20
104.256
 11
-13.9746
 21
104.017
  0
LINE
  8
0
 10
-13.9746
 20
104.017
 11
-14.0661
 21
103.79
  0
LINE
  8
0
 10
-14.0661
 20
103.79
 11
-14.1913
 21
103.579
  0
LINE
  8
0
 10
-14.1913
 20
103.579
 11
-14.3472
 21
103.391
  0
LINE
  8
0
 10
-14.3472
 20
103.391
 11
-14.53
 21
103.228
  0
LINE
  8
0
 10
-14.53
 20
103.228
 11
-14.7356
 21
103.094
  0
LINE
  8
0
 10
-14.7356
 20
103.094
 11
-14.9592
 21
102.994
  0
LINE
  8
0
 10
-14.9592
 20
102.994
 11
-15.1954
 21
102.929
  0
LINE
  8
0
 10
-15.1954
 20
102.929
 11
-15.4387
 21
102.901
  0
LINE
  8
0
 10
-15.4387
 20
102.901
 11
-15.6835
 21
102.911
  0
LINE
  8
0
 10
-1.17072
 20
77.8613
 11
-2.3286
 21
78.0447
  0
LINE
  8
0
 10
-2.3286
 20
78.0447
 11
-3.46098
 21
78.3482
  0
LINE
  8
0
 10
-3.46098
 20
78.3482
 11
-4.55544
 21
78.7683
  0
LINE
  8
0
 10
-4.55544
 20
78.7683
 11
-5.59999
 21
79.3005
  0
LINE
  8
0
 10
-5.59999
 20
79.3005
 11
-6.58319
 21
79.939
  0
LINE
  8
0
 10
-6.58319
 20
79.939
 11
-7.49426
 21
80.6768
  0
LINE
  8
0
 10
-7.49426
 20
80.6768
 11
-8.32321
 21
81.5057
  0
LINE
  8
0
 10
-8.32321
 20
81.5057
 11
-9.06099
 21
82.4168
  0
LINE
  8
0
 10
-9.06099
 20
82.4168
 11
-9.69948
 21
83.4
  0
LINE
  8
0
 10
-9.69948
 20
83.4
 11
-10.2317
 21
84.4445
  0
LINE
  8
0
 10
-10.2317
 20
84.4445
 11
-10.6518
 21
85.539
  0
LINE
  8
0
 10
-10.6518
 20
85.539
 11
-10.9552
 21
86.6714
  0
LINE
  8
0
 10
-10.9552
 20
86.6714
 11
-11.1386
 21
87.8293
  0
LINE
  8
0
 10
-11.1386
 20
87.8293
 11
-11.2
 21
89
  0
LINE
  8
0
 10
-11.2
 20
89
 11
-11.1386
 21
90.1707
  0
LINE
  8
0
 10
-11.1386
 20
90.1707
 11
-10.9552
 21
91.3286
  0
LINE
  8
0
 10
-10.9552
 20
91.3286
 11
-10.6518
 21
92.461
  0
LINE
  8
0
 10
-10.6518
 20
92.461
 11
-10.2317
 21
93.5554
  0
LINE
  8
0
 10
-10.2317
 20
93.5554
 11
-9.69948
 21
94.6
  0
LINE
  8
0
 10
-9.69948
 20
94.6
 11
-9.06099
 21
95.5832
  0
LINE
  8
0
 10
-9.06099
 20
95.5832
 11
-8.32321
 21
96.4943
  0
LINE
  8
0
 10
-8.32321
 20
96.4943
 11
-7.49426
 21
97.3232
  0
LINE
  8
0
 10
-7.49426
 20
97.3232
 11
-6.58319
 21
98.061
  0
LINE
  8
0
 10
-6.58319
 20
98.061
 11
-5.59999
 21
98.6995
  0
LINE
  8
0
 10
-5.59999
 20
98.6995
 11
-4.55544
 21
99.2317
  0
LINE
  8
0
 10
-4.55544
 20
99.2317
 11
-3.46098
 21
99.6518
  0
LINE
  8
0
 10
-3.46098
 20
99.6518
 11
-2.3286
 21
99.9552
  0
LINE
  8
0
 10
-2.3286
 20
99.9552
 11
-1.17072
 21
100.139
  0
LINE
  8
0
 10
-1.17072
 20
100.139
 11
0
 21
100.2
  0
LINE
  8
0
 10
0
 20
100.2
 11
1.17072
 21
100.139
  0
LINE
  8
0
 10
1.17072
 20
100.139
 11
2.3286
 21
99.9552
  0
LINE
  8
0
 10
2.3286
 20
99.9552
 11
3.46098
 21
99.6518
  0
LINE
  8
0
 10
3.46098
 20
99.6518
 11
4.55544
 21
99.2317
  0
LINE
  8
0
 10
4.55544
 20
99.2317
 11
5.59999
 21
98.6995
  0
LINE
  8
0
 10
5.59999
 20
98.6995
 11
6.58319
 21
98.061
  0
LINE
  8
0
 10
6.58319
 20
98.061
 11
7.49426
 21
97.3232
  0
LINE
  8
0
 10
7.49426
 20
97.3232
 11
8.32321
 21
96.4943
  0
LINE
  8
0
 10
8.32321
 20
96.4943
 11
9.06099
 21
95.5832
  0
LINE
  8
0
 10
9.06099
 20
95.5832
 11
9.69948
 21
94.6
  0
LINE
  8
0
 10
9.69948
 20
94.6
 11
10.2317
 21
93.5554
  0
LINE
  8
0
 10
10.2317
 20
93.5554
 11
10.6518
 21
92.461
  0
LINE
  8
0
 10
10.6518
 20
92.461
 11
10.9552
 21
91.3286
  0
LINE
  8
0
 10
10.9552
 20
91.3286
 11
11.1386
 21
90.1707
  0
LINE
  8
0
 10
11.1386
 20
90.1707
 11
11.2
 21
89
  0
LINE
  8
0
 10
11.2
 20
89
 11
11.1386
 21
87.8293
  0
LINE
  8
0
 10
11.1386
 20
87.8293
 11
10.9552
 21
86.6714
  0
LINE
  8
0
 10
10.9552
 20
86.6714
 11
10.6518
 21
85.539
  0
LINE
  8
0
 10
10.6518
 20
85.539
 11
10.2317
 21
84.4445
  0
LINE
  8
0
 10
10.2317
 20
84.4445
 11
9.69948
 21
83.4
  0
LINE
  8
0
 10
9.69948
 20
83.4
 11
9.06099
 21
82.4168
  0
LINE
  8
0
 10
9.06099
 20
82.4168
 11
8.32321
 21
81.5057
  0
LINE
  8
0
 10
8.32321
 20
81.5057
 11
7.49426
 21
80.6768
  0
LINE
  8
0
 10
7.49426
 20
80.6768
 11
6.58319
 21
79.939
  0
LINE
  8
0
 10
6.58319
 20
79.939
 11
5.59999
 21
79.3005
  0
LINE
  8
0
 10
5.59999
 20
79.3005
 11
4.55544
 21
78.7683
  0
LINE
  8
0
 10
4.55544
 20
78.7683
 11
3.46098
 21
78.3482
  0
LINE
  8
0
 10
3.46098
 20
78.3482
 11
2.3286
 21
78.0447
  0
LINE
  8
0
 10
2.3286
 20
78.0447
 11
1.17072
 21
77.8613
  0
LINE
  8
0
 10
1.17072
 20
77.8613
 11
0
 21
77.8
  0
LINE
  8
0
 10
0
 20
77.8
 11
-1.17072
 21
77.8613
  0
LINE
  8
0
 10
-15.6835
 20
71.9106
 11
-15.924
 21
71.9572
  0
LINE
  8
0
 10
-15.924
 20
71.9572
 11
-16.1545
 21
72.04
  0
LINE
  8
0
 10
-16.1545
 20
72.04
 11
-16.3697
 21
72.157
  0
LINE
  8
0
 10
-16.3697
 20
72.157
 11
-16.5645
 21
72.3055
  0
LINE
  8
0
 10
-16.5645
 20
72.3055
 11
-16.7344
 21
72.482
  0
LINE
  8
0
 10
-16.7344
 20
72.482
 11
-16.8753
 21
72.6824
  0
LINE
  8
0
 10
-16.8753
 20
72.6824
 11
-16.984
 21
72.9019
  0
LINE
  8
0
 10
-16.984
 20
72.9019
 11
-17.0579
 21
73.1354
  0
LINE
  8
0
 10
-17.0579
 20
73.1354
 11
-17.0953
 21
73.3775
  0
LINE
  8
0
 10
-17.0953
 20
73.3775
 11
-17.0953
 21
73.6225
  0
LINE
  8
0
 10
-17.0953
 20
73.6225
 11
-17.0579
 21
73.8646
  0
LINE
  8
0
 10
-17.0579
 20
73.8646
 11
-16.984
 21
74.0981
  0
LINE
  8
0
 10
-16.984
 20
74.0981
 11
-16.8753
 21
74.3176
  0
LINE
  8
0
 10
-16.8753
 20
74.3176
 11
-16.7344
 21
74.518
  0
LINE
  8
0
 10
-16.7344
 20
74.518
 11
-16.5645
 21
74.6945
  0
LINE
  8
0
 10
-16.5645
 20
74.6945
 11
-16.3697
 21
74.843
  0
LINE
  8
0
 10
-16.3697
 20
74.843
 11
-16.1545
 21
74.96
  0
LINE
  8
0
 10
-16.1545
 20
74.96
 11
-15.924
 21
75.0428
  0
LINE
  8
0
 10
-15.924
 20
75.0428
 11
-15.6835
 21
75.0894
  0
LINE
  8
0
 10
-15.6835
 20
75.0894
 11
-15.4387
 21
75.0988
  0
LINE
  8
0
 10
-15.4387
 20
75.0988
 11
-15.1954
 21
75.0707
  0
LINE
  8
0
 10
-15.1954
 20
75.0707
 11
-14.9592
 21
75.0058
  0
LINE
  8
0
 10
-14.9592
 20
75.0058
 11
-14.7356
 21
74.9056
  0
LINE
  8
0
 10
-14.7356
 20
74.9056
 11
-14.53
 21
74.7725
  0
LINE
  8
0
 10
-14.53
 20
74.7725
 11
-14.3472
 21
74.6095
  0
LINE
  8
0
 10
-14.3472
 20
74.6095
 11
-14.1913
 21
74.4205
  0
LINE
  8
0
 10
-14.1913
 20
74.4205
 11
-14.0661
 21
74.21
  0
LINE
  8
0
 10
-14.0661
 20
74.21
 11
-13.9746
 21
73.9828
  0
LINE
  8
0
 10
-13.9746
 20
73.9828
 11
-13.9187
 21
73.7442
  0
LINE
  8
0
 10
-13.9187
 20
73.7442
 11
-13.9
 21
73.5
  0
LINE
  8
0
 10
-13.9
 20
73.5
 11
-13.9187
 21
73.2558
  0
LINE
  8
0
 10
-13.9187
 20
73.2558
 11
-13.9746
 21
73.0173
  0
LINE
  8
0
 10
-13.9746
 20
73.0173
 11
-14.0661
 21
72.7901
  0
LINE
  8
0
 10
-14.0661
 20
72.7901
 11
-14.1913
 21
72.5795
  0
LINE
  8
0
 10
-14.1913
 20
72.5795
 11
-14.3472
 21
72.3905
  0
LINE
  8
0
 10
-14.3472
 20
72.3905
 11
-14.53
 21
72.2275
  0
LINE
  8
0
 10
-14.53
 20
72.2275
 11
-14.7356
 21
72.0944
  0
LINE
  8
0
 10
-14.7356
 20
72.0944
 11
-14.9592
 21
71.9942
  0
LINE
  8
0
 10
-14.9592
 20
71.9942
 11
-15.1954
 21
71.9293
  0
LINE
  8
0
 10
-15.1954
 20
71.9293
 11
-15.4387
 21
71.9012
  0
LINE
  8
0
 10
-15.4387
 20
71.9012
 11
-15.6835
 21
71.9106
  0
LINE
  8
0
 10
15.3165
 20
71.9106
 11
15.076
 21
71.9572
  0
LINE
  8
0
 10
15.076
 20
71.9572
 11
14.8455
 21
72.04
  0
LINE
  8
0
 10
14.8455
 20
72.04
 11
14.6303
 21
72.157
  0
LINE
  8
0
 10
14.6303
 20
72.157
 11
14.4355
 21
72.3055
  0
LINE
  8
0
 10
14.4355
 20
72.3055
 11
14.2656
 21
72.482
  0
LINE
  8
0
 10
14.2656
 20
72.482
 11
14.1247
 21
72.6824
  0
LINE
  8
0
 10
14.1247
 20
72.6824
 11
14.016
 21
72.9019
  0
LINE
  8
0
 10
14.016
 20
72.9019
 11
13.9421
 21
73.1354
  0
LINE
  8
0
 10
13.9421
 20
73.1354
 11
13.9047
 21
73.3775
  0
LINE
  8
0
 10
13.9047
 20
73.3775
 11
13.9047
 21
73.6225
  0
LINE
  8
0
 10
13.9047
 20
73.6225
 11
13.9421
 21
73.8646
  0
LINE
  8
0
 10
13.9421
 20
73.8646
 11
14.016
 21
74.0981
  0
LINE
  8
0
 10
14.016
 20
74.0981
 11
14.1247
 21
74.3176
  0
LINE
  8
0
 10
14.1247
 20
74.3176
 11
14.2656
 21
74.518
  0
LINE
  8
0
 10
14.2656
 20
74.518
 11
14.4355
 21
74.6945
  0
LINE
  8
0
 10
14.4355
 20
74.6945
 11
14.6303
 21
74.843
  0
LINE
  8
0
 10
14.6303
 20
74.843
 11
14.8455
 21
74.96
  0
LINE
  8
0
 10
14.8455
 20
74.96
 11
15.076
 21
75.0428
  0
LINE
  8
0
 10
15.076
 20
75.0428
 11
15.3165
 21
75.0894
  0
LINE
  8
0
 10
15.3165
 20
75.0894
 11
15.5613
 21
75.0988
  0
LINE
  8
0
 10
15.5613
 20
75.0988
 11
15.8046
 21
75.0707
  0
LINE
  8
0
 10
15.8046
 20
75.0707
 11
16.0408
 21
75.0058
  0
LINE
  8
0
 10
16.0408
 20
75.0058
 11
16.2643
 21
74.9056
  0
LINE
  8
0
 10
16.2643
 20
74.9056
 11
16.47
 21
74.7725
  0
LINE
  8
0
 10
16.47
 20
74.7725
 11
16.6528
 21
74.6095
  0
LINE
  8
0
 10
16.6528
 20
74.6095
 11
16.8087
 21
74.4205
  0
LINE
  8
0
 10
16.8087
 20
74.4205
 11
16.9339
 21
74.21
  0
LINE
  8
0
 10
16.9339
 20
74.21
 11
17.0254
 21
73.9828
  0
LINE
  8
0
 10
17.0254
 20
73.9828
 11
17.0812
 21
73.7442
  0
LINE
  8
0
 10
17.0812
 20
73.7442
 11
17.1
 21
73.5
  0
LINE
  8
0
 10
17.1
 20
73.5
 11
17.0812
 21
73.2558
  0
LINE
  8
0
 10
17.0812
 20
73.2558
 11
17.0254
 21
73.0173
  0
LINE
  8
0
 10
17.0254
 20
73.0173
 11
16.9339
 21
72.7901
  0
LINE
  8
0
 10
16.9339
 20
72.7901
 11
16.8087
 21
72.5795
  0
LINE
  8
0
 10
16.8087
 20
72.5795
 11
16.6528
 21
72.3905
  0
LINE
  8
0
 10
16.6528
 20
72.3905
 11
16.47
 21
72.2275
  0
LINE
  8
0
 10
16.47
 20
72.2275
 11
16.2643
 21
72.0944
  0
LINE
  8
0
 10
16.2643
 20
72.0944
 11
16.0408
 21
71.9942
  0
LINE
  8
0
 10
16.0408
 20
71.9942
 11
15.8046
 21
71.9293
  0
LINE
  8
0
 10
15.8046
 20
71.9293
 11
15.5613
 21
71.9012
  0
LINE
  8
0
 10
15.5613
 20
71.9012
 11
15.3165
 21
71.9106
  0
LINE
  8
0
 10
12.8135
 20
-4.09171
 11
12.5674
 21
-4.05498
  0
LINE
  8
0
 10
12.5674
 20
-4.05498
 11
12.3274
 21
-3.9894
  0
LINE
  8
0
 10
12.3274
 20
-3.9894
 11
12.0969
 21
-3.89589
  0
LINE
  8
0
 10
12.0969
 20
-3.89589
 11
11.879
 21
-3.77576
  0
LINE
  8
0
 10
11.879
 20
-3.77576
 11
11.6768
 21
-3.63071
  0
LINE
  8
0
 10
11.6768
 20
-3.63071
 11
11.4932
 21
-3.46277
  0
LINE
  8
0
 10
11.4932
 20
-3.46277
 11
11.3308
 21
-3.27429
  0
LINE
  8
0
 10
11.3308
 20
-3.27429
 11
11.1918
 21
-3.06792
  0
LINE
  8
0
 10
11.1918
 20
-3.06792
 11
11.0782
 21
-2.84657
  0
LINE
  8
0
 10
11.0782
 20
-2.84657
 11
10.9915
 21
-2.61333
  0
LINE
  8
0
 10
10.9915
 20
-2.61333
 11
10.9331
 21
-2.37148
  0
LINE
  8
0
 10
10.9331
 20
-2.37148
 11
10.9037
 21
-2.12442
  0
LINE
  8
0
 10
10.9037
 20
-2.12442
 11
10.9037
 21
-1.8756
  0
LINE
  8
0
 10
10.9037
 20
-1.8756
 11
10.9331
 21
-1.62854
  0
LINE
  8
0
 10
10.9331
 20
-1.62854
 11
10.9915
 21
-1.38669
  0
LINE
  8
0
 10
10.9915
 20
-1.38669
 11
11.0782
 21
-1.15344
  0
LINE
  8
0
 10
11.0782
 20
-1.15344
 11
11.1918
 21
-0.932098
  0
LINE
  8
0
 10
11.1918
 20
-0.932098
 11
11.3308
 21
-0.725723
  0
LINE
  8
0
 10
11.3308
 20
-0.725723
 11
11.4932
 21
-0.537247
  0
LINE
  8
0
 10
11.4932
 20
-0.537247
 11
11.6768
 21
-0.369308
  0
LINE
  8
0
 10
11.6768
 20
-0.369308
 11
11.879
 21
-0.224258
  0
LINE
  8
0
 10
11.879
 20
-0.224258
 11
12.0969
 21
-0.104126
  0
LINE
  8
0
 10
12.0969
 20
-0.104126
 11
12.3274
 21
-0.0106201
  0
LINE
  8
0
 10
12.3274
 20
-0.0106201
 11
12.5674
 21
0.0549622
  0
LINE
  8
0
 10
12.5674
 20
0.0549622
 11
12.8135
 21
0.0916901
  0
LINE
  8
0
 10
12.8135
 20
0.0916901
 11
13.0622
 21
0.0990753
  0
LINE
  8
0
 10
13.0622
 20
0.0990753
 11
13.31
 21
0.0769806
  0
LINE
  8
0
 10
13.31
 20
0.0769806
 11
13.5535
 21
0.0257263
  0
LINE
  8
0
 10
13.5535
 20
0.0257263
 11
13.7892
 21
-0.0539551
  0
LINE
  8
0
 10
13.7892
 20
-0.0539551
 11
14.0139
 21
-0.160965
  0
LINE
  8
0
 10
14.0139
 20
-0.160965
 11
14.2242
 21
-0.293793
  0
LINE
  8
0
 10
14.2242
 20
-0.293793
 11
14.4174
 21
-0.450562
  0
LINE
  8
0
 10
14.4174
 20
-0.450562
 11
14.5908
 21
-0.629074
  0
LINE
  8
0
 10
14.5908
 20
-0.629074
 11
14.7417
 21
-0.826843
  0
LINE
  8
0
 10
14.7417
 20
-0.826843
 11
14.8683
 21
-1.04109
  0
LINE
  8
0
 10
14.8683
 20
-1.04109
 11
14.9686
 21
-1.26878
  0
LINE
  8
0
 10
14.9686
 20
-1.26878
 11
15.0412
 21
-1.50674
  0
LINE
  8
0
 10
15.0412
 20
-1.50674
 11
15.0853
 21
-1.75163
  0
LINE
  8
0
 10
15.0853
 20
-1.75163
 11
15.1
 21
-2
  0
LINE
  8
0
 10
15.1
 20
-2
 11
15.0853
 21
-2.24838
  0
LINE
  8
0
 10
15.0853
 20
-2.24838
 11
15.0412
 21
-2.49327
  0
LINE
  8
0
 10
15.0412
 20
-2.49327
 11
14.9686
 21
-2.73123
  0
LINE
  8
0
 10
14.9686
 20
-2.73123
 11
14.8683
 21
-2.95892
  0
LINE
  8
0
 10
14.8683
 20
-2.95892
 11
14.7417
 21
-3.17317
  0
LINE
  8
0
 10
14.7417
 20
-3.17317
 11
14.5908
 21
-3.37094
  0
LINE
  8
0
 10
14.5908
 20
-3.37094
 11
14.4174
 21
-3.54945
  0
LINE
  8
0
 10
14.4174
 20
-3.54945
 11
14.2242
 21
-3.70622
  0
LINE
  8
0
 10
14.2242
 20
-3.70622
 11
14.0139
 21
-3.83905
  0
LINE
  8
0
 10
14.0139
 20
-3.83905
 11
13.7892
 21
-3.94606
  0
LINE
  8
0
 10
13.7892
 20
-3.94606
 11
13.5535
 21
-4.02574
  0
LINE
  8
0
 10
13.5535
 20
-4.02574
 11
13.31
 21
-4.077
  0
LINE
  8
0
 10
13.31
 20
-4.077
 11
13.0622
 21
-4.09909
  0
LINE
  8
0
 10
13.0622
 20
-4.09909
 11
12.8135
 21
-4.09171
  0
LINE
  8
0
 10
-13.1865
 20
-4.09171
 11
-13.4325
 21
-4.05498
  0
LINE
  8
0
 10
-13.4325
 20
-4.05498
 11
-13.6726
 21
-3.9894
  0
LINE
  8
0
 10
-13.6726
 20
-3.9894
 11
-13.9031
 21
-3.89589
  0
LINE
  8
0
 10
-13.9031
 20
-3.89589
 11
-14.121
 21
-3.77576
  0
LINE
  8
0
 10
-14.121
 20
-3.77576
 11
-14.3232
 21
-3.63071
  0
LINE
  8
0
 10
-14.3232
 20
-3.63071
 11
-14.5068
 21
-3.46277
  0
LINE
  8
0
 10
-14.5068
 20
-3.46277
 11
-14.6692
 21
-3.27429
  0
LINE
  8
0
 10
-14.6692
 20
-3.27429
 11
-14.8082
 21
-3.06792
  0
LINE
  8
0
 10
-14.8082
 20
-3.06792
 11
-14.9218
 21
-2.84657
  0
LINE
  8
0
 10
-14.9218
 20
-2.84657
 11
-15.0084
 21
-2.61333
  0
LINE
  8
0
 10
-15.0084
 20
-2.61333
 11
-15.0669
 21
-2.37148
  0
LINE
  8
0
 10
-15.0669
 20
-2.37148
 11
-15.0963
 21
-2.12442
  0
LINE
  8
0
 10
-15.0963
 20
-2.12442
 11
-15.0963
 21
-1.8756
  0
LINE
  8
0
 10
-15.0963
 20
-1.8756
 11
-15.0669
 21
-1.62854
  0
LINE
  8
0
 10
-15.0669
 20
-1.62854
 11
-15.0084
 21
-1.38669
  0
LINE
  8
0
 10
-15.0084
 20
-1.38669
 11
-14.9218
 21
-1.15344
  0
LINE
  8
0
 10
-14.9218
 20
-1.15344
 11
-14.8082
 21
-0.932098
  0
LINE
  8
0
 10
-14.8082
 20
-0.932098
 11
-14.6692
 21
-0.725723
  0
LINE
  8
0
 10
-14.6692
 20
-0.725723
 11
-14.5068
 21
-0.537247
  0
LINE
  8
0
 10
-14.5068
 20
-0.537247
 11
-14.3232
 21
-0.369308
  0
LINE
  8
0
 10
-14.3232
 20
-0.369308
 11
-14.121
 21
-0.224258
  0
LINE
  8
0
 10
-14.121
 20
-0.224258
 11
-13.9031
 21
-0.104126
  0
LINE
  8
0
 10
-13.9031
 20
-0.104126
 11
-13.6726
 21
-0.0106201
  0
LINE
  8
0
 10
-13.6726
 20
-0.0106201
 11
-13.4325
 21
0.0549622
  0
LINE
  8
0
 10
-13.4325
 20
0.0549622
 11
-13.1865
 21
0.0916901
  0
LINE
  8
0
 10
-13.1865
 20
0.0916901
 11
-12.9378
 21
0.0990753
  0
LINE
  8
0
 10
-12.9378
 20
0.0990753
 11
-12.6899
 21
0.0769806
  0
LINE
  8
0
 10
-12.6899
 20
0.0769806
 11
-12.4465
 21
0.0257263
  0
LINE
  8
0
 10
-12.4465
 20
0.0257263
 11
-12.2108
 21
-0.0539551
  0
LINE
  8
0
 10
-12.2108
 20
-0.0539551
 11
-11.9861
 21
-0.160965
  0
LINE
  8
0
 10
-11.9861
 20
-0.160965
 11
-11.7757
 21
-0.293793
  0
LINE
  8
0
 10
-11.7757
 20
-0.293793
 11
-11.5825
 21
-0.450562
  0
LINE
  8
0
 10
-11.5825
 20
-0.450562
 11
-11.4092
 21
-0.629074
  0
LINE
  8
0
 10
-11.4092
 20
-0.629074
 11
-11.2582
 21
-0.826843
  0
LINE
  8
0
 10
-11.2582
 20
-0.826843
 11
-11.1317
 21
-1.04109
  0
LINE
  8
0
 10
-11.1317
 20
-1.04109
 11
-11.0314
 21
-1.26878
  0
LINE
  8
0
 10
-11.0314
 20
-1.26878
 11
-10.9587
 21
-1.50674
  0
LINE
  8
0
 10
-10.9587
 20
-1.50674
 11
-10.9147
 21
-1.75163
  0
LINE
  8
0
 10
-10.9147
 20
-1.75163
 11
-10.9
 21
-2
  0
LINE
  8
0
 10
-10.9
 20
-2
 11
-10.9147
 21
-2.24838
  0
LINE
  8
0
 10
-10.9147
 20
-2.24838
 11
-10.9587
 21
-2.49327
  0
LINE
  8
0
 10
-10.9587
 20
-2.49327
 11
-11.0314
 21
-2.73123
  0
LINE
  8
0
 10
-11.0314
 20
-2.73123
 11
-11.1317
 21
-2.95892
  0
LINE
  8
0
 10
-11.1317
 20
-2.95892
 11
-11.2582
 21
-3.17317
  0
LINE
  8
0
 10
-11.2582
 20
-3.17317
 11
-11.4092
 21
-3.37094
  0
LINE
  8
0
 10
-11.4092
 20
-3.37094
 11
-11.5825
 21
-3.54945
  0
LINE
  8
0
 10
-11.5825
 20
-3.54945
 11
-11.7757
 21
-3.70622
  0
LINE
  8
0
 10
-11.7757
 20
-3.70622
 11
-11.9861
 21
-3.83905
  0
LINE
  8
0
 10
-11.9861
 20
-3.83905
 11
-12.2108
 21
-3.94606
  0
LINE
  8
0
 10
-12.2108
 20
-3.94606
 11
-12.4465
 21
-4.02574
  0
LINE
  8
0
 10
-12.4465
 20
-4.02574
 11
-12.6899
 21
-4.077
  0
LINE
  8
0
 10
-12.6899
 20
-4.077
 11
-12.9378
 21
-4.09909
  0
LINE
  8
0
 10
-12.9378
 20
-4.09909
 11
-13.1865
 21
-4.09171
  0
LINE
  8
0
 10
-17.1219
 20
-21.0429
 11
-17.3591
 21
-20.9867
  0
LINE
  8
0
 10
-17.3591
 20
-20.9867
 11
-17.577
 21
-20.8773
  0
LINE
  8
0
 10
-17.577
 20
-20.8773
 11
-17.7637
 21
-20.7206
  0
LINE
  8
0
 10
-17.7637
 20
-20.7206
 11
-17.9093
 21
-20.525
  0
LINE
  8
0
 10
-17.9093
 20
-20.525
 11
-18.0059
 21
-20.3011
  0
LINE
  8
0
 10
-18.0059
 20
-20.3011
 11
-18.0482
 21
-20.0611
  0
LINE
  8
0
 10
-18.0482
 20
-20.0611
 11
-18.034
 21
-19.8177
  0
LINE
  8
0
 10
-18.034
 20
-19.8177
 11
-17.9641
 21
-19.5841
  0
LINE
  8
0
 10
-17.9641
 20
-19.5841
 11
-17.8422
 21
-19.373
  0
LINE
  8
0
 10
-17.8422
 20
-19.373
 11
-17.6749
 21
-19.1957
  0
LINE
  8
0
 10
-17.6749
 20
-19.1957
 11
-17.4712
 21
-19.0617
  0
LINE
  8
0
 10
-17.4712
 20
-19.0617
 11
-17.2421
 21
-18.9783
  0
LINE
  8
0
 10
-17.2421
 20
-18.9783
 11
-17
 21
-18.95
  0
LINE
  8
0
 10
-17
 20
-18.95
 11
-16.7579
 21
-18.9783
  0
LINE
  8
0
 10
-16.7579
 20
-18.9783
 11
-16.5288
 21
-19.0617
  0
LINE
  8
0
 10
-16.5288
 20
-19.0617
 11
-16.3251
 21
-19.1957
  0
LINE
  8
0
 10
-16.3251
 20
-19.1957
 11
-16.1578
 21
-19.373
  0
LINE
  8
0
 10
-16.1578
 20
-19.373
 11
-16.0359
 21
-19.5841
  0
LINE
  8
0
 10
-16.0359
 20
-19.5841
 11
-15.966
 21
-19.8177
  0
LINE
  8
0
 10
-15.966
 20
-19.8177
 11
-15.9518
 21
-20.0611
  0
LINE
  8
0
 10
-15.9518
 20
-20.0611
 11
-15.9941
 21
-20.3011
  0
LINE
  8
0
 10
-15.9941
 20
-20.3011
 11
-16.0907
 21
-20.525
  0
LINE
  8
0
 10
-16.0907
 20
-20.525
 11
-16.2363
 21
-20.7206
  0
LINE
  8
0
 10
-16.2363
 20
-20.7206
 11
-16.423
 21
-20.8773
  0
LINE
  8
0
 10
-16.423
 20
-20.8773
 11
-16.6409
 21
-20.9867
  0
LINE
  8
0
 10
-16.6409
 20
-20.9867
 11
-16.8781
 21
-21.0429
  0
LINE
  8
0
 10
-16.8781
 20
-21.0429
 11
-17.1219
 21
-21.0429
  0
LINE
  8
0
 10
16.8781
 20
-21.0429
 11
16.6409
 21
-20.9867
  0
LINE
  8
0
 10
16.6409
 20
-20.9867
 11
16.423
 21
-20.8773
  0
LINE
  8
0
 10
16.423
 20
-20.8773
 11
16.2363
 21
-20.7206
  0
LINE
  8
0
 10
16.2363
 20
-20.7206
 11
16.0907
 21
-20.525
  0
LINE
  8
0
 10
16.0907
 20
-20.525
 11
15.9941
 21
-20.3011
  0
LINE
  8
0
 10
15.9941
 20
-20.3011
 11
15.9518
 21
-20.0611
  0
LINE
  8
0
 10
15.9518
 20
-20.0611
 11
15.966
 21
-19.8177
  0
LINE
  8
0
 10
15.966
 20
-19.8177
 11
16.0359
 21
-19.5841
  0
LINE
  8
0
 10
16.0359
 20
-19.5841
 11
16.1578
 21
-19.373
  0
LINE
  8
0
 10
16.1578
 20
-19.373
 11
16.3251
 21
-19.1957
  0
LINE
  8
0
 10
16.3251
 20
-19.1957
 11
16.5288
 21
-19.0617
  0
LINE
  8
0
 10
16.5288
 20
-19.0617
 11
16.7579
 21
-18.9783
  0
LINE
  8
0
 10
16.7579
 20
-18.9783
 11
17
 21
-18.95
  0
LINE
  8
0
 10
17
 20
-18.95
 11
17.2421
 21
-18.9783
  0
LINE
  8
0
 10
17.2421
 20
-18.9783
 11
17.4712
 21
-19.0617
  0
LINE
  8
0
 10
17.4712
 20
-19.0617
 11
17.6749
 21
-19.1957
  0
LINE
  8
0
 10
17.6749
 20
-19.1957
 11
17.8422
 21
-19.373
  0
LINE
  8
0
 10
17.8422
 20
-19.373
 11
17.9641
 21
-19.5841
  0
LINE
  8
0
 10
17.9641
 20
-19.5841
 11
18.034
 21
-19.8177
  0
LINE
  8
0
 10
18.034
 20
-19.8177
 11
18.0482
 21
-20.0611
  0
LINE
  8
0
 10
18.0482
 20
-20.0611
 11
18.0059
 21
-20.3011
  0
LINE
  8
0
 10
18.0059
 20
-20.3011
 11
17.9093
 21
-20.525
  0
LINE
  8
0
 10
17.9093
 20
-20.525
 11
17.7637
 21
-20.7206
  0
LINE
  8
0
 10
17.7637
 20
-20.7206
 11
17.577
 21
-20.8773
  0
LINE
  8
0
 10
17.577
 20
-20.8773
 11
17.3591
 21
-20.9867
  0
LINE
  8
0
 10
17.3591
 20
-20.9867
 11
17.1219
 21
-21.0429
  0
LINE
  8
0
 10
17.1219
 20
-21.0429
 11
16.8781
 21
-21.0429
  0
LINE
  8
0
 10
12.8135
 20
-30.0917
 11
12.5674
 21
-30.055
  0
LINE
  8
0
 10
12.5674
 20
-30.055
 11
12.3274
 21
-29.9894
  0
LINE
  8
0
 10
12.3274
 20
-29.9894
 11
12.0969
 21
-29.8959
  0
LINE
  8
0
 10
12.0969
 20
-29.8959
 11
11.879
 21
-29.7757
  0
LINE
  8
0
 10
11.879
 20
-29.7757
 11
11.6768
 21
-29.6307
  0
LINE
  8
0
 10
11.6768
 20
-29.6307
 11
11.4932
 21
-29.4628
  0
LINE
  8
0
 10
11.4932
 20
-29.4628
 11
11.3308
 21
-29.2743
  0
LINE
  8
0
 10
11.3308
 20
-29.2743
 11
11.1918
 21
-29.0679
  0
LINE
  8
0
 10
11.1918
 20
-29.0679
 11
11.0782
 21
-28.8466
  0
LINE
  8
0
 10
11.0782
 20
-28.8466
 11
10.9915
 21
-28.6133
  0
LINE
  8
0
 10
10.9915
 20
-28.6133
 11
10.9331
 21
-28.3715
  0
LINE
  8
0
 10
10.9331
 20
-28.3715
 11
10.9037
 21
-28.1244
  0
LINE
  8
0
 10
10.9037
 20
-28.1244
 11
10.9037
 21
-27.8756
  0
LINE
  8
0
 10
10.9037
 20
-27.8756
 11
10.9331
 21
-27.6285
  0
LINE
  8
0
 10
10.9331
 20
-27.6285
 11
10.9915
 21
-27.3867
  0
LINE
  8
0
 10
10.9915
 20
-27.3867
 11
11.0782
 21
-27.1534
  0
LINE
  8
0
 10
11.0782
 20
-27.1534
 11
11.1918
 21
-26.9321
  0
LINE
  8
0
 10
11.1918
 20
-26.9321
 11
11.3308
 21
-26.7257
  0
LINE
  8
0
 10
11.3308
 20
-26.7257
 11
11.4932
 21
-26.5372
  0
LINE
  8
0
 10
11.4932
 20
-26.5372
 11
11.6768
 21
-26.3693
  0
LINE
  8
0
 10
11.6768
 20
-26.3693
 11
11.879
 21
-26.2242
  0
LINE
  8
0
 10
11.879
 20
-26.2242
 11
12.0969
 21
-26.1041
  0
LINE
  8
0
 10
12.0969
 20
-26.1041
 11
12.3274
 21
-26.0106
  0
LINE
  8
0
 10
12.3274
 20
-26.0106
 11
12.5674
 21
-25.945
  0
LINE
  8
0
 10
12.5674
 20
-25.945
 11
12.8135
 21
-25.9083
  0
LINE
  8
0
 10
12.8135
 20
-25.9083
 11
13.0622
 21
-25.9009
  0
LINE
  8
0
 10
13.0622
 20
-25.9009
 11
13.31
 21
-25.923
  0
LINE
  8
0
 10
13.31
 20
-25.923
 11
13.5535
 21
-25.9743
  0
LINE
  8
0
 10
13.5535
 20
-25.9743
 11
13.7892
 21
-26.0539
  0
LINE
  8
0
 10
13.7892
 20
-26.0539
 11
14.0139
 21
-26.1609
  0
LINE
  8
0
 10
14.0139
 20
-26.1609
 11
14.2242
 21
-26.2938
  0
LINE
  8
0
 10
14.2242
 20
-26.2938
 11
14.4174
 21
-26.4505
  0
LINE
  8
0
 10
14.4174
 20
-26.4505
 11
14.5908
 21
-26.6291
  0
LINE
  8
0
 10
14.5908
 20
-26.6291
 11
14.7417
 21
-26.8268
  0
LINE
  8
0
 10
14.7417
 20
-26.8268
 11
14.8683
 21
-27.0411
  0
LINE
  8
0
 10
14.8683
 20
-27.0411
 11
14.9686
 21
-27.2688
  0
LINE
  8
0
 10
14.9686
 20
-27.2688
 11
15.0412
 21
-27.5067
  0
LINE
  8
0
 10
15.0412
 20
-27.5067
 11
15.0853
 21
-27.7516
  0
LINE
  8
0
 10
15.0853
 20
-27.7516
 11
15.1
 21
-28
  0
LINE
  8
0
 10
15.1
 20
-28
 11
15.0853
 21
-28.2484
  0
LINE
  8
0
 10
15.0853
 20
-28.2484
 11
15.0412
 21
-28.4933
  0
LINE
  8
0
 10
15.0412
 20
-28.4933
 11
14.9686
 21
-28.7312
  0
LINE
  8
0
 10
14.9686
 20
-28.7312
 11
14.8683
 21
-28.9589
  0
LINE
  8
0
 10
14.8683
 20
-28.9589
 11
14.7417
 21
-29.1732
  0
LINE
  8
0
 10
14.7417
 20
-29.1732
 11
14.5908
 21
-29.3709
  0
LINE
  8
0
 10
14.5908
 20
-29.3709
 11
14.4174
 21
-29.5494
  0
LINE
  8
0
 10
14.4174
 20
-29.5494
 11
14.2242
 21
-29.7062
  0
LINE
  8
0
 10
14.2242
 20
-29.7062
 11
14.0139
 21
-29.839
  0
LINE
  8
0
 10
14.0139
 20
-29.839
 11
13.7892
 21
-29.946
  0
LINE
  8
0
 10
13.7892
 20
-29.946
 11
13.5535
 21
-30.0257
  0
LINE
  8
0
 10
13.5535
 20
-30.0257
 11
13.31
 21
-30.077
  0
LINE
  8
0
 10
13.31
 20
-30.077
 11
13.0622
 21
-30.0991
  0
LINE
  8
0
 10
13.0622
 20
-30.0991
 11
12.8135
 21
-30.0917
  0
LINE
  8
0
 10
-13.1865
 20
-30.0917
 11
-13.4325
 21
-30.055
  0
LINE
  8
0
 10
-13.4325
 20
-30.055
 11
-13.6726
 21
-29.9894
  0
LINE
  8
0
 10
-13.6726
 20
-29.9894
 11
-13.9031
 21
-29.8959
  0
LINE
  8
0
 10
-13.9031
 20
-29.8959
 11
-14.121
 21
-29.7757
  0
LINE
  8
0
 10
-14.121
 20
-29.7757
 11
-14.3232
 21
-29.6307
  0
LINE
  8
0
 10
-14.3232
 20
-29.6307
 11
-14.5068
 21
-29.4628
  0
LINE
  8
0
 10
-14.5068
 20
-29.4628
 11
-14.6692
 21
-29.2743
  0
LINE
  8
0
 10
-14.6692
 20
-29.2743
 11
-14.8082
 21
-29.0679
  0
LINE
  8
0
 10
-14.8082
 20
-29.0679
 11
-14.9218
 21
-28.8466
  0
LINE
  8
0
 10
-14.9218
 20
-28.8466
 11
-15.0084
 21
-28.6133
  0
LINE
  8
0
 10
-15.0084
 20
-28.6133
 11
-15.0669
 21
-28.3715
  0
LINE
  8
0
 10
-15.0669
 20
-28.3715
 11
-15.0963
 21
-28.1244
  0
LINE
  8
0
 10
-15.0963
 20
-28.1244
 11
-15.0963
 21
-27.8756
  0
LINE
  8
0
 10
-15.0963
 20
-27.8756
 11
-15.0669
 21
-27.6285
  0
LINE
  8
0
 10
-15.0669
 20
-27.6285
 11
-15.0084
 21
-27.3867
  0
LINE
  8
0
 10
-15.0084
 20
-27.3867
 11
-14.9218
 21
-27.1534
  0
LINE
  8
0
 10
-14.9218
 20
-27.1534
 11
-14.8082
 21
-26.9321
  0
LINE
  8
0
 10
-14.8082
 20
-26.9321
 11
-14.6692
 21
-26.7257
  0
LINE
  8
0
 10
-14.6692
 20
-26.7257
 11
-14.5068
 21
-26.5372
  0
LINE
  8
0
 10
-14.5068
 20
-26.5372
 11
-14.3232
 21
-26.3693
  0
LINE
  8
0
 10
-14.3232
 20
-26.3693
 11
-14.121
 21
-26.2242
  0
LINE
  8
0
 10
-14.121
 20
-26.2242
 11
-13.9031
 21
-26.1041
  0
LINE
  8
0
 10
-13.9031
 20
-26.1041
 11
-13.6726
 21
-26.0106
  0
LINE
  8
0
 10
-13.6726
 20
-26.0106
 11
-13.4325
 21
-25.945
  0
LINE
  8
0
 10
-13.4325
 20
-25.945
 11
-13.1865
 21
-25.9083
  0
LINE
  8
0
 10
-13.1865
 20
-25.9083
 11
-12.9378
 21
-25.9009
  0
LINE
  8
0
 10
-12.9378
 20
-25.9009
 11
-12.6899
 21
-25.923
  0
LINE
  8
0
 10
-12.6899
 20
-25.923
 11
-12.4465
 21
-25.9743
  0
LINE
  8
0
 10
-12.4465
 20
-25.9743
 11
-12.2108
 21
-26.0539
  0
LINE
  8
0
 10
-12.2108
 20
-26.0539
 11
-11.9861
 21
-26.1609
  0
LINE
  8
0
 10
-11.9861
 20
-26.1609
 11
-11.7757
 21
-26.2938
  0
LINE
  8
0
 10
-11.7757
 20
-26.2938
 11
-11.5825
 21
-26.4505
  0
LINE
  8
0
 10
-11.5825
 20
-26.4505
 11
-11.4092
 21
-26.6291
  0
LINE
  8
0
 10
-11.4092
 20
-26.6291
 11
-11.2582
 21
-26.8268
  0
LINE
  8
0
 10
-11.2582
 20
-26.8268
 11
-11.1317
 21
-27.0411
  0
LINE
  8
0
 10
-11.1317
 20
-27.0411
 11
-11.0314
 21
-27.2688
  0
LINE
  8
0
 10
-11.0314
 20
-27.2688
 11
-10.9587
 21
-27.5067
  0
LINE
  8
0
 10
-10.9587
 20
-27.5067
 11
-10.9147
 21
-27.7516
  0
LINE
  8
0
 10
-10.9147
 20
-27.7516
 11
-10.9
 21
-28
  0
LINE
  8
0
 10
-10.9
 20
-28
 11
-10.9147
 21
-28.2484
  0
LINE
  8
0
 10
-10.9147
 20
-28.2484
 11
-10.9587
 21
-28.4933
  0
LINE
  8
0
 10
-10.9587
 20
-28.4933
 11
-11.0314
 21
-28.7312
  0
LINE
  8
0
 10
-11.0314
 20
-28.7312
 11
-11.1317
 21
-28.9589
  0
LINE
  8
0
 10
-11.1317
 20
-28.9589
 11
-11.2582
 21
-29.1732
  0
LINE
  8
0
 10
-11.2582
 20
-29.1732
 11
-11.4092
 21
-29.3709
  0
LINE
  8
0
 10
-11.4092
 20
-29.3709
 11
-11.5825
 21
-29.5494
  0
LINE
  8
0
 10
-11.5825
 20
-29.5494
 11
-11.7757
 21
-29.7062
  0
LINE
  8
0
 10
-11.7757
 20
-29.7062
 11
-11.9861
 21
-29.839
  0
LINE
  8
0
 10
-11.9861
 20
-29.839
 11
-12.2108
 21
-29.946
  0
LINE
  8
0
 10
-12.2108
 20
-29.946
 11
-12.4465
 21
-30.0257
  0
LINE
  8
0
 10
-12.4465
 20
-30.0257
 11
-12.6899
 21
-30.077
  0
LINE
  8
0
 10
-12.6899
 20
-30.077
 11
-12.9378
 21
-30.0991
  0
LINE
  8
0
 10
-12.9378
 20
-30.0991
 11
-13.1865
 21
-30.0917
  0
LINE
  8
0
 10
16.8781
 20
-36.0429
 11
16.6409
 21
-35.9867
  0
LINE
  8
0
 10
16.6409
 20
-35.9867
 11
16.423
 21
-35.8773
  0
LINE
  8
0
 10
16.423
 20
-35.8773
 11
16.2363
 21
-35.7206
  0
LINE
  8
0
 10
16.2363
 20
-35.7206
 11
16.0907
 21
-35.525
  0
LINE
  8
0
 10
16.0907
 20
-35.525
 11
15.9941
 21
-35.3011
  0
LINE
  8
0
 10
15.9941
 20
-35.3011
 11
15.9518
 21
-35.0611
  0
LINE
  8
0
 10
15.9518
 20
-35.0611
 11
15.966
 21
-34.8177
  0
LINE
  8
0
 10
15.966
 20
-34.8177
 11
16.0359
 21
-34.5841
  0
LINE
  8
0
 10
16.0359
 20
-34.5841
 11
16.1578
 21
-34.373
  0
LINE
  8
0
 10
16.1578
 20
-34.373
 11
16.3251
 21
-34.1957
  0
LINE
  8
0
 10
16.3251
 20
-34.1957
 11
16.5288
 21
-34.0617
  0
LINE
  8
0
 10
16.5288
 20
-34.0617
 11
16.7579
 21
-33.9783
  0
LINE
  8
0
 10
16.7579
 20
-33.9783
 11
17
 21
-33.95
  0
LINE
  8
0
 10
17
 20
-33.95
 11
17.2421
 21
-33.9783
  0
LINE
  8
0
 10
17.2421
 20
-33.9783
 11
17.4712
 21
-34.0617
  0
LINE
  8
0
 10
17.4712
 20
-34.0617
 11
17.6749
 21
-34.1957
  0
LINE
  8
0
 10
17.6749
 20
-34.1957
 11
17.8422
 21
-34.373
  0
LINE
  8
0
 10
17.8422
 20
-34.373
 11
17.9641
 21
-34.5841
  0
LINE
  8
0
 10
17.9641
 20
-34.5841
 11
18.034
 21
-34.8177
  0
LINE
  8
0
 10
18.034
 20
-34.8177
 11
18.0482
 21
-35.0611
  0
LINE
  8
0
 10
18.0482
 20
-35.0611
 11
18.0059
 21
-35.3011
  0
LINE
  8
0
 10
18.0059
 20
-35.3011
 11
17.9093
 21
-35.525
  0
LINE
  8
0
 10
17.9093
 20
-35.525
 11
17.7637
 21
-35.7206
  0
LINE
  8
0
 10
17.7637
 20
-35.7206
 11
17.577
 21
-35.8773
  0
LINE
  8
0
 10
17.577
 20
-35.8773
 11
17.3591
 21
-35.9867
  0
LINE
  8
0
 10
17.3591
 20
-35.9867
 11
17.1219
 21
-36.0429
  0
LINE
  8
0
 10
17.1219
 20
-36.0429
 11
16.8781
 21
-36.0429
  0
LINE
  8
0
 10
-17.1219
 20
-36.0429
 11
-17.3591
 21
-35.9867
  0
LINE
  8
0
 10
-17.3591
 20
-35.9867
 11
-17.577
 21
-35.8773
  0
LINE
  8
0
 10
-17.577
 20
-35.8773
 11
-17.7637
 21
-35.7206
  0
LINE
  8
0
 10
-17.7637
 20
-35.7206
 11
-17.9093
 21
-35.525
  0
LINE
  8
0
 10
-17.9093
 20
-35.525
 11
-18.0059
 21
-35.3011
  0
LINE
  8
0
 10
-18.0059
 20
-35.3011
 11
-18.0482
 21
-35.0611
  0
LINE
  8
0
 10
-18.0482
 20
-35.0611
 11
-18.034
 21
-34.8177
  0
LINE
  8
0
 10
-18.034
 20
-34.8177
 11
-17.9641
 21
-34.5841
  0
LINE
  8
0
 10
-17.9641
 20
-34.5841
 11
-17.8422
 21
-34.373
  0
LINE
  8
0
 10
-17.8422
 20
-34.373
 11
-17.6749
 21
-34.1957
  0
LINE
  8
0
 10
-17.6749
 20
-34.1957
 11
-17.4712
 21
-34.0617
  0
LINE
  8
0
 10
-17.4712
 20
-34.0617
 11
-17.2421
 21
-33.9783
  0
LINE
  8
0
 10
-17.2421
 20
-33.9783
 11
-17
 21
-33.95
  0
LINE
  8
0
 10
-17
 20
-33.95
 11
-16.7579
 21
-33.9783
  0
LINE
  8
0
 10
-16.7579
 20
-33.9783
 11
-16.5288
 21
-34.0617
  0
LINE
  8
0
 10
-16.5288
 20
-34.0617
 11
-16.3251
 21
-34.1957
  0
LINE
  8
0
 10
-16.3251
 20
-34.1957
 11
-16.1578
 21
-34.373
  0
LINE
  8
0
 10
-16.1578
 20
-34.373
 11
-16.0359
 21
-34.5841
  0
LINE
  8
0
 10
-16.0359
 20
-34.5841
 11
-15.966
 21
-34.8177
  0
LINE
  8
0
 10
-15.966
 20
-34.8177
 11
-15.9518
 21
-35.0611
  0
LINE
  8
0
 10
-15.9518
 20
-35.0611
 11
-15.9941
 21
-35.3011
  0
LINE
  8
0
 10
-15.9941
 20
-35.3011
 11
-16.0907
 21
-35.525
  0
LINE
  8
0
 10
-16.0907
 20
-35.525
 11
-16.2363
 21
-35.7206
  0
LINE
  8
0
 10
-16.2363
 20
-35.7206
 11
-16.423
 21
-35.8773
  0
LINE
  8
0
 10
-16.423
 20
-35.8773
 11
-16.6409
 21
-35.9867
  0
LINE
  8
0
 10
-16.6409
 20
-35.9867
 11
-16.8781
 21
-36.0429
  0
LINE
  8
0
 10
-16.8781
 20
-36.0429
 11
-17.1219
 21
-36.0429
  0
LINE
  8
0
 10
16.8781
 20
-51.0429
 11
16.6409
 21
-50.9867
  0
LINE
  8
0
 10
16.6409
 20
-50.9867
 11
16.423
 21
-50.8773
  0
LINE
  8
0
 10
16.423
 20
-50.8773
 11
16.2363
 21
-50.7206
  0
LINE
  8
0
 10
16.2363
 20
-50.7206
 11
16.0907
 21
-50.525
  0
LINE
  8
0
 10
16.0907
 20
-50.525
 11
15.9941
 21
-50.3011
  0
LINE
  8
0
 10
15.9941
 20
-50.3011
 11
15.9518
 21
-50.0611
  0
LINE
  8
0
 10
15.9518
 20
-50.0611
 11
15.966
 21
-49.8177
  0
LINE
  8
0
 10
15.966
 20
-49.8177
 11
16.0359
 21
-49.5841
  0
LINE
  8
0
 10
16.0359
 20
-49.5841
 11
16.1578
 21
-49.373
  0
LINE
  8
0
 10
16.1578
 20
-49.373
 11
16.3251
 21
-49.1957
  0
LINE
  8
0
 10
16.3251
 20
-49.1957
 11
16.5288
 21
-49.0617
  0
LINE
  8
0
 10
16.5288
 20
-49.0617
 11
16.7579
 21
-48.9783
  0
LINE
  8
0
 10
16.7579
 20
-48.9783
 11
17
 21
-48.95
  0
LINE
  8
0
 10
17
 20
-48.95
 11
17.2421
 21
-48.9783
  0
LINE
  8
0
 10
17.2421
 20
-48.9783
 11
17.4712
 21
-49.0617
  0
LINE
  8
0
 10
17.4712
 20
-49.0617
 11
17.6749
 21
-49.1957
  0
LINE
  8
0
 10
17.6749
 20
-49.1957
 11
17.8422
 21
-49.373
  0
LINE
  8
0
 10
17.8422
 20
-49.373
 11
17.9641
 21
-49.5841
  0
LINE
  8
0
 10
17.9641
 20
-49.5841
 11
18.034
 21
-49.8177
  0
LINE
  8
0
 10
18.034
 20
-49.8177
 11
18.0482
 21
-50.0611
  0
LINE
  8
0
 10
18.0482
 20
-50.0611
 11
18.0059
 21
-50.3011
  0
LINE
  8
0
 10
18.0059
 20
-50.3011
 11
17.9093
 21
-50.525
  0
LINE
  8
0
 10
17.9093
 20
-50.525
 11
17.7637
 21
-50.7206
  0
LINE
  8
0
 10
17.7637
 20
-50.7206
 11
17.577
 21
-50.8773
  0
LINE
  8
0
 10
17.577
 20
-50.8773
 11
17.3591
 21
-50.9867
  0
LINE
  8
0
 10
17.3591
 20
-50.9867
 11
17.1219
 21
-51.0429
  0
LINE
  8
0
 10
17.1219
 20
-51.0429
 11
16.8781
 21
-51.0429
  0
LINE
  8
0
 10
-17.1219
 20
-51.0429
 11
-17.3591
 21
-50.9867
  0
LINE
  8
0
 10
-17.3591
 20
-50.9867
 11
-17.577
 21
-50.8773
  0
LINE
  8
0
 10
-17.577
 20
-50.8773
 11
-17.7637
 21
-50.7206
  0
LINE
  8
0
 10
-17.7637
 20
-50.7206
 11
-17.9093
 21
-50.525
  0
LINE
  8
0
 10
-17.9093
 20
-50.525
 11
-18.0059
 21
-50.3011
  0
LINE
  8
0
 10
-18.0059
 20
-50.3011
 11
-18.0482
 21
-50.0611
  0
LINE
  8
0
 10
-18.0482
 20
-50.0611
 11
-18.034
 21
-49.8177
  0
LINE
  8
0
 10
-18.034
 20
-49.8177
 11
-17.9641
 21
-49.5841
  0
LINE
  8
0
 10
-17.9641
 20
-49.5841
 11
-17.8422
 21
-49.373
  0
LINE
  8
0
 10
-17.8422
 20
-49.373
 11
-17.6749
 21
-49.1957
  0
LINE
  8
0
 10
-17.6749
 20
-49.1957
 11
-17.4712
 21
-49.0617
  0
LINE
  8
0
 10
-17.4712
 20
-49.0617
 11
-17.2421
 21
-48.9783
  0
LINE
  8
0
 10
-17.2421
 20
-48.9783
 11
-17
 21
-48.95
  0
LINE
  8
0
 10
-17
 20
-48.95
 11
-16.7579
 21
-48.9783
  0
LINE
  8
0
 10
-16.7579
 20
-48.9783
 11
-16.5288
 21
-49.0617
  0
LINE
  8
0
 10
-16.5288
 20
-49.0617
 11
-16.3251
 21
-49.1957
  0
LINE
  8
0
 10
-16.3251
 20
-49.1957
 11
-16.1578
 21
-49.373
  0
LINE
  8
0
 10
-16.1578
 20
-49.373
 11
-16.0359
 21
-49.5841
  0
LINE
  8
0
 10
-16.0359
 20
-49.5841
 11
-15.966
 21
-49.8177
  0
LINE
  8
0
 10
-15.966
 20
-49.8177
 11
-15.9518
 21
-50.0611
  0
LINE
  8
0
 10
-15.9518
 20
-50.0611
 11
-15.9941
 21
-50.3011
  0
LINE
  8
0
 10
-15.9941
 20
-50.3011
 11
-16.0907
 21
-50.525
  0
LINE
  8
0
 10
-16.0907
 20
-50.525
 11
-16.2363
 21
-50.7206
  0
LINE
  8
0
 10
-16.2363
 20
-50.7206
 11
-16.423
 21
-50.8773
  0
LINE
  8
0
 10
-16.423
 20
-50.8773
 11
-16.6409
 21
-50.9867
  0
LINE
  8
0
 10
-16.6409
 20
-50.9867
 11
-16.8781
 21
-51.0429
  0
LINE
  8
0
 10
-16.8781
 20
-51.0429
 11
-17.1219
 21
-51.0429
  0
LINE
  8
0
 10
16.8781
 20
-66.0429
 11
16.6409
 21
-65.9867
  0
LINE
  8
0
 10
16.6409
 20
-65.9867
 11
16.423
 21
-65.8773
  0
LINE
  8
0
 10
16.423
 20
-65.8773
 11
16.2363
 21
-65.7206
  0
LINE
  8
0
 10
16.2363
 20
-65.7206
 11
16.0907
 21
-65.525
  0
LINE
  8
0
 10
16.0907
 20
-65.525
 11
15.9941
 21
-65.3011
  0
LINE
  8
0
 10
15.9941
 20
-65.3011
 11
15.9518
 21
-65.0611
  0
LINE
  8
0
 10
15.9518
 20
-65.0611
 11
15.966
 21
-64.8177
  0
LINE
  8
0
 10
15.966
 20
-64.8177
 11
16.0359
 21
-64.5841
  0
LINE
  8
0
 10
16.0359
 20
-64.5841
 11
16.1578
 21
-64.373
  0
LINE
  8
0
 10
16.1578
 20
-64.373
 11
16.3251
 21
-64.1957
  0
LINE
  8
0
 10
16.3251
 20
-64.1957
 11
16.5288
 21
-64.0617
  0
LINE
  8
0
 10
16.5288
 20
-64.0617
 11
16.7579
 21
-63.9783
  0
LINE
  8
0
 10
16.7579
 20
-63.9783
 11
17
 21
-63.95
  0
LINE
  8
0
 10
17
 20
-63.95
 11
17.2421
 21
-63.9783
  0
LINE
  8
0
 10
17.2421
 20
-63.9783
 11
17.4712
 21
-64.0617
  0
LINE
  8
0
 10
17.4712
 20
-64.0617
 11
17.6749
 21
-64.1957
  0
LINE
  8
0
 10
17.6749
 20
-64.1957
 11
17.8422
 21
-64.373
  0
LINE
  8
0
 10
17.8422
 20
-64.373
 11
17.9641
 21
-64.5841
  0
LINE
  8
0
 10
17.9641
 20
-64.5841
 11
18.034
 21
-64.8177
  0
LINE
  8
0
 10
18.034
 20
-64.8177
 11
18.0482
 21
-65.0611
  0
LINE
  8
0
 10
18.0482
 20
-65.0611
 11
18.0059
 21
-65.3011
  0
LINE
  8
0
 10
18.0059
 20
-65.3011
 11
17.9093
 21
-65.525
  0
LINE
  8
0
 10
17.9093
 20
-65.525
 11
17.7637
 21
-65.7206
  0
LINE
  8
0
 10
17.7637
 20
-65.7206
 11
17.577
 21
-65.8773
  0
LINE
  8
0
 10
17.577
 20
-65.8773
 11
17.3591
 21
-65.9867
  0
LINE
  8
0
 10
17.3591
 20
-65.9867
 11
17.1219
 21
-66.0429
  0
LINE
  8
0
 10
17.1219
 20
-66.0429
 11
16.8781
 21
-66.0429
  0
LINE
  8
0
 10
-17.1219
 20
-66.0429
 11
-17.3591
 21
-65.9867
  0
LINE
  8
0
 10
-17.3591
 20
-65.9867
 11
-17.577
 21
-65.8773
  0
LINE
  8
0
 10
-17.577
 20
-65.8773
 11
-17.7637
 21
-65.7206
  0
LINE
  8
0
 10
-17.7637
 20
-65.7206
 11
-17.9093
 21
-65.525
  0
LINE
  8
0
 10
-17.9093
 20
-65.525
 11
-18.0059
 21
-65.3011
  0
LINE
  8
0
 10
-18.0059
 20
-65.3011
 11
-18.0482
 21
-65.0611
  0
LINE
  8
0
 10
-18.0482
 20
-65.0611
 11
-18.034
 21
-64.8177
  0
LINE
  8
0
 10
-18.034
 20
-64.8177
 11
-17.9641
 21
-64.5841
  0
LINE
  8
0
 10
-17.9641
 20
-64.5841
 11
-17.8422
 21
-64.373
  0
LINE
  8
0
 10
-17.8422
 20
-64.373
 11
-17.6749
 21
-64.1957
  0
LINE
  8
0
 10
-17.6749
 20
-64.1957
 11
-17.4712
 21
-64.0617
  0
LINE
  8
0
 10
-17.4712
 20
-64.0617
 11
-17.2421
 21
-63.9783
  0
LINE
  8
0
 10
-17.2421
 20
-63.9783
 11
-17
 21
-63.95
  0
LINE
  8
0
 10
-17
 20
-63.95
 11
-16.7579
 21
-63.9783
  0
LINE
  8
0
 10
-16.7579
 20
-63.9783
 11
-16.5288
 21
-64.0617
  0
LINE
  8
0
 10
-16.5288
 20
-64.0617
 11
-16.3251
 21
-64.1957
  0
LINE
  8
0
 10
-16.3251
 20
-64.1957
 11
-16.1578
 21
-64.373
  0
LINE
  8
0
 10
-16.1578
 20
-64.373
 11
-16.0359
 21
-64.5841
  0
LINE
  8
0
 10
-16.0359
 20
-64.5841
 11
-15.966
 21
-64.8177
  0
LINE
  8
0
 10
-15.966
 20
-64.8177
 11
-15.9518
 21
-65.0611
  0
LINE
  8
0
 10
-15.9518
 20
-65.0611
 11
-15.9941
 21
-65.3011
  0
LINE
  8
0
 10
-15.9941
 20
-65.3011
 11
-16.0907
 21
-65.525
  0
LINE
  8
0
 10
-16.0907
 20
-65.525
 11
-16.2363
 21
-65.7206
  0
LINE
  8
0
 10
-16.2363
 20
-65.7206
 11
-16.423
 21
-65.8773
  0
LINE
  8
0
 10
-16.423
 20
-65.8773
 11
-16.6409
 21
-65.9867
  0
LINE
  8
0
 10
-16.6409
 20
-65.9867
 11
-16.8781
 21
-66.0429
  0
LINE
  8
0
 10
-16.8781
 20
-66.0429
 11
-17.1219
 21
-66.0429
  0
LINE
  8
0
 10
16.8781
 20
-81.0429
 11
16.6409
 21
-80.9867
  0
LINE
  8
0
 10
16.6409
 20
-80.9867
 11
16.423
 21
-80.8773
  0
LINE
  8
0
 10
16.423
 20
-80.8773
 11
16.2363
 21
-80.7206
  0
LINE
  8
0
 10
16.2363
 20
-80.7206
 11
16.0907
 21
-80.525
  0
LINE
  8
0
 10
16.0907
 20
-80.525
 11
15.9941
 21
-80.3011
  0
LINE
  8
0
 10
15.9941
 20
-80.3011
 11
15.9518
 21
-80.0611
  0
LINE
  8
0
 10
15.9518
 20
-80.0611
 11
15.966
 21
-79.8177
  0
LINE
  8
0
 10
15.966
 20
-79.8177
 11
16.0359
 21
-79.5841
  0
LINE
  8
0
 10
16.0359
 20
-79.5841
 11
16.1578
 21
-79.373
  0
LINE
  8
0
 10
16.1578
 20
-79.373
 11
16.3251
 21
-79.1956
  0
LINE
  8
0
 10
16.3251
 20
-79.1956
 11
16.5288
 21
-79.0617
  0
LINE
  8
0
 10
16.5288
 20
-79.0617
 11
16.7579
 21
-78.9783
  0
LINE
  8
0
 10
16.7579
 20
-78.9783
 11
17
 21
-78.95
  0
LINE
  8
0
 10
17
 20
-78.95
 11
17.2421
 21
-78.9783
  0
LINE
  8
0
 10
17.2421
 20
-78.9783
 11
17.4712
 21
-79.0617
  0
LINE
  8
0
 10
17.4712
 20
-79.0617
 11
17.6749
 21
-79.1956
  0
LINE
  8
0
 10
17.6749
 20
-79.1956
 11
17.8422
 21
-79.373
  0
LINE
  8
0
 10
17.8422
 20
-79.373
 11
17.9641
 21
-79.5841
  0
LINE
  8
0
 10
17.9641
 20
-79.5841
 11
18.034
 21
-79.8177
  0
LINE
  8
0
 10
18.034
 20
-79.8177
 11
18.0482
 21
-80.0611
  0
LINE
  8
0
 10
18.0482
 20
-80.0611
 11
18.0059
 21
-80.3011
  0
LINE
  8
0
 10
18.0059
 20
-80.3011
 11
17.9093
 21
-80.525
  0
LINE
  8
0
 10
17.9093
 20
-80.525
 11
17.7637
 21
-80.7206
  0
LINE
  8
0
 10
17.7637
 20
-80.7206
 11
17.577
 21
-80.8773
  0
LINE
  8
0
 10
17.577
 20
-80.8773
 11
17.3591
 21
-80.9867
  0
LINE
  8
0
 10
17.3591
 20
-80.9867
 11
17.1219
 21
-81.0429
  0
LINE
  8
0
 10
17.1219
 20
-81.0429
 11
16.8781
 21
-81.0429
  0
LINE
  8
0
 10
-17.1219
 20
-81.0429
 11
-17.3591
 21
-80.9867
  0
LINE
  8
0
 10
-17.3591
 20
-80.9867
 11
-17.577
 21
-80.8773
  0
LINE
  8
0
 10
-17.577
 20
-80.8773
 11
-17.7637
 21
-80.7206
  0
LINE
  8
0
 10
-17.7637
 20
-80.7206
 11
-17.9093
 21
-80.525
  0
LINE
  8
0
 10
-17.9093
 20
-80.525
 11
-18.0059
 21
-80.3011
  0
LINE
  8
0
 10
-18.0059
 20
-80.3011
 11
-18.0482
 21
-80.0611
  0
LINE
  8
0
 10
-18.0482
 20
-80.0611
 11
-18.034
 21
-79.8177
  0
LINE
  8
0
 10
-18.034
 20
-79.8177
 11
-17.9641
 21
-79.5841
  0
LINE
  8
0
 10
-17.9641
 20
-79.5841
 11
-17.8422
 21
-79.373
  0
LINE
  8
0
 10
-17.8422
 20
-79.373
 11
-17.6749
 21
-79.1956
  0
LINE
  8
0
 10
-17.6749
 20
-79.1956
 11
-17.4712
 21
-79.0617
  0
LINE
  8
0
 10
-17.4712
 20
-79.0617
 11
-17.2421
 21
-78.9783
  0
LINE
  8
0
 10
-17.2421
 20
-78.9783
 11
-17
 21
-78.95
  0
LINE
  8
0
 10
-17
 20
-78.95
 11
-16.7579
 21
-78.9783
  0
LINE
  8
0
 10
-16.7579
 20
-78.9783
 11
-16.5288
 21
-79.0617
  0
LINE
  8
0
 10
-16.5288
 20
-79.0617
 11
-16.3251
 21
-79.1956
  0
LINE
  8
0
 10
-16.3251
 20
-79.1956
 11
-16.1578
 21
-79.373
  0
LINE
  8
0
 10
-16.1578
 20
-79.373
 11
-16.0359
 21
-79.5841
  0
LINE
  8
0
 10
-16.0359
 20
-79.5841
 11
-15.966
 21
-79.8177
  0
LINE
  8
0
 10
-15.966
 20
-79.8177
 11
-15.9518
 21
-80.0611
  0
LINE
  8
0
 10
-15.9518
 20
-80.0611
 11
-15.9941
 21
-80.3011
  0
LINE
  8
0
 10
-15.9941
 20
-80.3011
 11
-16.0907
 21
-80.525
  0
LINE
  8
0
 10
-16.0907
 20
-80.525
 11
-16.2363
 21
-80.7206
  0
LINE
  8
0
 10
-16.2363
 20
-80.7206
 11
-16.423
 21
-80.8773
  0
LINE
  8
0
 10
-16.423
 20
-80.8773
 11
-16.6409
 21
-80.9867
  0
LINE
  8
0
 10
-16.6409
 20
-80.9867
 11
-16.8781
 21
-81.0429
  0
LINE
  8
0
 10
-16.8781
 20
-81.0429
 11
-17.1219
 21
-81.0429
  0
LINE
  8
0
 10
16.8781
 20
-96.0429
 11
16.6409
 21
-95.9867
  0
LINE
  8
0
 10
16.6409
 20
-95.9867
 11
16.423
 21
-95.8773
  0
LINE
  8
0
 10
16.423
 20
-95.8773
 11
16.2363
 21
-95.7206
  0
LINE
  8
0
 10
16.2363
 20
-95.7206
 11
16.0907
 21
-95.525
  0
LINE
  8
0
 10
16.0907
 20
-95.525
 11
15.9941
 21
-95.3011
  0
LINE
  8
0
 10
15.9941
 20
-95.3011
 11
15.9518
 21
-95.0611
  0
LINE
  8
0
 10
15.9518
 20
-95.0611
 11
15.966
 21
-94.8177
  0
LINE
  8
0
 10
15.966
 20
-94.8177
 11
16.0359
 21
-94.5841
  0
LINE
  8
0
 10
16.0359
 20
-94.5841
 11
16.1578
 21
-94.373
  0
LINE
  8
0
 10
16.1578
 20
-94.373
 11
16.3251
 21
-94.1956
  0
LINE
  8
0
 10
16.3251
 20
-94.1956
 11
16.5288
 21
-94.0617
  0
LINE
  8
0
 10
16.5288
 20
-94.0617
 11
16.7579
 21
-93.9783
  0
LINE
  8
0
 10
16.7579
 20
-93.9783
 11
17
 21
-93.95
  0
LINE
  8
0
 10
17
 20
-93.95
 11
17.2421
 21
-93.9783
  0
LINE
  8
0
 10
17.2421
 20
-93.9783
 11
17.4712
 21
-94.0617
  0
LINE
  8
0
 10
17.4712
 20
-94.0617
 11
17.6749
 21
-94.1956
  0
LINE
  8
0
 10
17.6749
 20
-94.1956
 11
17.8422
 21
-94.373
  0
LINE
  8
0
 10
17.8422
 20
-94.373
 11
17.9641
 21
-94.5841
  0
LINE
  8
0
 10
17.9641
 20
-94.5841
 11
18.034
 21
-94.8177
  0
LINE
  8
0
 10
18.034
 20
-94.8177
 11
18.0482
 21
-95.0611
  0
LINE
  8
0
 10
18.0482
 20
-95.0611
 11
18.0059
 21
-95.3011
  0
LINE
  8
0
 10
18.0059
 20
-95.3011
 11
17.9093
 21
-95.525
  0
LINE
  8
0
 10
17.9093
 20
-95.525
 11
17.7637
 21
-95.7206
  0
LINE
  8
0
 10
17.7637
 20
-95.7206
 11
17.577
 21
-95.8773
  0
LINE
  8
0
 10
17.577
 20
-95.8773
 11
17.3591
 21
-95.9867
  0
LINE
  8
0
 10
17.3591
 20
-95.9867
 11
17.1219
 21
-96.0429
  0
LINE
  8
0
 10
17.1219
 20
-96.0429
 11
16.8781
 21
-96.0429
  0
LINE
  8
0
 10
-17.1219
 20
-96.0429
 11
-17.3591
 21
-95.9867
  0
LINE
  8
0
 10
-17.3591
 20
-95.9867
 11
-17.577
 21
-95.8773
  0
LINE
  8
0
 10
-17.577
 20
-95.8773
 11
-17.7637
 21
-95.7206
  0
LINE
  8
0
 10
-17.7637
 20
-95.7206
 11
-17.9093
 21
-95.525
  0
LINE
  8
0
 10
-17.9093
 20
-95.525
 11
-18.0059
 21
-95.3011
  0
LINE
  8
0
 10
-18.0059
 20
-95.3011
 11
-18.0482
 21
-95.0611
  0
LINE
  8
0
 10
-18.0482
 20
-95.0611
 11
-18.034
 21
-94.8177
  0
LINE
  8
0
 10
-18.034
 20
-94.8177
 11
-17.9641
 21
-94.5841
  0
LINE
  8
0
 10
-17.9641
 20
-94.5841
 11
-17.8422
 21
-94.373
  0
LINE
  8
0
 10
-17.8422
 20
-94.373
 11
-17.6749
 21
-94.1956
  0
LINE
  8
0
 10
-17.6749
 20
-94.1956
 11
-17.4712
 21
-94.0617
  0
LINE
  8
0
 10
-17.4712
 20
-94.0617
 11
-17.2421
 21
-93.9783
  0
LINE
  8
0
 10
-17.2421
 20
-93.9783
 11
-17
 21
-93.95
  0
LINE
  8
0
 10
-17
 20
-93.95
 11
-16.7579
 21
-93.9783
  0
LINE
  8
0
 10
-16.7579
 20
-93.9783
 11
-16.5288
 21
-94.0617
  0
LINE
  8
0
 10
-16.5288
 20
-94.0617
 11
-16.3251
 21
-94.1956
  0
LINE
  8
0
 10
-16.3251
 20
-94.1956
 11
-16.1578
 21
-94.373
  0
LINE
  8
0
 10
-16.1578
 20
-94.373
 11
-16.0359
 21
-94.5841
  0
LINE
  8
0
 10
-16.0359
 20
-94.5841
 11
-15.966
 21
-94.8177
  0
LINE
  8
0
 10
-15.966
 20
-94.8177
 11
-15.9518
 21
-95.0611
  0
LINE
  8
0
 10
-15.9518
 20
-95.0611
 11
-15.9941
 21
-95.3011
  0
LINE
  8
0
 10
-15.9941
 20
-95.3011
 11
-16.0907
 21
-95.525
  0
LINE
  8
0
 10
-16.0907
 20
-95.525
 11
-16.2363
 21
-95.7206
  0
LINE
  8
0
 10
-16.2363
 20
-95.7206
 11
-16.423
 21
-95.8773
  0
LINE
  8
0
 10
-16.423
 20
-95.8773
 11
-16.6409
 21
-95.9867
  0
LINE
  8
0
 10
-16.6409
 20
-95.9867
 11
-16.8781
 21
-96.0429
  0
LINE
  8
0
 10
-16.8781
 20
-96.0429
 11
-17.1219
 21
-96.0429
  0
LINE
  8
0
 10
16.8781
 20
-111.043
 11
16.6409
 21
-110.987
  0
LINE
  8
0
 10
16.6409
 20
-110.987
 11
16.423
 21
-110.877
  0
LINE
  8
0
 10
16.423
 20
-110.877
 11
16.2363
 21
-110.721
  0
LINE
  8
0
 10
16.2363
 20
-110.721
 11
16.0907
 21
-110.525
  0
LINE
  8
0
 10
16.0907
 20
-110.525
 11
15.9941
 21
-110.301
  0
LINE
  8
0
 10
15.9941
 20
-110.301
 11
15.9518
 21
-110.061
  0
LINE
  8
0
 10
15.9518
 20
-110.061
 11
15.966
 21
-109.818
  0
LINE
  8
0
 10
15.966
 20
-109.818
 11
16.0359
 21
-109.584
  0
LINE
  8
0
 10
16.0359
 20
-109.584
 11
16.1578
 21
-109.373
  0
LINE
  8
0
 10
16.1578
 20
-109.373
 11
16.3251
 21
-109.196
  0
LINE
  8
0
 10
16.3251
 20
-109.196
 11
16.5288
 21
-109.062
  0
LINE
  8
0
 10
16.5288
 20
-109.062
 11
16.7579
 21
-108.978
  0
LINE
  8
0
 10
16.7579
 20
-108.978
 11
17
 21
-108.95
  0
LINE
  8
0
 10
17
 20
-108.95
 11
17.2421
 21
-108.978
  0
LINE
  8
0
 10
17.2421
 20
-108.978
 11
17.4712
 21
-109.062
  0
LINE
  8
0
 10
17.4712
 20
-109.062
 11
17.6749
 21
-109.196
  0
LINE
  8
0
 10
17.6749
 20
-109.196
 11
17.8422
 21
-109.373
  0
LINE
  8
0
 10
17.8422
 20
-109.373
 11
17.9641
 21
-109.584
  0
LINE
  8
0
 10
17.9641
 20
-109.584
 11
18.034
 21
-109.818
  0
LINE
  8
0
 10
18.034
 20
-109.818
 11
18.0482
 21
-110.061
  0
LINE
  8
0
 10
18.0482
 20
-110.061
 11
18.0059
 21
-110.301
  0
LINE
  8
0
 10
18.0059
 20
-110.301
 11
17.9093
 21
-110.525
  0
LINE
  8
0
 10
17.9093
 20
-110.525
 11
17.7637
 21
-110.721
  0
LINE
  8
0
 10
17.7637
 20
-110.721
 11
17.577
 21
-110.877
  0
LINE
  8
0
 10
17.577
 20
-110.877
 11
17.3591
 21
-110.987
  0
LINE
  8
0
 10
17.3591
 20
-110.987
 11
17.1219
 21
-111.043
  0
LINE
  8
0
 10
17.1219
 20
-111.043
 11
16.8781
 21
-111.043
  0
LINE
  8
0
 10
-17.1219
 20
-111.043
 11
-17.3591
 21
-110.987
  0
LINE
  8
0
 10
-17.3591
 20
-110.987
 11
-17.577
 21
-110.877
  0
LINE
  8
0
 10
-17.577
 20
-110.877
 11
-17.7637
 21
-110.721
  0
LINE
  8
0
 10
-17.7637
 20
-110.721
 11
-17.9093
 21
-110.525
  0
LINE
  8
0
 10
-17.9093
 20
-110.525
 11
-18.0059
 21
-110.301
  0
LINE
  8
0
 10
-18.0059
 20
-110.301
 11
-18.0482
 21
-110.061
  0
LINE
  8
0
 10
-18.0482
 20
-110.061
 11
-18.034
 21
-109.818
  0
LINE
  8
0
 10
-18.034
 20
-109.818
 11
-17.9641
 21
-109.584
  0
LINE
  8
0
 10
-17.9641
 20
-109.584
 11
-17.8422
 21
-109.373
  0
LINE
  8
0
 10
-17.8422
 20
-109.373
 11
-17.6749
 21
-109.196
  0
LINE
  8
0
 10
-17.6749
 20
-109.196
 11
-17.4712
 21
-109.062
  0
LINE
  8
0
 10
-17.4712
 20
-109.062
 11
-17.2421
 21
-108.978
  0
LINE
  8
0
 10
-17.2421
 20
-108.978
 11
-17
 21
-108.95
  0
LINE
  8
0
 10
-17
 20
-108.95
 11
-16.7579
 21
-108.978
  0
LINE
  8
0
 10
-16.7579
 20
-108.978
 11
-16.5288
 21
-109.062
  0
LINE
  8
0
 10
-16.5288
 20
-109.062
 11
-16.3251
 21
-109.196
  0
LINE
  8
0
 10
-16.3251
 20
-109.196
 11
-16.1578
 21
-109.373
  0
LINE
  8
0
 10
-16.1578
 20
-109.373
 11
-16.0359
 21
-109.584
  0
LINE
  8
0
 10
-16.0359
 20
-109.584
 11
-15.966
 21
-109.818
  0
LINE
  8
0
 10
-15.966
 20
-109.818
 11
-15.9518
 21
-110.061
  0
LINE
  8
0
 10
-15.9518
 20
-110.061
 11
-15.9941
 21
-110.301
  0
LINE
  8
0
 10
-15.9941
 20
-110.301
 11
-16.0907
 21
-110.525
  0
LINE
  8
0
 10
-16.0907
 20
-110.525
 11
-16.2363
 21
-110.721
  0
LINE
  8
0
 10
-16.2363
 20
-110.721
 11
-16.423
 21
-110.877
  0
LINE
  8
0
 10
-16.423
 20
-110.877
 11
-16.6409
 21
-110.987
  0
LINE
  8
0
 10
-16.6409
 20
-110.987
 11
-16.8781
 21
-111.043
  0
LINE
  8
0
 10
-16.8781
 20
-111.043
 11
-17.1219
 21
-111.043
  0
ENDSEC
  0
SECTION
  2
OBJECTS
  0
DICTIONARY
  0
ENDSEC
  0
EOF
