999
DXF from OpenSCAD
  0
SECTION
  2
HEADER
  9
$ACADVER
  1
AC1006
  9
$INSBASE
 10
0.0
 20
0.0
 30
0.0
  9
$EXTMIN
 10
-60
 20
-120
  9
$EXTMAX
 10
60
 20
120
  9
$LINMIN
 10
-60
 20
-120
  9
$LINMAX
 10
60
 20
120
  0
ENDSEC
  0
SECTION
  2
TABLES
  0
TABLE
  2
LTYPE
 70
1
  0
LTYPE
  2
CONTINUOUS
 70
64
  3
Solid line
 72
65
 73
0
 40
0.000000
  0
ENDTAB
  0
TABLE
  2
LAYER
 70
6
  0
LAYER
  2
0
 70
64
 62
7
  6
CONTINUOUS
  0
ENDTAB
  0
TABLE
  2
STYLE
 70
0
  0
ENDTAB
  0
ENDSEC
  0
SECTION
  2
BLOCKS
  0
ENDSEC
  0
SECTION
  2
ENTITIES
  0
LWPOLYLINE
100
AcDbEntity
  8
0
100
AcDbPolyline
 90
64
 70
1
 10
57.3136
 20
-119.984
 10
57.6237
 20
-119.934
 10
57.9271
 20
-119.853
 10
58.2202
 20
-119.741
 10
58.5
 20
-119.598
 10
58.7634
 20
-119.427
 10
59.0074
 20
-119.229
 10
59.2294
 20
-119.007
 10
59.4271
 20
-118.763
 10
59.5981
 20
-118.5
 10
59.7406
 20
-118.22
 10
59.8532
 20
-117.927
 10
59.9344
 20
-117.624
 10
59.9836
 20
-117.314
 10
60
 20
-117
 10
60
 20
117
 10
59.9836
 20
117.314
 10
59.9344
 20
117.624
 10
59.8532
 20
117.927
 10
59.7406
 20
118.22
 10
59.5981
 20
118.5
 10
59.4271
 20
118.763
 10
59.2294
 20
119.007
 10
59.0074
 20
119.229
 10
58.7634
 20
119.427
 10
58.5
 20
119.598
 10
58.2202
 20
119.741
 10
57.9271
 20
119.853
 10
57.6237
 20
119.934
 10
57.3136
 20
119.984
 10
57
 20
120
 10
-57
 20
120
 10
-57.3136
 20
119.984
 10
-57.6237
 20
119.934
 10
-57.9271
 20
119.853
 10
-58.2202
 20
119.741
 10
-58.5
 20
119.598
 10
-58.7634
 20
119.427
 10
-59.0074
 20
119.229
 10
-59.2294
 20
119.007
 10
-59.4271
 20
118.763
 10
-59.5981
 20
118.5
 10
-59.7406
 20
118.22
 10
-59.8532
 20
117.927
 10
-59.9344
 20
117.624
 10
-59.9836
 20
117.314
 10
-60
 20
117
 10
-60
 20
-117
 10
-59.9836
 20
-117.314
 10
-59.9344
 20
-117.624
 10
-59.8532
 20
-117.927
 10
-59.7406
 20
-118.22
 10
-59.5981
 20
-118.5
 10
-59.4271
 20
-118.763
 10
-59.2294
 20
-119.007
 10
-59.0074
 20
-119.229
 10
-58.7634
 20
-119.427
 10
-58.5
 20
-119.598
 10
-58.2202
 20
-119.741
 10
-57.9271
 20
-119.853
 10
-57.6237
 20
-119.934
 10
-57.3136
 20
-119.984
 10
-57
 20
-120
 10
57
 20
-120
  0
LWPOLYLINE
100
AcDbEntity
  8
0
100
AcDbPolyline
 90
41
 70
1
 10
53.3165
 20
102.911
 10
53.076
 20
102.957
 10
52.8455
 20
103.04
 10
52.6303
 20
103.157
 10
52.4355
 20
103.306
 10
52.2656
 20
103.482
 10
52.1247
 20
103.682
 10
52.016
 20
103.902
 10
51.9421
 20
104.135
 10
51.9047
 20
104.378
 10
51.9047
 20
104.622
 10
51.9421
 20
104.865
 10
52.016
 20
105.098
 10
52.1247
 20
105.318
 10
52.2656
 20
105.518
 10
52.4355
 20
105.694
 10
52.6303
 20
105.843
 10
52.8455
 20
105.96
 10
53.076
 20
106.043
 10
53.3165
 20
106.089
 10
53.5613
 20
106.099
 10
53.8046
 20
106.071
 10
54.0408
 20
106.006
 10
54.2644
 20
105.906
 10
54.47
 20
105.772
 10
54.6528
 20
105.609
 10
54.8087
 20
105.421
 10
54.9339
 20
105.21
 10
55.0254
 20
104.983
 10
55.0812
 20
104.744
 10
55.1
 20
104.5
 10
55.0812
 20
104.256
 10
55.0254
 20
104.017
 10
54.9339
 20
103.79
 10
54.8087
 20
103.579
 10
54.6528
 20
103.391
 10
54.47
 20
103.228
 10
54.2644
 20
103.094
 10
54.0408
 20
102.994
 10
53.8046
 20
102.929
 10
53.5613
 20
102.901
  0
LWPOLYLINE
100
AcDbEntity
  8
0
100
AcDbPolyline
 90
41
 70
1
 10
22.3165
 20
102.911
 10
22.076
 20
102.957
 10
21.8455
 20
103.04
 10
21.6303
 20
103.157
 10
21.4355
 20
103.306
 10
21.2656
 20
103.482
 10
21.1247
 20
103.682
 10
21.016
 20
103.902
 10
20.9421
 20
104.135
 10
20.9047
 20
104.378
 10
20.9047
 20
104.622
 10
20.9421
 20
104.865
 10
21.016
 20
105.098
 10
21.1247
 20
105.318
 10
21.2656
 20
105.518
 10
21.4355
 20
105.694
 10
21.6303
 20
105.843
 10
21.8455
 20
105.96
 10
22.076
 20
106.043
 10
22.3165
 20
106.089
 10
22.5613
 20
106.099
 10
22.8046
 20
106.071
 10
23.0408
 20
106.006
 10
23.2644
 20
105.906
 10
23.47
 20
105.772
 10
23.6528
 20
105.609
 10
23.8087
 20
105.421
 10
23.9339
 20
105.21
 10
24.0254
 20
104.983
 10
24.0812
 20
104.744
 10
24.1
 20
104.5
 10
24.0812
 20
104.256
 10
24.0254
 20
104.017
 10
23.9339
 20
103.79
 10
23.8087
 20
103.579
 10
23.6528
 20
103.391
 10
23.47
 20
103.228
 10
23.2644
 20
103.094
 10
23.0408
 20
102.994
 10
22.8046
 20
102.929
 10
22.5613
 20
102.901
  0
LWPOLYLINE
100
AcDbEntity
  8
0
100
AcDbPolyline
 90
41
 70
1
 10
-53.6835
 20
102.911
 10
-53.924
 20
102.957
 10
-54.1545
 20
103.04
 10
-54.3697
 20
103.157
 10
-54.5645
 20
103.306
 10
-54.7344
 20
103.482
 10
-54.8753
 20
103.682
 10
-54.984
 20
103.902
 10
-55.0579
 20
104.135
 10
-55.0953
 20
104.378
 10
-55.0953
 20
104.622
 10
-55.0579
 20
104.865
 10
-54.984
 20
105.098
 10
-54.8753
 20
105.318
 10
-54.7344
 20
105.518
 10
-54.5645
 20
105.694
 10
-54.3697
 20
105.843
 10
-54.1545
 20
105.96
 10
-53.924
 20
106.043
 10
-53.6835
 20
106.089
 10
-53.4387
 20
106.099
 10
-53.1954
 20
106.071
 10
-52.9592
 20
106.006
 10
-52.7356
 20
105.906
 10
-52.53
 20
105.772
 10
-52.3472
 20
105.609
 10
-52.1913
 20
105.421
 10
-52.0661
 20
105.21
 10
-51.9746
 20
104.983
 10
-51.9188
 20
104.744
 10
-51.9
 20
104.5
 10
-51.9188
 20
104.256
 10
-51.9746
 20
104.017
 10
-52.0661
 20
103.79
 10
-52.1913
 20
103.579
 10
-52.3472
 20
103.391
 10
-52.53
 20
103.228
 10
-52.7356
 20
103.094
 10
-52.9592
 20
102.994
 10
-53.1954
 20
102.929
 10
-53.4387
 20
102.901
  0
LWPOLYLINE
100
AcDbEntity
  8
0
100
AcDbPolyline
 90
41
 70
1
 10
-22.6835
 20
102.911
 10
-22.924
 20
102.957
 10
-23.1545
 20
103.04
 10
-23.3697
 20
103.157
 10
-23.5645
 20
103.306
 10
-23.7344
 20
103.482
 10
-23.8753
 20
103.682
 10
-23.984
 20
103.902
 10
-24.0579
 20
104.135
 10
-24.0953
 20
104.378
 10
-24.0953
 20
104.622
 10
-24.0579
 20
104.865
 10
-23.984
 20
105.098
 10
-23.8753
 20
105.318
 10
-23.7344
 20
105.518
 10
-23.5645
 20
105.694
 10
-23.3697
 20
105.843
 10
-23.1545
 20
105.96
 10
-22.924
 20
106.043
 10
-22.6835
 20
106.089
 10
-22.4387
 20
106.099
 10
-22.1954
 20
106.071
 10
-21.9592
 20
106.006
 10
-21.7356
 20
105.906
 10
-21.53
 20
105.772
 10
-21.3472
 20
105.609
 10
-21.1913
 20
105.421
 10
-21.0661
 20
105.21
 10
-20.9746
 20
104.983
 10
-20.9188
 20
104.744
 10
-20.9
 20
104.5
 10
-20.9188
 20
104.256
 10
-20.9746
 20
104.017
 10
-21.0661
 20
103.79
 10
-21.1913
 20
103.579
 10
-21.3472
 20
103.391
 10
-21.53
 20
103.228
 10
-21.7356
 20
103.094
 10
-21.9592
 20
102.994
 10
-22.1954
 20
102.929
 10
-22.4387
 20
102.901
  0
LWPOLYLINE
100
AcDbEntity
  8
0
100
AcDbPolyline
 90
60
 70
1
 10
-39.1707
 20
77.8614
 10
-40.3286
 20
78.0447
 10
-41.461
 20
78.3482
 10
-42.5555
 20
78.7683
 10
-43.6
 20
79.3005
 10
-44.5832
 20
79.939
 10
-45.4943
 20
80.6768
 10
-46.3232
 20
81.5057
 10
-47.061
 20
82.4168
 10
-47.6995
 20
83.4
 10
-48.2317
 20
84.4445
 10
-48.6518
 20
85.539
 10
-48.9553
 20
86.6714
 10
-49.1386
 20
87.8293
 10
-49.2
 20
89
 10
-49.1386
 20
90.1707
 10
-48.9553
 20
91.3286
 10
-48.6518
 20
92.461
 10
-48.2317
 20
93.5555
 10
-47.6995
 20
94.6
 10
-47.061
 20
95.5832
 10
-46.3232
 20
96.4943
 10
-45.4943
 20
97.3232
 10
-44.5832
 20
98.061
 10
-43.6
 20
98.6995
 10
-42.5555
 20
99.2317
 10
-41.461
 20
99.6518
 10
-40.3286
 20
99.9553
 10
-39.1707
 20
100.139
 10
-38
 20
100.2
 10
-36.8293
 20
100.139
 10
-35.6714
 20
99.9553
 10
-34.539
 20
99.6518
 10
-33.4445
 20
99.2317
 10
-32.4
 20
98.6995
 10
-31.4168
 20
98.061
 10
-30.5057
 20
97.3232
 10
-29.6768
 20
96.4943
 10
-28.939
 20
95.5832
 10
-28.3005
 20
94.6
 10
-27.7683
 20
93.5555
 10
-27.3482
 20
92.461
 10
-27.0447
 20
91.3286
 10
-26.8614
 20
90.1707
 10
-26.8
 20
89
 10
-26.8614
 20
87.8293
 10
-27.0447
 20
86.6714
 10
-27.3482
 20
85.539
 10
-27.7683
 20
84.4445
 10
-28.3005
 20
83.4
 10
-28.939
 20
82.4168
 10
-29.6768
 20
81.5057
 10
-30.5057
 20
80.6768
 10
-31.4168
 20
79.939
 10
-32.4
 20
79.3005
 10
-33.4445
 20
78.7683
 10
-34.539
 20
78.3482
 10
-35.6714
 20
78.0447
 10
-36.8293
 20
77.8614
 10
-38
 20
77.8
  0
LWPOLYLINE
100
AcDbEntity
  8
0
100
AcDbPolyline
 90
60
 70
1
 10
36.8502
 20
78.0603
 10
35.713
 20
78.2404
 10
34.6008
 20
78.5384
 10
33.5259
 20
78.951
 10
32.5
 20
79.4737
 10
31.5344
 20
80.1008
 10
30.6396
 20
80.8254
 10
29.8254
 20
81.6396
 10
29.1008
 20
82.5344
 10
28.4737
 20
83.5
 10
27.951
 20
84.5259
 10
27.5384
 20
85.6008
 10
27.2404
 20
86.713
 10
27.0603
 20
87.8502
 10
27
 20
89
 10
27.0603
 20
90.1498
 10
27.2404
 20
91.287
 10
27.5384
 20
92.3992
 10
27.951
 20
93.4741
 10
28.4737
 20
94.5
 10
29.1008
 20
95.4656
 10
29.8254
 20
96.3604
 10
30.6396
 20
97.1746
 10
31.5344
 20
97.8992
 10
32.5
 20
98.5263
 10
33.5259
 20
99.049
 10
34.6008
 20
99.4616
 10
35.713
 20
99.7596
 10
36.8502
 20
99.9397
 10
38
 20
100
 10
39.1498
 20
99.9397
 10
40.287
 20
99.7596
 10
41.3992
 20
99.4616
 10
42.4741
 20
99.049
 10
43.5
 20
98.5263
 10
44.4656
 20
97.8992
 10
45.3604
 20
97.1746
 10
46.1746
 20
96.3604
 10
46.8992
 20
95.4656
 10
47.5263
 20
94.5
 10
48.049
 20
93.4741
 10
48.4616
 20
92.3992
 10
48.7596
 20
91.287
 10
48.9397
 20
90.1498
 10
49
 20
89
 10
48.9397
 20
87.8502
 10
48.7596
 20
86.713
 10
48.4616
 20
85.6008
 10
48.049
 20
84.5259
 10
47.5263
 20
83.5
 10
46.8992
 20
82.5344
 10
46.1746
 20
81.6396
 10
45.3604
 20
80.8254
 10
44.4656
 20
80.1008
 10
43.5
 20
79.4737
 10
42.4741
 20
78.951
 10
41.3992
 20
78.5384
 10
40.287
 20
78.2404
 10
39.1498
 20
78.0603
 10
38
 20
78
  0
LWPOLYLINE
100
AcDbEntity
  8
0
100
AcDbPolyline
 90
41
 70
1
 10
53.3165
 20
71.9106
 10
53.076
 20
71.9572
 10
52.8455
 20
72.04
 10
52.6303
 20
72.157
 10
52.4355
 20
72.3055
 10
52.2656
 20
72.482
 10
52.1247
 20
72.6824
 10
52.016
 20
72.9019
 10
51.9421
 20
73.1354
 10
51.9047
 20
73.3775
 10
51.9047
 20
73.6225
 10
51.9421
 20
73.8646
 10
52.016
 20
74.0981
 10
52.1247
 20
74.3176
 10
52.2656
 20
74.518
 10
52.4355
 20
74.6945
 10
52.6303
 20
74.843
 10
52.8455
 20
74.96
 10
53.076
 20
75.0428
 10
53.3165
 20
75.0894
 10
53.5613
 20
75.0988
 10
53.8046
 20
75.0707
 10
54.0408
 20
75.0058
 10
54.2644
 20
74.9056
 10
54.47
 20
74.7725
 10
54.6528
 20
74.6095
 10
54.8087
 20
74.4205
 10
54.9339
 20
74.21
 10
55.0254
 20
73.9828
 10
55.0812
 20
73.7442
 10
55.1
 20
73.5
 10
55.0812
 20
73.2558
 10
55.0254
 20
73.0172
 10
54.9339
 20
72.79
 10
54.8087
 20
72.5795
 10
54.6528
 20
72.3905
 10
54.47
 20
72.2275
 10
54.2644
 20
72.0944
 10
54.0408
 20
71.9942
 10
53.8046
 20
71.9293
 10
53.5613
 20
71.9012
  0
LWPOLYLINE
100
AcDbEntity
  8
0
100
AcDbPolyline
 90
41
 70
1
 10
-53.6835
 20
71.9106
 10
-53.924
 20
71.9572
 10
-54.1545
 20
72.04
 10
-54.3697
 20
72.157
 10
-54.5645
 20
72.3055
 10
-54.7344
 20
72.482
 10
-54.8753
 20
72.6824
 10
-54.984
 20
72.9019
 10
-55.0579
 20
73.1354
 10
-55.0953
 20
73.3775
 10
-55.0953
 20
73.6225
 10
-55.0579
 20
73.8646
 10
-54.984
 20
74.0981
 10
-54.8753
 20
74.3176
 10
-54.7344
 20
74.518
 10
-54.5645
 20
74.6945
 10
-54.3697
 20
74.843
 10
-54.1545
 20
74.96
 10
-53.924
 20
75.0428
 10
-53.6835
 20
75.0894
 10
-53.4387
 20
75.0988
 10
-53.1954
 20
75.0707
 10
-52.9592
 20
75.0058
 10
-52.7356
 20
74.9056
 10
-52.53
 20
74.7725
 10
-52.3472
 20
74.6095
 10
-52.1913
 20
74.4205
 10
-52.0661
 20
74.21
 10
-51.9746
 20
73.9828
 10
-51.9188
 20
73.7442
 10
-51.9
 20
73.5
 10
-51.9188
 20
73.2558
 10
-51.9746
 20
73.0172
 10
-52.0661
 20
72.79
 10
-52.1913
 20
72.5795
 10
-52.3472
 20
72.3905
 10
-52.53
 20
72.2275
 10
-52.7356
 20
72.0944
 10
-52.9592
 20
71.9942
 10
-53.1954
 20
71.9293
 10
-53.4387
 20
71.9012
  0
LWPOLYLINE
100
AcDbEntity
  8
0
100
AcDbPolyline
 90
41
 70
1
 10
-22.6835
 20
71.9106
 10
-22.924
 20
71.9572
 10
-23.1545
 20
72.04
 10
-23.3697
 20
72.157
 10
-23.5645
 20
72.3055
 10
-23.7344
 20
72.482
 10
-23.8753
 20
72.6824
 10
-23.984
 20
72.9019
 10
-24.0579
 20
73.1354
 10
-24.0953
 20
73.3775
 10
-24.0953
 20
73.6225
 10
-24.0579
 20
73.8646
 10
-23.984
 20
74.0981
 10
-23.8753
 20
74.3176
 10
-23.7344
 20
74.518
 10
-23.5645
 20
74.6945
 10
-23.3697
 20
74.843
 10
-23.1545
 20
74.96
 10
-22.924
 20
75.0428
 10
-22.6835
 20
75.0894
 10
-22.4387
 20
75.0988
 10
-22.1954
 20
75.0707
 10
-21.9592
 20
75.0058
 10
-21.7356
 20
74.9056
 10
-21.53
 20
74.7725
 10
-21.3472
 20
74.6095
 10
-21.1913
 20
74.4205
 10
-21.0661
 20
74.21
 10
-20.9746
 20
73.9828
 10
-20.9188
 20
73.7442
 10
-20.9
 20
73.5
 10
-20.9188
 20
73.2558
 10
-20.9746
 20
73.0172
 10
-21.0661
 20
72.79
 10
-21.1913
 20
72.5795
 10
-21.3472
 20
72.3905
 10
-21.53
 20
72.2275
 10
-21.7356
 20
72.0944
 10
-21.9592
 20
71.9942
 10
-22.1954
 20
71.9293
 10
-22.4387
 20
71.9012
  0
LWPOLYLINE
100
AcDbEntity
  8
0
100
AcDbPolyline
 90
41
 70
1
 10
22.3165
 20
71.9106
 10
22.076
 20
71.9572
 10
21.8455
 20
72.04
 10
21.6303
 20
72.157
 10
21.4355
 20
72.3055
 10
21.2656
 20
72.482
 10
21.1247
 20
72.6824
 10
21.016
 20
72.9019
 10
20.9421
 20
73.1354
 10
20.9047
 20
73.3775
 10
20.9047
 20
73.6225
 10
20.9421
 20
73.8646
 10
21.016
 20
74.0981
 10
21.1247
 20
74.3176
 10
21.2656
 20
74.518
 10
21.4355
 20
74.6945
 10
21.6303
 20
74.843
 10
21.8455
 20
74.96
 10
22.076
 20
75.0428
 10
22.3165
 20
75.0894
 10
22.5613
 20
75.0988
 10
22.8046
 20
75.0707
 10
23.0408
 20
75.0058
 10
23.2644
 20
74.9056
 10
23.47
 20
74.7725
 10
23.6528
 20
74.6095
 10
23.8087
 20
74.4205
 10
23.9339
 20
74.21
 10
24.0254
 20
73.9828
 10
24.0812
 20
73.7442
 10
24.1
 20
73.5
 10
24.0812
 20
73.2558
 10
24.0254
 20
73.0172
 10
23.9339
 20
72.79
 10
23.8087
 20
72.5795
 10
23.6528
 20
72.3905
 10
23.47
 20
72.2275
 10
23.2644
 20
72.0944
 10
23.0408
 20
71.9942
 10
22.8046
 20
71.9293
 10
22.5613
 20
71.9012
  0
LWPOLYLINE
100
AcDbEntity
  8
0
100
AcDbPolyline
 90
60
 70
1
 10
29.7282
 20
35.4142
 10
29.4594
 20
35.4568
 10
29.1966
 20
35.5273
 10
28.9425
 20
35.6248
 10
28.7
 20
35.7483
 10
28.4718
 20
35.8966
 10
28.2603
 20
36.0678
 10
28.0678
 20
36.2603
 10
27.8966
 20
36.4718
 10
27.7483
 20
36.7
 10
27.6248
 20
36.9425
 10
27.5273
 20
37.1966
 10
27.4568
 20
37.4594
 10
27.4142
 20
37.7282
 10
27.4
 20
38
 10
27.4142
 20
38.2718
 10
27.4568
 20
38.5406
 10
27.5273
 20
38.8034
 10
27.6248
 20
39.0575
 10
27.7483
 20
39.3
 10
27.8966
 20
39.5282
 10
28.0678
 20
39.7397
 10
28.2603
 20
39.9322
 10
28.4718
 20
40.1034
 10
28.7
 20
40.2517
 10
28.9425
 20
40.3752
 10
29.1966
 20
40.4727
 10
29.4594
 20
40.5432
 10
29.7282
 20
40.5858
 10
30
 20
40.6
 10
30.2718
 20
40.5858
 10
30.5406
 20
40.5432
 10
30.8034
 20
40.4727
 10
31.0575
 20
40.3752
 10
31.3
 20
40.2517
 10
31.5282
 20
40.1034
 10
31.7397
 20
39.9322
 10
31.9322
 20
39.7397
 10
32.1034
 20
39.5282
 10
32.2517
 20
39.3
 10
32.3752
 20
39.0575
 10
32.4727
 20
38.8034
 10
32.5432
 20
38.5406
 10
32.5858
 20
38.2718
 10
32.6
 20
38
 10
32.5858
 20
37.7282
 10
32.5432
 20
37.4594
 10
32.4727
 20
37.1966
 10
32.3752
 20
36.9425
 10
32.2517
 20
36.7
 10
32.1034
 20
36.4718
 10
31.9322
 20
36.2603
 10
31.7397
 20
36.0678
 10
31.5282
 20
35.8966
 10
31.3
 20
35.7483
 10
31.0575
 20
35.6248
 10
30.8034
 20
35.5273
 10
30.5406
 20
35.4568
 10
30.2718
 20
35.4142
 10
30
 20
35.4
  0
LWPOLYLINE
100
AcDbEntity
  8
0
100
AcDbPolyline
 90
60
 70
1
 10
-30.2718
 20
35.4142
 10
-30.5406
 20
35.4568
 10
-30.8034
 20
35.5273
 10
-31.0575
 20
35.6248
 10
-31.3
 20
35.7483
 10
-31.5282
 20
35.8966
 10
-31.7397
 20
36.0678
 10
-31.9322
 20
36.2603
 10
-32.1034
 20
36.4718
 10
-32.2517
 20
36.7
 10
-32.3752
 20
36.9425
 10
-32.4727
 20
37.1966
 10
-32.5432
 20
37.4594
 10
-32.5858
 20
37.7282
 10
-32.6
 20
38
 10
-32.5858
 20
38.2718
 10
-32.5432
 20
38.5406
 10
-32.4727
 20
38.8034
 10
-32.3752
 20
39.0575
 10
-32.2517
 20
39.3
 10
-32.1034
 20
39.5282
 10
-31.9322
 20
39.7397
 10
-31.7397
 20
39.9322
 10
-31.5282
 20
40.1034
 10
-31.3
 20
40.2517
 10
-31.0575
 20
40.3752
 10
-30.8034
 20
40.4727
 10
-30.5406
 20
40.5432
 10
-30.2718
 20
40.5858
 10
-30
 20
40.6
 10
-29.7282
 20
40.5858
 10
-29.4594
 20
40.5432
 10
-29.1966
 20
40.4727
 10
-28.9425
 20
40.3752
 10
-28.7
 20
40.2517
 10
-28.4718
 20
40.1034
 10
-28.2603
 20
39.9322
 10
-28.0678
 20
39.7397
 10
-27.8966
 20
39.5282
 10
-27.7483
 20
39.3
 10
-27.6248
 20
39.0575
 10
-27.5273
 20
38.8034
 10
-27.4568
 20
38.5406
 10
-27.4142
 20
38.2718
 10
-27.4
 20
38
 10
-27.4142
 20
37.7282
 10
-27.4568
 20
37.4594
 10
-27.5273
 20
37.1966
 10
-27.6248
 20
36.9425
 10
-27.7483
 20
36.7
 10
-27.8966
 20
36.4718
 10
-28.0678
 20
36.2603
 10
-28.2603
 20
36.0678
 10
-28.4718
 20
35.8966
 10
-28.7
 20
35.7483
 10
-28.9425
 20
35.6248
 10
-29.1966
 20
35.5273
 10
-29.4594
 20
35.4568
 10
-29.7282
 20
35.4142
 10
-30
 20
35.4
  0
LWPOLYLINE
100
AcDbEntity
  8
0
100
AcDbPolyline
 90
53
 70
1
 10
26.8135
 20
-4.0917
 10
26.5674
 20
-4.05497
 10
26.3274
 20
-3.98939
 10
26.0969
 20
-3.89588
 10
25.879
 20
-3.77575
 10
25.6768
 20
-3.6307
 10
25.4932
 20
-3.46276
 10
25.3308
 20
-3.27428
 10
25.1918
 20
-3.06792
 10
25.0782
 20
-2.84656
 10
24.9916
 20
-2.61332
 10
24.9331
 20
-2.37147
 10
24.9037
 20
-2.12441
 10
24.9037
 20
-1.87559
 10
24.9331
 20
-1.62853
 10
24.9916
 20
-1.38668
 10
25.0782
 20
-1.15344
 10
25.1918
 20
-0.932085
 10
25.3308
 20
-0.72572
 10
25.4932
 20
-0.537243
 10
25.6768
 20
-0.3693
 10
25.879
 20
-0.224248
 10
26.0969
 20
-0.104125
 10
26.3274
 20
-0.0106147
 10
26.5674
 20
0.0549686
 10
26.8135
 20
0.0917047
 10
27.0622
 20
0.0990778
 10
27.3101
 20
0.0769844
 10
27.5535
 20
0.0257347
 10
27.7892
 20
-0.0539518
 10
28.0139
 20
-0.160957
 10
28.2243
 20
-0.293778
 10
28.4175
 20
-0.45055
 10
28.5908
 20
-0.629074
 10
28.7418
 20
-0.826842
 10
28.8683
 20
-1.04108
 10
28.9686
 20
-1.26878
 10
29.0412
 20
-1.50674
 10
29.0853
 20
-1.75163
 10
29.1
 20
-2
 10
29.0853
 20
-2.24837
 10
29.0412
 20
-2.49326
 10
28.9686
 20
-2.73122
 10
28.8683
 20
-2.95892
 10
28.7418
 20
-3.17316
 10
28.5908
 20
-3.37093
 10
28.4175
 20
-3.54945
 10
28.2243
 20
-3.70622
 10
28.0139
 20
-3.83904
 10
27.7892
 20
-3.94605
 10
27.5535
 20
-4.02573
 10
27.3101
 20
-4.07698
 10
27.0622
 20
-4.09908
  0
LWPOLYLINE
100
AcDbEntity
  8
0
100
AcDbPolyline
 90
53
 70
1
 10
52.8135
 20
-4.0917
 10
52.5674
 20
-4.05497
 10
52.3274
 20
-3.98939
 10
52.0969
 20
-3.89588
 10
51.879
 20
-3.77575
 10
51.6768
 20
-3.6307
 10
51.4932
 20
-3.46276
 10
51.3308
 20
-3.27428
 10
51.1918
 20
-3.06792
 10
51.0782
 20
-2.84656
 10
50.9916
 20
-2.61332
 10
50.9331
 20
-2.37147
 10
50.9037
 20
-2.12441
 10
50.9037
 20
-1.87559
 10
50.9331
 20
-1.62853
 10
50.9916
 20
-1.38668
 10
51.0782
 20
-1.15344
 10
51.1918
 20
-0.932085
 10
51.3308
 20
-0.72572
 10
51.4932
 20
-0.537243
 10
51.6768
 20
-0.3693
 10
51.879
 20
-0.224248
 10
52.0969
 20
-0.104125
 10
52.3274
 20
-0.0106147
 10
52.5674
 20
0.0549686
 10
52.8135
 20
0.0917047
 10
53.0622
 20
0.0990778
 10
53.3101
 20
0.0769844
 10
53.5535
 20
0.0257347
 10
53.7892
 20
-0.0539518
 10
54.0139
 20
-0.160957
 10
54.2243
 20
-0.293778
 10
54.4175
 20
-0.45055
 10
54.5908
 20
-0.629074
 10
54.7418
 20
-0.826842
 10
54.8683
 20
-1.04108
 10
54.9686
 20
-1.26878
 10
55.0412
 20
-1.50674
 10
55.0853
 20
-1.75163
 10
55.1
 20
-2
 10
55.0853
 20
-2.24837
 10
55.0412
 20
-2.49326
 10
54.9686
 20
-2.73122
 10
54.8683
 20
-2.95892
 10
54.7418
 20
-3.17316
 10
54.5908
 20
-3.37093
 10
54.4175
 20
-3.54945
 10
54.2243
 20
-3.70622
 10
54.0139
 20
-3.83904
 10
53.7892
 20
-3.94605
 10
53.5535
 20
-4.02573
 10
53.3101
 20
-4.07698
 10
53.0622
 20
-4.09908
  0
LWPOLYLINE
100
AcDbEntity
  8
0
100
AcDbPolyline
 90
53
 70
1
 10
-53.1865
 20
-4.0917
 10
-53.4326
 20
-4.05497
 10
-53.6726
 20
-3.98939
 10
-53.9031
 20
-3.89588
 10
-54.121
 20
-3.77575
 10
-54.3232
 20
-3.6307
 10
-54.5068
 20
-3.46276
 10
-54.6692
 20
-3.27428
 10
-54.8082
 20
-3.06792
 10
-54.9218
 20
-2.84656
 10
-55.0084
 20
-2.61332
 10
-55.0669
 20
-2.37147
 10
-55.0963
 20
-2.12441
 10
-55.0963
 20
-1.87559
 10
-55.0669
 20
-1.62853
 10
-55.0084
 20
-1.38668
 10
-54.9218
 20
-1.15344
 10
-54.8082
 20
-0.932085
 10
-54.6692
 20
-0.72572
 10
-54.5068
 20
-0.537243
 10
-54.3232
 20
-0.3693
 10
-54.121
 20
-0.224248
 10
-53.9031
 20
-0.104125
 10
-53.6726
 20
-0.0106147
 10
-53.4326
 20
0.0549686
 10
-53.1865
 20
0.0917047
 10
-52.9378
 20
0.0990778
 10
-52.6899
 20
0.0769844
 10
-52.4465
 20
0.0257347
 10
-52.2108
 20
-0.0539518
 10
-51.9861
 20
-0.160957
 10
-51.7757
 20
-0.293778
 10
-51.5825
 20
-0.45055
 10
-51.4092
 20
-0.629074
 10
-51.2582
 20
-0.826842
 10
-51.1317
 20
-1.04108
 10
-51.0314
 20
-1.26878
 10
-50.9588
 20
-1.50674
 10
-50.9147
 20
-1.75163
 10
-50.9
 20
-2
 10
-50.9147
 20
-2.24837
 10
-50.9588
 20
-2.49326
 10
-51.0314
 20
-2.73122
 10
-51.1317
 20
-2.95892
 10
-51.2582
 20
-3.17316
 10
-51.4092
 20
-3.37093
 10
-51.5825
 20
-3.54945
 10
-51.7757
 20
-3.70622
 10
-51.9861
 20
-3.83904
 10
-52.2108
 20
-3.94605
 10
-52.4465
 20
-4.02573
 10
-52.6899
 20
-4.07698
 10
-52.9378
 20
-4.09908
  0
LWPOLYLINE
100
AcDbEntity
  8
0
100
AcDbPolyline
 90
53
 70
1
 10
-27.1865
 20
-4.0917
 10
-27.4326
 20
-4.05497
 10
-27.6726
 20
-3.98939
 10
-27.9031
 20
-3.89588
 10
-28.121
 20
-3.77575
 10
-28.3232
 20
-3.6307
 10
-28.5068
 20
-3.46276
 10
-28.6692
 20
-3.27428
 10
-28.8082
 20
-3.06792
 10
-28.9218
 20
-2.84656
 10
-29.0084
 20
-2.61332
 10
-29.0669
 20
-2.37147
 10
-29.0963
 20
-2.12441
 10
-29.0963
 20
-1.87559
 10
-29.0669
 20
-1.62853
 10
-29.0084
 20
-1.38668
 10
-28.9218
 20
-1.15344
 10
-28.8082
 20
-0.932085
 10
-28.6692
 20
-0.72572
 10
-28.5068
 20
-0.537243
 10
-28.3232
 20
-0.3693
 10
-28.121
 20
-0.224248
 10
-27.9031
 20
-0.104125
 10
-27.6726
 20
-0.0106147
 10
-27.4326
 20
0.0549686
 10
-27.1865
 20
0.0917047
 10
-26.9378
 20
0.0990778
 10
-26.6899
 20
0.0769844
 10
-26.4465
 20
0.0257347
 10
-26.2108
 20
-0.0539518
 10
-25.9861
 20
-0.160957
 10
-25.7757
 20
-0.293778
 10
-25.5825
 20
-0.45055
 10
-25.4092
 20
-0.629074
 10
-25.2582
 20
-0.826842
 10
-25.1317
 20
-1.04108
 10
-25.0314
 20
-1.26878
 10
-24.9588
 20
-1.50674
 10
-24.9147
 20
-1.75163
 10
-24.9
 20
-2
 10
-24.9147
 20
-2.24837
 10
-24.9588
 20
-2.49326
 10
-25.0314
 20
-2.73122
 10
-25.1317
 20
-2.95892
 10
-25.2582
 20
-3.17316
 10
-25.4092
 20
-3.37093
 10
-25.5825
 20
-3.54945
 10
-25.7757
 20
-3.70622
 10
-25.9861
 20
-3.83904
 10
-26.2108
 20
-3.94605
 10
-26.4465
 20
-4.02573
 10
-26.6899
 20
-4.07698
 10
-26.9378
 20
-4.09908
  0
LWPOLYLINE
100
AcDbEntity
  8
0
100
AcDbPolyline
 90
27
 70
1
 10
-14.1219
 20
-21.0429
 10
-14.3591
 20
-20.9867
 10
-14.577
 20
-20.8773
 10
-14.7637
 20
-20.7206
 10
-14.9093
 20
-20.525
 10
-15.0059
 20
-20.3011
 10
-15.0482
 20
-20.0611
 10
-15.034
 20
-19.8177
 10
-14.9641
 20
-19.5841
 10
-14.8422
 20
-19.373
 10
-14.6749
 20
-19.1957
 10
-14.4712
 20
-19.0617
 10
-14.2421
 20
-18.9783
 10
-14
 20
-18.95
 10
-13.7579
 20
-18.9783
 10
-13.5288
 20
-19.0617
 10
-13.3251
 20
-19.1957
 10
-13.1578
 20
-19.373
 10
-13.0359
 20
-19.5841
 10
-12.966
 20
-19.8177
 10
-12.9518
 20
-20.0611
 10
-12.9941
 20
-20.3011
 10
-13.0907
 20
-20.525
 10
-13.2363
 20
-20.7206
 10
-13.423
 20
-20.8773
 10
-13.6409
 20
-20.9867
 10
-13.8781
 20
-21.0429
  0
LWPOLYLINE
100
AcDbEntity
  8
0
100
AcDbPolyline
 90
27
 70
1
 10
13.8781
 20
-21.0429
 10
13.6409
 20
-20.9867
 10
13.423
 20
-20.8773
 10
13.2363
 20
-20.7206
 10
13.0907
 20
-20.525
 10
12.9941
 20
-20.3011
 10
12.9518
 20
-20.0611
 10
12.966
 20
-19.8177
 10
13.0359
 20
-19.5841
 10
13.1578
 20
-19.373
 10
13.3251
 20
-19.1957
 10
13.5288
 20
-19.0617
 10
13.7579
 20
-18.9783
 10
14
 20
-18.95
 10
14.2421
 20
-18.9783
 10
14.4712
 20
-19.0617
 10
14.6749
 20
-19.1957
 10
14.8422
 20
-19.373
 10
14.9641
 20
-19.5841
 10
15.034
 20
-19.8177
 10
15.0482
 20
-20.0611
 10
15.0059
 20
-20.3011
 10
14.9093
 20
-20.525
 10
14.7637
 20
-20.7206
 10
14.577
 20
-20.8773
 10
14.3591
 20
-20.9867
 10
14.1219
 20
-21.0429
  0
LWPOLYLINE
100
AcDbEntity
  8
0
100
AcDbPolyline
 90
53
 70
1
 10
52.8135
 20
-30.0917
 10
52.5674
 20
-30.055
 10
52.3274
 20
-29.9894
 10
52.0969
 20
-29.8959
 10
51.879
 20
-29.7758
 10
51.6768
 20
-29.6307
 10
51.4932
 20
-29.4628
 10
51.3308
 20
-29.2743
 10
51.1918
 20
-29.0679
 10
51.0782
 20
-28.8466
 10
50.9916
 20
-28.6133
 10
50.9331
 20
-28.3715
 10
50.9037
 20
-28.1244
 10
50.9037
 20
-27.8756
 10
50.9331
 20
-27.6285
 10
50.9916
 20
-27.3867
 10
51.0782
 20
-27.1534
 10
51.1918
 20
-26.9321
 10
51.3308
 20
-26.7257
 10
51.4932
 20
-26.5372
 10
51.6768
 20
-26.3693
 10
51.879
 20
-26.2242
 10
52.0969
 20
-26.1041
 10
52.3274
 20
-26.0106
 10
52.5674
 20
-25.945
 10
52.8135
 20
-25.9083
 10
53.0622
 20
-25.9009
 10
53.3101
 20
-25.923
 10
53.5535
 20
-25.9743
 10
53.7892
 20
-26.054
 10
54.0139
 20
-26.161
 10
54.2243
 20
-26.2938
 10
54.4175
 20
-26.4506
 10
54.5908
 20
-26.6291
 10
54.7418
 20
-26.8268
 10
54.8683
 20
-27.0411
 10
54.9686
 20
-27.2688
 10
55.0412
 20
-27.5067
 10
55.0853
 20
-27.7516
 10
55.1
 20
-28
 10
55.0853
 20
-28.2484
 10
55.0412
 20
-28.4933
 10
54.9686
 20
-28.7312
 10
54.8683
 20
-28.9589
 10
54.7418
 20
-29.1732
 10
54.5908
 20
-29.3709
 10
54.4175
 20
-29.5494
 10
54.2243
 20
-29.7062
 10
54.0139
 20
-29.839
 10
53.7892
 20
-29.946
 10
53.5535
 20
-30.0257
 10
53.3101
 20
-30.077
 10
53.0622
 20
-30.0991
  0
LWPOLYLINE
100
AcDbEntity
  8
0
100
AcDbPolyline
 90
53
 70
1
 10
-27.1865
 20
-30.0917
 10
-27.4326
 20
-30.055
 10
-27.6726
 20
-29.9894
 10
-27.9031
 20
-29.8959
 10
-28.121
 20
-29.7758
 10
-28.3232
 20
-29.6307
 10
-28.5068
 20
-29.4628
 10
-28.6692
 20
-29.2743
 10
-28.8082
 20
-29.0679
 10
-28.9218
 20
-28.8466
 10
-29.0084
 20
-28.6133
 10
-29.0669
 20
-28.3715
 10
-29.0963
 20
-28.1244
 10
-29.0963
 20
-27.8756
 10
-29.0669
 20
-27.6285
 10
-29.0084
 20
-27.3867
 10
-28.9218
 20
-27.1534
 10
-28.8082
 20
-26.9321
 10
-28.6692
 20
-26.7257
 10
-28.5068
 20
-26.5372
 10
-28.3232
 20
-26.3693
 10
-28.121
 20
-26.2242
 10
-27.9031
 20
-26.1041
 10
-27.6726
 20
-26.0106
 10
-27.4326
 20
-25.945
 10
-27.1865
 20
-25.9083
 10
-26.9378
 20
-25.9009
 10
-26.6899
 20
-25.923
 10
-26.4465
 20
-25.9743
 10
-26.2108
 20
-26.054
 10
-25.9861
 20
-26.161
 10
-25.7757
 20
-26.2938
 10
-25.5825
 20
-26.4506
 10
-25.4092
 20
-26.6291
 10
-25.2582
 20
-26.8268
 10
-25.1317
 20
-27.0411
 10
-25.0314
 20
-27.2688
 10
-24.9588
 20
-27.5067
 10
-24.9147
 20
-27.7516
 10
-24.9
 20
-28
 10
-24.9147
 20
-28.2484
 10
-24.9588
 20
-28.4933
 10
-25.0314
 20
-28.7312
 10
-25.1317
 20
-28.9589
 10
-25.2582
 20
-29.1732
 10
-25.4092
 20
-29.3709
 10
-25.5825
 20
-29.5494
 10
-25.7757
 20
-29.7062
 10
-25.9861
 20
-29.839
 10
-26.2108
 20
-29.946
 10
-26.4465
 20
-30.0257
 10
-26.6899
 20
-30.077
 10
-26.9378
 20
-30.0991
  0
LWPOLYLINE
100
AcDbEntity
  8
0
100
AcDbPolyline
 90
53
 70
1
 10
-53.1865
 20
-30.0917
 10
-53.4326
 20
-30.055
 10
-53.6726
 20
-29.9894
 10
-53.9031
 20
-29.8959
 10
-54.121
 20
-29.7758
 10
-54.3232
 20
-29.6307
 10
-54.5068
 20
-29.4628
 10
-54.6692
 20
-29.2743
 10
-54.8082
 20
-29.0679
 10
-54.9218
 20
-28.8466
 10
-55.0084
 20
-28.6133
 10
-55.0669
 20
-28.3715
 10
-55.0963
 20
-28.1244
 10
-55.0963
 20
-27.8756
 10
-55.0669
 20
-27.6285
 10
-55.0084
 20
-27.3867
 10
-54.9218
 20
-27.1534
 10
-54.8082
 20
-26.9321
 10
-54.6692
 20
-26.7257
 10
-54.5068
 20
-26.5372
 10
-54.3232
 20
-26.3693
 10
-54.121
 20
-26.2242
 10
-53.9031
 20
-26.1041
 10
-53.6726
 20
-26.0106
 10
-53.4326
 20
-25.945
 10
-53.1865
 20
-25.9083
 10
-52.9378
 20
-25.9009
 10
-52.6899
 20
-25.923
 10
-52.4465
 20
-25.9743
 10
-52.2108
 20
-26.054
 10
-51.9861
 20
-26.161
 10
-51.7757
 20
-26.2938
 10
-51.5825
 20
-26.4506
 10
-51.4092
 20
-26.6291
 10
-51.2582
 20
-26.8268
 10
-51.1317
 20
-27.0411
 10
-51.0314
 20
-27.2688
 10
-50.9588
 20
-27.5067
 10
-50.9147
 20
-27.7516
 10
-50.9
 20
-28
 10
-50.9147
 20
-28.2484
 10
-50.9588
 20
-28.4933
 10
-51.0314
 20
-28.7312
 10
-51.1317
 20
-28.9589
 10
-51.2582
 20
-29.1732
 10
-51.4092
 20
-29.3709
 10
-51.5825
 20
-29.5494
 10
-51.7757
 20
-29.7062
 10
-51.9861
 20
-29.839
 10
-52.2108
 20
-29.946
 10
-52.4465
 20
-30.0257
 10
-52.6899
 20
-30.077
 10
-52.9378
 20
-30.0991
  0
LWPOLYLINE
100
AcDbEntity
  8
0
100
AcDbPolyline
 90
53
 70
1
 10
26.8135
 20
-30.0917
 10
26.5674
 20
-30.055
 10
26.3274
 20
-29.9894
 10
26.0969
 20
-29.8959
 10
25.879
 20
-29.7758
 10
25.6768
 20
-29.6307
 10
25.4932
 20
-29.4628
 10
25.3308
 20
-29.2743
 10
25.1918
 20
-29.0679
 10
25.0782
 20
-28.8466
 10
24.9916
 20
-28.6133
 10
24.9331
 20
-28.3715
 10
24.9037
 20
-28.1244
 10
24.9037
 20
-27.8756
 10
24.9331
 20
-27.6285
 10
24.9916
 20
-27.3867
 10
25.0782
 20
-27.1534
 10
25.1918
 20
-26.9321
 10
25.3308
 20
-26.7257
 10
25.4932
 20
-26.5372
 10
25.6768
 20
-26.3693
 10
25.879
 20
-26.2242
 10
26.0969
 20
-26.1041
 10
26.3274
 20
-26.0106
 10
26.5674
 20
-25.945
 10
26.8135
 20
-25.9083
 10
27.0622
 20
-25.9009
 10
27.3101
 20
-25.923
 10
27.5535
 20
-25.9743
 10
27.7892
 20
-26.054
 10
28.0139
 20
-26.161
 10
28.2243
 20
-26.2938
 10
28.4175
 20
-26.4506
 10
28.5908
 20
-26.6291
 10
28.7418
 20
-26.8268
 10
28.8683
 20
-27.0411
 10
28.9686
 20
-27.2688
 10
29.0412
 20
-27.5067
 10
29.0853
 20
-27.7516
 10
29.1
 20
-28
 10
29.0853
 20
-28.2484
 10
29.0412
 20
-28.4933
 10
28.9686
 20
-28.7312
 10
28.8683
 20
-28.9589
 10
28.7418
 20
-29.1732
 10
28.5908
 20
-29.3709
 10
28.4175
 20
-29.5494
 10
28.2243
 20
-29.7062
 10
28.0139
 20
-29.839
 10
27.7892
 20
-29.946
 10
27.5535
 20
-30.0257
 10
27.3101
 20
-30.077
 10
27.0622
 20
-30.0991
  0
LWPOLYLINE
100
AcDbEntity
  8
0
100
AcDbPolyline
 90
27
 70
1
 10
13.8781
 20
-36.0429
 10
13.6409
 20
-35.9867
 10
13.423
 20
-35.8773
 10
13.2363
 20
-35.7206
 10
13.0907
 20
-35.525
 10
12.9941
 20
-35.3011
 10
12.9518
 20
-35.0611
 10
12.966
 20
-34.8177
 10
13.0359
 20
-34.5841
 10
13.1578
 20
-34.373
 10
13.3251
 20
-34.1957
 10
13.5288
 20
-34.0617
 10
13.7579
 20
-33.9783
 10
14
 20
-33.95
 10
14.2421
 20
-33.9783
 10
14.4712
 20
-34.0617
 10
14.6749
 20
-34.1957
 10
14.8422
 20
-34.373
 10
14.9641
 20
-34.5841
 10
15.034
 20
-34.8177
 10
15.0482
 20
-35.0611
 10
15.0059
 20
-35.3011
 10
14.9093
 20
-35.525
 10
14.7637
 20
-35.7206
 10
14.577
 20
-35.8773
 10
14.3591
 20
-35.9867
 10
14.1219
 20
-36.0429
  0
LWPOLYLINE
100
AcDbEntity
  8
0
100
AcDbPolyline
 90
27
 70
1
 10
-14.1219
 20
-36.0429
 10
-14.3591
 20
-35.9867
 10
-14.577
 20
-35.8773
 10
-14.7637
 20
-35.7206
 10
-14.9093
 20
-35.525
 10
-15.0059
 20
-35.3011
 10
-15.0482
 20
-35.0611
 10
-15.034
 20
-34.8177
 10
-14.9641
 20
-34.5841
 10
-14.8422
 20
-34.373
 10
-14.6749
 20
-34.1957
 10
-14.4712
 20
-34.0617
 10
-14.2421
 20
-33.9783
 10
-14
 20
-33.95
 10
-13.7579
 20
-33.9783
 10
-13.5288
 20
-34.0617
 10
-13.3251
 20
-34.1957
 10
-13.1578
 20
-34.373
 10
-13.0359
 20
-34.5841
 10
-12.966
 20
-34.8177
 10
-12.9518
 20
-35.0611
 10
-12.9941
 20
-35.3011
 10
-13.0907
 20
-35.525
 10
-13.2363
 20
-35.7206
 10
-13.423
 20
-35.8773
 10
-13.6409
 20
-35.9867
 10
-13.8781
 20
-36.0429
  0
LWPOLYLINE
100
AcDbEntity
  8
0
100
AcDbPolyline
 90
27
 70
1
 10
13.8781
 20
-51.0429
 10
13.6409
 20
-50.9867
 10
13.423
 20
-50.8773
 10
13.2363
 20
-50.7206
 10
13.0907
 20
-50.525
 10
12.9941
 20
-50.3011
 10
12.9518
 20
-50.0611
 10
12.966
 20
-49.8177
 10
13.0359
 20
-49.5841
 10
13.1578
 20
-49.373
 10
13.3251
 20
-49.1957
 10
13.5288
 20
-49.0617
 10
13.7579
 20
-48.9783
 10
14
 20
-48.95
 10
14.2421
 20
-48.9783
 10
14.4712
 20
-49.0617
 10
14.6749
 20
-49.1957
 10
14.8422
 20
-49.373
 10
14.9641
 20
-49.5841
 10
15.034
 20
-49.8177
 10
15.0482
 20
-50.0611
 10
15.0059
 20
-50.3011
 10
14.9093
 20
-50.525
 10
14.7637
 20
-50.7206
 10
14.577
 20
-50.8773
 10
14.3591
 20
-50.9867
 10
14.1219
 20
-51.0429
  0
LWPOLYLINE
100
AcDbEntity
  8
0
100
AcDbPolyline
 90
27
 70
1
 10
-14.1219
 20
-51.0429
 10
-14.3591
 20
-50.9867
 10
-14.577
 20
-50.8773
 10
-14.7637
 20
-50.7206
 10
-14.9093
 20
-50.525
 10
-15.0059
 20
-50.3011
 10
-15.0482
 20
-50.0611
 10
-15.034
 20
-49.8177
 10
-14.9641
 20
-49.5841
 10
-14.8422
 20
-49.373
 10
-14.6749
 20
-49.1957
 10
-14.4712
 20
-49.0617
 10
-14.2421
 20
-48.9783
 10
-14
 20
-48.95
 10
-13.7579
 20
-48.9783
 10
-13.5288
 20
-49.0617
 10
-13.3251
 20
-49.1957
 10
-13.1578
 20
-49.373
 10
-13.0359
 20
-49.5841
 10
-12.966
 20
-49.8177
 10
-12.9518
 20
-50.0611
 10
-12.9941
 20
-50.3011
 10
-13.0907
 20
-50.525
 10
-13.2363
 20
-50.7206
 10
-13.423
 20
-50.8773
 10
-13.6409
 20
-50.9867
 10
-13.8781
 20
-51.0429
  0
LWPOLYLINE
100
AcDbEntity
  8
0
100
AcDbPolyline
 90
27
 70
1
 10
13.8781
 20
-66.0429
 10
13.6409
 20
-65.9867
 10
13.423
 20
-65.8773
 10
13.2363
 20
-65.7206
 10
13.0907
 20
-65.525
 10
12.9941
 20
-65.3011
 10
12.9518
 20
-65.0611
 10
12.966
 20
-64.8177
 10
13.0359
 20
-64.5841
 10
13.1578
 20
-64.373
 10
13.3251
 20
-64.1957
 10
13.5288
 20
-64.0617
 10
13.7579
 20
-63.9783
 10
14
 20
-63.95
 10
14.2421
 20
-63.9783
 10
14.4712
 20
-64.0617
 10
14.6749
 20
-64.1957
 10
14.8422
 20
-64.373
 10
14.9641
 20
-64.5841
 10
15.034
 20
-64.8177
 10
15.0482
 20
-65.0611
 10
15.0059
 20
-65.3011
 10
14.9093
 20
-65.525
 10
14.7637
 20
-65.7206
 10
14.577
 20
-65.8773
 10
14.3591
 20
-65.9867
 10
14.1219
 20
-66.0429
  0
LWPOLYLINE
100
AcDbEntity
  8
0
100
AcDbPolyline
 90
27
 70
1
 10
-14.1219
 20
-66.0429
 10
-14.3591
 20
-65.9867
 10
-14.577
 20
-65.8773
 10
-14.7637
 20
-65.7206
 10
-14.9093
 20
-65.525
 10
-15.0059
 20
-65.3011
 10
-15.0482
 20
-65.0611
 10
-15.034
 20
-64.8177
 10
-14.9641
 20
-64.5841
 10
-14.8422
 20
-64.373
 10
-14.6749
 20
-64.1957
 10
-14.4712
 20
-64.0617
 10
-14.2421
 20
-63.9783
 10
-14
 20
-63.95
 10
-13.7579
 20
-63.9783
 10
-13.5288
 20
-64.0617
 10
-13.3251
 20
-64.1957
 10
-13.1578
 20
-64.373
 10
-13.0359
 20
-64.5841
 10
-12.966
 20
-64.8177
 10
-12.9518
 20
-65.0611
 10
-12.9941
 20
-65.3011
 10
-13.0907
 20
-65.525
 10
-13.2363
 20
-65.7206
 10
-13.423
 20
-65.8773
 10
-13.6409
 20
-65.9867
 10
-13.8781
 20
-66.0429
  0
LWPOLYLINE
100
AcDbEntity
  8
0
100
AcDbPolyline
 90
27
 70
1
 10
13.8781
 20
-81.0429
 10
13.6409
 20
-80.9867
 10
13.423
 20
-80.8773
 10
13.2363
 20
-80.7206
 10
13.0907
 20
-80.525
 10
12.9941
 20
-80.3011
 10
12.9518
 20
-80.0611
 10
12.966
 20
-79.8177
 10
13.0359
 20
-79.5841
 10
13.1578
 20
-79.373
 10
13.3251
 20
-79.1957
 10
13.5288
 20
-79.0617
 10
13.7579
 20
-78.9783
 10
14
 20
-78.95
 10
14.2421
 20
-78.9783
 10
14.4712
 20
-79.0617
 10
14.6749
 20
-79.1957
 10
14.8422
 20
-79.373
 10
14.9641
 20
-79.5841
 10
15.034
 20
-79.8177
 10
15.0482
 20
-80.0611
 10
15.0059
 20
-80.3011
 10
14.9093
 20
-80.525
 10
14.7637
 20
-80.7206
 10
14.577
 20
-80.8773
 10
14.3591
 20
-80.9867
 10
14.1219
 20
-81.0429
  0
LWPOLYLINE
100
AcDbEntity
  8
0
100
AcDbPolyline
 90
27
 70
1
 10
-14.1219
 20
-81.0429
 10
-14.3591
 20
-80.9867
 10
-14.577
 20
-80.8773
 10
-14.7637
 20
-80.7206
 10
-14.9093
 20
-80.525
 10
-15.0059
 20
-80.3011
 10
-15.0482
 20
-80.0611
 10
-15.034
 20
-79.8177
 10
-14.9641
 20
-79.5841
 10
-14.8422
 20
-79.373
 10
-14.6749
 20
-79.1957
 10
-14.4712
 20
-79.0617
 10
-14.2421
 20
-78.9783
 10
-14
 20
-78.95
 10
-13.7579
 20
-78.9783
 10
-13.5288
 20
-79.0617
 10
-13.3251
 20
-79.1957
 10
-13.1578
 20
-79.373
 10
-13.0359
 20
-79.5841
 10
-12.966
 20
-79.8177
 10
-12.9518
 20
-80.0611
 10
-12.9941
 20
-80.3011
 10
-13.0907
 20
-80.525
 10
-13.2363
 20
-80.7206
 10
-13.423
 20
-80.8773
 10
-13.6409
 20
-80.9867
 10
-13.8781
 20
-81.0429
  0
LWPOLYLINE
100
AcDbEntity
  8
0
100
AcDbPolyline
 90
27
 70
1
 10
13.8781
 20
-96.0429
 10
13.6409
 20
-95.9867
 10
13.423
 20
-95.8773
 10
13.2363
 20
-95.7206
 10
13.0907
 20
-95.525
 10
12.9941
 20
-95.3011
 10
12.9518
 20
-95.0611
 10
12.966
 20
-94.8177
 10
13.0359
 20
-94.5841
 10
13.1578
 20
-94.373
 10
13.3251
 20
-94.1957
 10
13.5288
 20
-94.0617
 10
13.7579
 20
-93.9783
 10
14
 20
-93.95
 10
14.2421
 20
-93.9783
 10
14.4712
 20
-94.0617
 10
14.6749
 20
-94.1957
 10
14.8422
 20
-94.373
 10
14.9641
 20
-94.5841
 10
15.034
 20
-94.8177
 10
15.0482
 20
-95.0611
 10
15.0059
 20
-95.3011
 10
14.9093
 20
-95.525
 10
14.7637
 20
-95.7206
 10
14.577
 20
-95.8773
 10
14.3591
 20
-95.9867
 10
14.1219
 20
-96.0429
  0
LWPOLYLINE
100
AcDbEntity
  8
0
100
AcDbPolyline
 90
27
 70
1
 10
-14.1219
 20
-96.0429
 10
-14.3591
 20
-95.9867
 10
-14.577
 20
-95.8773
 10
-14.7637
 20
-95.7206
 10
-14.9093
 20
-95.525
 10
-15.0059
 20
-95.3011
 10
-15.0482
 20
-95.0611
 10
-15.034
 20
-94.8177
 10
-14.9641
 20
-94.5841
 10
-14.8422
 20
-94.373
 10
-14.6749
 20
-94.1957
 10
-14.4712
 20
-94.0617
 10
-14.2421
 20
-93.9783
 10
-14
 20
-93.95
 10
-13.7579
 20
-93.9783
 10
-13.5288
 20
-94.0617
 10
-13.3251
 20
-94.1957
 10
-13.1578
 20
-94.373
 10
-13.0359
 20
-94.5841
 10
-12.966
 20
-94.8177
 10
-12.9518
 20
-95.0611
 10
-12.9941
 20
-95.3011
 10
-13.0907
 20
-95.525
 10
-13.2363
 20
-95.7206
 10
-13.423
 20
-95.8773
 10
-13.6409
 20
-95.9867
 10
-13.8781
 20
-96.0429
  0
LWPOLYLINE
100
AcDbEntity
  8
0
100
AcDbPolyline
 90
62
 70
1
 10
-38.2613
 20
-112.486
 10
-38.5198
 20
-112.445
 10
-38.7725
 20
-112.378
 10
-39.0168
 20
-112.284
 10
-39.25
 20
-112.165
 10
-39.4695
 20
-112.023
 10
-39.6728
 20
-111.858
 10
-39.8579
 20
-111.673
 10
-40.0225
 20
-111.469
 10
-40.1651
 20
-111.25
 10
-40.2839
 20
-111.017
 10
-40.3776
 20
-110.773
 10
-40.4454
 20
-110.52
 10
-40.4863
 20
-110.261
 10
-40.5
 20
-110
 10
-40.5
 20
-100
 10
-40.4863
 20
-99.7387
 10
-40.4454
 20
-99.4802
 10
-40.3776
 20
-99.2275
 10
-40.2839
 20
-98.9832
 10
-40.1651
 20
-98.75
 10
-40.0225
 20
-98.5305
 10
-39.8579
 20
-98.3272
 10
-39.6728
 20
-98.1421
 10
-39.4695
 20
-97.9775
 10
-39.25
 20
-97.8349
 10
-39.0168
 20
-97.7161
 10
-38.7725
 20
-97.6224
 10
-38.5198
 20
-97.5546
 10
-38.2613
 20
-97.5137
 10
-38
 20
-97.5
 10
-37.7387
 20
-97.5137
 10
-37.4802
 20
-97.5546
 10
-37.2275
 20
-97.6224
 10
-36.9832
 20
-97.7161
 10
-36.75
 20
-97.8349
 10
-36.5305
 20
-97.9775
 10
-36.3272
 20
-98.1421
 10
-36.1421
 20
-98.3272
 10
-35.9775
 20
-98.5305
 10
-35.8349
 20
-98.75
 10
-35.7161
 20
-98.9832
 10
-35.6224
 20
-99.2275
 10
-35.5546
 20
-99.4802
 10
-35.5137
 20
-99.7387
 10
-35.5
 20
-100
 10
-35.5
 20
-110
 10
-35.5137
 20
-110.261
 10
-35.5546
 20
-110.52
 10
-35.6224
 20
-110.773
 10
-35.7161
 20
-111.017
 10
-35.8349
 20
-111.25
 10
-35.9775
 20
-111.469
 10
-36.1421
 20
-111.673
 10
-36.3272
 20
-111.858
 10
-36.5305
 20
-112.023
 10
-36.75
 20
-112.165
 10
-36.9832
 20
-112.284
 10
-37.2275
 20
-112.378
 10
-37.4802
 20
-112.445
 10
-37.7387
 20
-112.486
 10
-38
 20
-112.5
  0
LWPOLYLINE
100
AcDbEntity
  8
0
100
AcDbPolyline
 90
62
 70
1
 10
37.7387
 20
-112.486
 10
37.4802
 20
-112.445
 10
37.2275
 20
-112.378
 10
36.9832
 20
-112.284
 10
36.75
 20
-112.165
 10
36.5305
 20
-112.023
 10
36.3272
 20
-111.858
 10
36.1421
 20
-111.673
 10
35.9775
 20
-111.469
 10
35.8349
 20
-111.25
 10
35.7161
 20
-111.017
 10
35.6224
 20
-110.773
 10
35.5546
 20
-110.52
 10
35.5137
 20
-110.261
 10
35.5
 20
-110
 10
35.5
 20
-100
 10
35.5137
 20
-99.7387
 10
35.5546
 20
-99.4802
 10
35.6224
 20
-99.2275
 10
35.7161
 20
-98.9832
 10
35.8349
 20
-98.75
 10
35.9775
 20
-98.5305
 10
36.1421
 20
-98.3272
 10
36.3272
 20
-98.1421
 10
36.5305
 20
-97.9775
 10
36.75
 20
-97.8349
 10
36.9832
 20
-97.7161
 10
37.2275
 20
-97.6224
 10
37.4802
 20
-97.5546
 10
37.7387
 20
-97.5137
 10
38
 20
-97.5
 10
38.2613
 20
-97.5137
 10
38.5198
 20
-97.5546
 10
38.7725
 20
-97.6224
 10
39.0168
 20
-97.7161
 10
39.25
 20
-97.8349
 10
39.4695
 20
-97.9775
 10
39.6728
 20
-98.1421
 10
39.8579
 20
-98.3272
 10
40.0225
 20
-98.5305
 10
40.1651
 20
-98.75
 10
40.2839
 20
-98.9832
 10
40.3776
 20
-99.2275
 10
40.4454
 20
-99.4802
 10
40.4863
 20
-99.7387
 10
40.5
 20
-100
 10
40.5
 20
-110
 10
40.4863
 20
-110.261
 10
40.4454
 20
-110.52
 10
40.3776
 20
-110.773
 10
40.2839
 20
-111.017
 10
40.1651
 20
-111.25
 10
40.0225
 20
-111.469
 10
39.8579
 20
-111.673
 10
39.6728
 20
-111.858
 10
39.4695
 20
-112.023
 10
39.25
 20
-112.165
 10
39.0168
 20
-112.284
 10
38.7725
 20
-112.378
 10
38.5198
 20
-112.445
 10
38.2613
 20
-112.486
 10
38
 20
-112.5
  0
LWPOLYLINE
100
AcDbEntity
  8
0
100
AcDbPolyline
 90
27
 70
1
 10
13.8781
 20
-111.043
 10
13.6409
 20
-110.987
 10
13.423
 20
-110.877
 10
13.2363
 20
-110.721
 10
13.0907
 20
-110.525
 10
12.9941
 20
-110.301
 10
12.9518
 20
-110.061
 10
12.966
 20
-109.818
 10
13.0359
 20
-109.584
 10
13.1578
 20
-109.373
 10
13.3251
 20
-109.196
 10
13.5288
 20
-109.062
 10
13.7579
 20
-108.978
 10
14
 20
-108.95
 10
14.2421
 20
-108.978
 10
14.4712
 20
-109.062
 10
14.6749
 20
-109.196
 10
14.8422
 20
-109.373
 10
14.9641
 20
-109.584
 10
15.034
 20
-109.818
 10
15.0482
 20
-110.061
 10
15.0059
 20
-110.301
 10
14.9093
 20
-110.525
 10
14.7637
 20
-110.721
 10
14.577
 20
-110.877
 10
14.3591
 20
-110.987
 10
14.1219
 20
-111.043
  0
LWPOLYLINE
100
AcDbEntity
  8
0
100
AcDbPolyline
 90
27
 70
1
 10
-14.1219
 20
-111.043
 10
-14.3591
 20
-110.987
 10
-14.577
 20
-110.877
 10
-14.7637
 20
-110.721
 10
-14.9093
 20
-110.525
 10
-15.0059
 20
-110.301
 10
-15.0482
 20
-110.061
 10
-15.034
 20
-109.818
 10
-14.9641
 20
-109.584
 10
-14.8422
 20
-109.373
 10
-14.6749
 20
-109.196
 10
-14.4712
 20
-109.062
 10
-14.2421
 20
-108.978
 10
-14
 20
-108.95
 10
-13.7579
 20
-108.978
 10
-13.5288
 20
-109.062
 10
-13.3251
 20
-109.196
 10
-13.1578
 20
-109.373
 10
-13.0359
 20
-109.584
 10
-12.966
 20
-109.818
 10
-12.9518
 20
-110.061
 10
-12.9941
 20
-110.301
 10
-13.0907
 20
-110.525
 10
-13.2363
 20
-110.721
 10
-13.423
 20
-110.877
 10
-13.6409
 20
-110.987
 10
-13.8781
 20
-111.043
  0
ENDSEC
  0
EOF
