999
DXF from OpenSCAD
  0
SECTION
  2
HEADER
  9
$ACADVER
  1
AC1006
  9
$INSBASE
 10
0.0
 20
0.0
 30
0.0
  9
$EXTMIN
 10
-120
 20
-60
  9
$EXTMAX
 10
60
 20
100
  9
$LINMIN
 10
-120
 20
-60
  9
$LINMAX
 10
60
 20
100
  0
ENDSEC
  0
SECTION
  2
TABLES
  0
TABLE
  2
LTYPE
 70
1
  0
LTYPE
  2
CONTINUOUS
 70
64
  3
Solid line
 72
65
 73
0
 40
0.000000
  0
ENDTAB
  0
TABLE
  2
LAYER
 70
6
  0
LAYER
  2
0
 70
64
 62
7
  6
CONTINUOUS
  0
ENDTAB
  0
TABLE
  2
STYLE
 70
0
  0
ENDTAB
  0
ENDSEC
  0
SECTION
  2
BLOCKS
  0
ENDSEC
  0
SECTION
  2
ENTITIES
  0
LWPOLYLINE
100
AcDbEntity
  8
0
100
AcDbPolyline
 90
64
 70
1
 10
57.3136
 20
-59.9836
 10
57.6237
 20
-59.9344
 10
57.9271
 20
-59.8532
 10
58.2202
 20
-59.7406
 10
58.5
 20
-59.5981
 10
58.7634
 20
-59.4271
 10
59.0074
 20
-59.2294
 10
59.2294
 20
-59.0074
 10
59.4271
 20
-58.7634
 10
59.5981
 20
-58.5
 10
59.7406
 20
-58.2202
 10
59.8532
 20
-57.9271
 10
59.9344
 20
-57.6237
 10
59.9836
 20
-57.3136
 10
60
 20
-57
 10
60
 20
97
 10
59.9836
 20
97.3136
 10
59.9344
 20
97.6237
 10
59.8532
 20
97.9271
 10
59.7406
 20
98.2202
 10
59.5981
 20
98.5
 10
59.4271
 20
98.7634
 10
59.2294
 20
99.0074
 10
59.0074
 20
99.2294
 10
58.7634
 20
99.4271
 10
58.5
 20
99.5981
 10
58.2202
 20
99.7406
 10
57.9271
 20
99.8532
 10
57.6237
 20
99.9344
 10
57.3136
 20
99.9836
 10
57
 20
100
 10
-117
 20
100
 10
-117.314
 20
99.9836
 10
-117.624
 20
99.9344
 10
-117.927
 20
99.8532
 10
-118.22
 20
99.7406
 10
-118.5
 20
99.5981
 10
-118.763
 20
99.4271
 10
-119.007
 20
99.2294
 10
-119.229
 20
99.0074
 10
-119.427
 20
98.7634
 10
-119.598
 20
98.5
 10
-119.741
 20
98.2202
 10
-119.853
 20
97.9271
 10
-119.934
 20
97.6237
 10
-119.984
 20
97.3136
 10
-120
 20
97
 10
-120
 20
-57
 10
-119.984
 20
-57.3136
 10
-119.934
 20
-57.6237
 10
-119.853
 20
-57.9271
 10
-119.741
 20
-58.2202
 10
-119.598
 20
-58.5
 10
-119.427
 20
-58.7634
 10
-119.229
 20
-59.0074
 10
-119.007
 20
-59.2294
 10
-118.763
 20
-59.4271
 10
-118.5
 20
-59.5981
 10
-118.22
 20
-59.7406
 10
-117.927
 20
-59.8532
 10
-117.624
 20
-59.9344
 10
-117.314
 20
-59.9836
 10
-117
 20
-60
 10
57
 20
-60
  0
LWPOLYLINE
100
AcDbEntity
  8
0
100
AcDbPolyline
 90
32
 70
1
 10
49.7561
 20
86.774
 10
49.5216
 20
86.8452
 10
49.3055
 20
86.9607
 10
49.1161
 20
87.1161
 10
48.9607
 20
87.3055
 10
48.8452
 20
87.5216
 10
48.774
 20
87.7561
 10
48.75
 20
88
 10
48.774
 20
88.2439
 10
48.8452
 20
88.4784
 10
48.9607
 20
88.6945
 10
49.1161
 20
88.8839
 10
49.3055
 20
89.0393
 10
49.5216
 20
89.1548
 10
49.7561
 20
89.226
 10
50
 20
89.25
 10
50.2439
 20
89.226
 10
50.4784
 20
89.1548
 10
50.6945
 20
89.0393
 10
50.8839
 20
88.8839
 10
51.0393
 20
88.6945
 10
51.1548
 20
88.4784
 10
51.226
 20
88.2439
 10
51.25
 20
88
 10
51.226
 20
87.7561
 10
51.1548
 20
87.5216
 10
51.0393
 20
87.3055
 10
50.8839
 20
87.1161
 10
50.6945
 20
86.9607
 10
50.4784
 20
86.8452
 10
50.2439
 20
86.774
 10
50
 20
86.75
  0
LWPOLYLINE
100
AcDbEntity
  8
0
100
AcDbPolyline
 90
32
 70
1
 10
-65.2439
 20
86.774
 10
-65.4784
 20
86.8452
 10
-65.6945
 20
86.9607
 10
-65.8839
 20
87.1161
 10
-66.0393
 20
87.3055
 10
-66.1548
 20
87.5216
 10
-66.226
 20
87.7561
 10
-66.25
 20
88
 10
-66.226
 20
88.2439
 10
-66.1548
 20
88.4784
 10
-66.0393
 20
88.6945
 10
-65.8839
 20
88.8839
 10
-65.6945
 20
89.0393
 10
-65.4784
 20
89.1548
 10
-65.2439
 20
89.226
 10
-65
 20
89.25
 10
-64.7561
 20
89.226
 10
-64.5216
 20
89.1548
 10
-64.3055
 20
89.0393
 10
-64.1161
 20
88.8839
 10
-63.9607
 20
88.6945
 10
-63.8452
 20
88.4784
 10
-63.774
 20
88.2439
 10
-63.75
 20
88
 10
-63.774
 20
87.7561
 10
-63.8452
 20
87.5216
 10
-63.9607
 20
87.3055
 10
-64.1161
 20
87.1161
 10
-64.3055
 20
86.9607
 10
-64.5216
 20
86.8452
 10
-64.7561
 20
86.774
 10
-65
 20
86.75
  0
LWPOLYLINE
100
AcDbEntity
  8
0
100
AcDbPolyline
 90
32
 70
1
 10
-51.8439
 20
86.774
 10
-52.0784
 20
86.8452
 10
-52.2945
 20
86.9607
 10
-52.4839
 20
87.1161
 10
-52.6393
 20
87.3055
 10
-52.7548
 20
87.5216
 10
-52.826
 20
87.7561
 10
-52.85
 20
88
 10
-52.826
 20
88.2439
 10
-52.7548
 20
88.4784
 10
-52.6393
 20
88.6945
 10
-52.4839
 20
88.8839
 10
-52.2945
 20
89.0393
 10
-52.0784
 20
89.1548
 10
-51.8439
 20
89.226
 10
-51.6
 20
89.25
 10
-51.3561
 20
89.226
 10
-51.1216
 20
89.1548
 10
-50.9055
 20
89.0393
 10
-50.7161
 20
88.8839
 10
-50.5607
 20
88.6945
 10
-50.4452
 20
88.4784
 10
-50.374
 20
88.2439
 10
-50.35
 20
88
 10
-50.374
 20
87.7561
 10
-50.4452
 20
87.5216
 10
-50.5607
 20
87.3055
 10
-50.7161
 20
87.1161
 10
-50.9055
 20
86.9607
 10
-51.1216
 20
86.8452
 10
-51.3561
 20
86.774
 10
-51.6
 20
86.75
  0
LWPOLYLINE
100
AcDbEntity
  8
0
100
AcDbPolyline
 90
60
 70
1
 10
-12.2718
 20
25.4142
 10
-12.5406
 20
25.4568
 10
-12.8034
 20
25.5273
 10
-13.0575
 20
25.6248
 10
-13.3
 20
25.7483
 10
-13.5282
 20
25.8966
 10
-13.7397
 20
26.0678
 10
-13.9322
 20
26.2603
 10
-14.1034
 20
26.4718
 10
-14.2517
 20
26.7
 10
-14.3752
 20
26.9425
 10
-14.4727
 20
27.1966
 10
-14.5432
 20
27.4594
 10
-14.5858
 20
27.7282
 10
-14.6
 20
28
 10
-14.5858
 20
28.2718
 10
-14.5432
 20
28.5406
 10
-14.4727
 20
28.8034
 10
-14.3752
 20
29.0575
 10
-14.2517
 20
29.3
 10
-14.1034
 20
29.5282
 10
-13.9322
 20
29.7397
 10
-13.7397
 20
29.9322
 10
-13.5282
 20
30.1034
 10
-13.3
 20
30.2517
 10
-13.0575
 20
30.3752
 10
-12.8034
 20
30.4727
 10
-12.5406
 20
30.5432
 10
-12.2718
 20
30.5858
 10
-12
 20
30.6
 10
-11.7282
 20
30.5858
 10
-11.4594
 20
30.5432
 10
-11.1966
 20
30.4727
 10
-10.9425
 20
30.3752
 10
-10.7
 20
30.2517
 10
-10.4718
 20
30.1034
 10
-10.2603
 20
29.9322
 10
-10.0678
 20
29.7397
 10
-9.89656
 20
29.5282
 10
-9.74833
 20
29.3
 10
-9.62478
 20
29.0575
 10
-9.52725
 20
28.8034
 10
-9.45682
 20
28.5406
 10
-9.41424
 20
28.2718
 10
-9.4
 20
28
 10
-9.41424
 20
27.7282
 10
-9.45682
 20
27.4594
 10
-9.52725
 20
27.1966
 10
-9.62478
 20
26.9425
 10
-9.74833
 20
26.7
 10
-9.89656
 20
26.4718
 10
-10.0678
 20
26.2603
 10
-10.2603
 20
26.0678
 10
-10.4718
 20
25.8966
 10
-10.7
 20
25.7483
 10
-10.9425
 20
25.6248
 10
-11.1966
 20
25.5273
 10
-11.4594
 20
25.4568
 10
-11.7282
 20
25.4142
 10
-12
 20
25.4
  0
LWPOLYLINE
100
AcDbEntity
  8
0
100
AcDbPolyline
 90
60
 70
1
 10
11.7282
 20
25.4142
 10
11.4594
 20
25.4568
 10
11.1966
 20
25.5273
 10
10.9425
 20
25.6248
 10
10.7
 20
25.7483
 10
10.4718
 20
25.8966
 10
10.2603
 20
26.0678
 10
10.0678
 20
26.2603
 10
9.89656
 20
26.4718
 10
9.74833
 20
26.7
 10
9.62478
 20
26.9425
 10
9.52725
 20
27.1966
 10
9.45682
 20
27.4594
 10
9.41424
 20
27.7282
 10
9.4
 20
28
 10
9.41424
 20
28.2718
 10
9.45682
 20
28.5406
 10
9.52725
 20
28.8034
 10
9.62478
 20
29.0575
 10
9.74833
 20
29.3
 10
9.89656
 20
29.5282
 10
10.0678
 20
29.7397
 10
10.2603
 20
29.9322
 10
10.4718
 20
30.1034
 10
10.7
 20
30.2517
 10
10.9425
 20
30.3752
 10
11.1966
 20
30.4727
 10
11.4594
 20
30.5432
 10
11.7282
 20
30.5858
 10
12
 20
30.6
 10
12.2718
 20
30.5858
 10
12.5406
 20
30.5432
 10
12.8034
 20
30.4727
 10
13.0575
 20
30.3752
 10
13.3
 20
30.2517
 10
13.5282
 20
30.1034
 10
13.7397
 20
29.9322
 10
13.9322
 20
29.7397
 10
14.1034
 20
29.5282
 10
14.2517
 20
29.3
 10
14.3752
 20
29.0575
 10
14.4727
 20
28.8034
 10
14.5432
 20
28.5406
 10
14.5858
 20
28.2718
 10
14.6
 20
28
 10
14.5858
 20
27.7282
 10
14.5432
 20
27.4594
 10
14.4727
 20
27.1966
 10
14.3752
 20
26.9425
 10
14.2517
 20
26.7
 10
14.1034
 20
26.4718
 10
13.9322
 20
26.2603
 10
13.7397
 20
26.0678
 10
13.5282
 20
25.8966
 10
13.3
 20
25.7483
 10
13.0575
 20
25.6248
 10
12.8034
 20
25.5273
 10
12.5406
 20
25.4568
 10
12.2718
 20
25.4142
 10
12
 20
25.4
  0
LWPOLYLINE
100
AcDbEntity
  8
0
100
AcDbPolyline
 90
32
 70
1
 10
49.7561
 20
15.474
 10
49.5216
 20
15.5452
 10
49.3055
 20
15.6607
 10
49.1161
 20
15.8161
 10
48.9607
 20
16.0055
 10
48.8452
 20
16.2216
 10
48.774
 20
16.4561
 10
48.75
 20
16.7
 10
48.774
 20
16.9439
 10
48.8452
 20
17.1784
 10
48.9607
 20
17.3945
 10
49.1161
 20
17.5839
 10
49.3055
 20
17.7393
 10
49.5216
 20
17.8548
 10
49.7561
 20
17.926
 10
50
 20
17.95
 10
50.2439
 20
17.926
 10
50.4784
 20
17.8548
 10
50.6945
 20
17.7393
 10
50.8839
 20
17.5839
 10
51.0393
 20
17.3945
 10
51.1548
 20
17.1784
 10
51.226
 20
16.9439
 10
51.25
 20
16.7
 10
51.226
 20
16.4561
 10
51.1548
 20
16.2216
 10
51.0393
 20
16.0055
 10
50.8839
 20
15.8161
 10
50.6945
 20
15.6607
 10
50.4784
 20
15.5452
 10
50.2439
 20
15.474
 10
50
 20
15.45
  0
LWPOLYLINE
100
AcDbEntity
  8
0
100
AcDbPolyline
 90
32
 70
1
 10
-51.8439
 20
15.474
 10
-52.0784
 20
15.5452
 10
-52.2945
 20
15.6607
 10
-52.4839
 20
15.8161
 10
-52.6393
 20
16.0055
 10
-52.7548
 20
16.2216
 10
-52.826
 20
16.4561
 10
-52.85
 20
16.7
 10
-52.826
 20
16.9439
 10
-52.7548
 20
17.1784
 10
-52.6393
 20
17.3945
 10
-52.4839
 20
17.5839
 10
-52.2945
 20
17.7393
 10
-52.0784
 20
17.8548
 10
-51.8439
 20
17.926
 10
-51.6
 20
17.95
 10
-51.3561
 20
17.926
 10
-51.1216
 20
17.8548
 10
-50.9055
 20
17.7393
 10
-50.7161
 20
17.5839
 10
-50.5607
 20
17.3945
 10
-50.4452
 20
17.1784
 10
-50.374
 20
16.9439
 10
-50.35
 20
16.7
 10
-50.374
 20
16.4561
 10
-50.4452
 20
16.2216
 10
-50.5607
 20
16.0055
 10
-50.7161
 20
15.8161
 10
-50.9055
 20
15.6607
 10
-51.1216
 20
15.5452
 10
-51.3561
 20
15.474
 10
-51.6
 20
15.45
  0
LWPOLYLINE
100
AcDbEntity
  8
0
100
AcDbPolyline
 90
32
 70
1
 10
49.7561
 20
-5.22598
 10
49.5216
 20
-5.15485
 10
49.3055
 20
-5.03934
 10
49.1161
 20
-4.88388
 10
48.9607
 20
-4.69446
 10
48.8452
 20
-4.47835
 10
48.774
 20
-4.24386
 10
48.75
 20
-4
 10
48.774
 20
-3.75614
 10
48.8452
 20
-3.52165
 10
48.9607
 20
-3.30554
 10
49.1161
 20
-3.11612
 10
49.3055
 20
-2.96066
 10
49.5216
 20
-2.84515
 10
49.7561
 20
-2.77402
 10
50
 20
-2.75
 10
50.2439
 20
-2.77402
 10
50.4784
 20
-2.84515
 10
50.6945
 20
-2.96066
 10
50.8839
 20
-3.11612
 10
51.0393
 20
-3.30554
 10
51.1548
 20
-3.52165
 10
51.226
 20
-3.75614
 10
51.25
 20
-4
 10
51.226
 20
-4.24386
 10
51.1548
 20
-4.47835
 10
51.0393
 20
-4.69446
 10
50.8839
 20
-4.88388
 10
50.6945
 20
-5.03934
 10
50.4784
 20
-5.15485
 10
50.2439
 20
-5.22598
 10
50
 20
-5.25
  0
LWPOLYLINE
100
AcDbEntity
  8
0
100
AcDbPolyline
 90
32
 70
1
 10
-65.2439
 20
-5.22598
 10
-65.4784
 20
-5.15485
 10
-65.6945
 20
-5.03934
 10
-65.8839
 20
-4.88388
 10
-66.0393
 20
-4.69446
 10
-66.1548
 20
-4.47835
 10
-66.226
 20
-4.24386
 10
-66.25
 20
-4
 10
-66.226
 20
-3.75614
 10
-66.1548
 20
-3.52165
 10
-66.0393
 20
-3.30554
 10
-65.8839
 20
-3.11612
 10
-65.6945
 20
-2.96066
 10
-65.4784
 20
-2.84515
 10
-65.2439
 20
-2.77402
 10
-65
 20
-2.75
 10
-64.7561
 20
-2.77402
 10
-64.5216
 20
-2.84515
 10
-64.3055
 20
-2.96066
 10
-64.1161
 20
-3.11612
 10
-63.9607
 20
-3.30554
 10
-63.8452
 20
-3.52165
 10
-63.774
 20
-3.75614
 10
-63.75
 20
-4
 10
-63.774
 20
-4.24386
 10
-63.8452
 20
-4.47835
 10
-63.9607
 20
-4.69446
 10
-64.1161
 20
-4.88388
 10
-64.3055
 20
-5.03934
 10
-64.5216
 20
-5.15485
 10
-64.7561
 20
-5.22598
 10
-65
 20
-5.25
  0
LWPOLYLINE
100
AcDbEntity
  8
0
100
AcDbPolyline
 90
60
 70
1
 10
-12.2718
 20
-14.5858
 10
-12.5406
 20
-14.5432
 10
-12.8034
 20
-14.4727
 10
-13.0575
 20
-14.3752
 10
-13.3
 20
-14.2517
 10
-13.5282
 20
-14.1034
 10
-13.7397
 20
-13.9322
 10
-13.9322
 20
-13.7397
 10
-14.1034
 20
-13.5282
 10
-14.2517
 20
-13.3
 10
-14.3752
 20
-13.0575
 10
-14.4727
 20
-12.8034
 10
-14.5432
 20
-12.5406
 10
-14.5858
 20
-12.2718
 10
-14.6
 20
-12
 10
-14.5858
 20
-11.7282
 10
-14.5432
 20
-11.4594
 10
-14.4727
 20
-11.1966
 10
-14.3752
 20
-10.9425
 10
-14.2517
 20
-10.7
 10
-14.1034
 20
-10.4718
 10
-13.9322
 20
-10.2603
 10
-13.7397
 20
-10.0678
 10
-13.5282
 20
-9.89656
 10
-13.3
 20
-9.74833
 10
-13.0575
 20
-9.62478
 10
-12.8034
 20
-9.52725
 10
-12.5406
 20
-9.45682
 10
-12.2718
 20
-9.41424
 10
-12
 20
-9.4
 10
-11.7282
 20
-9.41424
 10
-11.4594
 20
-9.45682
 10
-11.1966
 20
-9.52725
 10
-10.9425
 20
-9.62478
 10
-10.7
 20
-9.74833
 10
-10.4718
 20
-9.89656
 10
-10.2603
 20
-10.0678
 10
-10.0678
 20
-10.2603
 10
-9.89656
 20
-10.4718
 10
-9.74833
 20
-10.7
 10
-9.62478
 20
-10.9425
 10
-9.52725
 20
-11.1966
 10
-9.45682
 20
-11.4594
 10
-9.41424
 20
-11.7282
 10
-9.4
 20
-12
 10
-9.41424
 20
-12.2718
 10
-9.45682
 20
-12.5406
 10
-9.52725
 20
-12.8034
 10
-9.62478
 20
-13.0575
 10
-9.74833
 20
-13.3
 10
-9.89656
 20
-13.5282
 10
-10.0678
 20
-13.7397
 10
-10.2603
 20
-13.9322
 10
-10.4718
 20
-14.1034
 10
-10.7
 20
-14.2517
 10
-10.9425
 20
-14.3752
 10
-11.1966
 20
-14.4727
 10
-11.4594
 20
-14.5432
 10
-11.7282
 20
-14.5858
 10
-12
 20
-14.6
  0
LWPOLYLINE
100
AcDbEntity
  8
0
100
AcDbPolyline
 90
60
 70
1
 10
11.7282
 20
-14.5858
 10
11.4594
 20
-14.5432
 10
11.1966
 20
-14.4727
 10
10.9425
 20
-14.3752
 10
10.7
 20
-14.2517
 10
10.4718
 20
-14.1034
 10
10.2603
 20
-13.9322
 10
10.0678
 20
-13.7397
 10
9.89656
 20
-13.5282
 10
9.74833
 20
-13.3
 10
9.62478
 20
-13.0575
 10
9.52725
 20
-12.8034
 10
9.45682
 20
-12.5406
 10
9.41424
 20
-12.2718
 10
9.4
 20
-12
 10
9.41424
 20
-11.7282
 10
9.45682
 20
-11.4594
 10
9.52725
 20
-11.1966
 10
9.62478
 20
-10.9425
 10
9.74833
 20
-10.7
 10
9.89656
 20
-10.4718
 10
10.0678
 20
-10.2603
 10
10.2603
 20
-10.0678
 10
10.4718
 20
-9.89656
 10
10.7
 20
-9.74833
 10
10.9425
 20
-9.62478
 10
11.1966
 20
-9.52725
 10
11.4594
 20
-9.45682
 10
11.7282
 20
-9.41424
 10
12
 20
-9.4
 10
12.2718
 20
-9.41424
 10
12.5406
 20
-9.45682
 10
12.8034
 20
-9.52725
 10
13.0575
 20
-9.62478
 10
13.3
 20
-9.74833
 10
13.5282
 20
-9.89656
 10
13.7397
 20
-10.0678
 10
13.9322
 20
-10.2603
 10
14.1034
 20
-10.4718
 10
14.2517
 20
-10.7
 10
14.3752
 20
-10.9425
 10
14.4727
 20
-11.1966
 10
14.5432
 20
-11.4594
 10
14.5858
 20
-11.7282
 10
14.6
 20
-12
 10
14.5858
 20
-12.2718
 10
14.5432
 20
-12.5406
 10
14.4727
 20
-12.8034
 10
14.3752
 20
-13.0575
 10
14.2517
 20
-13.3
 10
14.1034
 20
-13.5282
 10
13.9322
 20
-13.7397
 10
13.7397
 20
-13.9322
 10
13.5282
 20
-14.1034
 10
13.3
 20
-14.2517
 10
13.0575
 20
-14.3752
 10
12.8034
 20
-14.4727
 10
12.5406
 20
-14.5432
 10
12.2718
 20
-14.5858
 10
12
 20
-14.6
  0
LWPOLYLINE
100
AcDbEntity
  8
0
100
AcDbPolyline
 90
60
 70
1
 10
29.7282
 20
-43.5858
 10
29.4594
 20
-43.5432
 10
29.1966
 20
-43.4727
 10
28.9425
 20
-43.3752
 10
28.7
 20
-43.2517
 10
28.4718
 20
-43.1034
 10
28.2603
 20
-42.9322
 10
28.0678
 20
-42.7397
 10
27.8966
 20
-42.5282
 10
27.7483
 20
-42.3
 10
27.6248
 20
-42.0575
 10
27.5273
 20
-41.8034
 10
27.4568
 20
-41.5406
 10
27.4142
 20
-41.2718
 10
27.4
 20
-41
 10
27.4142
 20
-40.7282
 10
27.4568
 20
-40.4594
 10
27.5273
 20
-40.1966
 10
27.6248
 20
-39.9425
 10
27.7483
 20
-39.7
 10
27.8966
 20
-39.4718
 10
28.0678
 20
-39.2603
 10
28.2603
 20
-39.0678
 10
28.4718
 20
-38.8966
 10
28.7
 20
-38.7483
 10
28.9425
 20
-38.6248
 10
29.1966
 20
-38.5273
 10
29.4594
 20
-38.4568
 10
29.7282
 20
-38.4142
 10
30
 20
-38.4
 10
30.2718
 20
-38.4142
 10
30.5406
 20
-38.4568
 10
30.8034
 20
-38.5273
 10
31.0575
 20
-38.6248
 10
31.3
 20
-38.7483
 10
31.5282
 20
-38.8966
 10
31.7397
 20
-39.0678
 10
31.9322
 20
-39.2603
 10
32.1034
 20
-39.4718
 10
32.2517
 20
-39.7
 10
32.3752
 20
-39.9425
 10
32.4727
 20
-40.1966
 10
32.5432
 20
-40.4594
 10
32.5858
 20
-40.7282
 10
32.6
 20
-41
 10
32.5858
 20
-41.2718
 10
32.5432
 20
-41.5406
 10
32.4727
 20
-41.8034
 10
32.3752
 20
-42.0575
 10
32.2517
 20
-42.3
 10
32.1034
 20
-42.5282
 10
31.9322
 20
-42.7397
 10
31.7397
 20
-42.9322
 10
31.5282
 20
-43.1034
 10
31.3
 20
-43.2517
 10
31.0575
 20
-43.3752
 10
30.8034
 20
-43.4727
 10
30.5406
 20
-43.5432
 10
30.2718
 20
-43.5858
 10
30
 20
-43.6
  0
LWPOLYLINE
100
AcDbEntity
  8
0
100
AcDbPolyline
 90
60
 70
1
 10
-30.2718
 20
-43.5858
 10
-30.5406
 20
-43.5432
 10
-30.8034
 20
-43.4727
 10
-31.0575
 20
-43.3752
 10
-31.3
 20
-43.2517
 10
-31.5282
 20
-43.1034
 10
-31.7397
 20
-42.9322
 10
-31.9322
 20
-42.7397
 10
-32.1034
 20
-42.5282
 10
-32.2517
 20
-42.3
 10
-32.3752
 20
-42.0575
 10
-32.4727
 20
-41.8034
 10
-32.5432
 20
-41.5406
 10
-32.5858
 20
-41.2718
 10
-32.6
 20
-41
 10
-32.5858
 20
-40.7282
 10
-32.5432
 20
-40.4594
 10
-32.4727
 20
-40.1966
 10
-32.3752
 20
-39.9425
 10
-32.2517
 20
-39.7
 10
-32.1034
 20
-39.4718
 10
-31.9322
 20
-39.2603
 10
-31.7397
 20
-39.0678
 10
-31.5282
 20
-38.8966
 10
-31.3
 20
-38.7483
 10
-31.0575
 20
-38.6248
 10
-30.8034
 20
-38.5273
 10
-30.5406
 20
-38.4568
 10
-30.2718
 20
-38.4142
 10
-30
 20
-38.4
 10
-29.7282
 20
-38.4142
 10
-29.4594
 20
-38.4568
 10
-29.1966
 20
-38.5273
 10
-28.9425
 20
-38.6248
 10
-28.7
 20
-38.7483
 10
-28.4718
 20
-38.8966
 10
-28.2603
 20
-39.0678
 10
-28.0678
 20
-39.2603
 10
-27.8966
 20
-39.4718
 10
-27.7483
 20
-39.7
 10
-27.6248
 20
-39.9425
 10
-27.5273
 20
-40.1966
 10
-27.4568
 20
-40.4594
 10
-27.4142
 20
-40.7282
 10
-27.4
 20
-41
 10
-27.4142
 20
-41.2718
 10
-27.4568
 20
-41.5406
 10
-27.5273
 20
-41.8034
 10
-27.6248
 20
-42.0575
 10
-27.7483
 20
-42.3
 10
-27.8966
 20
-42.5282
 10
-28.0678
 20
-42.7397
 10
-28.2603
 20
-42.9322
 10
-28.4718
 20
-43.1034
 10
-28.7
 20
-43.2517
 10
-28.9425
 20
-43.3752
 10
-29.1966
 20
-43.4727
 10
-29.4594
 20
-43.5432
 10
-29.7282
 20
-43.5858
 10
-30
 20
-43.6
  0
ENDSEC
  0
EOF
