999
DXF from OpenSCAD
  0
SECTION
  2
HEADER
  9
$ACADVER
  1
AC1006
  9
$INSBASE
 10
0.0
 20
0.0
 30
0.0
  9
$EXTMIN
 10
-9
 20
-8.99271
  9
$EXTMAX
 10
9
 20
8.99271
  9
$LINMIN
 10
-9
 20
-8.99271
  9
$LINMAX
 10
9
 20
8.99271
  0
ENDSEC
  0
SECTION
  2
TABLES
  0
TABLE
  2
LTYPE
 70
1
  0
LTYPE
  2
CONTINUOUS
 70
64
  3
Solid line
 72
65
 73
0
 40
0.000000
  0
ENDTAB
  0
TABLE
  2
LAYER
 70
6
  0
LAYER
  2
0
 70
64
 62
7
  6
CONTINUOUS
  0
ENDTAB
  0
TABLE
  2
STYLE
 70
0
  0
ENDTAB
  0
ENDSEC
  0
SECTION
  2
BLOCKS
  0
ENDSEC
  0
SECTION
  2
ENTITIES
  0
LWPOLYLINE
100
AcDbEntity
  8
0
100
AcDbPolyline
 90
26
 70
1
 10
8.3546
 20
7.06498
 10
8.56806
 20
7.17702
 10
8.74851
 20
7.33688
 10
8.88546
 20
7.53528
 10
8.97094
 20
7.76068
 10
9
 20
8
 10
8.97094
 20
8.23932
 10
8.88546
 20
8.46472
 10
8.74851
 20
8.66312
 10
8.56806
 20
8.82298
 10
8.3546
 20
8.93502
 10
8.12054
 20
8.99271
 10
7.87946
 20
8.99271
 10
7.6454
 20
8.93502
 10
7.43194
 20
8.82298
 10
7.25149
 20
8.66312
 10
7.11454
 20
8.46472
 10
7.02906
 20
8.23932
 10
7
 20
8
 10
7.02906
 20
7.76068
 10
7.11454
 20
7.53528
 10
7.25149
 20
7.33688
 10
7.43194
 20
7.17702
 10
7.6454
 20
7.06498
 10
7.87946
 20
7.00729
 10
8.12054
 20
7.00729
  0
LWPOLYLINE
100
AcDbEntity
  8
0
100
AcDbPolyline
 90
26
 70
1
 10
-7.6454
 20
7.06498
 10
-7.43194
 20
7.17702
 10
-7.25149
 20
7.33688
 10
-7.11454
 20
7.53528
 10
-7.02906
 20
7.76068
 10
-7
 20
8
 10
-7.02906
 20
8.23932
 10
-7.11454
 20
8.46472
 10
-7.25149
 20
8.66312
 10
-7.43194
 20
8.82298
 10
-7.6454
 20
8.93502
 10
-7.87946
 20
8.99271
 10
-8.12054
 20
8.99271
 10
-8.3546
 20
8.93502
 10
-8.56806
 20
8.82298
 10
-8.74851
 20
8.66312
 10
-8.88546
 20
8.46472
 10
-8.97094
 20
8.23932
 10
-9
 20
8
 10
-8.97094
 20
7.76068
 10
-8.88546
 20
7.53528
 10
-8.74851
 20
7.33688
 10
-8.56806
 20
7.17702
 10
-8.3546
 20
7.06498
 10
-8.12054
 20
7.00729
 10
-7.87946
 20
7.00729
  0
LWPOLYLINE
100
AcDbEntity
  8
0
100
AcDbPolyline
 90
60
 70
1
 10
0.783963
 20
-7.45891
 10
1.55934
 20
-7.33611
 10
2.31763
 20
-7.13292
 10
3.05052
 20
-6.85159
 10
3.75
 20
-6.49519
 10
4.40839
 20
-6.06763
 10
5.01848
 20
-5.57359
 10
5.57359
 20
-5.01848
 10
6.06763
 20
-4.40839
 10
6.49519
 20
-3.75
 10
6.85159
 20
-3.05052
 10
7.13292
 20
-2.31763
 10
7.33611
 20
-1.55934
 10
7.45891
 20
-0.783963
 10
7.5
 20
0
 10
7.45891
 20
0.783963
 10
7.33611
 20
1.55934
 10
7.13292
 20
2.31763
 10
6.85159
 20
3.05052
 10
6.49519
 20
3.75
 10
6.06763
 20
4.40839
 10
5.57359
 20
5.01848
 10
5.01848
 20
5.57359
 10
4.40839
 20
6.06763
 10
3.75
 20
6.49519
 10
3.05052
 20
6.85159
 10
2.31763
 20
7.13292
 10
1.55934
 20
7.33611
 10
0.783963
 20
7.45891
 10
0
 20
7.5
 10
-0.783963
 20
7.45891
 10
-1.55934
 20
7.33611
 10
-2.31763
 20
7.13292
 10
-3.05052
 20
6.85159
 10
-3.75
 20
6.49519
 10
-4.40839
 20
6.06763
 10
-5.01848
 20
5.57359
 10
-5.57359
 20
5.01848
 10
-6.06763
 20
4.40839
 10
-6.49519
 20
3.75
 10
-6.85159
 20
3.05052
 10
-7.13292
 20
2.31763
 10
-7.33611
 20
1.55934
 10
-7.45891
 20
0.783963
 10
-7.5
 20
0
 10
-7.45891
 20
-0.783963
 10
-7.33611
 20
-1.55934
 10
-7.13292
 20
-2.31763
 10
-6.85159
 20
-3.05052
 10
-6.49519
 20
-3.75
 10
-6.06763
 20
-4.40839
 10
-5.57359
 20
-5.01848
 10
-5.01848
 20
-5.57359
 10
-4.40839
 20
-6.06763
 10
-3.75
 20
-6.49519
 10
-3.05052
 20
-6.85159
 10
-2.31763
 20
-7.13292
 10
-1.55934
 20
-7.33611
 10
-0.783963
 20
-7.45891
 10
0
 20
-7.5
  0
LWPOLYLINE
100
AcDbEntity
  8
0
100
AcDbPolyline
 90
26
 70
1
 10
-7.6454
 20
-8.93502
 10
-7.43194
 20
-8.82298
 10
-7.25149
 20
-8.66312
 10
-7.11454
 20
-8.46472
 10
-7.02906
 20
-8.23932
 10
-7
 20
-8
 10
-7.02906
 20
-7.76068
 10
-7.11454
 20
-7.53528
 10
-7.25149
 20
-7.33688
 10
-7.43194
 20
-7.17702
 10
-7.6454
 20
-7.06498
 10
-7.87946
 20
-7.00729
 10
-8.12054
 20
-7.00729
 10
-8.3546
 20
-7.06498
 10
-8.56806
 20
-7.17702
 10
-8.74851
 20
-7.33688
 10
-8.88546
 20
-7.53528
 10
-8.97094
 20
-7.76068
 10
-9
 20
-8
 10
-8.97094
 20
-8.23932
 10
-8.88546
 20
-8.46472
 10
-8.74851
 20
-8.66312
 10
-8.56806
 20
-8.82298
 10
-8.3546
 20
-8.93502
 10
-8.12054
 20
-8.99271
 10
-7.87946
 20
-8.99271
  0
LWPOLYLINE
100
AcDbEntity
  8
0
100
AcDbPolyline
 90
26
 70
1
 10
8.3546
 20
-8.93502
 10
8.56806
 20
-8.82298
 10
8.74851
 20
-8.66312
 10
8.88546
 20
-8.46472
 10
8.97094
 20
-8.23932
 10
9
 20
-8
 10
8.97094
 20
-7.76068
 10
8.88546
 20
-7.53528
 10
8.74851
 20
-7.33688
 10
8.56806
 20
-7.17702
 10
8.3546
 20
-7.06498
 10
8.12054
 20
-7.00729
 10
7.87946
 20
-7.00729
 10
7.6454
 20
-7.06498
 10
7.43194
 20
-7.17702
 10
7.25149
 20
-7.33688
 10
7.11454
 20
-7.53528
 10
7.02906
 20
-7.76068
 10
7
 20
-8
 10
7.02906
 20
-8.23932
 10
7.11454
 20
-8.46472
 10
7.25149
 20
-8.66312
 10
7.43194
 20
-8.82298
 10
7.6454
 20
-8.93502
 10
7.87946
 20
-8.99271
 10
8.12054
 20
-8.99271
  0
ENDSEC
  0
EOF
