999
DXF from OpenSCAD
  0
SECTION
  2
HEADER
  9
$ACADVER
  1
AC1006
  9
$INSBASE
 10
0.0
 20
0.0
 30
0.0
  9
$EXTMIN
 10
-5.0429
 20
-7.04822
  9
$EXTMAX
 10
5.05
 20
7.04822
  9
$LINMIN
 10
-5.0429
 20
-7.04822
  9
$LINMAX
 10
5.05
 20
7.04822
  0
ENDSEC
  0
SECTION
  2
TABLES
  0
TABLE
  2
LTYPE
 70
1
  0
LTYPE
  2
CONTINUOUS
 70
64
  3
Solid line
 72
65
 73
0
 40
0.000000
  0
ENDTAB
  0
TABLE
  2
LAYER
 70
6
  0
LAYER
  2
0
 70
64
 62
7
  6
CONTINUOUS
  0
ENDTAB
  0
TABLE
  2
STYLE
 70
0
  0
ENDTAB
  0
ENDSEC
  0
SECTION
  2
BLOCKS
  0
ENDSEC
  0
SECTION
  2
ENTITIES
  0
LWPOLYLINE
100
AcDbEntity
  8
0
100
AcDbPolyline
 90
27
 70
1
 10
-3.81767
 20
4.96595
 10
-3.58412
 20
5.03587
 10
-3.37298
 20
5.15777
 10
-3.19565
 20
5.32507
 10
-3.06169
 20
5.52876
 10
-2.9783
 20
5.75785
 10
-2.95
 20
6
 10
-2.9783
 20
6.24215
 10
-3.06169
 20
6.47124
 10
-3.19565
 20
6.67493
 10
-3.37298
 20
6.84223
 10
-3.58412
 20
6.96413
 10
-3.81767
 20
7.03405
 10
-4.06105
 20
7.04822
 10
-4.30114
 20
7.00589
 10
-4.525
 20
6.90933
 10
-4.72055
 20
6.76374
 10
-4.87726
 20
6.57698
 10
-4.98668
 20
6.35912
 10
-5.0429
 20
6.1219
 10
-5.0429
 20
5.8781
 10
-4.98668
 20
5.64088
 10
-4.87726
 20
5.42302
 10
-4.72055
 20
5.23626
 10
-4.525
 20
5.09067
 10
-4.30114
 20
4.99411
 10
-4.06105
 20
4.95178
  0
LWPOLYLINE
100
AcDbEntity
  8
0
100
AcDbPolyline
 90
27
 70
1
 10
4.18233
 20
4.96595
 10
4.41588
 20
5.03587
 10
4.62702
 20
5.15777
 10
4.80435
 20
5.32507
 10
4.93831
 20
5.52876
 10
5.0217
 20
5.75785
 10
5.05
 20
6
 10
5.0217
 20
6.24215
 10
4.93831
 20
6.47124
 10
4.80435
 20
6.67493
 10
4.62702
 20
6.84223
 10
4.41588
 20
6.96413
 10
4.18233
 20
7.03405
 10
3.93895
 20
7.04822
 10
3.69886
 20
7.00589
 10
3.475
 20
6.90933
 10
3.27945
 20
6.76374
 10
3.12274
 20
6.57698
 10
3.01332
 20
6.35912
 10
2.9571
 20
6.1219
 10
2.9571
 20
5.8781
 10
3.01332
 20
5.64088
 10
3.12274
 20
5.42302
 10
3.27945
 20
5.23626
 10
3.475
 20
5.09067
 10
3.69886
 20
4.99411
 10
3.93895
 20
4.95178
  0
LWPOLYLINE
100
AcDbEntity
  8
0
100
AcDbPolyline
 90
27
 70
1
 10
-3.81767
 20
-7.03405
 10
-3.58412
 20
-6.96413
 10
-3.37298
 20
-6.84223
 10
-3.19565
 20
-6.67493
 10
-3.06169
 20
-6.47124
 10
-2.9783
 20
-6.24215
 10
-2.95
 20
-6
 10
-2.9783
 20
-5.75785
 10
-3.06169
 20
-5.52876
 10
-3.19565
 20
-5.32507
 10
-3.37298
 20
-5.15777
 10
-3.58412
 20
-5.03587
 10
-3.81767
 20
-4.96595
 10
-4.06105
 20
-4.95178
 10
-4.30114
 20
-4.99411
 10
-4.525
 20
-5.09067
 10
-4.72055
 20
-5.23626
 10
-4.87726
 20
-5.42302
 10
-4.98668
 20
-5.64088
 10
-5.0429
 20
-5.8781
 10
-5.0429
 20
-6.1219
 10
-4.98668
 20
-6.35912
 10
-4.87726
 20
-6.57698
 10
-4.72055
 20
-6.76374
 10
-4.525
 20
-6.90933
 10
-4.30114
 20
-7.00589
 10
-4.06105
 20
-7.04822
  0
LWPOLYLINE
100
AcDbEntity
  8
0
100
AcDbPolyline
 90
27
 70
1
 10
4.18233
 20
-7.03405
 10
4.41588
 20
-6.96413
 10
4.62702
 20
-6.84223
 10
4.80435
 20
-6.67493
 10
4.93831
 20
-6.47124
 10
5.0217
 20
-6.24215
 10
5.05
 20
-6
 10
5.0217
 20
-5.75785
 10
4.93831
 20
-5.52876
 10
4.80435
 20
-5.32507
 10
4.62702
 20
-5.15777
 10
4.41588
 20
-5.03587
 10
4.18233
 20
-4.96595
 10
3.93895
 20
-4.95178
 10
3.69886
 20
-4.99411
 10
3.475
 20
-5.09067
 10
3.27945
 20
-5.23626
 10
3.12274
 20
-5.42302
 10
3.01332
 20
-5.64088
 10
2.9571
 20
-5.8781
 10
2.9571
 20
-6.1219
 10
3.01332
 20
-6.35912
 10
3.12274
 20
-6.57698
 10
3.27945
 20
-6.76374
 10
3.475
 20
-6.90933
 10
3.69886
 20
-7.00589
 10
3.93895
 20
-7.04822
  0
ENDSEC
  0
EOF
