999
DXF from OpenSCAD
  0
SECTION
  2
HEADER
  9
$ACADVER
  1
AC1006
  9
$INSBASE
 10
0.0
 20
0.0
 30
0.0
  9
$EXTMIN
 10
-30
 20
-40
  9
$EXTMAX
 10
30
 20
40
  9
$LINMIN
 10
-30
 20
-40
  9
$LINMAX
 10
30
 20
40
  0
ENDSEC
  0
SECTION
  2
TABLES
  0
TABLE
  2
LTYPE
 70
1
  0
LTYPE
  2
CONTINUOUS
 70
64
  3
Solid line
 72
65
 73
0
 40
0.000000
  0
ENDTAB
  0
TABLE
  2
LAYER
 70
6
  0
LAYER
  2
0
 70
64
 62
7
  6
CONTINUOUS
  0
ENDTAB
  0
TABLE
  2
STYLE
 70
0
  0
ENDTAB
  0
ENDSEC
  0
SECTION
  2
BLOCKS
  0
ENDSEC
  0
SECTION
  2
ENTITIES
  0
LWPOLYLINE
100
AcDbEntity
  8
0
100
AcDbPolyline
 90
64
 70
1
 10
27.3136
 20
-39.9836
 10
27.6237
 20
-39.9344
 10
27.9271
 20
-39.8532
 10
28.2202
 20
-39.7406
 10
28.5
 20
-39.5981
 10
28.7634
 20
-39.4271
 10
29.0074
 20
-39.2294
 10
29.2294
 20
-39.0074
 10
29.4271
 20
-38.7634
 10
29.5981
 20
-38.5
 10
29.7406
 20
-38.2202
 10
29.8532
 20
-37.9271
 10
29.9344
 20
-37.6237
 10
29.9836
 20
-37.3136
 10
30
 20
-37
 10
30
 20
37
 10
29.9836
 20
37.3136
 10
29.9344
 20
37.6237
 10
29.8532
 20
37.9271
 10
29.7406
 20
38.2202
 10
29.5981
 20
38.5
 10
29.4271
 20
38.7634
 10
29.2294
 20
39.0074
 10
29.0074
 20
39.2294
 10
28.7634
 20
39.4271
 10
28.5
 20
39.5981
 10
28.2202
 20
39.7406
 10
27.9271
 20
39.8532
 10
27.6237
 20
39.9344
 10
27.3136
 20
39.9836
 10
27
 20
40
 10
-27
 20
40
 10
-27.3136
 20
39.9836
 10
-27.6237
 20
39.9344
 10
-27.9271
 20
39.8532
 10
-28.2202
 20
39.7406
 10
-28.5
 20
39.5981
 10
-28.7634
 20
39.4271
 10
-29.0074
 20
39.2294
 10
-29.2294
 20
39.0074
 10
-29.4271
 20
38.7634
 10
-29.5981
 20
38.5
 10
-29.7406
 20
38.2202
 10
-29.8532
 20
37.9271
 10
-29.9344
 20
37.6237
 10
-29.9836
 20
37.3136
 10
-30
 20
37
 10
-30
 20
-37
 10
-29.9836
 20
-37.3136
 10
-29.9344
 20
-37.6237
 10
-29.8532
 20
-37.9271
 10
-29.7406
 20
-38.2202
 10
-29.5981
 20
-38.5
 10
-29.4271
 20
-38.7634
 10
-29.2294
 20
-39.0074
 10
-29.0074
 20
-39.2294
 10
-28.7634
 20
-39.4271
 10
-28.5
 20
-39.5981
 10
-28.2202
 20
-39.7406
 10
-27.9271
 20
-39.8532
 10
-27.6237
 20
-39.9344
 10
-27.3136
 20
-39.9836
 10
-27
 20
-40
 10
27
 20
-40
  0
LWPOLYLINE
100
AcDbEntity
  8
0
100
AcDbPolyline
 90
60
 70
1
 10
-0.261321
 20
20.5137
 10
-0.519779
 20
20.5546
 10
-0.772542
 20
20.6224
 10
-1.01684
 20
20.7161
 10
-1.25
 20
20.8349
 10
-1.46946
 20
20.9775
 10
-1.67283
 20
21.1421
 10
-1.85786
 20
21.3272
 10
-2.02254
 20
21.5305
 10
-2.16506
 20
21.75
 10
-2.28386
 20
21.9832
 10
-2.37764
 20
22.2275
 10
-2.44537
 20
22.4802
 10
-2.4863
 20
22.7387
 10
-2.5
 20
23
 10
-2.4863
 20
23.2613
 10
-2.44537
 20
23.5198
 10
-2.37764
 20
23.7725
 10
-2.28386
 20
24.0168
 10
-2.16506
 20
24.25
 10
-2.02254
 20
24.4695
 10
-1.85786
 20
24.6728
 10
-1.67283
 20
24.8579
 10
-1.46946
 20
25.0225
 10
-1.25
 20
25.1651
 10
-1.01684
 20
25.2839
 10
-0.772542
 20
25.3776
 10
-0.519779
 20
25.4454
 10
-0.261321
 20
25.4863
 10
0
 20
25.5
 10
0.261321
 20
25.4863
 10
0.519779
 20
25.4454
 10
0.772542
 20
25.3776
 10
1.01684
 20
25.2839
 10
1.25
 20
25.1651
 10
1.46946
 20
25.0225
 10
1.67283
 20
24.8579
 10
1.85786
 20
24.6728
 10
2.02254
 20
24.4695
 10
2.16506
 20
24.25
 10
2.28386
 20
24.0168
 10
2.37764
 20
23.7725
 10
2.44537
 20
23.5198
 10
2.4863
 20
23.2613
 10
2.5
 20
23
 10
2.4863
 20
22.7387
 10
2.44537
 20
22.4802
 10
2.37764
 20
22.2275
 10
2.28386
 20
21.9832
 10
2.16506
 20
21.75
 10
2.02254
 20
21.5305
 10
1.85786
 20
21.3272
 10
1.67283
 20
21.1421
 10
1.46946
 20
20.9775
 10
1.25
 20
20.8349
 10
1.01684
 20
20.7161
 10
0.772542
 20
20.6224
 10
0.519779
 20
20.5546
 10
0.261321
 20
20.5137
 10
0
 20
20.5
  0
LWPOLYLINE
100
AcDbEntity
  8
0
100
AcDbPolyline
 90
60
 70
1
 10
14.5714
 20
15.9225
 10
14.1476
 20
15.9896
 10
13.733
 20
16.1007
 10
13.3324
 20
16.2545
 10
12.95
 20
16.4493
 10
12.5901
 20
16.683
 10
12.2566
 20
16.9531
 10
11.9531
 20
17.2566
 10
11.683
 20
17.5901
 10
11.4493
 20
17.95
 10
11.2545
 20
18.3324
 10
11.1007
 20
18.733
 10
10.9896
 20
19.1476
 10
10.9225
 20
19.5714
 10
10.9
 20
20
 10
10.9225
 20
20.4286
 10
10.9896
 20
20.8524
 10
11.1007
 20
21.267
 10
11.2545
 20
21.6676
 10
11.4493
 20
22.05
 10
11.683
 20
22.4099
 10
11.9531
 20
22.7434
 10
12.2566
 20
23.0469
 10
12.5901
 20
23.317
 10
12.95
 20
23.5507
 10
13.3324
 20
23.7455
 10
13.733
 20
23.8993
 10
14.1476
 20
24.0104
 10
14.5714
 20
24.0775
 10
15
 20
24.1
 10
15.4286
 20
24.0775
 10
15.8524
 20
24.0104
 10
16.267
 20
23.8993
 10
16.6676
 20
23.7455
 10
17.05
 20
23.5507
 10
17.4099
 20
23.317
 10
17.7434
 20
23.0469
 10
18.0469
 20
22.7434
 10
18.317
 20
22.4099
 10
18.5507
 20
22.05
 10
18.7455
 20
21.6676
 10
18.8993
 20
21.267
 10
19.0104
 20
20.8524
 10
19.0775
 20
20.4286
 10
19.1
 20
20
 10
19.0775
 20
19.5714
 10
19.0104
 20
19.1476
 10
18.8993
 20
18.733
 10
18.7455
 20
18.3324
 10
18.5507
 20
17.95
 10
18.317
 20
17.5901
 10
18.0469
 20
17.2566
 10
17.7434
 20
16.9531
 10
17.4099
 20
16.683
 10
17.05
 20
16.4493
 10
16.6676
 20
16.2545
 10
16.267
 20
16.1007
 10
15.8524
 20
15.9896
 10
15.4286
 20
15.9225
 10
15
 20
15.9
  0
LWPOLYLINE
100
AcDbEntity
  8
0
100
AcDbPolyline
 90
60
 70
1
 10
-15.4286
 20
15.9225
 10
-15.8524
 20
15.9896
 10
-16.267
 20
16.1007
 10
-16.6676
 20
16.2545
 10
-17.05
 20
16.4493
 10
-17.4099
 20
16.683
 10
-17.7434
 20
16.9531
 10
-18.0469
 20
17.2566
 10
-18.317
 20
17.5901
 10
-18.5507
 20
17.95
 10
-18.7455
 20
18.3324
 10
-18.8993
 20
18.733
 10
-19.0104
 20
19.1476
 10
-19.0775
 20
19.5714
 10
-19.1
 20
20
 10
-19.0775
 20
20.4286
 10
-19.0104
 20
20.8524
 10
-18.8993
 20
21.267
 10
-18.7455
 20
21.6676
 10
-18.5507
 20
22.05
 10
-18.317
 20
22.4099
 10
-18.0469
 20
22.7434
 10
-17.7434
 20
23.0469
 10
-17.4099
 20
23.317
 10
-17.05
 20
23.5507
 10
-16.6676
 20
23.7455
 10
-16.267
 20
23.8993
 10
-15.8524
 20
24.0104
 10
-15.4286
 20
24.0775
 10
-15
 20
24.1
 10
-14.5714
 20
24.0775
 10
-14.1476
 20
24.0104
 10
-13.733
 20
23.8993
 10
-13.3324
 20
23.7455
 10
-12.95
 20
23.5507
 10
-12.5901
 20
23.317
 10
-12.2566
 20
23.0469
 10
-11.9531
 20
22.7434
 10
-11.683
 20
22.4099
 10
-11.4493
 20
22.05
 10
-11.2545
 20
21.6676
 10
-11.1007
 20
21.267
 10
-10.9896
 20
20.8524
 10
-10.9225
 20
20.4286
 10
-10.9
 20
20
 10
-10.9225
 20
19.5714
 10
-10.9896
 20
19.1476
 10
-11.1007
 20
18.733
 10
-11.2545
 20
18.3324
 10
-11.4493
 20
17.95
 10
-11.683
 20
17.5901
 10
-11.9531
 20
17.2566
 10
-12.2566
 20
16.9531
 10
-12.5901
 20
16.683
 10
-12.95
 20
16.4493
 10
-13.3324
 20
16.2545
 10
-13.733
 20
16.1007
 10
-14.1476
 20
15.9896
 10
-14.5714
 20
15.9225
 10
-15
 20
15.9
  0
LWPOLYLINE
100
AcDbEntity
  8
0
100
AcDbPolyline
 90
60
 70
1
 10
14.5714
 20
-24.0775
 10
14.1476
 20
-24.0104
 10
13.733
 20
-23.8993
 10
13.3324
 20
-23.7455
 10
12.95
 20
-23.5507
 10
12.5901
 20
-23.317
 10
12.2566
 20
-23.0469
 10
11.9531
 20
-22.7434
 10
11.683
 20
-22.4099
 10
11.4493
 20
-22.05
 10
11.2545
 20
-21.6676
 10
11.1007
 20
-21.267
 10
10.9896
 20
-20.8524
 10
10.9225
 20
-20.4286
 10
10.9
 20
-20
 10
10.9225
 20
-19.5714
 10
10.9896
 20
-19.1476
 10
11.1007
 20
-18.733
 10
11.2545
 20
-18.3324
 10
11.4493
 20
-17.95
 10
11.683
 20
-17.5901
 10
11.9531
 20
-17.2566
 10
12.2566
 20
-16.9531
 10
12.5901
 20
-16.683
 10
12.95
 20
-16.4493
 10
13.3324
 20
-16.2545
 10
13.733
 20
-16.1007
 10
14.1476
 20
-15.9896
 10
14.5714
 20
-15.9225
 10
15
 20
-15.9
 10
15.4286
 20
-15.9225
 10
15.8524
 20
-15.9896
 10
16.267
 20
-16.1007
 10
16.6676
 20
-16.2545
 10
17.05
 20
-16.4493
 10
17.4099
 20
-16.683
 10
17.7434
 20
-16.9531
 10
18.0469
 20
-17.2566
 10
18.317
 20
-17.5901
 10
18.5507
 20
-17.95
 10
18.7455
 20
-18.3324
 10
18.8993
 20
-18.733
 10
19.0104
 20
-19.1476
 10
19.0775
 20
-19.5714
 10
19.1
 20
-20
 10
19.0775
 20
-20.4286
 10
19.0104
 20
-20.8524
 10
18.8993
 20
-21.267
 10
18.7455
 20
-21.6676
 10
18.5507
 20
-22.05
 10
18.317
 20
-22.4099
 10
18.0469
 20
-22.7434
 10
17.7434
 20
-23.0469
 10
17.4099
 20
-23.317
 10
17.05
 20
-23.5507
 10
16.6676
 20
-23.7455
 10
16.267
 20
-23.8993
 10
15.8524
 20
-24.0104
 10
15.4286
 20
-24.0775
 10
15
 20
-24.1
  0
LWPOLYLINE
100
AcDbEntity
  8
0
100
AcDbPolyline
 90
60
 70
1
 10
-15.4286
 20
-24.0775
 10
-15.8524
 20
-24.0104
 10
-16.267
 20
-23.8993
 10
-16.6676
 20
-23.7455
 10
-17.05
 20
-23.5507
 10
-17.4099
 20
-23.317
 10
-17.7434
 20
-23.0469
 10
-18.0469
 20
-22.7434
 10
-18.317
 20
-22.4099
 10
-18.5507
 20
-22.05
 10
-18.7455
 20
-21.6676
 10
-18.8993
 20
-21.267
 10
-19.0104
 20
-20.8524
 10
-19.0775
 20
-20.4286
 10
-19.1
 20
-20
 10
-19.0775
 20
-19.5714
 10
-19.0104
 20
-19.1476
 10
-18.8993
 20
-18.733
 10
-18.7455
 20
-18.3324
 10
-18.5507
 20
-17.95
 10
-18.317
 20
-17.5901
 10
-18.0469
 20
-17.2566
 10
-17.7434
 20
-16.9531
 10
-17.4099
 20
-16.683
 10
-17.05
 20
-16.4493
 10
-16.6676
 20
-16.2545
 10
-16.267
 20
-16.1007
 10
-15.8524
 20
-15.9896
 10
-15.4286
 20
-15.9225
 10
-15
 20
-15.9
 10
-14.5714
 20
-15.9225
 10
-14.1476
 20
-15.9896
 10
-13.733
 20
-16.1007
 10
-13.3324
 20
-16.2545
 10
-12.95
 20
-16.4493
 10
-12.5901
 20
-16.683
 10
-12.2566
 20
-16.9531
 10
-11.9531
 20
-17.2566
 10
-11.683
 20
-17.5901
 10
-11.4493
 20
-17.95
 10
-11.2545
 20
-18.3324
 10
-11.1007
 20
-18.733
 10
-10.9896
 20
-19.1476
 10
-10.9225
 20
-19.5714
 10
-10.9
 20
-20
 10
-10.9225
 20
-20.4286
 10
-10.9896
 20
-20.8524
 10
-11.1007
 20
-21.267
 10
-11.2545
 20
-21.6676
 10
-11.4493
 20
-22.05
 10
-11.683
 20
-22.4099
 10
-11.9531
 20
-22.7434
 10
-12.2566
 20
-23.0469
 10
-12.5901
 20
-23.317
 10
-12.95
 20
-23.5507
 10
-13.3324
 20
-23.7455
 10
-13.733
 20
-23.8993
 10
-14.1476
 20
-24.0104
 10
-14.5714
 20
-24.0775
 10
-15
 20
-24.1
  0
LWPOLYLINE
100
AcDbEntity
  8
0
100
AcDbPolyline
 90
60
 70
1
 10
-0.261321
 20
-25.4863
 10
-0.519779
 20
-25.4454
 10
-0.772542
 20
-25.3776
 10
-1.01684
 20
-25.2839
 10
-1.25
 20
-25.1651
 10
-1.46946
 20
-25.0225
 10
-1.67283
 20
-24.8579
 10
-1.85786
 20
-24.6728
 10
-2.02254
 20
-24.4695
 10
-2.16506
 20
-24.25
 10
-2.28386
 20
-24.0168
 10
-2.37764
 20
-23.7725
 10
-2.44537
 20
-23.5198
 10
-2.4863
 20
-23.2613
 10
-2.5
 20
-23
 10
-2.4863
 20
-22.7387
 10
-2.44537
 20
-22.4802
 10
-2.37764
 20
-22.2275
 10
-2.28386
 20
-21.9832
 10
-2.16506
 20
-21.75
 10
-2.02254
 20
-21.5305
 10
-1.85786
 20
-21.3272
 10
-1.67283
 20
-21.1421
 10
-1.46946
 20
-20.9775
 10
-1.25
 20
-20.8349
 10
-1.01684
 20
-20.7161
 10
-0.772542
 20
-20.6224
 10
-0.519779
 20
-20.5546
 10
-0.261321
 20
-20.5137
 10
0
 20
-20.5
 10
0.261321
 20
-20.5137
 10
0.519779
 20
-20.5546
 10
0.772542
 20
-20.6224
 10
1.01684
 20
-20.7161
 10
1.25
 20
-20.8349
 10
1.46946
 20
-20.9775
 10
1.67283
 20
-21.1421
 10
1.85786
 20
-21.3272
 10
2.02254
 20
-21.5305
 10
2.16506
 20
-21.75
 10
2.28386
 20
-21.9832
 10
2.37764
 20
-22.2275
 10
2.44537
 20
-22.4802
 10
2.4863
 20
-22.7387
 10
2.5
 20
-23
 10
2.4863
 20
-23.2613
 10
2.44537
 20
-23.5198
 10
2.37764
 20
-23.7725
 10
2.28386
 20
-24.0168
 10
2.16506
 20
-24.25
 10
2.02254
 20
-24.4695
 10
1.85786
 20
-24.6728
 10
1.67283
 20
-24.8579
 10
1.46946
 20
-25.0225
 10
1.25
 20
-25.1651
 10
1.01684
 20
-25.2839
 10
0.772542
 20
-25.3776
 10
0.519779
 20
-25.4454
 10
0.261321
 20
-25.4863
 10
0
 20
-25.5
  0
ENDSEC
  0
EOF
