  0
SECTION
  2
BLOCKS
  0
ENDSEC
  0
SECTION
  2
ENTITIES
  0
LINE
  8
0
 10
27.6676
 20
-39.9248
 11
28.3017
 21
-39.7029
  0
LINE
  8
0
 10
28.3017
 20
-39.7029
 11
28.8705
 21
-39.3455
  0
LINE
  8
0
 10
28.8705
 20
-39.3455
 11
29.3455
 21
-38.8705
  0
LINE
  8
0
 10
29.3455
 20
-38.8705
 11
29.7029
 21
-38.3017
  0
LINE
  8
0
 10
29.7029
 20
-38.3017
 11
29.9248
 21
-37.6676
  0
LINE
  8
0
 10
29.9248
 20
-37.6676
 11
30
 21
-37
  0
LINE
  8
0
 10
30
 20
-37
 11
30
 21
37
  0
LINE
  8
0
 10
30
 20
37
 11
29.9248
 21
37.6676
  0
LINE
  8
0
 10
29.9248
 20
37.6676
 11
29.7029
 21
38.3017
  0
LINE
  8
0
 10
29.7029
 20
38.3017
 11
29.3455
 21
38.8705
  0
LINE
  8
0
 10
29.3455
 20
38.8705
 11
28.8705
 21
39.3455
  0
LINE
  8
0
 10
28.8705
 20
39.3455
 11
28.3017
 21
39.7029
  0
LINE
  8
0
 10
28.3017
 20
39.7029
 11
27.6676
 21
39.9248
  0
LINE
  8
0
 10
27.6676
 20
39.9248
 11
27
 21
40
  0
LINE
  8
0
 10
27
 20
40
 11
-27
 21
40
  0
LINE
  8
0
 10
-27
 20
40
 11
-27.6676
 21
39.9248
  0
LINE
  8
0
 10
-27.6676
 20
39.9248
 11
-28.3017
 21
39.7029
  0
LINE
  8
0
 10
-28.3017
 20
39.7029
 11
-28.8705
 21
39.3455
  0
LINE
  8
0
 10
-28.8705
 20
39.3455
 11
-29.3455
 21
38.8705
  0
LINE
  8
0
 10
-29.3455
 20
38.8705
 11
-29.7029
 21
38.3017
  0
LINE
  8
0
 10
-29.7029
 20
38.3017
 11
-29.9248
 21
37.6676
  0
LINE
  8
0
 10
-29.9248
 20
37.6676
 11
-30
 21
37
  0
LINE
  8
0
 10
-30
 20
37
 11
-30
 21
-37
  0
LINE
  8
0
 10
-30
 20
-37
 11
-29.9248
 21
-37.6676
  0
LINE
  8
0
 10
-29.9248
 20
-37.6676
 11
-29.7029
 21
-38.3017
  0
LINE
  8
0
 10
-29.7029
 20
-38.3017
 11
-29.3455
 21
-38.8705
  0
LINE
  8
0
 10
-29.3455
 20
-38.8705
 11
-28.8705
 21
-39.3455
  0
LINE
  8
0
 10
-28.8705
 20
-39.3455
 11
-28.3017
 21
-39.7029
  0
LINE
  8
0
 10
-28.3017
 20
-39.7029
 11
-27.6676
 21
-39.9248
  0
LINE
  8
0
 10
-27.6676
 20
-39.9248
 11
-27
 21
-40
  0
LINE
  8
0
 10
-27
 20
-40
 11
27
 21
-40
  0
LINE
  8
0
 10
27
 20
-40
 11
27.6676
 21
-39.9248
  0
LINE
  8
0
 10
6.03154
 20
20.5443
 11
5.43555
 21
20.7379
  0
LINE
  8
0
 10
5.43555
 20
20.7379
 11
4.90643
 21
21.0737
  0
LINE
  8
0
 10
4.90643
 20
21.0737
 11
4.47745
 21
21.5305
  0
LINE
  8
0
 10
4.47745
 20
21.5305
 11
4.17555
 21
22.0797
  0
LINE
  8
0
 10
4.17555
 20
22.0797
 11
4.0197
 21
22.6867
  0
LINE
  8
0
 10
4.0197
 20
22.6867
 11
4.0197
 21
23.3133
  0
LINE
  8
0
 10
4.0197
 20
23.3133
 11
4.17555
 21
23.9203
  0
LINE
  8
0
 10
4.17555
 20
23.9203
 11
4.47745
 21
24.4695
  0
LINE
  8
0
 10
4.47745
 20
24.4695
 11
4.90643
 21
24.9263
  0
LINE
  8
0
 10
4.90643
 20
24.9263
 11
5.43555
 21
25.2621
  0
LINE
  8
0
 10
5.43555
 20
25.2621
 11
6.03154
 21
25.4557
  0
LINE
  8
0
 10
6.03154
 20
25.4557
 11
6.65697
 21
25.4951
  0
LINE
  8
0
 10
6.65697
 20
25.4951
 11
7.27254
 21
25.3776
  0
LINE
  8
0
 10
7.27254
 20
25.3776
 11
7.83955
 21
25.1108
  0
LINE
  8
0
 10
7.83955
 20
25.1108
 11
8.32242
 21
24.7114
  0
LINE
  8
0
 10
8.32242
 20
24.7114
 11
8.69077
 21
24.2044
  0
LINE
  8
0
 10
8.69077
 20
24.2044
 11
8.92145
 21
23.6217
  0
LINE
  8
0
 10
8.92145
 20
23.6217
 11
9
 21
23
  0
LINE
  8
0
 10
9
 20
23
 11
8.92145
 21
22.3783
  0
LINE
  8
0
 10
8.92145
 20
22.3783
 11
8.69077
 21
21.7956
  0
LINE
  8
0
 10
8.69077
 20
21.7956
 11
8.32242
 21
21.2886
  0
LINE
  8
0
 10
8.32242
 20
21.2886
 11
7.83955
 21
20.8892
  0
LINE
  8
0
 10
7.83955
 20
20.8892
 11
7.27254
 21
20.6223
  0
LINE
  8
0
 10
7.27254
 20
20.6223
 11
6.65697
 21
20.5049
  0
LINE
  8
0
 10
6.65697
 20
20.5049
 11
6.03154
 21
20.5443
  0
LINE
  8
0
 10
-6.96844
 20
20.5443
 11
-7.56444
 21
20.7379
  0
LINE
  8
0
 10
-7.56444
 20
20.7379
 11
-8.09355
 21
21.0737
  0
LINE
  8
0
 10
-8.09355
 20
21.0737
 11
-8.52254
 21
21.5305
  0
LINE
  8
0
 10
-8.52254
 20
21.5305
 11
-8.82443
 21
22.0797
  0
LINE
  8
0
 10
-8.82443
 20
22.0797
 11
-8.98029
 21
22.6867
  0
LINE
  8
0
 10
-8.98029
 20
22.6867
 11
-8.98029
 21
23.3133
  0
LINE
  8
0
 10
-8.98029
 20
23.3133
 11
-8.82443
 21
23.9203
  0
LINE
  8
0
 10
-8.82443
 20
23.9203
 11
-8.52254
 21
24.4695
  0
LINE
  8
0
 10
-8.52254
 20
24.4695
 11
-8.09355
 21
24.9263
  0
LINE
  8
0
 10
-8.09355
 20
24.9263
 11
-7.56444
 21
25.2621
  0
LINE
  8
0
 10
-7.56444
 20
25.2621
 11
-6.96844
 21
25.4557
  0
LINE
  8
0
 10
-6.96844
 20
25.4557
 11
-6.34302
 21
25.4951
  0
LINE
  8
0
 10
-6.34302
 20
25.4951
 11
-5.72745
 21
25.3776
  0
LINE
  8
0
 10
-5.72745
 20
25.3776
 11
-5.16043
 21
25.1108
  0
LINE
  8
0
 10
-5.16043
 20
25.1108
 11
-4.67757
 21
24.7114
  0
LINE
  8
0
 10
-4.67757
 20
24.7114
 11
-4.30922
 21
24.2044
  0
LINE
  8
0
 10
-4.30922
 20
24.2044
 11
-4.07854
 21
23.6217
  0
LINE
  8
0
 10
-4.07854
 20
23.6217
 11
-4
 21
23
  0
LINE
  8
0
 10
-4
 20
23
 11
-4.07854
 21
22.3783
  0
LINE
  8
0
 10
-4.07854
 20
22.3783
 11
-4.30922
 21
21.7956
  0
LINE
  8
0
 10
-4.30922
 20
21.7956
 11
-4.67757
 21
21.2886
  0
LINE
  8
0
 10
-4.67757
 20
21.2886
 11
-5.16043
 21
20.8892
  0
LINE
  8
0
 10
-5.16043
 20
20.8892
 11
-5.72745
 21
20.6223
  0
LINE
  8
0
 10
-5.72745
 20
20.6223
 11
-6.34302
 21
20.5049
  0
LINE
  8
0
 10
-6.34302
 20
20.5049
 11
-6.96844
 21
20.5443
  0
LINE
  8
0
 10
19.2317
 20
15.9726
 11
18.2543
 21
16.2902
  0
LINE
  8
0
 10
18.2543
 20
16.2902
 11
17.3866
 21
16.8409
  0
LINE
  8
0
 10
17.3866
 20
16.8409
 11
16.683
 21
17.5901
  0
LINE
  8
0
 10
16.683
 20
17.5901
 11
16.1879
 21
18.4907
  0
LINE
  8
0
 10
16.1879
 20
18.4907
 11
15.9323
 21
19.4861
  0
LINE
  8
0
 10
15.9323
 20
19.4861
 11
15.9323
 21
20.5139
  0
LINE
  8
0
 10
15.9323
 20
20.5139
 11
16.1879
 21
21.5093
  0
LINE
  8
0
 10
16.1879
 20
21.5093
 11
16.683
 21
22.4099
  0
LINE
  8
0
 10
16.683
 20
22.4099
 11
17.3866
 21
23.1591
  0
LINE
  8
0
 10
17.3866
 20
23.1591
 11
18.2543
 21
23.7098
  0
LINE
  8
0
 10
18.2543
 20
23.7098
 11
19.2317
 21
24.0274
  0
LINE
  8
0
 10
19.2317
 20
24.0274
 11
20.2574
 21
24.0919
  0
LINE
  8
0
 10
20.2574
 20
24.0919
 11
21.267
 21
23.8993
  0
LINE
  8
0
 10
21.267
 20
23.8993
 11
22.1969
 21
23.4617
  0
LINE
  8
0
 10
22.1969
 20
23.4617
 11
22.9888
 21
22.8066
  0
LINE
  8
0
 10
22.9888
 20
22.8066
 11
23.5928
 21
21.9752
  0
LINE
  8
0
 10
23.5928
 20
21.9752
 11
23.9712
 21
21.0196
  0
LINE
  8
0
 10
23.9712
 20
21.0196
 11
24.1
 21
20
  0
LINE
  8
0
 10
24.1
 20
20
 11
23.9712
 21
18.9804
  0
LINE
  8
0
 10
23.9712
 20
18.9804
 11
23.5928
 21
18.0248
  0
LINE
  8
0
 10
23.5928
 20
18.0248
 11
22.9888
 21
17.1933
  0
LINE
  8
0
 10
22.9888
 20
17.1933
 11
22.1969
 21
16.5383
  0
LINE
  8
0
 10
22.1969
 20
16.5383
 11
21.267
 21
16.1007
  0
LINE
  8
0
 10
21.267
 20
16.1007
 11
20.2574
 21
15.9081
  0
LINE
  8
0
 10
20.2574
 20
15.9081
 11
19.2317
 21
15.9726
  0
LINE
  8
0
 10
-20.7682
 20
15.9726
 11
-21.7457
 21
16.2902
  0
LINE
  8
0
 10
-21.7457
 20
16.2902
 11
-22.6134
 21
16.8409
  0
LINE
  8
0
 10
-22.6134
 20
16.8409
 11
-23.317
 21
17.5901
  0
LINE
  8
0
 10
-23.317
 20
17.5901
 11
-23.8121
 21
18.4907
  0
LINE
  8
0
 10
-23.8121
 20
18.4907
 11
-24.0677
 21
19.4861
  0
LINE
  8
0
 10
-24.0677
 20
19.4861
 11
-24.0677
 21
20.5139
  0
LINE
  8
0
 10
-24.0677
 20
20.5139
 11
-23.8121
 21
21.5093
  0
LINE
  8
0
 10
-23.8121
 20
21.5093
 11
-23.317
 21
22.4099
  0
LINE
  8
0
 10
-23.317
 20
22.4099
 11
-22.6134
 21
23.1591
  0
LINE
  8
0
 10
-22.6134
 20
23.1591
 11
-21.7457
 21
23.7098
  0
LINE
  8
0
 10
-21.7457
 20
23.7098
 11
-20.7682
 21
24.0274
  0
LINE
  8
0
 10
-20.7682
 20
24.0274
 11
-19.7426
 21
24.0919
  0
LINE
  8
0
 10
-19.7426
 20
24.0919
 11
-18.733
 21
23.8993
  0
LINE
  8
0
 10
-18.733
 20
23.8993
 11
-17.8031
 21
23.4617
  0
LINE
  8
0
 10
-17.8031
 20
23.4617
 11
-17.0112
 21
22.8066
  0
LINE
  8
0
 10
-17.0112
 20
22.8066
 11
-16.4071
 21
21.9752
  0
LINE
  8
0
 10
-16.4071
 20
21.9752
 11
-16.0288
 21
21.0196
  0
LINE
  8
0
 10
-16.0288
 20
21.0196
 11
-15.9
 21
20
  0
LINE
  8
0
 10
-15.9
 20
20
 11
-16.0288
 21
18.9804
  0
LINE
  8
0
 10
-16.0288
 20
18.9804
 11
-16.4071
 21
18.0248
  0
LINE
  8
0
 10
-16.4071
 20
18.0248
 11
-17.0112
 21
17.1933
  0
LINE
  8
0
 10
-17.0112
 20
17.1933
 11
-17.8031
 21
16.5383
  0
LINE
  8
0
 10
-17.8031
 20
16.5383
 11
-18.733
 21
16.1007
  0
LINE
  8
0
 10
-18.733
 20
16.1007
 11
-19.7426
 21
15.9081
  0
LINE
  8
0
 10
-19.7426
 20
15.9081
 11
-20.7682
 21
15.9726
  0
LINE
  8
0
 10
19.2317
 20
-24.0274
 11
18.2543
 21
-23.7098
  0
LINE
  8
0
 10
18.2543
 20
-23.7098
 11
17.3866
 21
-23.1591
  0
LINE
  8
0
 10
17.3866
 20
-23.1591
 11
16.683
 21
-22.4099
  0
LINE
  8
0
 10
16.683
 20
-22.4099
 11
16.1879
 21
-21.5093
  0
LINE
  8
0
 10
16.1879
 20
-21.5093
 11
15.9323
 21
-20.5139
  0
LINE
  8
0
 10
15.9323
 20
-20.5139
 11
15.9323
 21
-19.4861
  0
LINE
  8
0
 10
15.9323
 20
-19.4861
 11
16.1879
 21
-18.4907
  0
LINE
  8
0
 10
16.1879
 20
-18.4907
 11
16.683
 21
-17.5901
  0
LINE
  8
0
 10
16.683
 20
-17.5901
 11
17.3866
 21
-16.8409
  0
LINE
  8
0
 10
17.3866
 20
-16.8409
 11
18.2543
 21
-16.2902
  0
LINE
  8
0
 10
18.2543
 20
-16.2902
 11
19.2317
 21
-15.9726
  0
LINE
  8
0
 10
19.2317
 20
-15.9726
 11
20.2574
 21
-15.9081
  0
LINE
  8
0
 10
20.2574
 20
-15.9081
 11
21.267
 21
-16.1007
  0
LINE
  8
0
 10
21.267
 20
-16.1007
 11
22.1969
 21
-16.5383
  0
LINE
  8
0
 10
22.1969
 20
-16.5383
 11
22.9888
 21
-17.1933
  0
LINE
  8
0
 10
22.9888
 20
-17.1933
 11
23.5928
 21
-18.0248
  0
LINE
  8
0
 10
23.5928
 20
-18.0248
 11
23.9712
 21
-18.9804
  0
LINE
  8
0
 10
23.9712
 20
-18.9804
 11
24.1
 21
-20
  0
LINE
  8
0
 10
24.1
 20
-20
 11
23.9712
 21
-21.0196
  0
LINE
  8
0
 10
23.9712
 20
-21.0196
 11
23.5928
 21
-21.9752
  0
LINE
  8
0
 10
23.5928
 20
-21.9752
 11
22.9888
 21
-22.8066
  0
LINE
  8
0
 10
22.9888
 20
-22.8066
 11
22.1969
 21
-23.4617
  0
LINE
  8
0
 10
22.1969
 20
-23.4617
 11
21.267
 21
-23.8993
  0
LINE
  8
0
 10
21.267
 20
-23.8993
 11
20.2574
 21
-24.0919
  0
LINE
  8
0
 10
20.2574
 20
-24.0919
 11
19.2317
 21
-24.0274
  0
LINE
  8
0
 10
-20.7682
 20
-24.0274
 11
-21.7457
 21
-23.7098
  0
LINE
  8
0
 10
-21.7457
 20
-23.7098
 11
-22.6134
 21
-23.1591
  0
LINE
  8
0
 10
-22.6134
 20
-23.1591
 11
-23.317
 21
-22.4099
  0
LINE
  8
0
 10
-23.317
 20
-22.4099
 11
-23.8121
 21
-21.5093
  0
LINE
  8
0
 10
-23.8121
 20
-21.5093
 11
-24.0677
 21
-20.5139
  0
LINE
  8
0
 10
-24.0677
 20
-20.5139
 11
-24.0677
 21
-19.4861
  0
LINE
  8
0
 10
-24.0677
 20
-19.4861
 11
-23.8121
 21
-18.4907
  0
LINE
  8
0
 10
-23.8121
 20
-18.4907
 11
-23.317
 21
-17.5901
  0
LINE
  8
0
 10
-23.317
 20
-17.5901
 11
-22.6134
 21
-16.8409
  0
LINE
  8
0
 10
-22.6134
 20
-16.8409
 11
-21.7457
 21
-16.2902
  0
LINE
  8
0
 10
-21.7457
 20
-16.2902
 11
-20.7682
 21
-15.9726
  0
LINE
  8
0
 10
-20.7682
 20
-15.9726
 11
-19.7426
 21
-15.9081
  0
LINE
  8
0
 10
-19.7426
 20
-15.9081
 11
-18.733
 21
-16.1007
  0
LINE
  8
0
 10
-18.733
 20
-16.1007
 11
-17.8031
 21
-16.5383
  0
LINE
  8
0
 10
-17.8031
 20
-16.5383
 11
-17.0112
 21
-17.1933
  0
LINE
  8
0
 10
-17.0112
 20
-17.1933
 11
-16.4071
 21
-18.0248
  0
LINE
  8
0
 10
-16.4071
 20
-18.0248
 11
-16.0288
 21
-18.9804
  0
LINE
  8
0
 10
-16.0288
 20
-18.9804
 11
-15.9
 21
-20
  0
LINE
  8
0
 10
-15.9
 20
-20
 11
-16.0288
 21
-21.0196
  0
LINE
  8
0
 10
-16.0288
 20
-21.0196
 11
-16.4071
 21
-21.9752
  0
LINE
  8
0
 10
-16.4071
 20
-21.9752
 11
-17.0112
 21
-22.8066
  0
LINE
  8
0
 10
-17.0112
 20
-22.8066
 11
-17.8031
 21
-23.4617
  0
LINE
  8
0
 10
-17.8031
 20
-23.4617
 11
-18.733
 21
-23.8993
  0
LINE
  8
0
 10
-18.733
 20
-23.8993
 11
-19.7426
 21
-24.0919
  0
LINE
  8
0
 10
-19.7426
 20
-24.0919
 11
-20.7682
 21
-24.0274
  0
LINE
  8
0
 10
6.03154
 20
-25.4557
 11
5.43555
 21
-25.2621
  0
LINE
  8
0
 10
5.43555
 20
-25.2621
 11
4.90643
 21
-24.9263
  0
LINE
  8
0
 10
4.90643
 20
-24.9263
 11
4.47745
 21
-24.4695
  0
LINE
  8
0
 10
4.47745
 20
-24.4695
 11
4.17555
 21
-23.9203
  0
LINE
  8
0
 10
4.17555
 20
-23.9203
 11
4.0197
 21
-23.3133
  0
LINE
  8
0
 10
4.0197
 20
-23.3133
 11
4.0197
 21
-22.6867
  0
LINE
  8
0
 10
4.0197
 20
-22.6867
 11
4.17555
 21
-22.0797
  0
LINE
  8
0
 10
4.17555
 20
-22.0797
 11
4.47745
 21
-21.5305
  0
LINE
  8
0
 10
4.47745
 20
-21.5305
 11
4.90643
 21
-21.0737
  0
LINE
  8
0
 10
4.90643
 20
-21.0737
 11
5.43555
 21
-20.7379
  0
LINE
  8
0
 10
5.43555
 20
-20.7379
 11
6.03154
 21
-20.5443
  0
LINE
  8
0
 10
6.03154
 20
-20.5443
 11
6.65697
 21
-20.5049
  0
LINE
  8
0
 10
6.65697
 20
-20.5049
 11
7.27254
 21
-20.6223
  0
LINE
  8
0
 10
7.27254
 20
-20.6223
 11
7.83955
 21
-20.8892
  0
LINE
  8
0
 10
7.83955
 20
-20.8892
 11
8.32242
 21
-21.2886
  0
LINE
  8
0
 10
8.32242
 20
-21.2886
 11
8.69077
 21
-21.7956
  0
LINE
  8
0
 10
8.69077
 20
-21.7956
 11
8.92145
 21
-22.3783
  0
LINE
  8
0
 10
8.92145
 20
-22.3783
 11
9
 21
-23
  0
LINE
  8
0
 10
9
 20
-23
 11
8.92145
 21
-23.6217
  0
LINE
  8
0
 10
8.92145
 20
-23.6217
 11
8.69077
 21
-24.2044
  0
LINE
  8
0
 10
8.69077
 20
-24.2044
 11
8.32242
 21
-24.7114
  0
LINE
  8
0
 10
8.32242
 20
-24.7114
 11
7.83955
 21
-25.1108
  0
LINE
  8
0
 10
7.83955
 20
-25.1108
 11
7.27254
 21
-25.3776
  0
LINE
  8
0
 10
7.27254
 20
-25.3776
 11
6.65697
 21
-25.4951
  0
LINE
  8
0
 10
6.65697
 20
-25.4951
 11
6.03154
 21
-25.4557
  0
LINE
  8
0
 10
-6.96844
 20
-25.4557
 11
-7.56444
 21
-25.2621
  0
LINE
  8
0
 10
-7.56444
 20
-25.2621
 11
-8.09355
 21
-24.9263
  0
LINE
  8
0
 10
-8.09355
 20
-24.9263
 11
-8.52254
 21
-24.4695
  0
LINE
  8
0
 10
-8.52254
 20
-24.4695
 11
-8.82443
 21
-23.9203
  0
LINE
  8
0
 10
-8.82443
 20
-23.9203
 11
-8.98029
 21
-23.3133
  0
LINE
  8
0
 10
-8.98029
 20
-23.3133
 11
-8.98029
 21
-22.6867
  0
LINE
  8
0
 10
-8.98029
 20
-22.6867
 11
-8.82443
 21
-22.0797
  0
LINE
  8
0
 10
-8.82443
 20
-22.0797
 11
-8.52254
 21
-21.5305
  0
LINE
  8
0
 10
-8.52254
 20
-21.5305
 11
-8.09355
 21
-21.0737
  0
LINE
  8
0
 10
-8.09355
 20
-21.0737
 11
-7.56444
 21
-20.7379
  0
LINE
  8
0
 10
-7.56444
 20
-20.7379
 11
-6.96844
 21
-20.5443
  0
LINE
  8
0
 10
-6.96844
 20
-20.5443
 11
-6.34302
 21
-20.5049
  0
LINE
  8
0
 10
-6.34302
 20
-20.5049
 11
-5.72745
 21
-20.6223
  0
LINE
  8
0
 10
-5.72745
 20
-20.6223
 11
-5.16043
 21
-20.8892
  0
LINE
  8
0
 10
-5.16043
 20
-20.8892
 11
-4.67757
 21
-21.2886
  0
LINE
  8
0
 10
-4.67757
 20
-21.2886
 11
-4.30922
 21
-21.7956
  0
LINE
  8
0
 10
-4.30922
 20
-21.7956
 11
-4.07854
 21
-22.3783
  0
LINE
  8
0
 10
-4.07854
 20
-22.3783
 11
-4
 21
-23
  0
LINE
  8
0
 10
-4
 20
-23
 11
-4.07854
 21
-23.6217
  0
LINE
  8
0
 10
-4.07854
 20
-23.6217
 11
-4.30922
 21
-24.2044
  0
LINE
  8
0
 10
-4.30922
 20
-24.2044
 11
-4.67757
 21
-24.7114
  0
LINE
  8
0
 10
-4.67757
 20
-24.7114
 11
-5.16043
 21
-25.1108
  0
LINE
  8
0
 10
-5.16043
 20
-25.1108
 11
-5.72745
 21
-25.3776
  0
LINE
  8
0
 10
-5.72745
 20
-25.3776
 11
-6.34302
 21
-25.4951
  0
LINE
  8
0
 10
-6.34302
 20
-25.4951
 11
-6.96844
 21
-25.4557
  0
ENDSEC
  0
SECTION
  2
OBJECTS
  0
DICTIONARY
  0
ENDSEC
  0
EOF
