999
DXF from OpenSCAD
  0
SECTION
  2
HEADER
  9
$ACADVER
  1
AC1006
  9
$INSBASE
 10
0.0
 20
0.0
 30
0.0
  9
$EXTMIN
 10
-40
 20
-40
  9
$EXTMAX
 10
40
 20
40
  9
$LINMIN
 10
-40
 20
-40
  9
$LINMAX
 10
40
 20
40
  0
ENDSEC
  0
SECTION
  2
TABLES
  0
TABLE
  2
LTYPE
 70
1
  0
LTYPE
  2
CONTINUOUS
 70
64
  3
Solid line
 72
65
 73
0
 40
0.000000
  0
ENDTAB
  0
TABLE
  2
LAYER
 70
6
  0
LAYER
  2
0
 70
64
 62
7
  6
CONTINUOUS
  0
ENDTAB
  0
TABLE
  2
STYLE
 70
0
  0
ENDTAB
  0
ENDSEC
  0
SECTION
  2
BLOCKS
  0
ENDSEC
  0
SECTION
  2
ENTITIES
  0
LWPOLYLINE
100
AcDbEntity
  8
0
100
AcDbPolyline
 90
64
 70
1
 10
37.3136
 20
-39.9836
 10
37.6237
 20
-39.9344
 10
37.9271
 20
-39.8532
 10
38.2202
 20
-39.7406
 10
38.5
 20
-39.5981
 10
38.7634
 20
-39.4271
 10
39.0074
 20
-39.2294
 10
39.2294
 20
-39.0074
 10
39.4271
 20
-38.7634
 10
39.5981
 20
-38.5
 10
39.7406
 20
-38.2202
 10
39.8532
 20
-37.9271
 10
39.9344
 20
-37.6237
 10
39.9836
 20
-37.3136
 10
40
 20
-37
 10
40
 20
37
 10
39.9836
 20
37.3136
 10
39.9344
 20
37.6237
 10
39.8532
 20
37.9271
 10
39.7406
 20
38.2202
 10
39.5981
 20
38.5
 10
39.4271
 20
38.7634
 10
39.2294
 20
39.0074
 10
39.0074
 20
39.2294
 10
38.7634
 20
39.4271
 10
38.5
 20
39.5981
 10
38.2202
 20
39.7406
 10
37.9271
 20
39.8532
 10
37.6237
 20
39.9344
 10
37.3136
 20
39.9836
 10
37
 20
40
 10
-37
 20
40
 10
-37.3136
 20
39.9836
 10
-37.6237
 20
39.9344
 10
-37.9271
 20
39.8532
 10
-38.2202
 20
39.7406
 10
-38.5
 20
39.5981
 10
-38.7634
 20
39.4271
 10
-39.0074
 20
39.2294
 10
-39.2294
 20
39.0074
 10
-39.4271
 20
38.7634
 10
-39.5981
 20
38.5
 10
-39.7406
 20
38.2202
 10
-39.8532
 20
37.9271
 10
-39.9344
 20
37.6237
 10
-39.9836
 20
37.3136
 10
-40
 20
37
 10
-40
 20
-37
 10
-39.9836
 20
-37.3136
 10
-39.9344
 20
-37.6237
 10
-39.8532
 20
-37.9271
 10
-39.7406
 20
-38.2202
 10
-39.5981
 20
-38.5
 10
-39.4271
 20
-38.7634
 10
-39.2294
 20
-39.0074
 10
-39.0074
 20
-39.2294
 10
-38.7634
 20
-39.4271
 10
-38.5
 20
-39.5981
 10
-38.2202
 20
-39.7406
 10
-37.9271
 20
-39.8532
 10
-37.6237
 20
-39.9344
 10
-37.3136
 20
-39.9836
 10
-37
 20
-40
 10
37
 20
-40
  0
LWPOLYLINE
100
AcDbEntity
  8
0
100
AcDbPolyline
 90
60
 70
1
 10
6.23868
 20
20.5137
 10
5.98022
 20
20.5546
 10
5.72746
 20
20.6224
 10
5.48316
 20
20.7161
 10
5.25
 20
20.8349
 10
5.03054
 20
20.9775
 10
4.82717
 20
21.1421
 10
4.64214
 20
21.3272
 10
4.47746
 20
21.5305
 10
4.33494
 20
21.75
 10
4.21614
 20
21.9832
 10
4.12236
 20
22.2275
 10
4.05463
 20
22.4802
 10
4.0137
 20
22.7387
 10
4
 20
23
 10
4.0137
 20
23.2613
 10
4.05463
 20
23.5198
 10
4.12236
 20
23.7725
 10
4.21614
 20
24.0168
 10
4.33494
 20
24.25
 10
4.47746
 20
24.4695
 10
4.64214
 20
24.6728
 10
4.82717
 20
24.8579
 10
5.03054
 20
25.0225
 10
5.25
 20
25.1651
 10
5.48316
 20
25.2839
 10
5.72746
 20
25.3776
 10
5.98022
 20
25.4454
 10
6.23868
 20
25.4863
 10
6.5
 20
25.5
 10
6.76132
 20
25.4863
 10
7.01978
 20
25.4454
 10
7.27254
 20
25.3776
 10
7.51684
 20
25.2839
 10
7.75
 20
25.1651
 10
7.96946
 20
25.0225
 10
8.17283
 20
24.8579
 10
8.35786
 20
24.6728
 10
8.52254
 20
24.4695
 10
8.66506
 20
24.25
 10
8.78386
 20
24.0168
 10
8.87764
 20
23.7725
 10
8.94537
 20
23.5198
 10
8.9863
 20
23.2613
 10
9
 20
23
 10
8.9863
 20
22.7387
 10
8.94537
 20
22.4802
 10
8.87764
 20
22.2275
 10
8.78386
 20
21.9832
 10
8.66506
 20
21.75
 10
8.52254
 20
21.5305
 10
8.35786
 20
21.3272
 10
8.17283
 20
21.1421
 10
7.96946
 20
20.9775
 10
7.75
 20
20.8349
 10
7.51684
 20
20.7161
 10
7.27254
 20
20.6224
 10
7.01978
 20
20.5546
 10
6.76132
 20
20.5137
 10
6.5
 20
20.5
  0
LWPOLYLINE
100
AcDbEntity
  8
0
100
AcDbPolyline
 90
60
 70
1
 10
-6.76132
 20
20.5137
 10
-7.01978
 20
20.5546
 10
-7.27254
 20
20.6224
 10
-7.51684
 20
20.7161
 10
-7.75
 20
20.8349
 10
-7.96946
 20
20.9775
 10
-8.17283
 20
21.1421
 10
-8.35786
 20
21.3272
 10
-8.52254
 20
21.5305
 10
-8.66506
 20
21.75
 10
-8.78386
 20
21.9832
 10
-8.87764
 20
22.2275
 10
-8.94537
 20
22.4802
 10
-8.9863
 20
22.7387
 10
-9
 20
23
 10
-8.9863
 20
23.2613
 10
-8.94537
 20
23.5198
 10
-8.87764
 20
23.7725
 10
-8.78386
 20
24.0168
 10
-8.66506
 20
24.25
 10
-8.52254
 20
24.4695
 10
-8.35786
 20
24.6728
 10
-8.17283
 20
24.8579
 10
-7.96946
 20
25.0225
 10
-7.75
 20
25.1651
 10
-7.51684
 20
25.2839
 10
-7.27254
 20
25.3776
 10
-7.01978
 20
25.4454
 10
-6.76132
 20
25.4863
 10
-6.5
 20
25.5
 10
-6.23868
 20
25.4863
 10
-5.98022
 20
25.4454
 10
-5.72746
 20
25.3776
 10
-5.48316
 20
25.2839
 10
-5.25
 20
25.1651
 10
-5.03054
 20
25.0225
 10
-4.82717
 20
24.8579
 10
-4.64214
 20
24.6728
 10
-4.47746
 20
24.4695
 10
-4.33494
 20
24.25
 10
-4.21614
 20
24.0168
 10
-4.12236
 20
23.7725
 10
-4.05463
 20
23.5198
 10
-4.0137
 20
23.2613
 10
-4
 20
23
 10
-4.0137
 20
22.7387
 10
-4.05463
 20
22.4802
 10
-4.12236
 20
22.2275
 10
-4.21614
 20
21.9832
 10
-4.33494
 20
21.75
 10
-4.47746
 20
21.5305
 10
-4.64214
 20
21.3272
 10
-4.82717
 20
21.1421
 10
-5.03054
 20
20.9775
 10
-5.25
 20
20.8349
 10
-5.48316
 20
20.7161
 10
-5.72746
 20
20.6224
 10
-5.98022
 20
20.5546
 10
-6.23868
 20
20.5137
 10
-6.5
 20
20.5
  0
LWPOLYLINE
100
AcDbEntity
  8
0
100
AcDbPolyline
 90
60
 70
1
 10
24.5714
 20
15.9225
 10
24.1476
 20
15.9896
 10
23.733
 20
16.1007
 10
23.3324
 20
16.2545
 10
22.95
 20
16.4493
 10
22.5901
 20
16.683
 10
22.2566
 20
16.9531
 10
21.9531
 20
17.2566
 10
21.683
 20
17.5901
 10
21.4493
 20
17.95
 10
21.2545
 20
18.3324
 10
21.1007
 20
18.733
 10
20.9896
 20
19.1476
 10
20.9225
 20
19.5714
 10
20.9
 20
20
 10
20.9225
 20
20.4286
 10
20.9896
 20
20.8524
 10
21.1007
 20
21.267
 10
21.2545
 20
21.6676
 10
21.4493
 20
22.05
 10
21.683
 20
22.4099
 10
21.9531
 20
22.7434
 10
22.2566
 20
23.0469
 10
22.5901
 20
23.317
 10
22.95
 20
23.5507
 10
23.3324
 20
23.7455
 10
23.733
 20
23.8993
 10
24.1476
 20
24.0104
 10
24.5714
 20
24.0775
 10
25
 20
24.1
 10
25.4286
 20
24.0775
 10
25.8524
 20
24.0104
 10
26.267
 20
23.8993
 10
26.6676
 20
23.7455
 10
27.05
 20
23.5507
 10
27.4099
 20
23.317
 10
27.7434
 20
23.0469
 10
28.0469
 20
22.7434
 10
28.317
 20
22.4099
 10
28.5507
 20
22.05
 10
28.7455
 20
21.6676
 10
28.8993
 20
21.267
 10
29.0104
 20
20.8524
 10
29.0775
 20
20.4286
 10
29.1
 20
20
 10
29.0775
 20
19.5714
 10
29.0104
 20
19.1476
 10
28.8993
 20
18.733
 10
28.7455
 20
18.3324
 10
28.5507
 20
17.95
 10
28.317
 20
17.5901
 10
28.0469
 20
17.2566
 10
27.7434
 20
16.9531
 10
27.4099
 20
16.683
 10
27.05
 20
16.4493
 10
26.6676
 20
16.2545
 10
26.267
 20
16.1007
 10
25.8524
 20
15.9896
 10
25.4286
 20
15.9225
 10
25
 20
15.9
  0
LWPOLYLINE
100
AcDbEntity
  8
0
100
AcDbPolyline
 90
60
 70
1
 10
-25.4286
 20
15.9225
 10
-25.8524
 20
15.9896
 10
-26.267
 20
16.1007
 10
-26.6676
 20
16.2545
 10
-27.05
 20
16.4493
 10
-27.4099
 20
16.683
 10
-27.7434
 20
16.9531
 10
-28.0469
 20
17.2566
 10
-28.317
 20
17.5901
 10
-28.5507
 20
17.95
 10
-28.7455
 20
18.3324
 10
-28.8993
 20
18.733
 10
-29.0104
 20
19.1476
 10
-29.0775
 20
19.5714
 10
-29.1
 20
20
 10
-29.0775
 20
20.4286
 10
-29.0104
 20
20.8524
 10
-28.8993
 20
21.267
 10
-28.7455
 20
21.6676
 10
-28.5507
 20
22.05
 10
-28.317
 20
22.4099
 10
-28.0469
 20
22.7434
 10
-27.7434
 20
23.0469
 10
-27.4099
 20
23.317
 10
-27.05
 20
23.5507
 10
-26.6676
 20
23.7455
 10
-26.267
 20
23.8993
 10
-25.8524
 20
24.0104
 10
-25.4286
 20
24.0775
 10
-25
 20
24.1
 10
-24.5714
 20
24.0775
 10
-24.1476
 20
24.0104
 10
-23.733
 20
23.8993
 10
-23.3324
 20
23.7455
 10
-22.95
 20
23.5507
 10
-22.5901
 20
23.317
 10
-22.2566
 20
23.0469
 10
-21.9531
 20
22.7434
 10
-21.683
 20
22.4099
 10
-21.4493
 20
22.05
 10
-21.2545
 20
21.6676
 10
-21.1007
 20
21.267
 10
-20.9896
 20
20.8524
 10
-20.9225
 20
20.4286
 10
-20.9
 20
20
 10
-20.9225
 20
19.5714
 10
-20.9896
 20
19.1476
 10
-21.1007
 20
18.733
 10
-21.2545
 20
18.3324
 10
-21.4493
 20
17.95
 10
-21.683
 20
17.5901
 10
-21.9531
 20
17.2566
 10
-22.2566
 20
16.9531
 10
-22.5901
 20
16.683
 10
-22.95
 20
16.4493
 10
-23.3324
 20
16.2545
 10
-23.733
 20
16.1007
 10
-24.1476
 20
15.9896
 10
-24.5714
 20
15.9225
 10
-25
 20
15.9
  0
LWPOLYLINE
100
AcDbEntity
  8
0
100
AcDbPolyline
 90
60
 70
1
 10
24.5714
 20
-24.0775
 10
24.1476
 20
-24.0104
 10
23.733
 20
-23.8993
 10
23.3324
 20
-23.7455
 10
22.95
 20
-23.5507
 10
22.5901
 20
-23.317
 10
22.2566
 20
-23.0469
 10
21.9531
 20
-22.7434
 10
21.683
 20
-22.4099
 10
21.4493
 20
-22.05
 10
21.2545
 20
-21.6676
 10
21.1007
 20
-21.267
 10
20.9896
 20
-20.8524
 10
20.9225
 20
-20.4286
 10
20.9
 20
-20
 10
20.9225
 20
-19.5714
 10
20.9896
 20
-19.1476
 10
21.1007
 20
-18.733
 10
21.2545
 20
-18.3324
 10
21.4493
 20
-17.95
 10
21.683
 20
-17.5901
 10
21.9531
 20
-17.2566
 10
22.2566
 20
-16.9531
 10
22.5901
 20
-16.683
 10
22.95
 20
-16.4493
 10
23.3324
 20
-16.2545
 10
23.733
 20
-16.1007
 10
24.1476
 20
-15.9896
 10
24.5714
 20
-15.9225
 10
25
 20
-15.9
 10
25.4286
 20
-15.9225
 10
25.8524
 20
-15.9896
 10
26.267
 20
-16.1007
 10
26.6676
 20
-16.2545
 10
27.05
 20
-16.4493
 10
27.4099
 20
-16.683
 10
27.7434
 20
-16.9531
 10
28.0469
 20
-17.2566
 10
28.317
 20
-17.5901
 10
28.5507
 20
-17.95
 10
28.7455
 20
-18.3324
 10
28.8993
 20
-18.733
 10
29.0104
 20
-19.1476
 10
29.0775
 20
-19.5714
 10
29.1
 20
-20
 10
29.0775
 20
-20.4286
 10
29.0104
 20
-20.8524
 10
28.8993
 20
-21.267
 10
28.7455
 20
-21.6676
 10
28.5507
 20
-22.05
 10
28.317
 20
-22.4099
 10
28.0469
 20
-22.7434
 10
27.7434
 20
-23.0469
 10
27.4099
 20
-23.317
 10
27.05
 20
-23.5507
 10
26.6676
 20
-23.7455
 10
26.267
 20
-23.8993
 10
25.8524
 20
-24.0104
 10
25.4286
 20
-24.0775
 10
25
 20
-24.1
  0
LWPOLYLINE
100
AcDbEntity
  8
0
100
AcDbPolyline
 90
60
 70
1
 10
-25.4286
 20
-24.0775
 10
-25.8524
 20
-24.0104
 10
-26.267
 20
-23.8993
 10
-26.6676
 20
-23.7455
 10
-27.05
 20
-23.5507
 10
-27.4099
 20
-23.317
 10
-27.7434
 20
-23.0469
 10
-28.0469
 20
-22.7434
 10
-28.317
 20
-22.4099
 10
-28.5507
 20
-22.05
 10
-28.7455
 20
-21.6676
 10
-28.8993
 20
-21.267
 10
-29.0104
 20
-20.8524
 10
-29.0775
 20
-20.4286
 10
-29.1
 20
-20
 10
-29.0775
 20
-19.5714
 10
-29.0104
 20
-19.1476
 10
-28.8993
 20
-18.733
 10
-28.7455
 20
-18.3324
 10
-28.5507
 20
-17.95
 10
-28.317
 20
-17.5901
 10
-28.0469
 20
-17.2566
 10
-27.7434
 20
-16.9531
 10
-27.4099
 20
-16.683
 10
-27.05
 20
-16.4493
 10
-26.6676
 20
-16.2545
 10
-26.267
 20
-16.1007
 10
-25.8524
 20
-15.9896
 10
-25.4286
 20
-15.9225
 10
-25
 20
-15.9
 10
-24.5714
 20
-15.9225
 10
-24.1476
 20
-15.9896
 10
-23.733
 20
-16.1007
 10
-23.3324
 20
-16.2545
 10
-22.95
 20
-16.4493
 10
-22.5901
 20
-16.683
 10
-22.2566
 20
-16.9531
 10
-21.9531
 20
-17.2566
 10
-21.683
 20
-17.5901
 10
-21.4493
 20
-17.95
 10
-21.2545
 20
-18.3324
 10
-21.1007
 20
-18.733
 10
-20.9896
 20
-19.1476
 10
-20.9225
 20
-19.5714
 10
-20.9
 20
-20
 10
-20.9225
 20
-20.4286
 10
-20.9896
 20
-20.8524
 10
-21.1007
 20
-21.267
 10
-21.2545
 20
-21.6676
 10
-21.4493
 20
-22.05
 10
-21.683
 20
-22.4099
 10
-21.9531
 20
-22.7434
 10
-22.2566
 20
-23.0469
 10
-22.5901
 20
-23.317
 10
-22.95
 20
-23.5507
 10
-23.3324
 20
-23.7455
 10
-23.733
 20
-23.8993
 10
-24.1476
 20
-24.0104
 10
-24.5714
 20
-24.0775
 10
-25
 20
-24.1
  0
LWPOLYLINE
100
AcDbEntity
  8
0
100
AcDbPolyline
 90
60
 70
1
 10
6.23868
 20
-25.4863
 10
5.98022
 20
-25.4454
 10
5.72746
 20
-25.3776
 10
5.48316
 20
-25.2839
 10
5.25
 20
-25.1651
 10
5.03054
 20
-25.0225
 10
4.82717
 20
-24.8579
 10
4.64214
 20
-24.6728
 10
4.47746
 20
-24.4695
 10
4.33494
 20
-24.25
 10
4.21614
 20
-24.0168
 10
4.12236
 20
-23.7725
 10
4.05463
 20
-23.5198
 10
4.0137
 20
-23.2613
 10
4
 20
-23
 10
4.0137
 20
-22.7387
 10
4.05463
 20
-22.4802
 10
4.12236
 20
-22.2275
 10
4.21614
 20
-21.9832
 10
4.33494
 20
-21.75
 10
4.47746
 20
-21.5305
 10
4.64214
 20
-21.3272
 10
4.82717
 20
-21.1421
 10
5.03054
 20
-20.9775
 10
5.25
 20
-20.8349
 10
5.48316
 20
-20.7161
 10
5.72746
 20
-20.6224
 10
5.98022
 20
-20.5546
 10
6.23868
 20
-20.5137
 10
6.5
 20
-20.5
 10
6.76132
 20
-20.5137
 10
7.01978
 20
-20.5546
 10
7.27254
 20
-20.6224
 10
7.51684
 20
-20.7161
 10
7.75
 20
-20.8349
 10
7.96946
 20
-20.9775
 10
8.17283
 20
-21.1421
 10
8.35786
 20
-21.3272
 10
8.52254
 20
-21.5305
 10
8.66506
 20
-21.75
 10
8.78386
 20
-21.9832
 10
8.87764
 20
-22.2275
 10
8.94537
 20
-22.4802
 10
8.9863
 20
-22.7387
 10
9
 20
-23
 10
8.9863
 20
-23.2613
 10
8.94537
 20
-23.5198
 10
8.87764
 20
-23.7725
 10
8.78386
 20
-24.0168
 10
8.66506
 20
-24.25
 10
8.52254
 20
-24.4695
 10
8.35786
 20
-24.6728
 10
8.17283
 20
-24.8579
 10
7.96946
 20
-25.0225
 10
7.75
 20
-25.1651
 10
7.51684
 20
-25.2839
 10
7.27254
 20
-25.3776
 10
7.01978
 20
-25.4454
 10
6.76132
 20
-25.4863
 10
6.5
 20
-25.5
  0
LWPOLYLINE
100
AcDbEntity
  8
0
100
AcDbPolyline
 90
60
 70
1
 10
-6.76132
 20
-25.4863
 10
-7.01978
 20
-25.4454
 10
-7.27254
 20
-25.3776
 10
-7.51684
 20
-25.2839
 10
-7.75
 20
-25.1651
 10
-7.96946
 20
-25.0225
 10
-8.17283
 20
-24.8579
 10
-8.35786
 20
-24.6728
 10
-8.52254
 20
-24.4695
 10
-8.66506
 20
-24.25
 10
-8.78386
 20
-24.0168
 10
-8.87764
 20
-23.7725
 10
-8.94537
 20
-23.5198
 10
-8.9863
 20
-23.2613
 10
-9
 20
-23
 10
-8.9863
 20
-22.7387
 10
-8.94537
 20
-22.4802
 10
-8.87764
 20
-22.2275
 10
-8.78386
 20
-21.9832
 10
-8.66506
 20
-21.75
 10
-8.52254
 20
-21.5305
 10
-8.35786
 20
-21.3272
 10
-8.17283
 20
-21.1421
 10
-7.96946
 20
-20.9775
 10
-7.75
 20
-20.8349
 10
-7.51684
 20
-20.7161
 10
-7.27254
 20
-20.6224
 10
-7.01978
 20
-20.5546
 10
-6.76132
 20
-20.5137
 10
-6.5
 20
-20.5
 10
-6.23868
 20
-20.5137
 10
-5.98022
 20
-20.5546
 10
-5.72746
 20
-20.6224
 10
-5.48316
 20
-20.7161
 10
-5.25
 20
-20.8349
 10
-5.03054
 20
-20.9775
 10
-4.82717
 20
-21.1421
 10
-4.64214
 20
-21.3272
 10
-4.47746
 20
-21.5305
 10
-4.33494
 20
-21.75
 10
-4.21614
 20
-21.9832
 10
-4.12236
 20
-22.2275
 10
-4.05463
 20
-22.4802
 10
-4.0137
 20
-22.7387
 10
-4
 20
-23
 10
-4.0137
 20
-23.2613
 10
-4.05463
 20
-23.5198
 10
-4.12236
 20
-23.7725
 10
-4.21614
 20
-24.0168
 10
-4.33494
 20
-24.25
 10
-4.47746
 20
-24.4695
 10
-4.64214
 20
-24.6728
 10
-4.82717
 20
-24.8579
 10
-5.03054
 20
-25.0225
 10
-5.25
 20
-25.1651
 10
-5.48316
 20
-25.2839
 10
-5.72746
 20
-25.3776
 10
-5.98022
 20
-25.4454
 10
-6.23868
 20
-25.4863
 10
-6.5
 20
-25.5
  0
ENDSEC
  0
EOF
