  0
SECTION
  2
BLOCKS
  0
ENDSEC
  0
SECTION
  2
ENTITIES
  0
LINE
  8
0
 10
67.6676
 20
-38.9248
 11
68.3017
 21
-38.7029
  0
LINE
  8
0
 10
68.3017
 20
-38.7029
 11
68.8705
 21
-38.3455
  0
LINE
  8
0
 10
68.8705
 20
-38.3455
 11
69.3455
 21
-37.8705
  0
LINE
  8
0
 10
69.3455
 20
-37.8705
 11
69.7029
 21
-37.3017
  0
LINE
  8
0
 10
69.7029
 20
-37.3017
 11
69.9248
 21
-36.6676
  0
LINE
  8
0
 10
69.9248
 20
-36.6676
 11
70
 21
-36
  0
LINE
  8
0
 10
70
 20
-36
 11
70
 21
36
  0
LINE
  8
0
 10
70
 20
36
 11
69.9248
 21
36.6676
  0
LINE
  8
0
 10
69.9248
 20
36.6676
 11
69.7029
 21
37.3017
  0
LINE
  8
0
 10
69.7029
 20
37.3017
 11
69.3455
 21
37.8705
  0
LINE
  8
0
 10
69.3455
 20
37.8705
 11
68.8705
 21
38.3455
  0
LINE
  8
0
 10
68.8705
 20
38.3455
 11
68.3017
 21
38.7029
  0
LINE
  8
0
 10
68.3017
 20
38.7029
 11
67.6676
 21
38.9248
  0
LINE
  8
0
 10
67.6676
 20
38.9248
 11
67
 21
39
  0
LINE
  8
0
 10
67
 20
39
 11
-67
 21
39
  0
LINE
  8
0
 10
-67
 20
39
 11
-67.6676
 21
38.9248
  0
LINE
  8
0
 10
-67.6676
 20
38.9248
 11
-68.3017
 21
38.7029
  0
LINE
  8
0
 10
-68.3017
 20
38.7029
 11
-68.8705
 21
38.3455
  0
LINE
  8
0
 10
-68.8705
 20
38.3455
 11
-69.3455
 21
37.8705
  0
LINE
  8
0
 10
-69.3455
 20
37.8705
 11
-69.7029
 21
37.3017
  0
LINE
  8
0
 10
-69.7029
 20
37.3017
 11
-69.9248
 21
36.6676
  0
LINE
  8
0
 10
-69.9248
 20
36.6676
 11
-70
 21
36
  0
LINE
  8
0
 10
-70
 20
36
 11
-70
 21
-36
  0
LINE
  8
0
 10
-70
 20
-36
 11
-69.9248
 21
-36.6676
  0
LINE
  8
0
 10
-69.9248
 20
-36.6676
 11
-69.7029
 21
-37.3017
  0
LINE
  8
0
 10
-69.7029
 20
-37.3017
 11
-69.3455
 21
-37.8705
  0
LINE
  8
0
 10
-69.3455
 20
-37.8705
 11
-68.8705
 21
-38.3455
  0
LINE
  8
0
 10
-68.8705
 20
-38.3455
 11
-68.3017
 21
-38.7029
  0
LINE
  8
0
 10
-68.3017
 20
-38.7029
 11
-67.6676
 21
-38.9248
  0
LINE
  8
0
 10
-67.6676
 20
-38.9248
 11
-67
 21
-39
  0
LINE
  8
0
 10
-67
 20
-39
 11
67
 21
-39
  0
LINE
  8
0
 10
67
 20
-39
 11
67.6676
 21
-38.9248
  0
LINE
  8
0
 10
49.2317
 20
25.9726
 11
48.2543
 21
26.2902
  0
LINE
  8
0
 10
48.2543
 20
26.2902
 11
47.3866
 21
26.8409
  0
LINE
  8
0
 10
47.3866
 20
26.8409
 11
46.683
 21
27.5901
  0
LINE
  8
0
 10
46.683
 20
27.5901
 11
46.1879
 21
28.4907
  0
LINE
  8
0
 10
46.1879
 20
28.4907
 11
45.9323
 21
29.4861
  0
LINE
  8
0
 10
45.9323
 20
29.4861
 11
45.9323
 21
30.5139
  0
LINE
  8
0
 10
45.9323
 20
30.5139
 11
46.1879
 21
31.5093
  0
LINE
  8
0
 10
46.1879
 20
31.5093
 11
46.683
 21
32.4099
  0
LINE
  8
0
 10
46.683
 20
32.4099
 11
47.3866
 21
33.1591
  0
LINE
  8
0
 10
47.3866
 20
33.1591
 11
48.2543
 21
33.7098
  0
LINE
  8
0
 10
48.2543
 20
33.7098
 11
49.2317
 21
34.0274
  0
LINE
  8
0
 10
49.2317
 20
34.0274
 11
50.2574
 21
34.0919
  0
LINE
  8
0
 10
50.2574
 20
34.0919
 11
51.267
 21
33.8993
  0
LINE
  8
0
 10
51.267
 20
33.8993
 11
52.1969
 21
33.4617
  0
LINE
  8
0
 10
52.1969
 20
33.4617
 11
52.9888
 21
32.8066
  0
LINE
  8
0
 10
52.9888
 20
32.8066
 11
53.5928
 21
31.9752
  0
LINE
  8
0
 10
53.5928
 20
31.9752
 11
53.9712
 21
31.0196
  0
LINE
  8
0
 10
53.9712
 20
31.0196
 11
54.1
 21
30
  0
LINE
  8
0
 10
54.1
 20
30
 11
53.9712
 21
28.9804
  0
LINE
  8
0
 10
53.9712
 20
28.9804
 11
53.5928
 21
28.0248
  0
LINE
  8
0
 10
53.5928
 20
28.0248
 11
52.9888
 21
27.1933
  0
LINE
  8
0
 10
52.9888
 20
27.1933
 11
52.1969
 21
26.5383
  0
LINE
  8
0
 10
52.1969
 20
26.5383
 11
51.267
 21
26.1007
  0
LINE
  8
0
 10
51.267
 20
26.1007
 11
50.2574
 21
25.9081
  0
LINE
  8
0
 10
50.2574
 20
25.9081
 11
49.2317
 21
25.9726
  0
LINE
  8
0
 10
-10.4872
 20
20.446
 11
-11.107
 21
20.6474
  0
LINE
  8
0
 10
-11.107
 20
20.6474
 11
-11.6573
 21
20.9967
  0
LINE
  8
0
 10
-11.6573
 20
20.9967
 11
-12.1034
 21
21.4718
  0
LINE
  8
0
 10
-12.1034
 20
21.4718
 11
-12.4174
 21
22.0429
  0
LINE
  8
0
 10
-12.4174
 20
22.0429
 11
-12.5795
 21
22.6741
  0
LINE
  8
0
 10
-12.5795
 20
22.6741
 11
-12.5795
 21
23.3259
  0
LINE
  8
0
 10
-12.5795
 20
23.3259
 11
-12.4174
 21
23.9571
  0
LINE
  8
0
 10
-12.4174
 20
23.9571
 11
-12.1034
 21
24.5282
  0
LINE
  8
0
 10
-12.1034
 20
24.5282
 11
-11.6573
 21
25.0033
  0
LINE
  8
0
 10
-11.6573
 20
25.0033
 11
-11.107
 21
25.3525
  0
LINE
  8
0
 10
-11.107
 20
25.3525
 11
-10.4872
 21
25.5539
  0
LINE
  8
0
 10
-10.4872
 20
25.5539
 11
-9.83673
 21
25.5949
  0
LINE
  8
0
 10
-9.83673
 20
25.5949
 11
-9.19655
 21
25.4727
  0
LINE
  8
0
 10
-9.19655
 20
25.4727
 11
-8.60684
 21
25.1953
  0
LINE
  8
0
 10
-8.60684
 20
25.1953
 11
-8.10468
 21
24.7798
  0
LINE
  8
0
 10
-8.10468
 20
24.7798
 11
-7.72159
 21
24.2525
  0
LINE
  8
0
 10
-7.72159
 20
24.2525
 11
-7.48167
 21
23.6466
  0
LINE
  8
0
 10
-7.48167
 20
23.6466
 11
-7.39999
 21
23
  0
LINE
  8
0
 10
-7.39999
 20
23
 11
-7.48167
 21
22.3534
  0
LINE
  8
0
 10
-7.48167
 20
22.3534
 11
-7.72159
 21
21.7474
  0
LINE
  8
0
 10
-7.72159
 20
21.7474
 11
-8.10468
 21
21.2202
  0
LINE
  8
0
 10
-8.10468
 20
21.2202
 11
-8.60684
 21
20.8047
  0
LINE
  8
0
 10
-8.60684
 20
20.8047
 11
-9.19655
 21
20.5273
  0
LINE
  8
0
 10
-9.19655
 20
20.5273
 11
-9.83673
 21
20.4051
  0
LINE
  8
0
 10
-9.83673
 20
20.4051
 11
-10.4872
 21
20.446
  0
LINE
  8
0
 10
-28.4872
 20
20.446
 11
-29.107
 21
20.6474
  0
LINE
  8
0
 10
-29.107
 20
20.6474
 11
-29.6573
 21
20.9967
  0
LINE
  8
0
 10
-29.6573
 20
20.9967
 11
-30.1034
 21
21.4718
  0
LINE
  8
0
 10
-30.1034
 20
21.4718
 11
-30.4174
 21
22.0429
  0
LINE
  8
0
 10
-30.4174
 20
22.0429
 11
-30.5795
 21
22.6741
  0
LINE
  8
0
 10
-30.5795
 20
22.6741
 11
-30.5795
 21
23.3259
  0
LINE
  8
0
 10
-30.5795
 20
23.3259
 11
-30.4174
 21
23.9571
  0
LINE
  8
0
 10
-30.4174
 20
23.9571
 11
-30.1034
 21
24.5282
  0
LINE
  8
0
 10
-30.1034
 20
24.5282
 11
-29.6573
 21
25.0033
  0
LINE
  8
0
 10
-29.6573
 20
25.0033
 11
-29.107
 21
25.3525
  0
LINE
  8
0
 10
-29.107
 20
25.3525
 11
-28.4872
 21
25.5539
  0
LINE
  8
0
 10
-28.4872
 20
25.5539
 11
-27.8367
 21
25.5949
  0
LINE
  8
0
 10
-27.8367
 20
25.5949
 11
-27.1965
 21
25.4727
  0
LINE
  8
0
 10
-27.1965
 20
25.4727
 11
-26.6068
 21
25.1953
  0
LINE
  8
0
 10
-26.6068
 20
25.1953
 11
-26.1047
 21
24.7798
  0
LINE
  8
0
 10
-26.1047
 20
24.7798
 11
-25.7216
 21
24.2525
  0
LINE
  8
0
 10
-25.7216
 20
24.2525
 11
-25.4817
 21
23.6466
  0
LINE
  8
0
 10
-25.4817
 20
23.6466
 11
-25.4
 21
23
  0
LINE
  8
0
 10
-25.4
 20
23
 11
-25.4817
 21
22.3534
  0
LINE
  8
0
 10
-25.4817
 20
22.3534
 11
-25.7216
 21
21.7474
  0
LINE
  8
0
 10
-25.7216
 20
21.7474
 11
-26.1047
 21
21.2202
  0
LINE
  8
0
 10
-26.1047
 20
21.2202
 11
-26.6068
 21
20.8047
  0
LINE
  8
0
 10
-26.6068
 20
20.8047
 11
-27.1965
 21
20.5273
  0
LINE
  8
0
 10
-27.1965
 20
20.5273
 11
-27.8367
 21
20.4051
  0
LINE
  8
0
 10
-27.8367
 20
20.4051
 11
-28.4872
 21
20.446
  0
LINE
  8
0
 10
49.2317
 20
-4.02737
 11
48.2543
 21
-3.70978
  0
LINE
  8
0
 10
48.2543
 20
-3.70978
 11
47.3866
 21
-3.1591
  0
LINE
  8
0
 10
47.3866
 20
-3.1591
 11
46.683
 21
-2.40991
  0
LINE
  8
0
 10
46.683
 20
-2.40991
 11
46.1879
 21
-1.50931
  0
LINE
  8
0
 10
46.1879
 20
-1.50931
 11
45.9323
 21
-0.513855
  0
LINE
  8
0
 10
45.9323
 20
-0.513855
 11
45.9323
 21
0.513855
  0
LINE
  8
0
 10
45.9323
 20
0.513855
 11
46.1879
 21
1.50931
  0
LINE
  8
0
 10
46.1879
 20
1.50931
 11
46.683
 21
2.40991
  0
LINE
  8
0
 10
46.683
 20
2.40991
 11
47.3866
 21
3.1591
  0
LINE
  8
0
 10
47.3866
 20
3.1591
 11
48.2543
 21
3.70978
  0
LINE
  8
0
 10
48.2543
 20
3.70978
 11
49.2317
 21
4.02737
  0
LINE
  8
0
 10
49.2317
 20
4.02737
 11
50.2574
 21
4.0919
  0
LINE
  8
0
 10
50.2574
 20
4.0919
 11
51.267
 21
3.89932
  0
LINE
  8
0
 10
51.267
 20
3.89932
 11
52.1969
 21
3.46173
  0
LINE
  8
0
 10
52.1969
 20
3.46173
 11
52.9888
 21
2.80664
  0
LINE
  8
0
 10
52.9888
 20
2.80664
 11
53.5928
 21
1.97519
  0
LINE
  8
0
 10
53.5928
 20
1.97519
 11
53.9712
 21
1.01962
  0
LINE
  8
0
 10
53.9712
 20
1.01962
 11
54.1
 21
0
  0
LINE
  8
0
 10
54.1
 20
0
 11
53.9712
 21
-1.01962
  0
LINE
  8
0
 10
53.9712
 20
-1.01962
 11
53.5928
 21
-1.97519
  0
LINE
  8
0
 10
53.5928
 20
-1.97519
 11
52.9888
 21
-2.80664
  0
LINE
  8
0
 10
52.9888
 20
-2.80664
 11
52.1969
 21
-3.46173
  0
LINE
  8
0
 10
52.1969
 20
-3.46173
 11
51.267
 21
-3.89932
  0
LINE
  8
0
 10
51.267
 20
-3.89932
 11
50.2574
 21
-4.0919
  0
LINE
  8
0
 10
50.2574
 20
-4.0919
 11
49.2317
 21
-4.02737
  0
LINE
  8
0
 10
-10.4872
 20
-25.5539
 11
-11.107
 21
-25.3525
  0
LINE
  8
0
 10
-11.107
 20
-25.3525
 11
-11.6573
 21
-25.0033
  0
LINE
  8
0
 10
-11.6573
 20
-25.0033
 11
-12.1034
 21
-24.5282
  0
LINE
  8
0
 10
-12.1034
 20
-24.5282
 11
-12.4174
 21
-23.9571
  0
LINE
  8
0
 10
-12.4174
 20
-23.9571
 11
-12.5795
 21
-23.3259
  0
LINE
  8
0
 10
-12.5795
 20
-23.3259
 11
-12.5795
 21
-22.6741
  0
LINE
  8
0
 10
-12.5795
 20
-22.6741
 11
-12.4174
 21
-22.0429
  0
LINE
  8
0
 10
-12.4174
 20
-22.0429
 11
-12.1034
 21
-21.4718
  0
LINE
  8
0
 10
-12.1034
 20
-21.4718
 11
-11.6573
 21
-20.9967
  0
LINE
  8
0
 10
-11.6573
 20
-20.9967
 11
-11.107
 21
-20.6474
  0
LINE
  8
0
 10
-11.107
 20
-20.6474
 11
-10.4872
 21
-20.446
  0
LINE
  8
0
 10
-10.4872
 20
-20.446
 11
-9.83673
 21
-20.4051
  0
LINE
  8
0
 10
-9.83673
 20
-20.4051
 11
-9.19655
 21
-20.5273
  0
LINE
  8
0
 10
-9.19655
 20
-20.5273
 11
-8.60684
 21
-20.8047
  0
LINE
  8
0
 10
-8.60684
 20
-20.8047
 11
-8.10468
 21
-21.2202
  0
LINE
  8
0
 10
-8.10468
 20
-21.2202
 11
-7.72159
 21
-21.7474
  0
LINE
  8
0
 10
-7.72159
 20
-21.7474
 11
-7.48167
 21
-22.3534
  0
LINE
  8
0
 10
-7.48167
 20
-22.3534
 11
-7.39999
 21
-23
  0
LINE
  8
0
 10
-7.39999
 20
-23
 11
-7.48167
 21
-23.6466
  0
LINE
  8
0
 10
-7.48167
 20
-23.6466
 11
-7.72159
 21
-24.2525
  0
LINE
  8
0
 10
-7.72159
 20
-24.2525
 11
-8.10468
 21
-24.7798
  0
LINE
  8
0
 10
-8.10468
 20
-24.7798
 11
-8.60684
 21
-25.1953
  0
LINE
  8
0
 10
-8.60684
 20
-25.1953
 11
-9.19655
 21
-25.4727
  0
LINE
  8
0
 10
-9.19655
 20
-25.4727
 11
-9.83673
 21
-25.5949
  0
LINE
  8
0
 10
-9.83673
 20
-25.5949
 11
-10.4872
 21
-25.5539
  0
LINE
  8
0
 10
-28.4872
 20
-25.5539
 11
-29.107
 21
-25.3525
  0
LINE
  8
0
 10
-29.107
 20
-25.3525
 11
-29.6573
 21
-25.0033
  0
LINE
  8
0
 10
-29.6573
 20
-25.0033
 11
-30.1034
 21
-24.5282
  0
LINE
  8
0
 10
-30.1034
 20
-24.5282
 11
-30.4174
 21
-23.9571
  0
LINE
  8
0
 10
-30.4174
 20
-23.9571
 11
-30.5795
 21
-23.3259
  0
LINE
  8
0
 10
-30.5795
 20
-23.3259
 11
-30.5795
 21
-22.6741
  0
LINE
  8
0
 10
-30.5795
 20
-22.6741
 11
-30.4174
 21
-22.0429
  0
LINE
  8
0
 10
-30.4174
 20
-22.0429
 11
-30.1034
 21
-21.4718
  0
LINE
  8
0
 10
-30.1034
 20
-21.4718
 11
-29.6573
 21
-20.9967
  0
LINE
  8
0
 10
-29.6573
 20
-20.9967
 11
-29.107
 21
-20.6474
  0
LINE
  8
0
 10
-29.107
 20
-20.6474
 11
-28.4872
 21
-20.446
  0
LINE
  8
0
 10
-28.4872
 20
-20.446
 11
-27.8367
 21
-20.4051
  0
LINE
  8
0
 10
-27.8367
 20
-20.4051
 11
-27.1965
 21
-20.5273
  0
LINE
  8
0
 10
-27.1965
 20
-20.5273
 11
-26.6068
 21
-20.8047
  0
LINE
  8
0
 10
-26.6068
 20
-20.8047
 11
-26.1047
 21
-21.2202
  0
LINE
  8
0
 10
-26.1047
 20
-21.2202
 11
-25.7216
 21
-21.7474
  0
LINE
  8
0
 10
-25.7216
 20
-21.7474
 11
-25.4817
 21
-22.3534
  0
LINE
  8
0
 10
-25.4817
 20
-22.3534
 11
-25.4
 21
-23
  0
LINE
  8
0
 10
-25.4
 20
-23
 11
-25.4817
 21
-23.6466
  0
LINE
  8
0
 10
-25.4817
 20
-23.6466
 11
-25.7216
 21
-24.2525
  0
LINE
  8
0
 10
-25.7216
 20
-24.2525
 11
-26.1047
 21
-24.7798
  0
LINE
  8
0
 10
-26.1047
 20
-24.7798
 11
-26.6068
 21
-25.1953
  0
LINE
  8
0
 10
-26.6068
 20
-25.1953
 11
-27.1965
 21
-25.4727
  0
LINE
  8
0
 10
-27.1965
 20
-25.4727
 11
-27.8367
 21
-25.5949
  0
LINE
  8
0
 10
-27.8367
 20
-25.5949
 11
-28.4872
 21
-25.5539
  0
LINE
  8
0
 10
49.2317
 20
-34.0274
 11
48.2543
 21
-33.7098
  0
LINE
  8
0
 10
48.2543
 20
-33.7098
 11
47.3866
 21
-33.1591
  0
LINE
  8
0
 10
47.3866
 20
-33.1591
 11
46.683
 21
-32.4099
  0
LINE
  8
0
 10
46.683
 20
-32.4099
 11
46.1879
 21
-31.5093
  0
LINE
  8
0
 10
46.1879
 20
-31.5093
 11
45.9323
 21
-30.5139
  0
LINE
  8
0
 10
45.9323
 20
-30.5139
 11
45.9323
 21
-29.4861
  0
LINE
  8
0
 10
45.9323
 20
-29.4861
 11
46.1879
 21
-28.4907
  0
LINE
  8
0
 10
46.1879
 20
-28.4907
 11
46.683
 21
-27.5901
  0
LINE
  8
0
 10
46.683
 20
-27.5901
 11
47.3866
 21
-26.8409
  0
LINE
  8
0
 10
47.3866
 20
-26.8409
 11
48.2543
 21
-26.2902
  0
LINE
  8
0
 10
48.2543
 20
-26.2902
 11
49.2317
 21
-25.9726
  0
LINE
  8
0
 10
49.2317
 20
-25.9726
 11
50.2574
 21
-25.9081
  0
LINE
  8
0
 10
50.2574
 20
-25.9081
 11
51.267
 21
-26.1007
  0
LINE
  8
0
 10
51.267
 20
-26.1007
 11
52.1969
 21
-26.5383
  0
LINE
  8
0
 10
52.1969
 20
-26.5383
 11
52.9888
 21
-27.1933
  0
LINE
  8
0
 10
52.9888
 20
-27.1933
 11
53.5928
 21
-28.0248
  0
LINE
  8
0
 10
53.5928
 20
-28.0248
 11
53.9712
 21
-28.9804
  0
LINE
  8
0
 10
53.9712
 20
-28.9804
 11
54.1
 21
-30
  0
LINE
  8
0
 10
54.1
 20
-30
 11
53.9712
 21
-31.0196
  0
LINE
  8
0
 10
53.9712
 20
-31.0196
 11
53.5928
 21
-31.9752
  0
LINE
  8
0
 10
53.5928
 20
-31.9752
 11
52.9888
 21
-32.8066
  0
LINE
  8
0
 10
52.9888
 20
-32.8066
 11
52.1969
 21
-33.4617
  0
LINE
  8
0
 10
52.1969
 20
-33.4617
 11
51.267
 21
-33.8993
  0
LINE
  8
0
 10
51.267
 20
-33.8993
 11
50.2574
 21
-34.0919
  0
LINE
  8
0
 10
50.2574
 20
-34.0919
 11
49.2317
 21
-34.0274
  0
ENDSEC
  0
SECTION
  2
OBJECTS
  0
DICTIONARY
  0
ENDSEC
  0
EOF
