  0
SECTION
  2
BLOCKS
  0
ENDSEC
  0
SECTION
  2
ENTITIES
  0
LINE
  8
0
 10
97.6676
 20
-79.9248
 11
98.3017
 21
-79.7029
  0
LINE
  8
0
 10
98.3017
 20
-79.7029
 11
98.8705
 21
-79.3455
  0
LINE
  8
0
 10
98.8705
 20
-79.3455
 11
99.3455
 21
-78.8705
  0
LINE
  8
0
 10
99.3455
 20
-78.8705
 11
99.7029
 21
-78.3017
  0
LINE
  8
0
 10
99.7029
 20
-78.3017
 11
99.9248
 21
-77.6676
  0
LINE
  8
0
 10
99.9248
 20
-77.6676
 11
100
 21
-77
  0
LINE
  8
0
 10
100
 20
-77
 11
100
 21
77
  0
LINE
  8
0
 10
100
 20
77
 11
99.9248
 21
77.6676
  0
LINE
  8
0
 10
99.9248
 20
77.6676
 11
99.7029
 21
78.3017
  0
LINE
  8
0
 10
99.7029
 20
78.3017
 11
99.3455
 21
78.8705
  0
LINE
  8
0
 10
99.3455
 20
78.8705
 11
98.8705
 21
79.3455
  0
LINE
  8
0
 10
98.8705
 20
79.3455
 11
98.3017
 21
79.7029
  0
LINE
  8
0
 10
98.3017
 20
79.7029
 11
97.6676
 21
79.9248
  0
LINE
  8
0
 10
97.6676
 20
79.9248
 11
97
 21
80
  0
LINE
  8
0
 10
97
 20
80
 11
-70
 21
80
  0
LINE
  8
0
 10
-70
 20
80
 11
-70
 21
-80
  0
LINE
  8
0
 10
-70
 20
-80
 11
97
 21
-80
  0
LINE
  8
0
 10
97
 20
-80
 11
97.6676
 21
-79.9248
  0
LINE
  8
0
 10
79.4097
 20
56.9058
 11
78.6588
 21
57.1498
  0
LINE
  8
0
 10
78.6588
 20
57.1498
 11
77.9921
 21
57.5729
  0
LINE
  8
0
 10
77.9921
 20
57.5729
 11
77.4516
 21
58.1485
  0
LINE
  8
0
 10
77.4516
 20
58.1485
 11
77.0712
 21
58.8404
  0
LINE
  8
0
 10
77.0712
 20
58.8404
 11
76.8748
 21
59.6052
  0
LINE
  8
0
 10
76.8748
 20
59.6052
 11
76.8748
 21
60.3948
  0
LINE
  8
0
 10
76.8748
 20
60.3948
 11
77.0712
 21
61.1596
  0
LINE
  8
0
 10
77.0712
 20
61.1596
 11
77.4516
 21
61.8515
  0
LINE
  8
0
 10
77.4516
 20
61.8515
 11
77.9921
 21
62.4271
  0
LINE
  8
0
 10
77.9921
 20
62.4271
 11
78.6588
 21
62.8502
  0
LINE
  8
0
 10
78.6588
 20
62.8502
 11
79.4097
 21
63.0942
  0
LINE
  8
0
 10
79.4097
 20
63.0942
 11
80.1978
 21
63.1438
  0
LINE
  8
0
 10
80.1978
 20
63.1438
 11
80.9734
 21
62.9958
  0
LINE
  8
0
 10
80.9734
 20
62.9958
 11
81.6879
 21
62.6596
  0
LINE
  8
0
 10
81.6879
 20
62.6596
 11
82.2962
 21
62.1563
  0
LINE
  8
0
 10
82.2962
 20
62.1563
 11
82.7604
 21
61.5175
  0
LINE
  8
0
 10
82.7604
 20
61.5175
 11
83.051
 21
60.7834
  0
LINE
  8
0
 10
83.051
 20
60.7834
 11
83.15
 21
60
  0
LINE
  8
0
 10
83.15
 20
60
 11
83.051
 21
59.2166
  0
LINE
  8
0
 10
83.051
 20
59.2166
 11
82.7604
 21
58.4825
  0
LINE
  8
0
 10
82.7604
 20
58.4825
 11
82.2962
 21
57.8437
  0
LINE
  8
0
 10
82.2962
 20
57.8437
 11
81.6879
 21
57.3404
  0
LINE
  8
0
 10
81.6879
 20
57.3404
 11
80.9734
 21
57.0042
  0
LINE
  8
0
 10
80.9734
 20
57.0042
 11
80.1978
 21
56.8562
  0
LINE
  8
0
 10
80.1978
 20
56.8562
 11
79.4097
 21
56.9058
  0
LINE
  8
0
 10
31.2247
 20
28.7208
 11
30.4738
 21
28.9648
  0
LINE
  8
0
 10
30.4738
 20
28.9648
 11
29.8071
 21
29.3879
  0
LINE
  8
0
 10
29.8071
 20
29.3879
 11
29.2666
 21
29.9635
  0
LINE
  8
0
 10
29.2666
 20
29.9635
 11
28.8862
 21
30.6554
  0
LINE
  8
0
 10
28.8862
 20
30.6554
 11
28.6898
 21
31.4202
  0
LINE
  8
0
 10
28.6898
 20
31.4202
 11
28.6898
 21
32.2098
  0
LINE
  8
0
 10
28.6898
 20
32.2098
 11
28.8862
 21
32.9746
  0
LINE
  8
0
 10
28.8862
 20
32.9746
 11
29.2666
 21
33.6665
  0
LINE
  8
0
 10
29.2666
 20
33.6665
 11
29.8071
 21
34.2421
  0
LINE
  8
0
 10
29.8071
 20
34.2421
 11
30.4738
 21
34.6652
  0
LINE
  8
0
 10
30.4738
 20
34.6652
 11
31.2247
 21
34.9092
  0
LINE
  8
0
 10
31.2247
 20
34.9092
 11
32.0128
 21
34.9588
  0
LINE
  8
0
 10
32.0128
 20
34.9588
 11
32.7884
 21
34.8108
  0
LINE
  8
0
 10
32.7884
 20
34.8108
 11
33.5029
 21
34.4746
  0
LINE
  8
0
 10
33.5029
 20
34.4746
 11
34.1112
 21
33.9713
  0
LINE
  8
0
 10
34.1112
 20
33.9713
 11
34.5754
 21
33.3325
  0
LINE
  8
0
 10
34.5754
 20
33.3325
 11
34.866
 21
32.5984
  0
LINE
  8
0
 10
34.866
 20
32.5984
 11
34.965
 21
31.815
  0
LINE
  8
0
 10
34.965
 20
31.815
 11
34.866
 21
31.0316
  0
LINE
  8
0
 10
34.866
 20
31.0316
 11
34.5754
 21
30.2975
  0
LINE
  8
0
 10
34.5754
 20
30.2975
 11
34.1112
 21
29.6587
  0
LINE
  8
0
 10
34.1112
 20
29.6587
 11
33.5029
 21
29.1554
  0
LINE
  8
0
 10
33.5029
 20
29.1554
 11
32.7884
 21
28.8192
  0
LINE
  8
0
 10
32.7884
 20
28.8192
 11
32.0128
 21
28.6712
  0
LINE
  8
0
 10
32.0128
 20
28.6712
 11
31.2247
 21
28.7208
  0
LINE
  8
0
 10
-32.4052
 20
28.7208
 11
-33.1562
 21
28.9648
  0
LINE
  8
0
 10
-33.1562
 20
28.9648
 11
-33.8229
 21
29.3879
  0
LINE
  8
0
 10
-33.8229
 20
29.3879
 11
-34.3634
 21
29.9635
  0
LINE
  8
0
 10
-34.3634
 20
29.9635
 11
-34.7438
 21
30.6554
  0
LINE
  8
0
 10
-34.7438
 20
30.6554
 11
-34.9402
 21
31.4202
  0
LINE
  8
0
 10
-34.9402
 20
31.4202
 11
-34.9402
 21
32.2098
  0
LINE
  8
0
 10
-34.9402
 20
32.2098
 11
-34.7438
 21
32.9746
  0
LINE
  8
0
 10
-34.7438
 20
32.9746
 11
-34.3634
 21
33.6665
  0
LINE
  8
0
 10
-34.3634
 20
33.6665
 11
-33.8229
 21
34.2421
  0
LINE
  8
0
 10
-33.8229
 20
34.2421
 11
-33.1562
 21
34.6652
  0
LINE
  8
0
 10
-33.1562
 20
34.6652
 11
-32.4052
 21
34.9092
  0
LINE
  8
0
 10
-32.4052
 20
34.9092
 11
-31.6172
 21
34.9588
  0
LINE
  8
0
 10
-31.6172
 20
34.9588
 11
-30.8416
 21
34.8108
  0
LINE
  8
0
 10
-30.8416
 20
34.8108
 11
-30.1271
 21
34.4746
  0
LINE
  8
0
 10
-30.1271
 20
34.4746
 11
-29.5187
 21
33.9713
  0
LINE
  8
0
 10
-29.5187
 20
33.9713
 11
-29.0546
 21
33.3325
  0
LINE
  8
0
 10
-29.0546
 20
33.3325
 11
-28.764
 21
32.5984
  0
LINE
  8
0
 10
-28.764
 20
32.5984
 11
-28.665
 21
31.815
  0
LINE
  8
0
 10
-28.665
 20
31.815
 11
-28.764
 21
31.0316
  0
LINE
  8
0
 10
-28.764
 20
31.0316
 11
-29.0546
 21
30.2975
  0
LINE
  8
0
 10
-29.0546
 20
30.2975
 11
-29.5187
 21
29.6587
  0
LINE
  8
0
 10
-29.5187
 20
29.6587
 11
-30.1271
 21
29.1554
  0
LINE
  8
0
 10
-30.1271
 20
29.1554
 11
-30.8416
 21
28.8192
  0
LINE
  8
0
 10
-30.8416
 20
28.8192
 11
-31.6172
 21
28.6712
  0
LINE
  8
0
 10
-31.6172
 20
28.6712
 11
-32.4052
 21
28.7208
  0
LINE
  8
0
 10
-6.55833
 20
-34.3801
 11
-14.9023
 21
-31.6689
  0
LINE
  8
0
 10
-14.9023
 20
-31.6689
 11
-22.3098
 21
-26.968
  0
LINE
  8
0
 10
-22.3098
 20
-26.968
 11
-28.3156
 21
-20.5725
  0
LINE
  8
0
 10
-28.3156
 20
-20.5725
 11
-32.5422
 21
-12.8844
  0
LINE
  8
0
 10
-32.5422
 20
-12.8844
 11
-34.724
 21
-4.38666
  0
LINE
  8
0
 10
-34.724
 20
-4.38666
 11
-34.724
 21
4.38666
  0
LINE
  8
0
 10
-34.724
 20
4.38666
 11
-32.5422
 21
12.8844
  0
LINE
  8
0
 10
-32.5422
 20
12.8844
 11
-28.3156
 21
20.5725
  0
LINE
  8
0
 10
-28.3156
 20
20.5725
 11
-22.3098
 21
26.968
  0
LINE
  8
0
 10
-22.3098
 20
26.968
 11
-14.9023
 21
31.6689
  0
LINE
  8
0
 10
-14.9023
 20
31.6689
 11
-6.55833
 21
34.3801
  0
LINE
  8
0
 10
-6.55833
 20
34.3801
 11
2.19766
 21
34.9309
  0
LINE
  8
0
 10
2.19766
 20
34.9309
 11
10.8156
 21
33.287
  0
LINE
  8
0
 10
10.8156
 20
33.287
 11
18.7539
 21
29.5515
  0
LINE
  8
0
 10
18.7539
 20
29.5515
 11
25.5139
 21
23.9591
  0
LINE
  8
0
 10
25.5139
 20
23.9591
 11
30.6707
 21
16.8614
  0
LINE
  8
0
 10
30.6707
 20
16.8614
 11
33.9004
 21
8.70413
  0
LINE
  8
0
 10
33.9004
 20
8.70413
 11
35
 21
0
  0
LINE
  8
0
 10
35
 20
0
 11
33.9004
 21
-8.70413
  0
LINE
  8
0
 10
33.9004
 20
-8.70413
 11
30.6707
 21
-16.8614
  0
LINE
  8
0
 10
30.6707
 20
-16.8614
 11
25.5139
 21
-23.9591
  0
LINE
  8
0
 10
25.5139
 20
-23.9591
 11
18.7539
 21
-29.5515
  0
LINE
  8
0
 10
18.7539
 20
-29.5515
 11
10.8156
 21
-33.287
  0
LINE
  8
0
 10
10.8156
 20
-33.287
 11
2.19766
 21
-34.9309
  0
LINE
  8
0
 10
2.19766
 20
-34.9309
 11
-6.55833
 21
-34.3801
  0
LINE
  8
0
 10
79.2224
 20
25.9235
 11
78.233
 21
26.245
  0
LINE
  8
0
 10
78.233
 20
26.245
 11
77.3547
 21
26.8024
  0
LINE
  8
0
 10
77.3547
 20
26.8024
 11
76.6426
 21
27.5607
  0
LINE
  8
0
 10
76.6426
 20
27.5607
 11
76.1414
 21
28.4723
  0
LINE
  8
0
 10
76.1414
 20
28.4723
 11
75.8827
 21
29.4799
  0
LINE
  8
0
 10
75.8827
 20
29.4799
 11
75.8827
 21
30.5201
  0
LINE
  8
0
 10
75.8827
 20
30.5201
 11
76.1414
 21
31.5277
  0
LINE
  8
0
 10
76.1414
 20
31.5277
 11
76.6426
 21
32.4393
  0
LINE
  8
0
 10
76.6426
 20
32.4393
 11
77.3547
 21
33.1976
  0
LINE
  8
0
 10
77.3547
 20
33.1976
 11
78.233
 21
33.755
  0
LINE
  8
0
 10
78.233
 20
33.755
 11
79.2224
 21
34.0765
  0
LINE
  8
0
 10
79.2224
 20
34.0765
 11
80.2606
 21
34.1418
  0
LINE
  8
0
 10
80.2606
 20
34.1418
 11
81.2824
 21
33.9469
  0
LINE
  8
0
 10
81.2824
 20
33.9469
 11
82.2237
 21
33.504
  0
LINE
  8
0
 10
82.2237
 20
33.504
 11
83.0252
 21
32.8409
  0
LINE
  8
0
 10
83.0252
 20
32.8409
 11
83.6367
 21
31.9993
  0
LINE
  8
0
 10
83.6367
 20
31.9993
 11
84.0196
 21
31.0321
  0
LINE
  8
0
 10
84.0196
 20
31.0321
 11
84.15
 21
30
  0
LINE
  8
0
 10
84.15
 20
30
 11
84.0196
 21
28.9679
  0
LINE
  8
0
 10
84.0196
 20
28.9679
 11
83.6367
 21
28.0007
  0
LINE
  8
0
 10
83.6367
 20
28.0007
 11
83.0252
 21
27.1591
  0
LINE
  8
0
 10
83.0252
 20
27.1591
 11
82.2237
 21
26.496
  0
LINE
  8
0
 10
82.2237
 20
26.496
 11
81.2824
 21
26.0531
  0
LINE
  8
0
 10
81.2824
 20
26.0531
 11
80.2606
 21
25.8582
  0
LINE
  8
0
 10
80.2606
 20
25.8582
 11
79.2224
 21
25.9235
  0
LINE
  8
0
 10
79.2224
 20
-4.07648
 11
78.233
 21
-3.75502
  0
LINE
  8
0
 10
78.233
 20
-3.75502
 11
77.3547
 21
-3.19762
  0
LINE
  8
0
 10
77.3547
 20
-3.19762
 11
76.6426
 21
-2.4393
  0
LINE
  8
0
 10
76.6426
 20
-2.4393
 11
76.1414
 21
-1.52771
  0
LINE
  8
0
 10
76.1414
 20
-1.52771
 11
75.8827
 21
-0.520126
  0
LINE
  8
0
 10
75.8827
 20
-0.520126
 11
75.8827
 21
0.520126
  0
LINE
  8
0
 10
75.8827
 20
0.520126
 11
76.1414
 21
1.52771
  0
LINE
  8
0
 10
76.1414
 20
1.52771
 11
76.6426
 21
2.4393
  0
LINE
  8
0
 10
76.6426
 20
2.4393
 11
77.3547
 21
3.19762
  0
LINE
  8
0
 10
77.3547
 20
3.19762
 11
78.233
 21
3.75502
  0
LINE
  8
0
 10
78.233
 20
3.75502
 11
79.2224
 21
4.07648
  0
LINE
  8
0
 10
79.2224
 20
4.07648
 11
80.2606
 21
4.1418
  0
LINE
  8
0
 10
80.2606
 20
4.1418
 11
81.2824
 21
3.94688
  0
LINE
  8
0
 10
81.2824
 20
3.94688
 11
82.2237
 21
3.50395
  0
LINE
  8
0
 10
82.2237
 20
3.50395
 11
83.0252
 21
2.84087
  0
LINE
  8
0
 10
83.0252
 20
2.84087
 11
83.6367
 21
1.99927
  0
LINE
  8
0
 10
83.6367
 20
1.99927
 11
84.0196
 21
1.03206
  0
LINE
  8
0
 10
84.0196
 20
1.03206
 11
84.15
 21
0
  0
LINE
  8
0
 10
84.15
 20
0
 11
84.0196
 21
-1.03206
  0
LINE
  8
0
 10
84.0196
 20
-1.03206
 11
83.6367
 21
-1.99927
  0
LINE
  8
0
 10
83.6367
 20
-1.99927
 11
83.0252
 21
-2.84087
  0
LINE
  8
0
 10
83.0252
 20
-2.84087
 11
82.2237
 21
-3.50395
  0
LINE
  8
0
 10
82.2237
 20
-3.50395
 11
81.2824
 21
-3.94688
  0
LINE
  8
0
 10
81.2824
 20
-3.94688
 11
80.2606
 21
-4.1418
  0
LINE
  8
0
 10
80.2606
 20
-4.1418
 11
79.2224
 21
-4.07648
  0
LINE
  8
0
 10
79.2224
 20
-34.0765
 11
78.233
 21
-33.755
  0
LINE
  8
0
 10
78.233
 20
-33.755
 11
77.3547
 21
-33.1976
  0
LINE
  8
0
 10
77.3547
 20
-33.1976
 11
76.6426
 21
-32.4393
  0
LINE
  8
0
 10
76.6426
 20
-32.4393
 11
76.1414
 21
-31.5277
  0
LINE
  8
0
 10
76.1414
 20
-31.5277
 11
75.8827
 21
-30.5201
  0
LINE
  8
0
 10
75.8827
 20
-30.5201
 11
75.8827
 21
-29.4799
  0
LINE
  8
0
 10
75.8827
 20
-29.4799
 11
76.1414
 21
-28.4723
  0
LINE
  8
0
 10
76.1414
 20
-28.4723
 11
76.6426
 21
-27.5607
  0
LINE
  8
0
 10
76.6426
 20
-27.5607
 11
77.3547
 21
-26.8024
  0
LINE
  8
0
 10
77.3547
 20
-26.8024
 11
78.233
 21
-26.245
  0
LINE
  8
0
 10
78.233
 20
-26.245
 11
79.2224
 21
-25.9235
  0
LINE
  8
0
 10
79.2224
 20
-25.9235
 11
80.2606
 21
-25.8582
  0
LINE
  8
0
 10
80.2606
 20
-25.8582
 11
81.2824
 21
-26.0531
  0
LINE
  8
0
 10
81.2824
 20
-26.0531
 11
82.2237
 21
-26.496
  0
LINE
  8
0
 10
82.2237
 20
-26.496
 11
83.0252
 21
-27.1591
  0
LINE
  8
0
 10
83.0252
 20
-27.1591
 11
83.6367
 21
-28.0007
  0
LINE
  8
0
 10
83.6367
 20
-28.0007
 11
84.0196
 21
-28.9679
  0
LINE
  8
0
 10
84.0196
 20
-28.9679
 11
84.15
 21
-30
  0
LINE
  8
0
 10
84.15
 20
-30
 11
84.0196
 21
-31.0321
  0
LINE
  8
0
 10
84.0196
 20
-31.0321
 11
83.6367
 21
-31.9993
  0
LINE
  8
0
 10
83.6367
 20
-31.9993
 11
83.0252
 21
-32.8409
  0
LINE
  8
0
 10
83.0252
 20
-32.8409
 11
82.2237
 21
-33.504
  0
LINE
  8
0
 10
82.2237
 20
-33.504
 11
81.2824
 21
-33.9469
  0
LINE
  8
0
 10
81.2824
 20
-33.9469
 11
80.2606
 21
-34.1418
  0
LINE
  8
0
 10
80.2606
 20
-34.1418
 11
79.2224
 21
-34.0765
  0
LINE
  8
0
 10
31.2247
 20
-34.9092
 11
30.4738
 21
-34.6652
  0
LINE
  8
0
 10
30.4738
 20
-34.6652
 11
29.8071
 21
-34.2421
  0
LINE
  8
0
 10
29.8071
 20
-34.2421
 11
29.2666
 21
-33.6665
  0
LINE
  8
0
 10
29.2666
 20
-33.6665
 11
28.8862
 21
-32.9746
  0
LINE
  8
0
 10
28.8862
 20
-32.9746
 11
28.6898
 21
-32.2098
  0
LINE
  8
0
 10
28.6898
 20
-32.2098
 11
28.6898
 21
-31.4202
  0
LINE
  8
0
 10
28.6898
 20
-31.4202
 11
28.8862
 21
-30.6554
  0
LINE
  8
0
 10
28.8862
 20
-30.6554
 11
29.2666
 21
-29.9635
  0
LINE
  8
0
 10
29.2666
 20
-29.9635
 11
29.8071
 21
-29.3879
  0
LINE
  8
0
 10
29.8071
 20
-29.3879
 11
30.4738
 21
-28.9648
  0
LINE
  8
0
 10
30.4738
 20
-28.9648
 11
31.2247
 21
-28.7208
  0
LINE
  8
0
 10
31.2247
 20
-28.7208
 11
32.0128
 21
-28.6712
  0
LINE
  8
0
 10
32.0128
 20
-28.6712
 11
32.7884
 21
-28.8192
  0
LINE
  8
0
 10
32.7884
 20
-28.8192
 11
33.5029
 21
-29.1554
  0
LINE
  8
0
 10
33.5029
 20
-29.1554
 11
34.1112
 21
-29.6587
  0
LINE
  8
0
 10
34.1112
 20
-29.6587
 11
34.5754
 21
-30.2975
  0
LINE
  8
0
 10
34.5754
 20
-30.2975
 11
34.866
 21
-31.0316
  0
LINE
  8
0
 10
34.866
 20
-31.0316
 11
34.965
 21
-31.815
  0
LINE
  8
0
 10
34.965
 20
-31.815
 11
34.866
 21
-32.5984
  0
LINE
  8
0
 10
34.866
 20
-32.5984
 11
34.5754
 21
-33.3325
  0
LINE
  8
0
 10
34.5754
 20
-33.3325
 11
34.1112
 21
-33.9713
  0
LINE
  8
0
 10
34.1112
 20
-33.9713
 11
33.5029
 21
-34.4746
  0
LINE
  8
0
 10
33.5029
 20
-34.4746
 11
32.7884
 21
-34.8108
  0
LINE
  8
0
 10
32.7884
 20
-34.8108
 11
32.0128
 21
-34.9588
  0
LINE
  8
0
 10
32.0128
 20
-34.9588
 11
31.2247
 21
-34.9092
  0
LINE
  8
0
 10
-32.4052
 20
-34.9092
 11
-33.1562
 21
-34.6652
  0
LINE
  8
0
 10
-33.1562
 20
-34.6652
 11
-33.8229
 21
-34.2421
  0
LINE
  8
0
 10
-33.8229
 20
-34.2421
 11
-34.3634
 21
-33.6665
  0
LINE
  8
0
 10
-34.3634
 20
-33.6665
 11
-34.7438
 21
-32.9746
  0
LINE
  8
0
 10
-34.7438
 20
-32.9746
 11
-34.9402
 21
-32.2098
  0
LINE
  8
0
 10
-34.9402
 20
-32.2098
 11
-34.9402
 21
-31.4202
  0
LINE
  8
0
 10
-34.9402
 20
-31.4202
 11
-34.7438
 21
-30.6554
  0
LINE
  8
0
 10
-34.7438
 20
-30.6554
 11
-34.3634
 21
-29.9635
  0
LINE
  8
0
 10
-34.3634
 20
-29.9635
 11
-33.8229
 21
-29.3879
  0
LINE
  8
0
 10
-33.8229
 20
-29.3879
 11
-33.1562
 21
-28.9648
  0
LINE
  8
0
 10
-33.1562
 20
-28.9648
 11
-32.4052
 21
-28.7208
  0
LINE
  8
0
 10
-32.4052
 20
-28.7208
 11
-31.6172
 21
-28.6712
  0
LINE
  8
0
 10
-31.6172
 20
-28.6712
 11
-30.8416
 21
-28.8192
  0
LINE
  8
0
 10
-30.8416
 20
-28.8192
 11
-30.1271
 21
-29.1554
  0
LINE
  8
0
 10
-30.1271
 20
-29.1554
 11
-29.5187
 21
-29.6587
  0
LINE
  8
0
 10
-29.5187
 20
-29.6587
 11
-29.0546
 21
-30.2975
  0
LINE
  8
0
 10
-29.0546
 20
-30.2975
 11
-28.764
 21
-31.0316
  0
LINE
  8
0
 10
-28.764
 20
-31.0316
 11
-28.665
 21
-31.815
  0
LINE
  8
0
 10
-28.665
 20
-31.815
 11
-28.764
 21
-32.5984
  0
LINE
  8
0
 10
-28.764
 20
-32.5984
 11
-29.0546
 21
-33.3325
  0
LINE
  8
0
 10
-29.0546
 20
-33.3325
 11
-29.5187
 21
-33.9713
  0
LINE
  8
0
 10
-29.5187
 20
-33.9713
 11
-30.1271
 21
-34.4746
  0
LINE
  8
0
 10
-30.1271
 20
-34.4746
 11
-30.8416
 21
-34.8108
  0
LINE
  8
0
 10
-30.8416
 20
-34.8108
 11
-31.6172
 21
-34.9588
  0
LINE
  8
0
 10
-31.6172
 20
-34.9588
 11
-32.4052
 21
-34.9092
  0
LINE
  8
0
 10
79.4097
 20
-63.0942
 11
78.6588
 21
-62.8502
  0
LINE
  8
0
 10
78.6588
 20
-62.8502
 11
77.9921
 21
-62.4271
  0
LINE
  8
0
 10
77.9921
 20
-62.4271
 11
77.4516
 21
-61.8515
  0
LINE
  8
0
 10
77.4516
 20
-61.8515
 11
77.0712
 21
-61.1596
  0
LINE
  8
0
 10
77.0712
 20
-61.1596
 11
76.8748
 21
-60.3948
  0
LINE
  8
0
 10
76.8748
 20
-60.3948
 11
76.8748
 21
-59.6052
  0
LINE
  8
0
 10
76.8748
 20
-59.6052
 11
77.0712
 21
-58.8404
  0
LINE
  8
0
 10
77.0712
 20
-58.8404
 11
77.4516
 21
-58.1485
  0
LINE
  8
0
 10
77.4516
 20
-58.1485
 11
77.9921
 21
-57.5729
  0
LINE
  8
0
 10
77.9921
 20
-57.5729
 11
78.6588
 21
-57.1498
  0
LINE
  8
0
 10
78.6588
 20
-57.1498
 11
79.4097
 21
-56.9058
  0
LINE
  8
0
 10
79.4097
 20
-56.9058
 11
80.1978
 21
-56.8562
  0
LINE
  8
0
 10
80.1978
 20
-56.8562
 11
80.9734
 21
-57.0042
  0
LINE
  8
0
 10
80.9734
 20
-57.0042
 11
81.6879
 21
-57.3404
  0
LINE
  8
0
 10
81.6879
 20
-57.3404
 11
82.2962
 21
-57.8437
  0
LINE
  8
0
 10
82.2962
 20
-57.8437
 11
82.7604
 21
-58.4825
  0
LINE
  8
0
 10
82.7604
 20
-58.4825
 11
83.051
 21
-59.2166
  0
LINE
  8
0
 10
83.051
 20
-59.2166
 11
83.15
 21
-60
  0
LINE
  8
0
 10
83.15
 20
-60
 11
83.051
 21
-60.7834
  0
LINE
  8
0
 10
83.051
 20
-60.7834
 11
82.7604
 21
-61.5175
  0
LINE
  8
0
 10
82.7604
 20
-61.5175
 11
82.2962
 21
-62.1563
  0
LINE
  8
0
 10
82.2962
 20
-62.1563
 11
81.6879
 21
-62.6596
  0
LINE
  8
0
 10
81.6879
 20
-62.6596
 11
80.9734
 21
-62.9958
  0
LINE
  8
0
 10
80.9734
 20
-62.9958
 11
80.1978
 21
-63.1438
  0
LINE
  8
0
 10
80.1978
 20
-63.1438
 11
79.4097
 21
-63.0942
  0
ENDSEC
  0
SECTION
  2
OBJECTS
  0
DICTIONARY
  0
ENDSEC
  0
EOF
