  0
SECTION
  2
BLOCKS
  0
ENDSEC
  0
SECTION
  2
ENTITIES
  0
LINE
  8
0
 10
-50
 20
-85
 11
50
 21
-85
  0
LINE
  8
0
 10
50
 20
-85
 11
50
 21
-21
  0
LINE
  8
0
 10
50
 20
-21
 11
100
 21
-21
  0
LINE
  8
0
 10
100
 20
-21
 11
100
 21
23
  0
LINE
  8
0
 10
100
 20
23
 11
50
 21
23
  0
LINE
  8
0
 10
50
 20
23
 11
50
 21
85
  0
LINE
  8
0
 10
50
 20
85
 11
-50
 21
85
  0
LINE
  8
0
 10
-50
 20
85
 11
-50
 21
23
  0
LINE
  8
0
 10
-50
 20
23
 11
-100
 21
23
  0
LINE
  8
0
 10
-100
 20
23
 11
-100
 21
-21
  0
LINE
  8
0
 10
-100
 20
-21
 11
-50
 21
-21
  0
LINE
  8
0
 10
-50
 20
-21
 11
-50
 21
-85
  0
LINE
  8
0
 10
-20.5809
 20
46.9549
 11
-21.3199
 21
47.195
  0
LINE
  8
0
 10
-21.3199
 20
47.195
 11
-21.976
 21
47.6114
  0
LINE
  8
0
 10
-21.976
 20
47.6114
 11
-22.5079
 21
48.1779
  0
LINE
  8
0
 10
-22.5079
 20
48.1779
 11
-22.8823
 21
48.8588
  0
LINE
  8
0
 10
-22.8823
 20
48.8588
 11
-23.0755
 21
49.6115
  0
LINE
  8
0
 10
-23.0755
 20
49.6115
 11
-23.0755
 21
50.3885
  0
LINE
  8
0
 10
-23.0755
 20
50.3885
 11
-22.8823
 21
51.1412
  0
LINE
  8
0
 10
-22.8823
 20
51.1412
 11
-22.5079
 21
51.8221
  0
LINE
  8
0
 10
-22.5079
 20
51.8221
 11
-21.976
 21
52.3886
  0
LINE
  8
0
 10
-21.976
 20
52.3886
 11
-21.3199
 21
52.805
  0
LINE
  8
0
 10
-21.3199
 20
52.805
 11
-20.5809
 21
53.0451
  0
LINE
  8
0
 10
-20.5809
 20
53.0451
 11
-19.8053
 21
53.0939
  0
LINE
  8
0
 10
-19.8053
 20
53.0939
 11
-19.042
 21
52.9483
  0
LINE
  8
0
 10
-19.042
 20
52.9483
 11
-18.3389
 21
52.6174
  0
LINE
  8
0
 10
-18.3389
 20
52.6174
 11
-17.7402
 21
52.1221
  0
LINE
  8
0
 10
-17.7402
 20
52.1221
 11
-17.2834
 21
51.4934
  0
LINE
  8
0
 10
-17.2834
 20
51.4934
 11
-16.9974
 21
50.7709
  0
LINE
  8
0
 10
-16.9974
 20
50.7709
 11
-16.9
 21
50
  0
LINE
  8
0
 10
-16.9
 20
50
 11
-16.9974
 21
49.229
  0
LINE
  8
0
 10
-16.9974
 20
49.229
 11
-17.2834
 21
48.5066
  0
LINE
  8
0
 10
-17.2834
 20
48.5066
 11
-17.7402
 21
47.8779
  0
LINE
  8
0
 10
-17.7402
 20
47.8779
 11
-18.3389
 21
47.3826
  0
LINE
  8
0
 10
-18.3389
 20
47.3826
 11
-19.042
 21
47.0517
  0
LINE
  8
0
 10
-19.042
 20
47.0517
 11
-19.8053
 21
46.9061
  0
LINE
  8
0
 10
-19.8053
 20
46.9061
 11
-20.5809
 21
46.9549
  0
LINE
  8
0
 10
19.4191
 20
46.9549
 11
18.6801
 21
47.195
  0
LINE
  8
0
 10
18.6801
 20
47.195
 11
18.024
 21
47.6114
  0
LINE
  8
0
 10
18.024
 20
47.6114
 11
17.492
 21
48.1779
  0
LINE
  8
0
 10
17.492
 20
48.1779
 11
17.1177
 21
48.8588
  0
LINE
  8
0
 10
17.1177
 20
48.8588
 11
16.9244
 21
49.6115
  0
LINE
  8
0
 10
16.9244
 20
49.6115
 11
16.9244
 21
50.3885
  0
LINE
  8
0
 10
16.9244
 20
50.3885
 11
17.1177
 21
51.1412
  0
LINE
  8
0
 10
17.1177
 20
51.1412
 11
17.492
 21
51.8221
  0
LINE
  8
0
 10
17.492
 20
51.8221
 11
18.024
 21
52.3886
  0
LINE
  8
0
 10
18.024
 20
52.3886
 11
18.6801
 21
52.805
  0
LINE
  8
0
 10
18.6801
 20
52.805
 11
19.4191
 21
53.0451
  0
LINE
  8
0
 10
19.4191
 20
53.0451
 11
20.1946
 21
53.0939
  0
LINE
  8
0
 10
20.1946
 20
53.0939
 11
20.9579
 21
52.9483
  0
LINE
  8
0
 10
20.9579
 20
52.9483
 11
21.6611
 21
52.6174
  0
LINE
  8
0
 10
21.6611
 20
52.6174
 11
22.2598
 21
52.1221
  0
LINE
  8
0
 10
22.2598
 20
52.1221
 11
22.7165
 21
51.4934
  0
LINE
  8
0
 10
22.7165
 20
51.4934
 11
23.0026
 21
50.7709
  0
LINE
  8
0
 10
23.0026
 20
50.7709
 11
23.1
 21
50
  0
LINE
  8
0
 10
23.1
 20
50
 11
23.0026
 21
49.229
  0
LINE
  8
0
 10
23.0026
 20
49.229
 11
22.7165
 21
48.5066
  0
LINE
  8
0
 10
22.7165
 20
48.5066
 11
22.2598
 21
47.8779
  0
LINE
  8
0
 10
22.2598
 20
47.8779
 11
21.6611
 21
47.3826
  0
LINE
  8
0
 10
21.6611
 20
47.3826
 11
20.9579
 21
47.0517
  0
LINE
  8
0
 10
20.9579
 20
47.0517
 11
20.1946
 21
46.9061
  0
LINE
  8
0
 10
20.1946
 20
46.9061
 11
19.4191
 21
46.9549
  0
LINE
  8
0
 10
89.5128
 20
13.446
 11
88.893
 21
13.6474
  0
LINE
  8
0
 10
88.893
 20
13.6474
 11
88.3427
 21
13.9967
  0
LINE
  8
0
 10
88.3427
 20
13.9967
 11
87.8965
 21
14.4718
  0
LINE
  8
0
 10
87.8965
 20
14.4718
 11
87.5826
 21
15.0429
  0
LINE
  8
0
 10
87.5826
 20
15.0429
 11
87.4205
 21
15.6741
  0
LINE
  8
0
 10
87.4205
 20
15.6741
 11
87.4205
 21
16.3259
  0
LINE
  8
0
 10
87.4205
 20
16.3259
 11
87.5826
 21
16.9571
  0
LINE
  8
0
 10
87.5826
 20
16.9571
 11
87.8965
 21
17.5282
  0
LINE
  8
0
 10
87.8965
 20
17.5282
 11
88.3427
 21
18.0033
  0
LINE
  8
0
 10
88.3427
 20
18.0033
 11
88.893
 21
18.3525
  0
LINE
  8
0
 10
88.893
 20
18.3525
 11
89.5128
 21
18.5539
  0
LINE
  8
0
 10
89.5128
 20
18.5539
 11
90.1633
 21
18.5949
  0
LINE
  8
0
 10
90.1633
 20
18.5949
 11
90.8034
 21
18.4727
  0
LINE
  8
0
 10
90.8034
 20
18.4727
 11
91.3931
 21
18.1953
  0
LINE
  8
0
 10
91.3931
 20
18.1953
 11
91.8953
 21
17.7798
  0
LINE
  8
0
 10
91.8953
 20
17.7798
 11
92.2784
 21
17.2525
  0
LINE
  8
0
 10
92.2784
 20
17.2525
 11
92.5183
 21
16.6466
  0
LINE
  8
0
 10
92.5183
 20
16.6466
 11
92.6
 21
16
  0
LINE
  8
0
 10
92.6
 20
16
 11
92.5183
 21
15.3534
  0
LINE
  8
0
 10
92.5183
 20
15.3534
 11
92.2784
 21
14.7474
  0
LINE
  8
0
 10
92.2784
 20
14.7474
 11
91.8953
 21
14.2202
  0
LINE
  8
0
 10
91.8953
 20
14.2202
 11
91.3931
 21
13.8047
  0
LINE
  8
0
 10
91.3931
 20
13.8047
 11
90.8034
 21
13.5273
  0
LINE
  8
0
 10
90.8034
 20
13.5273
 11
90.1633
 21
13.4051
  0
LINE
  8
0
 10
90.1633
 20
13.4051
 11
89.5128
 21
13.446
  0
LINE
  8
0
 10
53.5128
 20
13.446
 11
52.893
 21
13.6474
  0
LINE
  8
0
 10
52.893
 20
13.6474
 11
52.3427
 21
13.9967
  0
LINE
  8
0
 10
52.3427
 20
13.9967
 11
51.8965
 21
14.4718
  0
LINE
  8
0
 10
51.8965
 20
14.4718
 11
51.5826
 21
15.0429
  0
LINE
  8
0
 10
51.5826
 20
15.0429
 11
51.4205
 21
15.6741
  0
LINE
  8
0
 10
51.4205
 20
15.6741
 11
51.4205
 21
16.3259
  0
LINE
  8
0
 10
51.4205
 20
16.3259
 11
51.5826
 21
16.9571
  0
LINE
  8
0
 10
51.5826
 20
16.9571
 11
51.8965
 21
17.5282
  0
LINE
  8
0
 10
51.8965
 20
17.5282
 11
52.3427
 21
18.0033
  0
LINE
  8
0
 10
52.3427
 20
18.0033
 11
52.893
 21
18.3525
  0
LINE
  8
0
 10
52.893
 20
18.3525
 11
53.5128
 21
18.5539
  0
LINE
  8
0
 10
53.5128
 20
18.5539
 11
54.1633
 21
18.5949
  0
LINE
  8
0
 10
54.1633
 20
18.5949
 11
54.8034
 21
18.4727
  0
LINE
  8
0
 10
54.8034
 20
18.4727
 11
55.3931
 21
18.1953
  0
LINE
  8
0
 10
55.3931
 20
18.1953
 11
55.8953
 21
17.7798
  0
LINE
  8
0
 10
55.8953
 20
17.7798
 11
56.2784
 21
17.2525
  0
LINE
  8
0
 10
56.2784
 20
17.2525
 11
56.5183
 21
16.6466
  0
LINE
  8
0
 10
56.5183
 20
16.6466
 11
56.6
 21
16
  0
LINE
  8
0
 10
56.6
 20
16
 11
56.5183
 21
15.3534
  0
LINE
  8
0
 10
56.5183
 20
15.3534
 11
56.2784
 21
14.7474
  0
LINE
  8
0
 10
56.2784
 20
14.7474
 11
55.8953
 21
14.2202
  0
LINE
  8
0
 10
55.8953
 20
14.2202
 11
55.3931
 21
13.8047
  0
LINE
  8
0
 10
55.3931
 20
13.8047
 11
54.8034
 21
13.5273
  0
LINE
  8
0
 10
54.8034
 20
13.5273
 11
54.1633
 21
13.4051
  0
LINE
  8
0
 10
54.1633
 20
13.4051
 11
53.5128
 21
13.446
  0
LINE
  8
0
 10
-54.4872
 20
13.446
 11
-55.107
 21
13.6474
  0
LINE
  8
0
 10
-55.107
 20
13.6474
 11
-55.6573
 21
13.9967
  0
LINE
  8
0
 10
-55.6573
 20
13.9967
 11
-56.1034
 21
14.4718
  0
LINE
  8
0
 10
-56.1034
 20
14.4718
 11
-56.4174
 21
15.0429
  0
LINE
  8
0
 10
-56.4174
 20
15.0429
 11
-56.5795
 21
15.6741
  0
LINE
  8
0
 10
-56.5795
 20
15.6741
 11
-56.5795
 21
16.3259
  0
LINE
  8
0
 10
-56.5795
 20
16.3259
 11
-56.4174
 21
16.9571
  0
LINE
  8
0
 10
-56.4174
 20
16.9571
 11
-56.1034
 21
17.5282
  0
LINE
  8
0
 10
-56.1034
 20
17.5282
 11
-55.6573
 21
18.0033
  0
LINE
  8
0
 10
-55.6573
 20
18.0033
 11
-55.107
 21
18.3525
  0
LINE
  8
0
 10
-55.107
 20
18.3525
 11
-54.4872
 21
18.5539
  0
LINE
  8
0
 10
-54.4872
 20
18.5539
 11
-53.8367
 21
18.5949
  0
LINE
  8
0
 10
-53.8367
 20
18.5949
 11
-53.1965
 21
18.4727
  0
LINE
  8
0
 10
-53.1965
 20
18.4727
 11
-52.6068
 21
18.1953
  0
LINE
  8
0
 10
-52.6068
 20
18.1953
 11
-52.1047
 21
17.7798
  0
LINE
  8
0
 10
-52.1047
 20
17.7798
 11
-51.7216
 21
17.2525
  0
LINE
  8
0
 10
-51.7216
 20
17.2525
 11
-51.4817
 21
16.6466
  0
LINE
  8
0
 10
-51.4817
 20
16.6466
 11
-51.4
 21
16
  0
LINE
  8
0
 10
-51.4
 20
16
 11
-51.4817
 21
15.3534
  0
LINE
  8
0
 10
-51.4817
 20
15.3534
 11
-51.7216
 21
14.7474
  0
LINE
  8
0
 10
-51.7216
 20
14.7474
 11
-52.1047
 21
14.2202
  0
LINE
  8
0
 10
-52.1047
 20
14.2202
 11
-52.6068
 21
13.8047
  0
LINE
  8
0
 10
-52.6068
 20
13.8047
 11
-53.1965
 21
13.5273
  0
LINE
  8
0
 10
-53.1965
 20
13.5273
 11
-53.8367
 21
13.4051
  0
LINE
  8
0
 10
-53.8367
 20
13.4051
 11
-54.4872
 21
13.446
  0
LINE
  8
0
 10
-90.4872
 20
13.446
 11
-91.107
 21
13.6474
  0
LINE
  8
0
 10
-91.107
 20
13.6474
 11
-91.6573
 21
13.9967
  0
LINE
  8
0
 10
-91.6573
 20
13.9967
 11
-92.1034
 21
14.4718
  0
LINE
  8
0
 10
-92.1034
 20
14.4718
 11
-92.4174
 21
15.0429
  0
LINE
  8
0
 10
-92.4174
 20
15.0429
 11
-92.5795
 21
15.6741
  0
LINE
  8
0
 10
-92.5795
 20
15.6741
 11
-92.5795
 21
16.3259
  0
LINE
  8
0
 10
-92.5795
 20
16.3259
 11
-92.4174
 21
16.9571
  0
LINE
  8
0
 10
-92.4174
 20
16.9571
 11
-92.1034
 21
17.5282
  0
LINE
  8
0
 10
-92.1034
 20
17.5282
 11
-91.6573
 21
18.0033
  0
LINE
  8
0
 10
-91.6573
 20
18.0033
 11
-91.107
 21
18.3525
  0
LINE
  8
0
 10
-91.107
 20
18.3525
 11
-90.4872
 21
18.5539
  0
LINE
  8
0
 10
-90.4872
 20
18.5539
 11
-89.8367
 21
18.5949
  0
LINE
  8
0
 10
-89.8367
 20
18.5949
 11
-89.1965
 21
18.4727
  0
LINE
  8
0
 10
-89.1965
 20
18.4727
 11
-88.6068
 21
18.1953
  0
LINE
  8
0
 10
-88.6068
 20
18.1953
 11
-88.1047
 21
17.7798
  0
LINE
  8
0
 10
-88.1047
 20
17.7798
 11
-87.7216
 21
17.2525
  0
LINE
  8
0
 10
-87.7216
 20
17.2525
 11
-87.4817
 21
16.6466
  0
LINE
  8
0
 10
-87.4817
 20
16.6466
 11
-87.4
 21
16
  0
LINE
  8
0
 10
-87.4
 20
16
 11
-87.4817
 21
15.3534
  0
LINE
  8
0
 10
-87.4817
 20
15.3534
 11
-87.7216
 21
14.7474
  0
LINE
  8
0
 10
-87.7216
 20
14.7474
 11
-88.1047
 21
14.2202
  0
LINE
  8
0
 10
-88.1047
 20
14.2202
 11
-88.6068
 21
13.8047
  0
LINE
  8
0
 10
-88.6068
 20
13.8047
 11
-89.1965
 21
13.5273
  0
LINE
  8
0
 10
-89.1965
 20
13.5273
 11
-89.8367
 21
13.4051
  0
LINE
  8
0
 10
-89.8367
 20
13.4051
 11
-90.4872
 21
13.446
  0
LINE
  8
0
 10
-90.4872
 20
-18.5539
 11
-91.107
 21
-18.3525
  0
LINE
  8
0
 10
-91.107
 20
-18.3525
 11
-91.6573
 21
-18.0033
  0
LINE
  8
0
 10
-91.6573
 20
-18.0033
 11
-92.1034
 21
-17.5282
  0
LINE
  8
0
 10
-92.1034
 20
-17.5282
 11
-92.4174
 21
-16.9571
  0
LINE
  8
0
 10
-92.4174
 20
-16.9571
 11
-92.5795
 21
-16.3259
  0
LINE
  8
0
 10
-92.5795
 20
-16.3259
 11
-92.5795
 21
-15.6741
  0
LINE
  8
0
 10
-92.5795
 20
-15.6741
 11
-92.4174
 21
-15.0429
  0
LINE
  8
0
 10
-92.4174
 20
-15.0429
 11
-92.1034
 21
-14.4718
  0
LINE
  8
0
 10
-92.1034
 20
-14.4718
 11
-91.6573
 21
-13.9967
  0
LINE
  8
0
 10
-91.6573
 20
-13.9967
 11
-91.107
 21
-13.6474
  0
LINE
  8
0
 10
-91.107
 20
-13.6474
 11
-90.4872
 21
-13.446
  0
LINE
  8
0
 10
-90.4872
 20
-13.446
 11
-89.8367
 21
-13.4051
  0
LINE
  8
0
 10
-89.8367
 20
-13.4051
 11
-89.1965
 21
-13.5273
  0
LINE
  8
0
 10
-89.1965
 20
-13.5273
 11
-88.6068
 21
-13.8047
  0
LINE
  8
0
 10
-88.6068
 20
-13.8047
 11
-88.1047
 21
-14.2202
  0
LINE
  8
0
 10
-88.1047
 20
-14.2202
 11
-87.7216
 21
-14.7474
  0
LINE
  8
0
 10
-87.7216
 20
-14.7474
 11
-87.4817
 21
-15.3534
  0
LINE
  8
0
 10
-87.4817
 20
-15.3534
 11
-87.4
 21
-16
  0
LINE
  8
0
 10
-87.4
 20
-16
 11
-87.4817
 21
-16.6466
  0
LINE
  8
0
 10
-87.4817
 20
-16.6466
 11
-87.7216
 21
-17.2525
  0
LINE
  8
0
 10
-87.7216
 20
-17.2525
 11
-88.1047
 21
-17.7798
  0
LINE
  8
0
 10
-88.1047
 20
-17.7798
 11
-88.6068
 21
-18.1953
  0
LINE
  8
0
 10
-88.6068
 20
-18.1953
 11
-89.1965
 21
-18.4727
  0
LINE
  8
0
 10
-89.1965
 20
-18.4727
 11
-89.8367
 21
-18.5949
  0
LINE
  8
0
 10
-89.8367
 20
-18.5949
 11
-90.4872
 21
-18.5539
  0
LINE
  8
0
 10
-54.4872
 20
-18.5539
 11
-55.107
 21
-18.3525
  0
LINE
  8
0
 10
-55.107
 20
-18.3525
 11
-55.6573
 21
-18.0033
  0
LINE
  8
0
 10
-55.6573
 20
-18.0033
 11
-56.1034
 21
-17.5282
  0
LINE
  8
0
 10
-56.1034
 20
-17.5282
 11
-56.4174
 21
-16.9571
  0
LINE
  8
0
 10
-56.4174
 20
-16.9571
 11
-56.5795
 21
-16.3259
  0
LINE
  8
0
 10
-56.5795
 20
-16.3259
 11
-56.5795
 21
-15.6741
  0
LINE
  8
0
 10
-56.5795
 20
-15.6741
 11
-56.4174
 21
-15.0429
  0
LINE
  8
0
 10
-56.4174
 20
-15.0429
 11
-56.1034
 21
-14.4718
  0
LINE
  8
0
 10
-56.1034
 20
-14.4718
 11
-55.6573
 21
-13.9967
  0
LINE
  8
0
 10
-55.6573
 20
-13.9967
 11
-55.107
 21
-13.6474
  0
LINE
  8
0
 10
-55.107
 20
-13.6474
 11
-54.4872
 21
-13.446
  0
LINE
  8
0
 10
-54.4872
 20
-13.446
 11
-53.8367
 21
-13.4051
  0
LINE
  8
0
 10
-53.8367
 20
-13.4051
 11
-53.1965
 21
-13.5273
  0
LINE
  8
0
 10
-53.1965
 20
-13.5273
 11
-52.6068
 21
-13.8047
  0
LINE
  8
0
 10
-52.6068
 20
-13.8047
 11
-52.1047
 21
-14.2202
  0
LINE
  8
0
 10
-52.1047
 20
-14.2202
 11
-51.7216
 21
-14.7474
  0
LINE
  8
0
 10
-51.7216
 20
-14.7474
 11
-51.4817
 21
-15.3534
  0
LINE
  8
0
 10
-51.4817
 20
-15.3534
 11
-51.4
 21
-16
  0
LINE
  8
0
 10
-51.4
 20
-16
 11
-51.4817
 21
-16.6466
  0
LINE
  8
0
 10
-51.4817
 20
-16.6466
 11
-51.7216
 21
-17.2525
  0
LINE
  8
0
 10
-51.7216
 20
-17.2525
 11
-52.1047
 21
-17.7798
  0
LINE
  8
0
 10
-52.1047
 20
-17.7798
 11
-52.6068
 21
-18.1953
  0
LINE
  8
0
 10
-52.6068
 20
-18.1953
 11
-53.1965
 21
-18.4727
  0
LINE
  8
0
 10
-53.1965
 20
-18.4727
 11
-53.8367
 21
-18.5949
  0
LINE
  8
0
 10
-53.8367
 20
-18.5949
 11
-54.4872
 21
-18.5539
  0
LINE
  8
0
 10
89.5128
 20
-18.5539
 11
88.893
 21
-18.3525
  0
LINE
  8
0
 10
88.893
 20
-18.3525
 11
88.3427
 21
-18.0033
  0
LINE
  8
0
 10
88.3427
 20
-18.0033
 11
87.8965
 21
-17.5282
  0
LINE
  8
0
 10
87.8965
 20
-17.5282
 11
87.5826
 21
-16.9571
  0
LINE
  8
0
 10
87.5826
 20
-16.9571
 11
87.4205
 21
-16.3259
  0
LINE
  8
0
 10
87.4205
 20
-16.3259
 11
87.4205
 21
-15.6741
  0
LINE
  8
0
 10
87.4205
 20
-15.6741
 11
87.5826
 21
-15.0429
  0
LINE
  8
0
 10
87.5826
 20
-15.0429
 11
87.8965
 21
-14.4718
  0
LINE
  8
0
 10
87.8965
 20
-14.4718
 11
88.3427
 21
-13.9967
  0
LINE
  8
0
 10
88.3427
 20
-13.9967
 11
88.893
 21
-13.6474
  0
LINE
  8
0
 10
88.893
 20
-13.6474
 11
89.5128
 21
-13.446
  0
LINE
  8
0
 10
89.5128
 20
-13.446
 11
90.1633
 21
-13.4051
  0
LINE
  8
0
 10
90.1633
 20
-13.4051
 11
90.8034
 21
-13.5273
  0
LINE
  8
0
 10
90.8034
 20
-13.5273
 11
91.3931
 21
-13.8047
  0
LINE
  8
0
 10
91.3931
 20
-13.8047
 11
91.8953
 21
-14.2202
  0
LINE
  8
0
 10
91.8953
 20
-14.2202
 11
92.2784
 21
-14.7474
  0
LINE
  8
0
 10
92.2784
 20
-14.7474
 11
92.5183
 21
-15.3534
  0
LINE
  8
0
 10
92.5183
 20
-15.3534
 11
92.6
 21
-16
  0
LINE
  8
0
 10
92.6
 20
-16
 11
92.5183
 21
-16.6466
  0
LINE
  8
0
 10
92.5183
 20
-16.6466
 11
92.2784
 21
-17.2525
  0
LINE
  8
0
 10
92.2784
 20
-17.2525
 11
91.8953
 21
-17.7798
  0
LINE
  8
0
 10
91.8953
 20
-17.7798
 11
91.3931
 21
-18.1953
  0
LINE
  8
0
 10
91.3931
 20
-18.1953
 11
90.8034
 21
-18.4727
  0
LINE
  8
0
 10
90.8034
 20
-18.4727
 11
90.1633
 21
-18.5949
  0
LINE
  8
0
 10
90.1633
 20
-18.5949
 11
89.5128
 21
-18.5539
  0
LINE
  8
0
 10
53.5128
 20
-18.5539
 11
52.893
 21
-18.3525
  0
LINE
  8
0
 10
52.893
 20
-18.3525
 11
52.3427
 21
-18.0033
  0
LINE
  8
0
 10
52.3427
 20
-18.0033
 11
51.8965
 21
-17.5282
  0
LINE
  8
0
 10
51.8965
 20
-17.5282
 11
51.5826
 21
-16.9571
  0
LINE
  8
0
 10
51.5826
 20
-16.9571
 11
51.4205
 21
-16.3259
  0
LINE
  8
0
 10
51.4205
 20
-16.3259
 11
51.4205
 21
-15.6741
  0
LINE
  8
0
 10
51.4205
 20
-15.6741
 11
51.5826
 21
-15.0429
  0
LINE
  8
0
 10
51.5826
 20
-15.0429
 11
51.8965
 21
-14.4718
  0
LINE
  8
0
 10
51.8965
 20
-14.4718
 11
52.3427
 21
-13.9967
  0
LINE
  8
0
 10
52.3427
 20
-13.9967
 11
52.893
 21
-13.6474
  0
LINE
  8
0
 10
52.893
 20
-13.6474
 11
53.5128
 21
-13.446
  0
LINE
  8
0
 10
53.5128
 20
-13.446
 11
54.1633
 21
-13.4051
  0
LINE
  8
0
 10
54.1633
 20
-13.4051
 11
54.8034
 21
-13.5273
  0
LINE
  8
0
 10
54.8034
 20
-13.5273
 11
55.3931
 21
-13.8047
  0
LINE
  8
0
 10
55.3931
 20
-13.8047
 11
55.8953
 21
-14.2202
  0
LINE
  8
0
 10
55.8953
 20
-14.2202
 11
56.2784
 21
-14.7474
  0
LINE
  8
0
 10
56.2784
 20
-14.7474
 11
56.5183
 21
-15.3534
  0
LINE
  8
0
 10
56.5183
 20
-15.3534
 11
56.6
 21
-16
  0
LINE
  8
0
 10
56.6
 20
-16
 11
56.5183
 21
-16.6466
  0
LINE
  8
0
 10
56.5183
 20
-16.6466
 11
56.2784
 21
-17.2525
  0
LINE
  8
0
 10
56.2784
 20
-17.2525
 11
55.8953
 21
-17.7798
  0
LINE
  8
0
 10
55.8953
 20
-17.7798
 11
55.3931
 21
-18.1953
  0
LINE
  8
0
 10
55.3931
 20
-18.1953
 11
54.8034
 21
-18.4727
  0
LINE
  8
0
 10
54.8034
 20
-18.4727
 11
54.1633
 21
-18.5949
  0
LINE
  8
0
 10
54.1633
 20
-18.5949
 11
53.5128
 21
-18.5539
  0
LINE
  8
0
 10
-12.4872
 20
-41.5539
 11
-13.107
 21
-41.3525
  0
LINE
  8
0
 10
-13.107
 20
-41.3525
 11
-13.6573
 21
-41.0033
  0
LINE
  8
0
 10
-13.6573
 20
-41.0033
 11
-14.1034
 21
-40.5282
  0
LINE
  8
0
 10
-14.1034
 20
-40.5282
 11
-14.4174
 21
-39.9571
  0
LINE
  8
0
 10
-14.4174
 20
-39.9571
 11
-14.5795
 21
-39.3259
  0
LINE
  8
0
 10
-14.5795
 20
-39.3259
 11
-14.5795
 21
-38.6741
  0
LINE
  8
0
 10
-14.5795
 20
-38.6741
 11
-14.4174
 21
-38.0429
  0
LINE
  8
0
 10
-14.4174
 20
-38.0429
 11
-14.1034
 21
-37.4718
  0
LINE
  8
0
 10
-14.1034
 20
-37.4718
 11
-13.6573
 21
-36.9967
  0
LINE
  8
0
 10
-13.6573
 20
-36.9967
 11
-13.107
 21
-36.6474
  0
LINE
  8
0
 10
-13.107
 20
-36.6474
 11
-12.4872
 21
-36.446
  0
LINE
  8
0
 10
-12.4872
 20
-36.446
 11
-11.8367
 21
-36.4051
  0
LINE
  8
0
 10
-11.8367
 20
-36.4051
 11
-11.1965
 21
-36.5273
  0
LINE
  8
0
 10
-11.1965
 20
-36.5273
 11
-10.6068
 21
-36.8047
  0
LINE
  8
0
 10
-10.6068
 20
-36.8047
 11
-10.1047
 21
-37.2202
  0
LINE
  8
0
 10
-10.1047
 20
-37.2202
 11
-9.72159
 21
-37.7474
  0
LINE
  8
0
 10
-9.72159
 20
-37.7474
 11
-9.48167
 21
-38.3534
  0
LINE
  8
0
 10
-9.48167
 20
-38.3534
 11
-9.39999
 21
-39
  0
LINE
  8
0
 10
-9.39999
 20
-39
 11
-9.48167
 21
-39.6466
  0
LINE
  8
0
 10
-9.48167
 20
-39.6466
 11
-9.72159
 21
-40.2525
  0
LINE
  8
0
 10
-9.72159
 20
-40.2525
 11
-10.1047
 21
-40.7798
  0
LINE
  8
0
 10
-10.1047
 20
-40.7798
 11
-10.6068
 21
-41.1953
  0
LINE
  8
0
 10
-10.6068
 20
-41.1953
 11
-11.1965
 21
-41.4727
  0
LINE
  8
0
 10
-11.1965
 20
-41.4727
 11
-11.8367
 21
-41.5949
  0
LINE
  8
0
 10
-11.8367
 20
-41.5949
 11
-12.4872
 21
-41.5539
  0
LINE
  8
0
 10
11.5128
 20
-41.5539
 11
10.893
 21
-41.3525
  0
LINE
  8
0
 10
10.893
 20
-41.3525
 11
10.3427
 21
-41.0033
  0
LINE
  8
0
 10
10.3427
 20
-41.0033
 11
9.89655
 21
-40.5282
  0
LINE
  8
0
 10
9.89655
 20
-40.5282
 11
9.58258
 21
-39.9571
  0
LINE
  8
0
 10
9.58258
 20
-39.9571
 11
9.4205
 21
-39.3259
  0
LINE
  8
0
 10
9.4205
 20
-39.3259
 11
9.4205
 21
-38.6741
  0
LINE
  8
0
 10
9.4205
 20
-38.6741
 11
9.58258
 21
-38.0429
  0
LINE
  8
0
 10
9.58258
 20
-38.0429
 11
9.89655
 21
-37.4718
  0
LINE
  8
0
 10
9.89655
 20
-37.4718
 11
10.3427
 21
-36.9967
  0
LINE
  8
0
 10
10.3427
 20
-36.9967
 11
10.893
 21
-36.6474
  0
LINE
  8
0
 10
10.893
 20
-36.6474
 11
11.5128
 21
-36.446
  0
LINE
  8
0
 10
11.5128
 20
-36.446
 11
12.1633
 21
-36.4051
  0
LINE
  8
0
 10
12.1633
 20
-36.4051
 11
12.8034
 21
-36.5273
  0
LINE
  8
0
 10
12.8034
 20
-36.5273
 11
13.3931
 21
-36.8047
  0
LINE
  8
0
 10
13.3931
 20
-36.8047
 11
13.8953
 21
-37.2202
  0
LINE
  8
0
 10
13.8953
 20
-37.2202
 11
14.2784
 21
-37.7474
  0
LINE
  8
0
 10
14.2784
 20
-37.7474
 11
14.5183
 21
-38.3534
  0
LINE
  8
0
 10
14.5183
 20
-38.3534
 11
14.6
 21
-39
  0
LINE
  8
0
 10
14.6
 20
-39
 11
14.5183
 21
-39.6466
  0
LINE
  8
0
 10
14.5183
 20
-39.6466
 11
14.2784
 21
-40.2525
  0
LINE
  8
0
 10
14.2784
 20
-40.2525
 11
13.8953
 21
-40.7798
  0
LINE
  8
0
 10
13.8953
 20
-40.7798
 11
13.3931
 21
-41.1953
  0
LINE
  8
0
 10
13.3931
 20
-41.1953
 11
12.8034
 21
-41.4727
  0
LINE
  8
0
 10
12.8034
 20
-41.4727
 11
12.1633
 21
-41.5949
  0
LINE
  8
0
 10
12.1633
 20
-41.5949
 11
11.5128
 21
-41.5539
  0
LINE
  8
0
 10
-12.4872
 20
-81.5539
 11
-13.107
 21
-81.3525
  0
LINE
  8
0
 10
-13.107
 20
-81.3525
 11
-13.6573
 21
-81.0033
  0
LINE
  8
0
 10
-13.6573
 20
-81.0033
 11
-14.1034
 21
-80.5282
  0
LINE
  8
0
 10
-14.1034
 20
-80.5282
 11
-14.4174
 21
-79.9571
  0
LINE
  8
0
 10
-14.4174
 20
-79.9571
 11
-14.5795
 21
-79.3259
  0
LINE
  8
0
 10
-14.5795
 20
-79.3259
 11
-14.5795
 21
-78.6741
  0
LINE
  8
0
 10
-14.5795
 20
-78.6741
 11
-14.4174
 21
-78.0429
  0
LINE
  8
0
 10
-14.4174
 20
-78.0429
 11
-14.1034
 21
-77.4718
  0
LINE
  8
0
 10
-14.1034
 20
-77.4718
 11
-13.6573
 21
-76.9967
  0
LINE
  8
0
 10
-13.6573
 20
-76.9967
 11
-13.107
 21
-76.6474
  0
LINE
  8
0
 10
-13.107
 20
-76.6474
 11
-12.4872
 21
-76.446
  0
LINE
  8
0
 10
-12.4872
 20
-76.446
 11
-11.8367
 21
-76.4051
  0
LINE
  8
0
 10
-11.8367
 20
-76.4051
 11
-11.1965
 21
-76.5273
  0
LINE
  8
0
 10
-11.1965
 20
-76.5273
 11
-10.6068
 21
-76.8047
  0
LINE
  8
0
 10
-10.6068
 20
-76.8047
 11
-10.1047
 21
-77.2202
  0
LINE
  8
0
 10
-10.1047
 20
-77.2202
 11
-9.72159
 21
-77.7474
  0
LINE
  8
0
 10
-9.72159
 20
-77.7474
 11
-9.48167
 21
-78.3534
  0
LINE
  8
0
 10
-9.48167
 20
-78.3534
 11
-9.39999
 21
-79
  0
LINE
  8
0
 10
-9.39999
 20
-79
 11
-9.48167
 21
-79.6466
  0
LINE
  8
0
 10
-9.48167
 20
-79.6466
 11
-9.72159
 21
-80.2525
  0
LINE
  8
0
 10
-9.72159
 20
-80.2525
 11
-10.1047
 21
-80.7798
  0
LINE
  8
0
 10
-10.1047
 20
-80.7798
 11
-10.6068
 21
-81.1953
  0
LINE
  8
0
 10
-10.6068
 20
-81.1953
 11
-11.1965
 21
-81.4727
  0
LINE
  8
0
 10
-11.1965
 20
-81.4727
 11
-11.8367
 21
-81.5949
  0
LINE
  8
0
 10
-11.8367
 20
-81.5949
 11
-12.4872
 21
-81.5539
  0
LINE
  8
0
 10
11.5128
 20
-81.5539
 11
10.893
 21
-81.3525
  0
LINE
  8
0
 10
10.893
 20
-81.3525
 11
10.3427
 21
-81.0033
  0
LINE
  8
0
 10
10.3427
 20
-81.0033
 11
9.89655
 21
-80.5282
  0
LINE
  8
0
 10
9.89655
 20
-80.5282
 11
9.58258
 21
-79.9571
  0
LINE
  8
0
 10
9.58258
 20
-79.9571
 11
9.4205
 21
-79.3259
  0
LINE
  8
0
 10
9.4205
 20
-79.3259
 11
9.4205
 21
-78.6741
  0
LINE
  8
0
 10
9.4205
 20
-78.6741
 11
9.58258
 21
-78.0429
  0
LINE
  8
0
 10
9.58258
 20
-78.0429
 11
9.89655
 21
-77.4718
  0
LINE
  8
0
 10
9.89655
 20
-77.4718
 11
10.3427
 21
-76.9967
  0
LINE
  8
0
 10
10.3427
 20
-76.9967
 11
10.893
 21
-76.6474
  0
LINE
  8
0
 10
10.893
 20
-76.6474
 11
11.5128
 21
-76.446
  0
LINE
  8
0
 10
11.5128
 20
-76.446
 11
12.1633
 21
-76.4051
  0
LINE
  8
0
 10
12.1633
 20
-76.4051
 11
12.8034
 21
-76.5273
  0
LINE
  8
0
 10
12.8034
 20
-76.5273
 11
13.3931
 21
-76.8047
  0
LINE
  8
0
 10
13.3931
 20
-76.8047
 11
13.8953
 21
-77.2202
  0
LINE
  8
0
 10
13.8953
 20
-77.2202
 11
14.2784
 21
-77.7474
  0
LINE
  8
0
 10
14.2784
 20
-77.7474
 11
14.5183
 21
-78.3534
  0
LINE
  8
0
 10
14.5183
 20
-78.3534
 11
14.6
 21
-79
  0
LINE
  8
0
 10
14.6
 20
-79
 11
14.5183
 21
-79.6466
  0
LINE
  8
0
 10
14.5183
 20
-79.6466
 11
14.2784
 21
-80.2525
  0
LINE
  8
0
 10
14.2784
 20
-80.2525
 11
13.8953
 21
-80.7798
  0
LINE
  8
0
 10
13.8953
 20
-80.7798
 11
13.3931
 21
-81.1953
  0
LINE
  8
0
 10
13.3931
 20
-81.1953
 11
12.8034
 21
-81.4727
  0
LINE
  8
0
 10
12.8034
 20
-81.4727
 11
12.1633
 21
-81.5949
  0
LINE
  8
0
 10
12.1633
 20
-81.5949
 11
11.5128
 21
-81.5539
  0
ENDSEC
  0
SECTION
  2
OBJECTS
  0
DICTIONARY
  0
ENDSEC
  0
EOF
