  0
SECTION
  2
BLOCKS
  0
ENDSEC
  0
SECTION
  2
ENTITIES
  0
LINE
  8
0
 10
57.3136
 20
-119.984
 11
57.6237
 21
-119.934
  0
LINE
  8
0
 10
57.6237
 20
-119.934
 11
57.927
 21
-119.853
  0
LINE
  8
0
 10
57.927
 20
-119.853
 11
58.2202
 21
-119.741
  0
LINE
  8
0
 10
58.2202
 20
-119.741
 11
58.5
 21
-119.598
  0
LINE
  8
0
 10
58.5
 20
-119.598
 11
58.7634
 21
-119.427
  0
LINE
  8
0
 10
58.7634
 20
-119.427
 11
59.0074
 21
-119.229
  0
LINE
  8
0
 10
59.0074
 20
-119.229
 11
59.2294
 21
-119.007
  0
LINE
  8
0
 10
59.2294
 20
-119.007
 11
59.427
 21
-118.763
  0
LINE
  8
0
 10
59.427
 20
-118.763
 11
59.5981
 21
-118.5
  0
LINE
  8
0
 10
59.5981
 20
-118.5
 11
59.7406
 21
-118.22
  0
LINE
  8
0
 10
59.7406
 20
-118.22
 11
59.8532
 21
-117.927
  0
LINE
  8
0
 10
59.8532
 20
-117.927
 11
59.9344
 21
-117.624
  0
LINE
  8
0
 10
59.9344
 20
-117.624
 11
59.9836
 21
-117.314
  0
LINE
  8
0
 10
59.9836
 20
-117.314
 11
60
 21
-117
  0
LINE
  8
0
 10
60
 20
-117
 11
60
 21
117
  0
LINE
  8
0
 10
60
 20
117
 11
59.9836
 21
117.314
  0
LINE
  8
0
 10
59.9836
 20
117.314
 11
59.9344
 21
117.624
  0
LINE
  8
0
 10
59.9344
 20
117.624
 11
59.8532
 21
117.927
  0
LINE
  8
0
 10
59.8532
 20
117.927
 11
59.7406
 21
118.22
  0
LINE
  8
0
 10
59.7406
 20
118.22
 11
59.5981
 21
118.5
  0
LINE
  8
0
 10
59.5981
 20
118.5
 11
59.427
 21
118.763
  0
LINE
  8
0
 10
59.427
 20
118.763
 11
59.2294
 21
119.007
  0
LINE
  8
0
 10
59.2294
 20
119.007
 11
59.0074
 21
119.229
  0
LINE
  8
0
 10
59.0074
 20
119.229
 11
58.7634
 21
119.427
  0
LINE
  8
0
 10
58.7634
 20
119.427
 11
58.5
 21
119.598
  0
LINE
  8
0
 10
58.5
 20
119.598
 11
58.2202
 21
119.741
  0
LINE
  8
0
 10
58.2202
 20
119.741
 11
57.927
 21
119.853
  0
LINE
  8
0
 10
57.927
 20
119.853
 11
57.6237
 21
119.934
  0
LINE
  8
0
 10
57.6237
 20
119.934
 11
57.3136
 21
119.984
  0
LINE
  8
0
 10
57.3136
 20
119.984
 11
57
 21
120
  0
LINE
  8
0
 10
57
 20
120
 11
-57
 21
120
  0
LINE
  8
0
 10
-57
 20
120
 11
-57.3136
 21
119.984
  0
LINE
  8
0
 10
-57.3136
 20
119.984
 11
-57.6237
 21
119.934
  0
LINE
  8
0
 10
-57.6237
 20
119.934
 11
-57.927
 21
119.853
  0
LINE
  8
0
 10
-57.927
 20
119.853
 11
-58.2202
 21
119.741
  0
LINE
  8
0
 10
-58.2202
 20
119.741
 11
-58.5
 21
119.598
  0
LINE
  8
0
 10
-58.5
 20
119.598
 11
-58.7634
 21
119.427
  0
LINE
  8
0
 10
-58.7634
 20
119.427
 11
-59.0074
 21
119.229
  0
LINE
  8
0
 10
-59.0074
 20
119.229
 11
-59.2294
 21
119.007
  0
LINE
  8
0
 10
-59.2294
 20
119.007
 11
-59.427
 21
118.763
  0
LINE
  8
0
 10
-59.427
 20
118.763
 11
-59.5981
 21
118.5
  0
LINE
  8
0
 10
-59.5981
 20
118.5
 11
-59.7406
 21
118.22
  0
LINE
  8
0
 10
-59.7406
 20
118.22
 11
-59.8532
 21
117.927
  0
LINE
  8
0
 10
-59.8532
 20
117.927
 11
-59.9344
 21
117.624
  0
LINE
  8
0
 10
-59.9344
 20
117.624
 11
-59.9836
 21
117.314
  0
LINE
  8
0
 10
-59.9836
 20
117.314
 11
-60
 21
117
  0
LINE
  8
0
 10
-60
 20
117
 11
-60
 21
-117
  0
LINE
  8
0
 10
-60
 20
-117
 11
-59.9836
 21
-117.314
  0
LINE
  8
0
 10
-59.9836
 20
-117.314
 11
-59.9344
 21
-117.624
  0
LINE
  8
0
 10
-59.9344
 20
-117.624
 11
-59.8532
 21
-117.927
  0
LINE
  8
0
 10
-59.8532
 20
-117.927
 11
-59.7406
 21
-118.22
  0
LINE
  8
0
 10
-59.7406
 20
-118.22
 11
-59.5981
 21
-118.5
  0
LINE
  8
0
 10
-59.5981
 20
-118.5
 11
-59.427
 21
-118.763
  0
LINE
  8
0
 10
-59.427
 20
-118.763
 11
-59.2294
 21
-119.007
  0
LINE
  8
0
 10
-59.2294
 20
-119.007
 11
-59.0074
 21
-119.229
  0
LINE
  8
0
 10
-59.0074
 20
-119.229
 11
-58.7634
 21
-119.427
  0
LINE
  8
0
 10
-58.7634
 20
-119.427
 11
-58.5
 21
-119.598
  0
LINE
  8
0
 10
-58.5
 20
-119.598
 11
-58.2202
 21
-119.741
  0
LINE
  8
0
 10
-58.2202
 20
-119.741
 11
-57.927
 21
-119.853
  0
LINE
  8
0
 10
-57.927
 20
-119.853
 11
-57.6237
 21
-119.934
  0
LINE
  8
0
 10
-57.6237
 20
-119.934
 11
-57.3136
 21
-119.984
  0
LINE
  8
0
 10
-57.3136
 20
-119.984
 11
-57
 21
-120
  0
LINE
  8
0
 10
-57
 20
-120
 11
57
 21
-120
  0
LINE
  8
0
 10
57
 20
-120
 11
57.3136
 21
-119.984
  0
LINE
  8
0
 10
53.3165
 20
102.911
 11
53.076
 21
102.957
  0
LINE
  8
0
 10
53.076
 20
102.957
 11
52.8455
 21
103.04
  0
LINE
  8
0
 10
52.8455
 20
103.04
 11
52.6303
 21
103.157
  0
LINE
  8
0
 10
52.6303
 20
103.157
 11
52.4355
 21
103.306
  0
LINE
  8
0
 10
52.4355
 20
103.306
 11
52.2656
 21
103.482
  0
LINE
  8
0
 10
52.2656
 20
103.482
 11
52.1247
 21
103.682
  0
LINE
  8
0
 10
52.1247
 20
103.682
 11
52.016
 21
103.902
  0
LINE
  8
0
 10
52.016
 20
103.902
 11
51.9421
 21
104.135
  0
LINE
  8
0
 10
51.9421
 20
104.135
 11
51.9047
 21
104.378
  0
LINE
  8
0
 10
51.9047
 20
104.378
 11
51.9047
 21
104.622
  0
LINE
  8
0
 10
51.9047
 20
104.622
 11
51.9421
 21
104.865
  0
LINE
  8
0
 10
51.9421
 20
104.865
 11
52.016
 21
105.098
  0
LINE
  8
0
 10
52.016
 20
105.098
 11
52.1247
 21
105.318
  0
LINE
  8
0
 10
52.1247
 20
105.318
 11
52.2656
 21
105.518
  0
LINE
  8
0
 10
52.2656
 20
105.518
 11
52.4355
 21
105.694
  0
LINE
  8
0
 10
52.4355
 20
105.694
 11
52.6303
 21
105.843
  0
LINE
  8
0
 10
52.6303
 20
105.843
 11
52.8455
 21
105.96
  0
LINE
  8
0
 10
52.8455
 20
105.96
 11
53.076
 21
106.043
  0
LINE
  8
0
 10
53.076
 20
106.043
 11
53.3165
 21
106.089
  0
LINE
  8
0
 10
53.3165
 20
106.089
 11
53.5613
 21
106.099
  0
LINE
  8
0
 10
53.5613
 20
106.099
 11
53.8046
 21
106.071
  0
LINE
  8
0
 10
53.8046
 20
106.071
 11
54.0408
 21
106.006
  0
LINE
  8
0
 10
54.0408
 20
106.006
 11
54.2643
 21
105.906
  0
LINE
  8
0
 10
54.2643
 20
105.906
 11
54.47
 21
105.772
  0
LINE
  8
0
 10
54.47
 20
105.772
 11
54.6528
 21
105.609
  0
LINE
  8
0
 10
54.6528
 20
105.609
 11
54.8087
 21
105.421
  0
LINE
  8
0
 10
54.8087
 20
105.421
 11
54.9339
 21
105.21
  0
LINE
  8
0
 10
54.9339
 20
105.21
 11
55.0254
 21
104.983
  0
LINE
  8
0
 10
55.0254
 20
104.983
 11
55.0812
 21
104.744
  0
LINE
  8
0
 10
55.0812
 20
104.744
 11
55.1
 21
104.5
  0
LINE
  8
0
 10
55.1
 20
104.5
 11
55.0812
 21
104.256
  0
LINE
  8
0
 10
55.0812
 20
104.256
 11
55.0254
 21
104.017
  0
LINE
  8
0
 10
55.0254
 20
104.017
 11
54.9339
 21
103.79
  0
LINE
  8
0
 10
54.9339
 20
103.79
 11
54.8087
 21
103.579
  0
LINE
  8
0
 10
54.8087
 20
103.579
 11
54.6528
 21
103.391
  0
LINE
  8
0
 10
54.6528
 20
103.391
 11
54.47
 21
103.228
  0
LINE
  8
0
 10
54.47
 20
103.228
 11
54.2643
 21
103.094
  0
LINE
  8
0
 10
54.2643
 20
103.094
 11
54.0408
 21
102.994
  0
LINE
  8
0
 10
54.0408
 20
102.994
 11
53.8046
 21
102.929
  0
LINE
  8
0
 10
53.8046
 20
102.929
 11
53.5613
 21
102.901
  0
LINE
  8
0
 10
53.5613
 20
102.901
 11
53.3165
 21
102.911
  0
LINE
  8
0
 10
22.3165
 20
102.911
 11
22.076
 21
102.957
  0
LINE
  8
0
 10
22.076
 20
102.957
 11
21.8455
 21
103.04
  0
LINE
  8
0
 10
21.8455
 20
103.04
 11
21.6303
 21
103.157
  0
LINE
  8
0
 10
21.6303
 20
103.157
 11
21.4355
 21
103.306
  0
LINE
  8
0
 10
21.4355
 20
103.306
 11
21.2656
 21
103.482
  0
LINE
  8
0
 10
21.2656
 20
103.482
 11
21.1247
 21
103.682
  0
LINE
  8
0
 10
21.1247
 20
103.682
 11
21.016
 21
103.902
  0
LINE
  8
0
 10
21.016
 20
103.902
 11
20.9421
 21
104.135
  0
LINE
  8
0
 10
20.9421
 20
104.135
 11
20.9047
 21
104.378
  0
LINE
  8
0
 10
20.9047
 20
104.378
 11
20.9047
 21
104.622
  0
LINE
  8
0
 10
20.9047
 20
104.622
 11
20.9421
 21
104.865
  0
LINE
  8
0
 10
20.9421
 20
104.865
 11
21.016
 21
105.098
  0
LINE
  8
0
 10
21.016
 20
105.098
 11
21.1247
 21
105.318
  0
LINE
  8
0
 10
21.1247
 20
105.318
 11
21.2656
 21
105.518
  0
LINE
  8
0
 10
21.2656
 20
105.518
 11
21.4355
 21
105.694
  0
LINE
  8
0
 10
21.4355
 20
105.694
 11
21.6303
 21
105.843
  0
LINE
  8
0
 10
21.6303
 20
105.843
 11
21.8455
 21
105.96
  0
LINE
  8
0
 10
21.8455
 20
105.96
 11
22.076
 21
106.043
  0
LINE
  8
0
 10
22.076
 20
106.043
 11
22.3165
 21
106.089
  0
LINE
  8
0
 10
22.3165
 20
106.089
 11
22.5613
 21
106.099
  0
LINE
  8
0
 10
22.5613
 20
106.099
 11
22.8046
 21
106.071
  0
LINE
  8
0
 10
22.8046
 20
106.071
 11
23.0408
 21
106.006
  0
LINE
  8
0
 10
23.0408
 20
106.006
 11
23.2644
 21
105.906
  0
LINE
  8
0
 10
23.2644
 20
105.906
 11
23.47
 21
105.772
  0
LINE
  8
0
 10
23.47
 20
105.772
 11
23.6528
 21
105.609
  0
LINE
  8
0
 10
23.6528
 20
105.609
 11
23.8087
 21
105.421
  0
LINE
  8
0
 10
23.8087
 20
105.421
 11
23.9339
 21
105.21
  0
LINE
  8
0
 10
23.9339
 20
105.21
 11
24.0254
 21
104.983
  0
LINE
  8
0
 10
24.0254
 20
104.983
 11
24.0813
 21
104.744
  0
LINE
  8
0
 10
24.0813
 20
104.744
 11
24.1
 21
104.5
  0
LINE
  8
0
 10
24.1
 20
104.5
 11
24.0813
 21
104.256
  0
LINE
  8
0
 10
24.0813
 20
104.256
 11
24.0254
 21
104.017
  0
LINE
  8
0
 10
24.0254
 20
104.017
 11
23.9339
 21
103.79
  0
LINE
  8
0
 10
23.9339
 20
103.79
 11
23.8087
 21
103.579
  0
LINE
  8
0
 10
23.8087
 20
103.579
 11
23.6528
 21
103.391
  0
LINE
  8
0
 10
23.6528
 20
103.391
 11
23.47
 21
103.228
  0
LINE
  8
0
 10
23.47
 20
103.228
 11
23.2644
 21
103.094
  0
LINE
  8
0
 10
23.2644
 20
103.094
 11
23.0408
 21
102.994
  0
LINE
  8
0
 10
23.0408
 20
102.994
 11
22.8046
 21
102.929
  0
LINE
  8
0
 10
22.8046
 20
102.929
 11
22.5613
 21
102.901
  0
LINE
  8
0
 10
22.5613
 20
102.901
 11
22.3165
 21
102.911
  0
LINE
  8
0
 10
-53.6835
 20
102.911
 11
-53.924
 21
102.957
  0
LINE
  8
0
 10
-53.924
 20
102.957
 11
-54.1545
 21
103.04
  0
LINE
  8
0
 10
-54.1545
 20
103.04
 11
-54.3697
 21
103.157
  0
LINE
  8
0
 10
-54.3697
 20
103.157
 11
-54.5645
 21
103.306
  0
LINE
  8
0
 10
-54.5645
 20
103.306
 11
-54.7344
 21
103.482
  0
LINE
  8
0
 10
-54.7344
 20
103.482
 11
-54.8753
 21
103.682
  0
LINE
  8
0
 10
-54.8753
 20
103.682
 11
-54.984
 21
103.902
  0
LINE
  8
0
 10
-54.984
 20
103.902
 11
-55.0579
 21
104.135
  0
LINE
  8
0
 10
-55.0579
 20
104.135
 11
-55.0953
 21
104.378
  0
LINE
  8
0
 10
-55.0953
 20
104.378
 11
-55.0953
 21
104.622
  0
LINE
  8
0
 10
-55.0953
 20
104.622
 11
-55.0579
 21
104.865
  0
LINE
  8
0
 10
-55.0579
 20
104.865
 11
-54.984
 21
105.098
  0
LINE
  8
0
 10
-54.984
 20
105.098
 11
-54.8753
 21
105.318
  0
LINE
  8
0
 10
-54.8753
 20
105.318
 11
-54.7344
 21
105.518
  0
LINE
  8
0
 10
-54.7344
 20
105.518
 11
-54.5645
 21
105.694
  0
LINE
  8
0
 10
-54.5645
 20
105.694
 11
-54.3697
 21
105.843
  0
LINE
  8
0
 10
-54.3697
 20
105.843
 11
-54.1545
 21
105.96
  0
LINE
  8
0
 10
-54.1545
 20
105.96
 11
-53.924
 21
106.043
  0
LINE
  8
0
 10
-53.924
 20
106.043
 11
-53.6835
 21
106.089
  0
LINE
  8
0
 10
-53.6835
 20
106.089
 11
-53.4387
 21
106.099
  0
LINE
  8
0
 10
-53.4387
 20
106.099
 11
-53.1954
 21
106.071
  0
LINE
  8
0
 10
-53.1954
 20
106.071
 11
-52.9592
 21
106.006
  0
LINE
  8
0
 10
-52.9592
 20
106.006
 11
-52.7356
 21
105.906
  0
LINE
  8
0
 10
-52.7356
 20
105.906
 11
-52.53
 21
105.772
  0
LINE
  8
0
 10
-52.53
 20
105.772
 11
-52.3472
 21
105.609
  0
LINE
  8
0
 10
-52.3472
 20
105.609
 11
-52.1913
 21
105.421
  0
LINE
  8
0
 10
-52.1913
 20
105.421
 11
-52.0661
 21
105.21
  0
LINE
  8
0
 10
-52.0661
 20
105.21
 11
-51.9746
 21
104.983
  0
LINE
  8
0
 10
-51.9746
 20
104.983
 11
-51.9187
 21
104.744
  0
LINE
  8
0
 10
-51.9187
 20
104.744
 11
-51.9
 21
104.5
  0
LINE
  8
0
 10
-51.9
 20
104.5
 11
-51.9187
 21
104.256
  0
LINE
  8
0
 10
-51.9187
 20
104.256
 11
-51.9746
 21
104.017
  0
LINE
  8
0
 10
-51.9746
 20
104.017
 11
-52.0661
 21
103.79
  0
LINE
  8
0
 10
-52.0661
 20
103.79
 11
-52.1913
 21
103.579
  0
LINE
  8
0
 10
-52.1913
 20
103.579
 11
-52.3472
 21
103.391
  0
LINE
  8
0
 10
-52.3472
 20
103.391
 11
-52.53
 21
103.228
  0
LINE
  8
0
 10
-52.53
 20
103.228
 11
-52.7356
 21
103.094
  0
LINE
  8
0
 10
-52.7356
 20
103.094
 11
-52.9592
 21
102.994
  0
LINE
  8
0
 10
-52.9592
 20
102.994
 11
-53.1954
 21
102.929
  0
LINE
  8
0
 10
-53.1954
 20
102.929
 11
-53.4387
 21
102.901
  0
LINE
  8
0
 10
-53.4387
 20
102.901
 11
-53.6835
 21
102.911
  0
LINE
  8
0
 10
-22.6835
 20
102.911
 11
-22.924
 21
102.957
  0
LINE
  8
0
 10
-22.924
 20
102.957
 11
-23.1545
 21
103.04
  0
LINE
  8
0
 10
-23.1545
 20
103.04
 11
-23.3697
 21
103.157
  0
LINE
  8
0
 10
-23.3697
 20
103.157
 11
-23.5645
 21
103.306
  0
LINE
  8
0
 10
-23.5645
 20
103.306
 11
-23.7344
 21
103.482
  0
LINE
  8
0
 10
-23.7344
 20
103.482
 11
-23.8753
 21
103.682
  0
LINE
  8
0
 10
-23.8753
 20
103.682
 11
-23.984
 21
103.902
  0
LINE
  8
0
 10
-23.984
 20
103.902
 11
-24.0579
 21
104.135
  0
LINE
  8
0
 10
-24.0579
 20
104.135
 11
-24.0953
 21
104.378
  0
LINE
  8
0
 10
-24.0953
 20
104.378
 11
-24.0953
 21
104.622
  0
LINE
  8
0
 10
-24.0953
 20
104.622
 11
-24.0579
 21
104.865
  0
LINE
  8
0
 10
-24.0579
 20
104.865
 11
-23.984
 21
105.098
  0
LINE
  8
0
 10
-23.984
 20
105.098
 11
-23.8753
 21
105.318
  0
LINE
  8
0
 10
-23.8753
 20
105.318
 11
-23.7344
 21
105.518
  0
LINE
  8
0
 10
-23.7344
 20
105.518
 11
-23.5645
 21
105.694
  0
LINE
  8
0
 10
-23.5645
 20
105.694
 11
-23.3697
 21
105.843
  0
LINE
  8
0
 10
-23.3697
 20
105.843
 11
-23.1545
 21
105.96
  0
LINE
  8
0
 10
-23.1545
 20
105.96
 11
-22.924
 21
106.043
  0
LINE
  8
0
 10
-22.924
 20
106.043
 11
-22.6835
 21
106.089
  0
LINE
  8
0
 10
-22.6835
 20
106.089
 11
-22.4387
 21
106.099
  0
LINE
  8
0
 10
-22.4387
 20
106.099
 11
-22.1954
 21
106.071
  0
LINE
  8
0
 10
-22.1954
 20
106.071
 11
-21.9592
 21
106.006
  0
LINE
  8
0
 10
-21.9592
 20
106.006
 11
-21.7357
 21
105.906
  0
LINE
  8
0
 10
-21.7357
 20
105.906
 11
-21.53
 21
105.772
  0
LINE
  8
0
 10
-21.53
 20
105.772
 11
-21.3472
 21
105.609
  0
LINE
  8
0
 10
-21.3472
 20
105.609
 11
-21.1913
 21
105.421
  0
LINE
  8
0
 10
-21.1913
 20
105.421
 11
-21.0661
 21
105.21
  0
LINE
  8
0
 10
-21.0661
 20
105.21
 11
-20.9746
 21
104.983
  0
LINE
  8
0
 10
-20.9746
 20
104.983
 11
-20.9188
 21
104.744
  0
LINE
  8
0
 10
-20.9188
 20
104.744
 11
-20.9
 21
104.5
  0
LINE
  8
0
 10
-20.9
 20
104.5
 11
-20.9188
 21
104.256
  0
LINE
  8
0
 10
-20.9188
 20
104.256
 11
-20.9746
 21
104.017
  0
LINE
  8
0
 10
-20.9746
 20
104.017
 11
-21.0661
 21
103.79
  0
LINE
  8
0
 10
-21.0661
 20
103.79
 11
-21.1913
 21
103.579
  0
LINE
  8
0
 10
-21.1913
 20
103.579
 11
-21.3472
 21
103.391
  0
LINE
  8
0
 10
-21.3472
 20
103.391
 11
-21.53
 21
103.228
  0
LINE
  8
0
 10
-21.53
 20
103.228
 11
-21.7357
 21
103.094
  0
LINE
  8
0
 10
-21.7357
 20
103.094
 11
-21.9592
 21
102.994
  0
LINE
  8
0
 10
-21.9592
 20
102.994
 11
-22.1954
 21
102.929
  0
LINE
  8
0
 10
-22.1954
 20
102.929
 11
-22.4387
 21
102.901
  0
LINE
  8
0
 10
-22.4387
 20
102.901
 11
-22.6835
 21
102.911
  0
LINE
  8
0
 10
-39.1707
 20
77.8613
 11
-40.3286
 21
78.0447
  0
LINE
  8
0
 10
-40.3286
 20
78.0447
 11
-41.461
 21
78.3482
  0
LINE
  8
0
 10
-41.461
 20
78.3482
 11
-42.5554
 21
78.7683
  0
LINE
  8
0
 10
-42.5554
 20
78.7683
 11
-43.6
 21
79.3005
  0
LINE
  8
0
 10
-43.6
 20
79.3005
 11
-44.5832
 21
79.939
  0
LINE
  8
0
 10
-44.5832
 20
79.939
 11
-45.4943
 21
80.6768
  0
LINE
  8
0
 10
-45.4943
 20
80.6768
 11
-46.3232
 21
81.5057
  0
LINE
  8
0
 10
-46.3232
 20
81.5057
 11
-47.061
 21
82.4168
  0
LINE
  8
0
 10
-47.061
 20
82.4168
 11
-47.6995
 21
83.4
  0
LINE
  8
0
 10
-47.6995
 20
83.4
 11
-48.2317
 21
84.4445
  0
LINE
  8
0
 10
-48.2317
 20
84.4445
 11
-48.6518
 21
85.539
  0
LINE
  8
0
 10
-48.6518
 20
85.539
 11
-48.9552
 21
86.6714
  0
LINE
  8
0
 10
-48.9552
 20
86.6714
 11
-49.1386
 21
87.8293
  0
LINE
  8
0
 10
-49.1386
 20
87.8293
 11
-49.2
 21
89
  0
LINE
  8
0
 10
-49.2
 20
89
 11
-49.1386
 21
90.1707
  0
LINE
  8
0
 10
-49.1386
 20
90.1707
 11
-48.9552
 21
91.3286
  0
LINE
  8
0
 10
-48.9552
 20
91.3286
 11
-48.6518
 21
92.461
  0
LINE
  8
0
 10
-48.6518
 20
92.461
 11
-48.2317
 21
93.5554
  0
LINE
  8
0
 10
-48.2317
 20
93.5554
 11
-47.6995
 21
94.6
  0
LINE
  8
0
 10
-47.6995
 20
94.6
 11
-47.061
 21
95.5832
  0
LINE
  8
0
 10
-47.061
 20
95.5832
 11
-46.3232
 21
96.4943
  0
LINE
  8
0
 10
-46.3232
 20
96.4943
 11
-45.4943
 21
97.3232
  0
LINE
  8
0
 10
-45.4943
 20
97.3232
 11
-44.5832
 21
98.061
  0
LINE
  8
0
 10
-44.5832
 20
98.061
 11
-43.6
 21
98.6995
  0
LINE
  8
0
 10
-43.6
 20
98.6995
 11
-42.5554
 21
99.2317
  0
LINE
  8
0
 10
-42.5554
 20
99.2317
 11
-41.461
 21
99.6518
  0
LINE
  8
0
 10
-41.461
 20
99.6518
 11
-40.3286
 21
99.9552
  0
LINE
  8
0
 10
-40.3286
 20
99.9552
 11
-39.1707
 21
100.139
  0
LINE
  8
0
 10
-39.1707
 20
100.139
 11
-38
 21
100.2
  0
LINE
  8
0
 10
-38
 20
100.2
 11
-36.8293
 21
100.139
  0
LINE
  8
0
 10
-36.8293
 20
100.139
 11
-35.6714
 21
99.9552
  0
LINE
  8
0
 10
-35.6714
 20
99.9552
 11
-34.539
 21
99.6518
  0
LINE
  8
0
 10
-34.539
 20
99.6518
 11
-33.4445
 21
99.2317
  0
LINE
  8
0
 10
-33.4445
 20
99.2317
 11
-32.4
 21
98.6995
  0
LINE
  8
0
 10
-32.4
 20
98.6995
 11
-31.4168
 21
98.061
  0
LINE
  8
0
 10
-31.4168
 20
98.061
 11
-30.5057
 21
97.3232
  0
LINE
  8
0
 10
-30.5057
 20
97.3232
 11
-29.6768
 21
96.4943
  0
LINE
  8
0
 10
-29.6768
 20
96.4943
 11
-28.939
 21
95.5832
  0
LINE
  8
0
 10
-28.939
 20
95.5832
 11
-28.3005
 21
94.6
  0
LINE
  8
0
 10
-28.3005
 20
94.6
 11
-27.7683
 21
93.5554
  0
LINE
  8
0
 10
-27.7683
 20
93.5554
 11
-27.3482
 21
92.461
  0
LINE
  8
0
 10
-27.3482
 20
92.461
 11
-27.0447
 21
91.3286
  0
LINE
  8
0
 10
-27.0447
 20
91.3286
 11
-26.8613
 21
90.1707
  0
LINE
  8
0
 10
-26.8613
 20
90.1707
 11
-26.8
 21
89
  0
LINE
  8
0
 10
-26.8
 20
89
 11
-26.8613
 21
87.8293
  0
LINE
  8
0
 10
-26.8613
 20
87.8293
 11
-27.0447
 21
86.6714
  0
LINE
  8
0
 10
-27.0447
 20
86.6714
 11
-27.3482
 21
85.539
  0
LINE
  8
0
 10
-27.3482
 20
85.539
 11
-27.7683
 21
84.4445
  0
LINE
  8
0
 10
-27.7683
 20
84.4445
 11
-28.3005
 21
83.4
  0
LINE
  8
0
 10
-28.3005
 20
83.4
 11
-28.939
 21
82.4168
  0
LINE
  8
0
 10
-28.939
 20
82.4168
 11
-29.6768
 21
81.5057
  0
LINE
  8
0
 10
-29.6768
 20
81.5057
 11
-30.5057
 21
80.6768
  0
LINE
  8
0
 10
-30.5057
 20
80.6768
 11
-31.4168
 21
79.939
  0
LINE
  8
0
 10
-31.4168
 20
79.939
 11
-32.4
 21
79.3005
  0
LINE
  8
0
 10
-32.4
 20
79.3005
 11
-33.4445
 21
78.7683
  0
LINE
  8
0
 10
-33.4445
 20
78.7683
 11
-34.539
 21
78.3482
  0
LINE
  8
0
 10
-34.539
 20
78.3482
 11
-35.6714
 21
78.0447
  0
LINE
  8
0
 10
-35.6714
 20
78.0447
 11
-36.8293
 21
77.8613
  0
LINE
  8
0
 10
-36.8293
 20
77.8613
 11
-38
 21
77.8
  0
LINE
  8
0
 10
-38
 20
77.8
 11
-39.1707
 21
77.8613
  0
LINE
  8
0
 10
36.8293
 20
77.8613
 11
35.6714
 21
78.0447
  0
LINE
  8
0
 10
35.6714
 20
78.0447
 11
34.539
 21
78.3482
  0
LINE
  8
0
 10
34.539
 20
78.3482
 11
33.4445
 21
78.7683
  0
LINE
  8
0
 10
33.4445
 20
78.7683
 11
32.4
 21
79.3005
  0
LINE
  8
0
 10
32.4
 20
79.3005
 11
31.4168
 21
79.939
  0
LINE
  8
0
 10
31.4168
 20
79.939
 11
30.5057
 21
80.6768
  0
LINE
  8
0
 10
30.5057
 20
80.6768
 11
29.6768
 21
81.5057
  0
LINE
  8
0
 10
29.6768
 20
81.5057
 11
28.939
 21
82.4168
  0
LINE
  8
0
 10
28.939
 20
82.4168
 11
28.3005
 21
83.4
  0
LINE
  8
0
 10
28.3005
 20
83.4
 11
27.7683
 21
84.4445
  0
LINE
  8
0
 10
27.7683
 20
84.4445
 11
27.3482
 21
85.539
  0
LINE
  8
0
 10
27.3482
 20
85.539
 11
27.0447
 21
86.6714
  0
LINE
  8
0
 10
27.0447
 20
86.6714
 11
26.8613
 21
87.8293
  0
LINE
  8
0
 10
26.8613
 20
87.8293
 11
26.8
 21
89
  0
LINE
  8
0
 10
26.8
 20
89
 11
26.8613
 21
90.1707
  0
LINE
  8
0
 10
26.8613
 20
90.1707
 11
27.0447
 21
91.3286
  0
LINE
  8
0
 10
27.0447
 20
91.3286
 11
27.3482
 21
92.461
  0
LINE
  8
0
 10
27.3482
 20
92.461
 11
27.7683
 21
93.5554
  0
LINE
  8
0
 10
27.7683
 20
93.5554
 11
28.3005
 21
94.6
  0
LINE
  8
0
 10
28.3005
 20
94.6
 11
28.939
 21
95.5832
  0
LINE
  8
0
 10
28.939
 20
95.5832
 11
29.6768
 21
96.4943
  0
LINE
  8
0
 10
29.6768
 20
96.4943
 11
30.5057
 21
97.3232
  0
LINE
  8
0
 10
30.5057
 20
97.3232
 11
31.4168
 21
98.061
  0
LINE
  8
0
 10
31.4168
 20
98.061
 11
32.4
 21
98.6995
  0
LINE
  8
0
 10
32.4
 20
98.6995
 11
33.4445
 21
99.2317
  0
LINE
  8
0
 10
33.4445
 20
99.2317
 11
34.539
 21
99.6518
  0
LINE
  8
0
 10
34.539
 20
99.6518
 11
35.6714
 21
99.9552
  0
LINE
  8
0
 10
35.6714
 20
99.9552
 11
36.8293
 21
100.139
  0
LINE
  8
0
 10
36.8293
 20
100.139
 11
38
 21
100.2
  0
LINE
  8
0
 10
38
 20
100.2
 11
39.1707
 21
100.139
  0
LINE
  8
0
 10
39.1707
 20
100.139
 11
40.3286
 21
99.9552
  0
LINE
  8
0
 10
40.3286
 20
99.9552
 11
41.461
 21
99.6518
  0
LINE
  8
0
 10
41.461
 20
99.6518
 11
42.5554
 21
99.2317
  0
LINE
  8
0
 10
42.5554
 20
99.2317
 11
43.6
 21
98.6995
  0
LINE
  8
0
 10
43.6
 20
98.6995
 11
44.5832
 21
98.061
  0
LINE
  8
0
 10
44.5832
 20
98.061
 11
45.4943
 21
97.3232
  0
LINE
  8
0
 10
45.4943
 20
97.3232
 11
46.3232
 21
96.4943
  0
LINE
  8
0
 10
46.3232
 20
96.4943
 11
47.061
 21
95.5832
  0
LINE
  8
0
 10
47.061
 20
95.5832
 11
47.6995
 21
94.6
  0
LINE
  8
0
 10
47.6995
 20
94.6
 11
48.2317
 21
93.5554
  0
LINE
  8
0
 10
48.2317
 20
93.5554
 11
48.6518
 21
92.461
  0
LINE
  8
0
 10
48.6518
 20
92.461
 11
48.9552
 21
91.3286
  0
LINE
  8
0
 10
48.9552
 20
91.3286
 11
49.1386
 21
90.1707
  0
LINE
  8
0
 10
49.1386
 20
90.1707
 11
49.2
 21
89
  0
LINE
  8
0
 10
49.2
 20
89
 11
49.1386
 21
87.8293
  0
LINE
  8
0
 10
49.1386
 20
87.8293
 11
48.9552
 21
86.6714
  0
LINE
  8
0
 10
48.9552
 20
86.6714
 11
48.6518
 21
85.539
  0
LINE
  8
0
 10
48.6518
 20
85.539
 11
48.2317
 21
84.4445
  0
LINE
  8
0
 10
48.2317
 20
84.4445
 11
47.6995
 21
83.4
  0
LINE
  8
0
 10
47.6995
 20
83.4
 11
47.061
 21
82.4168
  0
LINE
  8
0
 10
47.061
 20
82.4168
 11
46.3232
 21
81.5057
  0
LINE
  8
0
 10
46.3232
 20
81.5057
 11
45.4943
 21
80.6768
  0
LINE
  8
0
 10
45.4943
 20
80.6768
 11
44.5832
 21
79.939
  0
LINE
  8
0
 10
44.5832
 20
79.939
 11
43.6
 21
79.3005
  0
LINE
  8
0
 10
43.6
 20
79.3005
 11
42.5554
 21
78.7683
  0
LINE
  8
0
 10
42.5554
 20
78.7683
 11
41.461
 21
78.3482
  0
LINE
  8
0
 10
41.461
 20
78.3482
 11
40.3286
 21
78.0447
  0
LINE
  8
0
 10
40.3286
 20
78.0447
 11
39.1707
 21
77.8613
  0
LINE
  8
0
 10
39.1707
 20
77.8613
 11
38
 21
77.8
  0
LINE
  8
0
 10
38
 20
77.8
 11
36.8293
 21
77.8613
  0
LINE
  8
0
 10
53.3165
 20
71.9106
 11
53.076
 21
71.9572
  0
LINE
  8
0
 10
53.076
 20
71.9572
 11
52.8455
 21
72.04
  0
LINE
  8
0
 10
52.8455
 20
72.04
 11
52.6303
 21
72.157
  0
LINE
  8
0
 10
52.6303
 20
72.157
 11
52.4355
 21
72.3055
  0
LINE
  8
0
 10
52.4355
 20
72.3055
 11
52.2656
 21
72.482
  0
LINE
  8
0
 10
52.2656
 20
72.482
 11
52.1247
 21
72.6824
  0
LINE
  8
0
 10
52.1247
 20
72.6824
 11
52.016
 21
72.9019
  0
LINE
  8
0
 10
52.016
 20
72.9019
 11
51.9421
 21
73.1354
  0
LINE
  8
0
 10
51.9421
 20
73.1354
 11
51.9047
 21
73.3775
  0
LINE
  8
0
 10
51.9047
 20
73.3775
 11
51.9047
 21
73.6225
  0
LINE
  8
0
 10
51.9047
 20
73.6225
 11
51.9421
 21
73.8646
  0
LINE
  8
0
 10
51.9421
 20
73.8646
 11
52.016
 21
74.0981
  0
LINE
  8
0
 10
52.016
 20
74.0981
 11
52.1247
 21
74.3176
  0
LINE
  8
0
 10
52.1247
 20
74.3176
 11
52.2656
 21
74.518
  0
LINE
  8
0
 10
52.2656
 20
74.518
 11
52.4355
 21
74.6945
  0
LINE
  8
0
 10
52.4355
 20
74.6945
 11
52.6303
 21
74.843
  0
LINE
  8
0
 10
52.6303
 20
74.843
 11
52.8455
 21
74.96
  0
LINE
  8
0
 10
52.8455
 20
74.96
 11
53.076
 21
75.0428
  0
LINE
  8
0
 10
53.076
 20
75.0428
 11
53.3165
 21
75.0894
  0
LINE
  8
0
 10
53.3165
 20
75.0894
 11
53.5613
 21
75.0988
  0
LINE
  8
0
 10
53.5613
 20
75.0988
 11
53.8046
 21
75.0707
  0
LINE
  8
0
 10
53.8046
 20
75.0707
 11
54.0408
 21
75.0058
  0
LINE
  8
0
 10
54.0408
 20
75.0058
 11
54.2643
 21
74.9056
  0
LINE
  8
0
 10
54.2643
 20
74.9056
 11
54.47
 21
74.7725
  0
LINE
  8
0
 10
54.47
 20
74.7725
 11
54.6528
 21
74.6095
  0
LINE
  8
0
 10
54.6528
 20
74.6095
 11
54.8087
 21
74.4205
  0
LINE
  8
0
 10
54.8087
 20
74.4205
 11
54.9339
 21
74.21
  0
LINE
  8
0
 10
54.9339
 20
74.21
 11
55.0254
 21
73.9828
  0
LINE
  8
0
 10
55.0254
 20
73.9828
 11
55.0812
 21
73.7442
  0
LINE
  8
0
 10
55.0812
 20
73.7442
 11
55.1
 21
73.5
  0
LINE
  8
0
 10
55.1
 20
73.5
 11
55.0812
 21
73.2558
  0
LINE
  8
0
 10
55.0812
 20
73.2558
 11
55.0254
 21
73.0173
  0
LINE
  8
0
 10
55.0254
 20
73.0173
 11
54.9339
 21
72.7901
  0
LINE
  8
0
 10
54.9339
 20
72.7901
 11
54.8087
 21
72.5795
  0
LINE
  8
0
 10
54.8087
 20
72.5795
 11
54.6528
 21
72.3905
  0
LINE
  8
0
 10
54.6528
 20
72.3905
 11
54.47
 21
72.2275
  0
LINE
  8
0
 10
54.47
 20
72.2275
 11
54.2643
 21
72.0944
  0
LINE
  8
0
 10
54.2643
 20
72.0944
 11
54.0408
 21
71.9942
  0
LINE
  8
0
 10
54.0408
 20
71.9942
 11
53.8046
 21
71.9293
  0
LINE
  8
0
 10
53.8046
 20
71.9293
 11
53.5613
 21
71.9012
  0
LINE
  8
0
 10
53.5613
 20
71.9012
 11
53.3165
 21
71.9106
  0
LINE
  8
0
 10
-53.6835
 20
71.9106
 11
-53.924
 21
71.9572
  0
LINE
  8
0
 10
-53.924
 20
71.9572
 11
-54.1545
 21
72.04
  0
LINE
  8
0
 10
-54.1545
 20
72.04
 11
-54.3697
 21
72.157
  0
LINE
  8
0
 10
-54.3697
 20
72.157
 11
-54.5645
 21
72.3055
  0
LINE
  8
0
 10
-54.5645
 20
72.3055
 11
-54.7344
 21
72.482
  0
LINE
  8
0
 10
-54.7344
 20
72.482
 11
-54.8753
 21
72.6824
  0
LINE
  8
0
 10
-54.8753
 20
72.6824
 11
-54.984
 21
72.9019
  0
LINE
  8
0
 10
-54.984
 20
72.9019
 11
-55.0579
 21
73.1354
  0
LINE
  8
0
 10
-55.0579
 20
73.1354
 11
-55.0953
 21
73.3775
  0
LINE
  8
0
 10
-55.0953
 20
73.3775
 11
-55.0953
 21
73.6225
  0
LINE
  8
0
 10
-55.0953
 20
73.6225
 11
-55.0579
 21
73.8646
  0
LINE
  8
0
 10
-55.0579
 20
73.8646
 11
-54.984
 21
74.0981
  0
LINE
  8
0
 10
-54.984
 20
74.0981
 11
-54.8753
 21
74.3176
  0
LINE
  8
0
 10
-54.8753
 20
74.3176
 11
-54.7344
 21
74.518
  0
LINE
  8
0
 10
-54.7344
 20
74.518
 11
-54.5645
 21
74.6945
  0
LINE
  8
0
 10
-54.5645
 20
74.6945
 11
-54.3697
 21
74.843
  0
LINE
  8
0
 10
-54.3697
 20
74.843
 11
-54.1545
 21
74.96
  0
LINE
  8
0
 10
-54.1545
 20
74.96
 11
-53.924
 21
75.0428
  0
LINE
  8
0
 10
-53.924
 20
75.0428
 11
-53.6835
 21
75.0894
  0
LINE
  8
0
 10
-53.6835
 20
75.0894
 11
-53.4387
 21
75.0988
  0
LINE
  8
0
 10
-53.4387
 20
75.0988
 11
-53.1954
 21
75.0707
  0
LINE
  8
0
 10
-53.1954
 20
75.0707
 11
-52.9592
 21
75.0058
  0
LINE
  8
0
 10
-52.9592
 20
75.0058
 11
-52.7356
 21
74.9056
  0
LINE
  8
0
 10
-52.7356
 20
74.9056
 11
-52.53
 21
74.7725
  0
LINE
  8
0
 10
-52.53
 20
74.7725
 11
-52.3472
 21
74.6095
  0
LINE
  8
0
 10
-52.3472
 20
74.6095
 11
-52.1913
 21
74.4205
  0
LINE
  8
0
 10
-52.1913
 20
74.4205
 11
-52.0661
 21
74.21
  0
LINE
  8
0
 10
-52.0661
 20
74.21
 11
-51.9746
 21
73.9828
  0
LINE
  8
0
 10
-51.9746
 20
73.9828
 11
-51.9187
 21
73.7442
  0
LINE
  8
0
 10
-51.9187
 20
73.7442
 11
-51.9
 21
73.5
  0
LINE
  8
0
 10
-51.9
 20
73.5
 11
-51.9187
 21
73.2558
  0
LINE
  8
0
 10
-51.9187
 20
73.2558
 11
-51.9746
 21
73.0173
  0
LINE
  8
0
 10
-51.9746
 20
73.0173
 11
-52.0661
 21
72.7901
  0
LINE
  8
0
 10
-52.0661
 20
72.7901
 11
-52.1913
 21
72.5795
  0
LINE
  8
0
 10
-52.1913
 20
72.5795
 11
-52.3472
 21
72.3905
  0
LINE
  8
0
 10
-52.3472
 20
72.3905
 11
-52.53
 21
72.2275
  0
LINE
  8
0
 10
-52.53
 20
72.2275
 11
-52.7356
 21
72.0944
  0
LINE
  8
0
 10
-52.7356
 20
72.0944
 11
-52.9592
 21
71.9942
  0
LINE
  8
0
 10
-52.9592
 20
71.9942
 11
-53.1954
 21
71.9293
  0
LINE
  8
0
 10
-53.1954
 20
71.9293
 11
-53.4387
 21
71.9012
  0
LINE
  8
0
 10
-53.4387
 20
71.9012
 11
-53.6835
 21
71.9106
  0
LINE
  8
0
 10
-22.6835
 20
71.9106
 11
-22.924
 21
71.9572
  0
LINE
  8
0
 10
-22.924
 20
71.9572
 11
-23.1545
 21
72.04
  0
LINE
  8
0
 10
-23.1545
 20
72.04
 11
-23.3697
 21
72.157
  0
LINE
  8
0
 10
-23.3697
 20
72.157
 11
-23.5645
 21
72.3055
  0
LINE
  8
0
 10
-23.5645
 20
72.3055
 11
-23.7344
 21
72.482
  0
LINE
  8
0
 10
-23.7344
 20
72.482
 11
-23.8753
 21
72.6824
  0
LINE
  8
0
 10
-23.8753
 20
72.6824
 11
-23.984
 21
72.9019
  0
LINE
  8
0
 10
-23.984
 20
72.9019
 11
-24.0579
 21
73.1354
  0
LINE
  8
0
 10
-24.0579
 20
73.1354
 11
-24.0953
 21
73.3775
  0
LINE
  8
0
 10
-24.0953
 20
73.3775
 11
-24.0953
 21
73.6225
  0
LINE
  8
0
 10
-24.0953
 20
73.6225
 11
-24.0579
 21
73.8646
  0
LINE
  8
0
 10
-24.0579
 20
73.8646
 11
-23.984
 21
74.0981
  0
LINE
  8
0
 10
-23.984
 20
74.0981
 11
-23.8753
 21
74.3176
  0
LINE
  8
0
 10
-23.8753
 20
74.3176
 11
-23.7344
 21
74.518
  0
LINE
  8
0
 10
-23.7344
 20
74.518
 11
-23.5645
 21
74.6945
  0
LINE
  8
0
 10
-23.5645
 20
74.6945
 11
-23.3697
 21
74.843
  0
LINE
  8
0
 10
-23.3697
 20
74.843
 11
-23.1545
 21
74.96
  0
LINE
  8
0
 10
-23.1545
 20
74.96
 11
-22.924
 21
75.0428
  0
LINE
  8
0
 10
-22.924
 20
75.0428
 11
-22.6835
 21
75.0894
  0
LINE
  8
0
 10
-22.6835
 20
75.0894
 11
-22.4387
 21
75.0988
  0
LINE
  8
0
 10
-22.4387
 20
75.0988
 11
-22.1954
 21
75.0707
  0
LINE
  8
0
 10
-22.1954
 20
75.0707
 11
-21.9592
 21
75.0058
  0
LINE
  8
0
 10
-21.9592
 20
75.0058
 11
-21.7357
 21
74.9056
  0
LINE
  8
0
 10
-21.7357
 20
74.9056
 11
-21.53
 21
74.7725
  0
LINE
  8
0
 10
-21.53
 20
74.7725
 11
-21.3472
 21
74.6095
  0
LINE
  8
0
 10
-21.3472
 20
74.6095
 11
-21.1913
 21
74.4205
  0
LINE
  8
0
 10
-21.1913
 20
74.4205
 11
-21.0661
 21
74.21
  0
LINE
  8
0
 10
-21.0661
 20
74.21
 11
-20.9746
 21
73.9828
  0
LINE
  8
0
 10
-20.9746
 20
73.9828
 11
-20.9188
 21
73.7442
  0
LINE
  8
0
 10
-20.9188
 20
73.7442
 11
-20.9
 21
73.5
  0
LINE
  8
0
 10
-20.9
 20
73.5
 11
-20.9188
 21
73.2558
  0
LINE
  8
0
 10
-20.9188
 20
73.2558
 11
-20.9746
 21
73.0173
  0
LINE
  8
0
 10
-20.9746
 20
73.0173
 11
-21.0661
 21
72.7901
  0
LINE
  8
0
 10
-21.0661
 20
72.7901
 11
-21.1913
 21
72.5795
  0
LINE
  8
0
 10
-21.1913
 20
72.5795
 11
-21.3472
 21
72.3905
  0
LINE
  8
0
 10
-21.3472
 20
72.3905
 11
-21.53
 21
72.2275
  0
LINE
  8
0
 10
-21.53
 20
72.2275
 11
-21.7357
 21
72.0944
  0
LINE
  8
0
 10
-21.7357
 20
72.0944
 11
-21.9592
 21
71.9942
  0
LINE
  8
0
 10
-21.9592
 20
71.9942
 11
-22.1954
 21
71.9293
  0
LINE
  8
0
 10
-22.1954
 20
71.9293
 11
-22.4387
 21
71.9012
  0
LINE
  8
0
 10
-22.4387
 20
71.9012
 11
-22.6835
 21
71.9106
  0
LINE
  8
0
 10
22.3165
 20
71.9106
 11
22.076
 21
71.9572
  0
LINE
  8
0
 10
22.076
 20
71.9572
 11
21.8455
 21
72.04
  0
LINE
  8
0
 10
21.8455
 20
72.04
 11
21.6303
 21
72.157
  0
LINE
  8
0
 10
21.6303
 20
72.157
 11
21.4355
 21
72.3055
  0
LINE
  8
0
 10
21.4355
 20
72.3055
 11
21.2656
 21
72.482
  0
LINE
  8
0
 10
21.2656
 20
72.482
 11
21.1247
 21
72.6824
  0
LINE
  8
0
 10
21.1247
 20
72.6824
 11
21.016
 21
72.9019
  0
LINE
  8
0
 10
21.016
 20
72.9019
 11
20.9421
 21
73.1354
  0
LINE
  8
0
 10
20.9421
 20
73.1354
 11
20.9047
 21
73.3775
  0
LINE
  8
0
 10
20.9047
 20
73.3775
 11
20.9047
 21
73.6225
  0
LINE
  8
0
 10
20.9047
 20
73.6225
 11
20.9421
 21
73.8646
  0
LINE
  8
0
 10
20.9421
 20
73.8646
 11
21.016
 21
74.0981
  0
LINE
  8
0
 10
21.016
 20
74.0981
 11
21.1247
 21
74.3176
  0
LINE
  8
0
 10
21.1247
 20
74.3176
 11
21.2656
 21
74.518
  0
LINE
  8
0
 10
21.2656
 20
74.518
 11
21.4355
 21
74.6945
  0
LINE
  8
0
 10
21.4355
 20
74.6945
 11
21.6303
 21
74.843
  0
LINE
  8
0
 10
21.6303
 20
74.843
 11
21.8455
 21
74.96
  0
LINE
  8
0
 10
21.8455
 20
74.96
 11
22.076
 21
75.0428
  0
LINE
  8
0
 10
22.076
 20
75.0428
 11
22.3165
 21
75.0894
  0
LINE
  8
0
 10
22.3165
 20
75.0894
 11
22.5613
 21
75.0988
  0
LINE
  8
0
 10
22.5613
 20
75.0988
 11
22.8046
 21
75.0707
  0
LINE
  8
0
 10
22.8046
 20
75.0707
 11
23.0408
 21
75.0058
  0
LINE
  8
0
 10
23.0408
 20
75.0058
 11
23.2644
 21
74.9056
  0
LINE
  8
0
 10
23.2644
 20
74.9056
 11
23.47
 21
74.7725
  0
LINE
  8
0
 10
23.47
 20
74.7725
 11
23.6528
 21
74.6095
  0
LINE
  8
0
 10
23.6528
 20
74.6095
 11
23.8087
 21
74.4205
  0
LINE
  8
0
 10
23.8087
 20
74.4205
 11
23.9339
 21
74.21
  0
LINE
  8
0
 10
23.9339
 20
74.21
 11
24.0254
 21
73.9828
  0
LINE
  8
0
 10
24.0254
 20
73.9828
 11
24.0813
 21
73.7442
  0
LINE
  8
0
 10
24.0813
 20
73.7442
 11
24.1
 21
73.5
  0
LINE
  8
0
 10
24.1
 20
73.5
 11
24.0813
 21
73.2558
  0
LINE
  8
0
 10
24.0813
 20
73.2558
 11
24.0254
 21
73.0173
  0
LINE
  8
0
 10
24.0254
 20
73.0173
 11
23.9339
 21
72.7901
  0
LINE
  8
0
 10
23.9339
 20
72.7901
 11
23.8087
 21
72.5795
  0
LINE
  8
0
 10
23.8087
 20
72.5795
 11
23.6528
 21
72.3905
  0
LINE
  8
0
 10
23.6528
 20
72.3905
 11
23.47
 21
72.2275
  0
LINE
  8
0
 10
23.47
 20
72.2275
 11
23.2644
 21
72.0944
  0
LINE
  8
0
 10
23.2644
 20
72.0944
 11
23.0408
 21
71.9942
  0
LINE
  8
0
 10
23.0408
 20
71.9942
 11
22.8046
 21
71.9293
  0
LINE
  8
0
 10
22.8046
 20
71.9293
 11
22.5613
 21
71.9012
  0
LINE
  8
0
 10
22.5613
 20
71.9012
 11
22.3165
 21
71.9106
  0
LINE
  8
0
 10
29.7282
 20
35.4142
 11
29.4594
 21
35.4568
  0
LINE
  8
0
 10
29.4594
 20
35.4568
 11
29.1965
 21
35.5273
  0
LINE
  8
0
 10
29.1965
 20
35.5273
 11
28.9425
 21
35.6248
  0
LINE
  8
0
 10
28.9425
 20
35.6248
 11
28.7
 21
35.7483
  0
LINE
  8
0
 10
28.7
 20
35.7483
 11
28.4718
 21
35.8965
  0
LINE
  8
0
 10
28.4718
 20
35.8965
 11
28.2603
 21
36.0678
  0
LINE
  8
0
 10
28.2603
 20
36.0678
 11
28.0678
 21
36.2603
  0
LINE
  8
0
 10
28.0678
 20
36.2603
 11
27.8965
 21
36.4718
  0
LINE
  8
0
 10
27.8965
 20
36.4718
 11
27.7483
 21
36.7
  0
LINE
  8
0
 10
27.7483
 20
36.7
 11
27.6248
 21
36.9425
  0
LINE
  8
0
 10
27.6248
 20
36.9425
 11
27.5273
 21
37.1965
  0
LINE
  8
0
 10
27.5273
 20
37.1965
 11
27.4568
 21
37.4594
  0
LINE
  8
0
 10
27.4568
 20
37.4594
 11
27.4142
 21
37.7282
  0
LINE
  8
0
 10
27.4142
 20
37.7282
 11
27.4
 21
38
  0
LINE
  8
0
 10
27.4
 20
38
 11
27.4142
 21
38.2718
  0
LINE
  8
0
 10
27.4142
 20
38.2718
 11
27.4568
 21
38.5406
  0
LINE
  8
0
 10
27.4568
 20
38.5406
 11
27.5273
 21
38.8034
  0
LINE
  8
0
 10
27.5273
 20
38.8034
 11
27.6248
 21
39.0575
  0
LINE
  8
0
 10
27.6248
 20
39.0575
 11
27.7483
 21
39.3
  0
LINE
  8
0
 10
27.7483
 20
39.3
 11
27.8965
 21
39.5282
  0
LINE
  8
0
 10
27.8965
 20
39.5282
 11
28.0678
 21
39.7397
  0
LINE
  8
0
 10
28.0678
 20
39.7397
 11
28.2603
 21
39.9322
  0
LINE
  8
0
 10
28.2603
 20
39.9322
 11
28.4718
 21
40.1034
  0
LINE
  8
0
 10
28.4718
 20
40.1034
 11
28.7
 21
40.2517
  0
LINE
  8
0
 10
28.7
 20
40.2517
 11
28.9425
 21
40.3752
  0
LINE
  8
0
 10
28.9425
 20
40.3752
 11
29.1965
 21
40.4727
  0
LINE
  8
0
 10
29.1965
 20
40.4727
 11
29.4594
 21
40.5432
  0
LINE
  8
0
 10
29.4594
 20
40.5432
 11
29.7282
 21
40.5858
  0
LINE
  8
0
 10
29.7282
 20
40.5858
 11
30
 21
40.6
  0
LINE
  8
0
 10
30
 20
40.6
 11
30.2718
 21
40.5858
  0
LINE
  8
0
 10
30.2718
 20
40.5858
 11
30.5406
 21
40.5432
  0
LINE
  8
0
 10
30.5406
 20
40.5432
 11
30.8034
 21
40.4727
  0
LINE
  8
0
 10
30.8034
 20
40.4727
 11
31.0575
 21
40.3752
  0
LINE
  8
0
 10
31.0575
 20
40.3752
 11
31.3
 21
40.2517
  0
LINE
  8
0
 10
31.3
 20
40.2517
 11
31.5282
 21
40.1034
  0
LINE
  8
0
 10
31.5282
 20
40.1034
 11
31.7397
 21
39.9322
  0
LINE
  8
0
 10
31.7397
 20
39.9322
 11
31.9322
 21
39.7397
  0
LINE
  8
0
 10
31.9322
 20
39.7397
 11
32.1034
 21
39.5282
  0
LINE
  8
0
 10
32.1034
 20
39.5282
 11
32.2517
 21
39.3
  0
LINE
  8
0
 10
32.2517
 20
39.3
 11
32.3752
 21
39.0575
  0
LINE
  8
0
 10
32.3752
 20
39.0575
 11
32.4727
 21
38.8034
  0
LINE
  8
0
 10
32.4727
 20
38.8034
 11
32.5432
 21
38.5406
  0
LINE
  8
0
 10
32.5432
 20
38.5406
 11
32.5858
 21
38.2718
  0
LINE
  8
0
 10
32.5858
 20
38.2718
 11
32.6
 21
38
  0
LINE
  8
0
 10
32.6
 20
38
 11
32.5858
 21
37.7282
  0
LINE
  8
0
 10
32.5858
 20
37.7282
 11
32.5432
 21
37.4594
  0
LINE
  8
0
 10
32.5432
 20
37.4594
 11
32.4727
 21
37.1965
  0
LINE
  8
0
 10
32.4727
 20
37.1965
 11
32.3752
 21
36.9425
  0
LINE
  8
0
 10
32.3752
 20
36.9425
 11
32.2517
 21
36.7
  0
LINE
  8
0
 10
32.2517
 20
36.7
 11
32.1034
 21
36.4718
  0
LINE
  8
0
 10
32.1034
 20
36.4718
 11
31.9322
 21
36.2603
  0
LINE
  8
0
 10
31.9322
 20
36.2603
 11
31.7397
 21
36.0678
  0
LINE
  8
0
 10
31.7397
 20
36.0678
 11
31.5282
 21
35.8965
  0
LINE
  8
0
 10
31.5282
 20
35.8965
 11
31.3
 21
35.7483
  0
LINE
  8
0
 10
31.3
 20
35.7483
 11
31.0575
 21
35.6248
  0
LINE
  8
0
 10
31.0575
 20
35.6248
 11
30.8034
 21
35.5273
  0
LINE
  8
0
 10
30.8034
 20
35.5273
 11
30.5406
 21
35.4568
  0
LINE
  8
0
 10
30.5406
 20
35.4568
 11
30.2718
 21
35.4142
  0
LINE
  8
0
 10
30.2718
 20
35.4142
 11
30
 21
35.4
  0
LINE
  8
0
 10
30
 20
35.4
 11
29.7282
 21
35.4142
  0
LINE
  8
0
 10
-30.2718
 20
35.4142
 11
-30.5406
 21
35.4568
  0
LINE
  8
0
 10
-30.5406
 20
35.4568
 11
-30.8034
 21
35.5273
  0
LINE
  8
0
 10
-30.8034
 20
35.5273
 11
-31.0575
 21
35.6248
  0
LINE
  8
0
 10
-31.0575
 20
35.6248
 11
-31.3
 21
35.7483
  0
LINE
  8
0
 10
-31.3
 20
35.7483
 11
-31.5282
 21
35.8965
  0
LINE
  8
0
 10
-31.5282
 20
35.8965
 11
-31.7397
 21
36.0678
  0
LINE
  8
0
 10
-31.7397
 20
36.0678
 11
-31.9322
 21
36.2603
  0
LINE
  8
0
 10
-31.9322
 20
36.2603
 11
-32.1034
 21
36.4718
  0
LINE
  8
0
 10
-32.1034
 20
36.4718
 11
-32.2517
 21
36.7
  0
LINE
  8
0
 10
-32.2517
 20
36.7
 11
-32.3752
 21
36.9425
  0
LINE
  8
0
 10
-32.3752
 20
36.9425
 11
-32.4727
 21
37.1965
  0
LINE
  8
0
 10
-32.4727
 20
37.1965
 11
-32.5432
 21
37.4594
  0
LINE
  8
0
 10
-32.5432
 20
37.4594
 11
-32.5858
 21
37.7282
  0
LINE
  8
0
 10
-32.5858
 20
37.7282
 11
-32.6
 21
38
  0
LINE
  8
0
 10
-32.6
 20
38
 11
-32.5858
 21
38.2718
  0
LINE
  8
0
 10
-32.5858
 20
38.2718
 11
-32.5432
 21
38.5406
  0
LINE
  8
0
 10
-32.5432
 20
38.5406
 11
-32.4727
 21
38.8034
  0
LINE
  8
0
 10
-32.4727
 20
38.8034
 11
-32.3752
 21
39.0575
  0
LINE
  8
0
 10
-32.3752
 20
39.0575
 11
-32.2517
 21
39.3
  0
LINE
  8
0
 10
-32.2517
 20
39.3
 11
-32.1034
 21
39.5282
  0
LINE
  8
0
 10
-32.1034
 20
39.5282
 11
-31.9322
 21
39.7397
  0
LINE
  8
0
 10
-31.9322
 20
39.7397
 11
-31.7397
 21
39.9322
  0
LINE
  8
0
 10
-31.7397
 20
39.9322
 11
-31.5282
 21
40.1034
  0
LINE
  8
0
 10
-31.5282
 20
40.1034
 11
-31.3
 21
40.2517
  0
LINE
  8
0
 10
-31.3
 20
40.2517
 11
-31.0575
 21
40.3752
  0
LINE
  8
0
 10
-31.0575
 20
40.3752
 11
-30.8034
 21
40.4727
  0
LINE
  8
0
 10
-30.8034
 20
40.4727
 11
-30.5406
 21
40.5432
  0
LINE
  8
0
 10
-30.5406
 20
40.5432
 11
-30.2718
 21
40.5858
  0
LINE
  8
0
 10
-30.2718
 20
40.5858
 11
-30
 21
40.6
  0
LINE
  8
0
 10
-30
 20
40.6
 11
-29.7282
 21
40.5858
  0
LINE
  8
0
 10
-29.7282
 20
40.5858
 11
-29.4594
 21
40.5432
  0
LINE
  8
0
 10
-29.4594
 20
40.5432
 11
-29.1965
 21
40.4727
  0
LINE
  8
0
 10
-29.1965
 20
40.4727
 11
-28.9425
 21
40.3752
  0
LINE
  8
0
 10
-28.9425
 20
40.3752
 11
-28.7
 21
40.2517
  0
LINE
  8
0
 10
-28.7
 20
40.2517
 11
-28.4718
 21
40.1034
  0
LINE
  8
0
 10
-28.4718
 20
40.1034
 11
-28.2603
 21
39.9322
  0
LINE
  8
0
 10
-28.2603
 20
39.9322
 11
-28.0678
 21
39.7397
  0
LINE
  8
0
 10
-28.0678
 20
39.7397
 11
-27.8965
 21
39.5282
  0
LINE
  8
0
 10
-27.8965
 20
39.5282
 11
-27.7483
 21
39.3
  0
LINE
  8
0
 10
-27.7483
 20
39.3
 11
-27.6248
 21
39.0575
  0
LINE
  8
0
 10
-27.6248
 20
39.0575
 11
-27.5273
 21
38.8034
  0
LINE
  8
0
 10
-27.5273
 20
38.8034
 11
-27.4568
 21
38.5406
  0
LINE
  8
0
 10
-27.4568
 20
38.5406
 11
-27.4142
 21
38.2718
  0
LINE
  8
0
 10
-27.4142
 20
38.2718
 11
-27.4
 21
38
  0
LINE
  8
0
 10
-27.4
 20
38
 11
-27.4142
 21
37.7282
  0
LINE
  8
0
 10
-27.4142
 20
37.7282
 11
-27.4568
 21
37.4594
  0
LINE
  8
0
 10
-27.4568
 20
37.4594
 11
-27.5273
 21
37.1965
  0
LINE
  8
0
 10
-27.5273
 20
37.1965
 11
-27.6248
 21
36.9425
  0
LINE
  8
0
 10
-27.6248
 20
36.9425
 11
-27.7483
 21
36.7
  0
LINE
  8
0
 10
-27.7483
 20
36.7
 11
-27.8965
 21
36.4718
  0
LINE
  8
0
 10
-27.8965
 20
36.4718
 11
-28.0678
 21
36.2603
  0
LINE
  8
0
 10
-28.0678
 20
36.2603
 11
-28.2603
 21
36.0678
  0
LINE
  8
0
 10
-28.2603
 20
36.0678
 11
-28.4718
 21
35.8965
  0
LINE
  8
0
 10
-28.4718
 20
35.8965
 11
-28.7
 21
35.7483
  0
LINE
  8
0
 10
-28.7
 20
35.7483
 11
-28.9425
 21
35.6248
  0
LINE
  8
0
 10
-28.9425
 20
35.6248
 11
-29.1965
 21
35.5273
  0
LINE
  8
0
 10
-29.1965
 20
35.5273
 11
-29.4594
 21
35.4568
  0
LINE
  8
0
 10
-29.4594
 20
35.4568
 11
-29.7282
 21
35.4142
  0
LINE
  8
0
 10
-29.7282
 20
35.4142
 11
-30
 21
35.4
  0
LINE
  8
0
 10
-30
 20
35.4
 11
-30.2718
 21
35.4142
  0
LINE
  8
0
 10
26.8135
 20
-4.09171
 11
26.5675
 21
-4.05498
  0
LINE
  8
0
 10
26.5675
 20
-4.05498
 11
26.3274
 21
-3.9894
  0
LINE
  8
0
 10
26.3274
 20
-3.9894
 11
26.0969
 21
-3.89589
  0
LINE
  8
0
 10
26.0969
 20
-3.89589
 11
25.879
 21
-3.77576
  0
LINE
  8
0
 10
25.879
 20
-3.77576
 11
25.6768
 21
-3.63071
  0
LINE
  8
0
 10
25.6768
 20
-3.63071
 11
25.4932
 21
-3.46277
  0
LINE
  8
0
 10
25.4932
 20
-3.46277
 11
25.3308
 21
-3.27429
  0
LINE
  8
0
 10
25.3308
 20
-3.27429
 11
25.1918
 21
-3.06792
  0
LINE
  8
0
 10
25.1918
 20
-3.06792
 11
25.0782
 21
-2.84657
  0
LINE
  8
0
 10
25.0782
 20
-2.84657
 11
24.9916
 21
-2.61333
  0
LINE
  8
0
 10
24.9916
 20
-2.61333
 11
24.9331
 21
-2.37148
  0
LINE
  8
0
 10
24.9331
 20
-2.37148
 11
24.9037
 21
-2.12442
  0
LINE
  8
0
 10
24.9037
 20
-2.12442
 11
24.9037
 21
-1.8756
  0
LINE
  8
0
 10
24.9037
 20
-1.8756
 11
24.9331
 21
-1.62854
  0
LINE
  8
0
 10
24.9331
 20
-1.62854
 11
24.9916
 21
-1.38669
  0
LINE
  8
0
 10
24.9916
 20
-1.38669
 11
25.0782
 21
-1.15344
  0
LINE
  8
0
 10
25.0782
 20
-1.15344
 11
25.1918
 21
-0.932098
  0
LINE
  8
0
 10
25.1918
 20
-0.932098
 11
25.3308
 21
-0.725723
  0
LINE
  8
0
 10
25.3308
 20
-0.725723
 11
25.4932
 21
-0.537247
  0
LINE
  8
0
 10
25.4932
 20
-0.537247
 11
25.6768
 21
-0.369308
  0
LINE
  8
0
 10
25.6768
 20
-0.369308
 11
25.879
 21
-0.224258
  0
LINE
  8
0
 10
25.879
 20
-0.224258
 11
26.0969
 21
-0.104126
  0
LINE
  8
0
 10
26.0969
 20
-0.104126
 11
26.3274
 21
-0.0106201
  0
LINE
  8
0
 10
26.3274
 20
-0.0106201
 11
26.5675
 21
0.0549622
  0
LINE
  8
0
 10
26.5675
 20
0.0549622
 11
26.8135
 21
0.0916901
  0
LINE
  8
0
 10
26.8135
 20
0.0916901
 11
27.0622
 21
0.0990753
  0
LINE
  8
0
 10
27.0622
 20
0.0990753
 11
27.3101
 21
0.0769806
  0
LINE
  8
0
 10
27.3101
 20
0.0769806
 11
27.5535
 21
0.0257263
  0
LINE
  8
0
 10
27.5535
 20
0.0257263
 11
27.7892
 21
-0.0539551
  0
LINE
  8
0
 10
27.7892
 20
-0.0539551
 11
28.0139
 21
-0.160965
  0
LINE
  8
0
 10
28.0139
 20
-0.160965
 11
28.2243
 21
-0.293793
  0
LINE
  8
0
 10
28.2243
 20
-0.293793
 11
28.4175
 21
-0.450562
  0
LINE
  8
0
 10
28.4175
 20
-0.450562
 11
28.5908
 21
-0.629074
  0
LINE
  8
0
 10
28.5908
 20
-0.629074
 11
28.7418
 21
-0.826843
  0
LINE
  8
0
 10
28.7418
 20
-0.826843
 11
28.8683
 21
-1.04109
  0
LINE
  8
0
 10
28.8683
 20
-1.04109
 11
28.9686
 21
-1.26878
  0
LINE
  8
0
 10
28.9686
 20
-1.26878
 11
29.0413
 21
-1.50674
  0
LINE
  8
0
 10
29.0413
 20
-1.50674
 11
29.0853
 21
-1.75163
  0
LINE
  8
0
 10
29.0853
 20
-1.75163
 11
29.1
 21
-2
  0
LINE
  8
0
 10
29.1
 20
-2
 11
29.0853
 21
-2.24838
  0
LINE
  8
0
 10
29.0853
 20
-2.24838
 11
29.0413
 21
-2.49327
  0
LINE
  8
0
 10
29.0413
 20
-2.49327
 11
28.9686
 21
-2.73123
  0
LINE
  8
0
 10
28.9686
 20
-2.73123
 11
28.8683
 21
-2.95892
  0
LINE
  8
0
 10
28.8683
 20
-2.95892
 11
28.7418
 21
-3.17317
  0
LINE
  8
0
 10
28.7418
 20
-3.17317
 11
28.5908
 21
-3.37094
  0
LINE
  8
0
 10
28.5908
 20
-3.37094
 11
28.4175
 21
-3.54945
  0
LINE
  8
0
 10
28.4175
 20
-3.54945
 11
28.2243
 21
-3.70622
  0
LINE
  8
0
 10
28.2243
 20
-3.70622
 11
28.0139
 21
-3.83905
  0
LINE
  8
0
 10
28.0139
 20
-3.83905
 11
27.7892
 21
-3.94606
  0
LINE
  8
0
 10
27.7892
 20
-3.94606
 11
27.5535
 21
-4.02574
  0
LINE
  8
0
 10
27.5535
 20
-4.02574
 11
27.3101
 21
-4.077
  0
LINE
  8
0
 10
27.3101
 20
-4.077
 11
27.0622
 21
-4.09909
  0
LINE
  8
0
 10
27.0622
 20
-4.09909
 11
26.8135
 21
-4.09171
  0
LINE
  8
0
 10
52.8135
 20
-4.09171
 11
52.5674
 21
-4.05498
  0
LINE
  8
0
 10
52.5674
 20
-4.05498
 11
52.3274
 21
-3.9894
  0
LINE
  8
0
 10
52.3274
 20
-3.9894
 11
52.0969
 21
-3.89589
  0
LINE
  8
0
 10
52.0969
 20
-3.89589
 11
51.879
 21
-3.77576
  0
LINE
  8
0
 10
51.879
 20
-3.77576
 11
51.6768
 21
-3.63071
  0
LINE
  8
0
 10
51.6768
 20
-3.63071
 11
51.4932
 21
-3.46277
  0
LINE
  8
0
 10
51.4932
 20
-3.46277
 11
51.3308
 21
-3.27429
  0
LINE
  8
0
 10
51.3308
 20
-3.27429
 11
51.1918
 21
-3.06792
  0
LINE
  8
0
 10
51.1918
 20
-3.06792
 11
51.0782
 21
-2.84657
  0
LINE
  8
0
 10
51.0782
 20
-2.84657
 11
50.9915
 21
-2.61333
  0
LINE
  8
0
 10
50.9915
 20
-2.61333
 11
50.9331
 21
-2.37148
  0
LINE
  8
0
 10
50.9331
 20
-2.37148
 11
50.9037
 21
-2.12442
  0
LINE
  8
0
 10
50.9037
 20
-2.12442
 11
50.9037
 21
-1.8756
  0
LINE
  8
0
 10
50.9037
 20
-1.8756
 11
50.9331
 21
-1.62854
  0
LINE
  8
0
 10
50.9331
 20
-1.62854
 11
50.9915
 21
-1.38669
  0
LINE
  8
0
 10
50.9915
 20
-1.38669
 11
51.0782
 21
-1.15344
  0
LINE
  8
0
 10
51.0782
 20
-1.15344
 11
51.1918
 21
-0.932098
  0
LINE
  8
0
 10
51.1918
 20
-0.932098
 11
51.3308
 21
-0.725723
  0
LINE
  8
0
 10
51.3308
 20
-0.725723
 11
51.4932
 21
-0.537247
  0
LINE
  8
0
 10
51.4932
 20
-0.537247
 11
51.6768
 21
-0.369308
  0
LINE
  8
0
 10
51.6768
 20
-0.369308
 11
51.879
 21
-0.224258
  0
LINE
  8
0
 10
51.879
 20
-0.224258
 11
52.0969
 21
-0.104126
  0
LINE
  8
0
 10
52.0969
 20
-0.104126
 11
52.3274
 21
-0.0106201
  0
LINE
  8
0
 10
52.3274
 20
-0.0106201
 11
52.5674
 21
0.0549622
  0
LINE
  8
0
 10
52.5674
 20
0.0549622
 11
52.8135
 21
0.0916901
  0
LINE
  8
0
 10
52.8135
 20
0.0916901
 11
53.0622
 21
0.0990753
  0
LINE
  8
0
 10
53.0622
 20
0.0990753
 11
53.31
 21
0.0769806
  0
LINE
  8
0
 10
53.31
 20
0.0769806
 11
53.5535
 21
0.0257263
  0
LINE
  8
0
 10
53.5535
 20
0.0257263
 11
53.7892
 21
-0.0539551
  0
LINE
  8
0
 10
53.7892
 20
-0.0539551
 11
54.0139
 21
-0.160965
  0
LINE
  8
0
 10
54.0139
 20
-0.160965
 11
54.2242
 21
-0.293793
  0
LINE
  8
0
 10
54.2242
 20
-0.293793
 11
54.4174
 21
-0.450562
  0
LINE
  8
0
 10
54.4174
 20
-0.450562
 11
54.5908
 21
-0.629074
  0
LINE
  8
0
 10
54.5908
 20
-0.629074
 11
54.7417
 21
-0.826843
  0
LINE
  8
0
 10
54.7417
 20
-0.826843
 11
54.8683
 21
-1.04109
  0
LINE
  8
0
 10
54.8683
 20
-1.04109
 11
54.9686
 21
-1.26878
  0
LINE
  8
0
 10
54.9686
 20
-1.26878
 11
55.0412
 21
-1.50674
  0
LINE
  8
0
 10
55.0412
 20
-1.50674
 11
55.0853
 21
-1.75163
  0
LINE
  8
0
 10
55.0853
 20
-1.75163
 11
55.1
 21
-2
  0
LINE
  8
0
 10
55.1
 20
-2
 11
55.0853
 21
-2.24838
  0
LINE
  8
0
 10
55.0853
 20
-2.24838
 11
55.0412
 21
-2.49327
  0
LINE
  8
0
 10
55.0412
 20
-2.49327
 11
54.9686
 21
-2.73123
  0
LINE
  8
0
 10
54.9686
 20
-2.73123
 11
54.8683
 21
-2.95892
  0
LINE
  8
0
 10
54.8683
 20
-2.95892
 11
54.7417
 21
-3.17317
  0
LINE
  8
0
 10
54.7417
 20
-3.17317
 11
54.5908
 21
-3.37094
  0
LINE
  8
0
 10
54.5908
 20
-3.37094
 11
54.4174
 21
-3.54945
  0
LINE
  8
0
 10
54.4174
 20
-3.54945
 11
54.2242
 21
-3.70622
  0
LINE
  8
0
 10
54.2242
 20
-3.70622
 11
54.0139
 21
-3.83905
  0
LINE
  8
0
 10
54.0139
 20
-3.83905
 11
53.7892
 21
-3.94606
  0
LINE
  8
0
 10
53.7892
 20
-3.94606
 11
53.5535
 21
-4.02574
  0
LINE
  8
0
 10
53.5535
 20
-4.02574
 11
53.31
 21
-4.077
  0
LINE
  8
0
 10
53.31
 20
-4.077
 11
53.0622
 21
-4.09909
  0
LINE
  8
0
 10
53.0622
 20
-4.09909
 11
52.8135
 21
-4.09171
  0
LINE
  8
0
 10
-53.1865
 20
-4.09171
 11
-53.4325
 21
-4.05498
  0
LINE
  8
0
 10
-53.4325
 20
-4.05498
 11
-53.6726
 21
-3.9894
  0
LINE
  8
0
 10
-53.6726
 20
-3.9894
 11
-53.9031
 21
-3.89589
  0
LINE
  8
0
 10
-53.9031
 20
-3.89589
 11
-54.121
 21
-3.77576
  0
LINE
  8
0
 10
-54.121
 20
-3.77576
 11
-54.3232
 21
-3.63071
  0
LINE
  8
0
 10
-54.3232
 20
-3.63071
 11
-54.5068
 21
-3.46277
  0
LINE
  8
0
 10
-54.5068
 20
-3.46277
 11
-54.6692
 21
-3.27429
  0
LINE
  8
0
 10
-54.6692
 20
-3.27429
 11
-54.8082
 21
-3.06792
  0
LINE
  8
0
 10
-54.8082
 20
-3.06792
 11
-54.9218
 21
-2.84657
  0
LINE
  8
0
 10
-54.9218
 20
-2.84657
 11
-55.0084
 21
-2.61333
  0
LINE
  8
0
 10
-55.0084
 20
-2.61333
 11
-55.0669
 21
-2.37148
  0
LINE
  8
0
 10
-55.0669
 20
-2.37148
 11
-55.0963
 21
-2.12442
  0
LINE
  8
0
 10
-55.0963
 20
-2.12442
 11
-55.0963
 21
-1.8756
  0
LINE
  8
0
 10
-55.0963
 20
-1.8756
 11
-55.0669
 21
-1.62854
  0
LINE
  8
0
 10
-55.0669
 20
-1.62854
 11
-55.0084
 21
-1.38669
  0
LINE
  8
0
 10
-55.0084
 20
-1.38669
 11
-54.9218
 21
-1.15344
  0
LINE
  8
0
 10
-54.9218
 20
-1.15344
 11
-54.8082
 21
-0.932098
  0
LINE
  8
0
 10
-54.8082
 20
-0.932098
 11
-54.6692
 21
-0.725723
  0
LINE
  8
0
 10
-54.6692
 20
-0.725723
 11
-54.5068
 21
-0.537247
  0
LINE
  8
0
 10
-54.5068
 20
-0.537247
 11
-54.3232
 21
-0.369308
  0
LINE
  8
0
 10
-54.3232
 20
-0.369308
 11
-54.121
 21
-0.224258
  0
LINE
  8
0
 10
-54.121
 20
-0.224258
 11
-53.9031
 21
-0.104126
  0
LINE
  8
0
 10
-53.9031
 20
-0.104126
 11
-53.6726
 21
-0.0106201
  0
LINE
  8
0
 10
-53.6726
 20
-0.0106201
 11
-53.4325
 21
0.0549622
  0
LINE
  8
0
 10
-53.4325
 20
0.0549622
 11
-53.1865
 21
0.0916901
  0
LINE
  8
0
 10
-53.1865
 20
0.0916901
 11
-52.9378
 21
0.0990753
  0
LINE
  8
0
 10
-52.9378
 20
0.0990753
 11
-52.6899
 21
0.0769806
  0
LINE
  8
0
 10
-52.6899
 20
0.0769806
 11
-52.4465
 21
0.0257263
  0
LINE
  8
0
 10
-52.4465
 20
0.0257263
 11
-52.2108
 21
-0.0539551
  0
LINE
  8
0
 10
-52.2108
 20
-0.0539551
 11
-51.9861
 21
-0.160965
  0
LINE
  8
0
 10
-51.9861
 20
-0.160965
 11
-51.7757
 21
-0.293793
  0
LINE
  8
0
 10
-51.7757
 20
-0.293793
 11
-51.5825
 21
-0.450562
  0
LINE
  8
0
 10
-51.5825
 20
-0.450562
 11
-51.4092
 21
-0.629074
  0
LINE
  8
0
 10
-51.4092
 20
-0.629074
 11
-51.2582
 21
-0.826843
  0
LINE
  8
0
 10
-51.2582
 20
-0.826843
 11
-51.1317
 21
-1.04109
  0
LINE
  8
0
 10
-51.1317
 20
-1.04109
 11
-51.0314
 21
-1.26878
  0
LINE
  8
0
 10
-51.0314
 20
-1.26878
 11
-50.9587
 21
-1.50674
  0
LINE
  8
0
 10
-50.9587
 20
-1.50674
 11
-50.9147
 21
-1.75163
  0
LINE
  8
0
 10
-50.9147
 20
-1.75163
 11
-50.9
 21
-2
  0
LINE
  8
0
 10
-50.9
 20
-2
 11
-50.9147
 21
-2.24838
  0
LINE
  8
0
 10
-50.9147
 20
-2.24838
 11
-50.9587
 21
-2.49327
  0
LINE
  8
0
 10
-50.9587
 20
-2.49327
 11
-51.0314
 21
-2.73123
  0
LINE
  8
0
 10
-51.0314
 20
-2.73123
 11
-51.1317
 21
-2.95892
  0
LINE
  8
0
 10
-51.1317
 20
-2.95892
 11
-51.2582
 21
-3.17317
  0
LINE
  8
0
 10
-51.2582
 20
-3.17317
 11
-51.4092
 21
-3.37094
  0
LINE
  8
0
 10
-51.4092
 20
-3.37094
 11
-51.5825
 21
-3.54945
  0
LINE
  8
0
 10
-51.5825
 20
-3.54945
 11
-51.7757
 21
-3.70622
  0
LINE
  8
0
 10
-51.7757
 20
-3.70622
 11
-51.9861
 21
-3.83905
  0
LINE
  8
0
 10
-51.9861
 20
-3.83905
 11
-52.2108
 21
-3.94606
  0
LINE
  8
0
 10
-52.2108
 20
-3.94606
 11
-52.4465
 21
-4.02574
  0
LINE
  8
0
 10
-52.4465
 20
-4.02574
 11
-52.6899
 21
-4.077
  0
LINE
  8
0
 10
-52.6899
 20
-4.077
 11
-52.9378
 21
-4.09909
  0
LINE
  8
0
 10
-52.9378
 20
-4.09909
 11
-53.1865
 21
-4.09171
  0
LINE
  8
0
 10
-27.1865
 20
-4.09171
 11
-27.4326
 21
-4.05498
  0
LINE
  8
0
 10
-27.4326
 20
-4.05498
 11
-27.6726
 21
-3.9894
  0
LINE
  8
0
 10
-27.6726
 20
-3.9894
 11
-27.9031
 21
-3.89589
  0
LINE
  8
0
 10
-27.9031
 20
-3.89589
 11
-28.121
 21
-3.77576
  0
LINE
  8
0
 10
-28.121
 20
-3.77576
 11
-28.3232
 21
-3.63071
  0
LINE
  8
0
 10
-28.3232
 20
-3.63071
 11
-28.5068
 21
-3.46277
  0
LINE
  8
0
 10
-28.5068
 20
-3.46277
 11
-28.6692
 21
-3.27429
  0
LINE
  8
0
 10
-28.6692
 20
-3.27429
 11
-28.8082
 21
-3.06792
  0
LINE
  8
0
 10
-28.8082
 20
-3.06792
 11
-28.9218
 21
-2.84657
  0
LINE
  8
0
 10
-28.9218
 20
-2.84657
 11
-29.0085
 21
-2.61333
  0
LINE
  8
0
 10
-29.0085
 20
-2.61333
 11
-29.0669
 21
-2.37148
  0
LINE
  8
0
 10
-29.0669
 20
-2.37148
 11
-29.0963
 21
-2.12442
  0
LINE
  8
0
 10
-29.0963
 20
-2.12442
 11
-29.0963
 21
-1.8756
  0
LINE
  8
0
 10
-29.0963
 20
-1.8756
 11
-29.0669
 21
-1.62854
  0
LINE
  8
0
 10
-29.0669
 20
-1.62854
 11
-29.0085
 21
-1.38669
  0
LINE
  8
0
 10
-29.0085
 20
-1.38669
 11
-28.9218
 21
-1.15344
  0
LINE
  8
0
 10
-28.9218
 20
-1.15344
 11
-28.8082
 21
-0.932098
  0
LINE
  8
0
 10
-28.8082
 20
-0.932098
 11
-28.6692
 21
-0.725723
  0
LINE
  8
0
 10
-28.6692
 20
-0.725723
 11
-28.5068
 21
-0.537247
  0
LINE
  8
0
 10
-28.5068
 20
-0.537247
 11
-28.3232
 21
-0.369308
  0
LINE
  8
0
 10
-28.3232
 20
-0.369308
 11
-28.121
 21
-0.224258
  0
LINE
  8
0
 10
-28.121
 20
-0.224258
 11
-27.9031
 21
-0.104126
  0
LINE
  8
0
 10
-27.9031
 20
-0.104126
 11
-27.6726
 21
-0.0106201
  0
LINE
  8
0
 10
-27.6726
 20
-0.0106201
 11
-27.4326
 21
0.0549622
  0
LINE
  8
0
 10
-27.4326
 20
0.0549622
 11
-27.1865
 21
0.0916901
  0
LINE
  8
0
 10
-27.1865
 20
0.0916901
 11
-26.9378
 21
0.0990753
  0
LINE
  8
0
 10
-26.9378
 20
0.0990753
 11
-26.69
 21
0.0769806
  0
LINE
  8
0
 10
-26.69
 20
0.0769806
 11
-26.4465
 21
0.0257263
  0
LINE
  8
0
 10
-26.4465
 20
0.0257263
 11
-26.2108
 21
-0.0539551
  0
LINE
  8
0
 10
-26.2108
 20
-0.0539551
 11
-25.9861
 21
-0.160965
  0
LINE
  8
0
 10
-25.9861
 20
-0.160965
 11
-25.7758
 21
-0.293793
  0
LINE
  8
0
 10
-25.7758
 20
-0.293793
 11
-25.5826
 21
-0.450562
  0
LINE
  8
0
 10
-25.5826
 20
-0.450562
 11
-25.4092
 21
-0.629074
  0
LINE
  8
0
 10
-25.4092
 20
-0.629074
 11
-25.2583
 21
-0.826843
  0
LINE
  8
0
 10
-25.2583
 20
-0.826843
 11
-25.1317
 21
-1.04109
  0
LINE
  8
0
 10
-25.1317
 20
-1.04109
 11
-25.0314
 21
-1.26878
  0
LINE
  8
0
 10
-25.0314
 20
-1.26878
 11
-24.9588
 21
-1.50674
  0
LINE
  8
0
 10
-24.9588
 20
-1.50674
 11
-24.9147
 21
-1.75163
  0
LINE
  8
0
 10
-24.9147
 20
-1.75163
 11
-24.9
 21
-2
  0
LINE
  8
0
 10
-24.9
 20
-2
 11
-24.9147
 21
-2.24838
  0
LINE
  8
0
 10
-24.9147
 20
-2.24838
 11
-24.9588
 21
-2.49327
  0
LINE
  8
0
 10
-24.9588
 20
-2.49327
 11
-25.0314
 21
-2.73123
  0
LINE
  8
0
 10
-25.0314
 20
-2.73123
 11
-25.1317
 21
-2.95892
  0
LINE
  8
0
 10
-25.1317
 20
-2.95892
 11
-25.2583
 21
-3.17317
  0
LINE
  8
0
 10
-25.2583
 20
-3.17317
 11
-25.4092
 21
-3.37094
  0
LINE
  8
0
 10
-25.4092
 20
-3.37094
 11
-25.5826
 21
-3.54945
  0
LINE
  8
0
 10
-25.5826
 20
-3.54945
 11
-25.7758
 21
-3.70622
  0
LINE
  8
0
 10
-25.7758
 20
-3.70622
 11
-25.9861
 21
-3.83905
  0
LINE
  8
0
 10
-25.9861
 20
-3.83905
 11
-26.2108
 21
-3.94606
  0
LINE
  8
0
 10
-26.2108
 20
-3.94606
 11
-26.4465
 21
-4.02574
  0
LINE
  8
0
 10
-26.4465
 20
-4.02574
 11
-26.69
 21
-4.077
  0
LINE
  8
0
 10
-26.69
 20
-4.077
 11
-26.9378
 21
-4.09909
  0
LINE
  8
0
 10
-26.9378
 20
-4.09909
 11
-27.1865
 21
-4.09171
  0
LINE
  8
0
 10
-14.1219
 20
-21.0429
 11
-14.3591
 21
-20.9867
  0
LINE
  8
0
 10
-14.3591
 20
-20.9867
 11
-14.577
 21
-20.8773
  0
LINE
  8
0
 10
-14.577
 20
-20.8773
 11
-14.7637
 21
-20.7206
  0
LINE
  8
0
 10
-14.7637
 20
-20.7206
 11
-14.9093
 21
-20.525
  0
LINE
  8
0
 10
-14.9093
 20
-20.525
 11
-15.0059
 21
-20.3011
  0
LINE
  8
0
 10
-15.0059
 20
-20.3011
 11
-15.0482
 21
-20.0611
  0
LINE
  8
0
 10
-15.0482
 20
-20.0611
 11
-15.034
 21
-19.8177
  0
LINE
  8
0
 10
-15.034
 20
-19.8177
 11
-14.9641
 21
-19.5841
  0
LINE
  8
0
 10
-14.9641
 20
-19.5841
 11
-14.8422
 21
-19.373
  0
LINE
  8
0
 10
-14.8422
 20
-19.373
 11
-14.6749
 21
-19.1957
  0
LINE
  8
0
 10
-14.6749
 20
-19.1957
 11
-14.4712
 21
-19.0617
  0
LINE
  8
0
 10
-14.4712
 20
-19.0617
 11
-14.2421
 21
-18.9783
  0
LINE
  8
0
 10
-14.2421
 20
-18.9783
 11
-14
 21
-18.95
  0
LINE
  8
0
 10
-14
 20
-18.95
 11
-13.7579
 21
-18.9783
  0
LINE
  8
0
 10
-13.7579
 20
-18.9783
 11
-13.5288
 21
-19.0617
  0
LINE
  8
0
 10
-13.5288
 20
-19.0617
 11
-13.3251
 21
-19.1957
  0
LINE
  8
0
 10
-13.3251
 20
-19.1957
 11
-13.1578
 21
-19.373
  0
LINE
  8
0
 10
-13.1578
 20
-19.373
 11
-13.0359
 21
-19.5841
  0
LINE
  8
0
 10
-13.0359
 20
-19.5841
 11
-12.966
 21
-19.8177
  0
LINE
  8
0
 10
-12.966
 20
-19.8177
 11
-12.9518
 21
-20.0611
  0
LINE
  8
0
 10
-12.9518
 20
-20.0611
 11
-12.9941
 21
-20.3011
  0
LINE
  8
0
 10
-12.9941
 20
-20.3011
 11
-13.0907
 21
-20.525
  0
LINE
  8
0
 10
-13.0907
 20
-20.525
 11
-13.2363
 21
-20.7206
  0
LINE
  8
0
 10
-13.2363
 20
-20.7206
 11
-13.423
 21
-20.8773
  0
LINE
  8
0
 10
-13.423
 20
-20.8773
 11
-13.6409
 21
-20.9867
  0
LINE
  8
0
 10
-13.6409
 20
-20.9867
 11
-13.8781
 21
-21.0429
  0
LINE
  8
0
 10
-13.8781
 20
-21.0429
 11
-14.1219
 21
-21.0429
  0
LINE
  8
0
 10
13.8781
 20
-21.0429
 11
13.6409
 21
-20.9867
  0
LINE
  8
0
 10
13.6409
 20
-20.9867
 11
13.423
 21
-20.8773
  0
LINE
  8
0
 10
13.423
 20
-20.8773
 11
13.2363
 21
-20.7206
  0
LINE
  8
0
 10
13.2363
 20
-20.7206
 11
13.0907
 21
-20.525
  0
LINE
  8
0
 10
13.0907
 20
-20.525
 11
12.9941
 21
-20.3011
  0
LINE
  8
0
 10
12.9941
 20
-20.3011
 11
12.9518
 21
-20.0611
  0
LINE
  8
0
 10
12.9518
 20
-20.0611
 11
12.966
 21
-19.8177
  0
LINE
  8
0
 10
12.966
 20
-19.8177
 11
13.0359
 21
-19.5841
  0
LINE
  8
0
 10
13.0359
 20
-19.5841
 11
13.1578
 21
-19.373
  0
LINE
  8
0
 10
13.1578
 20
-19.373
 11
13.3251
 21
-19.1957
  0
LINE
  8
0
 10
13.3251
 20
-19.1957
 11
13.5288
 21
-19.0617
  0
LINE
  8
0
 10
13.5288
 20
-19.0617
 11
13.7579
 21
-18.9783
  0
LINE
  8
0
 10
13.7579
 20
-18.9783
 11
14
 21
-18.95
  0
LINE
  8
0
 10
14
 20
-18.95
 11
14.2421
 21
-18.9783
  0
LINE
  8
0
 10
14.2421
 20
-18.9783
 11
14.4712
 21
-19.0617
  0
LINE
  8
0
 10
14.4712
 20
-19.0617
 11
14.6749
 21
-19.1957
  0
LINE
  8
0
 10
14.6749
 20
-19.1957
 11
14.8422
 21
-19.373
  0
LINE
  8
0
 10
14.8422
 20
-19.373
 11
14.9641
 21
-19.5841
  0
LINE
  8
0
 10
14.9641
 20
-19.5841
 11
15.034
 21
-19.8177
  0
LINE
  8
0
 10
15.034
 20
-19.8177
 11
15.0482
 21
-20.0611
  0
LINE
  8
0
 10
15.0482
 20
-20.0611
 11
15.0059
 21
-20.3011
  0
LINE
  8
0
 10
15.0059
 20
-20.3011
 11
14.9093
 21
-20.525
  0
LINE
  8
0
 10
14.9093
 20
-20.525
 11
14.7637
 21
-20.7206
  0
LINE
  8
0
 10
14.7637
 20
-20.7206
 11
14.577
 21
-20.8773
  0
LINE
  8
0
 10
14.577
 20
-20.8773
 11
14.3591
 21
-20.9867
  0
LINE
  8
0
 10
14.3591
 20
-20.9867
 11
14.1219
 21
-21.0429
  0
LINE
  8
0
 10
14.1219
 20
-21.0429
 11
13.8781
 21
-21.0429
  0
LINE
  8
0
 10
52.8135
 20
-30.0917
 11
52.5674
 21
-30.055
  0
LINE
  8
0
 10
52.5674
 20
-30.055
 11
52.3274
 21
-29.9894
  0
LINE
  8
0
 10
52.3274
 20
-29.9894
 11
52.0969
 21
-29.8959
  0
LINE
  8
0
 10
52.0969
 20
-29.8959
 11
51.879
 21
-29.7757
  0
LINE
  8
0
 10
51.879
 20
-29.7757
 11
51.6768
 21
-29.6307
  0
LINE
  8
0
 10
51.6768
 20
-29.6307
 11
51.4932
 21
-29.4628
  0
LINE
  8
0
 10
51.4932
 20
-29.4628
 11
51.3308
 21
-29.2743
  0
LINE
  8
0
 10
51.3308
 20
-29.2743
 11
51.1918
 21
-29.0679
  0
LINE
  8
0
 10
51.1918
 20
-29.0679
 11
51.0782
 21
-28.8466
  0
LINE
  8
0
 10
51.0782
 20
-28.8466
 11
50.9915
 21
-28.6133
  0
LINE
  8
0
 10
50.9915
 20
-28.6133
 11
50.9331
 21
-28.3715
  0
LINE
  8
0
 10
50.9331
 20
-28.3715
 11
50.9037
 21
-28.1244
  0
LINE
  8
0
 10
50.9037
 20
-28.1244
 11
50.9037
 21
-27.8756
  0
LINE
  8
0
 10
50.9037
 20
-27.8756
 11
50.9331
 21
-27.6285
  0
LINE
  8
0
 10
50.9331
 20
-27.6285
 11
50.9915
 21
-27.3867
  0
LINE
  8
0
 10
50.9915
 20
-27.3867
 11
51.0782
 21
-27.1534
  0
LINE
  8
0
 10
51.0782
 20
-27.1534
 11
51.1918
 21
-26.9321
  0
LINE
  8
0
 10
51.1918
 20
-26.9321
 11
51.3308
 21
-26.7257
  0
LINE
  8
0
 10
51.3308
 20
-26.7257
 11
51.4932
 21
-26.5372
  0
LINE
  8
0
 10
51.4932
 20
-26.5372
 11
51.6768
 21
-26.3693
  0
LINE
  8
0
 10
51.6768
 20
-26.3693
 11
51.879
 21
-26.2242
  0
LINE
  8
0
 10
51.879
 20
-26.2242
 11
52.0969
 21
-26.1041
  0
LINE
  8
0
 10
52.0969
 20
-26.1041
 11
52.3274
 21
-26.0106
  0
LINE
  8
0
 10
52.3274
 20
-26.0106
 11
52.5674
 21
-25.945
  0
LINE
  8
0
 10
52.5674
 20
-25.945
 11
52.8135
 21
-25.9083
  0
LINE
  8
0
 10
52.8135
 20
-25.9083
 11
53.0622
 21
-25.9009
  0
LINE
  8
0
 10
53.0622
 20
-25.9009
 11
53.31
 21
-25.923
  0
LINE
  8
0
 10
53.31
 20
-25.923
 11
53.5535
 21
-25.9743
  0
LINE
  8
0
 10
53.5535
 20
-25.9743
 11
53.7892
 21
-26.0539
  0
LINE
  8
0
 10
53.7892
 20
-26.0539
 11
54.0139
 21
-26.1609
  0
LINE
  8
0
 10
54.0139
 20
-26.1609
 11
54.2242
 21
-26.2938
  0
LINE
  8
0
 10
54.2242
 20
-26.2938
 11
54.4174
 21
-26.4505
  0
LINE
  8
0
 10
54.4174
 20
-26.4505
 11
54.5908
 21
-26.6291
  0
LINE
  8
0
 10
54.5908
 20
-26.6291
 11
54.7417
 21
-26.8268
  0
LINE
  8
0
 10
54.7417
 20
-26.8268
 11
54.8683
 21
-27.0411
  0
LINE
  8
0
 10
54.8683
 20
-27.0411
 11
54.9686
 21
-27.2688
  0
LINE
  8
0
 10
54.9686
 20
-27.2688
 11
55.0412
 21
-27.5067
  0
LINE
  8
0
 10
55.0412
 20
-27.5067
 11
55.0853
 21
-27.7516
  0
LINE
  8
0
 10
55.0853
 20
-27.7516
 11
55.1
 21
-28
  0
LINE
  8
0
 10
55.1
 20
-28
 11
55.0853
 21
-28.2484
  0
LINE
  8
0
 10
55.0853
 20
-28.2484
 11
55.0412
 21
-28.4933
  0
LINE
  8
0
 10
55.0412
 20
-28.4933
 11
54.9686
 21
-28.7312
  0
LINE
  8
0
 10
54.9686
 20
-28.7312
 11
54.8683
 21
-28.9589
  0
LINE
  8
0
 10
54.8683
 20
-28.9589
 11
54.7417
 21
-29.1732
  0
LINE
  8
0
 10
54.7417
 20
-29.1732
 11
54.5908
 21
-29.3709
  0
LINE
  8
0
 10
54.5908
 20
-29.3709
 11
54.4174
 21
-29.5494
  0
LINE
  8
0
 10
54.4174
 20
-29.5494
 11
54.2242
 21
-29.7062
  0
LINE
  8
0
 10
54.2242
 20
-29.7062
 11
54.0139
 21
-29.839
  0
LINE
  8
0
 10
54.0139
 20
-29.839
 11
53.7892
 21
-29.946
  0
LINE
  8
0
 10
53.7892
 20
-29.946
 11
53.5535
 21
-30.0257
  0
LINE
  8
0
 10
53.5535
 20
-30.0257
 11
53.31
 21
-30.077
  0
LINE
  8
0
 10
53.31
 20
-30.077
 11
53.0622
 21
-30.0991
  0
LINE
  8
0
 10
53.0622
 20
-30.0991
 11
52.8135
 21
-30.0917
  0
LINE
  8
0
 10
-27.1865
 20
-30.0917
 11
-27.4326
 21
-30.055
  0
LINE
  8
0
 10
-27.4326
 20
-30.055
 11
-27.6726
 21
-29.9894
  0
LINE
  8
0
 10
-27.6726
 20
-29.9894
 11
-27.9031
 21
-29.8959
  0
LINE
  8
0
 10
-27.9031
 20
-29.8959
 11
-28.121
 21
-29.7757
  0
LINE
  8
0
 10
-28.121
 20
-29.7757
 11
-28.3232
 21
-29.6307
  0
LINE
  8
0
 10
-28.3232
 20
-29.6307
 11
-28.5068
 21
-29.4628
  0
LINE
  8
0
 10
-28.5068
 20
-29.4628
 11
-28.6692
 21
-29.2743
  0
LINE
  8
0
 10
-28.6692
 20
-29.2743
 11
-28.8082
 21
-29.0679
  0
LINE
  8
0
 10
-28.8082
 20
-29.0679
 11
-28.9218
 21
-28.8466
  0
LINE
  8
0
 10
-28.9218
 20
-28.8466
 11
-29.0085
 21
-28.6133
  0
LINE
  8
0
 10
-29.0085
 20
-28.6133
 11
-29.0669
 21
-28.3715
  0
LINE
  8
0
 10
-29.0669
 20
-28.3715
 11
-29.0963
 21
-28.1244
  0
LINE
  8
0
 10
-29.0963
 20
-28.1244
 11
-29.0963
 21
-27.8756
  0
LINE
  8
0
 10
-29.0963
 20
-27.8756
 11
-29.0669
 21
-27.6285
  0
LINE
  8
0
 10
-29.0669
 20
-27.6285
 11
-29.0085
 21
-27.3867
  0
LINE
  8
0
 10
-29.0085
 20
-27.3867
 11
-28.9218
 21
-27.1534
  0
LINE
  8
0
 10
-28.9218
 20
-27.1534
 11
-28.8082
 21
-26.9321
  0
LINE
  8
0
 10
-28.8082
 20
-26.9321
 11
-28.6692
 21
-26.7257
  0
LINE
  8
0
 10
-28.6692
 20
-26.7257
 11
-28.5068
 21
-26.5372
  0
LINE
  8
0
 10
-28.5068
 20
-26.5372
 11
-28.3232
 21
-26.3693
  0
LINE
  8
0
 10
-28.3232
 20
-26.3693
 11
-28.121
 21
-26.2242
  0
LINE
  8
0
 10
-28.121
 20
-26.2242
 11
-27.9031
 21
-26.1041
  0
LINE
  8
0
 10
-27.9031
 20
-26.1041
 11
-27.6726
 21
-26.0106
  0
LINE
  8
0
 10
-27.6726
 20
-26.0106
 11
-27.4326
 21
-25.945
  0
LINE
  8
0
 10
-27.4326
 20
-25.945
 11
-27.1865
 21
-25.9083
  0
LINE
  8
0
 10
-27.1865
 20
-25.9083
 11
-26.9378
 21
-25.9009
  0
LINE
  8
0
 10
-26.9378
 20
-25.9009
 11
-26.69
 21
-25.923
  0
LINE
  8
0
 10
-26.69
 20
-25.923
 11
-26.4465
 21
-25.9743
  0
LINE
  8
0
 10
-26.4465
 20
-25.9743
 11
-26.2108
 21
-26.0539
  0
LINE
  8
0
 10
-26.2108
 20
-26.0539
 11
-25.9861
 21
-26.1609
  0
LINE
  8
0
 10
-25.9861
 20
-26.1609
 11
-25.7758
 21
-26.2938
  0
LINE
  8
0
 10
-25.7758
 20
-26.2938
 11
-25.5826
 21
-26.4505
  0
LINE
  8
0
 10
-25.5826
 20
-26.4505
 11
-25.4092
 21
-26.6291
  0
LINE
  8
0
 10
-25.4092
 20
-26.6291
 11
-25.2583
 21
-26.8268
  0
LINE
  8
0
 10
-25.2583
 20
-26.8268
 11
-25.1317
 21
-27.0411
  0
LINE
  8
0
 10
-25.1317
 20
-27.0411
 11
-25.0314
 21
-27.2688
  0
LINE
  8
0
 10
-25.0314
 20
-27.2688
 11
-24.9588
 21
-27.5067
  0
LINE
  8
0
 10
-24.9588
 20
-27.5067
 11
-24.9147
 21
-27.7516
  0
LINE
  8
0
 10
-24.9147
 20
-27.7516
 11
-24.9
 21
-28
  0
LINE
  8
0
 10
-24.9
 20
-28
 11
-24.9147
 21
-28.2484
  0
LINE
  8
0
 10
-24.9147
 20
-28.2484
 11
-24.9588
 21
-28.4933
  0
LINE
  8
0
 10
-24.9588
 20
-28.4933
 11
-25.0314
 21
-28.7312
  0
LINE
  8
0
 10
-25.0314
 20
-28.7312
 11
-25.1317
 21
-28.9589
  0
LINE
  8
0
 10
-25.1317
 20
-28.9589
 11
-25.2583
 21
-29.1732
  0
LINE
  8
0
 10
-25.2583
 20
-29.1732
 11
-25.4092
 21
-29.3709
  0
LINE
  8
0
 10
-25.4092
 20
-29.3709
 11
-25.5826
 21
-29.5494
  0
LINE
  8
0
 10
-25.5826
 20
-29.5494
 11
-25.7758
 21
-29.7062
  0
LINE
  8
0
 10
-25.7758
 20
-29.7062
 11
-25.9861
 21
-29.839
  0
LINE
  8
0
 10
-25.9861
 20
-29.839
 11
-26.2108
 21
-29.946
  0
LINE
  8
0
 10
-26.2108
 20
-29.946
 11
-26.4465
 21
-30.0257
  0
LINE
  8
0
 10
-26.4465
 20
-30.0257
 11
-26.69
 21
-30.077
  0
LINE
  8
0
 10
-26.69
 20
-30.077
 11
-26.9378
 21
-30.0991
  0
LINE
  8
0
 10
-26.9378
 20
-30.0991
 11
-27.1865
 21
-30.0917
  0
LINE
  8
0
 10
-53.1865
 20
-30.0917
 11
-53.4325
 21
-30.055
  0
LINE
  8
0
 10
-53.4325
 20
-30.055
 11
-53.6726
 21
-29.9894
  0
LINE
  8
0
 10
-53.6726
 20
-29.9894
 11
-53.9031
 21
-29.8959
  0
LINE
  8
0
 10
-53.9031
 20
-29.8959
 11
-54.121
 21
-29.7757
  0
LINE
  8
0
 10
-54.121
 20
-29.7757
 11
-54.3232
 21
-29.6307
  0
LINE
  8
0
 10
-54.3232
 20
-29.6307
 11
-54.5068
 21
-29.4628
  0
LINE
  8
0
 10
-54.5068
 20
-29.4628
 11
-54.6692
 21
-29.2743
  0
LINE
  8
0
 10
-54.6692
 20
-29.2743
 11
-54.8082
 21
-29.0679
  0
LINE
  8
0
 10
-54.8082
 20
-29.0679
 11
-54.9218
 21
-28.8466
  0
LINE
  8
0
 10
-54.9218
 20
-28.8466
 11
-55.0084
 21
-28.6133
  0
LINE
  8
0
 10
-55.0084
 20
-28.6133
 11
-55.0669
 21
-28.3715
  0
LINE
  8
0
 10
-55.0669
 20
-28.3715
 11
-55.0963
 21
-28.1244
  0
LINE
  8
0
 10
-55.0963
 20
-28.1244
 11
-55.0963
 21
-27.8756
  0
LINE
  8
0
 10
-55.0963
 20
-27.8756
 11
-55.0669
 21
-27.6285
  0
LINE
  8
0
 10
-55.0669
 20
-27.6285
 11
-55.0084
 21
-27.3867
  0
LINE
  8
0
 10
-55.0084
 20
-27.3867
 11
-54.9218
 21
-27.1534
  0
LINE
  8
0
 10
-54.9218
 20
-27.1534
 11
-54.8082
 21
-26.9321
  0
LINE
  8
0
 10
-54.8082
 20
-26.9321
 11
-54.6692
 21
-26.7257
  0
LINE
  8
0
 10
-54.6692
 20
-26.7257
 11
-54.5068
 21
-26.5372
  0
LINE
  8
0
 10
-54.5068
 20
-26.5372
 11
-54.3232
 21
-26.3693
  0
LINE
  8
0
 10
-54.3232
 20
-26.3693
 11
-54.121
 21
-26.2242
  0
LINE
  8
0
 10
-54.121
 20
-26.2242
 11
-53.9031
 21
-26.1041
  0
LINE
  8
0
 10
-53.9031
 20
-26.1041
 11
-53.6726
 21
-26.0106
  0
LINE
  8
0
 10
-53.6726
 20
-26.0106
 11
-53.4325
 21
-25.945
  0
LINE
  8
0
 10
-53.4325
 20
-25.945
 11
-53.1865
 21
-25.9083
  0
LINE
  8
0
 10
-53.1865
 20
-25.9083
 11
-52.9378
 21
-25.9009
  0
LINE
  8
0
 10
-52.9378
 20
-25.9009
 11
-52.6899
 21
-25.923
  0
LINE
  8
0
 10
-52.6899
 20
-25.923
 11
-52.4465
 21
-25.9743
  0
LINE
  8
0
 10
-52.4465
 20
-25.9743
 11
-52.2108
 21
-26.0539
  0
LINE
  8
0
 10
-52.2108
 20
-26.0539
 11
-51.9861
 21
-26.1609
  0
LINE
  8
0
 10
-51.9861
 20
-26.1609
 11
-51.7757
 21
-26.2938
  0
LINE
  8
0
 10
-51.7757
 20
-26.2938
 11
-51.5825
 21
-26.4505
  0
LINE
  8
0
 10
-51.5825
 20
-26.4505
 11
-51.4092
 21
-26.6291
  0
LINE
  8
0
 10
-51.4092
 20
-26.6291
 11
-51.2582
 21
-26.8268
  0
LINE
  8
0
 10
-51.2582
 20
-26.8268
 11
-51.1317
 21
-27.0411
  0
LINE
  8
0
 10
-51.1317
 20
-27.0411
 11
-51.0314
 21
-27.2688
  0
LINE
  8
0
 10
-51.0314
 20
-27.2688
 11
-50.9587
 21
-27.5067
  0
LINE
  8
0
 10
-50.9587
 20
-27.5067
 11
-50.9147
 21
-27.7516
  0
LINE
  8
0
 10
-50.9147
 20
-27.7516
 11
-50.9
 21
-28
  0
LINE
  8
0
 10
-50.9
 20
-28
 11
-50.9147
 21
-28.2484
  0
LINE
  8
0
 10
-50.9147
 20
-28.2484
 11
-50.9587
 21
-28.4933
  0
LINE
  8
0
 10
-50.9587
 20
-28.4933
 11
-51.0314
 21
-28.7312
  0
LINE
  8
0
 10
-51.0314
 20
-28.7312
 11
-51.1317
 21
-28.9589
  0
LINE
  8
0
 10
-51.1317
 20
-28.9589
 11
-51.2582
 21
-29.1732
  0
LINE
  8
0
 10
-51.2582
 20
-29.1732
 11
-51.4092
 21
-29.3709
  0
LINE
  8
0
 10
-51.4092
 20
-29.3709
 11
-51.5825
 21
-29.5494
  0
LINE
  8
0
 10
-51.5825
 20
-29.5494
 11
-51.7757
 21
-29.7062
  0
LINE
  8
0
 10
-51.7757
 20
-29.7062
 11
-51.9861
 21
-29.839
  0
LINE
  8
0
 10
-51.9861
 20
-29.839
 11
-52.2108
 21
-29.946
  0
LINE
  8
0
 10
-52.2108
 20
-29.946
 11
-52.4465
 21
-30.0257
  0
LINE
  8
0
 10
-52.4465
 20
-30.0257
 11
-52.6899
 21
-30.077
  0
LINE
  8
0
 10
-52.6899
 20
-30.077
 11
-52.9378
 21
-30.0991
  0
LINE
  8
0
 10
-52.9378
 20
-30.0991
 11
-53.1865
 21
-30.0917
  0
LINE
  8
0
 10
26.8135
 20
-30.0917
 11
26.5675
 21
-30.055
  0
LINE
  8
0
 10
26.5675
 20
-30.055
 11
26.3274
 21
-29.9894
  0
LINE
  8
0
 10
26.3274
 20
-29.9894
 11
26.0969
 21
-29.8959
  0
LINE
  8
0
 10
26.0969
 20
-29.8959
 11
25.879
 21
-29.7757
  0
LINE
  8
0
 10
25.879
 20
-29.7757
 11
25.6768
 21
-29.6307
  0
LINE
  8
0
 10
25.6768
 20
-29.6307
 11
25.4932
 21
-29.4628
  0
LINE
  8
0
 10
25.4932
 20
-29.4628
 11
25.3308
 21
-29.2743
  0
LINE
  8
0
 10
25.3308
 20
-29.2743
 11
25.1918
 21
-29.0679
  0
LINE
  8
0
 10
25.1918
 20
-29.0679
 11
25.0782
 21
-28.8466
  0
LINE
  8
0
 10
25.0782
 20
-28.8466
 11
24.9916
 21
-28.6133
  0
LINE
  8
0
 10
24.9916
 20
-28.6133
 11
24.9331
 21
-28.3715
  0
LINE
  8
0
 10
24.9331
 20
-28.3715
 11
24.9037
 21
-28.1244
  0
LINE
  8
0
 10
24.9037
 20
-28.1244
 11
24.9037
 21
-27.8756
  0
LINE
  8
0
 10
24.9037
 20
-27.8756
 11
24.9331
 21
-27.6285
  0
LINE
  8
0
 10
24.9331
 20
-27.6285
 11
24.9916
 21
-27.3867
  0
LINE
  8
0
 10
24.9916
 20
-27.3867
 11
25.0782
 21
-27.1534
  0
LINE
  8
0
 10
25.0782
 20
-27.1534
 11
25.1918
 21
-26.9321
  0
LINE
  8
0
 10
25.1918
 20
-26.9321
 11
25.3308
 21
-26.7257
  0
LINE
  8
0
 10
25.3308
 20
-26.7257
 11
25.4932
 21
-26.5372
  0
LINE
  8
0
 10
25.4932
 20
-26.5372
 11
25.6768
 21
-26.3693
  0
LINE
  8
0
 10
25.6768
 20
-26.3693
 11
25.879
 21
-26.2242
  0
LINE
  8
0
 10
25.879
 20
-26.2242
 11
26.0969
 21
-26.1041
  0
LINE
  8
0
 10
26.0969
 20
-26.1041
 11
26.3274
 21
-26.0106
  0
LINE
  8
0
 10
26.3274
 20
-26.0106
 11
26.5675
 21
-25.945
  0
LINE
  8
0
 10
26.5675
 20
-25.945
 11
26.8135
 21
-25.9083
  0
LINE
  8
0
 10
26.8135
 20
-25.9083
 11
27.0622
 21
-25.9009
  0
LINE
  8
0
 10
27.0622
 20
-25.9009
 11
27.3101
 21
-25.923
  0
LINE
  8
0
 10
27.3101
 20
-25.923
 11
27.5535
 21
-25.9743
  0
LINE
  8
0
 10
27.5535
 20
-25.9743
 11
27.7892
 21
-26.0539
  0
LINE
  8
0
 10
27.7892
 20
-26.0539
 11
28.0139
 21
-26.1609
  0
LINE
  8
0
 10
28.0139
 20
-26.1609
 11
28.2243
 21
-26.2938
  0
LINE
  8
0
 10
28.2243
 20
-26.2938
 11
28.4175
 21
-26.4505
  0
LINE
  8
0
 10
28.4175
 20
-26.4505
 11
28.5908
 21
-26.6291
  0
LINE
  8
0
 10
28.5908
 20
-26.6291
 11
28.7418
 21
-26.8268
  0
LINE
  8
0
 10
28.7418
 20
-26.8268
 11
28.8683
 21
-27.0411
  0
LINE
  8
0
 10
28.8683
 20
-27.0411
 11
28.9686
 21
-27.2688
  0
LINE
  8
0
 10
28.9686
 20
-27.2688
 11
29.0413
 21
-27.5067
  0
LINE
  8
0
 10
29.0413
 20
-27.5067
 11
29.0853
 21
-27.7516
  0
LINE
  8
0
 10
29.0853
 20
-27.7516
 11
29.1
 21
-28
  0
LINE
  8
0
 10
29.1
 20
-28
 11
29.0853
 21
-28.2484
  0
LINE
  8
0
 10
29.0853
 20
-28.2484
 11
29.0413
 21
-28.4933
  0
LINE
  8
0
 10
29.0413
 20
-28.4933
 11
28.9686
 21
-28.7312
  0
LINE
  8
0
 10
28.9686
 20
-28.7312
 11
28.8683
 21
-28.9589
  0
LINE
  8
0
 10
28.8683
 20
-28.9589
 11
28.7418
 21
-29.1732
  0
LINE
  8
0
 10
28.7418
 20
-29.1732
 11
28.5908
 21
-29.3709
  0
LINE
  8
0
 10
28.5908
 20
-29.3709
 11
28.4175
 21
-29.5494
  0
LINE
  8
0
 10
28.4175
 20
-29.5494
 11
28.2243
 21
-29.7062
  0
LINE
  8
0
 10
28.2243
 20
-29.7062
 11
28.0139
 21
-29.839
  0
LINE
  8
0
 10
28.0139
 20
-29.839
 11
27.7892
 21
-29.946
  0
LINE
  8
0
 10
27.7892
 20
-29.946
 11
27.5535
 21
-30.0257
  0
LINE
  8
0
 10
27.5535
 20
-30.0257
 11
27.3101
 21
-30.077
  0
LINE
  8
0
 10
27.3101
 20
-30.077
 11
27.0622
 21
-30.0991
  0
LINE
  8
0
 10
27.0622
 20
-30.0991
 11
26.8135
 21
-30.0917
  0
LINE
  8
0
 10
13.8781
 20
-36.0429
 11
13.6409
 21
-35.9867
  0
LINE
  8
0
 10
13.6409
 20
-35.9867
 11
13.423
 21
-35.8773
  0
LINE
  8
0
 10
13.423
 20
-35.8773
 11
13.2363
 21
-35.7206
  0
LINE
  8
0
 10
13.2363
 20
-35.7206
 11
13.0907
 21
-35.525
  0
LINE
  8
0
 10
13.0907
 20
-35.525
 11
12.9941
 21
-35.3011
  0
LINE
  8
0
 10
12.9941
 20
-35.3011
 11
12.9518
 21
-35.0611
  0
LINE
  8
0
 10
12.9518
 20
-35.0611
 11
12.966
 21
-34.8177
  0
LINE
  8
0
 10
12.966
 20
-34.8177
 11
13.0359
 21
-34.5841
  0
LINE
  8
0
 10
13.0359
 20
-34.5841
 11
13.1578
 21
-34.373
  0
LINE
  8
0
 10
13.1578
 20
-34.373
 11
13.3251
 21
-34.1957
  0
LINE
  8
0
 10
13.3251
 20
-34.1957
 11
13.5288
 21
-34.0617
  0
LINE
  8
0
 10
13.5288
 20
-34.0617
 11
13.7579
 21
-33.9783
  0
LINE
  8
0
 10
13.7579
 20
-33.9783
 11
14
 21
-33.95
  0
LINE
  8
0
 10
14
 20
-33.95
 11
14.2421
 21
-33.9783
  0
LINE
  8
0
 10
14.2421
 20
-33.9783
 11
14.4712
 21
-34.0617
  0
LINE
  8
0
 10
14.4712
 20
-34.0617
 11
14.6749
 21
-34.1957
  0
LINE
  8
0
 10
14.6749
 20
-34.1957
 11
14.8422
 21
-34.373
  0
LINE
  8
0
 10
14.8422
 20
-34.373
 11
14.9641
 21
-34.5841
  0
LINE
  8
0
 10
14.9641
 20
-34.5841
 11
15.034
 21
-34.8177
  0
LINE
  8
0
 10
15.034
 20
-34.8177
 11
15.0482
 21
-35.0611
  0
LINE
  8
0
 10
15.0482
 20
-35.0611
 11
15.0059
 21
-35.3011
  0
LINE
  8
0
 10
15.0059
 20
-35.3011
 11
14.9093
 21
-35.525
  0
LINE
  8
0
 10
14.9093
 20
-35.525
 11
14.7637
 21
-35.7206
  0
LINE
  8
0
 10
14.7637
 20
-35.7206
 11
14.577
 21
-35.8773
  0
LINE
  8
0
 10
14.577
 20
-35.8773
 11
14.3591
 21
-35.9867
  0
LINE
  8
0
 10
14.3591
 20
-35.9867
 11
14.1219
 21
-36.0429
  0
LINE
  8
0
 10
14.1219
 20
-36.0429
 11
13.8781
 21
-36.0429
  0
LINE
  8
0
 10
-14.1219
 20
-36.0429
 11
-14.3591
 21
-35.9867
  0
LINE
  8
0
 10
-14.3591
 20
-35.9867
 11
-14.577
 21
-35.8773
  0
LINE
  8
0
 10
-14.577
 20
-35.8773
 11
-14.7637
 21
-35.7206
  0
LINE
  8
0
 10
-14.7637
 20
-35.7206
 11
-14.9093
 21
-35.525
  0
LINE
  8
0
 10
-14.9093
 20
-35.525
 11
-15.0059
 21
-35.3011
  0
LINE
  8
0
 10
-15.0059
 20
-35.3011
 11
-15.0482
 21
-35.0611
  0
LINE
  8
0
 10
-15.0482
 20
-35.0611
 11
-15.034
 21
-34.8177
  0
LINE
  8
0
 10
-15.034
 20
-34.8177
 11
-14.9641
 21
-34.5841
  0
LINE
  8
0
 10
-14.9641
 20
-34.5841
 11
-14.8422
 21
-34.373
  0
LINE
  8
0
 10
-14.8422
 20
-34.373
 11
-14.6749
 21
-34.1957
  0
LINE
  8
0
 10
-14.6749
 20
-34.1957
 11
-14.4712
 21
-34.0617
  0
LINE
  8
0
 10
-14.4712
 20
-34.0617
 11
-14.2421
 21
-33.9783
  0
LINE
  8
0
 10
-14.2421
 20
-33.9783
 11
-14
 21
-33.95
  0
LINE
  8
0
 10
-14
 20
-33.95
 11
-13.7579
 21
-33.9783
  0
LINE
  8
0
 10
-13.7579
 20
-33.9783
 11
-13.5288
 21
-34.0617
  0
LINE
  8
0
 10
-13.5288
 20
-34.0617
 11
-13.3251
 21
-34.1957
  0
LINE
  8
0
 10
-13.3251
 20
-34.1957
 11
-13.1578
 21
-34.373
  0
LINE
  8
0
 10
-13.1578
 20
-34.373
 11
-13.0359
 21
-34.5841
  0
LINE
  8
0
 10
-13.0359
 20
-34.5841
 11
-12.966
 21
-34.8177
  0
LINE
  8
0
 10
-12.966
 20
-34.8177
 11
-12.9518
 21
-35.0611
  0
LINE
  8
0
 10
-12.9518
 20
-35.0611
 11
-12.9941
 21
-35.3011
  0
LINE
  8
0
 10
-12.9941
 20
-35.3011
 11
-13.0907
 21
-35.525
  0
LINE
  8
0
 10
-13.0907
 20
-35.525
 11
-13.2363
 21
-35.7206
  0
LINE
  8
0
 10
-13.2363
 20
-35.7206
 11
-13.423
 21
-35.8773
  0
LINE
  8
0
 10
-13.423
 20
-35.8773
 11
-13.6409
 21
-35.9867
  0
LINE
  8
0
 10
-13.6409
 20
-35.9867
 11
-13.8781
 21
-36.0429
  0
LINE
  8
0
 10
-13.8781
 20
-36.0429
 11
-14.1219
 21
-36.0429
  0
LINE
  8
0
 10
13.8781
 20
-51.0429
 11
13.6409
 21
-50.9867
  0
LINE
  8
0
 10
13.6409
 20
-50.9867
 11
13.423
 21
-50.8773
  0
LINE
  8
0
 10
13.423
 20
-50.8773
 11
13.2363
 21
-50.7206
  0
LINE
  8
0
 10
13.2363
 20
-50.7206
 11
13.0907
 21
-50.525
  0
LINE
  8
0
 10
13.0907
 20
-50.525
 11
12.9941
 21
-50.3011
  0
LINE
  8
0
 10
12.9941
 20
-50.3011
 11
12.9518
 21
-50.0611
  0
LINE
  8
0
 10
12.9518
 20
-50.0611
 11
12.966
 21
-49.8177
  0
LINE
  8
0
 10
12.966
 20
-49.8177
 11
13.0359
 21
-49.5841
  0
LINE
  8
0
 10
13.0359
 20
-49.5841
 11
13.1578
 21
-49.373
  0
LINE
  8
0
 10
13.1578
 20
-49.373
 11
13.3251
 21
-49.1957
  0
LINE
  8
0
 10
13.3251
 20
-49.1957
 11
13.5288
 21
-49.0617
  0
LINE
  8
0
 10
13.5288
 20
-49.0617
 11
13.7579
 21
-48.9783
  0
LINE
  8
0
 10
13.7579
 20
-48.9783
 11
14
 21
-48.95
  0
LINE
  8
0
 10
14
 20
-48.95
 11
14.2421
 21
-48.9783
  0
LINE
  8
0
 10
14.2421
 20
-48.9783
 11
14.4712
 21
-49.0617
  0
LINE
  8
0
 10
14.4712
 20
-49.0617
 11
14.6749
 21
-49.1957
  0
LINE
  8
0
 10
14.6749
 20
-49.1957
 11
14.8422
 21
-49.373
  0
LINE
  8
0
 10
14.8422
 20
-49.373
 11
14.9641
 21
-49.5841
  0
LINE
  8
0
 10
14.9641
 20
-49.5841
 11
15.034
 21
-49.8177
  0
LINE
  8
0
 10
15.034
 20
-49.8177
 11
15.0482
 21
-50.0611
  0
LINE
  8
0
 10
15.0482
 20
-50.0611
 11
15.0059
 21
-50.3011
  0
LINE
  8
0
 10
15.0059
 20
-50.3011
 11
14.9093
 21
-50.525
  0
LINE
  8
0
 10
14.9093
 20
-50.525
 11
14.7637
 21
-50.7206
  0
LINE
  8
0
 10
14.7637
 20
-50.7206
 11
14.577
 21
-50.8773
  0
LINE
  8
0
 10
14.577
 20
-50.8773
 11
14.3591
 21
-50.9867
  0
LINE
  8
0
 10
14.3591
 20
-50.9867
 11
14.1219
 21
-51.0429
  0
LINE
  8
0
 10
14.1219
 20
-51.0429
 11
13.8781
 21
-51.0429
  0
LINE
  8
0
 10
-14.1219
 20
-51.0429
 11
-14.3591
 21
-50.9867
  0
LINE
  8
0
 10
-14.3591
 20
-50.9867
 11
-14.577
 21
-50.8773
  0
LINE
  8
0
 10
-14.577
 20
-50.8773
 11
-14.7637
 21
-50.7206
  0
LINE
  8
0
 10
-14.7637
 20
-50.7206
 11
-14.9093
 21
-50.525
  0
LINE
  8
0
 10
-14.9093
 20
-50.525
 11
-15.0059
 21
-50.3011
  0
LINE
  8
0
 10
-15.0059
 20
-50.3011
 11
-15.0482
 21
-50.0611
  0
LINE
  8
0
 10
-15.0482
 20
-50.0611
 11
-15.034
 21
-49.8177
  0
LINE
  8
0
 10
-15.034
 20
-49.8177
 11
-14.9641
 21
-49.5841
  0
LINE
  8
0
 10
-14.9641
 20
-49.5841
 11
-14.8422
 21
-49.373
  0
LINE
  8
0
 10
-14.8422
 20
-49.373
 11
-14.6749
 21
-49.1957
  0
LINE
  8
0
 10
-14.6749
 20
-49.1957
 11
-14.4712
 21
-49.0617
  0
LINE
  8
0
 10
-14.4712
 20
-49.0617
 11
-14.2421
 21
-48.9783
  0
LINE
  8
0
 10
-14.2421
 20
-48.9783
 11
-14
 21
-48.95
  0
LINE
  8
0
 10
-14
 20
-48.95
 11
-13.7579
 21
-48.9783
  0
LINE
  8
0
 10
-13.7579
 20
-48.9783
 11
-13.5288
 21
-49.0617
  0
LINE
  8
0
 10
-13.5288
 20
-49.0617
 11
-13.3251
 21
-49.1957
  0
LINE
  8
0
 10
-13.3251
 20
-49.1957
 11
-13.1578
 21
-49.373
  0
LINE
  8
0
 10
-13.1578
 20
-49.373
 11
-13.0359
 21
-49.5841
  0
LINE
  8
0
 10
-13.0359
 20
-49.5841
 11
-12.966
 21
-49.8177
  0
LINE
  8
0
 10
-12.966
 20
-49.8177
 11
-12.9518
 21
-50.0611
  0
LINE
  8
0
 10
-12.9518
 20
-50.0611
 11
-12.9941
 21
-50.3011
  0
LINE
  8
0
 10
-12.9941
 20
-50.3011
 11
-13.0907
 21
-50.525
  0
LINE
  8
0
 10
-13.0907
 20
-50.525
 11
-13.2363
 21
-50.7206
  0
LINE
  8
0
 10
-13.2363
 20
-50.7206
 11
-13.423
 21
-50.8773
  0
LINE
  8
0
 10
-13.423
 20
-50.8773
 11
-13.6409
 21
-50.9867
  0
LINE
  8
0
 10
-13.6409
 20
-50.9867
 11
-13.8781
 21
-51.0429
  0
LINE
  8
0
 10
-13.8781
 20
-51.0429
 11
-14.1219
 21
-51.0429
  0
LINE
  8
0
 10
13.8781
 20
-66.0429
 11
13.6409
 21
-65.9867
  0
LINE
  8
0
 10
13.6409
 20
-65.9867
 11
13.423
 21
-65.8773
  0
LINE
  8
0
 10
13.423
 20
-65.8773
 11
13.2363
 21
-65.7206
  0
LINE
  8
0
 10
13.2363
 20
-65.7206
 11
13.0907
 21
-65.525
  0
LINE
  8
0
 10
13.0907
 20
-65.525
 11
12.9941
 21
-65.3011
  0
LINE
  8
0
 10
12.9941
 20
-65.3011
 11
12.9518
 21
-65.0611
  0
LINE
  8
0
 10
12.9518
 20
-65.0611
 11
12.966
 21
-64.8177
  0
LINE
  8
0
 10
12.966
 20
-64.8177
 11
13.0359
 21
-64.5841
  0
LINE
  8
0
 10
13.0359
 20
-64.5841
 11
13.1578
 21
-64.373
  0
LINE
  8
0
 10
13.1578
 20
-64.373
 11
13.3251
 21
-64.1957
  0
LINE
  8
0
 10
13.3251
 20
-64.1957
 11
13.5288
 21
-64.0617
  0
LINE
  8
0
 10
13.5288
 20
-64.0617
 11
13.7579
 21
-63.9783
  0
LINE
  8
0
 10
13.7579
 20
-63.9783
 11
14
 21
-63.95
  0
LINE
  8
0
 10
14
 20
-63.95
 11
14.2421
 21
-63.9783
  0
LINE
  8
0
 10
14.2421
 20
-63.9783
 11
14.4712
 21
-64.0617
  0
LINE
  8
0
 10
14.4712
 20
-64.0617
 11
14.6749
 21
-64.1957
  0
LINE
  8
0
 10
14.6749
 20
-64.1957
 11
14.8422
 21
-64.373
  0
LINE
  8
0
 10
14.8422
 20
-64.373
 11
14.9641
 21
-64.5841
  0
LINE
  8
0
 10
14.9641
 20
-64.5841
 11
15.034
 21
-64.8177
  0
LINE
  8
0
 10
15.034
 20
-64.8177
 11
15.0482
 21
-65.0611
  0
LINE
  8
0
 10
15.0482
 20
-65.0611
 11
15.0059
 21
-65.3011
  0
LINE
  8
0
 10
15.0059
 20
-65.3011
 11
14.9093
 21
-65.525
  0
LINE
  8
0
 10
14.9093
 20
-65.525
 11
14.7637
 21
-65.7206
  0
LINE
  8
0
 10
14.7637
 20
-65.7206
 11
14.577
 21
-65.8773
  0
LINE
  8
0
 10
14.577
 20
-65.8773
 11
14.3591
 21
-65.9867
  0
LINE
  8
0
 10
14.3591
 20
-65.9867
 11
14.1219
 21
-66.0429
  0
LINE
  8
0
 10
14.1219
 20
-66.0429
 11
13.8781
 21
-66.0429
  0
LINE
  8
0
 10
-14.1219
 20
-66.0429
 11
-14.3591
 21
-65.9867
  0
LINE
  8
0
 10
-14.3591
 20
-65.9867
 11
-14.577
 21
-65.8773
  0
LINE
  8
0
 10
-14.577
 20
-65.8773
 11
-14.7637
 21
-65.7206
  0
LINE
  8
0
 10
-14.7637
 20
-65.7206
 11
-14.9093
 21
-65.525
  0
LINE
  8
0
 10
-14.9093
 20
-65.525
 11
-15.0059
 21
-65.3011
  0
LINE
  8
0
 10
-15.0059
 20
-65.3011
 11
-15.0482
 21
-65.0611
  0
LINE
  8
0
 10
-15.0482
 20
-65.0611
 11
-15.034
 21
-64.8177
  0
LINE
  8
0
 10
-15.034
 20
-64.8177
 11
-14.9641
 21
-64.5841
  0
LINE
  8
0
 10
-14.9641
 20
-64.5841
 11
-14.8422
 21
-64.373
  0
LINE
  8
0
 10
-14.8422
 20
-64.373
 11
-14.6749
 21
-64.1957
  0
LINE
  8
0
 10
-14.6749
 20
-64.1957
 11
-14.4712
 21
-64.0617
  0
LINE
  8
0
 10
-14.4712
 20
-64.0617
 11
-14.2421
 21
-63.9783
  0
LINE
  8
0
 10
-14.2421
 20
-63.9783
 11
-14
 21
-63.95
  0
LINE
  8
0
 10
-14
 20
-63.95
 11
-13.7579
 21
-63.9783
  0
LINE
  8
0
 10
-13.7579
 20
-63.9783
 11
-13.5288
 21
-64.0617
  0
LINE
  8
0
 10
-13.5288
 20
-64.0617
 11
-13.3251
 21
-64.1957
  0
LINE
  8
0
 10
-13.3251
 20
-64.1957
 11
-13.1578
 21
-64.373
  0
LINE
  8
0
 10
-13.1578
 20
-64.373
 11
-13.0359
 21
-64.5841
  0
LINE
  8
0
 10
-13.0359
 20
-64.5841
 11
-12.966
 21
-64.8177
  0
LINE
  8
0
 10
-12.966
 20
-64.8177
 11
-12.9518
 21
-65.0611
  0
LINE
  8
0
 10
-12.9518
 20
-65.0611
 11
-12.9941
 21
-65.3011
  0
LINE
  8
0
 10
-12.9941
 20
-65.3011
 11
-13.0907
 21
-65.525
  0
LINE
  8
0
 10
-13.0907
 20
-65.525
 11
-13.2363
 21
-65.7206
  0
LINE
  8
0
 10
-13.2363
 20
-65.7206
 11
-13.423
 21
-65.8773
  0
LINE
  8
0
 10
-13.423
 20
-65.8773
 11
-13.6409
 21
-65.9867
  0
LINE
  8
0
 10
-13.6409
 20
-65.9867
 11
-13.8781
 21
-66.0429
  0
LINE
  8
0
 10
-13.8781
 20
-66.0429
 11
-14.1219
 21
-66.0429
  0
LINE
  8
0
 10
13.8781
 20
-81.0429
 11
13.6409
 21
-80.9867
  0
LINE
  8
0
 10
13.6409
 20
-80.9867
 11
13.423
 21
-80.8773
  0
LINE
  8
0
 10
13.423
 20
-80.8773
 11
13.2363
 21
-80.7206
  0
LINE
  8
0
 10
13.2363
 20
-80.7206
 11
13.0907
 21
-80.525
  0
LINE
  8
0
 10
13.0907
 20
-80.525
 11
12.9941
 21
-80.3011
  0
LINE
  8
0
 10
12.9941
 20
-80.3011
 11
12.9518
 21
-80.0611
  0
LINE
  8
0
 10
12.9518
 20
-80.0611
 11
12.966
 21
-79.8177
  0
LINE
  8
0
 10
12.966
 20
-79.8177
 11
13.0359
 21
-79.5841
  0
LINE
  8
0
 10
13.0359
 20
-79.5841
 11
13.1578
 21
-79.373
  0
LINE
  8
0
 10
13.1578
 20
-79.373
 11
13.3251
 21
-79.1956
  0
LINE
  8
0
 10
13.3251
 20
-79.1956
 11
13.5288
 21
-79.0617
  0
LINE
  8
0
 10
13.5288
 20
-79.0617
 11
13.7579
 21
-78.9783
  0
LINE
  8
0
 10
13.7579
 20
-78.9783
 11
14
 21
-78.95
  0
LINE
  8
0
 10
14
 20
-78.95
 11
14.2421
 21
-78.9783
  0
LINE
  8
0
 10
14.2421
 20
-78.9783
 11
14.4712
 21
-79.0617
  0
LINE
  8
0
 10
14.4712
 20
-79.0617
 11
14.6749
 21
-79.1956
  0
LINE
  8
0
 10
14.6749
 20
-79.1956
 11
14.8422
 21
-79.373
  0
LINE
  8
0
 10
14.8422
 20
-79.373
 11
14.9641
 21
-79.5841
  0
LINE
  8
0
 10
14.9641
 20
-79.5841
 11
15.034
 21
-79.8177
  0
LINE
  8
0
 10
15.034
 20
-79.8177
 11
15.0482
 21
-80.0611
  0
LINE
  8
0
 10
15.0482
 20
-80.0611
 11
15.0059
 21
-80.3011
  0
LINE
  8
0
 10
15.0059
 20
-80.3011
 11
14.9093
 21
-80.525
  0
LINE
  8
0
 10
14.9093
 20
-80.525
 11
14.7637
 21
-80.7206
  0
LINE
  8
0
 10
14.7637
 20
-80.7206
 11
14.577
 21
-80.8773
  0
LINE
  8
0
 10
14.577
 20
-80.8773
 11
14.3591
 21
-80.9867
  0
LINE
  8
0
 10
14.3591
 20
-80.9867
 11
14.1219
 21
-81.0429
  0
LINE
  8
0
 10
14.1219
 20
-81.0429
 11
13.8781
 21
-81.0429
  0
LINE
  8
0
 10
-14.1219
 20
-81.0429
 11
-14.3591
 21
-80.9867
  0
LINE
  8
0
 10
-14.3591
 20
-80.9867
 11
-14.577
 21
-80.8773
  0
LINE
  8
0
 10
-14.577
 20
-80.8773
 11
-14.7637
 21
-80.7206
  0
LINE
  8
0
 10
-14.7637
 20
-80.7206
 11
-14.9093
 21
-80.525
  0
LINE
  8
0
 10
-14.9093
 20
-80.525
 11
-15.0059
 21
-80.3011
  0
LINE
  8
0
 10
-15.0059
 20
-80.3011
 11
-15.0482
 21
-80.0611
  0
LINE
  8
0
 10
-15.0482
 20
-80.0611
 11
-15.034
 21
-79.8177
  0
LINE
  8
0
 10
-15.034
 20
-79.8177
 11
-14.9641
 21
-79.5841
  0
LINE
  8
0
 10
-14.9641
 20
-79.5841
 11
-14.8422
 21
-79.373
  0
LINE
  8
0
 10
-14.8422
 20
-79.373
 11
-14.6749
 21
-79.1956
  0
LINE
  8
0
 10
-14.6749
 20
-79.1956
 11
-14.4712
 21
-79.0617
  0
LINE
  8
0
 10
-14.4712
 20
-79.0617
 11
-14.2421
 21
-78.9783
  0
LINE
  8
0
 10
-14.2421
 20
-78.9783
 11
-14
 21
-78.95
  0
LINE
  8
0
 10
-14
 20
-78.95
 11
-13.7579
 21
-78.9783
  0
LINE
  8
0
 10
-13.7579
 20
-78.9783
 11
-13.5288
 21
-79.0617
  0
LINE
  8
0
 10
-13.5288
 20
-79.0617
 11
-13.3251
 21
-79.1956
  0
LINE
  8
0
 10
-13.3251
 20
-79.1956
 11
-13.1578
 21
-79.373
  0
LINE
  8
0
 10
-13.1578
 20
-79.373
 11
-13.0359
 21
-79.5841
  0
LINE
  8
0
 10
-13.0359
 20
-79.5841
 11
-12.966
 21
-79.8177
  0
LINE
  8
0
 10
-12.966
 20
-79.8177
 11
-12.9518
 21
-80.0611
  0
LINE
  8
0
 10
-12.9518
 20
-80.0611
 11
-12.9941
 21
-80.3011
  0
LINE
  8
0
 10
-12.9941
 20
-80.3011
 11
-13.0907
 21
-80.525
  0
LINE
  8
0
 10
-13.0907
 20
-80.525
 11
-13.2363
 21
-80.7206
  0
LINE
  8
0
 10
-13.2363
 20
-80.7206
 11
-13.423
 21
-80.8773
  0
LINE
  8
0
 10
-13.423
 20
-80.8773
 11
-13.6409
 21
-80.9867
  0
LINE
  8
0
 10
-13.6409
 20
-80.9867
 11
-13.8781
 21
-81.0429
  0
LINE
  8
0
 10
-13.8781
 20
-81.0429
 11
-14.1219
 21
-81.0429
  0
LINE
  8
0
 10
13.8781
 20
-96.0429
 11
13.6409
 21
-95.9867
  0
LINE
  8
0
 10
13.6409
 20
-95.9867
 11
13.423
 21
-95.8773
  0
LINE
  8
0
 10
13.423
 20
-95.8773
 11
13.2363
 21
-95.7206
  0
LINE
  8
0
 10
13.2363
 20
-95.7206
 11
13.0907
 21
-95.525
  0
LINE
  8
0
 10
13.0907
 20
-95.525
 11
12.9941
 21
-95.3011
  0
LINE
  8
0
 10
12.9941
 20
-95.3011
 11
12.9518
 21
-95.0611
  0
LINE
  8
0
 10
12.9518
 20
-95.0611
 11
12.966
 21
-94.8177
  0
LINE
  8
0
 10
12.966
 20
-94.8177
 11
13.0359
 21
-94.5841
  0
LINE
  8
0
 10
13.0359
 20
-94.5841
 11
13.1578
 21
-94.373
  0
LINE
  8
0
 10
13.1578
 20
-94.373
 11
13.3251
 21
-94.1956
  0
LINE
  8
0
 10
13.3251
 20
-94.1956
 11
13.5288
 21
-94.0617
  0
LINE
  8
0
 10
13.5288
 20
-94.0617
 11
13.7579
 21
-93.9783
  0
LINE
  8
0
 10
13.7579
 20
-93.9783
 11
14
 21
-93.95
  0
LINE
  8
0
 10
14
 20
-93.95
 11
14.2421
 21
-93.9783
  0
LINE
  8
0
 10
14.2421
 20
-93.9783
 11
14.4712
 21
-94.0617
  0
LINE
  8
0
 10
14.4712
 20
-94.0617
 11
14.6749
 21
-94.1956
  0
LINE
  8
0
 10
14.6749
 20
-94.1956
 11
14.8422
 21
-94.373
  0
LINE
  8
0
 10
14.8422
 20
-94.373
 11
14.9641
 21
-94.5841
  0
LINE
  8
0
 10
14.9641
 20
-94.5841
 11
15.034
 21
-94.8177
  0
LINE
  8
0
 10
15.034
 20
-94.8177
 11
15.0482
 21
-95.0611
  0
LINE
  8
0
 10
15.0482
 20
-95.0611
 11
15.0059
 21
-95.3011
  0
LINE
  8
0
 10
15.0059
 20
-95.3011
 11
14.9093
 21
-95.525
  0
LINE
  8
0
 10
14.9093
 20
-95.525
 11
14.7637
 21
-95.7206
  0
LINE
  8
0
 10
14.7637
 20
-95.7206
 11
14.577
 21
-95.8773
  0
LINE
  8
0
 10
14.577
 20
-95.8773
 11
14.3591
 21
-95.9867
  0
LINE
  8
0
 10
14.3591
 20
-95.9867
 11
14.1219
 21
-96.0429
  0
LINE
  8
0
 10
14.1219
 20
-96.0429
 11
13.8781
 21
-96.0429
  0
LINE
  8
0
 10
-14.1219
 20
-96.0429
 11
-14.3591
 21
-95.9867
  0
LINE
  8
0
 10
-14.3591
 20
-95.9867
 11
-14.577
 21
-95.8773
  0
LINE
  8
0
 10
-14.577
 20
-95.8773
 11
-14.7637
 21
-95.7206
  0
LINE
  8
0
 10
-14.7637
 20
-95.7206
 11
-14.9093
 21
-95.525
  0
LINE
  8
0
 10
-14.9093
 20
-95.525
 11
-15.0059
 21
-95.3011
  0
LINE
  8
0
 10
-15.0059
 20
-95.3011
 11
-15.0482
 21
-95.0611
  0
LINE
  8
0
 10
-15.0482
 20
-95.0611
 11
-15.034
 21
-94.8177
  0
LINE
  8
0
 10
-15.034
 20
-94.8177
 11
-14.9641
 21
-94.5841
  0
LINE
  8
0
 10
-14.9641
 20
-94.5841
 11
-14.8422
 21
-94.373
  0
LINE
  8
0
 10
-14.8422
 20
-94.373
 11
-14.6749
 21
-94.1956
  0
LINE
  8
0
 10
-14.6749
 20
-94.1956
 11
-14.4712
 21
-94.0617
  0
LINE
  8
0
 10
-14.4712
 20
-94.0617
 11
-14.2421
 21
-93.9783
  0
LINE
  8
0
 10
-14.2421
 20
-93.9783
 11
-14
 21
-93.95
  0
LINE
  8
0
 10
-14
 20
-93.95
 11
-13.7579
 21
-93.9783
  0
LINE
  8
0
 10
-13.7579
 20
-93.9783
 11
-13.5288
 21
-94.0617
  0
LINE
  8
0
 10
-13.5288
 20
-94.0617
 11
-13.3251
 21
-94.1956
  0
LINE
  8
0
 10
-13.3251
 20
-94.1956
 11
-13.1578
 21
-94.373
  0
LINE
  8
0
 10
-13.1578
 20
-94.373
 11
-13.0359
 21
-94.5841
  0
LINE
  8
0
 10
-13.0359
 20
-94.5841
 11
-12.966
 21
-94.8177
  0
LINE
  8
0
 10
-12.966
 20
-94.8177
 11
-12.9518
 21
-95.0611
  0
LINE
  8
0
 10
-12.9518
 20
-95.0611
 11
-12.9941
 21
-95.3011
  0
LINE
  8
0
 10
-12.9941
 20
-95.3011
 11
-13.0907
 21
-95.525
  0
LINE
  8
0
 10
-13.0907
 20
-95.525
 11
-13.2363
 21
-95.7206
  0
LINE
  8
0
 10
-13.2363
 20
-95.7206
 11
-13.423
 21
-95.8773
  0
LINE
  8
0
 10
-13.423
 20
-95.8773
 11
-13.6409
 21
-95.9867
  0
LINE
  8
0
 10
-13.6409
 20
-95.9867
 11
-13.8781
 21
-96.0429
  0
LINE
  8
0
 10
-13.8781
 20
-96.0429
 11
-14.1219
 21
-96.0429
  0
LINE
  8
0
 10
-38.2613
 20
-112.486
 11
-38.5198
 21
-112.445
  0
LINE
  8
0
 10
-38.5198
 20
-112.445
 11
-38.7725
 21
-112.378
  0
LINE
  8
0
 10
-38.7725
 20
-112.378
 11
-39.0168
 21
-112.284
  0
LINE
  8
0
 10
-39.0168
 20
-112.284
 11
-39.25
 21
-112.165
  0
LINE
  8
0
 10
-39.25
 20
-112.165
 11
-39.4695
 21
-112.023
  0
LINE
  8
0
 10
-39.4695
 20
-112.023
 11
-39.6728
 21
-111.858
  0
LINE
  8
0
 10
-39.6728
 20
-111.858
 11
-39.8578
 21
-111.673
  0
LINE
  8
0
 10
-39.8578
 20
-111.673
 11
-40.0225
 21
-111.469
  0
LINE
  8
0
 10
-40.0225
 20
-111.469
 11
-40.1651
 21
-111.25
  0
LINE
  8
0
 10
-40.1651
 20
-111.25
 11
-40.2839
 21
-111.017
  0
LINE
  8
0
 10
-40.2839
 20
-111.017
 11
-40.3776
 21
-110.773
  0
LINE
  8
0
 10
-40.3776
 20
-110.773
 11
-40.4454
 21
-110.52
  0
LINE
  8
0
 10
-40.4454
 20
-110.52
 11
-40.4863
 21
-110.261
  0
LINE
  8
0
 10
-40.4863
 20
-110.261
 11
-40.5
 21
-110
  0
LINE
  8
0
 10
-40.5
 20
-110
 11
-40.5
 21
-100
  0
LINE
  8
0
 10
-40.5
 20
-100
 11
-40.4863
 21
-99.7387
  0
LINE
  8
0
 10
-40.4863
 20
-99.7387
 11
-40.4454
 21
-99.4802
  0
LINE
  8
0
 10
-40.4454
 20
-99.4802
 11
-40.3776
 21
-99.2274
  0
LINE
  8
0
 10
-40.3776
 20
-99.2274
 11
-40.2839
 21
-98.9832
  0
LINE
  8
0
 10
-40.2839
 20
-98.9832
 11
-40.1651
 21
-98.75
  0
LINE
  8
0
 10
-40.1651
 20
-98.75
 11
-40.0225
 21
-98.5305
  0
LINE
  8
0
 10
-40.0225
 20
-98.5305
 11
-39.8578
 21
-98.3272
  0
LINE
  8
0
 10
-39.8578
 20
-98.3272
 11
-39.6728
 21
-98.1421
  0
LINE
  8
0
 10
-39.6728
 20
-98.1421
 11
-39.4695
 21
-97.9774
  0
LINE
  8
0
 10
-39.4695
 20
-97.9774
 11
-39.25
 21
-97.8349
  0
LINE
  8
0
 10
-39.25
 20
-97.8349
 11
-39.0168
 21
-97.7161
  0
LINE
  8
0
 10
-39.0168
 20
-97.7161
 11
-38.7725
 21
-97.6223
  0
LINE
  8
0
 10
-38.7725
 20
-97.6223
 11
-38.5198
 21
-97.5546
  0
LINE
  8
0
 10
-38.5198
 20
-97.5546
 11
-38.2613
 21
-97.5137
  0
LINE
  8
0
 10
-38.2613
 20
-97.5137
 11
-38
 21
-97.5
  0
LINE
  8
0
 10
-38
 20
-97.5
 11
-37.7387
 21
-97.5137
  0
LINE
  8
0
 10
-37.7387
 20
-97.5137
 11
-37.4802
 21
-97.5546
  0
LINE
  8
0
 10
-37.4802
 20
-97.5546
 11
-37.2274
 21
-97.6223
  0
LINE
  8
0
 10
-37.2274
 20
-97.6223
 11
-36.9832
 21
-97.7161
  0
LINE
  8
0
 10
-36.9832
 20
-97.7161
 11
-36.75
 21
-97.8349
  0
LINE
  8
0
 10
-36.75
 20
-97.8349
 11
-36.5305
 21
-97.9774
  0
LINE
  8
0
 10
-36.5305
 20
-97.9774
 11
-36.3272
 21
-98.1421
  0
LINE
  8
0
 10
-36.3272
 20
-98.1421
 11
-36.1421
 21
-98.3272
  0
LINE
  8
0
 10
-36.1421
 20
-98.3272
 11
-35.9774
 21
-98.5305
  0
LINE
  8
0
 10
-35.9774
 20
-98.5305
 11
-35.8349
 21
-98.75
  0
LINE
  8
0
 10
-35.8349
 20
-98.75
 11
-35.7161
 21
-98.9832
  0
LINE
  8
0
 10
-35.7161
 20
-98.9832
 11
-35.6223
 21
-99.2274
  0
LINE
  8
0
 10
-35.6223
 20
-99.2274
 11
-35.5546
 21
-99.4802
  0
LINE
  8
0
 10
-35.5546
 20
-99.4802
 11
-35.5137
 21
-99.7387
  0
LINE
  8
0
 10
-35.5137
 20
-99.7387
 11
-35.5
 21
-100
  0
LINE
  8
0
 10
-35.5
 20
-100
 11
-35.5
 21
-110
  0
LINE
  8
0
 10
-35.5
 20
-110
 11
-35.5137
 21
-110.261
  0
LINE
  8
0
 10
-35.5137
 20
-110.261
 11
-35.5546
 21
-110.52
  0
LINE
  8
0
 10
-35.5546
 20
-110.52
 11
-35.6223
 21
-110.773
  0
LINE
  8
0
 10
-35.6223
 20
-110.773
 11
-35.7161
 21
-111.017
  0
LINE
  8
0
 10
-35.7161
 20
-111.017
 11
-35.8349
 21
-111.25
  0
LINE
  8
0
 10
-35.8349
 20
-111.25
 11
-35.9774
 21
-111.469
  0
LINE
  8
0
 10
-35.9774
 20
-111.469
 11
-36.1421
 21
-111.673
  0
LINE
  8
0
 10
-36.1421
 20
-111.673
 11
-36.3272
 21
-111.858
  0
LINE
  8
0
 10
-36.3272
 20
-111.858
 11
-36.5305
 21
-112.023
  0
LINE
  8
0
 10
-36.5305
 20
-112.023
 11
-36.75
 21
-112.165
  0
LINE
  8
0
 10
-36.75
 20
-112.165
 11
-36.9832
 21
-112.284
  0
LINE
  8
0
 10
-36.9832
 20
-112.284
 11
-37.2274
 21
-112.378
  0
LINE
  8
0
 10
-37.2274
 20
-112.378
 11
-37.4802
 21
-112.445
  0
LINE
  8
0
 10
-37.4802
 20
-112.445
 11
-37.7387
 21
-112.486
  0
LINE
  8
0
 10
-37.7387
 20
-112.486
 11
-38
 21
-112.5
  0
LINE
  8
0
 10
-38
 20
-112.5
 11
-38.2613
 21
-112.486
  0
LINE
  8
0
 10
37.7387
 20
-112.486
 11
37.4802
 21
-112.445
  0
LINE
  8
0
 10
37.4802
 20
-112.445
 11
37.2274
 21
-112.378
  0
LINE
  8
0
 10
37.2274
 20
-112.378
 11
36.9832
 21
-112.284
  0
LINE
  8
0
 10
36.9832
 20
-112.284
 11
36.75
 21
-112.165
  0
LINE
  8
0
 10
36.75
 20
-112.165
 11
36.5305
 21
-112.023
  0
LINE
  8
0
 10
36.5305
 20
-112.023
 11
36.3272
 21
-111.858
  0
LINE
  8
0
 10
36.3272
 20
-111.858
 11
36.1421
 21
-111.673
  0
LINE
  8
0
 10
36.1421
 20
-111.673
 11
35.9774
 21
-111.469
  0
LINE
  8
0
 10
35.9774
 20
-111.469
 11
35.8349
 21
-111.25
  0
LINE
  8
0
 10
35.8349
 20
-111.25
 11
35.7161
 21
-111.017
  0
LINE
  8
0
 10
35.7161
 20
-111.017
 11
35.6223
 21
-110.773
  0
LINE
  8
0
 10
35.6223
 20
-110.773
 11
35.5546
 21
-110.52
  0
LINE
  8
0
 10
35.5546
 20
-110.52
 11
35.5137
 21
-110.261
  0
LINE
  8
0
 10
35.5137
 20
-110.261
 11
35.5
 21
-110
  0
LINE
  8
0
 10
35.5
 20
-110
 11
35.5
 21
-100
  0
LINE
  8
0
 10
35.5
 20
-100
 11
35.5137
 21
-99.7387
  0
LINE
  8
0
 10
35.5137
 20
-99.7387
 11
35.5546
 21
-99.4802
  0
LINE
  8
0
 10
35.5546
 20
-99.4802
 11
35.6223
 21
-99.2274
  0
LINE
  8
0
 10
35.6223
 20
-99.2274
 11
35.7161
 21
-98.9832
  0
LINE
  8
0
 10
35.7161
 20
-98.9832
 11
35.8349
 21
-98.75
  0
LINE
  8
0
 10
35.8349
 20
-98.75
 11
35.9774
 21
-98.5305
  0
LINE
  8
0
 10
35.9774
 20
-98.5305
 11
36.1421
 21
-98.3272
  0
LINE
  8
0
 10
36.1421
 20
-98.3272
 11
36.3272
 21
-98.1421
  0
LINE
  8
0
 10
36.3272
 20
-98.1421
 11
36.5305
 21
-97.9774
  0
LINE
  8
0
 10
36.5305
 20
-97.9774
 11
36.75
 21
-97.8349
  0
LINE
  8
0
 10
36.75
 20
-97.8349
 11
36.9832
 21
-97.7161
  0
LINE
  8
0
 10
36.9832
 20
-97.7161
 11
37.2274
 21
-97.6223
  0
LINE
  8
0
 10
37.2274
 20
-97.6223
 11
37.4802
 21
-97.5546
  0
LINE
  8
0
 10
37.4802
 20
-97.5546
 11
37.7387
 21
-97.5137
  0
LINE
  8
0
 10
37.7387
 20
-97.5137
 11
38
 21
-97.5
  0
LINE
  8
0
 10
38
 20
-97.5
 11
38.2613
 21
-97.5137
  0
LINE
  8
0
 10
38.2613
 20
-97.5137
 11
38.5198
 21
-97.5546
  0
LINE
  8
0
 10
38.5198
 20
-97.5546
 11
38.7725
 21
-97.6223
  0
LINE
  8
0
 10
38.7725
 20
-97.6223
 11
39.0168
 21
-97.7161
  0
LINE
  8
0
 10
39.0168
 20
-97.7161
 11
39.25
 21
-97.8349
  0
LINE
  8
0
 10
39.25
 20
-97.8349
 11
39.4695
 21
-97.9774
  0
LINE
  8
0
 10
39.4695
 20
-97.9774
 11
39.6728
 21
-98.1421
  0
LINE
  8
0
 10
39.6728
 20
-98.1421
 11
39.8578
 21
-98.3272
  0
LINE
  8
0
 10
39.8578
 20
-98.3272
 11
40.0225
 21
-98.5305
  0
LINE
  8
0
 10
40.0225
 20
-98.5305
 11
40.1651
 21
-98.75
  0
LINE
  8
0
 10
40.1651
 20
-98.75
 11
40.2839
 21
-98.9832
  0
LINE
  8
0
 10
40.2839
 20
-98.9832
 11
40.3776
 21
-99.2274
  0
LINE
  8
0
 10
40.3776
 20
-99.2274
 11
40.4454
 21
-99.4802
  0
LINE
  8
0
 10
40.4454
 20
-99.4802
 11
40.4863
 21
-99.7387
  0
LINE
  8
0
 10
40.4863
 20
-99.7387
 11
40.5
 21
-100
  0
LINE
  8
0
 10
40.5
 20
-100
 11
40.5
 21
-110
  0
LINE
  8
0
 10
40.5
 20
-110
 11
40.4863
 21
-110.261
  0
LINE
  8
0
 10
40.4863
 20
-110.261
 11
40.4454
 21
-110.52
  0
LINE
  8
0
 10
40.4454
 20
-110.52
 11
40.3776
 21
-110.773
  0
LINE
  8
0
 10
40.3776
 20
-110.773
 11
40.2839
 21
-111.017
  0
LINE
  8
0
 10
40.2839
 20
-111.017
 11
40.1651
 21
-111.25
  0
LINE
  8
0
 10
40.1651
 20
-111.25
 11
40.0225
 21
-111.469
  0
LINE
  8
0
 10
40.0225
 20
-111.469
 11
39.8578
 21
-111.673
  0
LINE
  8
0
 10
39.8578
 20
-111.673
 11
39.6728
 21
-111.858
  0
LINE
  8
0
 10
39.6728
 20
-111.858
 11
39.4695
 21
-112.023
  0
LINE
  8
0
 10
39.4695
 20
-112.023
 11
39.25
 21
-112.165
  0
LINE
  8
0
 10
39.25
 20
-112.165
 11
39.0168
 21
-112.284
  0
LINE
  8
0
 10
39.0168
 20
-112.284
 11
38.7725
 21
-112.378
  0
LINE
  8
0
 10
38.7725
 20
-112.378
 11
38.5198
 21
-112.445
  0
LINE
  8
0
 10
38.5198
 20
-112.445
 11
38.2613
 21
-112.486
  0
LINE
  8
0
 10
38.2613
 20
-112.486
 11
38
 21
-112.5
  0
LINE
  8
0
 10
38
 20
-112.5
 11
37.7387
 21
-112.486
  0
LINE
  8
0
 10
13.8781
 20
-111.043
 11
13.6409
 21
-110.987
  0
LINE
  8
0
 10
13.6409
 20
-110.987
 11
13.423
 21
-110.877
  0
LINE
  8
0
 10
13.423
 20
-110.877
 11
13.2363
 21
-110.721
  0
LINE
  8
0
 10
13.2363
 20
-110.721
 11
13.0907
 21
-110.525
  0
LINE
  8
0
 10
13.0907
 20
-110.525
 11
12.9941
 21
-110.301
  0
LINE
  8
0
 10
12.9941
 20
-110.301
 11
12.9518
 21
-110.061
  0
LINE
  8
0
 10
12.9518
 20
-110.061
 11
12.966
 21
-109.818
  0
LINE
  8
0
 10
12.966
 20
-109.818
 11
13.0359
 21
-109.584
  0
LINE
  8
0
 10
13.0359
 20
-109.584
 11
13.1578
 21
-109.373
  0
LINE
  8
0
 10
13.1578
 20
-109.373
 11
13.3251
 21
-109.196
  0
LINE
  8
0
 10
13.3251
 20
-109.196
 11
13.5288
 21
-109.062
  0
LINE
  8
0
 10
13.5288
 20
-109.062
 11
13.7579
 21
-108.978
  0
LINE
  8
0
 10
13.7579
 20
-108.978
 11
14
 21
-108.95
  0
LINE
  8
0
 10
14
 20
-108.95
 11
14.2421
 21
-108.978
  0
LINE
  8
0
 10
14.2421
 20
-108.978
 11
14.4712
 21
-109.062
  0
LINE
  8
0
 10
14.4712
 20
-109.062
 11
14.6749
 21
-109.196
  0
LINE
  8
0
 10
14.6749
 20
-109.196
 11
14.8422
 21
-109.373
  0
LINE
  8
0
 10
14.8422
 20
-109.373
 11
14.9641
 21
-109.584
  0
LINE
  8
0
 10
14.9641
 20
-109.584
 11
15.034
 21
-109.818
  0
LINE
  8
0
 10
15.034
 20
-109.818
 11
15.0482
 21
-110.061
  0
LINE
  8
0
 10
15.0482
 20
-110.061
 11
15.0059
 21
-110.301
  0
LINE
  8
0
 10
15.0059
 20
-110.301
 11
14.9093
 21
-110.525
  0
LINE
  8
0
 10
14.9093
 20
-110.525
 11
14.7637
 21
-110.721
  0
LINE
  8
0
 10
14.7637
 20
-110.721
 11
14.577
 21
-110.877
  0
LINE
  8
0
 10
14.577
 20
-110.877
 11
14.3591
 21
-110.987
  0
LINE
  8
0
 10
14.3591
 20
-110.987
 11
14.1219
 21
-111.043
  0
LINE
  8
0
 10
14.1219
 20
-111.043
 11
13.8781
 21
-111.043
  0
LINE
  8
0
 10
-14.1219
 20
-111.043
 11
-14.3591
 21
-110.987
  0
LINE
  8
0
 10
-14.3591
 20
-110.987
 11
-14.577
 21
-110.877
  0
LINE
  8
0
 10
-14.577
 20
-110.877
 11
-14.7637
 21
-110.721
  0
LINE
  8
0
 10
-14.7637
 20
-110.721
 11
-14.9093
 21
-110.525
  0
LINE
  8
0
 10
-14.9093
 20
-110.525
 11
-15.0059
 21
-110.301
  0
LINE
  8
0
 10
-15.0059
 20
-110.301
 11
-15.0482
 21
-110.061
  0
LINE
  8
0
 10
-15.0482
 20
-110.061
 11
-15.034
 21
-109.818
  0
LINE
  8
0
 10
-15.034
 20
-109.818
 11
-14.9641
 21
-109.584
  0
LINE
  8
0
 10
-14.9641
 20
-109.584
 11
-14.8422
 21
-109.373
  0
LINE
  8
0
 10
-14.8422
 20
-109.373
 11
-14.6749
 21
-109.196
  0
LINE
  8
0
 10
-14.6749
 20
-109.196
 11
-14.4712
 21
-109.062
  0
LINE
  8
0
 10
-14.4712
 20
-109.062
 11
-14.2421
 21
-108.978
  0
LINE
  8
0
 10
-14.2421
 20
-108.978
 11
-14
 21
-108.95
  0
LINE
  8
0
 10
-14
 20
-108.95
 11
-13.7579
 21
-108.978
  0
LINE
  8
0
 10
-13.7579
 20
-108.978
 11
-13.5288
 21
-109.062
  0
LINE
  8
0
 10
-13.5288
 20
-109.062
 11
-13.3251
 21
-109.196
  0
LINE
  8
0
 10
-13.3251
 20
-109.196
 11
-13.1578
 21
-109.373
  0
LINE
  8
0
 10
-13.1578
 20
-109.373
 11
-13.0359
 21
-109.584
  0
LINE
  8
0
 10
-13.0359
 20
-109.584
 11
-12.966
 21
-109.818
  0
LINE
  8
0
 10
-12.966
 20
-109.818
 11
-12.9518
 21
-110.061
  0
LINE
  8
0
 10
-12.9518
 20
-110.061
 11
-12.9941
 21
-110.301
  0
LINE
  8
0
 10
-12.9941
 20
-110.301
 11
-13.0907
 21
-110.525
  0
LINE
  8
0
 10
-13.0907
 20
-110.525
 11
-13.2363
 21
-110.721
  0
LINE
  8
0
 10
-13.2363
 20
-110.721
 11
-13.423
 21
-110.877
  0
LINE
  8
0
 10
-13.423
 20
-110.877
 11
-13.6409
 21
-110.987
  0
LINE
  8
0
 10
-13.6409
 20
-110.987
 11
-13.8781
 21
-111.043
  0
LINE
  8
0
 10
-13.8781
 20
-111.043
 11
-14.1219
 21
-111.043
  0
ENDSEC
  0
SECTION
  2
OBJECTS
  0
DICTIONARY
  0
ENDSEC
  0
EOF
