  0
SECTION
  2
BLOCKS
  0
ENDSEC
  0
SECTION
  2
ENTITIES
  0
LINE
  8
0
 10
47.3136
 20
-119.984
 11
47.6237
 21
-119.934
  0
LINE
  8
0
 10
47.6237
 20
-119.934
 11
47.927
 21
-119.853
  0
LINE
  8
0
 10
47.927
 20
-119.853
 11
48.2202
 21
-119.741
  0
LINE
  8
0
 10
48.2202
 20
-119.741
 11
48.5
 21
-119.598
  0
LINE
  8
0
 10
48.5
 20
-119.598
 11
48.7634
 21
-119.427
  0
LINE
  8
0
 10
48.7634
 20
-119.427
 11
49.0074
 21
-119.229
  0
LINE
  8
0
 10
49.0074
 20
-119.229
 11
49.2294
 21
-119.007
  0
LINE
  8
0
 10
49.2294
 20
-119.007
 11
49.427
 21
-118.763
  0
LINE
  8
0
 10
49.427
 20
-118.763
 11
49.5981
 21
-118.5
  0
LINE
  8
0
 10
49.5981
 20
-118.5
 11
49.7406
 21
-118.22
  0
LINE
  8
0
 10
49.7406
 20
-118.22
 11
49.8532
 21
-117.927
  0
LINE
  8
0
 10
49.8532
 20
-117.927
 11
49.9344
 21
-117.624
  0
LINE
  8
0
 10
49.9344
 20
-117.624
 11
49.9836
 21
-117.314
  0
LINE
  8
0
 10
49.9836
 20
-117.314
 11
50
 21
-117
  0
LINE
  8
0
 10
50
 20
-117
 11
50
 21
117
  0
LINE
  8
0
 10
50
 20
117
 11
49.9836
 21
117.314
  0
LINE
  8
0
 10
49.9836
 20
117.314
 11
49.9344
 21
117.624
  0
LINE
  8
0
 10
49.9344
 20
117.624
 11
49.8532
 21
117.927
  0
LINE
  8
0
 10
49.8532
 20
117.927
 11
49.7406
 21
118.22
  0
LINE
  8
0
 10
49.7406
 20
118.22
 11
49.5981
 21
118.5
  0
LINE
  8
0
 10
49.5981
 20
118.5
 11
49.427
 21
118.763
  0
LINE
  8
0
 10
49.427
 20
118.763
 11
49.2294
 21
119.007
  0
LINE
  8
0
 10
49.2294
 20
119.007
 11
49.0074
 21
119.229
  0
LINE
  8
0
 10
49.0074
 20
119.229
 11
48.7634
 21
119.427
  0
LINE
  8
0
 10
48.7634
 20
119.427
 11
48.5
 21
119.598
  0
LINE
  8
0
 10
48.5
 20
119.598
 11
48.2202
 21
119.741
  0
LINE
  8
0
 10
48.2202
 20
119.741
 11
47.927
 21
119.853
  0
LINE
  8
0
 10
47.927
 20
119.853
 11
47.6237
 21
119.934
  0
LINE
  8
0
 10
47.6237
 20
119.934
 11
47.3136
 21
119.984
  0
LINE
  8
0
 10
47.3136
 20
119.984
 11
47
 21
120
  0
LINE
  8
0
 10
47
 20
120
 11
-47
 21
120
  0
LINE
  8
0
 10
-47
 20
120
 11
-47.3136
 21
119.984
  0
LINE
  8
0
 10
-47.3136
 20
119.984
 11
-47.6237
 21
119.934
  0
LINE
  8
0
 10
-47.6237
 20
119.934
 11
-47.927
 21
119.853
  0
LINE
  8
0
 10
-47.927
 20
119.853
 11
-48.2202
 21
119.741
  0
LINE
  8
0
 10
-48.2202
 20
119.741
 11
-48.5
 21
119.598
  0
LINE
  8
0
 10
-48.5
 20
119.598
 11
-48.7634
 21
119.427
  0
LINE
  8
0
 10
-48.7634
 20
119.427
 11
-49.0074
 21
119.229
  0
LINE
  8
0
 10
-49.0074
 20
119.229
 11
-49.2294
 21
119.007
  0
LINE
  8
0
 10
-49.2294
 20
119.007
 11
-49.427
 21
118.763
  0
LINE
  8
0
 10
-49.427
 20
118.763
 11
-49.5981
 21
118.5
  0
LINE
  8
0
 10
-49.5981
 20
118.5
 11
-49.7406
 21
118.22
  0
LINE
  8
0
 10
-49.7406
 20
118.22
 11
-49.8532
 21
117.927
  0
LINE
  8
0
 10
-49.8532
 20
117.927
 11
-49.9344
 21
117.624
  0
LINE
  8
0
 10
-49.9344
 20
117.624
 11
-49.9836
 21
117.314
  0
LINE
  8
0
 10
-49.9836
 20
117.314
 11
-50
 21
117
  0
LINE
  8
0
 10
-50
 20
117
 11
-50
 21
-117
  0
LINE
  8
0
 10
-50
 20
-117
 11
-49.9836
 21
-117.314
  0
LINE
  8
0
 10
-49.9836
 20
-117.314
 11
-49.9344
 21
-117.624
  0
LINE
  8
0
 10
-49.9344
 20
-117.624
 11
-49.8532
 21
-117.927
  0
LINE
  8
0
 10
-49.8532
 20
-117.927
 11
-49.7406
 21
-118.22
  0
LINE
  8
0
 10
-49.7406
 20
-118.22
 11
-49.5981
 21
-118.5
  0
LINE
  8
0
 10
-49.5981
 20
-118.5
 11
-49.427
 21
-118.763
  0
LINE
  8
0
 10
-49.427
 20
-118.763
 11
-49.2294
 21
-119.007
  0
LINE
  8
0
 10
-49.2294
 20
-119.007
 11
-49.0074
 21
-119.229
  0
LINE
  8
0
 10
-49.0074
 20
-119.229
 11
-48.7634
 21
-119.427
  0
LINE
  8
0
 10
-48.7634
 20
-119.427
 11
-48.5
 21
-119.598
  0
LINE
  8
0
 10
-48.5
 20
-119.598
 11
-48.2202
 21
-119.741
  0
LINE
  8
0
 10
-48.2202
 20
-119.741
 11
-47.927
 21
-119.853
  0
LINE
  8
0
 10
-47.927
 20
-119.853
 11
-47.6237
 21
-119.934
  0
LINE
  8
0
 10
-47.6237
 20
-119.934
 11
-47.3136
 21
-119.984
  0
LINE
  8
0
 10
-47.3136
 20
-119.984
 11
-47
 21
-120
  0
LINE
  8
0
 10
-47
 20
-120
 11
47
 21
-120
  0
LINE
  8
0
 10
47
 20
-120
 11
47.3136
 21
-119.984
  0
LINE
  8
0
 10
-1.17072
 20
83.8613
 11
-2.3286
 21
84.0447
  0
LINE
  8
0
 10
-2.3286
 20
84.0447
 11
-3.46098
 21
84.3482
  0
LINE
  8
0
 10
-3.46098
 20
84.3482
 11
-4.55544
 21
84.7683
  0
LINE
  8
0
 10
-4.55544
 20
84.7683
 11
-5.59999
 21
85.3005
  0
LINE
  8
0
 10
-5.59999
 20
85.3005
 11
-6.58319
 21
85.939
  0
LINE
  8
0
 10
-6.58319
 20
85.939
 11
-7.49426
 21
86.6768
  0
LINE
  8
0
 10
-7.49426
 20
86.6768
 11
-8.32321
 21
87.5057
  0
LINE
  8
0
 10
-8.32321
 20
87.5057
 11
-9.06099
 21
88.4168
  0
LINE
  8
0
 10
-9.06099
 20
88.4168
 11
-9.69948
 21
89.4
  0
LINE
  8
0
 10
-9.69948
 20
89.4
 11
-10.2317
 21
90.4445
  0
LINE
  8
0
 10
-10.2317
 20
90.4445
 11
-10.6518
 21
91.539
  0
LINE
  8
0
 10
-10.6518
 20
91.539
 11
-10.9552
 21
92.6714
  0
LINE
  8
0
 10
-10.9552
 20
92.6714
 11
-11.1386
 21
93.8293
  0
LINE
  8
0
 10
-11.1386
 20
93.8293
 11
-11.2
 21
95
  0
LINE
  8
0
 10
-11.2
 20
95
 11
-11.1386
 21
96.1707
  0
LINE
  8
0
 10
-11.1386
 20
96.1707
 11
-10.9552
 21
97.3286
  0
LINE
  8
0
 10
-10.9552
 20
97.3286
 11
-10.6518
 21
98.461
  0
LINE
  8
0
 10
-10.6518
 20
98.461
 11
-10.2317
 21
99.5554
  0
LINE
  8
0
 10
-10.2317
 20
99.5554
 11
-9.69948
 21
100.6
  0
LINE
  8
0
 10
-9.69948
 20
100.6
 11
-9.06099
 21
101.583
  0
LINE
  8
0
 10
-9.06099
 20
101.583
 11
-8.32321
 21
102.494
  0
LINE
  8
0
 10
-8.32321
 20
102.494
 11
-7.49426
 21
103.323
  0
LINE
  8
0
 10
-7.49426
 20
103.323
 11
-6.58319
 21
104.061
  0
LINE
  8
0
 10
-6.58319
 20
104.061
 11
-5.59999
 21
104.699
  0
LINE
  8
0
 10
-5.59999
 20
104.699
 11
-4.55544
 21
105.232
  0
LINE
  8
0
 10
-4.55544
 20
105.232
 11
-3.46098
 21
105.652
  0
LINE
  8
0
 10
-3.46098
 20
105.652
 11
-2.3286
 21
105.955
  0
LINE
  8
0
 10
-2.3286
 20
105.955
 11
-1.17072
 21
106.139
  0
LINE
  8
0
 10
-1.17072
 20
106.139
 11
0
 21
106.2
  0
LINE
  8
0
 10
0
 20
106.2
 11
1.17072
 21
106.139
  0
LINE
  8
0
 10
1.17072
 20
106.139
 11
2.3286
 21
105.955
  0
LINE
  8
0
 10
2.3286
 20
105.955
 11
3.46098
 21
105.652
  0
LINE
  8
0
 10
3.46098
 20
105.652
 11
4.55544
 21
105.232
  0
LINE
  8
0
 10
4.55544
 20
105.232
 11
5.59999
 21
104.699
  0
LINE
  8
0
 10
5.59999
 20
104.699
 11
6.58319
 21
104.061
  0
LINE
  8
0
 10
6.58319
 20
104.061
 11
7.49426
 21
103.323
  0
LINE
  8
0
 10
7.49426
 20
103.323
 11
8.32321
 21
102.494
  0
LINE
  8
0
 10
8.32321
 20
102.494
 11
9.06099
 21
101.583
  0
LINE
  8
0
 10
9.06099
 20
101.583
 11
9.69948
 21
100.6
  0
LINE
  8
0
 10
9.69948
 20
100.6
 11
10.2317
 21
99.5554
  0
LINE
  8
0
 10
10.2317
 20
99.5554
 11
10.6518
 21
98.461
  0
LINE
  8
0
 10
10.6518
 20
98.461
 11
10.9552
 21
97.3286
  0
LINE
  8
0
 10
10.9552
 20
97.3286
 11
11.1386
 21
96.1707
  0
LINE
  8
0
 10
11.1386
 20
96.1707
 11
11.2
 21
95
  0
LINE
  8
0
 10
11.2
 20
95
 11
11.1386
 21
93.8293
  0
LINE
  8
0
 10
11.1386
 20
93.8293
 11
10.9552
 21
92.6714
  0
LINE
  8
0
 10
10.9552
 20
92.6714
 11
10.6518
 21
91.539
  0
LINE
  8
0
 10
10.6518
 20
91.539
 11
10.2317
 21
90.4445
  0
LINE
  8
0
 10
10.2317
 20
90.4445
 11
9.69948
 21
89.4
  0
LINE
  8
0
 10
9.69948
 20
89.4
 11
9.06099
 21
88.4168
  0
LINE
  8
0
 10
9.06099
 20
88.4168
 11
8.32321
 21
87.5057
  0
LINE
  8
0
 10
8.32321
 20
87.5057
 11
7.49426
 21
86.6768
  0
LINE
  8
0
 10
7.49426
 20
86.6768
 11
6.58319
 21
85.939
  0
LINE
  8
0
 10
6.58319
 20
85.939
 11
5.59999
 21
85.3005
  0
LINE
  8
0
 10
5.59999
 20
85.3005
 11
4.55544
 21
84.7683
  0
LINE
  8
0
 10
4.55544
 20
84.7683
 11
3.46098
 21
84.3482
  0
LINE
  8
0
 10
3.46098
 20
84.3482
 11
2.3286
 21
84.0447
  0
LINE
  8
0
 10
2.3286
 20
84.0447
 11
1.17072
 21
83.8613
  0
LINE
  8
0
 10
1.17072
 20
83.8613
 11
0
 21
83.8
  0
LINE
  8
0
 10
0
 20
83.8
 11
-1.17072
 21
83.8613
  0
LINE
  8
0
 10
15.3165
 20
13.9106
 11
15.076
 21
13.9572
  0
LINE
  8
0
 10
15.076
 20
13.9572
 11
14.8455
 21
14.04
  0
LINE
  8
0
 10
14.8455
 20
14.04
 11
14.6303
 21
14.157
  0
LINE
  8
0
 10
14.6303
 20
14.157
 11
14.4355
 21
14.3055
  0
LINE
  8
0
 10
14.4355
 20
14.3055
 11
14.2656
 21
14.482
  0
LINE
  8
0
 10
14.2656
 20
14.482
 11
14.1247
 21
14.6824
  0
LINE
  8
0
 10
14.1247
 20
14.6824
 11
14.016
 21
14.9019
  0
LINE
  8
0
 10
14.016
 20
14.9019
 11
13.9421
 21
15.1354
  0
LINE
  8
0
 10
13.9421
 20
15.1354
 11
13.9047
 21
15.3775
  0
LINE
  8
0
 10
13.9047
 20
15.3775
 11
13.9047
 21
15.6225
  0
LINE
  8
0
 10
13.9047
 20
15.6225
 11
13.9421
 21
15.8646
  0
LINE
  8
0
 10
13.9421
 20
15.8646
 11
14.016
 21
16.0981
  0
LINE
  8
0
 10
14.016
 20
16.0981
 11
14.1247
 21
16.3176
  0
LINE
  8
0
 10
14.1247
 20
16.3176
 11
14.2656
 21
16.518
  0
LINE
  8
0
 10
14.2656
 20
16.518
 11
14.4355
 21
16.6945
  0
LINE
  8
0
 10
14.4355
 20
16.6945
 11
14.6303
 21
16.843
  0
LINE
  8
0
 10
14.6303
 20
16.843
 11
14.8455
 21
16.96
  0
LINE
  8
0
 10
14.8455
 20
16.96
 11
15.076
 21
17.0428
  0
LINE
  8
0
 10
15.076
 20
17.0428
 11
15.3165
 21
17.0894
  0
LINE
  8
0
 10
15.3165
 20
17.0894
 11
15.5613
 21
17.0988
  0
LINE
  8
0
 10
15.5613
 20
17.0988
 11
15.8046
 21
17.0707
  0
LINE
  8
0
 10
15.8046
 20
17.0707
 11
16.0408
 21
17.0058
  0
LINE
  8
0
 10
16.0408
 20
17.0058
 11
16.2643
 21
16.9056
  0
LINE
  8
0
 10
16.2643
 20
16.9056
 11
16.47
 21
16.7725
  0
LINE
  8
0
 10
16.47
 20
16.7725
 11
16.6528
 21
16.6095
  0
LINE
  8
0
 10
16.6528
 20
16.6095
 11
16.8087
 21
16.4205
  0
LINE
  8
0
 10
16.8087
 20
16.4205
 11
16.9339
 21
16.2099
  0
LINE
  8
0
 10
16.9339
 20
16.2099
 11
17.0254
 21
15.9827
  0
LINE
  8
0
 10
17.0254
 20
15.9827
 11
17.0812
 21
15.7442
  0
LINE
  8
0
 10
17.0812
 20
15.7442
 11
17.1
 21
15.5
  0
LINE
  8
0
 10
17.1
 20
15.5
 11
17.0812
 21
15.2558
  0
LINE
  8
0
 10
17.0812
 20
15.2558
 11
17.0254
 21
15.0172
  0
LINE
  8
0
 10
17.0254
 20
15.0172
 11
16.9339
 21
14.79
  0
LINE
  8
0
 10
16.9339
 20
14.79
 11
16.8087
 21
14.5795
  0
LINE
  8
0
 10
16.8087
 20
14.5795
 11
16.6528
 21
14.3905
  0
LINE
  8
0
 10
16.6528
 20
14.3905
 11
16.47
 21
14.2275
  0
LINE
  8
0
 10
16.47
 20
14.2275
 11
16.2643
 21
14.0944
  0
LINE
  8
0
 10
16.2643
 20
14.0944
 11
16.0408
 21
13.9942
  0
LINE
  8
0
 10
16.0408
 20
13.9942
 11
15.8046
 21
13.9293
  0
LINE
  8
0
 10
15.8046
 20
13.9293
 11
15.5613
 21
13.9012
  0
LINE
  8
0
 10
15.5613
 20
13.9012
 11
15.3165
 21
13.9106
  0
LINE
  8
0
 10
-15.6835
 20
13.9106
 11
-15.924
 21
13.9572
  0
LINE
  8
0
 10
-15.924
 20
13.9572
 11
-16.1545
 21
14.04
  0
LINE
  8
0
 10
-16.1545
 20
14.04
 11
-16.3697
 21
14.157
  0
LINE
  8
0
 10
-16.3697
 20
14.157
 11
-16.5645
 21
14.3055
  0
LINE
  8
0
 10
-16.5645
 20
14.3055
 11
-16.7344
 21
14.482
  0
LINE
  8
0
 10
-16.7344
 20
14.482
 11
-16.8753
 21
14.6824
  0
LINE
  8
0
 10
-16.8753
 20
14.6824
 11
-16.984
 21
14.9019
  0
LINE
  8
0
 10
-16.984
 20
14.9019
 11
-17.0579
 21
15.1354
  0
LINE
  8
0
 10
-17.0579
 20
15.1354
 11
-17.0953
 21
15.3775
  0
LINE
  8
0
 10
-17.0953
 20
15.3775
 11
-17.0953
 21
15.6225
  0
LINE
  8
0
 10
-17.0953
 20
15.6225
 11
-17.0579
 21
15.8646
  0
LINE
  8
0
 10
-17.0579
 20
15.8646
 11
-16.984
 21
16.0981
  0
LINE
  8
0
 10
-16.984
 20
16.0981
 11
-16.8753
 21
16.3176
  0
LINE
  8
0
 10
-16.8753
 20
16.3176
 11
-16.7344
 21
16.518
  0
LINE
  8
0
 10
-16.7344
 20
16.518
 11
-16.5645
 21
16.6945
  0
LINE
  8
0
 10
-16.5645
 20
16.6945
 11
-16.3697
 21
16.843
  0
LINE
  8
0
 10
-16.3697
 20
16.843
 11
-16.1545
 21
16.96
  0
LINE
  8
0
 10
-16.1545
 20
16.96
 11
-15.924
 21
17.0428
  0
LINE
  8
0
 10
-15.924
 20
17.0428
 11
-15.6835
 21
17.0894
  0
LINE
  8
0
 10
-15.6835
 20
17.0894
 11
-15.4387
 21
17.0988
  0
LINE
  8
0
 10
-15.4387
 20
17.0988
 11
-15.1954
 21
17.0707
  0
LINE
  8
0
 10
-15.1954
 20
17.0707
 11
-14.9592
 21
17.0058
  0
LINE
  8
0
 10
-14.9592
 20
17.0058
 11
-14.7356
 21
16.9056
  0
LINE
  8
0
 10
-14.7356
 20
16.9056
 11
-14.53
 21
16.7725
  0
LINE
  8
0
 10
-14.53
 20
16.7725
 11
-14.3472
 21
16.6095
  0
LINE
  8
0
 10
-14.3472
 20
16.6095
 11
-14.1913
 21
16.4205
  0
LINE
  8
0
 10
-14.1913
 20
16.4205
 11
-14.0661
 21
16.2099
  0
LINE
  8
0
 10
-14.0661
 20
16.2099
 11
-13.9746
 21
15.9827
  0
LINE
  8
0
 10
-13.9746
 20
15.9827
 11
-13.9187
 21
15.7442
  0
LINE
  8
0
 10
-13.9187
 20
15.7442
 11
-13.9
 21
15.5
  0
LINE
  8
0
 10
-13.9
 20
15.5
 11
-13.9187
 21
15.2558
  0
LINE
  8
0
 10
-13.9187
 20
15.2558
 11
-13.9746
 21
15.0172
  0
LINE
  8
0
 10
-13.9746
 20
15.0172
 11
-14.0661
 21
14.79
  0
LINE
  8
0
 10
-14.0661
 20
14.79
 11
-14.1913
 21
14.5795
  0
LINE
  8
0
 10
-14.1913
 20
14.5795
 11
-14.3472
 21
14.3905
  0
LINE
  8
0
 10
-14.3472
 20
14.3905
 11
-14.53
 21
14.2275
  0
LINE
  8
0
 10
-14.53
 20
14.2275
 11
-14.7356
 21
14.0944
  0
LINE
  8
0
 10
-14.7356
 20
14.0944
 11
-14.9592
 21
13.9942
  0
LINE
  8
0
 10
-14.9592
 20
13.9942
 11
-15.1954
 21
13.9293
  0
LINE
  8
0
 10
-15.1954
 20
13.9293
 11
-15.4387
 21
13.9012
  0
LINE
  8
0
 10
-15.4387
 20
13.9012
 11
-15.6835
 21
13.9106
  0
LINE
  8
0
 10
-15.6835
 20
-17.0894
 11
-15.924
 21
-17.0428
  0
LINE
  8
0
 10
-15.924
 20
-17.0428
 11
-16.1545
 21
-16.96
  0
LINE
  8
0
 10
-16.1545
 20
-16.96
 11
-16.3697
 21
-16.843
  0
LINE
  8
0
 10
-16.3697
 20
-16.843
 11
-16.5645
 21
-16.6945
  0
LINE
  8
0
 10
-16.5645
 20
-16.6945
 11
-16.7344
 21
-16.518
  0
LINE
  8
0
 10
-16.7344
 20
-16.518
 11
-16.8753
 21
-16.3176
  0
LINE
  8
0
 10
-16.8753
 20
-16.3176
 11
-16.984
 21
-16.0981
  0
LINE
  8
0
 10
-16.984
 20
-16.0981
 11
-17.0579
 21
-15.8646
  0
LINE
  8
0
 10
-17.0579
 20
-15.8646
 11
-17.0953
 21
-15.6225
  0
LINE
  8
0
 10
-17.0953
 20
-15.6225
 11
-17.0953
 21
-15.3775
  0
LINE
  8
0
 10
-17.0953
 20
-15.3775
 11
-17.0579
 21
-15.1354
  0
LINE
  8
0
 10
-17.0579
 20
-15.1354
 11
-16.984
 21
-14.9019
  0
LINE
  8
0
 10
-16.984
 20
-14.9019
 11
-16.8753
 21
-14.6824
  0
LINE
  8
0
 10
-16.8753
 20
-14.6824
 11
-16.7344
 21
-14.482
  0
LINE
  8
0
 10
-16.7344
 20
-14.482
 11
-16.5645
 21
-14.3055
  0
LINE
  8
0
 10
-16.5645
 20
-14.3055
 11
-16.3697
 21
-14.157
  0
LINE
  8
0
 10
-16.3697
 20
-14.157
 11
-16.1545
 21
-14.04
  0
LINE
  8
0
 10
-16.1545
 20
-14.04
 11
-15.924
 21
-13.9572
  0
LINE
  8
0
 10
-15.924
 20
-13.9572
 11
-15.6835
 21
-13.9106
  0
LINE
  8
0
 10
-15.6835
 20
-13.9106
 11
-15.4387
 21
-13.9012
  0
LINE
  8
0
 10
-15.4387
 20
-13.9012
 11
-15.1954
 21
-13.9293
  0
LINE
  8
0
 10
-15.1954
 20
-13.9293
 11
-14.9592
 21
-13.9942
  0
LINE
  8
0
 10
-14.9592
 20
-13.9942
 11
-14.7356
 21
-14.0944
  0
LINE
  8
0
 10
-14.7356
 20
-14.0944
 11
-14.53
 21
-14.2275
  0
LINE
  8
0
 10
-14.53
 20
-14.2275
 11
-14.3472
 21
-14.3905
  0
LINE
  8
0
 10
-14.3472
 20
-14.3905
 11
-14.1913
 21
-14.5795
  0
LINE
  8
0
 10
-14.1913
 20
-14.5795
 11
-14.0661
 21
-14.79
  0
LINE
  8
0
 10
-14.0661
 20
-14.79
 11
-13.9746
 21
-15.0172
  0
LINE
  8
0
 10
-13.9746
 20
-15.0172
 11
-13.9187
 21
-15.2558
  0
LINE
  8
0
 10
-13.9187
 20
-15.2558
 11
-13.9
 21
-15.5
  0
LINE
  8
0
 10
-13.9
 20
-15.5
 11
-13.9187
 21
-15.7442
  0
LINE
  8
0
 10
-13.9187
 20
-15.7442
 11
-13.9746
 21
-15.9827
  0
LINE
  8
0
 10
-13.9746
 20
-15.9827
 11
-14.0661
 21
-16.2099
  0
LINE
  8
0
 10
-14.0661
 20
-16.2099
 11
-14.1913
 21
-16.4205
  0
LINE
  8
0
 10
-14.1913
 20
-16.4205
 11
-14.3472
 21
-16.6095
  0
LINE
  8
0
 10
-14.3472
 20
-16.6095
 11
-14.53
 21
-16.7725
  0
LINE
  8
0
 10
-14.53
 20
-16.7725
 11
-14.7356
 21
-16.9056
  0
LINE
  8
0
 10
-14.7356
 20
-16.9056
 11
-14.9592
 21
-17.0058
  0
LINE
  8
0
 10
-14.9592
 20
-17.0058
 11
-15.1954
 21
-17.0707
  0
LINE
  8
0
 10
-15.1954
 20
-17.0707
 11
-15.4387
 21
-17.0988
  0
LINE
  8
0
 10
-15.4387
 20
-17.0988
 11
-15.6835
 21
-17.0894
  0
LINE
  8
0
 10
15.3165
 20
-17.0894
 11
15.076
 21
-17.0428
  0
LINE
  8
0
 10
15.076
 20
-17.0428
 11
14.8455
 21
-16.96
  0
LINE
  8
0
 10
14.8455
 20
-16.96
 11
14.6303
 21
-16.843
  0
LINE
  8
0
 10
14.6303
 20
-16.843
 11
14.4355
 21
-16.6945
  0
LINE
  8
0
 10
14.4355
 20
-16.6945
 11
14.2656
 21
-16.518
  0
LINE
  8
0
 10
14.2656
 20
-16.518
 11
14.1247
 21
-16.3176
  0
LINE
  8
0
 10
14.1247
 20
-16.3176
 11
14.016
 21
-16.0981
  0
LINE
  8
0
 10
14.016
 20
-16.0981
 11
13.9421
 21
-15.8646
  0
LINE
  8
0
 10
13.9421
 20
-15.8646
 11
13.9047
 21
-15.6225
  0
LINE
  8
0
 10
13.9047
 20
-15.6225
 11
13.9047
 21
-15.3775
  0
LINE
  8
0
 10
13.9047
 20
-15.3775
 11
13.9421
 21
-15.1354
  0
LINE
  8
0
 10
13.9421
 20
-15.1354
 11
14.016
 21
-14.9019
  0
LINE
  8
0
 10
14.016
 20
-14.9019
 11
14.1247
 21
-14.6824
  0
LINE
  8
0
 10
14.1247
 20
-14.6824
 11
14.2656
 21
-14.482
  0
LINE
  8
0
 10
14.2656
 20
-14.482
 11
14.4355
 21
-14.3055
  0
LINE
  8
0
 10
14.4355
 20
-14.3055
 11
14.6303
 21
-14.157
  0
LINE
  8
0
 10
14.6303
 20
-14.157
 11
14.8455
 21
-14.04
  0
LINE
  8
0
 10
14.8455
 20
-14.04
 11
15.076
 21
-13.9572
  0
LINE
  8
0
 10
15.076
 20
-13.9572
 11
15.3165
 21
-13.9106
  0
LINE
  8
0
 10
15.3165
 20
-13.9106
 11
15.5613
 21
-13.9012
  0
LINE
  8
0
 10
15.5613
 20
-13.9012
 11
15.8046
 21
-13.9293
  0
LINE
  8
0
 10
15.8046
 20
-13.9293
 11
16.0408
 21
-13.9942
  0
LINE
  8
0
 10
16.0408
 20
-13.9942
 11
16.2643
 21
-14.0944
  0
LINE
  8
0
 10
16.2643
 20
-14.0944
 11
16.47
 21
-14.2275
  0
LINE
  8
0
 10
16.47
 20
-14.2275
 11
16.6528
 21
-14.3905
  0
LINE
  8
0
 10
16.6528
 20
-14.3905
 11
16.8087
 21
-14.5795
  0
LINE
  8
0
 10
16.8087
 20
-14.5795
 11
16.9339
 21
-14.79
  0
LINE
  8
0
 10
16.9339
 20
-14.79
 11
17.0254
 21
-15.0172
  0
LINE
  8
0
 10
17.0254
 20
-15.0172
 11
17.0812
 21
-15.2558
  0
LINE
  8
0
 10
17.0812
 20
-15.2558
 11
17.1
 21
-15.5
  0
LINE
  8
0
 10
17.1
 20
-15.5
 11
17.0812
 21
-15.7442
  0
LINE
  8
0
 10
17.0812
 20
-15.7442
 11
17.0254
 21
-15.9827
  0
LINE
  8
0
 10
17.0254
 20
-15.9827
 11
16.9339
 21
-16.2099
  0
LINE
  8
0
 10
16.9339
 20
-16.2099
 11
16.8087
 21
-16.4205
  0
LINE
  8
0
 10
16.8087
 20
-16.4205
 11
16.6528
 21
-16.6095
  0
LINE
  8
0
 10
16.6528
 20
-16.6095
 11
16.47
 21
-16.7725
  0
LINE
  8
0
 10
16.47
 20
-16.7725
 11
16.2643
 21
-16.9056
  0
LINE
  8
0
 10
16.2643
 20
-16.9056
 11
16.0408
 21
-17.0058
  0
LINE
  8
0
 10
16.0408
 20
-17.0058
 11
15.8046
 21
-17.0707
  0
LINE
  8
0
 10
15.8046
 20
-17.0707
 11
15.5613
 21
-17.0988
  0
LINE
  8
0
 10
15.5613
 20
-17.0988
 11
15.3165
 21
-17.0894
  0
ENDSEC
  0
SECTION
  2
OBJECTS
  0
DICTIONARY
  0
ENDSEC
  0
EOF
