  0
SECTION
  2
BLOCKS
  0
ENDSEC
  0
SECTION
  2
ENTITIES
  0
LINE
  8
0
 10
37.3136
 20
-59.9836
 11
37.6237
 21
-59.9344
  0
LINE
  8
0
 10
37.6237
 20
-59.9344
 11
37.927
 21
-59.8532
  0
LINE
  8
0
 10
37.927
 20
-59.8532
 11
38.2202
 21
-59.7406
  0
LINE
  8
0
 10
38.2202
 20
-59.7406
 11
38.5
 21
-59.5981
  0
LINE
  8
0
 10
38.5
 20
-59.5981
 11
38.7634
 21
-59.427
  0
LINE
  8
0
 10
38.7634
 20
-59.427
 11
39.0074
 21
-59.2294
  0
LINE
  8
0
 10
39.0074
 20
-59.2294
 11
39.2294
 21
-59.0074
  0
LINE
  8
0
 10
39.2294
 20
-59.0074
 11
39.427
 21
-58.7634
  0
LINE
  8
0
 10
39.427
 20
-58.7634
 11
39.5981
 21
-58.5
  0
LINE
  8
0
 10
39.5981
 20
-58.5
 11
39.7406
 21
-58.2202
  0
LINE
  8
0
 10
39.7406
 20
-58.2202
 11
39.8532
 21
-57.927
  0
LINE
  8
0
 10
39.8532
 20
-57.927
 11
39.9344
 21
-57.6237
  0
LINE
  8
0
 10
39.9344
 20
-57.6237
 11
39.9836
 21
-57.3136
  0
LINE
  8
0
 10
39.9836
 20
-57.3136
 11
40
 21
-57
  0
LINE
  8
0
 10
40
 20
-57
 11
40
 21
87
  0
LINE
  8
0
 10
40
 20
87
 11
39.9836
 21
87.3136
  0
LINE
  8
0
 10
39.9836
 20
87.3136
 11
39.9344
 21
87.6237
  0
LINE
  8
0
 10
39.9344
 20
87.6237
 11
39.8532
 21
87.927
  0
LINE
  8
0
 10
39.8532
 20
87.927
 11
39.7406
 21
88.2202
  0
LINE
  8
0
 10
39.7406
 20
88.2202
 11
39.5981
 21
88.5
  0
LINE
  8
0
 10
39.5981
 20
88.5
 11
39.427
 21
88.7634
  0
LINE
  8
0
 10
39.427
 20
88.7634
 11
39.2294
 21
89.0074
  0
LINE
  8
0
 10
39.2294
 20
89.0074
 11
39.0074
 21
89.2294
  0
LINE
  8
0
 10
39.0074
 20
89.2294
 11
38.7634
 21
89.427
  0
LINE
  8
0
 10
38.7634
 20
89.427
 11
38.5
 21
89.5981
  0
LINE
  8
0
 10
38.5
 20
89.5981
 11
38.2202
 21
89.7406
  0
LINE
  8
0
 10
38.2202
 20
89.7406
 11
37.927
 21
89.8532
  0
LINE
  8
0
 10
37.927
 20
89.8532
 11
37.6237
 21
89.9344
  0
LINE
  8
0
 10
37.6237
 20
89.9344
 11
37.3136
 21
89.9836
  0
LINE
  8
0
 10
37.3136
 20
89.9836
 11
37
 21
90
  0
LINE
  8
0
 10
37
 20
90
 11
-37
 21
90
  0
LINE
  8
0
 10
-37
 20
90
 11
-37.3136
 21
89.9836
  0
LINE
  8
0
 10
-37.3136
 20
89.9836
 11
-37.6237
 21
89.9344
  0
LINE
  8
0
 10
-37.6237
 20
89.9344
 11
-37.927
 21
89.8532
  0
LINE
  8
0
 10
-37.927
 20
89.8532
 11
-38.2202
 21
89.7406
  0
LINE
  8
0
 10
-38.2202
 20
89.7406
 11
-38.5
 21
89.5981
  0
LINE
  8
0
 10
-38.5
 20
89.5981
 11
-38.7634
 21
89.427
  0
LINE
  8
0
 10
-38.7634
 20
89.427
 11
-39.0074
 21
89.2294
  0
LINE
  8
0
 10
-39.0074
 20
89.2294
 11
-39.2294
 21
89.0074
  0
LINE
  8
0
 10
-39.2294
 20
89.0074
 11
-39.427
 21
88.7634
  0
LINE
  8
0
 10
-39.427
 20
88.7634
 11
-39.5981
 21
88.5
  0
LINE
  8
0
 10
-39.5981
 20
88.5
 11
-39.7406
 21
88.2202
  0
LINE
  8
0
 10
-39.7406
 20
88.2202
 11
-39.8532
 21
87.927
  0
LINE
  8
0
 10
-39.8532
 20
87.927
 11
-39.9344
 21
87.6237
  0
LINE
  8
0
 10
-39.9344
 20
87.6237
 11
-39.9836
 21
87.3136
  0
LINE
  8
0
 10
-39.9836
 20
87.3136
 11
-40
 21
87
  0
LINE
  8
0
 10
-40
 20
87
 11
-40
 21
-57
  0
LINE
  8
0
 10
-40
 20
-57
 11
-39.9836
 21
-57.3136
  0
LINE
  8
0
 10
-39.9836
 20
-57.3136
 11
-39.9344
 21
-57.6237
  0
LINE
  8
0
 10
-39.9344
 20
-57.6237
 11
-39.8532
 21
-57.927
  0
LINE
  8
0
 10
-39.8532
 20
-57.927
 11
-39.7406
 21
-58.2202
  0
LINE
  8
0
 10
-39.7406
 20
-58.2202
 11
-39.5981
 21
-58.5
  0
LINE
  8
0
 10
-39.5981
 20
-58.5
 11
-39.427
 21
-58.7634
  0
LINE
  8
0
 10
-39.427
 20
-58.7634
 11
-39.2294
 21
-59.0074
  0
LINE
  8
0
 10
-39.2294
 20
-59.0074
 11
-39.0074
 21
-59.2294
  0
LINE
  8
0
 10
-39.0074
 20
-59.2294
 11
-38.7634
 21
-59.427
  0
LINE
  8
0
 10
-38.7634
 20
-59.427
 11
-38.5
 21
-59.5981
  0
LINE
  8
0
 10
-38.5
 20
-59.5981
 11
-38.2202
 21
-59.7406
  0
LINE
  8
0
 10
-38.2202
 20
-59.7406
 11
-37.927
 21
-59.8532
  0
LINE
  8
0
 10
-37.927
 20
-59.8532
 11
-37.6237
 21
-59.9344
  0
LINE
  8
0
 10
-37.6237
 20
-59.9344
 11
-37.3136
 21
-59.9836
  0
LINE
  8
0
 10
-37.3136
 20
-59.9836
 11
-37
 21
-60
  0
LINE
  8
0
 10
-37
 20
-60
 11
37
 21
-60
  0
LINE
  8
0
 10
37
 20
-60
 11
37.3136
 21
-59.9836
  0
LINE
  8
0
 10
-12.2718
 20
25.4142
 11
-12.5406
 21
25.4568
  0
LINE
  8
0
 10
-12.5406
 20
25.4568
 11
-12.8034
 21
25.5273
  0
LINE
  8
0
 10
-12.8034
 20
25.5273
 11
-13.0575
 21
25.6248
  0
LINE
  8
0
 10
-13.0575
 20
25.6248
 11
-13.3
 21
25.7483
  0
LINE
  8
0
 10
-13.3
 20
25.7483
 11
-13.5282
 21
25.8966
  0
LINE
  8
0
 10
-13.5282
 20
25.8966
 11
-13.7397
 21
26.0678
  0
LINE
  8
0
 10
-13.7397
 20
26.0678
 11
-13.9322
 21
26.2603
  0
LINE
  8
0
 10
-13.9322
 20
26.2603
 11
-14.1034
 21
26.4718
  0
LINE
  8
0
 10
-14.1034
 20
26.4718
 11
-14.2517
 21
26.7
  0
LINE
  8
0
 10
-14.2517
 20
26.7
 11
-14.3752
 21
26.9425
  0
LINE
  8
0
 10
-14.3752
 20
26.9425
 11
-14.4727
 21
27.1966
  0
LINE
  8
0
 10
-14.4727
 20
27.1966
 11
-14.5432
 21
27.4594
  0
LINE
  8
0
 10
-14.5432
 20
27.4594
 11
-14.5858
 21
27.7282
  0
LINE
  8
0
 10
-14.5858
 20
27.7282
 11
-14.6
 21
28
  0
LINE
  8
0
 10
-14.6
 20
28
 11
-14.5858
 21
28.2718
  0
LINE
  8
0
 10
-14.5858
 20
28.2718
 11
-14.5432
 21
28.5406
  0
LINE
  8
0
 10
-14.5432
 20
28.5406
 11
-14.4727
 21
28.8035
  0
LINE
  8
0
 10
-14.4727
 20
28.8035
 11
-14.3752
 21
29.0575
  0
LINE
  8
0
 10
-14.3752
 20
29.0575
 11
-14.2517
 21
29.3
  0
LINE
  8
0
 10
-14.2517
 20
29.3
 11
-14.1034
 21
29.5282
  0
LINE
  8
0
 10
-14.1034
 20
29.5282
 11
-13.9322
 21
29.7397
  0
LINE
  8
0
 10
-13.9322
 20
29.7397
 11
-13.7397
 21
29.9322
  0
LINE
  8
0
 10
-13.7397
 20
29.9322
 11
-13.5282
 21
30.1035
  0
LINE
  8
0
 10
-13.5282
 20
30.1035
 11
-13.3
 21
30.2517
  0
LINE
  8
0
 10
-13.3
 20
30.2517
 11
-13.0575
 21
30.3752
  0
LINE
  8
0
 10
-13.0575
 20
30.3752
 11
-12.8034
 21
30.4727
  0
LINE
  8
0
 10
-12.8034
 20
30.4727
 11
-12.5406
 21
30.5432
  0
LINE
  8
0
 10
-12.5406
 20
30.5432
 11
-12.2718
 21
30.5858
  0
LINE
  8
0
 10
-12.2718
 20
30.5858
 11
-12
 21
30.6
  0
LINE
  8
0
 10
-12
 20
30.6
 11
-11.7282
 21
30.5858
  0
LINE
  8
0
 10
-11.7282
 20
30.5858
 11
-11.4594
 21
30.5432
  0
LINE
  8
0
 10
-11.4594
 20
30.5432
 11
-11.1965
 21
30.4727
  0
LINE
  8
0
 10
-11.1965
 20
30.4727
 11
-10.9425
 21
30.3752
  0
LINE
  8
0
 10
-10.9425
 20
30.3752
 11
-10.7
 21
30.2517
  0
LINE
  8
0
 10
-10.7
 20
30.2517
 11
-10.4718
 21
30.1035
  0
LINE
  8
0
 10
-10.4718
 20
30.1035
 11
-10.2603
 21
29.9322
  0
LINE
  8
0
 10
-10.2603
 20
29.9322
 11
-10.0678
 21
29.7397
  0
LINE
  8
0
 10
-10.0678
 20
29.7397
 11
-9.89655
 21
29.5282
  0
LINE
  8
0
 10
-9.89655
 20
29.5282
 11
-9.74832
 21
29.3
  0
LINE
  8
0
 10
-9.74832
 20
29.3
 11
-9.62477
 21
29.0575
  0
LINE
  8
0
 10
-9.62477
 20
29.0575
 11
-9.52725
 21
28.8035
  0
LINE
  8
0
 10
-9.52725
 20
28.8035
 11
-9.4568
 21
28.5406
  0
LINE
  8
0
 10
-9.4568
 20
28.5406
 11
-9.41423
 21
28.2718
  0
LINE
  8
0
 10
-9.41423
 20
28.2718
 11
-9.39999
 21
28
  0
LINE
  8
0
 10
-9.39999
 20
28
 11
-9.41423
 21
27.7282
  0
LINE
  8
0
 10
-9.41423
 20
27.7282
 11
-9.4568
 21
27.4594
  0
LINE
  8
0
 10
-9.4568
 20
27.4594
 11
-9.52725
 21
27.1966
  0
LINE
  8
0
 10
-9.52725
 20
27.1966
 11
-9.62477
 21
26.9425
  0
LINE
  8
0
 10
-9.62477
 20
26.9425
 11
-9.74832
 21
26.7
  0
LINE
  8
0
 10
-9.74832
 20
26.7
 11
-9.89655
 21
26.4718
  0
LINE
  8
0
 10
-9.89655
 20
26.4718
 11
-10.0678
 21
26.2603
  0
LINE
  8
0
 10
-10.0678
 20
26.2603
 11
-10.2603
 21
26.0678
  0
LINE
  8
0
 10
-10.2603
 20
26.0678
 11
-10.4718
 21
25.8966
  0
LINE
  8
0
 10
-10.4718
 20
25.8966
 11
-10.7
 21
25.7483
  0
LINE
  8
0
 10
-10.7
 20
25.7483
 11
-10.9425
 21
25.6248
  0
LINE
  8
0
 10
-10.9425
 20
25.6248
 11
-11.1965
 21
25.5273
  0
LINE
  8
0
 10
-11.1965
 20
25.5273
 11
-11.4594
 21
25.4568
  0
LINE
  8
0
 10
-11.4594
 20
25.4568
 11
-11.7282
 21
25.4142
  0
LINE
  8
0
 10
-11.7282
 20
25.4142
 11
-12
 21
25.4
  0
LINE
  8
0
 10
-12
 20
25.4
 11
-12.2718
 21
25.4142
  0
LINE
  8
0
 10
11.7282
 20
25.4142
 11
11.4594
 21
25.4568
  0
LINE
  8
0
 10
11.4594
 20
25.4568
 11
11.1965
 21
25.5273
  0
LINE
  8
0
 10
11.1965
 20
25.5273
 11
10.9425
 21
25.6248
  0
LINE
  8
0
 10
10.9425
 20
25.6248
 11
10.7
 21
25.7483
  0
LINE
  8
0
 10
10.7
 20
25.7483
 11
10.4718
 21
25.8966
  0
LINE
  8
0
 10
10.4718
 20
25.8966
 11
10.2603
 21
26.0678
  0
LINE
  8
0
 10
10.2603
 20
26.0678
 11
10.0678
 21
26.2603
  0
LINE
  8
0
 10
10.0678
 20
26.2603
 11
9.89655
 21
26.4718
  0
LINE
  8
0
 10
9.89655
 20
26.4718
 11
9.74832
 21
26.7
  0
LINE
  8
0
 10
9.74832
 20
26.7
 11
9.62477
 21
26.9425
  0
LINE
  8
0
 10
9.62477
 20
26.9425
 11
9.52725
 21
27.1966
  0
LINE
  8
0
 10
9.52725
 20
27.1966
 11
9.4568
 21
27.4594
  0
LINE
  8
0
 10
9.4568
 20
27.4594
 11
9.41423
 21
27.7282
  0
LINE
  8
0
 10
9.41423
 20
27.7282
 11
9.39999
 21
28
  0
LINE
  8
0
 10
9.39999
 20
28
 11
9.41423
 21
28.2718
  0
LINE
  8
0
 10
9.41423
 20
28.2718
 11
9.4568
 21
28.5406
  0
LINE
  8
0
 10
9.4568
 20
28.5406
 11
9.52725
 21
28.8035
  0
LINE
  8
0
 10
9.52725
 20
28.8035
 11
9.62477
 21
29.0575
  0
LINE
  8
0
 10
9.62477
 20
29.0575
 11
9.74832
 21
29.3
  0
LINE
  8
0
 10
9.74832
 20
29.3
 11
9.89655
 21
29.5282
  0
LINE
  8
0
 10
9.89655
 20
29.5282
 11
10.0678
 21
29.7397
  0
LINE
  8
0
 10
10.0678
 20
29.7397
 11
10.2603
 21
29.9322
  0
LINE
  8
0
 10
10.2603
 20
29.9322
 11
10.4718
 21
30.1035
  0
LINE
  8
0
 10
10.4718
 20
30.1035
 11
10.7
 21
30.2517
  0
LINE
  8
0
 10
10.7
 20
30.2517
 11
10.9425
 21
30.3752
  0
LINE
  8
0
 10
10.9425
 20
30.3752
 11
11.1965
 21
30.4727
  0
LINE
  8
0
 10
11.1965
 20
30.4727
 11
11.4594
 21
30.5432
  0
LINE
  8
0
 10
11.4594
 20
30.5432
 11
11.7282
 21
30.5858
  0
LINE
  8
0
 10
11.7282
 20
30.5858
 11
12
 21
30.6
  0
LINE
  8
0
 10
12
 20
30.6
 11
12.2718
 21
30.5858
  0
LINE
  8
0
 10
12.2718
 20
30.5858
 11
12.5406
 21
30.5432
  0
LINE
  8
0
 10
12.5406
 20
30.5432
 11
12.8034
 21
30.4727
  0
LINE
  8
0
 10
12.8034
 20
30.4727
 11
13.0575
 21
30.3752
  0
LINE
  8
0
 10
13.0575
 20
30.3752
 11
13.3
 21
30.2517
  0
LINE
  8
0
 10
13.3
 20
30.2517
 11
13.5282
 21
30.1035
  0
LINE
  8
0
 10
13.5282
 20
30.1035
 11
13.7397
 21
29.9322
  0
LINE
  8
0
 10
13.7397
 20
29.9322
 11
13.9322
 21
29.7397
  0
LINE
  8
0
 10
13.9322
 20
29.7397
 11
14.1034
 21
29.5282
  0
LINE
  8
0
 10
14.1034
 20
29.5282
 11
14.2517
 21
29.3
  0
LINE
  8
0
 10
14.2517
 20
29.3
 11
14.3752
 21
29.0575
  0
LINE
  8
0
 10
14.3752
 20
29.0575
 11
14.4727
 21
28.8035
  0
LINE
  8
0
 10
14.4727
 20
28.8035
 11
14.5432
 21
28.5406
  0
LINE
  8
0
 10
14.5432
 20
28.5406
 11
14.5858
 21
28.2718
  0
LINE
  8
0
 10
14.5858
 20
28.2718
 11
14.6
 21
28
  0
LINE
  8
0
 10
14.6
 20
28
 11
14.5858
 21
27.7282
  0
LINE
  8
0
 10
14.5858
 20
27.7282
 11
14.5432
 21
27.4594
  0
LINE
  8
0
 10
14.5432
 20
27.4594
 11
14.4727
 21
27.1966
  0
LINE
  8
0
 10
14.4727
 20
27.1966
 11
14.3752
 21
26.9425
  0
LINE
  8
0
 10
14.3752
 20
26.9425
 11
14.2517
 21
26.7
  0
LINE
  8
0
 10
14.2517
 20
26.7
 11
14.1034
 21
26.4718
  0
LINE
  8
0
 10
14.1034
 20
26.4718
 11
13.9322
 21
26.2603
  0
LINE
  8
0
 10
13.9322
 20
26.2603
 11
13.7397
 21
26.0678
  0
LINE
  8
0
 10
13.7397
 20
26.0678
 11
13.5282
 21
25.8966
  0
LINE
  8
0
 10
13.5282
 20
25.8966
 11
13.3
 21
25.7483
  0
LINE
  8
0
 10
13.3
 20
25.7483
 11
13.0575
 21
25.6248
  0
LINE
  8
0
 10
13.0575
 20
25.6248
 11
12.8034
 21
25.5273
  0
LINE
  8
0
 10
12.8034
 20
25.5273
 11
12.5406
 21
25.4568
  0
LINE
  8
0
 10
12.5406
 20
25.4568
 11
12.2718
 21
25.4142
  0
LINE
  8
0
 10
12.2718
 20
25.4142
 11
12
 21
25.4
  0
LINE
  8
0
 10
12
 20
25.4
 11
11.7282
 21
25.4142
  0
LINE
  8
0
 10
-12.2718
 20
-14.5858
 11
-12.5406
 21
-14.5432
  0
LINE
  8
0
 10
-12.5406
 20
-14.5432
 11
-12.8034
 21
-14.4727
  0
LINE
  8
0
 10
-12.8034
 20
-14.4727
 11
-13.0575
 21
-14.3752
  0
LINE
  8
0
 10
-13.0575
 20
-14.3752
 11
-13.3
 21
-14.2517
  0
LINE
  8
0
 10
-13.3
 20
-14.2517
 11
-13.5282
 21
-14.1034
  0
LINE
  8
0
 10
-13.5282
 20
-14.1034
 11
-13.7397
 21
-13.9322
  0
LINE
  8
0
 10
-13.7397
 20
-13.9322
 11
-13.9322
 21
-13.7397
  0
LINE
  8
0
 10
-13.9322
 20
-13.7397
 11
-14.1034
 21
-13.5282
  0
LINE
  8
0
 10
-14.1034
 20
-13.5282
 11
-14.2517
 21
-13.3
  0
LINE
  8
0
 10
-14.2517
 20
-13.3
 11
-14.3752
 21
-13.0575
  0
LINE
  8
0
 10
-14.3752
 20
-13.0575
 11
-14.4727
 21
-12.8034
  0
LINE
  8
0
 10
-14.4727
 20
-12.8034
 11
-14.5432
 21
-12.5406
  0
LINE
  8
0
 10
-14.5432
 20
-12.5406
 11
-14.5858
 21
-12.2718
  0
LINE
  8
0
 10
-14.5858
 20
-12.2718
 11
-14.6
 21
-12
  0
LINE
  8
0
 10
-14.6
 20
-12
 11
-14.5858
 21
-11.7282
  0
LINE
  8
0
 10
-14.5858
 20
-11.7282
 11
-14.5432
 21
-11.4594
  0
LINE
  8
0
 10
-14.5432
 20
-11.4594
 11
-14.4727
 21
-11.1965
  0
LINE
  8
0
 10
-14.4727
 20
-11.1965
 11
-14.3752
 21
-10.9425
  0
LINE
  8
0
 10
-14.3752
 20
-10.9425
 11
-14.2517
 21
-10.7
  0
LINE
  8
0
 10
-14.2517
 20
-10.7
 11
-14.1034
 21
-10.4718
  0
LINE
  8
0
 10
-14.1034
 20
-10.4718
 11
-13.9322
 21
-10.2603
  0
LINE
  8
0
 10
-13.9322
 20
-10.2603
 11
-13.7397
 21
-10.0678
  0
LINE
  8
0
 10
-13.7397
 20
-10.0678
 11
-13.5282
 21
-9.89655
  0
LINE
  8
0
 10
-13.5282
 20
-9.89655
 11
-13.3
 21
-9.74832
  0
LINE
  8
0
 10
-13.3
 20
-9.74832
 11
-13.0575
 21
-9.62477
  0
LINE
  8
0
 10
-13.0575
 20
-9.62477
 11
-12.8034
 21
-9.52725
  0
LINE
  8
0
 10
-12.8034
 20
-9.52725
 11
-12.5406
 21
-9.4568
  0
LINE
  8
0
 10
-12.5406
 20
-9.4568
 11
-12.2718
 21
-9.41423
  0
LINE
  8
0
 10
-12.2718
 20
-9.41423
 11
-12
 21
-9.39999
  0
LINE
  8
0
 10
-12
 20
-9.39999
 11
-11.7282
 21
-9.41423
  0
LINE
  8
0
 10
-11.7282
 20
-9.41423
 11
-11.4594
 21
-9.4568
  0
LINE
  8
0
 10
-11.4594
 20
-9.4568
 11
-11.1965
 21
-9.52725
  0
LINE
  8
0
 10
-11.1965
 20
-9.52725
 11
-10.9425
 21
-9.62477
  0
LINE
  8
0
 10
-10.9425
 20
-9.62477
 11
-10.7
 21
-9.74832
  0
LINE
  8
0
 10
-10.7
 20
-9.74832
 11
-10.4718
 21
-9.89655
  0
LINE
  8
0
 10
-10.4718
 20
-9.89655
 11
-10.2603
 21
-10.0678
  0
LINE
  8
0
 10
-10.2603
 20
-10.0678
 11
-10.0678
 21
-10.2603
  0
LINE
  8
0
 10
-10.0678
 20
-10.2603
 11
-9.89655
 21
-10.4718
  0
LINE
  8
0
 10
-9.89655
 20
-10.4718
 11
-9.74832
 21
-10.7
  0
LINE
  8
0
 10
-9.74832
 20
-10.7
 11
-9.62477
 21
-10.9425
  0
LINE
  8
0
 10
-9.62477
 20
-10.9425
 11
-9.52725
 21
-11.1965
  0
LINE
  8
0
 10
-9.52725
 20
-11.1965
 11
-9.4568
 21
-11.4594
  0
LINE
  8
0
 10
-9.4568
 20
-11.4594
 11
-9.41423
 21
-11.7282
  0
LINE
  8
0
 10
-9.41423
 20
-11.7282
 11
-9.39999
 21
-12
  0
LINE
  8
0
 10
-9.39999
 20
-12
 11
-9.41423
 21
-12.2718
  0
LINE
  8
0
 10
-9.41423
 20
-12.2718
 11
-9.4568
 21
-12.5406
  0
LINE
  8
0
 10
-9.4568
 20
-12.5406
 11
-9.52725
 21
-12.8034
  0
LINE
  8
0
 10
-9.52725
 20
-12.8034
 11
-9.62477
 21
-13.0575
  0
LINE
  8
0
 10
-9.62477
 20
-13.0575
 11
-9.74832
 21
-13.3
  0
LINE
  8
0
 10
-9.74832
 20
-13.3
 11
-9.89655
 21
-13.5282
  0
LINE
  8
0
 10
-9.89655
 20
-13.5282
 11
-10.0678
 21
-13.7397
  0
LINE
  8
0
 10
-10.0678
 20
-13.7397
 11
-10.2603
 21
-13.9322
  0
LINE
  8
0
 10
-10.2603
 20
-13.9322
 11
-10.4718
 21
-14.1034
  0
LINE
  8
0
 10
-10.4718
 20
-14.1034
 11
-10.7
 21
-14.2517
  0
LINE
  8
0
 10
-10.7
 20
-14.2517
 11
-10.9425
 21
-14.3752
  0
LINE
  8
0
 10
-10.9425
 20
-14.3752
 11
-11.1965
 21
-14.4727
  0
LINE
  8
0
 10
-11.1965
 20
-14.4727
 11
-11.4594
 21
-14.5432
  0
LINE
  8
0
 10
-11.4594
 20
-14.5432
 11
-11.7282
 21
-14.5858
  0
LINE
  8
0
 10
-11.7282
 20
-14.5858
 11
-12
 21
-14.6
  0
LINE
  8
0
 10
-12
 20
-14.6
 11
-12.2718
 21
-14.5858
  0
LINE
  8
0
 10
11.7282
 20
-14.5858
 11
11.4594
 21
-14.5432
  0
LINE
  8
0
 10
11.4594
 20
-14.5432
 11
11.1965
 21
-14.4727
  0
LINE
  8
0
 10
11.1965
 20
-14.4727
 11
10.9425
 21
-14.3752
  0
LINE
  8
0
 10
10.9425
 20
-14.3752
 11
10.7
 21
-14.2517
  0
LINE
  8
0
 10
10.7
 20
-14.2517
 11
10.4718
 21
-14.1034
  0
LINE
  8
0
 10
10.4718
 20
-14.1034
 11
10.2603
 21
-13.9322
  0
LINE
  8
0
 10
10.2603
 20
-13.9322
 11
10.0678
 21
-13.7397
  0
LINE
  8
0
 10
10.0678
 20
-13.7397
 11
9.89655
 21
-13.5282
  0
LINE
  8
0
 10
9.89655
 20
-13.5282
 11
9.74832
 21
-13.3
  0
LINE
  8
0
 10
9.74832
 20
-13.3
 11
9.62477
 21
-13.0575
  0
LINE
  8
0
 10
9.62477
 20
-13.0575
 11
9.52725
 21
-12.8034
  0
LINE
  8
0
 10
9.52725
 20
-12.8034
 11
9.4568
 21
-12.5406
  0
LINE
  8
0
 10
9.4568
 20
-12.5406
 11
9.41423
 21
-12.2718
  0
LINE
  8
0
 10
9.41423
 20
-12.2718
 11
9.39999
 21
-12
  0
LINE
  8
0
 10
9.39999
 20
-12
 11
9.41423
 21
-11.7282
  0
LINE
  8
0
 10
9.41423
 20
-11.7282
 11
9.4568
 21
-11.4594
  0
LINE
  8
0
 10
9.4568
 20
-11.4594
 11
9.52725
 21
-11.1965
  0
LINE
  8
0
 10
9.52725
 20
-11.1965
 11
9.62477
 21
-10.9425
  0
LINE
  8
0
 10
9.62477
 20
-10.9425
 11
9.74832
 21
-10.7
  0
LINE
  8
0
 10
9.74832
 20
-10.7
 11
9.89655
 21
-10.4718
  0
LINE
  8
0
 10
9.89655
 20
-10.4718
 11
10.0678
 21
-10.2603
  0
LINE
  8
0
 10
10.0678
 20
-10.2603
 11
10.2603
 21
-10.0678
  0
LINE
  8
0
 10
10.2603
 20
-10.0678
 11
10.4718
 21
-9.89655
  0
LINE
  8
0
 10
10.4718
 20
-9.89655
 11
10.7
 21
-9.74832
  0
LINE
  8
0
 10
10.7
 20
-9.74832
 11
10.9425
 21
-9.62477
  0
LINE
  8
0
 10
10.9425
 20
-9.62477
 11
11.1965
 21
-9.52725
  0
LINE
  8
0
 10
11.1965
 20
-9.52725
 11
11.4594
 21
-9.4568
  0
LINE
  8
0
 10
11.4594
 20
-9.4568
 11
11.7282
 21
-9.41423
  0
LINE
  8
0
 10
11.7282
 20
-9.41423
 11
12
 21
-9.39999
  0
LINE
  8
0
 10
12
 20
-9.39999
 11
12.2718
 21
-9.41423
  0
LINE
  8
0
 10
12.2718
 20
-9.41423
 11
12.5406
 21
-9.4568
  0
LINE
  8
0
 10
12.5406
 20
-9.4568
 11
12.8034
 21
-9.52725
  0
LINE
  8
0
 10
12.8034
 20
-9.52725
 11
13.0575
 21
-9.62477
  0
LINE
  8
0
 10
13.0575
 20
-9.62477
 11
13.3
 21
-9.74832
  0
LINE
  8
0
 10
13.3
 20
-9.74832
 11
13.5282
 21
-9.89655
  0
LINE
  8
0
 10
13.5282
 20
-9.89655
 11
13.7397
 21
-10.0678
  0
LINE
  8
0
 10
13.7397
 20
-10.0678
 11
13.9322
 21
-10.2603
  0
LINE
  8
0
 10
13.9322
 20
-10.2603
 11
14.1034
 21
-10.4718
  0
LINE
  8
0
 10
14.1034
 20
-10.4718
 11
14.2517
 21
-10.7
  0
LINE
  8
0
 10
14.2517
 20
-10.7
 11
14.3752
 21
-10.9425
  0
LINE
  8
0
 10
14.3752
 20
-10.9425
 11
14.4727
 21
-11.1965
  0
LINE
  8
0
 10
14.4727
 20
-11.1965
 11
14.5432
 21
-11.4594
  0
LINE
  8
0
 10
14.5432
 20
-11.4594
 11
14.5858
 21
-11.7282
  0
LINE
  8
0
 10
14.5858
 20
-11.7282
 11
14.6
 21
-12
  0
LINE
  8
0
 10
14.6
 20
-12
 11
14.5858
 21
-12.2718
  0
LINE
  8
0
 10
14.5858
 20
-12.2718
 11
14.5432
 21
-12.5406
  0
LINE
  8
0
 10
14.5432
 20
-12.5406
 11
14.4727
 21
-12.8034
  0
LINE
  8
0
 10
14.4727
 20
-12.8034
 11
14.3752
 21
-13.0575
  0
LINE
  8
0
 10
14.3752
 20
-13.0575
 11
14.2517
 21
-13.3
  0
LINE
  8
0
 10
14.2517
 20
-13.3
 11
14.1034
 21
-13.5282
  0
LINE
  8
0
 10
14.1034
 20
-13.5282
 11
13.9322
 21
-13.7397
  0
LINE
  8
0
 10
13.9322
 20
-13.7397
 11
13.7397
 21
-13.9322
  0
LINE
  8
0
 10
13.7397
 20
-13.9322
 11
13.5282
 21
-14.1034
  0
LINE
  8
0
 10
13.5282
 20
-14.1034
 11
13.3
 21
-14.2517
  0
LINE
  8
0
 10
13.3
 20
-14.2517
 11
13.0575
 21
-14.3752
  0
LINE
  8
0
 10
13.0575
 20
-14.3752
 11
12.8034
 21
-14.4727
  0
LINE
  8
0
 10
12.8034
 20
-14.4727
 11
12.5406
 21
-14.5432
  0
LINE
  8
0
 10
12.5406
 20
-14.5432
 11
12.2718
 21
-14.5858
  0
LINE
  8
0
 10
12.2718
 20
-14.5858
 11
12
 21
-14.6
  0
LINE
  8
0
 10
12
 20
-14.6
 11
11.7282
 21
-14.5858
  0
LINE
  8
0
 10
19.7282
 20
-43.5858
 11
19.4594
 21
-43.5432
  0
LINE
  8
0
 10
19.4594
 20
-43.5432
 11
19.1965
 21
-43.4727
  0
LINE
  8
0
 10
19.1965
 20
-43.4727
 11
18.9425
 21
-43.3752
  0
LINE
  8
0
 10
18.9425
 20
-43.3752
 11
18.7
 21
-43.2517
  0
LINE
  8
0
 10
18.7
 20
-43.2517
 11
18.4718
 21
-43.1034
  0
LINE
  8
0
 10
18.4718
 20
-43.1034
 11
18.2603
 21
-42.9322
  0
LINE
  8
0
 10
18.2603
 20
-42.9322
 11
18.0678
 21
-42.7397
  0
LINE
  8
0
 10
18.0678
 20
-42.7397
 11
17.8965
 21
-42.5282
  0
LINE
  8
0
 10
17.8965
 20
-42.5282
 11
17.7483
 21
-42.3
  0
LINE
  8
0
 10
17.7483
 20
-42.3
 11
17.6248
 21
-42.0575
  0
LINE
  8
0
 10
17.6248
 20
-42.0575
 11
17.5273
 21
-41.8034
  0
LINE
  8
0
 10
17.5273
 20
-41.8034
 11
17.4568
 21
-41.5406
  0
LINE
  8
0
 10
17.4568
 20
-41.5406
 11
17.4142
 21
-41.2718
  0
LINE
  8
0
 10
17.4142
 20
-41.2718
 11
17.4
 21
-41
  0
LINE
  8
0
 10
17.4
 20
-41
 11
17.4142
 21
-40.7282
  0
LINE
  8
0
 10
17.4142
 20
-40.7282
 11
17.4568
 21
-40.4594
  0
LINE
  8
0
 10
17.4568
 20
-40.4594
 11
17.5273
 21
-40.1965
  0
LINE
  8
0
 10
17.5273
 20
-40.1965
 11
17.6248
 21
-39.9425
  0
LINE
  8
0
 10
17.6248
 20
-39.9425
 11
17.7483
 21
-39.7
  0
LINE
  8
0
 10
17.7483
 20
-39.7
 11
17.8965
 21
-39.4718
  0
LINE
  8
0
 10
17.8965
 20
-39.4718
 11
18.0678
 21
-39.2603
  0
LINE
  8
0
 10
18.0678
 20
-39.2603
 11
18.2603
 21
-39.0678
  0
LINE
  8
0
 10
18.2603
 20
-39.0678
 11
18.4718
 21
-38.8965
  0
LINE
  8
0
 10
18.4718
 20
-38.8965
 11
18.7
 21
-38.7483
  0
LINE
  8
0
 10
18.7
 20
-38.7483
 11
18.9425
 21
-38.6248
  0
LINE
  8
0
 10
18.9425
 20
-38.6248
 11
19.1965
 21
-38.5273
  0
LINE
  8
0
 10
19.1965
 20
-38.5273
 11
19.4594
 21
-38.4568
  0
LINE
  8
0
 10
19.4594
 20
-38.4568
 11
19.7282
 21
-38.4142
  0
LINE
  8
0
 10
19.7282
 20
-38.4142
 11
20
 21
-38.4
  0
LINE
  8
0
 10
20
 20
-38.4
 11
20.2718
 21
-38.4142
  0
LINE
  8
0
 10
20.2718
 20
-38.4142
 11
20.5406
 21
-38.4568
  0
LINE
  8
0
 10
20.5406
 20
-38.4568
 11
20.8034
 21
-38.5273
  0
LINE
  8
0
 10
20.8034
 20
-38.5273
 11
21.0575
 21
-38.6248
  0
LINE
  8
0
 10
21.0575
 20
-38.6248
 11
21.3
 21
-38.7483
  0
LINE
  8
0
 10
21.3
 20
-38.7483
 11
21.5282
 21
-38.8965
  0
LINE
  8
0
 10
21.5282
 20
-38.8965
 11
21.7397
 21
-39.0678
  0
LINE
  8
0
 10
21.7397
 20
-39.0678
 11
21.9322
 21
-39.2603
  0
LINE
  8
0
 10
21.9322
 20
-39.2603
 11
22.1034
 21
-39.4718
  0
LINE
  8
0
 10
22.1034
 20
-39.4718
 11
22.2517
 21
-39.7
  0
LINE
  8
0
 10
22.2517
 20
-39.7
 11
22.3752
 21
-39.9425
  0
LINE
  8
0
 10
22.3752
 20
-39.9425
 11
22.4727
 21
-40.1965
  0
LINE
  8
0
 10
22.4727
 20
-40.1965
 11
22.5432
 21
-40.4594
  0
LINE
  8
0
 10
22.5432
 20
-40.4594
 11
22.5858
 21
-40.7282
  0
LINE
  8
0
 10
22.5858
 20
-40.7282
 11
22.6
 21
-41
  0
LINE
  8
0
 10
22.6
 20
-41
 11
22.5858
 21
-41.2718
  0
LINE
  8
0
 10
22.5858
 20
-41.2718
 11
22.5432
 21
-41.5406
  0
LINE
  8
0
 10
22.5432
 20
-41.5406
 11
22.4727
 21
-41.8034
  0
LINE
  8
0
 10
22.4727
 20
-41.8034
 11
22.3752
 21
-42.0575
  0
LINE
  8
0
 10
22.3752
 20
-42.0575
 11
22.2517
 21
-42.3
  0
LINE
  8
0
 10
22.2517
 20
-42.3
 11
22.1034
 21
-42.5282
  0
LINE
  8
0
 10
22.1034
 20
-42.5282
 11
21.9322
 21
-42.7397
  0
LINE
  8
0
 10
21.9322
 20
-42.7397
 11
21.7397
 21
-42.9322
  0
LINE
  8
0
 10
21.7397
 20
-42.9322
 11
21.5282
 21
-43.1034
  0
LINE
  8
0
 10
21.5282
 20
-43.1034
 11
21.3
 21
-43.2517
  0
LINE
  8
0
 10
21.3
 20
-43.2517
 11
21.0575
 21
-43.3752
  0
LINE
  8
0
 10
21.0575
 20
-43.3752
 11
20.8034
 21
-43.4727
  0
LINE
  8
0
 10
20.8034
 20
-43.4727
 11
20.5406
 21
-43.5432
  0
LINE
  8
0
 10
20.5406
 20
-43.5432
 11
20.2718
 21
-43.5858
  0
LINE
  8
0
 10
20.2718
 20
-43.5858
 11
20
 21
-43.6
  0
LINE
  8
0
 10
20
 20
-43.6
 11
19.7282
 21
-43.5858
  0
LINE
  8
0
 10
-20.2718
 20
-43.5858
 11
-20.5406
 21
-43.5432
  0
LINE
  8
0
 10
-20.5406
 20
-43.5432
 11
-20.8034
 21
-43.4727
  0
LINE
  8
0
 10
-20.8034
 20
-43.4727
 11
-21.0575
 21
-43.3752
  0
LINE
  8
0
 10
-21.0575
 20
-43.3752
 11
-21.3
 21
-43.2517
  0
LINE
  8
0
 10
-21.3
 20
-43.2517
 11
-21.5282
 21
-43.1034
  0
LINE
  8
0
 10
-21.5282
 20
-43.1034
 11
-21.7397
 21
-42.9322
  0
LINE
  8
0
 10
-21.7397
 20
-42.9322
 11
-21.9322
 21
-42.7397
  0
LINE
  8
0
 10
-21.9322
 20
-42.7397
 11
-22.1034
 21
-42.5282
  0
LINE
  8
0
 10
-22.1034
 20
-42.5282
 11
-22.2517
 21
-42.3
  0
LINE
  8
0
 10
-22.2517
 20
-42.3
 11
-22.3752
 21
-42.0575
  0
LINE
  8
0
 10
-22.3752
 20
-42.0575
 11
-22.4727
 21
-41.8034
  0
LINE
  8
0
 10
-22.4727
 20
-41.8034
 11
-22.5432
 21
-41.5406
  0
LINE
  8
0
 10
-22.5432
 20
-41.5406
 11
-22.5858
 21
-41.2718
  0
LINE
  8
0
 10
-22.5858
 20
-41.2718
 11
-22.6
 21
-41
  0
LINE
  8
0
 10
-22.6
 20
-41
 11
-22.5858
 21
-40.7282
  0
LINE
  8
0
 10
-22.5858
 20
-40.7282
 11
-22.5432
 21
-40.4594
  0
LINE
  8
0
 10
-22.5432
 20
-40.4594
 11
-22.4727
 21
-40.1965
  0
LINE
  8
0
 10
-22.4727
 20
-40.1965
 11
-22.3752
 21
-39.9425
  0
LINE
  8
0
 10
-22.3752
 20
-39.9425
 11
-22.2517
 21
-39.7
  0
LINE
  8
0
 10
-22.2517
 20
-39.7
 11
-22.1034
 21
-39.4718
  0
LINE
  8
0
 10
-22.1034
 20
-39.4718
 11
-21.9322
 21
-39.2603
  0
LINE
  8
0
 10
-21.9322
 20
-39.2603
 11
-21.7397
 21
-39.0678
  0
LINE
  8
0
 10
-21.7397
 20
-39.0678
 11
-21.5282
 21
-38.8965
  0
LINE
  8
0
 10
-21.5282
 20
-38.8965
 11
-21.3
 21
-38.7483
  0
LINE
  8
0
 10
-21.3
 20
-38.7483
 11
-21.0575
 21
-38.6248
  0
LINE
  8
0
 10
-21.0575
 20
-38.6248
 11
-20.8034
 21
-38.5273
  0
LINE
  8
0
 10
-20.8034
 20
-38.5273
 11
-20.5406
 21
-38.4568
  0
LINE
  8
0
 10
-20.5406
 20
-38.4568
 11
-20.2718
 21
-38.4142
  0
LINE
  8
0
 10
-20.2718
 20
-38.4142
 11
-20
 21
-38.4
  0
LINE
  8
0
 10
-20
 20
-38.4
 11
-19.7282
 21
-38.4142
  0
LINE
  8
0
 10
-19.7282
 20
-38.4142
 11
-19.4594
 21
-38.4568
  0
LINE
  8
0
 10
-19.4594
 20
-38.4568
 11
-19.1965
 21
-38.5273
  0
LINE
  8
0
 10
-19.1965
 20
-38.5273
 11
-18.9425
 21
-38.6248
  0
LINE
  8
0
 10
-18.9425
 20
-38.6248
 11
-18.7
 21
-38.7483
  0
LINE
  8
0
 10
-18.7
 20
-38.7483
 11
-18.4718
 21
-38.8965
  0
LINE
  8
0
 10
-18.4718
 20
-38.8965
 11
-18.2603
 21
-39.0678
  0
LINE
  8
0
 10
-18.2603
 20
-39.0678
 11
-18.0678
 21
-39.2603
  0
LINE
  8
0
 10
-18.0678
 20
-39.2603
 11
-17.8965
 21
-39.4718
  0
LINE
  8
0
 10
-17.8965
 20
-39.4718
 11
-17.7483
 21
-39.7
  0
LINE
  8
0
 10
-17.7483
 20
-39.7
 11
-17.6248
 21
-39.9425
  0
LINE
  8
0
 10
-17.6248
 20
-39.9425
 11
-17.5273
 21
-40.1965
  0
LINE
  8
0
 10
-17.5273
 20
-40.1965
 11
-17.4568
 21
-40.4594
  0
LINE
  8
0
 10
-17.4568
 20
-40.4594
 11
-17.4142
 21
-40.7282
  0
LINE
  8
0
 10
-17.4142
 20
-40.7282
 11
-17.4
 21
-41
  0
LINE
  8
0
 10
-17.4
 20
-41
 11
-17.4142
 21
-41.2718
  0
LINE
  8
0
 10
-17.4142
 20
-41.2718
 11
-17.4568
 21
-41.5406
  0
LINE
  8
0
 10
-17.4568
 20
-41.5406
 11
-17.5273
 21
-41.8034
  0
LINE
  8
0
 10
-17.5273
 20
-41.8034
 11
-17.6248
 21
-42.0575
  0
LINE
  8
0
 10
-17.6248
 20
-42.0575
 11
-17.7483
 21
-42.3
  0
LINE
  8
0
 10
-17.7483
 20
-42.3
 11
-17.8965
 21
-42.5282
  0
LINE
  8
0
 10
-17.8965
 20
-42.5282
 11
-18.0678
 21
-42.7397
  0
LINE
  8
0
 10
-18.0678
 20
-42.7397
 11
-18.2603
 21
-42.9322
  0
LINE
  8
0
 10
-18.2603
 20
-42.9322
 11
-18.4718
 21
-43.1034
  0
LINE
  8
0
 10
-18.4718
 20
-43.1034
 11
-18.7
 21
-43.2517
  0
LINE
  8
0
 10
-18.7
 20
-43.2517
 11
-18.9425
 21
-43.3752
  0
LINE
  8
0
 10
-18.9425
 20
-43.3752
 11
-19.1965
 21
-43.4727
  0
LINE
  8
0
 10
-19.1965
 20
-43.4727
 11
-19.4594
 21
-43.5432
  0
LINE
  8
0
 10
-19.4594
 20
-43.5432
 11
-19.7282
 21
-43.5858
  0
LINE
  8
0
 10
-19.7282
 20
-43.5858
 11
-20
 21
-43.6
  0
LINE
  8
0
 10
-20
 20
-43.6
 11
-20.2718
 21
-43.5858
  0
ENDSEC
  0
SECTION
  2
OBJECTS
  0
DICTIONARY
  0
ENDSEC
  0
EOF
