  0
SECTION
  2
BLOCKS
  0
ENDSEC
  0
SECTION
  2
ENTITIES
  0
LINE
  8
0
 10
57.3136
 20
-59.9836
 11
57.6237
 21
-59.9344
  0
LINE
  8
0
 10
57.6237
 20
-59.9344
 11
57.927
 21
-59.8532
  0
LINE
  8
0
 10
57.927
 20
-59.8532
 11
58.2202
 21
-59.7406
  0
LINE
  8
0
 10
58.2202
 20
-59.7406
 11
58.5
 21
-59.5981
  0
LINE
  8
0
 10
58.5
 20
-59.5981
 11
58.7634
 21
-59.427
  0
LINE
  8
0
 10
58.7634
 20
-59.427
 11
59.0074
 21
-59.2294
  0
LINE
  8
0
 10
59.0074
 20
-59.2294
 11
59.2294
 21
-59.0074
  0
LINE
  8
0
 10
59.2294
 20
-59.0074
 11
59.427
 21
-58.7634
  0
LINE
  8
0
 10
59.427
 20
-58.7634
 11
59.5981
 21
-58.5
  0
LINE
  8
0
 10
59.5981
 20
-58.5
 11
59.7406
 21
-58.2202
  0
LINE
  8
0
 10
59.7406
 20
-58.2202
 11
59.8532
 21
-57.927
  0
LINE
  8
0
 10
59.8532
 20
-57.927
 11
59.9344
 21
-57.6237
  0
LINE
  8
0
 10
59.9344
 20
-57.6237
 11
59.9836
 21
-57.3136
  0
LINE
  8
0
 10
59.9836
 20
-57.3136
 11
60
 21
-57
  0
LINE
  8
0
 10
60
 20
-57
 11
60
 21
97
  0
LINE
  8
0
 10
60
 20
97
 11
59.9836
 21
97.3136
  0
LINE
  8
0
 10
59.9836
 20
97.3136
 11
59.9344
 21
97.6237
  0
LINE
  8
0
 10
59.9344
 20
97.6237
 11
59.8532
 21
97.927
  0
LINE
  8
0
 10
59.8532
 20
97.927
 11
59.7406
 21
98.2202
  0
LINE
  8
0
 10
59.7406
 20
98.2202
 11
59.5981
 21
98.5
  0
LINE
  8
0
 10
59.5981
 20
98.5
 11
59.427
 21
98.7634
  0
LINE
  8
0
 10
59.427
 20
98.7634
 11
59.2294
 21
99.0074
  0
LINE
  8
0
 10
59.2294
 20
99.0074
 11
59.0074
 21
99.2294
  0
LINE
  8
0
 10
59.0074
 20
99.2294
 11
58.7634
 21
99.427
  0
LINE
  8
0
 10
58.7634
 20
99.427
 11
58.5
 21
99.5981
  0
LINE
  8
0
 10
58.5
 20
99.5981
 11
58.2202
 21
99.7406
  0
LINE
  8
0
 10
58.2202
 20
99.7406
 11
57.927
 21
99.8532
  0
LINE
  8
0
 10
57.927
 20
99.8532
 11
57.6237
 21
99.9344
  0
LINE
  8
0
 10
57.6237
 20
99.9344
 11
57.3136
 21
99.9836
  0
LINE
  8
0
 10
57.3136
 20
99.9836
 11
57
 21
100
  0
LINE
  8
0
 10
57
 20
100
 11
-117
 21
100
  0
LINE
  8
0
 10
-117
 20
100
 11
-117.314
 21
99.9836
  0
LINE
  8
0
 10
-117.314
 20
99.9836
 11
-117.624
 21
99.9344
  0
LINE
  8
0
 10
-117.624
 20
99.9344
 11
-117.927
 21
99.8532
  0
LINE
  8
0
 10
-117.927
 20
99.8532
 11
-118.22
 21
99.7406
  0
LINE
  8
0
 10
-118.22
 20
99.7406
 11
-118.5
 21
99.5981
  0
LINE
  8
0
 10
-118.5
 20
99.5981
 11
-118.763
 21
99.427
  0
LINE
  8
0
 10
-118.763
 20
99.427
 11
-119.007
 21
99.2294
  0
LINE
  8
0
 10
-119.007
 20
99.2294
 11
-119.229
 21
99.0074
  0
LINE
  8
0
 10
-119.229
 20
99.0074
 11
-119.427
 21
98.7634
  0
LINE
  8
0
 10
-119.427
 20
98.7634
 11
-119.598
 21
98.5
  0
LINE
  8
0
 10
-119.598
 20
98.5
 11
-119.741
 21
98.2202
  0
LINE
  8
0
 10
-119.741
 20
98.2202
 11
-119.853
 21
97.927
  0
LINE
  8
0
 10
-119.853
 20
97.927
 11
-119.934
 21
97.6237
  0
LINE
  8
0
 10
-119.934
 20
97.6237
 11
-119.984
 21
97.3136
  0
LINE
  8
0
 10
-119.984
 20
97.3136
 11
-120
 21
97
  0
LINE
  8
0
 10
-120
 20
97
 11
-120
 21
-57
  0
LINE
  8
0
 10
-120
 20
-57
 11
-119.984
 21
-57.3136
  0
LINE
  8
0
 10
-119.984
 20
-57.3136
 11
-119.934
 21
-57.6237
  0
LINE
  8
0
 10
-119.934
 20
-57.6237
 11
-119.853
 21
-57.927
  0
LINE
  8
0
 10
-119.853
 20
-57.927
 11
-119.741
 21
-58.2202
  0
LINE
  8
0
 10
-119.741
 20
-58.2202
 11
-119.598
 21
-58.5
  0
LINE
  8
0
 10
-119.598
 20
-58.5
 11
-119.427
 21
-58.7634
  0
LINE
  8
0
 10
-119.427
 20
-58.7634
 11
-119.229
 21
-59.0074
  0
LINE
  8
0
 10
-119.229
 20
-59.0074
 11
-119.007
 21
-59.2294
  0
LINE
  8
0
 10
-119.007
 20
-59.2294
 11
-118.763
 21
-59.427
  0
LINE
  8
0
 10
-118.763
 20
-59.427
 11
-118.5
 21
-59.5981
  0
LINE
  8
0
 10
-118.5
 20
-59.5981
 11
-118.22
 21
-59.7406
  0
LINE
  8
0
 10
-118.22
 20
-59.7406
 11
-117.927
 21
-59.8532
  0
LINE
  8
0
 10
-117.927
 20
-59.8532
 11
-117.624
 21
-59.9344
  0
LINE
  8
0
 10
-117.624
 20
-59.9344
 11
-117.314
 21
-59.9836
  0
LINE
  8
0
 10
-117.314
 20
-59.9836
 11
-117
 21
-60
  0
LINE
  8
0
 10
-117
 20
-60
 11
57
 21
-60
  0
LINE
  8
0
 10
57
 20
-60
 11
57.3136
 21
-59.9836
  0
LINE
  8
0
 10
49.7561
 20
86.774
 11
49.5216
 21
86.8451
  0
LINE
  8
0
 10
49.5216
 20
86.8451
 11
49.3055
 21
86.9607
  0
LINE
  8
0
 10
49.3055
 20
86.9607
 11
49.1161
 21
87.1161
  0
LINE
  8
0
 10
49.1161
 20
87.1161
 11
48.9607
 21
87.3055
  0
LINE
  8
0
 10
48.9607
 20
87.3055
 11
48.8451
 21
87.5216
  0
LINE
  8
0
 10
48.8451
 20
87.5216
 11
48.774
 21
87.7561
  0
LINE
  8
0
 10
48.774
 20
87.7561
 11
48.75
 21
88
  0
LINE
  8
0
 10
48.75
 20
88
 11
48.774
 21
88.2439
  0
LINE
  8
0
 10
48.774
 20
88.2439
 11
48.8451
 21
88.4783
  0
LINE
  8
0
 10
48.8451
 20
88.4783
 11
48.9607
 21
88.6945
  0
LINE
  8
0
 10
48.9607
 20
88.6945
 11
49.1161
 21
88.8839
  0
LINE
  8
0
 10
49.1161
 20
88.8839
 11
49.3055
 21
89.0393
  0
LINE
  8
0
 10
49.3055
 20
89.0393
 11
49.5216
 21
89.1548
  0
LINE
  8
0
 10
49.5216
 20
89.1548
 11
49.7561
 21
89.226
  0
LINE
  8
0
 10
49.7561
 20
89.226
 11
50
 21
89.25
  0
LINE
  8
0
 10
50
 20
89.25
 11
50.2439
 21
89.226
  0
LINE
  8
0
 10
50.2439
 20
89.226
 11
50.4783
 21
89.1548
  0
LINE
  8
0
 10
50.4783
 20
89.1548
 11
50.6945
 21
89.0393
  0
LINE
  8
0
 10
50.6945
 20
89.0393
 11
50.8839
 21
88.8839
  0
LINE
  8
0
 10
50.8839
 20
88.8839
 11
51.0393
 21
88.6945
  0
LINE
  8
0
 10
51.0393
 20
88.6945
 11
51.1548
 21
88.4783
  0
LINE
  8
0
 10
51.1548
 20
88.4783
 11
51.226
 21
88.2439
  0
LINE
  8
0
 10
51.226
 20
88.2439
 11
51.25
 21
88
  0
LINE
  8
0
 10
51.25
 20
88
 11
51.226
 21
87.7561
  0
LINE
  8
0
 10
51.226
 20
87.7561
 11
51.1548
 21
87.5216
  0
LINE
  8
0
 10
51.1548
 20
87.5216
 11
51.0393
 21
87.3055
  0
LINE
  8
0
 10
51.0393
 20
87.3055
 11
50.8839
 21
87.1161
  0
LINE
  8
0
 10
50.8839
 20
87.1161
 11
50.6945
 21
86.9607
  0
LINE
  8
0
 10
50.6945
 20
86.9607
 11
50.4783
 21
86.8451
  0
LINE
  8
0
 10
50.4783
 20
86.8451
 11
50.2439
 21
86.774
  0
LINE
  8
0
 10
50.2439
 20
86.774
 11
50
 21
86.75
  0
LINE
  8
0
 10
50
 20
86.75
 11
49.7561
 21
86.774
  0
LINE
  8
0
 10
-65.2439
 20
86.774
 11
-65.4783
 21
86.8451
  0
LINE
  8
0
 10
-65.4783
 20
86.8451
 11
-65.6945
 21
86.9607
  0
LINE
  8
0
 10
-65.6945
 20
86.9607
 11
-65.8839
 21
87.1161
  0
LINE
  8
0
 10
-65.8839
 20
87.1161
 11
-66.0393
 21
87.3055
  0
LINE
  8
0
 10
-66.0393
 20
87.3055
 11
-66.1548
 21
87.5216
  0
LINE
  8
0
 10
-66.1548
 20
87.5216
 11
-66.226
 21
87.7561
  0
LINE
  8
0
 10
-66.226
 20
87.7561
 11
-66.25
 21
88
  0
LINE
  8
0
 10
-66.25
 20
88
 11
-66.226
 21
88.2439
  0
LINE
  8
0
 10
-66.226
 20
88.2439
 11
-66.1548
 21
88.4783
  0
LINE
  8
0
 10
-66.1548
 20
88.4783
 11
-66.0393
 21
88.6945
  0
LINE
  8
0
 10
-66.0393
 20
88.6945
 11
-65.8839
 21
88.8839
  0
LINE
  8
0
 10
-65.8839
 20
88.8839
 11
-65.6945
 21
89.0393
  0
LINE
  8
0
 10
-65.6945
 20
89.0393
 11
-65.4783
 21
89.1548
  0
LINE
  8
0
 10
-65.4783
 20
89.1548
 11
-65.2439
 21
89.226
  0
LINE
  8
0
 10
-65.2439
 20
89.226
 11
-65
 21
89.25
  0
LINE
  8
0
 10
-65
 20
89.25
 11
-64.7561
 21
89.226
  0
LINE
  8
0
 10
-64.7561
 20
89.226
 11
-64.5216
 21
89.1548
  0
LINE
  8
0
 10
-64.5216
 20
89.1548
 11
-64.3055
 21
89.0393
  0
LINE
  8
0
 10
-64.3055
 20
89.0393
 11
-64.1161
 21
88.8839
  0
LINE
  8
0
 10
-64.1161
 20
88.8839
 11
-63.9607
 21
88.6945
  0
LINE
  8
0
 10
-63.9607
 20
88.6945
 11
-63.8451
 21
88.4783
  0
LINE
  8
0
 10
-63.8451
 20
88.4783
 11
-63.774
 21
88.2439
  0
LINE
  8
0
 10
-63.774
 20
88.2439
 11
-63.75
 21
88
  0
LINE
  8
0
 10
-63.75
 20
88
 11
-63.774
 21
87.7561
  0
LINE
  8
0
 10
-63.774
 20
87.7561
 11
-63.8451
 21
87.5216
  0
LINE
  8
0
 10
-63.8451
 20
87.5216
 11
-63.9607
 21
87.3055
  0
LINE
  8
0
 10
-63.9607
 20
87.3055
 11
-64.1161
 21
87.1161
  0
LINE
  8
0
 10
-64.1161
 20
87.1161
 11
-64.3055
 21
86.9607
  0
LINE
  8
0
 10
-64.3055
 20
86.9607
 11
-64.5216
 21
86.8451
  0
LINE
  8
0
 10
-64.5216
 20
86.8451
 11
-64.7561
 21
86.774
  0
LINE
  8
0
 10
-64.7561
 20
86.774
 11
-65
 21
86.75
  0
LINE
  8
0
 10
-65
 20
86.75
 11
-65.2439
 21
86.774
  0
LINE
  8
0
 10
-51.8439
 20
86.774
 11
-52.0784
 21
86.8451
  0
LINE
  8
0
 10
-52.0784
 20
86.8451
 11
-52.2944
 21
86.9607
  0
LINE
  8
0
 10
-52.2944
 20
86.9607
 11
-52.4839
 21
87.1161
  0
LINE
  8
0
 10
-52.4839
 20
87.1161
 11
-52.6393
 21
87.3055
  0
LINE
  8
0
 10
-52.6393
 20
87.3055
 11
-52.7548
 21
87.5216
  0
LINE
  8
0
 10
-52.7548
 20
87.5216
 11
-52.826
 21
87.7561
  0
LINE
  8
0
 10
-52.826
 20
87.7561
 11
-52.85
 21
88
  0
LINE
  8
0
 10
-52.85
 20
88
 11
-52.826
 21
88.2439
  0
LINE
  8
0
 10
-52.826
 20
88.2439
 11
-52.7548
 21
88.4783
  0
LINE
  8
0
 10
-52.7548
 20
88.4783
 11
-52.6393
 21
88.6945
  0
LINE
  8
0
 10
-52.6393
 20
88.6945
 11
-52.4839
 21
88.8839
  0
LINE
  8
0
 10
-52.4839
 20
88.8839
 11
-52.2944
 21
89.0393
  0
LINE
  8
0
 10
-52.2944
 20
89.0393
 11
-52.0784
 21
89.1548
  0
LINE
  8
0
 10
-52.0784
 20
89.1548
 11
-51.8439
 21
89.226
  0
LINE
  8
0
 10
-51.8439
 20
89.226
 11
-51.6
 21
89.25
  0
LINE
  8
0
 10
-51.6
 20
89.25
 11
-51.3561
 21
89.226
  0
LINE
  8
0
 10
-51.3561
 20
89.226
 11
-51.1216
 21
89.1548
  0
LINE
  8
0
 10
-51.1216
 20
89.1548
 11
-50.9055
 21
89.0393
  0
LINE
  8
0
 10
-50.9055
 20
89.0393
 11
-50.7161
 21
88.8839
  0
LINE
  8
0
 10
-50.7161
 20
88.8839
 11
-50.5607
 21
88.6945
  0
LINE
  8
0
 10
-50.5607
 20
88.6945
 11
-50.4451
 21
88.4783
  0
LINE
  8
0
 10
-50.4451
 20
88.4783
 11
-50.374
 21
88.2439
  0
LINE
  8
0
 10
-50.374
 20
88.2439
 11
-50.35
 21
88
  0
LINE
  8
0
 10
-50.35
 20
88
 11
-50.374
 21
87.7561
  0
LINE
  8
0
 10
-50.374
 20
87.7561
 11
-50.4451
 21
87.5216
  0
LINE
  8
0
 10
-50.4451
 20
87.5216
 11
-50.5607
 21
87.3055
  0
LINE
  8
0
 10
-50.5607
 20
87.3055
 11
-50.7161
 21
87.1161
  0
LINE
  8
0
 10
-50.7161
 20
87.1161
 11
-50.9055
 21
86.9607
  0
LINE
  8
0
 10
-50.9055
 20
86.9607
 11
-51.1216
 21
86.8451
  0
LINE
  8
0
 10
-51.1216
 20
86.8451
 11
-51.3561
 21
86.774
  0
LINE
  8
0
 10
-51.3561
 20
86.774
 11
-51.6
 21
86.75
  0
LINE
  8
0
 10
-51.6
 20
86.75
 11
-51.8439
 21
86.774
  0
LINE
  8
0
 10
-12.2718
 20
25.4142
 11
-12.5406
 21
25.4568
  0
LINE
  8
0
 10
-12.5406
 20
25.4568
 11
-12.8034
 21
25.5273
  0
LINE
  8
0
 10
-12.8034
 20
25.5273
 11
-13.0575
 21
25.6248
  0
LINE
  8
0
 10
-13.0575
 20
25.6248
 11
-13.3
 21
25.7483
  0
LINE
  8
0
 10
-13.3
 20
25.7483
 11
-13.5282
 21
25.8966
  0
LINE
  8
0
 10
-13.5282
 20
25.8966
 11
-13.7397
 21
26.0678
  0
LINE
  8
0
 10
-13.7397
 20
26.0678
 11
-13.9322
 21
26.2603
  0
LINE
  8
0
 10
-13.9322
 20
26.2603
 11
-14.1034
 21
26.4718
  0
LINE
  8
0
 10
-14.1034
 20
26.4718
 11
-14.2517
 21
26.7
  0
LINE
  8
0
 10
-14.2517
 20
26.7
 11
-14.3752
 21
26.9425
  0
LINE
  8
0
 10
-14.3752
 20
26.9425
 11
-14.4727
 21
27.1966
  0
LINE
  8
0
 10
-14.4727
 20
27.1966
 11
-14.5432
 21
27.4594
  0
LINE
  8
0
 10
-14.5432
 20
27.4594
 11
-14.5858
 21
27.7282
  0
LINE
  8
0
 10
-14.5858
 20
27.7282
 11
-14.6
 21
28
  0
LINE
  8
0
 10
-14.6
 20
28
 11
-14.5858
 21
28.2718
  0
LINE
  8
0
 10
-14.5858
 20
28.2718
 11
-14.5432
 21
28.5406
  0
LINE
  8
0
 10
-14.5432
 20
28.5406
 11
-14.4727
 21
28.8035
  0
LINE
  8
0
 10
-14.4727
 20
28.8035
 11
-14.3752
 21
29.0575
  0
LINE
  8
0
 10
-14.3752
 20
29.0575
 11
-14.2517
 21
29.3
  0
LINE
  8
0
 10
-14.2517
 20
29.3
 11
-14.1034
 21
29.5282
  0
LINE
  8
0
 10
-14.1034
 20
29.5282
 11
-13.9322
 21
29.7397
  0
LINE
  8
0
 10
-13.9322
 20
29.7397
 11
-13.7397
 21
29.9322
  0
LINE
  8
0
 10
-13.7397
 20
29.9322
 11
-13.5282
 21
30.1035
  0
LINE
  8
0
 10
-13.5282
 20
30.1035
 11
-13.3
 21
30.2517
  0
LINE
  8
0
 10
-13.3
 20
30.2517
 11
-13.0575
 21
30.3752
  0
LINE
  8
0
 10
-13.0575
 20
30.3752
 11
-12.8034
 21
30.4727
  0
LINE
  8
0
 10
-12.8034
 20
30.4727
 11
-12.5406
 21
30.5432
  0
LINE
  8
0
 10
-12.5406
 20
30.5432
 11
-12.2718
 21
30.5858
  0
LINE
  8
0
 10
-12.2718
 20
30.5858
 11
-12
 21
30.6
  0
LINE
  8
0
 10
-12
 20
30.6
 11
-11.7282
 21
30.5858
  0
LINE
  8
0
 10
-11.7282
 20
30.5858
 11
-11.4594
 21
30.5432
  0
LINE
  8
0
 10
-11.4594
 20
30.5432
 11
-11.1965
 21
30.4727
  0
LINE
  8
0
 10
-11.1965
 20
30.4727
 11
-10.9425
 21
30.3752
  0
LINE
  8
0
 10
-10.9425
 20
30.3752
 11
-10.7
 21
30.2517
  0
LINE
  8
0
 10
-10.7
 20
30.2517
 11
-10.4718
 21
30.1035
  0
LINE
  8
0
 10
-10.4718
 20
30.1035
 11
-10.2603
 21
29.9322
  0
LINE
  8
0
 10
-10.2603
 20
29.9322
 11
-10.0678
 21
29.7397
  0
LINE
  8
0
 10
-10.0678
 20
29.7397
 11
-9.89655
 21
29.5282
  0
LINE
  8
0
 10
-9.89655
 20
29.5282
 11
-9.74832
 21
29.3
  0
LINE
  8
0
 10
-9.74832
 20
29.3
 11
-9.62477
 21
29.0575
  0
LINE
  8
0
 10
-9.62477
 20
29.0575
 11
-9.52725
 21
28.8035
  0
LINE
  8
0
 10
-9.52725
 20
28.8035
 11
-9.4568
 21
28.5406
  0
LINE
  8
0
 10
-9.4568
 20
28.5406
 11
-9.41423
 21
28.2718
  0
LINE
  8
0
 10
-9.41423
 20
28.2718
 11
-9.39999
 21
28
  0
LINE
  8
0
 10
-9.39999
 20
28
 11
-9.41423
 21
27.7282
  0
LINE
  8
0
 10
-9.41423
 20
27.7282
 11
-9.4568
 21
27.4594
  0
LINE
  8
0
 10
-9.4568
 20
27.4594
 11
-9.52725
 21
27.1966
  0
LINE
  8
0
 10
-9.52725
 20
27.1966
 11
-9.62477
 21
26.9425
  0
LINE
  8
0
 10
-9.62477
 20
26.9425
 11
-9.74832
 21
26.7
  0
LINE
  8
0
 10
-9.74832
 20
26.7
 11
-9.89655
 21
26.4718
  0
LINE
  8
0
 10
-9.89655
 20
26.4718
 11
-10.0678
 21
26.2603
  0
LINE
  8
0
 10
-10.0678
 20
26.2603
 11
-10.2603
 21
26.0678
  0
LINE
  8
0
 10
-10.2603
 20
26.0678
 11
-10.4718
 21
25.8966
  0
LINE
  8
0
 10
-10.4718
 20
25.8966
 11
-10.7
 21
25.7483
  0
LINE
  8
0
 10
-10.7
 20
25.7483
 11
-10.9425
 21
25.6248
  0
LINE
  8
0
 10
-10.9425
 20
25.6248
 11
-11.1965
 21
25.5273
  0
LINE
  8
0
 10
-11.1965
 20
25.5273
 11
-11.4594
 21
25.4568
  0
LINE
  8
0
 10
-11.4594
 20
25.4568
 11
-11.7282
 21
25.4142
  0
LINE
  8
0
 10
-11.7282
 20
25.4142
 11
-12
 21
25.4
  0
LINE
  8
0
 10
-12
 20
25.4
 11
-12.2718
 21
25.4142
  0
LINE
  8
0
 10
11.7282
 20
25.4142
 11
11.4594
 21
25.4568
  0
LINE
  8
0
 10
11.4594
 20
25.4568
 11
11.1965
 21
25.5273
  0
LINE
  8
0
 10
11.1965
 20
25.5273
 11
10.9425
 21
25.6248
  0
LINE
  8
0
 10
10.9425
 20
25.6248
 11
10.7
 21
25.7483
  0
LINE
  8
0
 10
10.7
 20
25.7483
 11
10.4718
 21
25.8966
  0
LINE
  8
0
 10
10.4718
 20
25.8966
 11
10.2603
 21
26.0678
  0
LINE
  8
0
 10
10.2603
 20
26.0678
 11
10.0678
 21
26.2603
  0
LINE
  8
0
 10
10.0678
 20
26.2603
 11
9.89655
 21
26.4718
  0
LINE
  8
0
 10
9.89655
 20
26.4718
 11
9.74832
 21
26.7
  0
LINE
  8
0
 10
9.74832
 20
26.7
 11
9.62477
 21
26.9425
  0
LINE
  8
0
 10
9.62477
 20
26.9425
 11
9.52725
 21
27.1966
  0
LINE
  8
0
 10
9.52725
 20
27.1966
 11
9.4568
 21
27.4594
  0
LINE
  8
0
 10
9.4568
 20
27.4594
 11
9.41423
 21
27.7282
  0
LINE
  8
0
 10
9.41423
 20
27.7282
 11
9.39999
 21
28
  0
LINE
  8
0
 10
9.39999
 20
28
 11
9.41423
 21
28.2718
  0
LINE
  8
0
 10
9.41423
 20
28.2718
 11
9.4568
 21
28.5406
  0
LINE
  8
0
 10
9.4568
 20
28.5406
 11
9.52725
 21
28.8035
  0
LINE
  8
0
 10
9.52725
 20
28.8035
 11
9.62477
 21
29.0575
  0
LINE
  8
0
 10
9.62477
 20
29.0575
 11
9.74832
 21
29.3
  0
LINE
  8
0
 10
9.74832
 20
29.3
 11
9.89655
 21
29.5282
  0
LINE
  8
0
 10
9.89655
 20
29.5282
 11
10.0678
 21
29.7397
  0
LINE
  8
0
 10
10.0678
 20
29.7397
 11
10.2603
 21
29.9322
  0
LINE
  8
0
 10
10.2603
 20
29.9322
 11
10.4718
 21
30.1035
  0
LINE
  8
0
 10
10.4718
 20
30.1035
 11
10.7
 21
30.2517
  0
LINE
  8
0
 10
10.7
 20
30.2517
 11
10.9425
 21
30.3752
  0
LINE
  8
0
 10
10.9425
 20
30.3752
 11
11.1965
 21
30.4727
  0
LINE
  8
0
 10
11.1965
 20
30.4727
 11
11.4594
 21
30.5432
  0
LINE
  8
0
 10
11.4594
 20
30.5432
 11
11.7282
 21
30.5858
  0
LINE
  8
0
 10
11.7282
 20
30.5858
 11
12
 21
30.6
  0
LINE
  8
0
 10
12
 20
30.6
 11
12.2718
 21
30.5858
  0
LINE
  8
0
 10
12.2718
 20
30.5858
 11
12.5406
 21
30.5432
  0
LINE
  8
0
 10
12.5406
 20
30.5432
 11
12.8034
 21
30.4727
  0
LINE
  8
0
 10
12.8034
 20
30.4727
 11
13.0575
 21
30.3752
  0
LINE
  8
0
 10
13.0575
 20
30.3752
 11
13.3
 21
30.2517
  0
LINE
  8
0
 10
13.3
 20
30.2517
 11
13.5282
 21
30.1035
  0
LINE
  8
0
 10
13.5282
 20
30.1035
 11
13.7397
 21
29.9322
  0
LINE
  8
0
 10
13.7397
 20
29.9322
 11
13.9322
 21
29.7397
  0
LINE
  8
0
 10
13.9322
 20
29.7397
 11
14.1034
 21
29.5282
  0
LINE
  8
0
 10
14.1034
 20
29.5282
 11
14.2517
 21
29.3
  0
LINE
  8
0
 10
14.2517
 20
29.3
 11
14.3752
 21
29.0575
  0
LINE
  8
0
 10
14.3752
 20
29.0575
 11
14.4727
 21
28.8035
  0
LINE
  8
0
 10
14.4727
 20
28.8035
 11
14.5432
 21
28.5406
  0
LINE
  8
0
 10
14.5432
 20
28.5406
 11
14.5858
 21
28.2718
  0
LINE
  8
0
 10
14.5858
 20
28.2718
 11
14.6
 21
28
  0
LINE
  8
0
 10
14.6
 20
28
 11
14.5858
 21
27.7282
  0
LINE
  8
0
 10
14.5858
 20
27.7282
 11
14.5432
 21
27.4594
  0
LINE
  8
0
 10
14.5432
 20
27.4594
 11
14.4727
 21
27.1966
  0
LINE
  8
0
 10
14.4727
 20
27.1966
 11
14.3752
 21
26.9425
  0
LINE
  8
0
 10
14.3752
 20
26.9425
 11
14.2517
 21
26.7
  0
LINE
  8
0
 10
14.2517
 20
26.7
 11
14.1034
 21
26.4718
  0
LINE
  8
0
 10
14.1034
 20
26.4718
 11
13.9322
 21
26.2603
  0
LINE
  8
0
 10
13.9322
 20
26.2603
 11
13.7397
 21
26.0678
  0
LINE
  8
0
 10
13.7397
 20
26.0678
 11
13.5282
 21
25.8966
  0
LINE
  8
0
 10
13.5282
 20
25.8966
 11
13.3
 21
25.7483
  0
LINE
  8
0
 10
13.3
 20
25.7483
 11
13.0575
 21
25.6248
  0
LINE
  8
0
 10
13.0575
 20
25.6248
 11
12.8034
 21
25.5273
  0
LINE
  8
0
 10
12.8034
 20
25.5273
 11
12.5406
 21
25.4568
  0
LINE
  8
0
 10
12.5406
 20
25.4568
 11
12.2718
 21
25.4142
  0
LINE
  8
0
 10
12.2718
 20
25.4142
 11
12
 21
25.4
  0
LINE
  8
0
 10
12
 20
25.4
 11
11.7282
 21
25.4142
  0
LINE
  8
0
 10
49.7561
 20
15.474
 11
49.5216
 21
15.5452
  0
LINE
  8
0
 10
49.5216
 20
15.5452
 11
49.3055
 21
15.6607
  0
LINE
  8
0
 10
49.3055
 20
15.6607
 11
49.1161
 21
15.8161
  0
LINE
  8
0
 10
49.1161
 20
15.8161
 11
48.9607
 21
16.0055
  0
LINE
  8
0
 10
48.9607
 20
16.0055
 11
48.8451
 21
16.2216
  0
LINE
  8
0
 10
48.8451
 20
16.2216
 11
48.774
 21
16.4561
  0
LINE
  8
0
 10
48.774
 20
16.4561
 11
48.75
 21
16.7
  0
LINE
  8
0
 10
48.75
 20
16.7
 11
48.774
 21
16.9439
  0
LINE
  8
0
 10
48.774
 20
16.9439
 11
48.8451
 21
17.1784
  0
LINE
  8
0
 10
48.8451
 20
17.1784
 11
48.9607
 21
17.3945
  0
LINE
  8
0
 10
48.9607
 20
17.3945
 11
49.1161
 21
17.5839
  0
LINE
  8
0
 10
49.1161
 20
17.5839
 11
49.3055
 21
17.7393
  0
LINE
  8
0
 10
49.3055
 20
17.7393
 11
49.5216
 21
17.8549
  0
LINE
  8
0
 10
49.5216
 20
17.8549
 11
49.7561
 21
17.926
  0
LINE
  8
0
 10
49.7561
 20
17.926
 11
50
 21
17.95
  0
LINE
  8
0
 10
50
 20
17.95
 11
50.2439
 21
17.926
  0
LINE
  8
0
 10
50.2439
 20
17.926
 11
50.4783
 21
17.8549
  0
LINE
  8
0
 10
50.4783
 20
17.8549
 11
50.6945
 21
17.7393
  0
LINE
  8
0
 10
50.6945
 20
17.7393
 11
50.8839
 21
17.5839
  0
LINE
  8
0
 10
50.8839
 20
17.5839
 11
51.0393
 21
17.3945
  0
LINE
  8
0
 10
51.0393
 20
17.3945
 11
51.1548
 21
17.1784
  0
LINE
  8
0
 10
51.1548
 20
17.1784
 11
51.226
 21
16.9439
  0
LINE
  8
0
 10
51.226
 20
16.9439
 11
51.25
 21
16.7
  0
LINE
  8
0
 10
51.25
 20
16.7
 11
51.226
 21
16.4561
  0
LINE
  8
0
 10
51.226
 20
16.4561
 11
51.1548
 21
16.2216
  0
LINE
  8
0
 10
51.1548
 20
16.2216
 11
51.0393
 21
16.0055
  0
LINE
  8
0
 10
51.0393
 20
16.0055
 11
50.8839
 21
15.8161
  0
LINE
  8
0
 10
50.8839
 20
15.8161
 11
50.6945
 21
15.6607
  0
LINE
  8
0
 10
50.6945
 20
15.6607
 11
50.4783
 21
15.5452
  0
LINE
  8
0
 10
50.4783
 20
15.5452
 11
50.2439
 21
15.474
  0
LINE
  8
0
 10
50.2439
 20
15.474
 11
50
 21
15.45
  0
LINE
  8
0
 10
50
 20
15.45
 11
49.7561
 21
15.474
  0
LINE
  8
0
 10
-51.8439
 20
15.474
 11
-52.0784
 21
15.5452
  0
LINE
  8
0
 10
-52.0784
 20
15.5452
 11
-52.2944
 21
15.6607
  0
LINE
  8
0
 10
-52.2944
 20
15.6607
 11
-52.4839
 21
15.8161
  0
LINE
  8
0
 10
-52.4839
 20
15.8161
 11
-52.6393
 21
16.0055
  0
LINE
  8
0
 10
-52.6393
 20
16.0055
 11
-52.7548
 21
16.2216
  0
LINE
  8
0
 10
-52.7548
 20
16.2216
 11
-52.826
 21
16.4561
  0
LINE
  8
0
 10
-52.826
 20
16.4561
 11
-52.85
 21
16.7
  0
LINE
  8
0
 10
-52.85
 20
16.7
 11
-52.826
 21
16.9439
  0
LINE
  8
0
 10
-52.826
 20
16.9439
 11
-52.7548
 21
17.1784
  0
LINE
  8
0
 10
-52.7548
 20
17.1784
 11
-52.6393
 21
17.3945
  0
LINE
  8
0
 10
-52.6393
 20
17.3945
 11
-52.4839
 21
17.5839
  0
LINE
  8
0
 10
-52.4839
 20
17.5839
 11
-52.2944
 21
17.7393
  0
LINE
  8
0
 10
-52.2944
 20
17.7393
 11
-52.0784
 21
17.8549
  0
LINE
  8
0
 10
-52.0784
 20
17.8549
 11
-51.8439
 21
17.926
  0
LINE
  8
0
 10
-51.8439
 20
17.926
 11
-51.6
 21
17.95
  0
LINE
  8
0
 10
-51.6
 20
17.95
 11
-51.3561
 21
17.926
  0
LINE
  8
0
 10
-51.3561
 20
17.926
 11
-51.1216
 21
17.8549
  0
LINE
  8
0
 10
-51.1216
 20
17.8549
 11
-50.9055
 21
17.7393
  0
LINE
  8
0
 10
-50.9055
 20
17.7393
 11
-50.7161
 21
17.5839
  0
LINE
  8
0
 10
-50.7161
 20
17.5839
 11
-50.5607
 21
17.3945
  0
LINE
  8
0
 10
-50.5607
 20
17.3945
 11
-50.4451
 21
17.1784
  0
LINE
  8
0
 10
-50.4451
 20
17.1784
 11
-50.374
 21
16.9439
  0
LINE
  8
0
 10
-50.374
 20
16.9439
 11
-50.35
 21
16.7
  0
LINE
  8
0
 10
-50.35
 20
16.7
 11
-50.374
 21
16.4561
  0
LINE
  8
0
 10
-50.374
 20
16.4561
 11
-50.4451
 21
16.2216
  0
LINE
  8
0
 10
-50.4451
 20
16.2216
 11
-50.5607
 21
16.0055
  0
LINE
  8
0
 10
-50.5607
 20
16.0055
 11
-50.7161
 21
15.8161
  0
LINE
  8
0
 10
-50.7161
 20
15.8161
 11
-50.9055
 21
15.6607
  0
LINE
  8
0
 10
-50.9055
 20
15.6607
 11
-51.1216
 21
15.5452
  0
LINE
  8
0
 10
-51.1216
 20
15.5452
 11
-51.3561
 21
15.474
  0
LINE
  8
0
 10
-51.3561
 20
15.474
 11
-51.6
 21
15.45
  0
LINE
  8
0
 10
-51.6
 20
15.45
 11
-51.8439
 21
15.474
  0
LINE
  8
0
 10
49.7561
 20
-5.22597
 11
49.5216
 21
-5.15485
  0
LINE
  8
0
 10
49.5216
 20
-5.15485
 11
49.3055
 21
-5.03932
  0
LINE
  8
0
 10
49.3055
 20
-5.03932
 11
49.1161
 21
-4.88388
  0
LINE
  8
0
 10
49.1161
 20
-4.88388
 11
48.9607
 21
-4.69446
  0
LINE
  8
0
 10
48.9607
 20
-4.69446
 11
48.8451
 21
-4.47835
  0
LINE
  8
0
 10
48.8451
 20
-4.47835
 11
48.774
 21
-4.24385
  0
LINE
  8
0
 10
48.774
 20
-4.24385
 11
48.75
 21
-4
  0
LINE
  8
0
 10
48.75
 20
-4
 11
48.774
 21
-3.75613
  0
LINE
  8
0
 10
48.774
 20
-3.75613
 11
48.8451
 21
-3.52164
  0
LINE
  8
0
 10
48.8451
 20
-3.52164
 11
48.9607
 21
-3.30553
  0
LINE
  8
0
 10
48.9607
 20
-3.30553
 11
49.1161
 21
-3.1161
  0
LINE
  8
0
 10
49.1161
 20
-3.1161
 11
49.3055
 21
-2.96066
  0
LINE
  8
0
 10
49.3055
 20
-2.96066
 11
49.5216
 21
-2.84514
  0
LINE
  8
0
 10
49.5216
 20
-2.84514
 11
49.7561
 21
-2.77402
  0
LINE
  8
0
 10
49.7561
 20
-2.77402
 11
50
 21
-2.75
  0
LINE
  8
0
 10
50
 20
-2.75
 11
50.2439
 21
-2.77402
  0
LINE
  8
0
 10
50.2439
 20
-2.77402
 11
50.4783
 21
-2.84514
  0
LINE
  8
0
 10
50.4783
 20
-2.84514
 11
50.6945
 21
-2.96066
  0
LINE
  8
0
 10
50.6945
 20
-2.96066
 11
50.8839
 21
-3.1161
  0
LINE
  8
0
 10
50.8839
 20
-3.1161
 11
51.0393
 21
-3.30553
  0
LINE
  8
0
 10
51.0393
 20
-3.30553
 11
51.1548
 21
-3.52164
  0
LINE
  8
0
 10
51.1548
 20
-3.52164
 11
51.226
 21
-3.75613
  0
LINE
  8
0
 10
51.226
 20
-3.75613
 11
51.25
 21
-4
  0
LINE
  8
0
 10
51.25
 20
-4
 11
51.226
 21
-4.24385
  0
LINE
  8
0
 10
51.226
 20
-4.24385
 11
51.1548
 21
-4.47835
  0
LINE
  8
0
 10
51.1548
 20
-4.47835
 11
51.0393
 21
-4.69446
  0
LINE
  8
0
 10
51.0393
 20
-4.69446
 11
50.8839
 21
-4.88388
  0
LINE
  8
0
 10
50.8839
 20
-4.88388
 11
50.6945
 21
-5.03932
  0
LINE
  8
0
 10
50.6945
 20
-5.03932
 11
50.4783
 21
-5.15485
  0
LINE
  8
0
 10
50.4783
 20
-5.15485
 11
50.2439
 21
-5.22597
  0
LINE
  8
0
 10
50.2439
 20
-5.22597
 11
50
 21
-5.25
  0
LINE
  8
0
 10
50
 20
-5.25
 11
49.7561
 21
-5.22597
  0
LINE
  8
0
 10
-65.2439
 20
-5.22597
 11
-65.4783
 21
-5.15485
  0
LINE
  8
0
 10
-65.4783
 20
-5.15485
 11
-65.6945
 21
-5.03932
  0
LINE
  8
0
 10
-65.6945
 20
-5.03932
 11
-65.8839
 21
-4.88388
  0
LINE
  8
0
 10
-65.8839
 20
-4.88388
 11
-66.0393
 21
-4.69446
  0
LINE
  8
0
 10
-66.0393
 20
-4.69446
 11
-66.1548
 21
-4.47835
  0
LINE
  8
0
 10
-66.1548
 20
-4.47835
 11
-66.226
 21
-4.24385
  0
LINE
  8
0
 10
-66.226
 20
-4.24385
 11
-66.25
 21
-4
  0
LINE
  8
0
 10
-66.25
 20
-4
 11
-66.226
 21
-3.75613
  0
LINE
  8
0
 10
-66.226
 20
-3.75613
 11
-66.1548
 21
-3.52164
  0
LINE
  8
0
 10
-66.1548
 20
-3.52164
 11
-66.0393
 21
-3.30553
  0
LINE
  8
0
 10
-66.0393
 20
-3.30553
 11
-65.8839
 21
-3.1161
  0
LINE
  8
0
 10
-65.8839
 20
-3.1161
 11
-65.6945
 21
-2.96066
  0
LINE
  8
0
 10
-65.6945
 20
-2.96066
 11
-65.4783
 21
-2.84514
  0
LINE
  8
0
 10
-65.4783
 20
-2.84514
 11
-65.2439
 21
-2.77402
  0
LINE
  8
0
 10
-65.2439
 20
-2.77402
 11
-65
 21
-2.75
  0
LINE
  8
0
 10
-65
 20
-2.75
 11
-64.7561
 21
-2.77402
  0
LINE
  8
0
 10
-64.7561
 20
-2.77402
 11
-64.5216
 21
-2.84514
  0
LINE
  8
0
 10
-64.5216
 20
-2.84514
 11
-64.3055
 21
-2.96066
  0
LINE
  8
0
 10
-64.3055
 20
-2.96066
 11
-64.1161
 21
-3.1161
  0
LINE
  8
0
 10
-64.1161
 20
-3.1161
 11
-63.9607
 21
-3.30553
  0
LINE
  8
0
 10
-63.9607
 20
-3.30553
 11
-63.8451
 21
-3.52164
  0
LINE
  8
0
 10
-63.8451
 20
-3.52164
 11
-63.774
 21
-3.75613
  0
LINE
  8
0
 10
-63.774
 20
-3.75613
 11
-63.75
 21
-4
  0
LINE
  8
0
 10
-63.75
 20
-4
 11
-63.774
 21
-4.24385
  0
LINE
  8
0
 10
-63.774
 20
-4.24385
 11
-63.8451
 21
-4.47835
  0
LINE
  8
0
 10
-63.8451
 20
-4.47835
 11
-63.9607
 21
-4.69446
  0
LINE
  8
0
 10
-63.9607
 20
-4.69446
 11
-64.1161
 21
-4.88388
  0
LINE
  8
0
 10
-64.1161
 20
-4.88388
 11
-64.3055
 21
-5.03932
  0
LINE
  8
0
 10
-64.3055
 20
-5.03932
 11
-64.5216
 21
-5.15485
  0
LINE
  8
0
 10
-64.5216
 20
-5.15485
 11
-64.7561
 21
-5.22597
  0
LINE
  8
0
 10
-64.7561
 20
-5.22597
 11
-65
 21
-5.25
  0
LINE
  8
0
 10
-65
 20
-5.25
 11
-65.2439
 21
-5.22597
  0
LINE
  8
0
 10
-12.2718
 20
-14.5858
 11
-12.5406
 21
-14.5432
  0
LINE
  8
0
 10
-12.5406
 20
-14.5432
 11
-12.8034
 21
-14.4727
  0
LINE
  8
0
 10
-12.8034
 20
-14.4727
 11
-13.0575
 21
-14.3752
  0
LINE
  8
0
 10
-13.0575
 20
-14.3752
 11
-13.3
 21
-14.2517
  0
LINE
  8
0
 10
-13.3
 20
-14.2517
 11
-13.5282
 21
-14.1034
  0
LINE
  8
0
 10
-13.5282
 20
-14.1034
 11
-13.7397
 21
-13.9322
  0
LINE
  8
0
 10
-13.7397
 20
-13.9322
 11
-13.9322
 21
-13.7397
  0
LINE
  8
0
 10
-13.9322
 20
-13.7397
 11
-14.1034
 21
-13.5282
  0
LINE
  8
0
 10
-14.1034
 20
-13.5282
 11
-14.2517
 21
-13.3
  0
LINE
  8
0
 10
-14.2517
 20
-13.3
 11
-14.3752
 21
-13.0575
  0
LINE
  8
0
 10
-14.3752
 20
-13.0575
 11
-14.4727
 21
-12.8034
  0
LINE
  8
0
 10
-14.4727
 20
-12.8034
 11
-14.5432
 21
-12.5406
  0
LINE
  8
0
 10
-14.5432
 20
-12.5406
 11
-14.5858
 21
-12.2718
  0
LINE
  8
0
 10
-14.5858
 20
-12.2718
 11
-14.6
 21
-12
  0
LINE
  8
0
 10
-14.6
 20
-12
 11
-14.5858
 21
-11.7282
  0
LINE
  8
0
 10
-14.5858
 20
-11.7282
 11
-14.5432
 21
-11.4594
  0
LINE
  8
0
 10
-14.5432
 20
-11.4594
 11
-14.4727
 21
-11.1965
  0
LINE
  8
0
 10
-14.4727
 20
-11.1965
 11
-14.3752
 21
-10.9425
  0
LINE
  8
0
 10
-14.3752
 20
-10.9425
 11
-14.2517
 21
-10.7
  0
LINE
  8
0
 10
-14.2517
 20
-10.7
 11
-14.1034
 21
-10.4718
  0
LINE
  8
0
 10
-14.1034
 20
-10.4718
 11
-13.9322
 21
-10.2603
  0
LINE
  8
0
 10
-13.9322
 20
-10.2603
 11
-13.7397
 21
-10.0678
  0
LINE
  8
0
 10
-13.7397
 20
-10.0678
 11
-13.5282
 21
-9.89655
  0
LINE
  8
0
 10
-13.5282
 20
-9.89655
 11
-13.3
 21
-9.74832
  0
LINE
  8
0
 10
-13.3
 20
-9.74832
 11
-13.0575
 21
-9.62477
  0
LINE
  8
0
 10
-13.0575
 20
-9.62477
 11
-12.8034
 21
-9.52725
  0
LINE
  8
0
 10
-12.8034
 20
-9.52725
 11
-12.5406
 21
-9.4568
  0
LINE
  8
0
 10
-12.5406
 20
-9.4568
 11
-12.2718
 21
-9.41423
  0
LINE
  8
0
 10
-12.2718
 20
-9.41423
 11
-12
 21
-9.39999
  0
LINE
  8
0
 10
-12
 20
-9.39999
 11
-11.7282
 21
-9.41423
  0
LINE
  8
0
 10
-11.7282
 20
-9.41423
 11
-11.4594
 21
-9.4568
  0
LINE
  8
0
 10
-11.4594
 20
-9.4568
 11
-11.1965
 21
-9.52725
  0
LINE
  8
0
 10
-11.1965
 20
-9.52725
 11
-10.9425
 21
-9.62477
  0
LINE
  8
0
 10
-10.9425
 20
-9.62477
 11
-10.7
 21
-9.74832
  0
LINE
  8
0
 10
-10.7
 20
-9.74832
 11
-10.4718
 21
-9.89655
  0
LINE
  8
0
 10
-10.4718
 20
-9.89655
 11
-10.2603
 21
-10.0678
  0
LINE
  8
0
 10
-10.2603
 20
-10.0678
 11
-10.0678
 21
-10.2603
  0
LINE
  8
0
 10
-10.0678
 20
-10.2603
 11
-9.89655
 21
-10.4718
  0
LINE
  8
0
 10
-9.89655
 20
-10.4718
 11
-9.74832
 21
-10.7
  0
LINE
  8
0
 10
-9.74832
 20
-10.7
 11
-9.62477
 21
-10.9425
  0
LINE
  8
0
 10
-9.62477
 20
-10.9425
 11
-9.52725
 21
-11.1965
  0
LINE
  8
0
 10
-9.52725
 20
-11.1965
 11
-9.4568
 21
-11.4594
  0
LINE
  8
0
 10
-9.4568
 20
-11.4594
 11
-9.41423
 21
-11.7282
  0
LINE
  8
0
 10
-9.41423
 20
-11.7282
 11
-9.39999
 21
-12
  0
LINE
  8
0
 10
-9.39999
 20
-12
 11
-9.41423
 21
-12.2718
  0
LINE
  8
0
 10
-9.41423
 20
-12.2718
 11
-9.4568
 21
-12.5406
  0
LINE
  8
0
 10
-9.4568
 20
-12.5406
 11
-9.52725
 21
-12.8034
  0
LINE
  8
0
 10
-9.52725
 20
-12.8034
 11
-9.62477
 21
-13.0575
  0
LINE
  8
0
 10
-9.62477
 20
-13.0575
 11
-9.74832
 21
-13.3
  0
LINE
  8
0
 10
-9.74832
 20
-13.3
 11
-9.89655
 21
-13.5282
  0
LINE
  8
0
 10
-9.89655
 20
-13.5282
 11
-10.0678
 21
-13.7397
  0
LINE
  8
0
 10
-10.0678
 20
-13.7397
 11
-10.2603
 21
-13.9322
  0
LINE
  8
0
 10
-10.2603
 20
-13.9322
 11
-10.4718
 21
-14.1034
  0
LINE
  8
0
 10
-10.4718
 20
-14.1034
 11
-10.7
 21
-14.2517
  0
LINE
  8
0
 10
-10.7
 20
-14.2517
 11
-10.9425
 21
-14.3752
  0
LINE
  8
0
 10
-10.9425
 20
-14.3752
 11
-11.1965
 21
-14.4727
  0
LINE
  8
0
 10
-11.1965
 20
-14.4727
 11
-11.4594
 21
-14.5432
  0
LINE
  8
0
 10
-11.4594
 20
-14.5432
 11
-11.7282
 21
-14.5858
  0
LINE
  8
0
 10
-11.7282
 20
-14.5858
 11
-12
 21
-14.6
  0
LINE
  8
0
 10
-12
 20
-14.6
 11
-12.2718
 21
-14.5858
  0
LINE
  8
0
 10
11.7282
 20
-14.5858
 11
11.4594
 21
-14.5432
  0
LINE
  8
0
 10
11.4594
 20
-14.5432
 11
11.1965
 21
-14.4727
  0
LINE
  8
0
 10
11.1965
 20
-14.4727
 11
10.9425
 21
-14.3752
  0
LINE
  8
0
 10
10.9425
 20
-14.3752
 11
10.7
 21
-14.2517
  0
LINE
  8
0
 10
10.7
 20
-14.2517
 11
10.4718
 21
-14.1034
  0
LINE
  8
0
 10
10.4718
 20
-14.1034
 11
10.2603
 21
-13.9322
  0
LINE
  8
0
 10
10.2603
 20
-13.9322
 11
10.0678
 21
-13.7397
  0
LINE
  8
0
 10
10.0678
 20
-13.7397
 11
9.89655
 21
-13.5282
  0
LINE
  8
0
 10
9.89655
 20
-13.5282
 11
9.74832
 21
-13.3
  0
LINE
  8
0
 10
9.74832
 20
-13.3
 11
9.62477
 21
-13.0575
  0
LINE
  8
0
 10
9.62477
 20
-13.0575
 11
9.52725
 21
-12.8034
  0
LINE
  8
0
 10
9.52725
 20
-12.8034
 11
9.4568
 21
-12.5406
  0
LINE
  8
0
 10
9.4568
 20
-12.5406
 11
9.41423
 21
-12.2718
  0
LINE
  8
0
 10
9.41423
 20
-12.2718
 11
9.39999
 21
-12
  0
LINE
  8
0
 10
9.39999
 20
-12
 11
9.41423
 21
-11.7282
  0
LINE
  8
0
 10
9.41423
 20
-11.7282
 11
9.4568
 21
-11.4594
  0
LINE
  8
0
 10
9.4568
 20
-11.4594
 11
9.52725
 21
-11.1965
  0
LINE
  8
0
 10
9.52725
 20
-11.1965
 11
9.62477
 21
-10.9425
  0
LINE
  8
0
 10
9.62477
 20
-10.9425
 11
9.74832
 21
-10.7
  0
LINE
  8
0
 10
9.74832
 20
-10.7
 11
9.89655
 21
-10.4718
  0
LINE
  8
0
 10
9.89655
 20
-10.4718
 11
10.0678
 21
-10.2603
  0
LINE
  8
0
 10
10.0678
 20
-10.2603
 11
10.2603
 21
-10.0678
  0
LINE
  8
0
 10
10.2603
 20
-10.0678
 11
10.4718
 21
-9.89655
  0
LINE
  8
0
 10
10.4718
 20
-9.89655
 11
10.7
 21
-9.74832
  0
LINE
  8
0
 10
10.7
 20
-9.74832
 11
10.9425
 21
-9.62477
  0
LINE
  8
0
 10
10.9425
 20
-9.62477
 11
11.1965
 21
-9.52725
  0
LINE
  8
0
 10
11.1965
 20
-9.52725
 11
11.4594
 21
-9.4568
  0
LINE
  8
0
 10
11.4594
 20
-9.4568
 11
11.7282
 21
-9.41423
  0
LINE
  8
0
 10
11.7282
 20
-9.41423
 11
12
 21
-9.39999
  0
LINE
  8
0
 10
12
 20
-9.39999
 11
12.2718
 21
-9.41423
  0
LINE
  8
0
 10
12.2718
 20
-9.41423
 11
12.5406
 21
-9.4568
  0
LINE
  8
0
 10
12.5406
 20
-9.4568
 11
12.8034
 21
-9.52725
  0
LINE
  8
0
 10
12.8034
 20
-9.52725
 11
13.0575
 21
-9.62477
  0
LINE
  8
0
 10
13.0575
 20
-9.62477
 11
13.3
 21
-9.74832
  0
LINE
  8
0
 10
13.3
 20
-9.74832
 11
13.5282
 21
-9.89655
  0
LINE
  8
0
 10
13.5282
 20
-9.89655
 11
13.7397
 21
-10.0678
  0
LINE
  8
0
 10
13.7397
 20
-10.0678
 11
13.9322
 21
-10.2603
  0
LINE
  8
0
 10
13.9322
 20
-10.2603
 11
14.1034
 21
-10.4718
  0
LINE
  8
0
 10
14.1034
 20
-10.4718
 11
14.2517
 21
-10.7
  0
LINE
  8
0
 10
14.2517
 20
-10.7
 11
14.3752
 21
-10.9425
  0
LINE
  8
0
 10
14.3752
 20
-10.9425
 11
14.4727
 21
-11.1965
  0
LINE
  8
0
 10
14.4727
 20
-11.1965
 11
14.5432
 21
-11.4594
  0
LINE
  8
0
 10
14.5432
 20
-11.4594
 11
14.5858
 21
-11.7282
  0
LINE
  8
0
 10
14.5858
 20
-11.7282
 11
14.6
 21
-12
  0
LINE
  8
0
 10
14.6
 20
-12
 11
14.5858
 21
-12.2718
  0
LINE
  8
0
 10
14.5858
 20
-12.2718
 11
14.5432
 21
-12.5406
  0
LINE
  8
0
 10
14.5432
 20
-12.5406
 11
14.4727
 21
-12.8034
  0
LINE
  8
0
 10
14.4727
 20
-12.8034
 11
14.3752
 21
-13.0575
  0
LINE
  8
0
 10
14.3752
 20
-13.0575
 11
14.2517
 21
-13.3
  0
LINE
  8
0
 10
14.2517
 20
-13.3
 11
14.1034
 21
-13.5282
  0
LINE
  8
0
 10
14.1034
 20
-13.5282
 11
13.9322
 21
-13.7397
  0
LINE
  8
0
 10
13.9322
 20
-13.7397
 11
13.7397
 21
-13.9322
  0
LINE
  8
0
 10
13.7397
 20
-13.9322
 11
13.5282
 21
-14.1034
  0
LINE
  8
0
 10
13.5282
 20
-14.1034
 11
13.3
 21
-14.2517
  0
LINE
  8
0
 10
13.3
 20
-14.2517
 11
13.0575
 21
-14.3752
  0
LINE
  8
0
 10
13.0575
 20
-14.3752
 11
12.8034
 21
-14.4727
  0
LINE
  8
0
 10
12.8034
 20
-14.4727
 11
12.5406
 21
-14.5432
  0
LINE
  8
0
 10
12.5406
 20
-14.5432
 11
12.2718
 21
-14.5858
  0
LINE
  8
0
 10
12.2718
 20
-14.5858
 11
12
 21
-14.6
  0
LINE
  8
0
 10
12
 20
-14.6
 11
11.7282
 21
-14.5858
  0
LINE
  8
0
 10
29.7282
 20
-43.5858
 11
29.4594
 21
-43.5432
  0
LINE
  8
0
 10
29.4594
 20
-43.5432
 11
29.1965
 21
-43.4727
  0
LINE
  8
0
 10
29.1965
 20
-43.4727
 11
28.9425
 21
-43.3752
  0
LINE
  8
0
 10
28.9425
 20
-43.3752
 11
28.7
 21
-43.2517
  0
LINE
  8
0
 10
28.7
 20
-43.2517
 11
28.4718
 21
-43.1034
  0
LINE
  8
0
 10
28.4718
 20
-43.1034
 11
28.2603
 21
-42.9322
  0
LINE
  8
0
 10
28.2603
 20
-42.9322
 11
28.0678
 21
-42.7397
  0
LINE
  8
0
 10
28.0678
 20
-42.7397
 11
27.8965
 21
-42.5282
  0
LINE
  8
0
 10
27.8965
 20
-42.5282
 11
27.7483
 21
-42.3
  0
LINE
  8
0
 10
27.7483
 20
-42.3
 11
27.6248
 21
-42.0575
  0
LINE
  8
0
 10
27.6248
 20
-42.0575
 11
27.5273
 21
-41.8034
  0
LINE
  8
0
 10
27.5273
 20
-41.8034
 11
27.4568
 21
-41.5406
  0
LINE
  8
0
 10
27.4568
 20
-41.5406
 11
27.4142
 21
-41.2718
  0
LINE
  8
0
 10
27.4142
 20
-41.2718
 11
27.4
 21
-41
  0
LINE
  8
0
 10
27.4
 20
-41
 11
27.4142
 21
-40.7282
  0
LINE
  8
0
 10
27.4142
 20
-40.7282
 11
27.4568
 21
-40.4594
  0
LINE
  8
0
 10
27.4568
 20
-40.4594
 11
27.5273
 21
-40.1965
  0
LINE
  8
0
 10
27.5273
 20
-40.1965
 11
27.6248
 21
-39.9425
  0
LINE
  8
0
 10
27.6248
 20
-39.9425
 11
27.7483
 21
-39.7
  0
LINE
  8
0
 10
27.7483
 20
-39.7
 11
27.8965
 21
-39.4718
  0
LINE
  8
0
 10
27.8965
 20
-39.4718
 11
28.0678
 21
-39.2603
  0
LINE
  8
0
 10
28.0678
 20
-39.2603
 11
28.2603
 21
-39.0678
  0
LINE
  8
0
 10
28.2603
 20
-39.0678
 11
28.4718
 21
-38.8965
  0
LINE
  8
0
 10
28.4718
 20
-38.8965
 11
28.7
 21
-38.7483
  0
LINE
  8
0
 10
28.7
 20
-38.7483
 11
28.9425
 21
-38.6248
  0
LINE
  8
0
 10
28.9425
 20
-38.6248
 11
29.1965
 21
-38.5273
  0
LINE
  8
0
 10
29.1965
 20
-38.5273
 11
29.4594
 21
-38.4568
  0
LINE
  8
0
 10
29.4594
 20
-38.4568
 11
29.7282
 21
-38.4142
  0
LINE
  8
0
 10
29.7282
 20
-38.4142
 11
30
 21
-38.4
  0
LINE
  8
0
 10
30
 20
-38.4
 11
30.2718
 21
-38.4142
  0
LINE
  8
0
 10
30.2718
 20
-38.4142
 11
30.5406
 21
-38.4568
  0
LINE
  8
0
 10
30.5406
 20
-38.4568
 11
30.8034
 21
-38.5273
  0
LINE
  8
0
 10
30.8034
 20
-38.5273
 11
31.0575
 21
-38.6248
  0
LINE
  8
0
 10
31.0575
 20
-38.6248
 11
31.3
 21
-38.7483
  0
LINE
  8
0
 10
31.3
 20
-38.7483
 11
31.5282
 21
-38.8965
  0
LINE
  8
0
 10
31.5282
 20
-38.8965
 11
31.7397
 21
-39.0678
  0
LINE
  8
0
 10
31.7397
 20
-39.0678
 11
31.9322
 21
-39.2603
  0
LINE
  8
0
 10
31.9322
 20
-39.2603
 11
32.1034
 21
-39.4718
  0
LINE
  8
0
 10
32.1034
 20
-39.4718
 11
32.2517
 21
-39.7
  0
LINE
  8
0
 10
32.2517
 20
-39.7
 11
32.3752
 21
-39.9425
  0
LINE
  8
0
 10
32.3752
 20
-39.9425
 11
32.4727
 21
-40.1965
  0
LINE
  8
0
 10
32.4727
 20
-40.1965
 11
32.5432
 21
-40.4594
  0
LINE
  8
0
 10
32.5432
 20
-40.4594
 11
32.5858
 21
-40.7282
  0
LINE
  8
0
 10
32.5858
 20
-40.7282
 11
32.6
 21
-41
  0
LINE
  8
0
 10
32.6
 20
-41
 11
32.5858
 21
-41.2718
  0
LINE
  8
0
 10
32.5858
 20
-41.2718
 11
32.5432
 21
-41.5406
  0
LINE
  8
0
 10
32.5432
 20
-41.5406
 11
32.4727
 21
-41.8034
  0
LINE
  8
0
 10
32.4727
 20
-41.8034
 11
32.3752
 21
-42.0575
  0
LINE
  8
0
 10
32.3752
 20
-42.0575
 11
32.2517
 21
-42.3
  0
LINE
  8
0
 10
32.2517
 20
-42.3
 11
32.1034
 21
-42.5282
  0
LINE
  8
0
 10
32.1034
 20
-42.5282
 11
31.9322
 21
-42.7397
  0
LINE
  8
0
 10
31.9322
 20
-42.7397
 11
31.7397
 21
-42.9322
  0
LINE
  8
0
 10
31.7397
 20
-42.9322
 11
31.5282
 21
-43.1034
  0
LINE
  8
0
 10
31.5282
 20
-43.1034
 11
31.3
 21
-43.2517
  0
LINE
  8
0
 10
31.3
 20
-43.2517
 11
31.0575
 21
-43.3752
  0
LINE
  8
0
 10
31.0575
 20
-43.3752
 11
30.8034
 21
-43.4727
  0
LINE
  8
0
 10
30.8034
 20
-43.4727
 11
30.5406
 21
-43.5432
  0
LINE
  8
0
 10
30.5406
 20
-43.5432
 11
30.2718
 21
-43.5858
  0
LINE
  8
0
 10
30.2718
 20
-43.5858
 11
30
 21
-43.6
  0
LINE
  8
0
 10
30
 20
-43.6
 11
29.7282
 21
-43.5858
  0
LINE
  8
0
 10
-30.2718
 20
-43.5858
 11
-30.5406
 21
-43.5432
  0
LINE
  8
0
 10
-30.5406
 20
-43.5432
 11
-30.8034
 21
-43.4727
  0
LINE
  8
0
 10
-30.8034
 20
-43.4727
 11
-31.0575
 21
-43.3752
  0
LINE
  8
0
 10
-31.0575
 20
-43.3752
 11
-31.3
 21
-43.2517
  0
LINE
  8
0
 10
-31.3
 20
-43.2517
 11
-31.5282
 21
-43.1034
  0
LINE
  8
0
 10
-31.5282
 20
-43.1034
 11
-31.7397
 21
-42.9322
  0
LINE
  8
0
 10
-31.7397
 20
-42.9322
 11
-31.9322
 21
-42.7397
  0
LINE
  8
0
 10
-31.9322
 20
-42.7397
 11
-32.1034
 21
-42.5282
  0
LINE
  8
0
 10
-32.1034
 20
-42.5282
 11
-32.2517
 21
-42.3
  0
LINE
  8
0
 10
-32.2517
 20
-42.3
 11
-32.3752
 21
-42.0575
  0
LINE
  8
0
 10
-32.3752
 20
-42.0575
 11
-32.4727
 21
-41.8034
  0
LINE
  8
0
 10
-32.4727
 20
-41.8034
 11
-32.5432
 21
-41.5406
  0
LINE
  8
0
 10
-32.5432
 20
-41.5406
 11
-32.5858
 21
-41.2718
  0
LINE
  8
0
 10
-32.5858
 20
-41.2718
 11
-32.6
 21
-41
  0
LINE
  8
0
 10
-32.6
 20
-41
 11
-32.5858
 21
-40.7282
  0
LINE
  8
0
 10
-32.5858
 20
-40.7282
 11
-32.5432
 21
-40.4594
  0
LINE
  8
0
 10
-32.5432
 20
-40.4594
 11
-32.4727
 21
-40.1965
  0
LINE
  8
0
 10
-32.4727
 20
-40.1965
 11
-32.3752
 21
-39.9425
  0
LINE
  8
0
 10
-32.3752
 20
-39.9425
 11
-32.2517
 21
-39.7
  0
LINE
  8
0
 10
-32.2517
 20
-39.7
 11
-32.1034
 21
-39.4718
  0
LINE
  8
0
 10
-32.1034
 20
-39.4718
 11
-31.9322
 21
-39.2603
  0
LINE
  8
0
 10
-31.9322
 20
-39.2603
 11
-31.7397
 21
-39.0678
  0
LINE
  8
0
 10
-31.7397
 20
-39.0678
 11
-31.5282
 21
-38.8965
  0
LINE
  8
0
 10
-31.5282
 20
-38.8965
 11
-31.3
 21
-38.7483
  0
LINE
  8
0
 10
-31.3
 20
-38.7483
 11
-31.0575
 21
-38.6248
  0
LINE
  8
0
 10
-31.0575
 20
-38.6248
 11
-30.8034
 21
-38.5273
  0
LINE
  8
0
 10
-30.8034
 20
-38.5273
 11
-30.5406
 21
-38.4568
  0
LINE
  8
0
 10
-30.5406
 20
-38.4568
 11
-30.2718
 21
-38.4142
  0
LINE
  8
0
 10
-30.2718
 20
-38.4142
 11
-30
 21
-38.4
  0
LINE
  8
0
 10
-30
 20
-38.4
 11
-29.7282
 21
-38.4142
  0
LINE
  8
0
 10
-29.7282
 20
-38.4142
 11
-29.4594
 21
-38.4568
  0
LINE
  8
0
 10
-29.4594
 20
-38.4568
 11
-29.1965
 21
-38.5273
  0
LINE
  8
0
 10
-29.1965
 20
-38.5273
 11
-28.9425
 21
-38.6248
  0
LINE
  8
0
 10
-28.9425
 20
-38.6248
 11
-28.7
 21
-38.7483
  0
LINE
  8
0
 10
-28.7
 20
-38.7483
 11
-28.4718
 21
-38.8965
  0
LINE
  8
0
 10
-28.4718
 20
-38.8965
 11
-28.2603
 21
-39.0678
  0
LINE
  8
0
 10
-28.2603
 20
-39.0678
 11
-28.0678
 21
-39.2603
  0
LINE
  8
0
 10
-28.0678
 20
-39.2603
 11
-27.8965
 21
-39.4718
  0
LINE
  8
0
 10
-27.8965
 20
-39.4718
 11
-27.7483
 21
-39.7
  0
LINE
  8
0
 10
-27.7483
 20
-39.7
 11
-27.6248
 21
-39.9425
  0
LINE
  8
0
 10
-27.6248
 20
-39.9425
 11
-27.5273
 21
-40.1965
  0
LINE
  8
0
 10
-27.5273
 20
-40.1965
 11
-27.4568
 21
-40.4594
  0
LINE
  8
0
 10
-27.4568
 20
-40.4594
 11
-27.4142
 21
-40.7282
  0
LINE
  8
0
 10
-27.4142
 20
-40.7282
 11
-27.4
 21
-41
  0
LINE
  8
0
 10
-27.4
 20
-41
 11
-27.4142
 21
-41.2718
  0
LINE
  8
0
 10
-27.4142
 20
-41.2718
 11
-27.4568
 21
-41.5406
  0
LINE
  8
0
 10
-27.4568
 20
-41.5406
 11
-27.5273
 21
-41.8034
  0
LINE
  8
0
 10
-27.5273
 20
-41.8034
 11
-27.6248
 21
-42.0575
  0
LINE
  8
0
 10
-27.6248
 20
-42.0575
 11
-27.7483
 21
-42.3
  0
LINE
  8
0
 10
-27.7483
 20
-42.3
 11
-27.8965
 21
-42.5282
  0
LINE
  8
0
 10
-27.8965
 20
-42.5282
 11
-28.0678
 21
-42.7397
  0
LINE
  8
0
 10
-28.0678
 20
-42.7397
 11
-28.2603
 21
-42.9322
  0
LINE
  8
0
 10
-28.2603
 20
-42.9322
 11
-28.4718
 21
-43.1034
  0
LINE
  8
0
 10
-28.4718
 20
-43.1034
 11
-28.7
 21
-43.2517
  0
LINE
  8
0
 10
-28.7
 20
-43.2517
 11
-28.9425
 21
-43.3752
  0
LINE
  8
0
 10
-28.9425
 20
-43.3752
 11
-29.1965
 21
-43.4727
  0
LINE
  8
0
 10
-29.1965
 20
-43.4727
 11
-29.4594
 21
-43.5432
  0
LINE
  8
0
 10
-29.4594
 20
-43.5432
 11
-29.7282
 21
-43.5858
  0
LINE
  8
0
 10
-29.7282
 20
-43.5858
 11
-30
 21
-43.6
  0
LINE
  8
0
 10
-30
 20
-43.6
 11
-30.2718
 21
-43.5858
  0
ENDSEC
  0
SECTION
  2
OBJECTS
  0
DICTIONARY
  0
ENDSEC
  0
EOF
