  0
SECTION
  2
BLOCKS
  0
ENDSEC
  0
SECTION
  2
ENTITIES
  0
LINE
  8
0
 10
-5.81766
 20
2.96594
 11
-5.58411
 21
3.03586
  0
LINE
  8
0
 10
-5.58411
 20
3.03586
 11
-5.37297
 21
3.15776
  0
LINE
  8
0
 10
-5.37297
 20
3.15776
 11
-5.19565
 21
3.32506
  0
LINE
  8
0
 10
-5.19565
 20
3.32506
 11
-5.06168
 21
3.52875
  0
LINE
  8
0
 10
-5.06168
 20
3.52875
 11
-4.9783
 21
3.75784
  0
LINE
  8
0
 10
-4.9783
 20
3.75784
 11
-4.95
 21
4
  0
LINE
  8
0
 10
-4.95
 20
4
 11
-4.9783
 21
4.24214
  0
LINE
  8
0
 10
-4.9783
 20
4.24214
 11
-5.06168
 21
4.47124
  0
LINE
  8
0
 10
-5.06168
 20
4.47124
 11
-5.19565
 21
4.67493
  0
LINE
  8
0
 10
-5.19565
 20
4.67493
 11
-5.37297
 21
4.84222
  0
LINE
  8
0
 10
-5.37297
 20
4.84222
 11
-5.58411
 21
4.96413
  0
LINE
  8
0
 10
-5.58411
 20
4.96413
 11
-5.81766
 21
5.03404
  0
LINE
  8
0
 10
-5.81766
 20
5.03404
 11
-6.06105
 21
5.04822
  0
LINE
  8
0
 10
-6.06105
 20
5.04822
 11
-6.30113
 21
5.00587
  0
LINE
  8
0
 10
-6.30113
 20
5.00587
 11
-6.52499
 21
4.90932
  0
LINE
  8
0
 10
-6.52499
 20
4.90932
 11
-6.72055
 21
4.76373
  0
LINE
  8
0
 10
-6.72055
 20
4.76373
 11
-6.87726
 21
4.57698
  0
LINE
  8
0
 10
-6.87726
 20
4.57698
 11
-6.98666
 21
4.35912
  0
LINE
  8
0
 10
-6.98666
 20
4.35912
 11
-7.04289
 21
4.12189
  0
LINE
  8
0
 10
-7.04289
 20
4.12189
 11
-7.04289
 21
3.8781
  0
LINE
  8
0
 10
-7.04289
 20
3.8781
 11
-6.98666
 21
3.64087
  0
LINE
  8
0
 10
-6.98666
 20
3.64087
 11
-6.87726
 21
3.423
  0
LINE
  8
0
 10
-6.87726
 20
3.423
 11
-6.72055
 21
3.23625
  0
LINE
  8
0
 10
-6.72055
 20
3.23625
 11
-6.52499
 21
3.09067
  0
LINE
  8
0
 10
-6.52499
 20
3.09067
 11
-6.30113
 21
2.99411
  0
LINE
  8
0
 10
-6.30113
 20
2.99411
 11
-6.06105
 21
2.95177
  0
LINE
  8
0
 10
-6.06105
 20
2.95177
 11
-5.81766
 21
2.96594
  0
LINE
  8
0
 10
6.18233
 20
2.96594
 11
6.41588
 21
3.03586
  0
LINE
  8
0
 10
6.41588
 20
3.03586
 11
6.62701
 21
3.15776
  0
LINE
  8
0
 10
6.62701
 20
3.15776
 11
6.80434
 21
3.32506
  0
LINE
  8
0
 10
6.80434
 20
3.32506
 11
6.93831
 21
3.52875
  0
LINE
  8
0
 10
6.93831
 20
3.52875
 11
7.02168
 21
3.75784
  0
LINE
  8
0
 10
7.02168
 20
3.75784
 11
7.04999
 21
4
  0
LINE
  8
0
 10
7.04999
 20
4
 11
7.02168
 21
4.24214
  0
LINE
  8
0
 10
7.02168
 20
4.24214
 11
6.93831
 21
4.47124
  0
LINE
  8
0
 10
6.93831
 20
4.47124
 11
6.80434
 21
4.67493
  0
LINE
  8
0
 10
6.80434
 20
4.67493
 11
6.62701
 21
4.84222
  0
LINE
  8
0
 10
6.62701
 20
4.84222
 11
6.41588
 21
4.96413
  0
LINE
  8
0
 10
6.41588
 20
4.96413
 11
6.18233
 21
5.03404
  0
LINE
  8
0
 10
6.18233
 20
5.03404
 11
5.93893
 21
5.04822
  0
LINE
  8
0
 10
5.93893
 20
5.04822
 11
5.69885
 21
5.00587
  0
LINE
  8
0
 10
5.69885
 20
5.00587
 11
5.47499
 21
4.90932
  0
LINE
  8
0
 10
5.47499
 20
4.90932
 11
5.27943
 21
4.76373
  0
LINE
  8
0
 10
5.27943
 20
4.76373
 11
5.12273
 21
4.57698
  0
LINE
  8
0
 10
5.12273
 20
4.57698
 11
5.01332
 21
4.35912
  0
LINE
  8
0
 10
5.01332
 20
4.35912
 11
4.95709
 21
4.12189
  0
LINE
  8
0
 10
4.95709
 20
4.12189
 11
4.95709
 21
3.8781
  0
LINE
  8
0
 10
4.95709
 20
3.8781
 11
5.01332
 21
3.64087
  0
LINE
  8
0
 10
5.01332
 20
3.64087
 11
5.12273
 21
3.423
  0
LINE
  8
0
 10
5.12273
 20
3.423
 11
5.27943
 21
3.23625
  0
LINE
  8
0
 10
5.27943
 20
3.23625
 11
5.47499
 21
3.09067
  0
LINE
  8
0
 10
5.47499
 20
3.09067
 11
5.69885
 21
2.99411
  0
LINE
  8
0
 10
5.69885
 20
2.99411
 11
5.93893
 21
2.95177
  0
LINE
  8
0
 10
5.93893
 20
2.95177
 11
6.18233
 21
2.96594
  0
LINE
  8
0
 10
-5.81766
 20
-5.03404
 11
-5.58411
 21
-4.96413
  0
LINE
  8
0
 10
-5.58411
 20
-4.96413
 11
-5.37297
 21
-4.84222
  0
LINE
  8
0
 10
-5.37297
 20
-4.84222
 11
-5.19565
 21
-4.67493
  0
LINE
  8
0
 10
-5.19565
 20
-4.67493
 11
-5.06168
 21
-4.47124
  0
LINE
  8
0
 10
-5.06168
 20
-4.47124
 11
-4.9783
 21
-4.24214
  0
LINE
  8
0
 10
-4.9783
 20
-4.24214
 11
-4.95
 21
-4
  0
LINE
  8
0
 10
-4.95
 20
-4
 11
-4.9783
 21
-3.75784
  0
LINE
  8
0
 10
-4.9783
 20
-3.75784
 11
-5.06168
 21
-3.52875
  0
LINE
  8
0
 10
-5.06168
 20
-3.52875
 11
-5.19565
 21
-3.32506
  0
LINE
  8
0
 10
-5.19565
 20
-3.32506
 11
-5.37297
 21
-3.15776
  0
LINE
  8
0
 10
-5.37297
 20
-3.15776
 11
-5.58411
 21
-3.03586
  0
LINE
  8
0
 10
-5.58411
 20
-3.03586
 11
-5.81766
 21
-2.96594
  0
LINE
  8
0
 10
-5.81766
 20
-2.96594
 11
-6.06105
 21
-2.95177
  0
LINE
  8
0
 10
-6.06105
 20
-2.95177
 11
-6.30113
 21
-2.99411
  0
LINE
  8
0
 10
-6.30113
 20
-2.99411
 11
-6.52499
 21
-3.09067
  0
LINE
  8
0
 10
-6.52499
 20
-3.09067
 11
-6.72055
 21
-3.23625
  0
LINE
  8
0
 10
-6.72055
 20
-3.23625
 11
-6.87726
 21
-3.423
  0
LINE
  8
0
 10
-6.87726
 20
-3.423
 11
-6.98666
 21
-3.64087
  0
LINE
  8
0
 10
-6.98666
 20
-3.64087
 11
-7.04289
 21
-3.8781
  0
LINE
  8
0
 10
-7.04289
 20
-3.8781
 11
-7.04289
 21
-4.12189
  0
LINE
  8
0
 10
-7.04289
 20
-4.12189
 11
-6.98666
 21
-4.35912
  0
LINE
  8
0
 10
-6.98666
 20
-4.35912
 11
-6.87726
 21
-4.57698
  0
LINE
  8
0
 10
-6.87726
 20
-4.57698
 11
-6.72055
 21
-4.76373
  0
LINE
  8
0
 10
-6.72055
 20
-4.76373
 11
-6.52499
 21
-4.90932
  0
LINE
  8
0
 10
-6.52499
 20
-4.90932
 11
-6.30113
 21
-5.00587
  0
LINE
  8
0
 10
-6.30113
 20
-5.00587
 11
-6.06105
 21
-5.04822
  0
LINE
  8
0
 10
-6.06105
 20
-5.04822
 11
-5.81766
 21
-5.03404
  0
LINE
  8
0
 10
6.18233
 20
-5.03404
 11
6.41588
 21
-4.96413
  0
LINE
  8
0
 10
6.41588
 20
-4.96413
 11
6.62701
 21
-4.84222
  0
LINE
  8
0
 10
6.62701
 20
-4.84222
 11
6.80434
 21
-4.67493
  0
LINE
  8
0
 10
6.80434
 20
-4.67493
 11
6.93831
 21
-4.47124
  0
LINE
  8
0
 10
6.93831
 20
-4.47124
 11
7.02168
 21
-4.24214
  0
LINE
  8
0
 10
7.02168
 20
-4.24214
 11
7.04999
 21
-4
  0
LINE
  8
0
 10
7.04999
 20
-4
 11
7.02168
 21
-3.75784
  0
LINE
  8
0
 10
7.02168
 20
-3.75784
 11
6.93831
 21
-3.52875
  0
LINE
  8
0
 10
6.93831
 20
-3.52875
 11
6.80434
 21
-3.32506
  0
LINE
  8
0
 10
6.80434
 20
-3.32506
 11
6.62701
 21
-3.15776
  0
LINE
  8
0
 10
6.62701
 20
-3.15776
 11
6.41588
 21
-3.03586
  0
LINE
  8
0
 10
6.41588
 20
-3.03586
 11
6.18233
 21
-2.96594
  0
LINE
  8
0
 10
6.18233
 20
-2.96594
 11
5.93893
 21
-2.95177
  0
LINE
  8
0
 10
5.93893
 20
-2.95177
 11
5.69885
 21
-2.99411
  0
LINE
  8
0
 10
5.69885
 20
-2.99411
 11
5.47499
 21
-3.09067
  0
LINE
  8
0
 10
5.47499
 20
-3.09067
 11
5.27943
 21
-3.23625
  0
LINE
  8
0
 10
5.27943
 20
-3.23625
 11
5.12273
 21
-3.423
  0
LINE
  8
0
 10
5.12273
 20
-3.423
 11
5.01332
 21
-3.64087
  0
LINE
  8
0
 10
5.01332
 20
-3.64087
 11
4.95709
 21
-3.8781
  0
LINE
  8
0
 10
4.95709
 20
-3.8781
 11
4.95709
 21
-4.12189
  0
LINE
  8
0
 10
4.95709
 20
-4.12189
 11
5.01332
 21
-4.35912
  0
LINE
  8
0
 10
5.01332
 20
-4.35912
 11
5.12273
 21
-4.57698
  0
LINE
  8
0
 10
5.12273
 20
-4.57698
 11
5.27943
 21
-4.76373
  0
LINE
  8
0
 10
5.27943
 20
-4.76373
 11
5.47499
 21
-4.90932
  0
LINE
  8
0
 10
5.47499
 20
-4.90932
 11
5.69885
 21
-5.00587
  0
LINE
  8
0
 10
5.69885
 20
-5.00587
 11
5.93893
 21
-5.04822
  0
LINE
  8
0
 10
5.93893
 20
-5.04822
 11
6.18233
 21
-5.03404
  0
ENDSEC
  0
SECTION
  2
OBJECTS
  0
DICTIONARY
  0
ENDSEC
  0
EOF
