  0
SECTION
  2
BLOCKS
  0
ENDSEC
  0
SECTION
  2
ENTITIES
  0
LINE
  8
0
 10
-3.81766
 20
4.96594
 11
-3.58411
 21
5.03586
  0
LINE
  8
0
 10
-3.58411
 20
5.03586
 11
-3.37297
 21
5.15776
  0
LINE
  8
0
 10
-3.37297
 20
5.15776
 11
-3.19565
 21
5.32506
  0
LINE
  8
0
 10
-3.19565
 20
5.32506
 11
-3.06168
 21
5.52875
  0
LINE
  8
0
 10
-3.06168
 20
5.52875
 11
-2.9783
 21
5.75784
  0
LINE
  8
0
 10
-2.9783
 20
5.75784
 11
-2.95
 21
6
  0
LINE
  8
0
 10
-2.95
 20
6
 11
-2.9783
 21
6.24214
  0
LINE
  8
0
 10
-2.9783
 20
6.24214
 11
-3.06168
 21
6.47124
  0
LINE
  8
0
 10
-3.06168
 20
6.47124
 11
-3.19565
 21
6.67493
  0
LINE
  8
0
 10
-3.19565
 20
6.67493
 11
-3.37297
 21
6.84222
  0
LINE
  8
0
 10
-3.37297
 20
6.84222
 11
-3.58411
 21
6.96413
  0
LINE
  8
0
 10
-3.58411
 20
6.96413
 11
-3.81766
 21
7.03404
  0
LINE
  8
0
 10
-3.81766
 20
7.03404
 11
-4.06105
 21
7.04822
  0
LINE
  8
0
 10
-4.06105
 20
7.04822
 11
-4.30113
 21
7.00587
  0
LINE
  8
0
 10
-4.30113
 20
7.00587
 11
-4.52499
 21
6.90932
  0
LINE
  8
0
 10
-4.52499
 20
6.90932
 11
-4.72055
 21
6.76373
  0
LINE
  8
0
 10
-4.72055
 20
6.76373
 11
-4.87726
 21
6.57698
  0
LINE
  8
0
 10
-4.87726
 20
6.57698
 11
-4.98666
 21
6.35912
  0
LINE
  8
0
 10
-4.98666
 20
6.35912
 11
-5.04289
 21
6.12189
  0
LINE
  8
0
 10
-5.04289
 20
6.12189
 11
-5.04289
 21
5.8781
  0
LINE
  8
0
 10
-5.04289
 20
5.8781
 11
-4.98666
 21
5.64087
  0
LINE
  8
0
 10
-4.98666
 20
5.64087
 11
-4.87726
 21
5.423
  0
LINE
  8
0
 10
-4.87726
 20
5.423
 11
-4.72055
 21
5.23625
  0
LINE
  8
0
 10
-4.72055
 20
5.23625
 11
-4.52499
 21
5.09067
  0
LINE
  8
0
 10
-4.52499
 20
5.09067
 11
-4.30113
 21
4.99411
  0
LINE
  8
0
 10
-4.30113
 20
4.99411
 11
-4.06105
 21
4.95177
  0
LINE
  8
0
 10
-4.06105
 20
4.95177
 11
-3.81766
 21
4.96594
  0
LINE
  8
0
 10
4.18233
 20
4.96594
 11
4.41588
 21
5.03586
  0
LINE
  8
0
 10
4.41588
 20
5.03586
 11
4.62701
 21
5.15776
  0
LINE
  8
0
 10
4.62701
 20
5.15776
 11
4.80434
 21
5.32506
  0
LINE
  8
0
 10
4.80434
 20
5.32506
 11
4.93831
 21
5.52875
  0
LINE
  8
0
 10
4.93831
 20
5.52875
 11
5.02168
 21
5.75784
  0
LINE
  8
0
 10
5.02168
 20
5.75784
 11
5.04999
 21
6
  0
LINE
  8
0
 10
5.04999
 20
6
 11
5.02168
 21
6.24214
  0
LINE
  8
0
 10
5.02168
 20
6.24214
 11
4.93831
 21
6.47124
  0
LINE
  8
0
 10
4.93831
 20
6.47124
 11
4.80434
 21
6.67493
  0
LINE
  8
0
 10
4.80434
 20
6.67493
 11
4.62701
 21
6.84222
  0
LINE
  8
0
 10
4.62701
 20
6.84222
 11
4.41588
 21
6.96413
  0
LINE
  8
0
 10
4.41588
 20
6.96413
 11
4.18233
 21
7.03404
  0
LINE
  8
0
 10
4.18233
 20
7.03404
 11
3.93893
 21
7.04822
  0
LINE
  8
0
 10
3.93893
 20
7.04822
 11
3.69885
 21
7.00587
  0
LINE
  8
0
 10
3.69885
 20
7.00587
 11
3.47499
 21
6.90932
  0
LINE
  8
0
 10
3.47499
 20
6.90932
 11
3.27943
 21
6.76373
  0
LINE
  8
0
 10
3.27943
 20
6.76373
 11
3.12273
 21
6.57698
  0
LINE
  8
0
 10
3.12273
 20
6.57698
 11
3.01332
 21
6.35912
  0
LINE
  8
0
 10
3.01332
 20
6.35912
 11
2.95709
 21
6.12189
  0
LINE
  8
0
 10
2.95709
 20
6.12189
 11
2.95709
 21
5.8781
  0
LINE
  8
0
 10
2.95709
 20
5.8781
 11
3.01332
 21
5.64087
  0
LINE
  8
0
 10
3.01332
 20
5.64087
 11
3.12273
 21
5.423
  0
LINE
  8
0
 10
3.12273
 20
5.423
 11
3.27943
 21
5.23625
  0
LINE
  8
0
 10
3.27943
 20
5.23625
 11
3.47499
 21
5.09067
  0
LINE
  8
0
 10
3.47499
 20
5.09067
 11
3.69885
 21
4.99411
  0
LINE
  8
0
 10
3.69885
 20
4.99411
 11
3.93893
 21
4.95177
  0
LINE
  8
0
 10
3.93893
 20
4.95177
 11
4.18233
 21
4.96594
  0
LINE
  8
0
 10
-3.81766
 20
-7.03404
 11
-3.58411
 21
-6.96413
  0
LINE
  8
0
 10
-3.58411
 20
-6.96413
 11
-3.37297
 21
-6.84222
  0
LINE
  8
0
 10
-3.37297
 20
-6.84222
 11
-3.19565
 21
-6.67493
  0
LINE
  8
0
 10
-3.19565
 20
-6.67493
 11
-3.06168
 21
-6.47124
  0
LINE
  8
0
 10
-3.06168
 20
-6.47124
 11
-2.9783
 21
-6.24214
  0
LINE
  8
0
 10
-2.9783
 20
-6.24214
 11
-2.95
 21
-6
  0
LINE
  8
0
 10
-2.95
 20
-6
 11
-2.9783
 21
-5.75784
  0
LINE
  8
0
 10
-2.9783
 20
-5.75784
 11
-3.06168
 21
-5.52875
  0
LINE
  8
0
 10
-3.06168
 20
-5.52875
 11
-3.19565
 21
-5.32506
  0
LINE
  8
0
 10
-3.19565
 20
-5.32506
 11
-3.37297
 21
-5.15776
  0
LINE
  8
0
 10
-3.37297
 20
-5.15776
 11
-3.58411
 21
-5.03586
  0
LINE
  8
0
 10
-3.58411
 20
-5.03586
 11
-3.81766
 21
-4.96594
  0
LINE
  8
0
 10
-3.81766
 20
-4.96594
 11
-4.06105
 21
-4.95177
  0
LINE
  8
0
 10
-4.06105
 20
-4.95177
 11
-4.30113
 21
-4.99411
  0
LINE
  8
0
 10
-4.30113
 20
-4.99411
 11
-4.52499
 21
-5.09067
  0
LINE
  8
0
 10
-4.52499
 20
-5.09067
 11
-4.72055
 21
-5.23625
  0
LINE
  8
0
 10
-4.72055
 20
-5.23625
 11
-4.87726
 21
-5.423
  0
LINE
  8
0
 10
-4.87726
 20
-5.423
 11
-4.98666
 21
-5.64087
  0
LINE
  8
0
 10
-4.98666
 20
-5.64087
 11
-5.04289
 21
-5.8781
  0
LINE
  8
0
 10
-5.04289
 20
-5.8781
 11
-5.04289
 21
-6.12189
  0
LINE
  8
0
 10
-5.04289
 20
-6.12189
 11
-4.98666
 21
-6.35912
  0
LINE
  8
0
 10
-4.98666
 20
-6.35912
 11
-4.87726
 21
-6.57698
  0
LINE
  8
0
 10
-4.87726
 20
-6.57698
 11
-4.72055
 21
-6.76373
  0
LINE
  8
0
 10
-4.72055
 20
-6.76373
 11
-4.52499
 21
-6.90932
  0
LINE
  8
0
 10
-4.52499
 20
-6.90932
 11
-4.30113
 21
-7.00587
  0
LINE
  8
0
 10
-4.30113
 20
-7.00587
 11
-4.06105
 21
-7.04822
  0
LINE
  8
0
 10
-4.06105
 20
-7.04822
 11
-3.81766
 21
-7.03404
  0
LINE
  8
0
 10
4.18233
 20
-7.03404
 11
4.41588
 21
-6.96413
  0
LINE
  8
0
 10
4.41588
 20
-6.96413
 11
4.62701
 21
-6.84222
  0
LINE
  8
0
 10
4.62701
 20
-6.84222
 11
4.80434
 21
-6.67493
  0
LINE
  8
0
 10
4.80434
 20
-6.67493
 11
4.93831
 21
-6.47124
  0
LINE
  8
0
 10
4.93831
 20
-6.47124
 11
5.02168
 21
-6.24214
  0
LINE
  8
0
 10
5.02168
 20
-6.24214
 11
5.04999
 21
-6
  0
LINE
  8
0
 10
5.04999
 20
-6
 11
5.02168
 21
-5.75784
  0
LINE
  8
0
 10
5.02168
 20
-5.75784
 11
4.93831
 21
-5.52875
  0
LINE
  8
0
 10
4.93831
 20
-5.52875
 11
4.80434
 21
-5.32506
  0
LINE
  8
0
 10
4.80434
 20
-5.32506
 11
4.62701
 21
-5.15776
  0
LINE
  8
0
 10
4.62701
 20
-5.15776
 11
4.41588
 21
-5.03586
  0
LINE
  8
0
 10
4.41588
 20
-5.03586
 11
4.18233
 21
-4.96594
  0
LINE
  8
0
 10
4.18233
 20
-4.96594
 11
3.93893
 21
-4.95177
  0
LINE
  8
0
 10
3.93893
 20
-4.95177
 11
3.69885
 21
-4.99411
  0
LINE
  8
0
 10
3.69885
 20
-4.99411
 11
3.47499
 21
-5.09067
  0
LINE
  8
0
 10
3.47499
 20
-5.09067
 11
3.27943
 21
-5.23625
  0
LINE
  8
0
 10
3.27943
 20
-5.23625
 11
3.12273
 21
-5.423
  0
LINE
  8
0
 10
3.12273
 20
-5.423
 11
3.01332
 21
-5.64087
  0
LINE
  8
0
 10
3.01332
 20
-5.64087
 11
2.95709
 21
-5.8781
  0
LINE
  8
0
 10
2.95709
 20
-5.8781
 11
2.95709
 21
-6.12189
  0
LINE
  8
0
 10
2.95709
 20
-6.12189
 11
3.01332
 21
-6.35912
  0
LINE
  8
0
 10
3.01332
 20
-6.35912
 11
3.12273
 21
-6.57698
  0
LINE
  8
0
 10
3.12273
 20
-6.57698
 11
3.27943
 21
-6.76373
  0
LINE
  8
0
 10
3.27943
 20
-6.76373
 11
3.47499
 21
-6.90932
  0
LINE
  8
0
 10
3.47499
 20
-6.90932
 11
3.69885
 21
-7.00587
  0
LINE
  8
0
 10
3.69885
 20
-7.00587
 11
3.93893
 21
-7.04822
  0
LINE
  8
0
 10
3.93893
 20
-7.04822
 11
4.18233
 21
-7.03404
  0
ENDSEC
  0
SECTION
  2
OBJECTS
  0
DICTIONARY
  0
ENDSEC
  0
EOF
