  0
SECTION
  2
BLOCKS
  0
ENDSEC
  0
SECTION
  2
ENTITIES
  0
LINE
  8
0
 10
27.6676
 20
-39.9248
 11
28.3017
 21
-39.7029
  0
LINE
  8
0
 10
28.3017
 20
-39.7029
 11
28.8705
 21
-39.3455
  0
LINE
  8
0
 10
28.8705
 20
-39.3455
 11
29.3455
 21
-38.8705
  0
LINE
  8
0
 10
29.3455
 20
-38.8705
 11
29.7029
 21
-38.3017
  0
LINE
  8
0
 10
29.7029
 20
-38.3017
 11
29.9248
 21
-37.6676
  0
LINE
  8
0
 10
29.9248
 20
-37.6676
 11
30
 21
-37
  0
LINE
  8
0
 10
30
 20
-37
 11
30
 21
37
  0
LINE
  8
0
 10
30
 20
37
 11
29.9248
 21
37.6676
  0
LINE
  8
0
 10
29.9248
 20
37.6676
 11
29.7029
 21
38.3017
  0
LINE
  8
0
 10
29.7029
 20
38.3017
 11
29.3455
 21
38.8705
  0
LINE
  8
0
 10
29.3455
 20
38.8705
 11
28.8705
 21
39.3455
  0
LINE
  8
0
 10
28.8705
 20
39.3455
 11
28.3017
 21
39.7029
  0
LINE
  8
0
 10
28.3017
 20
39.7029
 11
27.6676
 21
39.9248
  0
LINE
  8
0
 10
27.6676
 20
39.9248
 11
27
 21
40
  0
LINE
  8
0
 10
27
 20
40
 11
-27
 21
40
  0
LINE
  8
0
 10
-27
 20
40
 11
-27.6676
 21
39.9248
  0
LINE
  8
0
 10
-27.6676
 20
39.9248
 11
-28.3017
 21
39.7029
  0
LINE
  8
0
 10
-28.3017
 20
39.7029
 11
-28.8705
 21
39.3455
  0
LINE
  8
0
 10
-28.8705
 20
39.3455
 11
-29.3455
 21
38.8705
  0
LINE
  8
0
 10
-29.3455
 20
38.8705
 11
-29.7029
 21
38.3017
  0
LINE
  8
0
 10
-29.7029
 20
38.3017
 11
-29.9248
 21
37.6676
  0
LINE
  8
0
 10
-29.9248
 20
37.6676
 11
-30
 21
37
  0
LINE
  8
0
 10
-30
 20
37
 11
-30
 21
-37
  0
LINE
  8
0
 10
-30
 20
-37
 11
-29.9248
 21
-37.6676
  0
LINE
  8
0
 10
-29.9248
 20
-37.6676
 11
-29.7029
 21
-38.3017
  0
LINE
  8
0
 10
-29.7029
 20
-38.3017
 11
-29.3455
 21
-38.8705
  0
LINE
  8
0
 10
-29.3455
 20
-38.8705
 11
-28.8705
 21
-39.3455
  0
LINE
  8
0
 10
-28.8705
 20
-39.3455
 11
-28.3017
 21
-39.7029
  0
LINE
  8
0
 10
-28.3017
 20
-39.7029
 11
-27.6676
 21
-39.9248
  0
LINE
  8
0
 10
-27.6676
 20
-39.9248
 11
-27
 21
-40
  0
LINE
  8
0
 10
-27
 20
-40
 11
27
 21
-40
  0
LINE
  8
0
 10
27
 20
-40
 11
27.6676
 21
-39.9248
  0
LINE
  8
0
 10
-0.468445
 20
20.5443
 11
-1.06444
 21
20.7379
  0
LINE
  8
0
 10
-1.06444
 20
20.7379
 11
-1.59355
 21
21.0737
  0
LINE
  8
0
 10
-1.59355
 20
21.0737
 11
-2.02254
 21
21.5305
  0
LINE
  8
0
 10
-2.02254
 20
21.5305
 11
-2.32443
 21
22.0797
  0
LINE
  8
0
 10
-2.32443
 20
22.0797
 11
-2.48029
 21
22.6867
  0
LINE
  8
0
 10
-2.48029
 20
22.6867
 11
-2.48029
 21
23.3133
  0
LINE
  8
0
 10
-2.48029
 20
23.3133
 11
-2.32443
 21
23.9203
  0
LINE
  8
0
 10
-2.32443
 20
23.9203
 11
-2.02254
 21
24.4695
  0
LINE
  8
0
 10
-2.02254
 20
24.4695
 11
-1.59355
 21
24.9263
  0
LINE
  8
0
 10
-1.59355
 20
24.9263
 11
-1.06444
 21
25.2621
  0
LINE
  8
0
 10
-1.06444
 20
25.2621
 11
-0.468445
 21
25.4557
  0
LINE
  8
0
 10
-0.468445
 20
25.4557
 11
0.156967
 21
25.4951
  0
LINE
  8
0
 10
0.156967
 20
25.4951
 11
0.772537
 21
25.3776
  0
LINE
  8
0
 10
0.772537
 20
25.3776
 11
1.33955
 21
25.1108
  0
LINE
  8
0
 10
1.33955
 20
25.1108
 11
1.82242
 21
24.7114
  0
LINE
  8
0
 10
1.82242
 20
24.7114
 11
2.19077
 21
24.2044
  0
LINE
  8
0
 10
2.19077
 20
24.2044
 11
2.42145
 21
23.6217
  0
LINE
  8
0
 10
2.42145
 20
23.6217
 11
2.5
 21
23
  0
LINE
  8
0
 10
2.5
 20
23
 11
2.42145
 21
22.3783
  0
LINE
  8
0
 10
2.42145
 20
22.3783
 11
2.19077
 21
21.7956
  0
LINE
  8
0
 10
2.19077
 20
21.7956
 11
1.82242
 21
21.2886
  0
LINE
  8
0
 10
1.82242
 20
21.2886
 11
1.33955
 21
20.8892
  0
LINE
  8
0
 10
1.33955
 20
20.8892
 11
0.772537
 21
20.6223
  0
LINE
  8
0
 10
0.772537
 20
20.6223
 11
0.156967
 21
20.5049
  0
LINE
  8
0
 10
0.156967
 20
20.5049
 11
-0.468445
 21
20.5443
  0
LINE
  8
0
 10
14.2317
 20
15.9726
 11
13.2543
 21
16.2902
  0
LINE
  8
0
 10
13.2543
 20
16.2902
 11
12.3866
 21
16.8409
  0
LINE
  8
0
 10
12.3866
 20
16.8409
 11
11.683
 21
17.5901
  0
LINE
  8
0
 10
11.683
 20
17.5901
 11
11.1879
 21
18.4907
  0
LINE
  8
0
 10
11.1879
 20
18.4907
 11
10.9323
 21
19.4861
  0
LINE
  8
0
 10
10.9323
 20
19.4861
 11
10.9323
 21
20.5139
  0
LINE
  8
0
 10
10.9323
 20
20.5139
 11
11.1879
 21
21.5093
  0
LINE
  8
0
 10
11.1879
 20
21.5093
 11
11.683
 21
22.4099
  0
LINE
  8
0
 10
11.683
 20
22.4099
 11
12.3866
 21
23.1591
  0
LINE
  8
0
 10
12.3866
 20
23.1591
 11
13.2543
 21
23.7098
  0
LINE
  8
0
 10
13.2543
 20
23.7098
 11
14.2317
 21
24.0274
  0
LINE
  8
0
 10
14.2317
 20
24.0274
 11
15.2574
 21
24.0919
  0
LINE
  8
0
 10
15.2574
 20
24.0919
 11
16.267
 21
23.8993
  0
LINE
  8
0
 10
16.267
 20
23.8993
 11
17.1969
 21
23.4617
  0
LINE
  8
0
 10
17.1969
 20
23.4617
 11
17.9888
 21
22.8066
  0
LINE
  8
0
 10
17.9888
 20
22.8066
 11
18.5928
 21
21.9752
  0
LINE
  8
0
 10
18.5928
 20
21.9752
 11
18.9712
 21
21.0196
  0
LINE
  8
0
 10
18.9712
 20
21.0196
 11
19.1
 21
20
  0
LINE
  8
0
 10
19.1
 20
20
 11
18.9712
 21
18.9804
  0
LINE
  8
0
 10
18.9712
 20
18.9804
 11
18.5928
 21
18.0248
  0
LINE
  8
0
 10
18.5928
 20
18.0248
 11
17.9888
 21
17.1933
  0
LINE
  8
0
 10
17.9888
 20
17.1933
 11
17.1969
 21
16.5383
  0
LINE
  8
0
 10
17.1969
 20
16.5383
 11
16.267
 21
16.1007
  0
LINE
  8
0
 10
16.267
 20
16.1007
 11
15.2574
 21
15.9081
  0
LINE
  8
0
 10
15.2574
 20
15.9081
 11
14.2317
 21
15.9726
  0
LINE
  8
0
 10
-15.7682
 20
15.9726
 11
-16.7457
 21
16.2902
  0
LINE
  8
0
 10
-16.7457
 20
16.2902
 11
-17.6134
 21
16.8409
  0
LINE
  8
0
 10
-17.6134
 20
16.8409
 11
-18.317
 21
17.5901
  0
LINE
  8
0
 10
-18.317
 20
17.5901
 11
-18.8121
 21
18.4907
  0
LINE
  8
0
 10
-18.8121
 20
18.4907
 11
-19.0677
 21
19.4861
  0
LINE
  8
0
 10
-19.0677
 20
19.4861
 11
-19.0677
 21
20.5139
  0
LINE
  8
0
 10
-19.0677
 20
20.5139
 11
-18.8121
 21
21.5093
  0
LINE
  8
0
 10
-18.8121
 20
21.5093
 11
-18.317
 21
22.4099
  0
LINE
  8
0
 10
-18.317
 20
22.4099
 11
-17.6134
 21
23.1591
  0
LINE
  8
0
 10
-17.6134
 20
23.1591
 11
-16.7457
 21
23.7098
  0
LINE
  8
0
 10
-16.7457
 20
23.7098
 11
-15.7682
 21
24.0274
  0
LINE
  8
0
 10
-15.7682
 20
24.0274
 11
-14.7426
 21
24.0919
  0
LINE
  8
0
 10
-14.7426
 20
24.0919
 11
-13.733
 21
23.8993
  0
LINE
  8
0
 10
-13.733
 20
23.8993
 11
-12.8031
 21
23.4617
  0
LINE
  8
0
 10
-12.8031
 20
23.4617
 11
-12.0112
 21
22.8066
  0
LINE
  8
0
 10
-12.0112
 20
22.8066
 11
-11.4071
 21
21.9752
  0
LINE
  8
0
 10
-11.4071
 20
21.9752
 11
-11.0288
 21
21.0196
  0
LINE
  8
0
 10
-11.0288
 20
21.0196
 11
-10.9
 21
20
  0
LINE
  8
0
 10
-10.9
 20
20
 11
-11.0288
 21
18.9804
  0
LINE
  8
0
 10
-11.0288
 20
18.9804
 11
-11.4071
 21
18.0248
  0
LINE
  8
0
 10
-11.4071
 20
18.0248
 11
-12.0112
 21
17.1933
  0
LINE
  8
0
 10
-12.0112
 20
17.1933
 11
-12.8031
 21
16.5383
  0
LINE
  8
0
 10
-12.8031
 20
16.5383
 11
-13.733
 21
16.1007
  0
LINE
  8
0
 10
-13.733
 20
16.1007
 11
-14.7426
 21
15.9081
  0
LINE
  8
0
 10
-14.7426
 20
15.9081
 11
-15.7682
 21
15.9726
  0
LINE
  8
0
 10
14.2317
 20
-24.0274
 11
13.2543
 21
-23.7098
  0
LINE
  8
0
 10
13.2543
 20
-23.7098
 11
12.3866
 21
-23.1591
  0
LINE
  8
0
 10
12.3866
 20
-23.1591
 11
11.683
 21
-22.4099
  0
LINE
  8
0
 10
11.683
 20
-22.4099
 11
11.1879
 21
-21.5093
  0
LINE
  8
0
 10
11.1879
 20
-21.5093
 11
10.9323
 21
-20.5139
  0
LINE
  8
0
 10
10.9323
 20
-20.5139
 11
10.9323
 21
-19.4861
  0
LINE
  8
0
 10
10.9323
 20
-19.4861
 11
11.1879
 21
-18.4907
  0
LINE
  8
0
 10
11.1879
 20
-18.4907
 11
11.683
 21
-17.5901
  0
LINE
  8
0
 10
11.683
 20
-17.5901
 11
12.3866
 21
-16.8409
  0
LINE
  8
0
 10
12.3866
 20
-16.8409
 11
13.2543
 21
-16.2902
  0
LINE
  8
0
 10
13.2543
 20
-16.2902
 11
14.2317
 21
-15.9726
  0
LINE
  8
0
 10
14.2317
 20
-15.9726
 11
15.2574
 21
-15.9081
  0
LINE
  8
0
 10
15.2574
 20
-15.9081
 11
16.267
 21
-16.1007
  0
LINE
  8
0
 10
16.267
 20
-16.1007
 11
17.1969
 21
-16.5383
  0
LINE
  8
0
 10
17.1969
 20
-16.5383
 11
17.9888
 21
-17.1933
  0
LINE
  8
0
 10
17.9888
 20
-17.1933
 11
18.5928
 21
-18.0248
  0
LINE
  8
0
 10
18.5928
 20
-18.0248
 11
18.9712
 21
-18.9804
  0
LINE
  8
0
 10
18.9712
 20
-18.9804
 11
19.1
 21
-20
  0
LINE
  8
0
 10
19.1
 20
-20
 11
18.9712
 21
-21.0196
  0
LINE
  8
0
 10
18.9712
 20
-21.0196
 11
18.5928
 21
-21.9752
  0
LINE
  8
0
 10
18.5928
 20
-21.9752
 11
17.9888
 21
-22.8066
  0
LINE
  8
0
 10
17.9888
 20
-22.8066
 11
17.1969
 21
-23.4617
  0
LINE
  8
0
 10
17.1969
 20
-23.4617
 11
16.267
 21
-23.8993
  0
LINE
  8
0
 10
16.267
 20
-23.8993
 11
15.2574
 21
-24.0919
  0
LINE
  8
0
 10
15.2574
 20
-24.0919
 11
14.2317
 21
-24.0274
  0
LINE
  8
0
 10
-15.7682
 20
-24.0274
 11
-16.7457
 21
-23.7098
  0
LINE
  8
0
 10
-16.7457
 20
-23.7098
 11
-17.6134
 21
-23.1591
  0
LINE
  8
0
 10
-17.6134
 20
-23.1591
 11
-18.317
 21
-22.4099
  0
LINE
  8
0
 10
-18.317
 20
-22.4099
 11
-18.8121
 21
-21.5093
  0
LINE
  8
0
 10
-18.8121
 20
-21.5093
 11
-19.0677
 21
-20.5139
  0
LINE
  8
0
 10
-19.0677
 20
-20.5139
 11
-19.0677
 21
-19.4861
  0
LINE
  8
0
 10
-19.0677
 20
-19.4861
 11
-18.8121
 21
-18.4907
  0
LINE
  8
0
 10
-18.8121
 20
-18.4907
 11
-18.317
 21
-17.5901
  0
LINE
  8
0
 10
-18.317
 20
-17.5901
 11
-17.6134
 21
-16.8409
  0
LINE
  8
0
 10
-17.6134
 20
-16.8409
 11
-16.7457
 21
-16.2902
  0
LINE
  8
0
 10
-16.7457
 20
-16.2902
 11
-15.7682
 21
-15.9726
  0
LINE
  8
0
 10
-15.7682
 20
-15.9726
 11
-14.7426
 21
-15.9081
  0
LINE
  8
0
 10
-14.7426
 20
-15.9081
 11
-13.733
 21
-16.1007
  0
LINE
  8
0
 10
-13.733
 20
-16.1007
 11
-12.8031
 21
-16.5383
  0
LINE
  8
0
 10
-12.8031
 20
-16.5383
 11
-12.0112
 21
-17.1933
  0
LINE
  8
0
 10
-12.0112
 20
-17.1933
 11
-11.4071
 21
-18.0248
  0
LINE
  8
0
 10
-11.4071
 20
-18.0248
 11
-11.0288
 21
-18.9804
  0
LINE
  8
0
 10
-11.0288
 20
-18.9804
 11
-10.9
 21
-20
  0
LINE
  8
0
 10
-10.9
 20
-20
 11
-11.0288
 21
-21.0196
  0
LINE
  8
0
 10
-11.0288
 20
-21.0196
 11
-11.4071
 21
-21.9752
  0
LINE
  8
0
 10
-11.4071
 20
-21.9752
 11
-12.0112
 21
-22.8066
  0
LINE
  8
0
 10
-12.0112
 20
-22.8066
 11
-12.8031
 21
-23.4617
  0
LINE
  8
0
 10
-12.8031
 20
-23.4617
 11
-13.733
 21
-23.8993
  0
LINE
  8
0
 10
-13.733
 20
-23.8993
 11
-14.7426
 21
-24.0919
  0
LINE
  8
0
 10
-14.7426
 20
-24.0919
 11
-15.7682
 21
-24.0274
  0
LINE
  8
0
 10
-0.468445
 20
-25.4557
 11
-1.06444
 21
-25.2621
  0
LINE
  8
0
 10
-1.06444
 20
-25.2621
 11
-1.59355
 21
-24.9263
  0
LINE
  8
0
 10
-1.59355
 20
-24.9263
 11
-2.02254
 21
-24.4695
  0
LINE
  8
0
 10
-2.02254
 20
-24.4695
 11
-2.32443
 21
-23.9203
  0
LINE
  8
0
 10
-2.32443
 20
-23.9203
 11
-2.48029
 21
-23.3133
  0
LINE
  8
0
 10
-2.48029
 20
-23.3133
 11
-2.48029
 21
-22.6867
  0
LINE
  8
0
 10
-2.48029
 20
-22.6867
 11
-2.32443
 21
-22.0797
  0
LINE
  8
0
 10
-2.32443
 20
-22.0797
 11
-2.02254
 21
-21.5305
  0
LINE
  8
0
 10
-2.02254
 20
-21.5305
 11
-1.59355
 21
-21.0737
  0
LINE
  8
0
 10
-1.59355
 20
-21.0737
 11
-1.06444
 21
-20.7379
  0
LINE
  8
0
 10
-1.06444
 20
-20.7379
 11
-0.468445
 21
-20.5443
  0
LINE
  8
0
 10
-0.468445
 20
-20.5443
 11
0.156967
 21
-20.5049
  0
LINE
  8
0
 10
0.156967
 20
-20.5049
 11
0.772537
 21
-20.6223
  0
LINE
  8
0
 10
0.772537
 20
-20.6223
 11
1.33955
 21
-20.8892
  0
LINE
  8
0
 10
1.33955
 20
-20.8892
 11
1.82242
 21
-21.2886
  0
LINE
  8
0
 10
1.82242
 20
-21.2886
 11
2.19077
 21
-21.7956
  0
LINE
  8
0
 10
2.19077
 20
-21.7956
 11
2.42145
 21
-22.3783
  0
LINE
  8
0
 10
2.42145
 20
-22.3783
 11
2.5
 21
-23
  0
LINE
  8
0
 10
2.5
 20
-23
 11
2.42145
 21
-23.6217
  0
LINE
  8
0
 10
2.42145
 20
-23.6217
 11
2.19077
 21
-24.2044
  0
LINE
  8
0
 10
2.19077
 20
-24.2044
 11
1.82242
 21
-24.7114
  0
LINE
  8
0
 10
1.82242
 20
-24.7114
 11
1.33955
 21
-25.1108
  0
LINE
  8
0
 10
1.33955
 20
-25.1108
 11
0.772537
 21
-25.3776
  0
LINE
  8
0
 10
0.772537
 20
-25.3776
 11
0.156967
 21
-25.4951
  0
LINE
  8
0
 10
0.156967
 20
-25.4951
 11
-0.468445
 21
-25.4557
  0
ENDSEC
  0
SECTION
  2
OBJECTS
  0
DICTIONARY
  0
ENDSEC
  0
EOF
